<?xml version="1.0" standalone="yes"?>

<svg version="1.1" viewBox="0.0 0.0 960.0 540.0" fill="none" stroke="none" stroke-linecap="square" stroke-miterlimit="10" xmlns="http://www.w3.org/2000/svg" xmlns:xlink="http://www.w3.org/1999/xlink"><clipPath id="p.0"><path d="m0 0l960.0 0l0 540.0l-960.0 0l0 -540.0z" clip-rule="nonzero"></path></clipPath><g clip-path="url(#p.0)"><path fill="#ffffff" d="m0 0l960.0 0l0 540.0l-960.0 0z" fill-rule="nonzero"></path><path shape-rendering="crispEdges" fill="#fce5cd" d="m85.703415 140.31102l121.62991 0l0 57.196854l-121.62991 0l0 -57.196854z" fill-rule="nonzero"></path><path shape-rendering="crispEdges" fill="#fce5cd" d="m207.33333 140.31102l121.62993 0l0 57.196854l-121.62993 0l0 -57.196854z" fill-rule="nonzero"></path><path shape-rendering="crispEdges" fill="#fce5cd" d="m328.96326 140.31102l121.62991 0l0 57.196854l-121.62991 0l0 -57.196854z" fill-rule="nonzero"></path><path stroke="#9e9e9e" stroke-width="1.0" stroke-linecap="butt" d="m85.703415 139.81233l0 326.97113" fill-rule="nonzero"></path><path stroke="#9e9e9e" stroke-width="1.0" stroke-linecap="butt" d="m207.33333 139.81233l0 326.97113" fill-rule="nonzero"></path><path stroke="#9e9e9e" stroke-width="1.0" stroke-linecap="butt" d="m328.96326 139.81233l0 326.97113" fill-rule="nonzero"></path><path stroke="#9e9e9e" stroke-width="1.0" stroke-linecap="butt" d="m450.59317 139.81233l0 326.97113" fill-rule="nonzero"></path><path stroke="#9e9e9e" stroke-width="1.0" stroke-linecap="butt" d="m85.20473 140.31102l365.88715 0" fill-rule="nonzero"></path><path stroke="#9e9e9e" stroke-width="1.0" stroke-linecap="butt" d="m85.20473 197.50787l365.88715 0" fill-rule="nonzero"></path><path stroke="#9e9e9e" stroke-width="1.0" stroke-linecap="butt" d="m85.20473 264.7021l365.88715 0" fill-rule="nonzero"></path><path stroke="#9e9e9e" stroke-width="1.0" stroke-linecap="butt" d="m85.20473 331.89633l365.88715 0" fill-rule="nonzero"></path><path stroke="#9e9e9e" stroke-width="1.0" stroke-linecap="butt" d="m85.20473 399.09055l365.88715 0" fill-rule="nonzero"></path><path stroke="#9e9e9e" stroke-width="1.0" stroke-linecap="butt" d="m85.20473 466.2848l365.88715 0" fill-rule="nonzero"></path><path fill="#000000" d="m94.93779 180.03102l6.0625 -8.625l-5.609375 -7.96875l3.515625 0l2.546875 3.890625q0.71875 1.109375 1.15625 1.859375q0.6875 -1.03125 1.265625 -1.828125l2.796875 -3.921875l3.359375 0l-5.734375 7.8125l6.171875 8.78125l-3.453125 0l-3.40625 -5.15625l-0.90625 -1.390625l-4.359375 6.546875l-3.40625 0zm27.6875 0l-2.8125 0l0 -17.921875q-1.015625 0.96875 -2.671875 1.9375q-1.640625 0.96875 -2.953125 1.453125l0 -2.71875q2.359375 -1.109375 4.125 -2.6875q1.765625 -1.578125 2.5 -3.0625l1.8125 0l0 23.0z" fill-rule="nonzero"></path><path fill="#000000" d="m216.5677 180.03102l6.0625 -8.625l-5.609375 -7.96875l3.515625 0l2.546875 3.890625q0.71875 1.109375 1.15625 1.859375q0.6875 -1.03125 1.265625 -1.828125l2.796875 -3.921875l3.359375 0l-5.734375 7.8125l6.171875 8.78125l-3.453125 0l-3.40625 -5.15625l-0.90625 -1.390625l-4.359375 6.546875l-3.40625 0zm31.875 -2.703125l0 2.703125l-15.140625 0q-0.03125 -1.015625 0.328125 -1.953125q0.578125 -1.546875 1.84375 -3.046875q1.28125 -1.5 3.6875 -3.46875q3.734375 -3.0625 5.046875 -4.84375q1.3125 -1.796875 1.3125 -3.390625q0 -1.671875 -1.203125 -2.8125q-1.1875 -1.15625 -3.109375 -1.15625q-2.03125 0 -3.25 1.21875q-1.21875 1.21875 -1.234375 3.375l-2.890625 -0.296875q0.296875 -3.234375 2.234375 -4.921875q1.9375 -1.703125 5.203125 -1.703125q3.296875 0 5.21875 1.828125q1.921875 1.828125 1.921875 4.53125q0 1.375 -0.5625 2.703125q-0.5625 1.328125 -1.875 2.796875q-1.296875 1.46875 -4.328125 4.03125q-2.53125 2.125 -3.25 2.890625q-0.71875 0.75 -1.1875 1.515625l11.234375 0z" fill-rule="nonzero"></path><path fill="#000000" d="m339.94763 186.42165l-0.3125 -2.640625q0.921875 0.25 1.609375 0.25q0.9375 0 1.5 -0.3125q0.5625 -0.3125 0.921875 -0.875q0.265625 -0.421875 0.859375 -2.09375q0.078125 -0.234375 0.25 -0.6875l-6.296875 -16.625l3.03125 0l3.453125 9.609375q0.671875 1.828125 1.203125 3.84375q0.484375 -1.9375 1.15625 -3.78125l3.546875 -9.671875l2.8125 0l-6.3125 16.875q-1.015625 2.734375 -1.578125 3.765625q-0.75 1.390625 -1.71875 2.03125q-0.96875 0.65625 -2.3125 0.65625q-0.8125 0 -1.8125 -0.34375z" fill-rule="nonzero"></path><path fill="#000000" d="m96.03154 225.931q0 -4.0625 0.828125 -6.53125q0.84375 -2.484375 2.484375 -3.828125q1.65625 -1.34375 4.15625 -1.34375q1.84375 0 3.234375 0.75q1.390625 0.734375 2.296875 2.140625q0.90625 1.390625 1.421875 3.40625q0.515625 2.0 0.515625 5.40625q0 4.03125 -0.828125 6.515625q-0.828125 2.46875 -2.484375 3.828125q-1.640625 1.34375 -4.15625 1.34375q-3.3125 0 -5.203125 -2.375q-2.265625 -2.859375 -2.265625 -9.3125zm2.890625 0q0 5.640625 1.3125 7.515625q1.328125 1.859375 3.265625 1.859375q1.9375 0 3.25 -1.875q1.328125 -1.875 1.328125 -7.5q0 -5.65625 -1.328125 -7.515625q-1.3125 -1.859375 -3.28125 -1.859375q-1.9375 0 -3.09375 1.640625q-1.453125 2.09375 -1.453125 7.734375z" fill-rule="nonzero"></path><path fill="#000000" d="m217.66145 225.931q0 -4.0625 0.828125 -6.53125q0.84375 -2.484375 2.484375 -3.828125q1.65625 -1.34375 4.15625 -1.34375q1.84375 0 3.234375 0.75q1.390625 0.734375 2.296875 2.140625q0.90625 1.390625 1.421875 3.40625q0.515625 2.0 0.515625 5.40625q0 4.03125 -0.828125 6.515625q-0.828125 2.46875 -2.484375 3.828125q-1.640625 1.34375 -4.15625 1.34375q-3.3125 0 -5.203125 -2.375q-2.265625 -2.859375 -2.265625 -9.3125zm2.890625 0q0 5.640625 1.3125 7.515625q1.328125 1.859375 3.265625 1.859375q1.9375 0 3.25 -1.875q1.328125 -1.875 1.328125 -7.5q0 -5.65625 -1.328125 -7.515625q-1.3125 -1.859375 -3.28125 -1.859375q-1.9375 0 -3.09375 1.640625q-1.453125 2.09375 -1.453125 7.734375z" fill-rule="nonzero"></path><path fill="#000000" d="m339.29138 225.931q0 -4.0625 0.828125 -6.53125q0.84375 -2.484375 2.484375 -3.828125q1.65625 -1.34375 4.15625 -1.34375q1.84375 0 3.234375 0.75q1.390625 0.734375 2.296875 2.140625q0.90625 1.390625 1.421875 3.40625q0.515625 2.0 0.515625 5.40625q0 4.03125 -0.828125 6.515625q-0.828125 2.46875 -2.484375 3.828125q-1.640625 1.34375 -4.15625 1.34375q-3.3125 0 -5.203125 -2.375q-2.265625 -2.859375 -2.265625 -9.3125zm2.890625 0q0 5.640625 1.3125 7.515625q1.328125 1.859375 3.265625 1.859375q1.9375 0 3.25 -1.875q1.328125 -1.875 1.328125 -7.5q0 -5.65625 -1.328125 -7.515625q-1.3125 -1.859375 -3.28125 -1.859375q-1.9375 0 -3.09375 1.640625q-1.453125 2.09375 -1.453125 7.734375z" fill-rule="nonzero"></path><path fill="#000000" d="m96.03154 293.1252q0 -4.0625 0.828125 -6.53125q0.84375 -2.484375 2.484375 -3.828125q1.65625 -1.34375 4.15625 -1.34375q1.84375 0 3.234375 0.75q1.390625 0.734375 2.296875 2.140625q0.90625 1.390625 1.421875 3.40625q0.515625 2.0 0.515625 5.40625q0 4.03125 -0.828125 6.515625q-0.828125 2.46875 -2.484375 3.828125q-1.640625 1.34375 -4.15625 1.34375q-3.3125 0 -5.203125 -2.375q-2.265625 -2.859375 -2.265625 -9.3125zm2.890625 0q0 5.640625 1.3125 7.515625q1.328125 1.859375 3.265625 1.859375q1.9375 0 3.25 -1.875q1.328125 -1.875 1.328125 -7.5q0 -5.65625 -1.328125 -7.515625q-1.3125 -1.859375 -3.28125 -1.859375q-1.9375 0 -3.09375 1.640625q-1.453125 2.09375 -1.453125 7.734375z" fill-rule="nonzero"></path><path fill="#000000" d="m228.2552 304.4221l-2.8125 0l0 -17.921875q-1.015625 0.96875 -2.671875 1.9375q-1.640625 0.96875 -2.953125 1.453125l0 -2.71875q2.359375 -1.109375 4.125 -2.6875q1.765625 -1.578125 2.5 -3.0625l1.8125 0l0 23.0z" fill-rule="nonzero"></path><path fill="#000000" d="m349.88513 304.4221l-2.8125 0l0 -17.921875q-1.015625 0.96875 -2.671875 1.9375q-1.640625 0.96875 -2.953125 1.453125l0 -2.71875q2.359375 -1.109375 4.125 -2.6875q1.765625 -1.578125 2.5 -3.0625l1.8125 0l0 23.0z" fill-rule="nonzero"></path><path fill="#000000" d="m106.62529 371.61633l-2.8125 0l0 -17.921875q-1.015625 0.96875 -2.671875 1.9375q-1.640625 0.96875 -2.953125 1.453125l0 -2.71875q2.359375 -1.109375 4.125 -2.6875q1.765625 -1.578125 2.5 -3.0625l1.8125 0l0 23.0z" fill-rule="nonzero"></path><path fill="#000000" d="m217.66145 360.31946q0 -4.0625 0.828125 -6.53125q0.84375 -2.484375 2.484375 -3.828125q1.65625 -1.34375 4.15625 -1.34375q1.84375 0 3.234375 0.75q1.390625 0.734375 2.296875 2.140625q0.90625 1.390625 1.421875 3.40625q0.515625 2.0 0.515625 5.40625q0 4.03125 -0.828125 6.515625q-0.828125 2.46875 -2.484375 3.828125q-1.640625 1.34375 -4.15625 1.34375q-3.3125 0 -5.203125 -2.375q-2.265625 -2.859375 -2.265625 -9.3125zm2.890625 0q0 5.640625 1.3125 7.515625q1.328125 1.859375 3.265625 1.859375q1.9375 0 3.25 -1.875q1.328125 -1.875 1.328125 -7.5q0 -5.65625 -1.328125 -7.515625q-1.3125 -1.859375 -3.28125 -1.859375q-1.9375 0 -3.09375 1.640625q-1.453125 2.09375 -1.453125 7.734375z" fill-rule="nonzero"></path><path fill="#000000" d="m349.88513 371.61633l-2.8125 0l0 -17.921875q-1.015625 0.96875 -2.671875 1.9375q-1.640625 0.96875 -2.953125 1.453125l0 -2.71875q2.359375 -1.109375 4.125 -2.6875q1.765625 -1.578125 2.5 -3.0625l1.8125 0l0 23.0z" fill-rule="nonzero"></path><path fill="#000000" d="m106.62529 438.81055l-2.8125 0l0 -17.921875q-1.015625 0.96875 -2.671875 1.9375q-1.640625 0.96875 -2.953125 1.453125l0 -2.71875q2.359375 -1.109375 4.125 -2.6875q1.765625 -1.578125 2.5 -3.0625l1.8125 0l0 23.0z" fill-rule="nonzero"></path><path fill="#000000" d="m228.2552 438.81055l-2.8125 0l0 -17.921875q-1.015625 0.96875 -2.671875 1.9375q-1.640625 0.96875 -2.953125 1.453125l0 -2.71875q2.359375 -1.109375 4.125 -2.6875q1.765625 -1.578125 2.5 -3.0625l1.8125 0l0 23.0z" fill-rule="nonzero"></path><path fill="#000000" d="m349.88513 438.81055l-2.8125 0l0 -17.921875q-1.015625 0.96875 -2.671875 1.9375q-1.640625 0.96875 -2.953125 1.453125l0 -2.71875q2.359375 -1.109375 4.125 -2.6875q1.765625 -1.578125 2.5 -3.0625l1.8125 0l0 23.0z" fill-rule="nonzero"></path><path shape-rendering="crispEdges" fill="#fce5cd" d="m519.1496 140.31102l121.629944 0l0 57.196854l-121.629944 0l0 -57.196854z" fill-rule="nonzero"></path><path shape-rendering="crispEdges" fill="#fce5cd" d="m640.77954 140.31102l121.62988 0l0 57.196854l-121.62988 0l0 -57.196854z" fill-rule="nonzero"></path><path shape-rendering="crispEdges" fill="#fce5cd" d="m762.4094 140.31102l121.629944 0l0 57.196854l-121.629944 0l0 -57.196854z" fill-rule="nonzero"></path><path stroke="#9e9e9e" stroke-width="1.0" stroke-linecap="butt" d="m519.1496 139.81233l0 326.97113" fill-rule="nonzero"></path><path stroke="#9e9e9e" stroke-width="1.0" stroke-linecap="butt" d="m640.77954 139.81233l0 326.97113" fill-rule="nonzero"></path><path stroke="#9e9e9e" stroke-width="1.0" stroke-linecap="butt" d="m762.4094 139.81233l0 326.97113" fill-rule="nonzero"></path><path stroke="#9e9e9e" stroke-width="1.0" stroke-linecap="butt" d="m884.03937 139.81233l0 326.97113" fill-rule="nonzero"></path><path stroke="#9e9e9e" stroke-width="1.0" stroke-linecap="butt" d="m518.65094 140.31102l365.88715 0" fill-rule="nonzero"></path><path stroke="#9e9e9e" stroke-width="1.0" stroke-linecap="butt" d="m518.65094 197.50787l365.88715 0" fill-rule="nonzero"></path><path stroke="#9e9e9e" stroke-width="1.0" stroke-linecap="butt" d="m518.65094 264.7021l365.88715 0" fill-rule="nonzero"></path><path stroke="#9e9e9e" stroke-width="1.0" stroke-linecap="butt" d="m518.65094 331.89633l365.88715 0" fill-rule="nonzero"></path><path stroke="#9e9e9e" stroke-width="1.0" stroke-linecap="butt" d="m518.65094 399.09055l365.88715 0" fill-rule="nonzero"></path><path stroke="#9e9e9e" stroke-width="1.0" stroke-linecap="butt" d="m518.65094 466.2848l365.88715 0" fill-rule="nonzero"></path><path fill="#000000" d="m528.384 180.03102l6.0625 -8.625l-5.609375 -7.96875l3.515625 0l2.546875 3.890625q0.71875 1.109375 1.15625 1.859375q0.6875 -1.03125 1.265625 -1.828125l2.796875 -3.921875l3.359375 0l-5.734375 7.8125l6.171875 8.78125l-3.453125 0l-3.40625 -5.15625l-0.90625 -1.390625l-4.359375 6.546875l-3.40625 0zm27.6875 0l-2.8125 0l0 -17.921875q-1.015625 0.96875 -2.671875 1.9375q-1.640625 0.96875 -2.953125 1.453125l0 -2.71875q2.359375 -1.109375 4.125 -2.6875q1.765625 -1.578125 2.5 -3.0625l1.8125 0l0 23.0z" fill-rule="nonzero"></path><path fill="#000000" d="m650.0139 180.03102l6.0625 -8.625l-5.609375 -7.96875l3.515625 0l2.546875 3.890625q0.71875 1.109375 1.15625 1.859375q0.6875 -1.03125 1.265625 -1.828125l2.796875 -3.921875l3.359375 0l-5.734375 7.8125l6.171875 8.78125l-3.453125 0l-3.40625 -5.15625l-0.90625 -1.390625l-4.359375 6.546875l-3.40625 0zm31.875 -2.703125l0 2.703125l-15.140625 0q-0.03125 -1.015625 0.328125 -1.953125q0.578125 -1.546875 1.84375 -3.046875q1.28125 -1.5 3.6875 -3.46875q3.734375 -3.0625 5.046875 -4.84375q1.3125 -1.796875 1.3125 -3.390625q0 -1.671875 -1.203125 -2.8125q-1.1875 -1.15625 -3.109375 -1.15625q-2.03125 0 -3.25 1.21875q-1.21875 1.21875 -1.234375 3.375l-2.890625 -0.296875q0.296875 -3.234375 2.234375 -4.921875q1.9375 -1.703125 5.203125 -1.703125q3.296875 0 5.21875 1.828125q1.921875 1.828125 1.921875 4.53125q0 1.375 -0.5625 2.703125q-0.5625 1.328125 -1.875 2.796875q-1.296875 1.46875 -4.328125 4.03125q-2.53125 2.125 -3.25 2.890625q-0.71875 0.75 -1.1875 1.515625l11.234375 0z" fill-rule="nonzero"></path><path fill="#000000" d="m773.3938 186.42165l-0.3125 -2.640625q0.921875 0.25 1.609375 0.25q0.9375 0 1.5 -0.3125q0.5625 -0.3125 0.921875 -0.875q0.265625 -0.421875 0.859375 -2.09375q0.078125 -0.234375 0.25 -0.6875l-6.296875 -16.625l3.03125 0l3.453125 9.609375q0.671875 1.828125 1.203125 3.84375q0.484375 -1.9375 1.15625 -3.78125l3.546875 -9.671875l2.8125 0l-6.3125 16.875q-1.015625 2.734375 -1.578125 3.765625q-0.75 1.390625 -1.71875 2.03125q-0.96875 0.65625 -2.3125 0.65625q-0.8125 0 -1.8125 -0.34375z" fill-rule="nonzero"></path><path fill="#000000" d="m529.4777 225.931q0 -4.0625 0.828125 -6.53125q0.84375 -2.484375 2.484375 -3.828125q1.65625 -1.34375 4.15625 -1.34375q1.84375 0 3.234375 0.75q1.390625 0.734375 2.296875 2.140625q0.90625 1.390625 1.421875 3.40625q0.515625 2.0 0.515625 5.40625q0 4.03125 -0.828125 6.515625q-0.828125 2.46875 -2.484375 3.828125q-1.640625 1.34375 -4.15625 1.34375q-3.3125 0 -5.203125 -2.375q-2.265625 -2.859375 -2.265625 -9.3125zm2.890625 0q0 5.640625 1.3125 7.515625q1.328125 1.859375 3.265625 1.859375q1.9375 0 3.25 -1.875q1.328125 -1.875 1.328125 -7.5q0 -5.65625 -1.328125 -7.515625q-1.3125 -1.859375 -3.28125 -1.859375q-1.9375 0 -3.09375 1.640625q-1.453125 2.09375 -1.453125 7.734375z" fill-rule="nonzero"></path><path fill="#000000" d="m651.10767 225.931q0 -4.0625 0.828125 -6.53125q0.84375 -2.484375 2.484375 -3.828125q1.65625 -1.34375 4.15625 -1.34375q1.84375 0 3.234375 0.75q1.390625 0.734375 2.296875 2.140625q0.90625 1.390625 1.421875 3.40625q0.515625 2.0 0.515625 5.40625q0 4.03125 -0.828125 6.515625q-0.828125 2.46875 -2.484375 3.828125q-1.640625 1.34375 -4.15625 1.34375q-3.3125 0 -5.203125 -2.375q-2.265625 -2.859375 -2.265625 -9.3125zm2.890625 0q0 5.640625 1.3125 7.515625q1.328125 1.859375 3.265625 1.859375q1.9375 0 3.25 -1.875q1.328125 -1.875 1.328125 -7.5q0 -5.65625 -1.328125 -7.515625q-1.3125 -1.859375 -3.28125 -1.859375q-1.9375 0 -3.09375 1.640625q-1.453125 2.09375 -1.453125 7.734375z" fill-rule="nonzero"></path><path fill="#000000" d="m772.73755 225.931q0 -4.0625 0.828125 -6.53125q0.84375 -2.484375 2.484375 -3.828125q1.65625 -1.34375 4.15625 -1.34375q1.84375 0 3.234375 0.75q1.390625 0.734375 2.296875 2.140625q0.90625 1.390625 1.421875 3.40625q0.515625 2.0 0.515625 5.40625q0 4.03125 -0.828125 6.515625q-0.828125 2.46875 -2.484375 3.828125q-1.640625 1.34375 -4.15625 1.34375q-3.3125 0 -5.203125 -2.375q-2.265625 -2.859375 -2.265625 -9.3125zm2.890625 0q0 5.640625 1.3125 7.515625q1.328125 1.859375 3.265625 1.859375q1.9375 0 3.25 -1.875q1.328125 -1.875 1.328125 -7.5q0 -5.65625 -1.328125 -7.515625q-1.3125 -1.859375 -3.28125 -1.859375q-1.9375 0 -3.09375 1.640625q-1.453125 2.09375 -1.453125 7.734375z" fill-rule="nonzero"></path><path fill="#000000" d="m529.4777 293.1252q0 -4.0625 0.828125 -6.53125q0.84375 -2.484375 2.484375 -3.828125q1.65625 -1.34375 4.15625 -1.34375q1.84375 0 3.234375 0.75q1.390625 0.734375 2.296875 2.140625q0.90625 1.390625 1.421875 3.40625q0.515625 2.0 0.515625 5.40625q0 4.03125 -0.828125 6.515625q-0.828125 2.46875 -2.484375 3.828125q-1.640625 1.34375 -4.15625 1.34375q-3.3125 0 -5.203125 -2.375q-2.265625 -2.859375 -2.265625 -9.3125zm2.890625 0q0 5.640625 1.3125 7.515625q1.328125 1.859375 3.265625 1.859375q1.9375 0 3.25 -1.875q1.328125 -1.875 1.328125 -7.5q0 -5.65625 -1.328125 -7.515625q-1.3125 -1.859375 -3.28125 -1.859375q-1.9375 0 -3.09375 1.640625q-1.453125 2.09375 -1.453125 7.734375z" fill-rule="nonzero"></path><path fill="#000000" d="m661.7014 304.4221l-2.8125 0l0 -17.921875q-1.015625 0.96875 -2.671875 1.9375q-1.640625 0.96875 -2.953125 1.453125l0 -2.71875q2.359375 -1.109375 4.125 -2.6875q1.765625 -1.578125 2.5 -3.0625l1.8125 0l0 23.0z" fill-rule="nonzero"></path><path fill="#000000" d="m772.73755 293.1252q0 -4.0625 0.828125 -6.53125q0.84375 -2.484375 2.484375 -3.828125q1.65625 -1.34375 4.15625 -1.34375q1.84375 0 3.234375 0.75q1.390625 0.734375 2.296875 2.140625q0.90625 1.390625 1.421875 3.40625q0.515625 2.0 0.515625 5.40625q0 4.03125 -0.828125 6.515625q-0.828125 2.46875 -2.484375 3.828125q-1.640625 1.34375 -4.15625 1.34375q-3.3125 0 -5.203125 -2.375q-2.265625 -2.859375 -2.265625 -9.3125zm2.890625 0q0 5.640625 1.3125 7.515625q1.328125 1.859375 3.265625 1.859375q1.9375 0 3.25 -1.875q1.328125 -1.875 1.328125 -7.5q0 -5.65625 -1.328125 -7.515625q-1.3125 -1.859375 -3.28125 -1.859375q-1.9375 0 -3.09375 1.640625q-1.453125 2.09375 -1.453125 7.734375z" fill-rule="nonzero"></path><path fill="#000000" d="m540.0715 371.61633l-2.8125 0l0 -17.921875q-1.015625 0.96875 -2.671875 1.9375q-1.640625 0.96875 -2.953125 1.453125l0 -2.71875q2.359375 -1.109375 4.125 -2.6875q1.765625 -1.578125 2.5 -3.0625l1.8125 0l0 23.0z" fill-rule="nonzero"></path><path fill="#000000" d="m651.10767 360.31946q0 -4.0625 0.828125 -6.53125q0.84375 -2.484375 2.484375 -3.828125q1.65625 -1.34375 4.15625 -1.34375q1.84375 0 3.234375 0.75q1.390625 0.734375 2.296875 2.140625q0.90625 1.390625 1.421875 3.40625q0.515625 2.0 0.515625 5.40625q0 4.03125 -0.828125 6.515625q-0.828125 2.46875 -2.484375 3.828125q-1.640625 1.34375 -4.15625 1.34375q-3.3125 0 -5.203125 -2.375q-2.265625 -2.859375 -2.265625 -9.3125zm2.890625 0q0 5.640625 1.3125 7.515625q1.328125 1.859375 3.265625 1.859375q1.9375 0 3.25 -1.875q1.328125 -1.875 1.328125 -7.5q0 -5.65625 -1.328125 -7.515625q-1.3125 -1.859375 -3.28125 -1.859375q-1.9375 0 -3.09375 1.640625q-1.453125 2.09375 -1.453125 7.734375z" fill-rule="nonzero"></path><path fill="#000000" d="m772.73755 360.31946q0 -4.0625 0.828125 -6.53125q0.84375 -2.484375 2.484375 -3.828125q1.65625 -1.34375 4.15625 -1.34375q1.84375 0 3.234375 0.75q1.390625 0.734375 2.296875 2.140625q0.90625 1.390625 1.421875 3.40625q0.515625 2.0 0.515625 5.40625q0 4.03125 -0.828125 6.515625q-0.828125 2.46875 -2.484375 3.828125q-1.640625 1.34375 -4.15625 1.34375q-3.3125 0 -5.203125 -2.375q-2.265625 -2.859375 -2.265625 -9.3125zm2.890625 0q0 5.640625 1.3125 7.515625q1.328125 1.859375 3.265625 1.859375q1.9375 0 3.25 -1.875q1.328125 -1.875 1.328125 -7.5q0 -5.65625 -1.328125 -7.515625q-1.3125 -1.859375 -3.28125 -1.859375q-1.9375 0 -3.09375 1.640625q-1.453125 2.09375 -1.453125 7.734375z" fill-rule="nonzero"></path><path fill="#000000" d="m540.0715 438.81055l-2.8125 0l0 -17.921875q-1.015625 0.96875 -2.671875 1.9375q-1.640625 0.96875 -2.953125 1.453125l0 -2.71875q2.359375 -1.109375 4.125 -2.6875q1.765625 -1.578125 2.5 -3.0625l1.8125 0l0 23.0z" fill-rule="nonzero"></path><path fill="#000000" d="m661.7014 438.81055l-2.8125 0l0 -17.921875q-1.015625 0.96875 -2.671875 1.9375q-1.640625 0.96875 -2.953125 1.453125l0 -2.71875q2.359375 -1.109375 4.125 -2.6875q1.765625 -1.578125 2.5 -3.0625l1.8125 0l0 23.0z" fill-rule="nonzero"></path><path fill="#000000" d="m783.3313 438.81055l-2.8125 0l0 -17.921875q-1.015625 0.96875 -2.671875 1.9375q-1.640625 0.96875 -2.953125 1.453125l0 -2.71875q2.359375 -1.109375 4.125 -2.6875q1.765625 -1.578125 2.5 -3.0625l1.8125 0l0 23.0z" fill-rule="nonzero"></path><path fill="#000000" fill-opacity="0.0" d="m85.703415 68.93438l179.99998 0l0 57.448822l-179.99998 0z" fill-rule="nonzero"></path><path fill="#000000" d="m96.640915 102.381256q0 -7.125 3.828125 -11.15625q3.828125 -4.03125 9.875 -4.03125q3.96875 0 7.15625 1.890625q3.1875 1.890625 4.84375 5.28125q1.671875 3.390625 1.671875 7.6875q0 4.359375 -1.765625 7.796875q-1.75 3.4375 -4.96875 5.203125q-3.21875 1.765625 -6.953125 1.765625q-4.046875 0 -7.234375 -1.953125q-3.171875 -1.953125 -4.8125 -5.328125q-1.640625 -3.375 -1.640625 -7.15625zm3.90625 0.0625q0 5.171875 2.78125 8.15625q2.78125 2.984375 6.984375 2.984375q4.28125 0 7.03125 -3.0q2.765625 -3.015625 2.765625 -8.546875q0 -3.5 -1.1875 -6.109375q-1.171875 -2.609375 -3.453125 -4.03125q-2.265625 -1.4375 -5.09375 -1.4375q-4.03125 0 -6.9375 2.765625q-2.890625 2.75 -2.890625 9.21875zm28.410156 13.890625l0 -28.640625l12.703125 0q3.828125 0 5.8125 0.78125q2.0 0.765625 3.1875 2.71875q1.1875 1.953125 1.1875 4.3125q0 3.046875 -1.96875 5.140625q-1.96875 2.09375 -6.09375 2.65625q1.5 0.71875 2.28125 1.421875q1.671875 1.53125 3.15625 3.8125l4.96875 7.796875l-4.765625 0l-3.78125 -5.953125q-1.65625 -2.578125 -2.734375 -3.9375q-1.078125 -1.375 -1.9375 -1.921875q-0.84375 -0.546875 -1.71875 -0.765625q-0.640625 -0.140625 -2.109375 -0.140625l-4.390625 0l0 12.71875l-3.796875 0zm3.796875 -16.0l8.140625 0q2.59375 0 4.0625 -0.53125q1.46875 -0.546875 2.21875 -1.71875q0.765625 -1.1875 0.765625 -2.578125q0 -2.03125 -1.46875 -3.328125q-1.46875 -1.3125 -4.65625 -1.3125l-9.0625 0l0 9.46875z" fill-rule="nonzero"></path><path fill="#000000" fill-opacity="0.0" d="m519.1496 68.93438l180.0 0l0 57.448822l-180.0 0z" fill-rule="nonzero"></path><path fill="#000000" d="m528.0871 116.33438l11.0 -28.640625l4.078125 0l11.71875 28.640625l-4.3125 0l-3.34375 -8.671875l-11.96875 0l-3.140625 8.671875l-4.03125 0zm8.265625 -11.765625l9.703125 0l-2.984375 -7.921875q-1.359375 -3.609375 -2.03125 -5.9375q-0.546875 2.75 -1.546875 5.46875l-3.140625 8.390625zm21.523438 11.765625l0 -28.640625l3.890625 0l15.03125 22.484375l0 -22.484375l3.640625 0l0 28.640625l-3.890625 0l-15.03125 -22.5l0 22.5l-3.640625 0zm28.933594 0l0 -28.640625l9.859375 0q3.34375 0 5.09375 0.421875q2.46875 0.5625 4.203125 2.046875q2.265625 1.90625 3.390625 4.890625q1.125 2.984375 1.125 6.8125q0 3.25 -0.765625 5.78125q-0.765625 2.515625 -1.953125 4.171875q-1.1875 1.640625 -2.609375 2.59375q-1.421875 0.9375 -3.421875 1.4375q-2.0 0.484375 -4.59375 0.484375l-10.328125 0zm3.78125 -3.375l6.109375 0q2.84375 0 4.453125 -0.53125q1.609375 -0.53125 2.5625 -1.484375q1.34375 -1.34375 2.09375 -3.625q0.765625 -2.28125 0.765625 -5.515625q0 -4.5 -1.484375 -6.90625q-1.46875 -2.40625 -3.578125 -3.234375q-1.53125 -0.578125 -4.90625 -0.578125l-6.015625 0l0 21.875z" fill-rule="nonzero"></path></g></svg>

