<?xml version="1.0" standalone="yes"?>

<svg version="1.1" viewBox="0.0 0.0 3197.6587926509187 702.1784776902887" fill="none" stroke="none" stroke-linecap="square" stroke-miterlimit="10" xmlns="http://www.w3.org/2000/svg" xmlns:xlink="http://www.w3.org/1999/xlink"><clipPath id="p.0"><path d="m0 0l3197.6587 0l0 702.17847l-3197.6587 0l0 -702.17847z" clip-rule="nonzero"></path></clipPath><g clip-path="url(#p.0)"><path fill="#000000" fill-opacity="0.0" d="m0 0l3197.6587 0l0 702.17847l-3197.6587 0z" fill-rule="nonzero"></path><path fill="#000000" fill-opacity="0.0" d="m87.10761 700.9449l2.708664 -632.8819" fill-rule="nonzero"></path><path stroke="#000000" stroke-width="8.0" stroke-linejoin="round" stroke-linecap="butt" d="m87.10761 700.9449l2.5032272 -584.8823" fill-rule="evenodd"></path><path fill="#000000" stroke="#000000" stroke-width="8.0" stroke-linecap="butt" d="m102.82458 116.1191l-13.058357 -36.361l-13.369118 36.247894z" fill-rule="evenodd"></path><path fill="#000000" fill-opacity="0.0" d="m20.414698 632.8924l725.44885 1.3543091" fill-rule="nonzero"></path><path stroke="#000000" stroke-width="8.0" stroke-linejoin="round" stroke-linecap="butt" d="m20.414698 632.8924l677.4489 1.2647095" fill-rule="evenodd"></path><path fill="#000000" stroke="#000000" stroke-width="8.0" stroke-linecap="butt" d="m697.8389 647.371l36.329407 -13.146057l-36.28009 -13.281616z" fill-rule="evenodd"></path><path fill="#000000" fill-opacity="0.0" d="m0 632.8924l87.11811 0l0 62.614197l-87.11811 0z" fill-rule="nonzero"></path><path fill="#000000" d="m16.484375 679.34674q-2.328125 -2.9375 -3.9375 -6.875q-1.609375 -3.9375 -1.609375 -8.15625q0 -3.71875 1.203125 -7.125q1.40625 -3.953125 4.34375 -7.875l2.015625 0q-1.890625 3.25 -2.5 4.640625q-0.953125 2.15625 -1.5 4.5q-0.671875 2.921875 -0.671875 5.875q0 7.515625 4.671875 15.015625l-2.015625 0zm4.5 -18.03125q0 -4.0625 0.828125 -6.53125q0.84375 -2.484375 2.484375 -3.828125q1.65625 -1.34375 4.15625 -1.34375q1.84375 0 3.234375 0.75q1.390625 0.734375 2.296875 2.140625q0.90625 1.390625 1.421875 3.40625q0.515625 2.0 0.515625 5.40625q0 4.03125 -0.828125 6.515625q-0.828125 2.46875 -2.484375 3.828125q-1.640625 1.34375 -4.15625 1.34375q-3.3125 0 -5.203125 -2.375q-2.265625 -2.859375 -2.265625 -9.3125zm2.890625 0q0 5.640625 1.3125 7.515625q1.328125 1.859375 3.265625 1.859375q1.9375 0 3.25 -1.875q1.328125 -1.875 1.328125 -7.5q0 -5.65625 -1.328125 -7.515625q-1.3125 -1.859375 -3.28125 -1.859375q-1.9375 0 -3.09375 1.640625q-1.453125 2.09375 -1.453125 7.734375zm16.421875 11.296875l0 -3.203125l3.203125 0l0 3.203125q0 1.765625 -0.625 2.84375q-0.625 1.09375 -1.984375 1.6875l-0.78125 -1.203125q0.890625 -0.390625 1.3125 -1.15625q0.421875 -0.75 0.46875 -2.171875l-1.59375 0zm7.375 -11.296875q0 -4.0625 0.828125 -6.53125q0.84375 -2.484375 2.484375 -3.828125q1.65625 -1.34375 4.15625 -1.34375q1.84375 0 3.234375 0.75q1.390625 0.734375 2.296875 2.140625q0.90625 1.390625 1.421875 3.40625q0.515625 2.0 0.515625 5.40625q0 4.03125 -0.828125 6.515625q-0.828125 2.46875 -2.484375 3.828125q-1.640625 1.34375 -4.15625 1.34375q-3.3125 0 -5.203125 -2.375q-2.265625 -2.859375 -2.265625 -9.3125zm2.890625 0q0 5.640625 1.3125 7.515625q1.328125 1.859375 3.265625 1.859375q1.9375 0 3.25 -1.875q1.328125 -1.875 1.328125 -7.5q0 -5.65625 -1.328125 -7.515625q-1.3125 -1.859375 -3.28125 -1.859375q-1.9375 0 -3.09375 1.640625q-1.453125 2.09375 -1.453125 7.734375zm17.53125 18.03125l-2.015625 0q4.671875 -7.5 4.671875 -15.015625q0 -2.9375 -0.671875 -5.828125q-0.53125 -2.34375 -1.484375 -4.5q-0.609375 -1.40625 -2.515625 -4.6875l2.015625 0q2.9375 3.921875 4.34375 7.875q1.203125 3.40625 1.203125 7.125q0 4.21875 -1.625 8.15625q-1.609375 3.9375 -3.921875 6.875z" fill-rule="nonzero"></path><path fill="#000000" fill-opacity="0.0" d="m0 217.4357l87.11811 0l0 62.614166l-87.11811 0z" fill-rule="nonzero"></path><path fill="#000000" d="m16.484375 263.89008q-2.328125 -2.9375 -3.9375 -6.875q-1.609375 -3.9375 -1.609375 -8.15625q0 -3.71875 1.203125 -7.125q1.40625 -3.953125 4.34375 -7.875l2.015625 0q-1.890625 3.25 -2.5 4.640625q-0.953125 2.15625 -1.5 4.5q-0.671875 2.921875 -0.671875 5.875q0 7.515625 4.671875 15.015625l-2.015625 0zm4.5 -18.03125q0 -4.0625 0.828125 -6.53125q0.84375 -2.484375 2.484375 -3.828125q1.65625 -1.34375 4.15625 -1.34375q1.84375 0 3.234375 0.75q1.390625 0.734375 2.296875 2.140625q0.90625 1.390625 1.421875 3.40625q0.515625 2.0 0.515625 5.40625q0 4.03125 -0.828125 6.515625q-0.828125 2.46875 -2.484375 3.828125q-1.640625 1.34375 -4.15625 1.34375q-3.3125 0 -5.203125 -2.375q-2.265625 -2.859375 -2.265625 -9.3125zm2.890625 0q0 5.640625 1.3125 7.515625q1.328125 1.859375 3.265625 1.859375q1.9375 0 3.25 -1.875q1.328125 -1.875 1.328125 -7.5q0 -5.65625 -1.328125 -7.515625q-1.3125 -1.859375 -3.28125 -1.859375q-1.9375 0 -3.09375 1.640625q-1.453125 2.09375 -1.453125 7.734375zm16.421875 11.296875l0 -3.203125l3.203125 0l0 3.203125q0 1.765625 -0.625 2.84375q-0.625 1.09375 -1.984375 1.6875l-0.78125 -1.203125q0.890625 -0.390625 1.3125 -1.15625q0.421875 -0.75 0.46875 -2.171875l-1.59375 0zm17.96875 0l-2.8125 0l0 -17.921875q-1.015625 0.96875 -2.671875 1.9375q-1.640625 0.96875 -2.953125 1.453125l0 -2.71875q2.359375 -1.109375 4.125 -2.6875q1.765625 -1.578125 2.5 -3.0625l1.8125 0l0 23.0zm9.828125 6.734375l-2.015625 0q4.671875 -7.5 4.671875 -15.015625q0 -2.9375 -0.671875 -5.828125q-0.53125 -2.34375 -1.484375 -4.5q-0.609375 -1.40625 -2.515625 -4.6875l2.015625 0q2.9375 3.921875 4.34375 7.875q1.203125 3.40625 1.203125 7.125q0 4.21875 -1.625 8.15625q-1.609375 3.9375 -3.921875 6.875z" fill-rule="nonzero"></path><path fill="#000000" fill-opacity="0.0" d="m477.0656 638.3307l87.1181 0l0 62.614197l-87.1181 0z" fill-rule="nonzero"></path><path fill="#000000" d="m493.55 684.7851q-2.328125 -2.9375 -3.9375 -6.875q-1.609375 -3.9375 -1.609375 -8.15625q0 -3.71875 1.203125 -7.125q1.40625 -3.953125 4.34375 -7.875l2.015625 0q-1.890625 3.25 -2.5 4.640625q-0.953125 2.15625 -1.5 4.5q-0.671875 2.921875 -0.671875 5.875q0 7.515625 4.671875 15.015625l-2.015625 0zm15.09375 -6.734375l-2.8125 0l0 -17.921875q-1.015625 0.96875 -2.671875 1.9375q-1.640625 0.96875 -2.953125 1.453125l0 -2.71875q2.359375 -1.109375 4.125 -2.6875q1.765625 -1.578125 2.5 -3.0625l1.8125 0l0 23.0zm8.71875 0l0 -3.203125l3.203125 0l0 3.203125q0 1.765625 -0.625 2.84375q-0.625 1.09375 -1.984375 1.6875l-0.78125 -1.203125q0.890625 -0.390625 1.3125 -1.15625q0.421875 -0.75 0.46875 -2.171875l-1.59375 0zm7.375 -11.296875q0 -4.0625 0.828125 -6.53125q0.84375 -2.484375 2.484375 -3.828125q1.65625 -1.34375 4.15625 -1.34375q1.84375 0 3.234375 0.75q1.390625 0.734375 2.296875 2.140625q0.90625 1.390625 1.421875 3.40625q0.515625 2.0 0.515625 5.40625q0 4.03125 -0.828125 6.515625q-0.828125 2.46875 -2.484375 3.828125q-1.640625 1.34375 -4.15625 1.34375q-3.3125 0 -5.203125 -2.375q-2.265625 -2.859375 -2.265625 -9.3125zm2.890625 0q0 5.640625 1.3125 7.515625q1.328125 1.859375 3.265625 1.859375q1.9375 0 3.25 -1.875q1.328125 -1.875 1.328125 -7.5q0 -5.65625 -1.328125 -7.515625q-1.3125 -1.859375 -3.28125 -1.859375q-1.9375 0 -3.09375 1.640625q-1.453125 2.09375 -1.453125 7.734375zm17.53125 18.03125l-2.015625 0q4.671875 -7.5 4.671875 -15.015625q0 -2.9375 -0.671875 -5.828125q-0.53125 -2.34375 -1.484375 -4.5q-0.609375 -1.40625 -2.515625 -4.6875l2.015625 0q2.9375 3.921875 4.34375 7.875q1.203125 3.40625 1.203125 7.125q0 4.21875 -1.625 8.15625q-1.609375 3.9375 -3.921875 6.875z" fill-rule="nonzero"></path><path fill="#000000" fill-opacity="0.0" d="m520.5302 186.12862l87.1181 0l0 62.614166l-87.1181 0z" fill-rule="nonzero"></path><path fill="#000000" d="m537.0146 232.583q-2.328125 -2.9375 -3.9375 -6.875q-1.609375 -3.9375 -1.609375 -8.15625q0 -3.71875 1.203125 -7.125q1.40625 -3.953125 4.34375 -7.875l2.015625 0q-1.890625 3.25 -2.5 4.640625q-0.953125 2.15625 -1.5 4.5q-0.671875 2.921875 -0.671875 5.875q0 7.515625 4.671875 15.015625l-2.015625 0zm15.09375 -6.734375l-2.8125 0l0 -17.921875q-1.015625 0.96875 -2.671875 1.9375q-1.640625 0.96875 -2.953125 1.453125l0 -2.71875q2.359375 -1.109375 4.125 -2.6875q1.765625 -1.578125 2.5 -3.0625l1.8125 0l0 23.0zm8.71875 0l0 -3.203125l3.203125 0l0 3.203125q0 1.765625 -0.625 2.84375q-0.625 1.09375 -1.984375 1.6875l-0.78125 -1.203125q0.890625 -0.390625 1.3125 -1.15625q0.421875 -0.75 0.46875 -2.171875l-1.59375 0zm17.96875 0l-2.8125 0l0 -17.921875q-1.015625 0.96875 -2.671875 1.9375q-1.640625 0.96875 -2.953125 1.453125l0 -2.71875q2.359375 -1.109375 4.125 -2.6875q1.765625 -1.578125 2.5 -3.0625l1.8125 0l0 23.0zm9.828125 6.734375l-2.015625 0q4.671875 -7.5 4.671875 -15.015625q0 -2.9375 -0.671875 -5.828125q-0.53125 -2.34375 -1.484375 -4.5q-0.609375 -1.40625 -2.515625 -4.6875l2.015625 0q2.9375 3.921875 4.34375 7.875q1.203125 3.40625 1.203125 7.125q0 4.21875 -1.625 8.15625q-1.609375 3.9375 -3.921875 6.875z" fill-rule="nonzero"></path><path fill="#000000" fill-opacity="0.0" d="m36.74803 13.611548l87.11811 0l0 62.614174l-87.11811 0z" fill-rule="nonzero"></path><path fill="#000000" d="m54.076157 47.472797q1.140625 1.21875 1.734375 2.4375q0.421875 0.84375 1.375 4.4375l2.0625 -3.09375q0.828125 -1.125 2.0 -2.140625q1.171875 -1.03125 2.0625 -1.40625q0.5625 -0.234375 1.234375 -0.234375q1.015625 0 1.609375 0.546875q0.59375 0.53125 0.59375 1.3125q0 0.890625 -0.34375 1.21875q-0.65625 0.578125 -1.5 0.578125q-0.5 0 -1.0625 -0.203125q-1.09375 -0.375 -1.46875 -0.375q-0.5625 0 -1.34375 0.65625q-1.453125 1.21875 -3.46875 4.703125l1.921875 8.0625q0.453125 1.8593712 0.75 2.2187462q0.3125 0.359375 0.609375 0.359375q0.5 0 1.15625 -0.53125q1.28125 -1.078125 2.203125 -2.8124962l0.8125 0.421875q-1.46875 2.7656212 -3.75 4.593746q-1.28125 1.03125 -2.171875 1.03125q-1.3125 0 -2.09375 -1.484375q-0.484375 -0.90625 -2.03125 -7.874996q-3.65625 6.359371 -5.859375 8.187496q-1.4375 1.171875 -2.765625 1.171875q-0.953125 0 -1.71875 -0.6875q-0.5625 -0.515625 -0.5625 -1.375q0 -0.78125 0.515625 -1.296875q0.515625 -0.515625 1.265625 -0.515625q0.75 0 1.59375 0.75q0.609375 0.546875 0.9375 0.546875q0.28125 0 0.734375 -0.375q1.09375 -0.890625 2.984375 -3.8437462q1.90625 -2.953125 2.5 -4.265625q-1.453125 -5.703125 -1.578125 -6.03125q-0.53125 -1.515625 -1.40625 -2.140625q-0.859375 -0.640625 -2.546875 -0.640625q-0.546875 0 -1.25 0.046875l0 -0.84375l6.265625 -1.109375z" fill-rule="nonzero"></path><path fill="#000000" d="m78.05272 65.62904l-1.109375 3.0625l-9.375 0l0 -0.4375q4.140625 -3.765625 5.828125 -6.156246q1.6875 -2.390625 1.6875 -4.375q0 -1.515625 -0.9375 -2.484375q-0.921875 -0.96875 -2.203125 -0.96875q-1.171875 0 -2.109375 0.6875q-0.921875 0.671875 -1.375 2.0l-0.4375 0q0.296875 -2.171875 1.5 -3.328125q1.21875 -1.15625 3.046875 -1.15625q1.921875 0 3.21875 1.25q1.296875 1.234375 1.296875 2.921875q0 1.203125 -0.5625 2.40625q-0.859375 1.90625 -2.8125 4.03125q-2.921875 3.1874962 -3.640625 3.8437462l4.140625 0q1.265625 0 1.78125 -0.09375q0.515625 -0.09375 0.921875 -0.375q0.40625 -0.296875 0.71875 -0.828125l0.421875 0z" fill-rule="nonzero"></path><path fill="#000000" fill-opacity="0.0" d="m703.6667 617.2546l73.51178 0l0 93.88977l-73.51178 0z" fill-rule="nonzero"></path><path fill="#000000" d="m720.9948 660.0607q1.140625 1.21875 1.734375 2.4375q0.421875 0.84375 1.375 4.4375l2.0625 -3.09375q0.828125 -1.125 2.0 -2.140625q1.171875 -1.03125 2.0625 -1.40625q0.5625 -0.234375 1.234375 -0.234375q1.015625 0 1.609375 0.546875q0.59375 0.53125 0.59375 1.3125q0 0.890625 -0.34375 1.21875q-0.65625 0.578125 -1.5 0.578125q-0.5 0 -1.0625 -0.203125q-1.09375 -0.375 -1.46875 -0.375q-0.5625 0 -1.34375 0.65625q-1.453125 1.21875 -3.46875 4.703125l1.921875 8.0625q0.453125 1.859375 0.75 2.21875q0.3125 0.359375 0.609375 0.359375q0.5 0 1.15625 -0.53125q1.28125 -1.078125 2.203125 -2.8125l0.8125 0.421875q-1.46875 2.765625 -3.75 4.59375q-1.28125 1.03125 -2.171875 1.03125q-1.3125 0 -2.09375 -1.484375q-0.484375 -0.90625 -2.03125 -7.875q-3.65625 6.359375 -5.859375 8.1875q-1.4375 1.171875 -2.765625 1.171875q-0.953125 0 -1.71875 -0.6875q-0.5625 -0.515625 -0.5625 -1.375q0 -0.78125 0.515625 -1.296875q0.515625 -0.515625 1.265625 -0.515625q0.75 0 1.59375 0.75q0.609375 0.546875 0.9375 0.546875q0.28125 0 0.734375 -0.375q1.09375 -0.890625 2.984375 -3.84375q1.90625 -2.953125 2.5 -4.265625q-1.453125 -5.703125 -1.578125 -6.03125q-0.53125 -1.515625 -1.40625 -2.140625q-0.859375 -0.640625 -2.546875 -0.640625q-0.546875 0 -1.25 0.046875l0 -0.84375l6.265625 -1.109375z" fill-rule="nonzero"></path><path fill="#000000" d="m736.7839 666.95135l3.875 -1.890625l0.375 0l0 13.421875q0 1.328125 0.109375 1.65625q0.125 0.328125 0.46875 0.515625q0.359375 0.171875 1.4375 0.1875l0 0.4375l-5.984375 0l0 -0.4375q1.125 -0.015625 1.453125 -0.1875q0.328125 -0.171875 0.453125 -0.453125q0.140625 -0.296875 0.140625 -1.71875l0 -8.578125q0 -1.734375 -0.125 -2.234375q-0.078125 -0.375 -0.296875 -0.546875q-0.21875 -0.171875 -0.515625 -0.171875q-0.4375 0 -1.21875 0.359375l-0.171875 -0.359375z" fill-rule="nonzero"></path><path fill="#000000" fill-opacity="0.0" d="m60.658794 151.27559l576.25195 535.24414" fill-rule="nonzero"></path><path stroke="#ff0000" stroke-width="3.0" stroke-linejoin="round" stroke-linecap="butt" stroke-dasharray="12.0,9.0" d="m60.658794 151.27559l576.25195 535.24414" fill-rule="nonzero"></path><path fill="#000000" fill-opacity="0.0" d="m87.11811 248.74278l0 0" fill-rule="nonzero"></path><path stroke="#000000" stroke-width="1.0" stroke-linejoin="round" stroke-linecap="butt" d="m87.11811 248.74278l0 0" fill-rule="nonzero"></path><path fill="#000000" fill-opacity="0.0" d="m103.580055 248.85039l-30.236221 0" fill-rule="nonzero"></path><path stroke="#000000" stroke-width="4.0" stroke-linejoin="round" stroke-linecap="butt" d="m103.580055 248.85039l-30.236221 0" fill-rule="nonzero"></path><path fill="#000000" fill-opacity="0.0" d="m520.7192 645.6798l-0.18896484 -24.22052" fill-rule="nonzero"></path><path stroke="#000000" stroke-width="4.0" stroke-linejoin="round" stroke-linecap="butt" d="m520.7192 645.6798l-0.18896484 -24.22052" fill-rule="nonzero"></path><path fill="#cfe2f3" d="m518.2467 248.74278l0 0c0 -1.5046539 1.0646362 -2.724411 2.3779907 -2.724411l0 0c0.63067627 0 1.2354736 0.28703308 1.6814575 0.7979584c0.44592285 0.5109253 0.69647217 1.2038879 0.69647217 1.9264526l0 0c0 1.5046539 -1.0646362 2.724411 -2.3779297 2.724411l0 0c-1.3133545 0 -2.3779907 -1.2197571 -2.3779907 -2.724411z" fill-rule="nonzero"></path><path stroke="#000000" stroke-width="1.0" stroke-linejoin="round" stroke-linecap="butt" d="m518.2467 248.74278l0 0c0 -1.5046539 1.0646362 -2.724411 2.3779907 -2.724411l0 0c0.63067627 0 1.2354736 0.28703308 1.6814575 0.7979584c0.44592285 0.5109253 0.69647217 1.2038879 0.69647217 1.9264526l0 0c0 1.5046539 -1.0646362 2.724411 -2.3779297 2.724411l0 0c-1.3133545 0 -2.3779907 -1.2197571 -2.3779907 -2.724411z" fill-rule="nonzero"></path><path fill="#000000" fill-opacity="0.0" d="m881.08136 700.9449l2.7086792 -632.8819" fill-rule="nonzero"></path><path stroke="#000000" stroke-width="8.0" stroke-linejoin="round" stroke-linecap="butt" d="m881.08136 700.9449l2.5031738 -584.8823" fill-rule="evenodd"></path><path fill="#000000" stroke="#000000" stroke-width="8.0" stroke-linecap="butt" d="m896.79834 116.1191l-13.05835 -36.361l-13.369141 36.247894z" fill-rule="evenodd"></path><path fill="#000000" fill-opacity="0.0" d="m814.3884 632.8924l725.44885 1.3543091" fill-rule="nonzero"></path><path stroke="#000000" stroke-width="8.0" stroke-linejoin="round" stroke-linecap="butt" d="m814.3884 632.8924l677.449 1.2647095" fill-rule="evenodd"></path><path fill="#000000" stroke="#000000" stroke-width="8.0" stroke-linecap="butt" d="m1491.8127 647.371l36.329346 -13.146057l-36.28003 -13.281616z" fill-rule="evenodd"></path><path fill="#000000" fill-opacity="0.0" d="m793.97375 632.8924l87.1181 0l0 62.614197l-87.1181 0z" fill-rule="nonzero"></path><path fill="#000000" d="m810.4581 679.34674q-2.328125 -2.9375 -3.9375 -6.875q-1.609375 -3.9375 -1.609375 -8.15625q0 -3.71875 1.203125 -7.125q1.40625 -3.953125 4.34375 -7.875l2.015625 0q-1.890625 3.25 -2.5 4.640625q-0.953125 2.15625 -1.5 4.5q-0.671875 2.921875 -0.671875 5.875q0 7.515625 4.671875 15.015625l-2.015625 0zm4.5 -18.03125q0 -4.0625 0.828125 -6.53125q0.84375 -2.484375 2.484375 -3.828125q1.65625 -1.34375 4.15625 -1.34375q1.84375 0 3.234375 0.75q1.390625 0.734375 2.296875 2.140625q0.90625 1.390625 1.421875 3.40625q0.515625 2.0 0.515625 5.40625q0 4.03125 -0.828125 6.515625q-0.828125 2.46875 -2.484375 3.828125q-1.640625 1.34375 -4.15625 1.34375q-3.3125 0 -5.203125 -2.375q-2.265625 -2.859375 -2.265625 -9.3125zm2.890625 0q0 5.640625 1.3125 7.515625q1.328125 1.859375 3.265625 1.859375q1.9375 0 3.25 -1.875q1.328125 -1.875 1.328125 -7.5q0 -5.65625 -1.328125 -7.515625q-1.3125 -1.859375 -3.28125 -1.859375q-1.9375 0 -3.09375 1.640625q-1.453125 2.09375 -1.453125 7.734375zm16.421875 11.296875l0 -3.203125l3.203125 0l0 3.203125q0 1.765625 -0.625 2.84375q-0.625 1.09375 -1.984375 1.6875l-0.78125 -1.203125q0.890625 -0.390625 1.3125 -1.15625q0.421875 -0.75 0.46875 -2.171875l-1.59375 0zm7.375 -11.296875q0 -4.0625 0.828125 -6.53125q0.84375 -2.484375 2.484375 -3.828125q1.65625 -1.34375 4.15625 -1.34375q1.84375 0 3.234375 0.75q1.390625 0.734375 2.296875 2.140625q0.90625 1.390625 1.421875 3.40625q0.515625 2.0 0.515625 5.40625q0 4.03125 -0.828125 6.515625q-0.828125 2.46875 -2.484375 3.828125q-1.640625 1.34375 -4.15625 1.34375q-3.3125 0 -5.203125 -2.375q-2.265625 -2.859375 -2.265625 -9.3125zm2.890625 0q0 5.640625 1.3125 7.515625q1.328125 1.859375 3.265625 1.859375q1.9375 0 3.25 -1.875q1.328125 -1.875 1.328125 -7.5q0 -5.65625 -1.328125 -7.515625q-1.3125 -1.859375 -3.28125 -1.859375q-1.9375 0 -3.09375 1.640625q-1.453125 2.09375 -1.453125 7.734375zm17.53125 18.03125l-2.015625 0q4.671875 -7.5 4.671875 -15.015625q0 -2.9375 -0.671875 -5.828125q-0.53125 -2.34375 -1.484375 -4.5q-0.609375 -1.40625 -2.515625 -4.6875l2.015625 0q2.9375 3.921875 4.34375 7.875q1.203125 3.40625 1.203125 7.125q0 4.21875 -1.625 8.15625q-1.609375 3.9375 -3.921875 6.875z" fill-rule="nonzero"></path><path fill="#000000" fill-opacity="0.0" d="m793.97375 217.4357l87.1181 0l0 62.614166l-87.1181 0z" fill-rule="nonzero"></path><path fill="#000000" d="m810.4581 263.89008q-2.328125 -2.9375 -3.9375 -6.875q-1.609375 -3.9375 -1.609375 -8.15625q0 -3.71875 1.203125 -7.125q1.40625 -3.953125 4.34375 -7.875l2.015625 0q-1.890625 3.25 -2.5 4.640625q-0.953125 2.15625 -1.5 4.5q-0.671875 2.921875 -0.671875 5.875q0 7.515625 4.671875 15.015625l-2.015625 0zm4.5 -18.03125q0 -4.0625 0.828125 -6.53125q0.84375 -2.484375 2.484375 -3.828125q1.65625 -1.34375 4.15625 -1.34375q1.84375 0 3.234375 0.75q1.390625 0.734375 2.296875 2.140625q0.90625 1.390625 1.421875 3.40625q0.515625 2.0 0.515625 5.40625q0 4.03125 -0.828125 6.515625q-0.828125 2.46875 -2.484375 3.828125q-1.640625 1.34375 -4.15625 1.34375q-3.3125 0 -5.203125 -2.375q-2.265625 -2.859375 -2.265625 -9.3125zm2.890625 0q0 5.640625 1.3125 7.515625q1.328125 1.859375 3.265625 1.859375q1.9375 0 3.25 -1.875q1.328125 -1.875 1.328125 -7.5q0 -5.65625 -1.328125 -7.515625q-1.3125 -1.859375 -3.28125 -1.859375q-1.9375 0 -3.09375 1.640625q-1.453125 2.09375 -1.453125 7.734375zm16.421875 11.296875l0 -3.203125l3.203125 0l0 3.203125q0 1.765625 -0.625 2.84375q-0.625 1.09375 -1.984375 1.6875l-0.78125 -1.203125q0.890625 -0.390625 1.3125 -1.15625q0.421875 -0.75 0.46875 -2.171875l-1.59375 0zm17.96875 0l-2.8125 0l0 -17.921875q-1.015625 0.96875 -2.671875 1.9375q-1.640625 0.96875 -2.953125 1.453125l0 -2.71875q2.359375 -1.109375 4.125 -2.6875q1.765625 -1.578125 2.5 -3.0625l1.8125 0l0 23.0zm9.828125 6.734375l-2.015625 0q4.671875 -7.5 4.671875 -15.015625q0 -2.9375 -0.671875 -5.828125q-0.53125 -2.34375 -1.484375 -4.5q-0.609375 -1.40625 -2.515625 -4.6875l2.015625 0q2.9375 3.921875 4.34375 7.875q1.203125 3.40625 1.203125 7.125q0 4.21875 -1.625 8.15625q-1.609375 3.9375 -3.921875 6.875z" fill-rule="nonzero"></path><path fill="#000000" fill-opacity="0.0" d="m1271.0394 638.3307l87.11804 0l0 62.614197l-87.11804 0z" fill-rule="nonzero"></path><path fill="#000000" d="m1287.5238 684.7851q-2.328125 -2.9375 -3.9375 -6.875q-1.609375 -3.9375 -1.609375 -8.15625q0 -3.71875 1.203125 -7.125q1.40625 -3.953125 4.34375 -7.875l2.015625 0q-1.890625 3.25 -2.5 4.640625q-0.953125 2.15625 -1.5 4.5q-0.671875 2.921875 -0.671875 5.875q0 7.515625 4.671875 15.015625l-2.015625 0zm15.09375 -6.734375l-2.8125 0l0 -17.921875q-1.015625 0.96875 -2.671875 1.9375q-1.640625 0.96875 -2.953125 1.453125l0 -2.71875q2.359375 -1.109375 4.125 -2.6875q1.765625 -1.578125 2.5 -3.0625l1.8125 0l0 23.0zm8.71875 0l0 -3.203125l3.203125 0l0 3.203125q0 1.765625 -0.625 2.84375q-0.625 1.09375 -1.984375 1.6875l-0.78125 -1.203125q0.890625 -0.390625 1.3125 -1.15625q0.421875 -0.75 0.46875 -2.171875l-1.59375 0zm7.375 -11.296875q0 -4.0625 0.828125 -6.53125q0.84375 -2.484375 2.484375 -3.828125q1.65625 -1.34375 4.15625 -1.34375q1.84375 0 3.234375 0.75q1.390625 0.734375 2.296875 2.140625q0.90625 1.390625 1.421875 3.40625q0.515625 2.0 0.515625 5.40625q0 4.03125 -0.828125 6.515625q-0.828125 2.46875 -2.484375 3.828125q-1.640625 1.34375 -4.15625 1.34375q-3.3125 0 -5.203125 -2.375q-2.265625 -2.859375 -2.265625 -9.3125zm2.890625 0q0 5.640625 1.3125 7.515625q1.328125 1.859375 3.265625 1.859375q1.9375 0 3.25 -1.875q1.328125 -1.875 1.328125 -7.5q0 -5.65625 -1.328125 -7.515625q-1.3125 -1.859375 -3.28125 -1.859375q-1.9375 0 -3.09375 1.640625q-1.453125 2.09375 -1.453125 7.734375zm17.53125 18.03125l-2.015625 0q4.671875 -7.5 4.671875 -15.015625q0 -2.9375 -0.671875 -5.828125q-0.53125 -2.34375 -1.484375 -4.5q-0.609375 -1.40625 -2.515625 -4.6875l2.015625 0q2.9375 3.921875 4.34375 7.875q1.203125 3.40625 1.203125 7.125q0 4.21875 -1.625 8.15625q-1.609375 3.9375 -3.921875 6.875z" fill-rule="nonzero"></path><path fill="#000000" fill-opacity="0.0" d="m1314.5039 186.12862l87.118164 0l0 62.614166l-87.118164 0z" fill-rule="nonzero"></path><path fill="#000000" d="m1330.9883 232.583q-2.328125 -2.9375 -3.9375 -6.875q-1.609375 -3.9375 -1.609375 -8.15625q0 -3.71875 1.203125 -7.125q1.40625 -3.953125 4.34375 -7.875l2.015625 0q-1.890625 3.25 -2.5 4.640625q-0.953125 2.15625 -1.5 4.5q-0.671875 2.921875 -0.671875 5.875q0 7.515625 4.671875 15.015625l-2.015625 0zm15.09375 -6.734375l-2.8125 0l0 -17.921875q-1.015625 0.96875 -2.671875 1.9375q-1.640625 0.96875 -2.953125 1.453125l0 -2.71875q2.359375 -1.109375 4.125 -2.6875q1.765625 -1.578125 2.5 -3.0625l1.8125 0l0 23.0zm8.71875 0l0 -3.203125l3.203125 0l0 3.203125q0 1.765625 -0.625 2.84375q-0.625 1.09375 -1.984375 1.6875l-0.78125 -1.203125q0.890625 -0.390625 1.3125 -1.15625q0.421875 -0.75 0.46875 -2.171875l-1.59375 0zm17.96875 0l-2.8125 0l0 -17.921875q-1.015625 0.96875 -2.671875 1.9375q-1.640625 0.96875 -2.953125 1.453125l0 -2.71875q2.359375 -1.109375 4.125 -2.6875q1.765625 -1.578125 2.5 -3.0625l1.8125 0l0 23.0zm9.828125 6.734375l-2.015625 0q4.671875 -7.5 4.671875 -15.015625q0 -2.9375 -0.671875 -5.828125q-0.53125 -2.34375 -1.484375 -4.5q-0.609375 -1.40625 -2.515625 -4.6875l2.015625 0q2.9375 3.921875 4.34375 7.875q1.203125 3.40625 1.203125 7.125q0 4.21875 -1.625 8.15625q-1.609375 3.9375 -3.921875 6.875z" fill-rule="nonzero"></path><path fill="#000000" fill-opacity="0.0" d="m830.7218 13.611548l87.1181 0l0 62.614174l-87.1181 0z" fill-rule="nonzero"></path><path fill="#000000" d="m848.0499 47.472797q1.140625 1.21875 1.734375 2.4375q0.421875 0.84375 1.375 4.4375l2.0625 -3.09375q0.828125 -1.125 2.0 -2.140625q1.171875 -1.03125 2.0625 -1.40625q0.5625 -0.234375 1.234375 -0.234375q1.015625 0 1.609375 0.546875q0.59375 0.53125 0.59375 1.3125q0 0.890625 -0.34375 1.21875q-0.65625 0.578125 -1.5 0.578125q-0.5 0 -1.0625 -0.203125q-1.09375 -0.375 -1.46875 -0.375q-0.5625 0 -1.34375 0.65625q-1.453125 1.21875 -3.46875 4.703125l1.921875 8.0625q0.453125 1.8593712 0.75 2.2187462q0.3125 0.359375 0.609375 0.359375q0.5 0 1.15625 -0.53125q1.28125 -1.078125 2.203125 -2.8124962l0.8125 0.421875q-1.46875 2.7656212 -3.75 4.593746q-1.28125 1.03125 -2.171875 1.03125q-1.3125 0 -2.09375 -1.484375q-0.484375 -0.90625 -2.03125 -7.874996q-3.65625 6.359371 -5.859375 8.187496q-1.4375 1.171875 -2.765625 1.171875q-0.953125 0 -1.71875 -0.6875q-0.5625 -0.515625 -0.5625 -1.375q0 -0.78125 0.515625 -1.296875q0.515625 -0.515625 1.265625 -0.515625q0.75 0 1.59375 0.75q0.609375 0.546875 0.9375 0.546875q0.28125 0 0.734375 -0.375q1.09375 -0.890625 2.984375 -3.8437462q1.90625 -2.953125 2.5 -4.265625q-1.453125 -5.703125 -1.578125 -6.03125q-0.53125 -1.515625 -1.40625 -2.140625q-0.859375 -0.640625 -2.546875 -0.640625q-0.546875 0 -1.25 0.046875l0 -0.84375l6.265625 -1.109375z" fill-rule="nonzero"></path><path fill="#000000" d="m872.0265 65.62904l-1.109375 3.0625l-9.375 0l0 -0.4375q4.140625 -3.765625 5.828125 -6.156246q1.6875 -2.390625 1.6875 -4.375q0 -1.515625 -0.9375 -2.484375q-0.921875 -0.96875 -2.203125 -0.96875q-1.171875 0 -2.109375 0.6875q-0.921875 0.671875 -1.375 2.0l-0.4375 0q0.296875 -2.171875 1.5 -3.328125q1.21875 -1.15625 3.046875 -1.15625q1.921875 0 3.21875 1.25q1.296875 1.234375 1.296875 2.921875q0 1.203125 -0.5625 2.40625q-0.859375 1.90625 -2.8125 4.03125q-2.921875 3.1874962 -3.640625 3.8437462l4.140625 0q1.265625 0 1.78125 -0.09375q0.515625 -0.09375 0.921875 -0.375q0.40625 -0.296875 0.71875 -0.828125l0.421875 0z" fill-rule="nonzero"></path><path fill="#000000" fill-opacity="0.0" d="m1497.6404 617.2546l73.51184 0l0 93.88977l-73.51184 0z" fill-rule="nonzero"></path><path fill="#000000" d="m1514.9685 660.0607q1.140625 1.21875 1.734375 2.4375q0.421875 0.84375 1.375 4.4375l2.0625 -3.09375q0.828125 -1.125 2.0 -2.140625q1.171875 -1.03125 2.0625 -1.40625q0.5625 -0.234375 1.234375 -0.234375q1.015625 0 1.609375 0.546875q0.59375 0.53125 0.59375 1.3125q0 0.890625 -0.34375 1.21875q-0.65625 0.578125 -1.5 0.578125q-0.5 0 -1.0625 -0.203125q-1.09375 -0.375 -1.46875 -0.375q-0.5625 0 -1.34375 0.65625q-1.453125 1.21875 -3.46875 4.703125l1.921875 8.0625q0.453125 1.859375 0.75 2.21875q0.3125 0.359375 0.609375 0.359375q0.5 0 1.15625 -0.53125q1.28125 -1.078125 2.203125 -2.8125l0.8125 0.421875q-1.46875 2.765625 -3.75 4.59375q-1.28125 1.03125 -2.171875 1.03125q-1.3125 0 -2.09375 -1.484375q-0.484375 -0.90625 -2.03125 -7.875q-3.65625 6.359375 -5.859375 8.1875q-1.4375 1.171875 -2.765625 1.171875q-0.953125 0 -1.71875 -0.6875q-0.5625 -0.515625 -0.5625 -1.375q0 -0.78125 0.515625 -1.296875q0.515625 -0.515625 1.265625 -0.515625q0.75 0 1.59375 0.75q0.609375 0.546875 0.9375 0.546875q0.28125 0 0.734375 -0.375q1.09375 -0.890625 2.984375 -3.84375q1.90625 -2.953125 2.5 -4.265625q-1.453125 -5.703125 -1.578125 -6.03125q-0.53125 -1.515625 -1.40625 -2.140625q-0.859375 -0.640625 -2.546875 -0.640625q-0.546875 0 -1.25 0.046875l0 -0.84375l6.265625 -1.109375z" fill-rule="nonzero"></path><path fill="#000000" d="m1530.7576 666.95135l3.875 -1.890625l0.375 0l0 13.421875q0 1.328125 0.109375 1.65625q0.125 0.328125 0.46875 0.515625q0.359375 0.171875 1.4375 0.1875l0 0.4375l-5.984375 0l0 -0.4375q1.125 -0.015625 1.453125 -0.1875q0.328125 -0.171875 0.453125 -0.453125q0.140625 -0.296875 0.140625 -1.71875l0 -8.578125q0 -1.734375 -0.125 -2.234375q-0.078125 -0.375 -0.296875 -0.546875q-0.21875 -0.171875 -0.515625 -0.171875q-0.4375 0 -1.21875 0.359375l-0.171875 -0.359375z" fill-rule="nonzero"></path><path fill="#000000" fill-opacity="0.0" d="m796.6483 322.4357l363.90552 375.93698" fill-rule="nonzero"></path><path stroke="#ff0000" stroke-width="3.0" stroke-linejoin="round" stroke-linecap="butt" stroke-dasharray="12.0,9.0" d="m796.6483 322.4357l363.90552 375.93698" fill-rule="nonzero"></path><path fill="#000000" fill-opacity="0.0" d="m881.09186 248.74278l0 0" fill-rule="nonzero"></path><path stroke="#000000" stroke-width="1.0" stroke-linejoin="round" stroke-linecap="butt" d="m881.09186 248.74278l0 0" fill-rule="nonzero"></path><path fill="#000000" fill-opacity="0.0" d="m897.55383 248.85039l-30.236267 0" fill-rule="nonzero"></path><path stroke="#000000" stroke-width="4.0" stroke-linejoin="round" stroke-linecap="butt" d="m897.55383 248.85039l-30.236267 0" fill-rule="nonzero"></path><path fill="#000000" fill-opacity="0.0" d="m1314.6929 645.6798l-0.18896484 -24.22052" fill-rule="nonzero"></path><path stroke="#000000" stroke-width="4.0" stroke-linejoin="round" stroke-linecap="butt" d="m1314.6929 645.6798l-0.18896484 -24.22052" fill-rule="nonzero"></path><path fill="#cfe2f3" d="m1312.2205 248.74278l0 0c0 -1.5046539 1.0646973 -2.724411 2.3779297 -2.724411l0 0c0.6307373 0 1.2355957 0.28703308 1.6815186 0.7979584c0.44592285 0.5109253 0.69641113 1.2038879 0.69641113 1.9264526l0 0c0 1.5046539 -1.0645752 2.724411 -2.3779297 2.724411l0 0c-1.3132324 0 -2.3779297 -1.2197571 -2.3779297 -2.724411z" fill-rule="nonzero"></path><path stroke="#000000" stroke-width="1.0" stroke-linejoin="round" stroke-linecap="butt" d="m1312.2205 248.74278l0 0c0 -1.5046539 1.0646973 -2.724411 2.3779297 -2.724411l0 0c0.6307373 0 1.2355957 0.28703308 1.6815186 0.7979584c0.44592285 0.5109253 0.69641113 1.2038879 0.69641113 1.9264526l0 0c0 1.5046539 -1.0645752 2.724411 -2.3779297 2.724411l0 0c-1.3132324 0 -2.3779297 -1.2197571 -2.3779297 -2.724411z" fill-rule="nonzero"></path><path fill="#000000" fill-opacity="0.0" d="m1711.8031 700.94354l2.7087402 -632.88184" fill-rule="nonzero"></path><path stroke="#000000" stroke-width="8.0" stroke-linejoin="round" stroke-linecap="butt" d="m1711.8031 700.94354l2.503296 -584.8823" fill-rule="evenodd"></path><path fill="#000000" stroke="#000000" stroke-width="8.0" stroke-linecap="butt" d="m1727.5201 116.11779l-13.05835 -36.361l-13.369141 36.247894z" fill-rule="evenodd"></path><path fill="#000000" fill-opacity="0.0" d="m1645.1102 632.89105l725.44885 1.3543701" fill-rule="nonzero"></path><path stroke="#000000" stroke-width="8.0" stroke-linejoin="round" stroke-linecap="butt" d="m1645.1102 632.89105l677.4491 1.2647705" fill-rule="evenodd"></path><path fill="#000000" stroke="#000000" stroke-width="8.0" stroke-linecap="butt" d="m2322.5344 647.3696l36.329346 -13.146057l-36.28003 -13.281616z" fill-rule="evenodd"></path><path fill="#000000" fill-opacity="0.0" d="m1624.6956 632.89105l87.11804 0l0 62.614197l-87.11804 0z" fill-rule="nonzero"></path><path fill="#000000" d="m1641.1799 679.34546q-2.328125 -2.9375 -3.9375 -6.875q-1.609375 -3.9375 -1.609375 -8.15625q0 -3.71875 1.203125 -7.125q1.40625 -3.953125 4.34375 -7.875l2.015625 0q-1.890625 3.25 -2.5 4.640625q-0.953125 2.15625 -1.5 4.5q-0.671875 2.921875 -0.671875 5.875q0 7.515625 4.671875 15.015625l-2.015625 0zm4.5 -18.03125q0 -4.0625 0.828125 -6.53125q0.84375 -2.484375 2.484375 -3.828125q1.65625 -1.34375 4.15625 -1.34375q1.84375 0 3.234375 0.75q1.390625 0.734375 2.296875 2.140625q0.90625 1.390625 1.421875 3.40625q0.515625 2.0 0.515625 5.40625q0 4.03125 -0.828125 6.515625q-0.828125 2.46875 -2.484375 3.828125q-1.640625 1.34375 -4.15625 1.34375q-3.3125 0 -5.203125 -2.375q-2.265625 -2.859375 -2.265625 -9.3125zm2.890625 0q0 5.640625 1.3125 7.515625q1.328125 1.859375 3.265625 1.859375q1.9375 0 3.25 -1.875q1.328125 -1.875 1.328125 -7.5q0 -5.65625 -1.328125 -7.515625q-1.3125 -1.859375 -3.28125 -1.859375q-1.9375 0 -3.09375 1.640625q-1.453125 2.09375 -1.453125 7.734375zm16.421875 11.296875l0 -3.203125l3.203125 0l0 3.203125q0 1.765625 -0.625 2.84375q-0.625 1.09375 -1.984375 1.6875l-0.78125 -1.203125q0.890625 -0.390625 1.3125 -1.15625q0.421875 -0.75 0.46875 -2.171875l-1.59375 0zm7.375 -11.296875q0 -4.0625 0.828125 -6.53125q0.84375 -2.484375 2.484375 -3.828125q1.65625 -1.34375 4.15625 -1.34375q1.84375 0 3.234375 0.75q1.390625 0.734375 2.296875 2.140625q0.90625 1.390625 1.421875 3.40625q0.515625 2.0 0.515625 5.40625q0 4.03125 -0.828125 6.515625q-0.828125 2.46875 -2.484375 3.828125q-1.640625 1.34375 -4.15625 1.34375q-3.3125 0 -5.203125 -2.375q-2.265625 -2.859375 -2.265625 -9.3125zm2.890625 0q0 5.640625 1.3125 7.515625q1.328125 1.859375 3.265625 1.859375q1.9375 0 3.25 -1.875q1.328125 -1.875 1.328125 -7.5q0 -5.65625 -1.328125 -7.515625q-1.3125 -1.859375 -3.28125 -1.859375q-1.9375 0 -3.09375 1.640625q-1.453125 2.09375 -1.453125 7.734375zm17.53125 18.03125l-2.015625 0q4.671875 -7.5 4.671875 -15.015625q0 -2.9375 -0.671875 -5.828125q-0.53125 -2.34375 -1.484375 -4.5q-0.609375 -1.40625 -2.515625 -4.6875l2.015625 0q2.9375 3.921875 4.34375 7.875q1.203125 3.40625 1.203125 7.125q0 4.21875 -1.625 8.15625q-1.609375 3.9375 -3.921875 6.875z" fill-rule="nonzero"></path><path fill="#000000" fill-opacity="0.0" d="m1624.6956 217.43439l87.11804 0l0 62.614166l-87.11804 0z" fill-rule="nonzero"></path><path fill="#000000" d="m1641.1799 263.88876q-2.328125 -2.9375 -3.9375 -6.875q-1.609375 -3.9375 -1.609375 -8.15625q0 -3.71875 1.203125 -7.125q1.40625 -3.953125 4.34375 -7.875l2.015625 0q-1.890625 3.25 -2.5 4.640625q-0.953125 2.15625 -1.5 4.5q-0.671875 2.921875 -0.671875 5.875q0 7.515625 4.671875 15.015625l-2.015625 0zm4.5 -18.03125q0 -4.0625 0.828125 -6.53125q0.84375 -2.484375 2.484375 -3.828125q1.65625 -1.34375 4.15625 -1.34375q1.84375 0 3.234375 0.75q1.390625 0.734375 2.296875 2.140625q0.90625 1.390625 1.421875 3.40625q0.515625 2.0 0.515625 5.40625q0 4.03125 -0.828125 6.515625q-0.828125 2.46875 -2.484375 3.828125q-1.640625 1.34375 -4.15625 1.34375q-3.3125 0 -5.203125 -2.375q-2.265625 -2.859375 -2.265625 -9.3125zm2.890625 0q0 5.640625 1.3125 7.515625q1.328125 1.859375 3.265625 1.859375q1.9375 0 3.25 -1.875q1.328125 -1.875 1.328125 -7.5q0 -5.65625 -1.328125 -7.515625q-1.3125 -1.859375 -3.28125 -1.859375q-1.9375 0 -3.09375 1.640625q-1.453125 2.09375 -1.453125 7.734375zm16.421875 11.296875l0 -3.203125l3.203125 0l0 3.203125q0 1.765625 -0.625 2.84375q-0.625 1.09375 -1.984375 1.6875l-0.78125 -1.203125q0.890625 -0.390625 1.3125 -1.15625q0.421875 -0.75 0.46875 -2.171875l-1.59375 0zm17.96875 0l-2.8125 0l0 -17.921875q-1.015625 0.96875 -2.671875 1.9375q-1.640625 0.96875 -2.953125 1.453125l0 -2.71875q2.359375 -1.109375 4.125 -2.6875q1.765625 -1.578125 2.5 -3.0625l1.8125 0l0 23.0zm9.828125 6.734375l-2.015625 0q4.671875 -7.5 4.671875 -15.015625q0 -2.9375 -0.671875 -5.828125q-0.53125 -2.34375 -1.484375 -4.5q-0.609375 -1.40625 -2.515625 -4.6875l2.015625 0q2.9375 3.921875 4.34375 7.875q1.203125 3.40625 1.203125 7.125q0 4.21875 -1.625 8.15625q-1.609375 3.9375 -3.921875 6.875z" fill-rule="nonzero"></path><path fill="#000000" fill-opacity="0.0" d="m2101.7612 638.3294l87.11792 0l0 62.614136l-87.11792 0z" fill-rule="nonzero"></path><path fill="#000000" d="m2118.2456 684.78375q-2.328125 -2.9375 -3.9375 -6.875q-1.609375 -3.9375 -1.609375 -8.15625q0 -3.71875 1.203125 -7.125q1.40625 -3.953125 4.34375 -7.875l2.015625 0q-1.890625 3.25 -2.5 4.640625q-0.953125 2.15625 -1.5 4.5q-0.671875 2.921875 -0.671875 5.875q0 7.515625 4.671875 15.015625l-2.015625 0zm15.09375 -6.734375l-2.8125 0l0 -17.921875q-1.015625 0.96875 -2.671875 1.9375q-1.640625 0.96875 -2.953125 1.453125l0 -2.71875q2.359375 -1.109375 4.125 -2.6875q1.765625 -1.578125 2.5 -3.0625l1.8125 0l0 23.0zm8.71875 0l0 -3.203125l3.203125 0l0 3.203125q0 1.765625 -0.625 2.84375q-0.625 1.09375 -1.984375 1.6875l-0.78125 -1.203125q0.890625 -0.390625 1.3125 -1.15625q0.421875 -0.75 0.46875 -2.171875l-1.59375 0zm7.375 -11.296875q0 -4.0625 0.828125 -6.53125q0.84375 -2.484375 2.484375 -3.828125q1.65625 -1.34375 4.15625 -1.34375q1.84375 0 3.234375 0.75q1.390625 0.734375 2.296875 2.140625q0.90625 1.390625 1.421875 3.40625q0.515625 2.0 0.515625 5.40625q0 4.03125 -0.828125 6.515625q-0.828125 2.46875 -2.484375 3.828125q-1.640625 1.34375 -4.15625 1.34375q-3.3125 0 -5.203125 -2.375q-2.265625 -2.859375 -2.265625 -9.3125zm2.890625 0q0 5.640625 1.3125 7.515625q1.328125 1.859375 3.265625 1.859375q1.9375 0 3.25 -1.875q1.328125 -1.875 1.328125 -7.5q0 -5.65625 -1.328125 -7.515625q-1.3125 -1.859375 -3.28125 -1.859375q-1.9375 0 -3.09375 1.640625q-1.453125 2.09375 -1.453125 7.734375zm17.53125 18.03125l-2.015625 0q4.671875 -7.5 4.671875 -15.015625q0 -2.9375 -0.671875 -5.828125q-0.53125 -2.34375 -1.484375 -4.5q-0.609375 -1.40625 -2.515625 -4.6875l2.015625 0q2.9375 3.921875 4.34375 7.875q1.203125 3.40625 1.203125 7.125q0 4.21875 -1.625 8.15625q-1.609375 3.9375 -3.921875 6.875z" fill-rule="nonzero"></path><path fill="#000000" fill-opacity="0.0" d="m2145.2258 186.1273l87.11792 0l0 62.614166l-87.11792 0z" fill-rule="nonzero"></path><path fill="#000000" d="m2161.7102 232.58168q-2.328125 -2.9375 -3.9375 -6.875q-1.609375 -3.9375 -1.609375 -8.15625q0 -3.71875 1.203125 -7.125q1.40625 -3.953125 4.34375 -7.875l2.015625 0q-1.890625 3.25 -2.5 4.640625q-0.953125 2.15625 -1.5 4.5q-0.671875 2.921875 -0.671875 5.875q0 7.515625 4.671875 15.015625l-2.015625 0zm15.09375 -6.734375l-2.8125 0l0 -17.921875q-1.015625 0.96875 -2.671875 1.9375q-1.640625 0.96875 -2.953125 1.453125l0 -2.71875q2.359375 -1.109375 4.125 -2.6875q1.765625 -1.578125 2.5 -3.0625l1.8125 0l0 23.0zm8.71875 0l0 -3.203125l3.203125 0l0 3.203125q0 1.765625 -0.625 2.84375q-0.625 1.09375 -1.984375 1.6875l-0.78125 -1.203125q0.890625 -0.390625 1.3125 -1.15625q0.421875 -0.75 0.46875 -2.171875l-1.59375 0zm17.96875 0l-2.8125 0l0 -17.921875q-1.015625 0.96875 -2.671875 1.9375q-1.640625 0.96875 -2.953125 1.453125l0 -2.71875q2.359375 -1.109375 4.125 -2.6875q1.765625 -1.578125 2.5 -3.0625l1.8125 0l0 23.0zm9.828125 6.734375l-2.015625 0q4.671875 -7.5 4.671875 -15.015625q0 -2.9375 -0.671875 -5.828125q-0.53125 -2.34375 -1.484375 -4.5q-0.609375 -1.40625 -2.515625 -4.6875l2.015625 0q2.9375 3.921875 4.34375 7.875q1.203125 3.40625 1.203125 7.125q0 4.21875 -1.625 8.15625q-1.609375 3.9375 -3.921875 6.875z" fill-rule="nonzero"></path><path fill="#000000" fill-opacity="0.0" d="m1661.4436 13.610236l87.11804 0l0 62.614174l-87.11804 0z" fill-rule="nonzero"></path><path fill="#000000" d="m1678.7717 47.471485q1.140625 1.21875 1.734375 2.4375q0.421875 0.84375 1.375 4.4375l2.0625 -3.09375q0.828125 -1.125 2.0 -2.140625q1.171875 -1.03125 2.0625 -1.40625q0.5625 -0.234375 1.234375 -0.234375q1.015625 0 1.609375 0.546875q0.59375 0.53125 0.59375 1.3125q0 0.890625 -0.34375 1.21875q-0.65625 0.578125 -1.5 0.578125q-0.5 0 -1.0625 -0.203125q-1.09375 -0.375 -1.46875 -0.375q-0.5625 0 -1.34375 0.65625q-1.453125 1.21875 -3.46875 4.703125l1.921875 8.0625q0.453125 1.8593712 0.75 2.2187462q0.3125 0.359375 0.609375 0.359375q0.5 0 1.15625 -0.53125q1.28125 -1.078125 2.203125 -2.8124962l0.8125 0.421875q-1.46875 2.7656212 -3.75 4.593746q-1.28125 1.03125 -2.171875 1.03125q-1.3125 0 -2.09375 -1.484375q-0.484375 -0.90625 -2.03125 -7.874996q-3.65625 6.359371 -5.859375 8.187496q-1.4375 1.171875 -2.765625 1.171875q-0.953125 0 -1.71875 -0.6875q-0.5625 -0.515625 -0.5625 -1.375q0 -0.78125 0.515625 -1.296875q0.515625 -0.515625 1.265625 -0.515625q0.75 0 1.59375 0.75q0.609375 0.546875 0.9375 0.546875q0.28125 0 0.734375 -0.375q1.09375 -0.890625 2.984375 -3.8437462q1.90625 -2.953125 2.5 -4.265625q-1.453125 -5.703125 -1.578125 -6.03125q-0.53125 -1.515625 -1.40625 -2.140625q-0.859375 -0.640625 -2.546875 -0.640625q-0.546875 0 -1.25 0.046875l0 -0.84375l6.265625 -1.109375z" fill-rule="nonzero"></path><path fill="#000000" d="m1702.7483 65.62773l-1.109375 3.0625l-9.375 0l0 -0.4375q4.140625 -3.765625 5.828125 -6.156246q1.6875 -2.390625 1.6875 -4.375q0 -1.515625 -0.9375 -2.484375q-0.921875 -0.96875 -2.203125 -0.96875q-1.171875 0 -2.109375 0.6875q-0.921875 0.671875 -1.375 2.0l-0.4375 0q0.296875 -2.171875 1.5 -3.328125q1.21875 -1.15625 3.046875 -1.15625q1.921875 0 3.21875 1.25q1.296875 1.234375 1.296875 2.921875q0 1.203125 -0.5625 2.40625q-0.859375 1.90625 -2.8125 4.03125q-2.921875 3.1874962 -3.640625 3.8437462l4.140625 0q1.265625 0 1.78125 -0.09375q0.515625 -0.09375 0.921875 -0.375q0.40625 -0.296875 0.71875 -0.828125l0.421875 0z" fill-rule="nonzero"></path><path fill="#000000" fill-opacity="0.0" d="m2328.3623 617.2533l73.51172 0l0 93.88977l-73.51172 0z" fill-rule="nonzero"></path><path fill="#000000" d="m2345.6904 660.0594q1.140625 1.21875 1.734375 2.4375q0.421875 0.84375 1.375 4.4375l2.0625 -3.09375q0.828125 -1.125 2.0 -2.140625q1.171875 -1.03125 2.0625 -1.40625q0.5625 -0.234375 1.234375 -0.234375q1.015625 0 1.609375 0.546875q0.59375 0.53125 0.59375 1.3125q0 0.890625 -0.34375 1.21875q-0.65625 0.578125 -1.5 0.578125q-0.5 0 -1.0625 -0.203125q-1.09375 -0.375 -1.46875 -0.375q-0.5625 0 -1.34375 0.65625q-1.453125 1.21875 -3.46875 4.703125l1.921875 8.0625q0.453125 1.859375 0.75 2.21875q0.3125 0.359375 0.609375 0.359375q0.5 0 1.15625 -0.53125q1.28125 -1.078125 2.203125 -2.8125l0.8125 0.421875q-1.46875 2.765625 -3.75 4.59375q-1.28125 1.03125 -2.171875 1.03125q-1.3125 0 -2.09375 -1.484375q-0.484375 -0.90625 -2.03125 -7.875q-3.65625 6.359375 -5.859375 8.1875q-1.4375 1.171875 -2.765625 1.171875q-0.953125 0 -1.71875 -0.6875q-0.5625 -0.515625 -0.5625 -1.375q0 -0.78125 0.515625 -1.296875q0.515625 -0.515625 1.265625 -0.515625q0.75 0 1.59375 0.75q0.609375 0.546875 0.9375 0.546875q0.28125 0 0.734375 -0.375q1.09375 -0.890625 2.984375 -3.84375q1.90625 -2.953125 2.5 -4.265625q-1.453125 -5.703125 -1.578125 -6.03125q-0.53125 -1.515625 -1.40625 -2.140625q-0.859375 -0.640625 -2.546875 -0.640625q-0.546875 0 -1.25 0.046875l0 -0.84375l6.265625 -1.109375z" fill-rule="nonzero"></path><path fill="#000000" d="m2361.4795 666.95l3.875 -1.890625l0.375 0l0 13.421875q0 1.328125 0.109375 1.65625q0.125 0.328125 0.46875 0.515625q0.359375 0.171875 1.4375 0.1875l0 0.4375l-5.984375 0l0 -0.4375q1.125 -0.015625 1.453125 -0.1875q0.328125 -0.171875 0.453125 -0.453125q0.140625 -0.296875 0.140625 -1.71875l0 -8.578125q0 -1.734375 -0.125 -2.234375q-0.078125 -0.375 -0.296875 -0.546875q-0.21875 -0.171875 -0.515625 -0.171875q-0.4375 0 -1.21875 0.359375l-0.171875 -0.359375z" fill-rule="nonzero"></path><path fill="#000000" fill-opacity="0.0" d="m1683.6641 146.17848l584.72437 540.3465" fill-rule="nonzero"></path><path stroke="#ff0000" stroke-width="3.0" stroke-linejoin="round" stroke-linecap="butt" stroke-dasharray="12.0,9.0" d="m1683.6641 146.17848l584.72437 540.3465" fill-rule="nonzero"></path><path fill="#000000" fill-opacity="0.0" d="m1711.8136 248.74147l0 0" fill-rule="nonzero"></path><path stroke="#000000" stroke-width="1.0" stroke-linejoin="round" stroke-linecap="butt" d="m1711.8136 248.74147l0 0" fill-rule="nonzero"></path><path fill="#000000" fill-opacity="0.0" d="m1728.2756 248.84908l-30.236206 0" fill-rule="nonzero"></path><path stroke="#000000" stroke-width="4.0" stroke-linejoin="round" stroke-linecap="butt" d="m1728.2756 248.84908l-30.236206 0" fill-rule="nonzero"></path><path fill="#000000" fill-opacity="0.0" d="m2145.4148 645.67847l-0.18896484 -24.220459" fill-rule="nonzero"></path><path stroke="#000000" stroke-width="4.0" stroke-linejoin="round" stroke-linecap="butt" d="m2145.4148 645.67847l-0.18896484 -24.220459" fill-rule="nonzero"></path><path fill="#cfe2f3" d="m2142.9421 248.74147l0 0c0 -1.5046539 1.0646973 -2.724411 2.3781738 -2.724411l0 0c0.63061523 0 1.2353516 0.28703308 1.6813965 0.7979584c0.44580078 0.5109253 0.6965332 1.2038879 0.6965332 1.9264526l0 0c0 1.5046539 -1.0646973 2.724411 -2.3779297 2.724411l0 0c-1.3134766 0 -2.3781738 -1.2197571 -2.3781738 -2.724411z" fill-rule="nonzero"></path><path stroke="#000000" stroke-width="1.0" stroke-linejoin="round" stroke-linecap="butt" d="m2142.9421 248.74147l0 0c0 -1.5046539 1.0646973 -2.724411 2.3781738 -2.724411l0 0c0.63061523 0 1.2353516 0.28703308 1.6813965 0.7979584c0.44580078 0.5109253 0.6965332 1.2038879 0.6965332 1.9264526l0 0c0 1.5046539 -1.0646973 2.724411 -2.3779297 2.724411l0 0c-1.3134766 0 -2.3781738 -1.2197571 -2.3781738 -2.724411z" fill-rule="nonzero"></path><path fill="#000000" fill-opacity="0.0" d="m2531.6248 700.94354l2.708496 -632.88184" fill-rule="nonzero"></path><path stroke="#000000" stroke-width="8.0" stroke-linejoin="round" stroke-linecap="butt" d="m2531.6248 700.94354l2.5031738 -584.8823" fill-rule="evenodd"></path><path fill="#000000" stroke="#000000" stroke-width="8.0" stroke-linecap="butt" d="m2547.3416 116.11779l-13.05835 -36.361l-13.369141 36.247894z" fill-rule="evenodd"></path><path fill="#000000" fill-opacity="0.0" d="m2464.9316 632.89105l725.449 1.3543701" fill-rule="nonzero"></path><path stroke="#000000" stroke-width="8.0" stroke-linejoin="round" stroke-linecap="butt" d="m2464.9316 632.89105l677.449 1.2647705" fill-rule="evenodd"></path><path fill="#000000" stroke="#000000" stroke-width="8.0" stroke-linecap="butt" d="m3142.356 647.3696l36.329346 -13.146057l-36.28003 -13.281616z" fill-rule="evenodd"></path><path fill="#000000" fill-opacity="0.0" d="m2444.517 632.89105l87.118164 0l0 62.614197l-87.118164 0z" fill-rule="nonzero"></path><path fill="#000000" d="m2461.0015 679.34546q-2.328125 -2.9375 -3.9375 -6.875q-1.609375 -3.9375 -1.609375 -8.15625q0 -3.71875 1.203125 -7.125q1.40625 -3.953125 4.34375 -7.875l2.015625 0q-1.890625 3.25 -2.5 4.640625q-0.953125 2.15625 -1.5 4.5q-0.671875 2.921875 -0.671875 5.875q0 7.515625 4.671875 15.015625l-2.015625 0zm4.5 -18.03125q0 -4.0625 0.828125 -6.53125q0.84375 -2.484375 2.484375 -3.828125q1.65625 -1.34375 4.15625 -1.34375q1.84375 0 3.234375 0.75q1.390625 0.734375 2.296875 2.140625q0.90625 1.390625 1.421875 3.40625q0.515625 2.0 0.515625 5.40625q0 4.03125 -0.828125 6.515625q-0.828125 2.46875 -2.484375 3.828125q-1.640625 1.34375 -4.15625 1.34375q-3.3125 0 -5.203125 -2.375q-2.265625 -2.859375 -2.265625 -9.3125zm2.890625 0q0 5.640625 1.3125 7.515625q1.328125 1.859375 3.265625 1.859375q1.9375 0 3.25 -1.875q1.328125 -1.875 1.328125 -7.5q0 -5.65625 -1.328125 -7.515625q-1.3125 -1.859375 -3.28125 -1.859375q-1.9375 0 -3.09375 1.640625q-1.453125 2.09375 -1.453125 7.734375zm16.421875 11.296875l0 -3.203125l3.203125 0l0 3.203125q0 1.765625 -0.625 2.84375q-0.625 1.09375 -1.984375 1.6875l-0.78125 -1.203125q0.890625 -0.390625 1.3125 -1.15625q0.421875 -0.75 0.46875 -2.171875l-1.59375 0zm7.375 -11.296875q0 -4.0625 0.828125 -6.53125q0.84375 -2.484375 2.484375 -3.828125q1.65625 -1.34375 4.15625 -1.34375q1.84375 0 3.234375 0.75q1.390625 0.734375 2.296875 2.140625q0.90625 1.390625 1.421875 3.40625q0.515625 2.0 0.515625 5.40625q0 4.03125 -0.828125 6.515625q-0.828125 2.46875 -2.484375 3.828125q-1.640625 1.34375 -4.15625 1.34375q-3.3125 0 -5.203125 -2.375q-2.265625 -2.859375 -2.265625 -9.3125zm2.890625 0q0 5.640625 1.3125 7.515625q1.328125 1.859375 3.265625 1.859375q1.9375 0 3.25 -1.875q1.328125 -1.875 1.328125 -7.5q0 -5.65625 -1.328125 -7.515625q-1.3125 -1.859375 -3.28125 -1.859375q-1.9375 0 -3.09375 1.640625q-1.453125 2.09375 -1.453125 7.734375zm17.53125 18.03125l-2.015625 0q4.671875 -7.5 4.671875 -15.015625q0 -2.9375 -0.671875 -5.828125q-0.53125 -2.34375 -1.484375 -4.5q-0.609375 -1.40625 -2.515625 -4.6875l2.015625 0q2.9375 3.921875 4.34375 7.875q1.203125 3.40625 1.203125 7.125q0 4.21875 -1.625 8.15625q-1.609375 3.9375 -3.921875 6.875z" fill-rule="nonzero"></path><path fill="#000000" fill-opacity="0.0" d="m2444.517 217.43439l87.118164 0l0 62.614166l-87.118164 0z" fill-rule="nonzero"></path><path fill="#000000" d="m2461.0015 263.88876q-2.328125 -2.9375 -3.9375 -6.875q-1.609375 -3.9375 -1.609375 -8.15625q0 -3.71875 1.203125 -7.125q1.40625 -3.953125 4.34375 -7.875l2.015625 0q-1.890625 3.25 -2.5 4.640625q-0.953125 2.15625 -1.5 4.5q-0.671875 2.921875 -0.671875 5.875q0 7.515625 4.671875 15.015625l-2.015625 0zm4.5 -18.03125q0 -4.0625 0.828125 -6.53125q0.84375 -2.484375 2.484375 -3.828125q1.65625 -1.34375 4.15625 -1.34375q1.84375 0 3.234375 0.75q1.390625 0.734375 2.296875 2.140625q0.90625 1.390625 1.421875 3.40625q0.515625 2.0 0.515625 5.40625q0 4.03125 -0.828125 6.515625q-0.828125 2.46875 -2.484375 3.828125q-1.640625 1.34375 -4.15625 1.34375q-3.3125 0 -5.203125 -2.375q-2.265625 -2.859375 -2.265625 -9.3125zm2.890625 0q0 5.640625 1.3125 7.515625q1.328125 1.859375 3.265625 1.859375q1.9375 0 3.25 -1.875q1.328125 -1.875 1.328125 -7.5q0 -5.65625 -1.328125 -7.515625q-1.3125 -1.859375 -3.28125 -1.859375q-1.9375 0 -3.09375 1.640625q-1.453125 2.09375 -1.453125 7.734375zm16.421875 11.296875l0 -3.203125l3.203125 0l0 3.203125q0 1.765625 -0.625 2.84375q-0.625 1.09375 -1.984375 1.6875l-0.78125 -1.203125q0.890625 -0.390625 1.3125 -1.15625q0.421875 -0.75 0.46875 -2.171875l-1.59375 0zm17.96875 0l-2.8125 0l0 -17.921875q-1.015625 0.96875 -2.671875 1.9375q-1.640625 0.96875 -2.953125 1.453125l0 -2.71875q2.359375 -1.109375 4.125 -2.6875q1.765625 -1.578125 2.5 -3.0625l1.8125 0l0 23.0zm9.828125 6.734375l-2.015625 0q4.671875 -7.5 4.671875 -15.015625q0 -2.9375 -0.671875 -5.828125q-0.53125 -2.34375 -1.484375 -4.5q-0.609375 -1.40625 -2.515625 -4.6875l2.015625 0q2.9375 3.921875 4.34375 7.875q1.203125 3.40625 1.203125 7.125q0 4.21875 -1.625 8.15625q-1.609375 3.9375 -3.921875 6.875z" fill-rule="nonzero"></path><path fill="#000000" fill-opacity="0.0" d="m2921.5828 638.3294l87.11792 0l0 62.614136l-87.11792 0z" fill-rule="nonzero"></path><path fill="#000000" d="m2938.0671 684.78375q-2.328125 -2.9375 -3.9375 -6.875q-1.609375 -3.9375 -1.609375 -8.15625q0 -3.71875 1.203125 -7.125q1.40625 -3.953125 4.34375 -7.875l2.015625 0q-1.890625 3.25 -2.5 4.640625q-0.953125 2.15625 -1.5 4.5q-0.671875 2.921875 -0.671875 5.875q0 7.515625 4.671875 15.015625l-2.015625 0zm15.09375 -6.734375l-2.8125 0l0 -17.921875q-1.015625 0.96875 -2.671875 1.9375q-1.640625 0.96875 -2.953125 1.453125l0 -2.71875q2.359375 -1.109375 4.125 -2.6875q1.765625 -1.578125 2.5 -3.0625l1.8125 0l0 23.0zm8.71875 0l0 -3.203125l3.203125 0l0 3.203125q0 1.765625 -0.625 2.84375q-0.625 1.09375 -1.984375 1.6875l-0.78125 -1.203125q0.890625 -0.390625 1.3125 -1.15625q0.421875 -0.75 0.46875 -2.171875l-1.59375 0zm7.375 -11.296875q0 -4.0625 0.828125 -6.53125q0.84375 -2.484375 2.484375 -3.828125q1.65625 -1.34375 4.15625 -1.34375q1.84375 0 3.234375 0.75q1.390625 0.734375 2.296875 2.140625q0.90625 1.390625 1.421875 3.40625q0.515625 2.0 0.515625 5.40625q0 4.03125 -0.828125 6.515625q-0.828125 2.46875 -2.484375 3.828125q-1.640625 1.34375 -4.15625 1.34375q-3.3125 0 -5.203125 -2.375q-2.265625 -2.859375 -2.265625 -9.3125zm2.890625 0q0 5.640625 1.3125 7.515625q1.328125 1.859375 3.265625 1.859375q1.9375 0 3.25 -1.875q1.328125 -1.875 1.328125 -7.5q0 -5.65625 -1.328125 -7.515625q-1.3125 -1.859375 -3.28125 -1.859375q-1.9375 0 -3.09375 1.640625q-1.453125 2.09375 -1.453125 7.734375zm17.53125 18.03125l-2.015625 0q4.671875 -7.5 4.671875 -15.015625q0 -2.9375 -0.671875 -5.828125q-0.53125 -2.34375 -1.484375 -4.5q-0.609375 -1.40625 -2.515625 -4.6875l2.015625 0q2.9375 3.921875 4.34375 7.875q1.203125 3.40625 1.203125 7.125q0 4.21875 -1.625 8.15625q-1.609375 3.9375 -3.921875 6.875z" fill-rule="nonzero"></path><path fill="#000000" fill-opacity="0.0" d="m2965.0474 186.1273l87.11792 0l0 62.614166l-87.11792 0z" fill-rule="nonzero"></path><path fill="#000000" d="m2981.5317 232.58168q-2.328125 -2.9375 -3.9375 -6.875q-1.609375 -3.9375 -1.609375 -8.15625q0 -3.71875 1.203125 -7.125q1.40625 -3.953125 4.34375 -7.875l2.015625 0q-1.890625 3.25 -2.5 4.640625q-0.953125 2.15625 -1.5 4.5q-0.671875 2.921875 -0.671875 5.875q0 7.515625 4.671875 15.015625l-2.015625 0zm15.09375 -6.734375l-2.8125 0l0 -17.921875q-1.015625 0.96875 -2.671875 1.9375q-1.640625 0.96875 -2.953125 1.453125l0 -2.71875q2.359375 -1.109375 4.125 -2.6875q1.765625 -1.578125 2.5 -3.0625l1.8125 0l0 23.0zm8.71875 0l0 -3.203125l3.203125 0l0 3.203125q0 1.765625 -0.625 2.84375q-0.625 1.09375 -1.984375 1.6875l-0.78125 -1.203125q0.890625 -0.390625 1.3125 -1.15625q0.421875 -0.75 0.46875 -2.171875l-1.59375 0zm17.96875 0l-2.8125 0l0 -17.921875q-1.015625 0.96875 -2.671875 1.9375q-1.640625 0.96875 -2.953125 1.453125l0 -2.71875q2.359375 -1.109375 4.125 -2.6875q1.765625 -1.578125 2.5 -3.0625l1.8125 0l0 23.0zm9.828125 6.734375l-2.015625 0q4.671875 -7.5 4.671875 -15.015625q0 -2.9375 -0.671875 -5.828125q-0.53125 -2.34375 -1.484375 -4.5q-0.609375 -1.40625 -2.515625 -4.6875l2.015625 0q2.9375 3.921875 4.34375 7.875q1.203125 3.40625 1.203125 7.125q0 4.21875 -1.625 8.15625q-1.609375 3.9375 -3.921875 6.875z" fill-rule="nonzero"></path><path fill="#000000" fill-opacity="0.0" d="m2481.2651 13.610236l87.118164 0l0 62.614174l-87.118164 0z" fill-rule="nonzero"></path><path fill="#000000" d="m2498.5933 47.471485q1.140625 1.21875 1.734375 2.4375q0.421875 0.84375 1.375 4.4375l2.0625 -3.09375q0.828125 -1.125 2.0 -2.140625q1.171875 -1.03125 2.0625 -1.40625q0.5625 -0.234375 1.234375 -0.234375q1.015625 0 1.609375 0.546875q0.59375 0.53125 0.59375 1.3125q0 0.890625 -0.34375 1.21875q-0.65625 0.578125 -1.5 0.578125q-0.5 0 -1.0625 -0.203125q-1.09375 -0.375 -1.46875 -0.375q-0.5625 0 -1.34375 0.65625q-1.453125 1.21875 -3.46875 4.703125l1.921875 8.0625q0.453125 1.8593712 0.75 2.2187462q0.3125 0.359375 0.609375 0.359375q0.5 0 1.15625 -0.53125q1.28125 -1.078125 2.203125 -2.8124962l0.8125 0.421875q-1.46875 2.7656212 -3.75 4.593746q-1.28125 1.03125 -2.171875 1.03125q-1.3125 0 -2.09375 -1.484375q-0.484375 -0.90625 -2.03125 -7.874996q-3.65625 6.359371 -5.859375 8.187496q-1.4375 1.171875 -2.765625 1.171875q-0.953125 0 -1.71875 -0.6875q-0.5625 -0.515625 -0.5625 -1.375q0 -0.78125 0.515625 -1.296875q0.515625 -0.515625 1.265625 -0.515625q0.75 0 1.59375 0.75q0.609375 0.546875 0.9375 0.546875q0.28125 0 0.734375 -0.375q1.09375 -0.890625 2.984375 -3.8437462q1.90625 -2.953125 2.5 -4.265625q-1.453125 -5.703125 -1.578125 -6.03125q-0.53125 -1.515625 -1.40625 -2.140625q-0.859375 -0.640625 -2.546875 -0.640625q-0.546875 0 -1.25 0.046875l0 -0.84375l6.265625 -1.109375z" fill-rule="nonzero"></path><path fill="#000000" d="m2522.5698 65.62773l-1.109375 3.0625l-9.375 0l0 -0.4375q4.140625 -3.765625 5.828125 -6.156246q1.6875 -2.390625 1.6875 -4.375q0 -1.515625 -0.9375 -2.484375q-0.921875 -0.96875 -2.203125 -0.96875q-1.171875 0 -2.109375 0.6875q-0.921875 0.671875 -1.375 2.0l-0.4375 0q0.296875 -2.171875 1.5 -3.328125q1.21875 -1.15625 3.046875 -1.15625q1.921875 0 3.21875 1.25q1.296875 1.234375 1.296875 2.921875q0 1.203125 -0.5625 2.40625q-0.859375 1.90625 -2.8125 4.03125q-2.921875 3.1874962 -3.640625 3.8437462l4.140625 0q1.265625 0 1.78125 -0.09375q0.515625 -0.09375 0.921875 -0.375q0.40625 -0.296875 0.71875 -0.828125l0.421875 0z" fill-rule="nonzero"></path><path fill="#000000" fill-opacity="0.0" d="m3148.1838 617.2533l73.51172 0l0 93.88977l-73.51172 0z" fill-rule="nonzero"></path><path fill="#000000" d="m3165.512 660.0594q1.140625 1.21875 1.734375 2.4375q0.421875 0.84375 1.375 4.4375l2.0625 -3.09375q0.828125 -1.125 2.0 -2.140625q1.171875 -1.03125 2.0625 -1.40625q0.5625 -0.234375 1.234375 -0.234375q1.015625 0 1.609375 0.546875q0.59375 0.53125 0.59375 1.3125q0 0.890625 -0.34375 1.21875q-0.65625 0.578125 -1.5 0.578125q-0.5 0 -1.0625 -0.203125q-1.09375 -0.375 -1.46875 -0.375q-0.5625 0 -1.34375 0.65625q-1.453125 1.21875 -3.46875 4.703125l1.921875 8.0625q0.453125 1.859375 0.75 2.21875q0.3125 0.359375 0.609375 0.359375q0.5 0 1.15625 -0.53125q1.28125 -1.078125 2.203125 -2.8125l0.8125 0.421875q-1.46875 2.765625 -3.75 4.59375q-1.28125 1.03125 -2.171875 1.03125q-1.3125 0 -2.09375 -1.484375q-0.484375 -0.90625 -2.03125 -7.875q-3.65625 6.359375 -5.859375 8.1875q-1.4375 1.171875 -2.765625 1.171875q-0.953125 0 -1.71875 -0.6875q-0.5625 -0.515625 -0.5625 -1.375q0 -0.78125 0.515625 -1.296875q0.515625 -0.515625 1.265625 -0.515625q0.75 0 1.59375 0.75q0.609375 0.546875 0.9375 0.546875q0.28125 0 0.734375 -0.375q1.09375 -0.890625 2.984375 -3.84375q1.90625 -2.953125 2.5 -4.265625q-1.453125 -5.703125 -1.578125 -6.03125q-0.53125 -1.515625 -1.40625 -2.140625q-0.859375 -0.640625 -2.546875 -0.640625q-0.546875 0 -1.25 0.046875l0 -0.84375l6.265625 -1.109375z" fill-rule="nonzero"></path><path fill="#000000" d="m3181.301 666.95l3.875 -1.890625l0.375 0l0 13.421875q0 1.328125 0.109375 1.65625q0.125 0.328125 0.46875 0.515625q0.359375 0.171875 1.4375 0.1875l0 0.4375l-5.984375 0l0 -0.4375q1.125 -0.015625 1.453125 -0.1875q0.328125 -0.171875 0.453125 -0.453125q0.140625 -0.296875 0.140625 -1.71875l0 -8.578125q0 -1.734375 -0.125 -2.234375q-0.078125 -0.375 -0.296875 -0.546875q-0.21875 -0.171875 -0.515625 -0.171875q-0.4375 0 -1.21875 0.359375l-0.171875 -0.359375z" fill-rule="nonzero"></path><path fill="#000000" fill-opacity="0.0" d="m2531.6353 248.74147l0 0" fill-rule="nonzero"></path><path stroke="#000000" stroke-width="1.0" stroke-linejoin="round" stroke-linecap="butt" d="m2531.6353 248.74147l0 0" fill-rule="nonzero"></path><path fill="#000000" fill-opacity="0.0" d="m2548.0972 248.84908l-30.236328 0" fill-rule="nonzero"></path><path stroke="#000000" stroke-width="4.0" stroke-linejoin="round" stroke-linecap="butt" d="m2548.0972 248.84908l-30.236328 0" fill-rule="nonzero"></path><path fill="#000000" fill-opacity="0.0" d="m2965.2363 645.67847l-0.18896484 -24.220459" fill-rule="nonzero"></path><path stroke="#000000" stroke-width="4.0" stroke-linejoin="round" stroke-linecap="butt" d="m2965.2363 645.67847l-0.18896484 -24.220459" fill-rule="nonzero"></path><path fill="#cfe2f3" d="m2962.7637 248.74147l0 0c0 -1.5046539 1.0646973 -2.724411 2.3781738 -2.724411l0 0c0.63061523 0 1.2353516 0.28703308 1.6813965 0.7979584c0.44580078 0.5109253 0.6965332 1.2038879 0.6965332 1.9264526l0 0c0 1.5046539 -1.0646973 2.724411 -2.3779297 2.724411l0 0c-1.3134766 0 -2.3781738 -1.2197571 -2.3781738 -2.724411z" fill-rule="nonzero"></path><path stroke="#000000" stroke-width="1.0" stroke-linejoin="round" stroke-linecap="butt" d="m2962.7637 248.74147l0 0c0 -1.5046539 1.0646973 -2.724411 2.3781738 -2.724411l0 0c0.63061523 0 1.2353516 0.28703308 1.6813965 0.7979584c0.44580078 0.5109253 0.6965332 1.2038879 0.6965332 1.9264526l0 0c0 1.5046539 -1.0646973 2.724411 -2.3779297 2.724411l0 0c-1.3134766 0 -2.3781738 -1.2197571 -2.3781738 -2.724411z" fill-rule="nonzero"></path><path fill="#000000" fill-opacity="0.0" d="m164.45145 33.934383l312.6299 0l0 114.866135l-312.6299 0z" fill-rule="nonzero"></path><path fill="#000000" d="m173.31082 135.09438l26.390625 -68.71875l9.796875 0l28.125 68.71875l-10.359375 0l-8.015625 -20.8125l-28.734375 0l-7.546875 20.8125l-9.65625 0zm19.828125 -28.21875l23.296875 0l-7.171875 -19.03125q-3.28125 -8.671875 -4.875 -14.25q-1.3125 6.609375 -3.703125 13.125l-7.546875 20.15625zm51.65625 28.21875l0 -68.71875l9.328125 0l36.09375 53.953125l0 -53.953125l8.71875 0l0 68.71875l-9.328125 0l-36.09375 -54.0l0 54.0l-8.71875 0zm69.421875 0l0 -68.71875l23.671875 0q8.015625 0 12.234375 0.984375q5.90625 1.359375 10.078125 4.921875q5.4375 4.59375 8.125 11.75q2.703125 7.140625 2.703125 16.328125q0 7.828125 -1.828125 13.875q-1.828125 6.046875 -4.6875 10.015625q-2.859375 3.953125 -6.265625 6.234375q-3.390625 2.265625 -8.203125 3.4375q-4.796875 1.171875 -11.03125 1.171875l-24.796875 0zm9.09375 -8.109375l14.671875 0q6.796875 0 10.65625 -1.265625q3.875 -1.265625 6.171875 -3.5625q3.234375 -3.234375 5.03125 -8.6875q1.8125 -5.46875 1.8125 -13.25q0 -10.78125 -3.546875 -16.5625q-3.53125 -5.796875 -8.59375 -7.765625q-3.65625 -1.40625 -11.765625 -1.40625l-14.4375 0l0 52.5z" fill-rule="nonzero"></path><path fill="#000000" fill-opacity="0.0" d="m958.4094 33.934383l312.63 0l0 114.866135l-312.63 0z" fill-rule="nonzero"></path><path fill="#000000" d="m972.05005 101.625626q0 -17.109375 9.1875 -26.78125q9.1875 -9.6875 23.71875 -9.6875q9.515625 0 17.15625 4.546875q7.640625 4.546875 11.640625 12.6875q4.015625 8.125 4.015625 18.4375q0 10.453125 -4.21875 18.703125q-4.21875 8.25 -11.953125 12.5q-7.734375 4.234375 -16.6875 4.234375q-9.703125 0 -17.34375 -4.6875q-7.640625 -4.6875 -11.578125 -12.796875q-3.9375 -8.109375 -3.9375 -17.15625zm9.375 0.140625q0 12.421875 6.671875 19.578125q6.6875 7.140625 16.765625 7.140625q10.265625 0 16.890625 -7.21875q6.640625 -7.21875 6.640625 -20.484375q0 -8.390625 -2.84375 -14.640625q-2.828125 -6.265625 -8.296875 -9.703125q-5.453125 -3.453125 -12.25 -3.453125q-9.65625 0 -16.625 6.640625q-6.953125 6.625 -6.953125 22.140625zm68.203125 33.328125l0 -68.71875l30.46875 0q9.1875 0 13.96875 1.859375q4.78125 1.84375 7.640625 6.53125q2.859375 4.6875 2.859375 10.359375q0 7.3125 -4.734375 12.328125q-4.734375 5.015625 -14.625 6.375q3.609375 1.734375 5.484375 3.421875q3.984375 3.65625 7.546875 9.140625l11.953125 18.703125l-11.4375 0l-9.09375 -14.296875q-3.984375 -6.1875 -6.5625 -9.46875q-2.578125 -3.28125 -4.625 -4.59375q-2.03125 -1.3125 -4.140625 -1.828125q-1.546875 -0.328125 -5.0625 -0.328125l-10.546875 0l0 30.515625l-9.09375 0zm9.09375 -38.390625l19.546875 0q6.234375 0 9.75 -1.28125q3.515625 -1.296875 5.34375 -4.125q1.828125 -2.84375 1.828125 -6.171875q0 -4.875 -3.546875 -8.015625q-3.53125 -3.140625 -11.171875 -3.140625l-21.75 0l0 22.734375z" fill-rule="nonzero"></path><path fill="#000000" fill-opacity="0.0" d="m1804.7926 46.62992l312.63 0l0 114.86614l-312.63 0z" fill-rule="nonzero"></path><path fill="#000000" d="m1821.1051 147.78992l0 -68.71875l9.328125 0l36.09375 53.953125l0 -53.953125l8.71875 0l0 68.71875l-9.328125 0l-36.09375 -54.0l0 54.0l-8.71875 0zm61.875 0l26.390625 -68.71875l9.796875 0l28.125 68.71875l-10.359375 0l-8.015625 -20.8125l-28.734375 0l-7.546875 20.8125l-9.65625 0zm19.828125 -28.21875l23.296875 0l-7.171875 -19.03125q-3.28125 -8.671875 -4.875 -14.25q-1.3125 6.609375 -3.703125 13.125l-7.546875 20.15625zm51.65625 28.21875l0 -68.71875l9.328125 0l36.09375 53.953125l0 -53.953125l8.71875 0l0 68.71875l-9.328125 0l-36.09375 -54.0l0 54.0l-8.71875 0zm69.421875 0l0 -68.71875l23.671875 0q8.015747 0 12.234497 0.984375q5.90625 1.359375 10.078125 4.921875q5.4375 4.59375 8.125 11.75q2.703125 7.140625 2.703125 16.328125q0 7.828125 -1.828125 13.875q-1.828125 6.046875 -4.6875 10.015625q-2.859375 3.953125 -6.265625 6.234375q-3.390625 2.265625 -8.203125 3.4375q-4.796875 1.171875 -11.03125 1.171875l-24.796997 0zm9.09375 -8.109375l14.671875 0q6.796997 0 10.656372 -1.265625q3.875 -1.265625 6.171875 -3.5625q3.234375 -3.234375 5.03125 -8.6875q1.8125 -5.46875 1.8125 -13.25q0 -10.78125 -3.546875 -16.5625q-3.53125 -5.796875 -8.59375 -7.765625q-3.65625 -1.40625 -11.765747 -1.40625l-14.4375 0l0 52.5z" fill-rule="nonzero"></path><path fill="#000000" fill-opacity="0.0" d="m2593.0735 46.62992l312.62988 0l0 114.86614l-312.62988 0z" fill-rule="nonzero"></path><path fill="#000000" d="m2602.4954 147.78992l26.578125 -35.8125l-23.4375 -32.90625l10.828125 0l12.46875 17.625q3.890625 5.484375 5.53125 8.4375q2.296875 -3.75 5.4375 -7.828125l13.828125 -18.234375l9.890625 0l-24.140625 32.390625l26.015625 36.328125l-11.25 0l-17.296875 -24.515625q-1.453125 -2.109375 -3.0 -4.59375q-2.296875 3.75 -3.28125 5.15625l-17.25 23.953125l-10.921875 0zm68.25 -33.46875q0 -17.109375 9.1875 -26.78125q9.1875 -9.6875 23.71875 -9.6875q9.515625 0 17.15625 4.546875q7.640625 4.546875 11.640625 12.6875q4.015625 8.125 4.015625 18.4375q0 10.453125 -4.21875 18.703125q-4.21875 8.25 -11.953125 12.5q-7.734375 4.234375 -16.6875 4.234375q-9.703125 0 -17.34375 -4.6875q-7.640625 -4.6875 -11.578125 -12.796875q-3.9375 -8.109375 -3.9375 -17.15625zm9.375 0.140625q0 12.421875 6.671875 19.578125q6.6875 7.140625 16.765625 7.140625q10.265625 0 16.890625 -7.21875q6.640625 -7.21875 6.640625 -20.484375q0 -8.390625 -2.84375 -14.640625q-2.828125 -6.265625 -8.296875 -9.703125q-5.453125 -3.453125 -12.25 -3.453125q-9.65625 0 -16.625 6.640625q-6.953125 6.625 -6.953125 22.140625zm68.203125 33.328125l0 -68.71875l30.46875 0q9.1875 0 13.96875 1.859375q4.78125 1.84375 7.640625 6.53125q2.859375 4.6875 2.859375 10.359375q0 7.3125 -4.734375 12.328125q-4.734375 5.015625 -14.625 6.375q3.609375 1.734375 5.484375 3.421875q3.984375 3.65625 7.546875 9.140625l11.953125 18.703125l-11.4375 0l-9.09375 -14.296875q-3.984375 -6.1875 -6.5625 -9.46875q-2.578125 -3.28125 -4.625 -4.59375q-2.03125 -1.3125 -4.140625 -1.828125q-1.546875 -0.328125 -5.0625 -0.328125l-10.546875 0l0 30.515625l-9.09375 0zm9.09375 -38.390625l19.546875 0q6.234375 0 9.75 -1.28125q3.515625 -1.296875 5.34375 -4.125q1.828125 -2.84375 1.828125 -6.171875q0 -4.875 -3.546875 -8.015625q-3.53125 -3.140625 -11.171875 -3.140625l-21.75 0l0 22.734375z" fill-rule="nonzero"></path><path fill="#cfe2f3" d="m498.98688 248.85039l0 0c0 -13.176544 9.687561 -23.858261 21.637817 -23.858261l0 0c5.7386475 0 11.24231 2.513626 15.300232 6.9879303c4.0578613 4.474289 6.3375244 10.542725 6.3375244 16.87033l0 0c0 13.176559 -9.687561 23.858261 -21.637756 23.858261l0 0c-11.950256 0 -21.637817 -10.681702 -21.637817 -23.858261z" fill-rule="nonzero"></path><path stroke="#000000" stroke-width="1.0" stroke-linejoin="round" stroke-linecap="butt" d="m498.98688 248.85039l0 0c0 -13.176544 9.687561 -23.858261 21.637817 -23.858261l0 0c5.7386475 0 11.24231 2.513626 15.300232 6.9879303c4.0578613 4.474289 6.3375244 10.542725 6.3375244 16.87033l0 0c0 13.176559 -9.687561 23.858261 -21.637756 23.858261l0 0c-11.950256 0 -21.637817 -10.681702 -21.637817 -23.858261z" fill-rule="nonzero"></path><path fill="#cfe2f3" d="m509.3237 621.0502l9.264923 -7.498657l8.534729 10.545044l8.534729 -10.545044l9.264954 7.498657l-10.13269 12.519409l10.13269 12.519409l-9.264954 7.498596l-8.534729 -10.545044l-8.534729 10.545044l-9.264923 -7.498596l10.13266 -12.519409z" fill-rule="nonzero"></path><path stroke="#000000" stroke-width="1.0" stroke-linejoin="round" stroke-linecap="butt" d="m509.3237 621.0502l9.264923 -7.498657l8.534729 10.545044l8.534729 -10.545044l9.264954 7.498657l-10.13269 12.519409l10.13269 12.519409l-9.264954 7.498596l-8.534729 -10.545044l-8.534729 10.545044l-9.264923 -7.498596l10.13266 -12.519409z" fill-rule="nonzero"></path><path fill="#cfe2f3" d="m68.19771 236.22337l9.264946 -7.498642l8.534721 10.545074l8.534721 -10.545074l9.264946 7.498642l-10.132652 12.519409l10.132652 12.519394l-9.264946 7.498657l-8.534721 -10.545074l-8.534721 10.545074l-9.264946 -7.498657l10.132652 -12.519394z" fill-rule="nonzero"></path><path stroke="#000000" stroke-width="1.0" stroke-linejoin="round" stroke-linecap="butt" d="m68.19771 236.22337l9.264946 -7.498642l8.534721 10.545074l8.534721 -10.545074l9.264946 7.498642l-10.132652 12.519409l10.132652 12.519394l-9.264946 7.498657l-8.534721 -10.545074l-8.534721 10.545074l-9.264946 -7.498657l10.132652 -12.519394z" fill-rule="nonzero"></path><path fill="#cfe2f3" d="m67.654594 621.0502l9.264946 -7.498657l8.534721 10.545044l8.534721 -10.545044l9.264946 7.498657l-10.132652 12.519409l10.132652 12.519409l-9.264946 7.498596l-8.534721 -10.545044l-8.534721 10.545044l-9.264946 -7.498596l10.132652 -12.519409z" fill-rule="nonzero"></path><path stroke="#000000" stroke-width="1.0" stroke-linejoin="round" stroke-linecap="butt" d="m67.654594 621.0502l9.264946 -7.498657l8.534721 10.545044l8.534721 -10.545044l9.264946 7.498657l-10.132652 12.519409l10.132652 12.519409l-9.264946 7.498596l-8.534721 -10.545044l-8.534721 10.545044l-9.264946 -7.498596l10.132652 -12.519409z" fill-rule="nonzero"></path><path fill="#cfe2f3" d="m865.17847 248.74278l0 0c0 -13.176559 9.687561 -23.858261 21.637817 -23.858261l0 0c5.7387085 0 11.242371 2.513626 15.300232 6.987915c4.0578613 4.474289 6.3375244 10.54274 6.3375244 16.870346l0 0c0 13.176559 -9.687561 23.858261 -21.637756 23.858261l0 0c-11.950256 0 -21.637817 -10.681702 -21.637817 -23.858261z" fill-rule="nonzero"></path><path stroke="#000000" stroke-width="1.0" stroke-linejoin="round" stroke-linecap="butt" d="m865.17847 248.74278l0 0c0 -13.176559 9.687561 -23.858261 21.637817 -23.858261l0 0c5.7387085 0 11.242371 2.513626 15.300232 6.987915c4.0578613 4.474289 6.3375244 10.54274 6.3375244 16.870346l0 0c0 13.176559 -9.687561 23.858261 -21.637756 23.858261l0 0c-11.950256 0 -21.637817 -10.681702 -21.637817 -23.858261z" fill-rule="nonzero"></path><path fill="#cfe2f3" d="m1288.4961 248.85039l0 0c0 -13.176544 9.6875 -23.858261 21.637817 -23.858261l0 0c5.7386475 0 11.24231 2.513626 15.300171 6.9879303c4.0578613 4.474289 6.3375244 10.542725 6.3375244 16.87033l0 0c0 13.176559 -9.6875 23.858261 -21.637695 23.858261l0 0c-11.950317 0 -21.637817 -10.681702 -21.637817 -23.858261z" fill-rule="nonzero"></path><path stroke="#000000" stroke-width="1.0" stroke-linejoin="round" stroke-linecap="butt" d="m1288.4961 248.85039l0 0c0 -13.176544 9.6875 -23.858261 21.637817 -23.858261l0 0c5.7386475 0 11.24231 2.513626 15.300171 6.9879303c4.0578613 4.474289 6.3375244 10.542725 6.3375244 16.87033l0 0c0 13.176559 -9.6875 23.858261 -21.637695 23.858261l0 0c-11.950317 0 -21.637817 -10.681702 -21.637817 -23.858261z" fill-rule="nonzero"></path><path fill="#cfe2f3" d="m1289.6024 633.5696l0 0c0 -13.176575 9.6875 -23.858276 21.637695 -23.858276l0 0c5.7387695 0 11.242432 2.5136108 15.300293 6.987915c4.0578613 4.474304 6.3375244 10.542725 6.3375244 16.870361l0 0c0 13.176514 -9.6875 23.858215 -21.637817 23.858215l0 0c-11.950195 0 -21.637695 -10.681702 -21.637695 -23.858215z" fill-rule="nonzero"></path><path stroke="#000000" stroke-width="1.0" stroke-linejoin="round" stroke-linecap="butt" d="m1289.6024 633.5696l0 0c0 -13.176575 9.6875 -23.858276 21.637695 -23.858276l0 0c5.7387695 0 11.242432 2.5136108 15.300293 6.987915c4.0578613 4.474304 6.3375244 10.542725 6.3375244 16.870361l0 0c0 13.176514 -9.6875 23.858215 -21.637817 23.858215l0 0c-11.950195 0 -21.637695 -10.681702 -21.637695 -23.858215z" fill-rule="nonzero"></path><path fill="#cfe2f3" d="m860.1518 621.0502l9.264954 -7.498657l8.534668 10.545044l8.534729 -10.545044l9.264954 7.498657l-10.132629 12.519409l10.132629 12.519409l-9.264954 7.498596l-8.534729 -10.545044l-8.534668 10.545044l-9.264954 -7.498596l10.132629 -12.519409z" fill-rule="nonzero"></path><path stroke="#000000" stroke-width="1.0" stroke-linejoin="round" stroke-linecap="butt" d="m860.1518 621.0502l9.264954 -7.498657l8.534668 10.545044l8.534729 -10.545044l9.264954 7.498657l-10.132629 12.519409l10.132629 12.519409l-9.264954 7.498596l-8.534729 -10.545044l-8.534668 10.545044l-9.264954 -7.498596l10.132629 -12.519409z" fill-rule="nonzero"></path><path fill="#cfe2f3" d="m2129.468 236.331l9.264893 -7.498657l8.534912 10.545074l8.534668 -10.545074l9.264893 7.498657l-10.132568 12.519394l10.132568 12.519424l-9.264893 7.4986267l-8.534668 -10.545074l-8.534912 10.545074l-9.264893 -7.4986267l10.132568 -12.519424z" fill-rule="nonzero"></path><path stroke="#000000" stroke-width="1.0" stroke-linejoin="round" stroke-linecap="butt" d="m2129.468 236.331l9.264893 -7.498657l8.534912 10.545074l8.534668 -10.545074l9.264893 7.498657l-10.132568 12.519394l10.132568 12.519424l-9.264893 7.4986267l-8.534668 -10.545074l-8.534912 10.545074l-9.264893 -7.4986267l10.132568 -12.519424z" fill-rule="nonzero"></path><path fill="#cfe2f3" d="m1697.815 248.85039l0 0c0 -13.176544 9.687622 -23.858261 21.637817 -23.858261l0 0c5.7386475 0 11.24231 2.513626 15.300171 6.9879303c4.0579834 4.474289 6.3376465 10.542725 6.3376465 16.87033l0 0c0 13.176559 -9.687622 23.858261 -21.637817 23.858261l0 0c-11.950195 0 -21.637817 -10.681702 -21.637817 -23.858261z" fill-rule="nonzero"></path><path stroke="#000000" stroke-width="1.0" stroke-linejoin="round" stroke-linecap="butt" d="m1697.815 248.85039l0 0c0 -13.176544 9.687622 -23.858261 21.637817 -23.858261l0 0c5.7386475 0 11.24231 2.513626 15.300171 6.9879303c4.0579834 4.474289 6.3376465 10.542725 6.3376465 16.87033l0 0c0 13.176559 -9.687622 23.858261 -21.637817 23.858261l0 0c-11.950195 0 -21.637817 -10.681702 -21.637817 -23.858261z" fill-rule="nonzero"></path><path fill="#cfe2f3" d="m2118.2322 633.5696l0 0c0 -13.176575 9.687744 -23.858276 21.63794 -23.858276l0 0c5.7387695 0 11.242432 2.5136108 15.300293 6.987915c4.0578613 4.474304 6.3374023 10.542725 6.3374023 16.870361l0 0c0 13.176514 -9.6875 23.858215 -21.637695 23.858215l0 0c-11.950195 0 -21.63794 -10.681702 -21.63794 -23.858215z" fill-rule="nonzero"></path><path stroke="#000000" stroke-width="1.0" stroke-linejoin="round" stroke-linecap="butt" d="m2118.2322 633.5696l0 0c0 -13.176575 9.687744 -23.858276 21.63794 -23.858276l0 0c5.7387695 0 11.242432 2.5136108 15.300293 6.987915c4.0578613 4.474304 6.3374023 10.542725 6.3374023 16.870361l0 0c0 13.176514 -9.6875 23.858215 -21.637695 23.858215l0 0c-11.950195 0 -21.63794 -10.681702 -21.63794 -23.858215z" fill-rule="nonzero"></path><path fill="#cfe2f3" d="m1695.6824 633.5696l0 0c0 -13.176575 9.687622 -23.858276 21.637817 -23.858276l0 0c5.7387695 0 11.242432 2.5136108 15.300293 6.987915c4.0578613 4.474304 6.3375244 10.542725 6.3375244 16.870361l0 0c0 13.176514 -9.687622 23.858215 -21.637817 23.858215l0 0c-11.950195 0 -21.637817 -10.681702 -21.637817 -23.858215z" fill-rule="nonzero"></path><path stroke="#000000" stroke-width="1.0" stroke-linejoin="round" stroke-linecap="butt" d="m1695.6824 633.5696l0 0c0 -13.176575 9.687622 -23.858276 21.637817 -23.858276l0 0c5.7387695 0 11.242432 2.5136108 15.300293 6.987915c4.0578613 4.474304 6.3375244 10.542725 6.3375244 16.870361l0 0c0 13.176514 -9.687622 23.858215 -21.637817 23.858215l0 0c-11.950195 0 -21.637817 -10.681702 -21.637817 -23.858215z" fill-rule="nonzero"></path><path fill="#cfe2f3" d="m2517.8608 248.85039l0 0c0 -13.176544 9.687744 -23.858261 21.63794 -23.858261l0 0c5.7385254 0 11.2421875 2.513626 15.300049 6.9879303c4.0578613 4.474289 6.3376465 10.542725 6.3376465 16.87033l0 0c0 13.176559 -9.6875 23.858261 -21.637695 23.858261l0 0c-11.950195 0 -21.63794 -10.681702 -21.63794 -23.858261z" fill-rule="nonzero"></path><path stroke="#000000" stroke-width="1.0" stroke-linejoin="round" stroke-linecap="butt" d="m2517.8608 248.85039l0 0c0 -13.176544 9.687744 -23.858261 21.63794 -23.858261l0 0c5.7385254 0 11.2421875 2.513626 15.300049 6.9879303c4.0578613 4.474289 6.3376465 10.542725 6.3376465 16.87033l0 0c0 13.176559 -9.6875 23.858261 -21.637695 23.858261l0 0c-11.950195 0 -21.63794 -10.681702 -21.63794 -23.858261z" fill-rule="nonzero"></path><path fill="#cfe2f3" d="m2946.8635 633.5696l0 0c0 -13.176575 9.6875 -23.858276 21.637695 -23.858276l0 0c5.7387695 0 11.242432 2.5136108 15.300293 6.987915c4.0578613 4.474304 6.3376465 10.542725 6.3376465 16.870361l0 0c0 13.176514 -9.687744 23.858215 -21.63794 23.858215l0 0c-11.950195 0 -21.637695 -10.681702 -21.637695 -23.858215z" fill-rule="nonzero"></path><path stroke="#000000" stroke-width="1.0" stroke-linejoin="round" stroke-linecap="butt" d="m2946.8635 633.5696l0 0c0 -13.176575 9.6875 -23.858276 21.637695 -23.858276l0 0c5.7387695 0 11.242432 2.5136108 15.300293 6.987915c4.0578613 4.474304 6.3376465 10.542725 6.3376465 16.870361l0 0c0 13.176514 -9.687744 23.858215 -21.63794 23.858215l0 0c-11.950195 0 -21.637695 -10.681702 -21.637695 -23.858215z" fill-rule="nonzero"></path><path fill="#cfe2f3" d="m2950.7017 236.331l9.264893 -7.498657l8.534668 10.545074l8.534912 -10.545074l9.264893 7.498657l-10.1328125 12.519394l10.1328125 12.519424l-9.264893 7.4986267l-8.534912 -10.545074l-8.534668 10.545074l-9.264893 -7.4986267l10.132568 -12.519424z" fill-rule="nonzero"></path><path stroke="#000000" stroke-width="1.0" stroke-linejoin="round" stroke-linecap="butt" d="m2950.7017 236.331l9.264893 -7.498657l8.534668 10.545074l8.534912 -10.545074l9.264893 7.498657l-10.1328125 12.519394l10.1328125 12.519424l-9.264893 7.4986267l-8.534912 -10.545074l-8.534668 10.545074l-9.264893 -7.4986267l10.132568 -12.519424z" fill-rule="nonzero"></path><path fill="#cfe2f3" d="m2515.699 621.0502l9.264893 -7.498657l8.534912 10.545044l8.534668 -10.545044l9.264893 7.498657l-10.132568 12.519409l10.132568 12.519409l-9.264893 7.498596l-8.534668 -10.545044l-8.534912 10.545044l-9.264893 -7.498596l10.1328125 -12.519409z" fill-rule="nonzero"></path><path stroke="#000000" stroke-width="1.0" stroke-linejoin="round" stroke-linecap="butt" d="m2515.699 621.0502l9.264893 -7.498657l8.534912 10.545044l8.534668 -10.545044l9.264893 7.498657l-10.132568 12.519409l10.132568 12.519409l-9.264893 7.498596l-8.534668 -10.545044l-8.534912 10.545044l-9.264893 -7.498596l10.1328125 -12.519409z" fill-rule="nonzero"></path><path fill="#000000" fill-opacity="0.0" d="m2722.5774 341.95276l108.944824 0l0 148.78738l-108.944824 0z" fill-rule="nonzero"></path><path fill="#ff0000" d="m2761.0774 451.27026q-0.0625 -2.25 -0.0625 -3.375q0 -6.625 1.875 -11.4375q1.375 -3.625 4.4375 -7.3125q2.25 -2.6875 8.09375 -7.84375q5.84375 -5.15625 7.59375 -8.21875q1.75 -3.0625 1.75 -6.6875q0 -6.5625 -5.125 -11.53125q-5.125 -4.96875 -12.5625 -4.96875q-7.1875 0 -12.0 4.5q-4.8125 4.5 -6.3125 14.0625l-11.5625 -1.375q1.5625 -12.8125 9.28125 -19.625q7.71875 -6.8125 20.40625 -6.8125q13.4375 0 21.4375 7.3125q8.0 7.3125 8.0 17.6875q0 6.0 -2.8125 11.0625q-2.8125 5.0625 -11.0 12.3125q-5.5 4.875 -7.1875 7.1875q-1.6875 2.3125 -2.5 5.3125q-0.8125 3.0 -0.9375 9.75l-10.8125 0zm-0.6875 22.5625l0 -12.8125l12.8125 0l0 12.8125l-12.8125 0z" fill-rule="nonzero"></path></g></svg>

