<?xml version="1.0" standalone="yes"?>

<svg version="1.1" viewBox="0.0 0.0 770.3595800524935 707.7506561679791" fill="none" stroke="none" stroke-linecap="square" stroke-miterlimit="10" xmlns="http://www.w3.org/2000/svg" xmlns:xlink="http://www.w3.org/1999/xlink"><clipPath id="p.0"><path d="m0 0l770.35956 0l0 707.7507l-770.35956 0l0 -707.7507z" clip-rule="nonzero"></path></clipPath><g clip-path="url(#p.0)"><path fill="#000000" fill-opacity="0.0" d="m0 0l770.35956 0l0 707.7507l-770.35956 0z" fill-rule="nonzero"></path><path fill="#000000" fill-opacity="0.0" d="m87.10761 700.9449l2.708664 -632.8819" fill-rule="nonzero"></path><path stroke="#000000" stroke-width="8.0" stroke-linejoin="round" stroke-linecap="butt" d="m87.10761 700.9449l2.5032272 -584.8823" fill-rule="evenodd"></path><path fill="#000000" stroke="#000000" stroke-width="8.0" stroke-linecap="butt" d="m102.82458 116.1191l-13.058357 -36.361l-13.369118 36.247894z" fill-rule="evenodd"></path><path fill="#000000" fill-opacity="0.0" d="m20.414698 632.8924l725.44885 1.3543091" fill-rule="nonzero"></path><path stroke="#000000" stroke-width="8.0" stroke-linejoin="round" stroke-linecap="butt" d="m20.414698 632.8924l677.4489 1.2647095" fill-rule="evenodd"></path><path fill="#000000" stroke="#000000" stroke-width="8.0" stroke-linecap="butt" d="m697.8389 647.371l36.329407 -13.146057l-36.28009 -13.281616z" fill-rule="evenodd"></path><path fill="#000000" fill-opacity="0.0" d="m0 632.8924l87.11811 0l0 62.614197l-87.11811 0z" fill-rule="nonzero"></path><path fill="#000000" d="m16.484375 679.34674q-2.328125 -2.9375 -3.9375 -6.875q-1.609375 -3.9375 -1.609375 -8.15625q0 -3.71875 1.203125 -7.125q1.40625 -3.953125 4.34375 -7.875l2.015625 0q-1.890625 3.25 -2.5 4.640625q-0.953125 2.15625 -1.5 4.5q-0.671875 2.921875 -0.671875 5.875q0 7.515625 4.671875 15.015625l-2.015625 0zm4.5 -18.03125q0 -4.0625 0.828125 -6.53125q0.84375 -2.484375 2.484375 -3.828125q1.65625 -1.34375 4.15625 -1.34375q1.84375 0 3.234375 0.75q1.390625 0.734375 2.296875 2.140625q0.90625 1.390625 1.421875 3.40625q0.515625 2.0 0.515625 5.40625q0 4.03125 -0.828125 6.515625q-0.828125 2.46875 -2.484375 3.828125q-1.640625 1.34375 -4.15625 1.34375q-3.3125 0 -5.203125 -2.375q-2.265625 -2.859375 -2.265625 -9.3125zm2.890625 0q0 5.640625 1.3125 7.515625q1.328125 1.859375 3.265625 1.859375q1.9375 0 3.25 -1.875q1.328125 -1.875 1.328125 -7.5q0 -5.65625 -1.328125 -7.515625q-1.3125 -1.859375 -3.28125 -1.859375q-1.9375 0 -3.09375 1.640625q-1.453125 2.09375 -1.453125 7.734375zm16.421875 11.296875l0 -3.203125l3.203125 0l0 3.203125q0 1.765625 -0.625 2.84375q-0.625 1.09375 -1.984375 1.6875l-0.78125 -1.203125q0.890625 -0.390625 1.3125 -1.15625q0.421875 -0.75 0.46875 -2.171875l-1.59375 0zm7.375 -11.296875q0 -4.0625 0.828125 -6.53125q0.84375 -2.484375 2.484375 -3.828125q1.65625 -1.34375 4.15625 -1.34375q1.84375 0 3.234375 0.75q1.390625 0.734375 2.296875 2.140625q0.90625 1.390625 1.421875 3.40625q0.515625 2.0 0.515625 5.40625q0 4.03125 -0.828125 6.515625q-0.828125 2.46875 -2.484375 3.828125q-1.640625 1.34375 -4.15625 1.34375q-3.3125 0 -5.203125 -2.375q-2.265625 -2.859375 -2.265625 -9.3125zm2.890625 0q0 5.640625 1.3125 7.515625q1.328125 1.859375 3.265625 1.859375q1.9375 0 3.25 -1.875q1.328125 -1.875 1.328125 -7.5q0 -5.65625 -1.328125 -7.515625q-1.3125 -1.859375 -3.28125 -1.859375q-1.9375 0 -3.09375 1.640625q-1.453125 2.09375 -1.453125 7.734375zm17.53125 18.03125l-2.015625 0q4.671875 -7.5 4.671875 -15.015625q0 -2.9375 -0.671875 -5.828125q-0.53125 -2.34375 -1.484375 -4.5q-0.609375 -1.40625 -2.515625 -4.6875l2.015625 0q2.9375 3.921875 4.34375 7.875q1.203125 3.40625 1.203125 7.125q0 4.21875 -1.625 8.15625q-1.609375 3.9375 -3.921875 6.875z" fill-rule="nonzero"></path><path fill="#000000" fill-opacity="0.0" d="m0 217.4357l87.11811 0l0 62.614166l-87.11811 0z" fill-rule="nonzero"></path><path fill="#000000" d="m16.484375 263.89008q-2.328125 -2.9375 -3.9375 -6.875q-1.609375 -3.9375 -1.609375 -8.15625q0 -3.71875 1.203125 -7.125q1.40625 -3.953125 4.34375 -7.875l2.015625 0q-1.890625 3.25 -2.5 4.640625q-0.953125 2.15625 -1.5 4.5q-0.671875 2.921875 -0.671875 5.875q0 7.515625 4.671875 15.015625l-2.015625 0zm4.5 -18.03125q0 -4.0625 0.828125 -6.53125q0.84375 -2.484375 2.484375 -3.828125q1.65625 -1.34375 4.15625 -1.34375q1.84375 0 3.234375 0.75q1.390625 0.734375 2.296875 2.140625q0.90625 1.390625 1.421875 3.40625q0.515625 2.0 0.515625 5.40625q0 4.03125 -0.828125 6.515625q-0.828125 2.46875 -2.484375 3.828125q-1.640625 1.34375 -4.15625 1.34375q-3.3125 0 -5.203125 -2.375q-2.265625 -2.859375 -2.265625 -9.3125zm2.890625 0q0 5.640625 1.3125 7.515625q1.328125 1.859375 3.265625 1.859375q1.9375 0 3.25 -1.875q1.328125 -1.875 1.328125 -7.5q0 -5.65625 -1.328125 -7.515625q-1.3125 -1.859375 -3.28125 -1.859375q-1.9375 0 -3.09375 1.640625q-1.453125 2.09375 -1.453125 7.734375zm16.421875 11.296875l0 -3.203125l3.203125 0l0 3.203125q0 1.765625 -0.625 2.84375q-0.625 1.09375 -1.984375 1.6875l-0.78125 -1.203125q0.890625 -0.390625 1.3125 -1.15625q0.421875 -0.75 0.46875 -2.171875l-1.59375 0zm17.96875 0l-2.8125 0l0 -17.921875q-1.015625 0.96875 -2.671875 1.9375q-1.640625 0.96875 -2.953125 1.453125l0 -2.71875q2.359375 -1.109375 4.125 -2.6875q1.765625 -1.578125 2.5 -3.0625l1.8125 0l0 23.0zm9.828125 6.734375l-2.015625 0q4.671875 -7.5 4.671875 -15.015625q0 -2.9375 -0.671875 -5.828125q-0.53125 -2.34375 -1.484375 -4.5q-0.609375 -1.40625 -2.515625 -4.6875l2.015625 0q2.9375 3.921875 4.34375 7.875q1.203125 3.40625 1.203125 7.125q0 4.21875 -1.625 8.15625q-1.609375 3.9375 -3.921875 6.875z" fill-rule="nonzero"></path><path fill="#000000" fill-opacity="0.0" d="m477.0656 638.3307l87.1181 0l0 62.614197l-87.1181 0z" fill-rule="nonzero"></path><path fill="#000000" d="m493.55 684.7851q-2.328125 -2.9375 -3.9375 -6.875q-1.609375 -3.9375 -1.609375 -8.15625q0 -3.71875 1.203125 -7.125q1.40625 -3.953125 4.34375 -7.875l2.015625 0q-1.890625 3.25 -2.5 4.640625q-0.953125 2.15625 -1.5 4.5q-0.671875 2.921875 -0.671875 5.875q0 7.515625 4.671875 15.015625l-2.015625 0zm15.09375 -6.734375l-2.8125 0l0 -17.921875q-1.015625 0.96875 -2.671875 1.9375q-1.640625 0.96875 -2.953125 1.453125l0 -2.71875q2.359375 -1.109375 4.125 -2.6875q1.765625 -1.578125 2.5 -3.0625l1.8125 0l0 23.0zm8.71875 0l0 -3.203125l3.203125 0l0 3.203125q0 1.765625 -0.625 2.84375q-0.625 1.09375 -1.984375 1.6875l-0.78125 -1.203125q0.890625 -0.390625 1.3125 -1.15625q0.421875 -0.75 0.46875 -2.171875l-1.59375 0zm7.375 -11.296875q0 -4.0625 0.828125 -6.53125q0.84375 -2.484375 2.484375 -3.828125q1.65625 -1.34375 4.15625 -1.34375q1.84375 0 3.234375 0.75q1.390625 0.734375 2.296875 2.140625q0.90625 1.390625 1.421875 3.40625q0.515625 2.0 0.515625 5.40625q0 4.03125 -0.828125 6.515625q-0.828125 2.46875 -2.484375 3.828125q-1.640625 1.34375 -4.15625 1.34375q-3.3125 0 -5.203125 -2.375q-2.265625 -2.859375 -2.265625 -9.3125zm2.890625 0q0 5.640625 1.3125 7.515625q1.328125 1.859375 3.265625 1.859375q1.9375 0 3.25 -1.875q1.328125 -1.875 1.328125 -7.5q0 -5.65625 -1.328125 -7.515625q-1.3125 -1.859375 -3.28125 -1.859375q-1.9375 0 -3.09375 1.640625q-1.453125 2.09375 -1.453125 7.734375zm17.53125 18.03125l-2.015625 0q4.671875 -7.5 4.671875 -15.015625q0 -2.9375 -0.671875 -5.828125q-0.53125 -2.34375 -1.484375 -4.5q-0.609375 -1.40625 -2.515625 -4.6875l2.015625 0q2.9375 3.921875 4.34375 7.875q1.203125 3.40625 1.203125 7.125q0 4.21875 -1.625 8.15625q-1.609375 3.9375 -3.921875 6.875z" fill-rule="nonzero"></path><path fill="#000000" fill-opacity="0.0" d="m520.5302 186.12862l87.1181 0l0 62.614166l-87.1181 0z" fill-rule="nonzero"></path><path fill="#000000" d="m537.0146 232.583q-2.328125 -2.9375 -3.9375 -6.875q-1.609375 -3.9375 -1.609375 -8.15625q0 -3.71875 1.203125 -7.125q1.40625 -3.953125 4.34375 -7.875l2.015625 0q-1.890625 3.25 -2.5 4.640625q-0.953125 2.15625 -1.5 4.5q-0.671875 2.921875 -0.671875 5.875q0 7.515625 4.671875 15.015625l-2.015625 0zm15.09375 -6.734375l-2.8125 0l0 -17.921875q-1.015625 0.96875 -2.671875 1.9375q-1.640625 0.96875 -2.953125 1.453125l0 -2.71875q2.359375 -1.109375 4.125 -2.6875q1.765625 -1.578125 2.5 -3.0625l1.8125 0l0 23.0zm8.71875 0l0 -3.203125l3.203125 0l0 3.203125q0 1.765625 -0.625 2.84375q-0.625 1.09375 -1.984375 1.6875l-0.78125 -1.203125q0.890625 -0.390625 1.3125 -1.15625q0.421875 -0.75 0.46875 -2.171875l-1.59375 0zm17.96875 0l-2.8125 0l0 -17.921875q-1.015625 0.96875 -2.671875 1.9375q-1.640625 0.96875 -2.953125 1.453125l0 -2.71875q2.359375 -1.109375 4.125 -2.6875q1.765625 -1.578125 2.5 -3.0625l1.8125 0l0 23.0zm9.828125 6.734375l-2.015625 0q4.671875 -7.5 4.671875 -15.015625q0 -2.9375 -0.671875 -5.828125q-0.53125 -2.34375 -1.484375 -4.5q-0.609375 -1.40625 -2.515625 -4.6875l2.015625 0q2.9375 3.921875 4.34375 7.875q1.203125 3.40625 1.203125 7.125q0 4.21875 -1.625 8.15625q-1.609375 3.9375 -3.921875 6.875z" fill-rule="nonzero"></path><path fill="#000000" fill-opacity="0.0" d="m36.74803 13.611548l87.11811 0l0 62.614174l-87.11811 0z" fill-rule="nonzero"></path><path fill="#000000" d="m54.076157 47.472797q1.140625 1.21875 1.734375 2.4375q0.421875 0.84375 1.375 4.4375l2.0625 -3.09375q0.828125 -1.125 2.0 -2.140625q1.171875 -1.03125 2.0625 -1.40625q0.5625 -0.234375 1.234375 -0.234375q1.015625 0 1.609375 0.546875q0.59375 0.53125 0.59375 1.3125q0 0.890625 -0.34375 1.21875q-0.65625 0.578125 -1.5 0.578125q-0.5 0 -1.0625 -0.203125q-1.09375 -0.375 -1.46875 -0.375q-0.5625 0 -1.34375 0.65625q-1.453125 1.21875 -3.46875 4.703125l1.921875 8.0625q0.453125 1.8593712 0.75 2.2187462q0.3125 0.359375 0.609375 0.359375q0.5 0 1.15625 -0.53125q1.28125 -1.078125 2.203125 -2.8124962l0.8125 0.421875q-1.46875 2.7656212 -3.75 4.593746q-1.28125 1.03125 -2.171875 1.03125q-1.3125 0 -2.09375 -1.484375q-0.484375 -0.90625 -2.03125 -7.874996q-3.65625 6.359371 -5.859375 8.187496q-1.4375 1.171875 -2.765625 1.171875q-0.953125 0 -1.71875 -0.6875q-0.5625 -0.515625 -0.5625 -1.375q0 -0.78125 0.515625 -1.296875q0.515625 -0.515625 1.265625 -0.515625q0.75 0 1.59375 0.75q0.609375 0.546875 0.9375 0.546875q0.28125 0 0.734375 -0.375q1.09375 -0.890625 2.984375 -3.8437462q1.90625 -2.953125 2.5 -4.265625q-1.453125 -5.703125 -1.578125 -6.03125q-0.53125 -1.515625 -1.40625 -2.140625q-0.859375 -0.640625 -2.546875 -0.640625q-0.546875 0 -1.25 0.046875l0 -0.84375l6.265625 -1.109375z" fill-rule="nonzero"></path><path fill="#000000" d="m78.05272 65.62904l-1.109375 3.0625l-9.375 0l0 -0.4375q4.140625 -3.765625 5.828125 -6.156246q1.6875 -2.390625 1.6875 -4.375q0 -1.515625 -0.9375 -2.484375q-0.921875 -0.96875 -2.203125 -0.96875q-1.171875 0 -2.109375 0.6875q-0.921875 0.671875 -1.375 2.0l-0.4375 0q0.296875 -2.171875 1.5 -3.328125q1.21875 -1.15625 3.046875 -1.15625q1.921875 0 3.21875 1.25q1.296875 1.234375 1.296875 2.921875q0 1.203125 -0.5625 2.40625q-0.859375 1.90625 -2.8125 4.03125q-2.921875 3.1874962 -3.640625 3.8437462l4.140625 0q1.265625 0 1.78125 -0.09375q0.515625 -0.09375 0.921875 -0.375q0.40625 -0.296875 0.71875 -0.828125l0.421875 0z" fill-rule="nonzero"></path><path fill="#000000" fill-opacity="0.0" d="m703.6667 617.2546l73.51178 0l0 93.88977l-73.51178 0z" fill-rule="nonzero"></path><path fill="#000000" d="m720.9948 660.0607q1.140625 1.21875 1.734375 2.4375q0.421875 0.84375 1.375 4.4375l2.0625 -3.09375q0.828125 -1.125 2.0 -2.140625q1.171875 -1.03125 2.0625 -1.40625q0.5625 -0.234375 1.234375 -0.234375q1.015625 0 1.609375 0.546875q0.59375 0.53125 0.59375 1.3125q0 0.890625 -0.34375 1.21875q-0.65625 0.578125 -1.5 0.578125q-0.5 0 -1.0625 -0.203125q-1.09375 -0.375 -1.46875 -0.375q-0.5625 0 -1.34375 0.65625q-1.453125 1.21875 -3.46875 4.703125l1.921875 8.0625q0.453125 1.859375 0.75 2.21875q0.3125 0.359375 0.609375 0.359375q0.5 0 1.15625 -0.53125q1.28125 -1.078125 2.203125 -2.8125l0.8125 0.421875q-1.46875 2.765625 -3.75 4.59375q-1.28125 1.03125 -2.171875 1.03125q-1.3125 0 -2.09375 -1.484375q-0.484375 -0.90625 -2.03125 -7.875q-3.65625 6.359375 -5.859375 8.1875q-1.4375 1.171875 -2.765625 1.171875q-0.953125 0 -1.71875 -0.6875q-0.5625 -0.515625 -0.5625 -1.375q0 -0.78125 0.515625 -1.296875q0.515625 -0.515625 1.265625 -0.515625q0.75 0 1.59375 0.75q0.609375 0.546875 0.9375 0.546875q0.28125 0 0.734375 -0.375q1.09375 -0.890625 2.984375 -3.84375q1.90625 -2.953125 2.5 -4.265625q-1.453125 -5.703125 -1.578125 -6.03125q-0.53125 -1.515625 -1.40625 -2.140625q-0.859375 -0.640625 -2.546875 -0.640625q-0.546875 0 -1.25 0.046875l0 -0.84375l6.265625 -1.109375z" fill-rule="nonzero"></path><path fill="#000000" d="m736.7839 666.95135l3.875 -1.890625l0.375 0l0 13.421875q0 1.328125 0.109375 1.65625q0.125 0.328125 0.46875 0.515625q0.359375 0.171875 1.4375 0.1875l0 0.4375l-5.984375 0l0 -0.4375q1.125 -0.015625 1.453125 -0.1875q0.328125 -0.171875 0.453125 -0.453125q0.140625 -0.296875 0.140625 -1.71875l0 -8.578125q0 -1.734375 -0.125 -2.234375q-0.078125 -0.375 -0.296875 -0.546875q-0.21875 -0.171875 -0.515625 -0.171875q-0.4375 0 -1.21875 0.359375l-0.171875 -0.359375z" fill-rule="nonzero"></path><path fill="#000000" fill-opacity="0.0" d="m36.74803 147.16798l578.6771 527.1496" fill-rule="nonzero"></path><path stroke="#ff0000" stroke-width="3.0" stroke-linejoin="round" stroke-linecap="butt" d="m36.74803 147.16798l578.6771 527.1496" fill-rule="nonzero"></path><path fill="#000000" fill-opacity="0.0" d="m87.11811 248.74278l0 0" fill-rule="nonzero"></path><path stroke="#000000" stroke-width="1.0" stroke-linejoin="round" stroke-linecap="butt" d="m87.11811 248.74278l0 0" fill-rule="nonzero"></path><path fill="#000000" fill-opacity="0.0" d="m103.580055 248.85039l-30.236221 0" fill-rule="nonzero"></path><path stroke="#000000" stroke-width="4.0" stroke-linejoin="round" stroke-linecap="butt" d="m103.580055 248.85039l-30.236221 0" fill-rule="nonzero"></path><path fill="#000000" fill-opacity="0.0" d="m520.7192 645.6798l-0.18896484 -24.22052" fill-rule="nonzero"></path><path stroke="#000000" stroke-width="4.0" stroke-linejoin="round" stroke-linecap="butt" d="m520.7192 645.6798l-0.18896484 -24.22052" fill-rule="nonzero"></path><path fill="#cfe2f3" d="m518.2467 248.74278l0 0c0 -1.5046539 1.0646362 -2.724411 2.3779907 -2.724411l0 0c0.63067627 0 1.2354736 0.28703308 1.6814575 0.7979584c0.44592285 0.5109253 0.69647217 1.2038879 0.69647217 1.9264526l0 0c0 1.5046539 -1.0646362 2.724411 -2.3779297 2.724411l0 0c-1.3133545 0 -2.3779907 -1.2197571 -2.3779907 -2.724411z" fill-rule="nonzero"></path><path stroke="#000000" stroke-width="1.0" stroke-linejoin="round" stroke-linecap="butt" d="m518.2467 248.74278l0 0c0 -1.5046539 1.0646362 -2.724411 2.3779907 -2.724411l0 0c0.63067627 0 1.2354736 0.28703308 1.6814575 0.7979584c0.44592285 0.5109253 0.69647217 1.2038879 0.69647217 1.9264526l0 0c0 1.5046539 -1.0646362 2.724411 -2.3779297 2.724411l0 0c-1.3133545 0 -2.3779907 -1.2197571 -2.3779907 -2.724411z" fill-rule="nonzero"></path><path fill="#000000" fill-opacity="0.0" d="m111.608925 147.16798l117.16535 0l0 62.614166l-117.16535 0z" fill-rule="nonzero"></path><path fill="#000000" d="m128.09329 193.62236q-2.3281174 -2.9375 -3.9374924 -6.875q-1.609375 -3.9375 -1.609375 -8.15625q0 -3.71875 1.203125 -7.125q1.40625 -3.953125 4.3437424 -7.875l2.015625 0q-1.890625 3.25 -2.4999924 4.640625q-0.953125 2.15625 -1.5 4.5q-0.671875 2.921875 -0.671875 5.875q0 7.515625 4.6718674 15.015625l-2.015625 0zm4.5 -18.03125q0 -4.0625 0.828125 -6.53125q0.84375 -2.484375 2.484375 -3.828125q1.65625 -1.34375 4.15625 -1.34375q1.84375 0 3.234375 0.75q1.390625 0.734375 2.296875 2.140625q0.90625 1.390625 1.421875 3.40625q0.515625 2.0 0.515625 5.40625q0 4.03125 -0.828125 6.515625q-0.828125 2.46875 -2.484375 3.828125q-1.640625 1.34375 -4.15625 1.34375q-3.3125 0 -5.203125 -2.375q-2.265625 -2.859375 -2.265625 -9.3125zm2.890625 0q0 5.640625 1.3125 7.515625q1.328125 1.859375 3.265625 1.859375q1.9375 0 3.25 -1.875q1.328125 -1.875 1.328125 -7.5q0 -5.65625 -1.328125 -7.515625q-1.3125 -1.859375 -3.28125 -1.859375q-1.9375 0 -3.09375 1.640625q-1.453125 2.09375 -1.453125 7.734375zm16.421875 11.296875l0 -3.203125l3.203125 0l0 3.203125q0 1.765625 -0.625 2.84375q-0.625 1.09375 -1.984375 1.6875l-0.78125 -1.203125q0.890625 -0.390625 1.3125 -1.15625q0.421875 -0.75 0.46875 -2.171875l-1.59375 0zm17.96875 0l-2.8125 0l0 -17.921875q-1.015625 0.96875 -2.671875 1.9375q-1.640625 0.96875 -2.953125 1.453125l0 -2.71875q2.359375 -1.109375 4.125 -2.6875q1.765625 -1.578125 2.5 -3.0625l1.8125 0l0 23.0zm8.78125 0l0 -3.203125l3.203125 0l0 3.203125l-3.203125 0zm22.09375 -2.703125l0 2.703125l-15.140625 0q-0.03125 -1.015625 0.328125 -1.953125q0.578125 -1.546875 1.84375 -3.046875q1.28125 -1.5 3.6875 -3.46875q3.734375 -3.0625 5.046875 -4.84375q1.3125 -1.796875 1.3125 -3.390625q0 -1.671875 -1.203125 -2.8125q-1.1875 -1.15625 -3.109375 -1.15625q-2.03125 0 -3.25 1.21875q-1.21875 1.21875 -1.234375 3.375l-2.890625 -0.296875q0.296875 -3.234375 2.234375 -4.921875q1.9375 -1.703125 5.203125 -1.703125q3.296875 0 5.21875 1.828125q1.921875 1.828125 1.921875 4.53125q0 1.375 -0.5625 2.703125q-0.5625 1.328125 -1.875 2.796875q-1.296875 1.46875 -4.328125 4.03125q-2.53125 2.125 -3.25 2.890625q-0.71875 0.75 -1.1875 1.515625l11.234375 0zm5.640625 9.4375l-2.015625 0q4.671875 -7.5 4.671875 -15.015625q0 -2.9375 -0.671875 -5.828125q-0.53125 -2.34375 -1.484375 -4.5q-0.609375 -1.40625 -2.515625 -4.6875l2.015625 0q2.9375 3.921875 4.34375 7.875q1.203125 3.40625 1.203125 7.125q0 4.21875 -1.625 8.15625q-1.609375 3.9375 -3.921875 6.875z" fill-rule="nonzero"></path><path fill="#000000" fill-opacity="0.0" d="m37.46194 404.04724l303.71652 278.2992" fill-rule="nonzero"></path><path stroke="#ff0000" stroke-width="3.0" stroke-linejoin="round" stroke-linecap="butt" stroke-dasharray="12.0,9.0" d="m37.46194 404.04724l303.71652 278.2992" fill-rule="nonzero"></path><path fill="#000000" fill-opacity="0.0" d="m215.40158 524.45667l93.66928 -100.346436" fill-rule="nonzero"></path><path stroke="#000000" stroke-width="1.0" stroke-linejoin="round" stroke-linecap="butt" d="m215.40158 524.45667l89.57507 -95.96036" fill-rule="evenodd"></path><path fill="#000000" stroke="#000000" stroke-width="1.0" stroke-linecap="butt" d="m306.18408 429.62338l1.8892212 -4.4444885l-4.304077 2.1903076z" fill-rule="evenodd"></path></g></svg>

