<?xml version="1.0" standalone="yes"?>

<svg version="1.1" viewBox="0.0 0.0 784.3569553805775 484.18372703412075" fill="none" stroke="none" stroke-linecap="square" stroke-miterlimit="10" xmlns="http://www.w3.org/2000/svg" xmlns:xlink="http://www.w3.org/1999/xlink"><clipPath id="p.0"><path d="m0 0l784.35693 0l0 484.18372l-784.35693 0l0 -484.18372z" clip-rule="nonzero"></path></clipPath><g clip-path="url(#p.0)"><path fill="#000000" fill-opacity="0.0" d="m0 0l784.35693 0l0 484.18372l-784.35693 0z" fill-rule="nonzero"></path><path fill="#cfe2f3" d="m5.469816 84.2021l0 0c0 -43.600056 36.867767 -78.944885 82.34646 -78.944885l0 0c21.839638 0 42.784782 8.317383 58.22773 23.122421c15.442963 14.805038 24.118729 34.884975 24.118729 55.822464l0 0c0 43.60005 -36.867767 78.944885 -82.34646 78.944885l0 0c-45.478695 0 -82.34646 -35.344833 -82.34646 -78.944885z" fill-rule="nonzero"></path><path stroke="#000000" stroke-width="1.0" stroke-linejoin="round" stroke-linecap="butt" d="m5.469816 84.2021l0 0c0 -43.600056 36.867767 -78.944885 82.34646 -78.944885l0 0c21.839638 0 42.784782 8.317383 58.22773 23.122421c15.442963 14.805038 24.118729 34.884975 24.118729 55.822464l0 0c0 43.60005 -36.867767 78.944885 -82.34646 78.944885l0 0c-45.478695 0 -82.34646 -35.344833 -82.34646 -78.944885z" fill-rule="nonzero"></path><path fill="#000000" d="m75.15221 65.76268q2.296875 2.4375 3.46875 4.875q0.84375 1.6875 2.765625 8.859375l4.125 -6.1875q1.640625 -2.25 3.984375 -4.28125q2.34375 -2.046875 4.125 -2.796875q1.125 -0.46875 2.484375 -0.46875q2.015625 0 3.203125 1.078125q1.203125 1.078125 1.203125 2.625q0 1.78125 -0.703125 2.4375q-1.3125 1.171875 -3.0 1.171875q-0.984375 0 -2.109375 -0.421875q-2.203125 -0.75 -2.953125 -0.75q-1.125 0 -2.671875 1.3125q-2.90625 2.4375 -6.9375 9.421875l3.84375 16.125q0.890625 3.703125 1.5 4.4375q0.609375 0.71875 1.21875 0.71875q0.984375 0 2.296875 -1.078125q2.578125 -2.15625 4.40625 -5.625l1.640625 0.84375q-2.953125 5.53125 -7.5 9.1875q-2.578125 2.0625 -4.359375 2.0625q-2.625 0 -4.171875 -2.953125q-0.984375 -1.828125 -4.078125 -15.75q-7.3125 12.703125 -11.71875 16.359375q-2.8593712 2.34375 -5.531246 2.34375q-1.875 0 -3.421875 -1.359375q-1.125 -1.03125 -1.125 -2.765625q0 -1.546875 1.03125 -2.578125q1.03125 -1.03125 2.53125 -1.03125q1.5 0 3.1875 1.5q1.21875 1.078125 1.875 1.078125q0.5624962 0 1.4531212 -0.75q2.203125 -1.78125 6.0 -7.6875q3.796875 -5.90625 4.96875 -8.53125q-2.90625 -11.390625 -3.140625 -12.046875q-1.078125 -3.046875 -2.8125 -4.3125q-1.734375 -1.265625 -5.109375 -1.265625q-1.078125 0 -2.4843712 0.09375l0 -1.6875l12.515621 -2.203125z" fill-rule="nonzero"></path><path fill="#000000" d="m104.87096 89.07518l5.15625 -2.515625l0.515625 0l0 17.890625q0 1.78125 0.140625 2.21875q0.15625 0.4375 0.625 0.671875q0.46875 0.234375 1.90625 0.265625l0 0.578125l-7.96875 0l0 -0.578125q1.5 -0.03125 1.9375 -0.25q0.4375 -0.234375 0.609375 -0.609375q0.171875 -0.390625 0.171875 -2.296875l0 -11.4375q0 -2.3125 -0.15625 -2.96875q-0.109375 -0.5 -0.40625 -0.734375q-0.28125 -0.234375 -0.6875 -0.234375q-0.578125 0 -1.609375 0.484375l-0.234375 -0.484375z" fill-rule="nonzero"></path><path fill="#cfe2f3" d="m5.469816 399.98163l0 0c0 -43.600067 36.867767 -78.944885 82.34646 -78.944885l0 0c21.839638 0 42.784782 8.317383 58.22773 23.122437c15.442963 14.805023 24.118729 34.88495 24.118729 55.82245l0 0c0 43.600067 -36.867767 78.944885 -82.34646 78.944885l0 0c-45.478695 0 -82.34646 -35.34482 -82.34646 -78.944885z" fill-rule="nonzero"></path><path stroke="#000000" stroke-width="1.0" stroke-linejoin="round" stroke-linecap="butt" d="m5.469816 399.98163l0 0c0 -43.600067 36.867767 -78.944885 82.34646 -78.944885l0 0c21.839638 0 42.784782 8.317383 58.22773 23.122437c15.442963 14.805023 24.118729 34.88495 24.118729 55.82245l0 0c0 43.600067 -36.867767 78.944885 -82.34646 78.944885l0 0c-45.478695 0 -82.34646 -35.34482 -82.34646 -78.944885z" fill-rule="nonzero"></path><path fill="#000000" d="m75.15221 381.21976q2.296875 2.4375 3.46875 4.875q0.84375 1.6875 2.765625 8.859375l4.125 -6.1875q1.640625 -2.25 3.984375 -4.28125q2.34375 -2.046875 4.125 -2.796875q1.125 -0.46875 2.484375 -0.46875q2.015625 0 3.203125 1.078125q1.203125 1.078125 1.203125 2.625q0 1.78125 -0.703125 2.4375q-1.3125 1.171875 -3.0 1.171875q-0.984375 0 -2.109375 -0.421875q-2.203125 -0.75 -2.953125 -0.75q-1.125 0 -2.671875 1.3125q-2.90625 2.4375 -6.9375 9.421875l3.84375 16.125q0.890625 3.703125 1.5 4.4375q0.609375 0.71875 1.21875 0.71875q0.984375 0 2.296875 -1.078125q2.578125 -2.15625 4.40625 -5.625l1.640625 0.84375q-2.953125 5.53125 -7.5 9.1875q-2.578125 2.0625 -4.359375 2.0625q-2.625 0 -4.171875 -2.953125q-0.984375 -1.828125 -4.078125 -15.75q-7.3125 12.703125 -11.71875 16.359375q-2.8593712 2.34375 -5.531246 2.34375q-1.875 0 -3.421875 -1.359375q-1.125 -1.03125 -1.125 -2.765625q0 -1.546875 1.03125 -2.578125q1.03125 -1.03125 2.53125 -1.03125q1.5 0 3.1875 1.5q1.21875 1.078125 1.875 1.078125q0.5624962 0 1.4531212 -0.75q2.203125 -1.78125 6.0 -7.6875q3.796875 -5.90625 4.96875 -8.53125q-2.90625 -11.390625 -3.140625 -12.046875q-1.078125 -3.046875 -2.8125 -4.3125q-1.734375 -1.265625 -5.109375 -1.265625q-1.078125 0 -2.4843712 0.09375l0 -1.6875l12.515621 -2.203125z" fill-rule="nonzero"></path><path fill="#000000" d="m115.79283 419.5635l-1.484375 4.078125l-12.5 0l0 -0.578125q5.515625 -5.03125 7.765625 -8.21875q2.25 -3.1875 2.25 -5.828125q0 -2.015625 -1.234375 -3.3125q-1.234375 -1.296875 -2.953125 -1.296875q-1.5625 0 -2.8125 0.921875q-1.234375 0.90625 -1.828125 2.671875l-0.578125 0q0.390625 -2.890625 2.0 -4.4375q1.625 -1.546875 4.046875 -1.546875q2.578125 0 4.296875 1.65625q1.734375 1.65625 1.734375 3.90625q0 1.609375 -0.75 3.21875q-1.15625 2.53125 -3.75 5.359375q-3.890625 4.25 -4.859375 5.125l5.53125 0q1.6875 0 2.359375 -0.125q0.6875 -0.125 1.234375 -0.5q0.546875 -0.390625 0.953125 -1.09375l0.578125 0z" fill-rule="nonzero"></path><path fill="#cfe2f3" d="m409.37534 242.09186l0 0c0 -43.60005 36.867767 -78.94487 82.346436 -78.94487l0 0c21.83963 0 42.78482 8.317383 58.227753 23.122421c15.442932 14.805023 24.118713 34.884964 24.118713 55.82245l0 0c0 43.600067 -36.867737 78.944885 -82.346466 78.944885l0 0c-45.47867 0 -82.346436 -35.34482 -82.346436 -78.944885z" fill-rule="nonzero"></path><path stroke="#000000" stroke-width="1.0" stroke-linejoin="round" stroke-linecap="butt" d="m409.37534 242.09186l0 0c0 -43.60005 36.867767 -78.94487 82.346436 -78.94487l0 0c21.83963 0 42.78482 8.317383 58.227753 23.122421c15.442932 14.805023 24.118713 34.884964 24.118713 55.82245l0 0c0 43.600067 -36.867737 78.944885 -82.346466 78.944885l0 0c-45.47867 0 -82.346436 -35.34482 -82.346436 -78.944885z" fill-rule="nonzero"></path><path fill="#000000" d="m468.7753 236.31311l0 -1.9375l-7.265625 0l0 1.9375l7.265625 0zm-11.015625 15.265625q-2.546875 0.484375 -7.875 0.84375q-0.609375 0.734375 -0.734375 0l-0.359375 -1.8125q2.546875 0 8.96875 -0.609375l0 1.578125zm6.046875 -10.53125q-0.484375 -0.609375 -1.6875 -1.34375l1.203125 -1.328125q1.453125 0.734375 2.421875 1.703125l-0.71875 0.96875l1.9375 0l0 1.9375l-6.1875 0q0 2.53125 0.96875 4.84375q1.453125 -1.9375 2.3125 -3.765625l1.5625 0.859375q0.96875 0.59375 0 0.71875q-1.8125 3.15625 -2.78125 4.234375q1.578125 1.703125 2.0625 1.34375q0.359375 -0.25 0.71875 -1.578125l1.9375 0.84375l-0.484375 1.328125q-0.71875 1.953125 -1.5625 2.0625q-1.828125 0.25 -4.125 -2.296875q-2.546875 2.671875 -4.359375 3.515625l-1.203125 -1.9375q2.53125 -1.34375 4.359375 -3.515625q-1.453125 -2.546875 -1.578125 -6.65625l-9.5625 0l0 -1.9375l9.5625 0l0 -2.0625l1.9375 0q0.96875 0.125 0.125 0.71875l0 1.34375l3.140625 0zm4.484375 12.109375q0.484375 0 0.484375 -0.484375l0 -14.421875l-4.84375 0l-4.84375 0l0 -9.6875l12.109375 0l0 25.3125q0 1.578125 -1.703125 1.578125l-2.171875 0l-0.359375 -2.296875l1.328125 0zm0.484375 -20.71875l0 -1.9375l-7.265625 0l0 1.9375l7.265625 0zm-11.875 5.8125l-9.4375 0l0 17.203125l-2.421875 0l0 -26.890625l11.859375 0l0 9.6875zm-2.421875 -1.9375l0 -1.9375l-7.015625 0l0 1.9375l7.015625 0zm0 -3.875l0 -1.9375l-7.015625 0l0 1.9375l7.015625 0zm-4.234375 12.234375l7.140625 0l0 4.609375l-7.140625 0l0 -4.609375zm2.0625 1.453125l0 1.703125l3.03125 0l0 -1.703125l-3.03125 0zm29.4375 -17.078125q-0.484375 3.15625 -1.6875 6.90625q1.09375 0.125 0.359375 0.84375l0 18.78125l-2.421875 0l0 -15.015625q-0.84375 1.328125 -1.578125 2.171875l-1.9375 -1.453125q4.125 -4.96875 4.84375 -13.4375l2.796875 0.609375q0.484375 0.484375 -0.375 0.59375zm11.875 4.484375l0 2.296875l5.9375 0l0 14.296875l-11.265625 0l0 -14.296875l2.90625 0l0 -2.296875l-8.71875 0l0 -2.296875l8.71875 0l0 -3.390625l2.296875 0q0.96875 0.125 0.125 0.71875l0 2.671875l7.875 0l0 2.296875l-7.875 0zm-3.265625 4.234375l0 2.1875l7.140625 0l0 -2.1875l-7.140625 0zm0 4.125l0 2.0625l7.140625 0l0 -2.0625l-7.140625 0zm0 4.0l0 2.296875l7.140625 0l0 -2.296875l-7.140625 0zm-7.03125 9.6875l0 -19.375l2.296875 0q0.96875 0.109375 0.125 0.71875l0 15.265625l16.71875 0l0 2.296875l-16.71875 0l0 1.09375l-2.421875 0z" fill-rule="nonzero"></path><path fill="#000000" d="m520.1815 239.98499l-14.6562195 0l0 -2.546875l14.6562195 0l0 2.546875zm0 6.734375l-14.6562195 0l0 -2.546875l14.6562195 0l0 2.546875z" fill-rule="nonzero"></path><path fill="#000000" d="m533.2249 231.50061q4.21875 0 4.21875 5.78125q0 3.46875 -1.703125 7.703125q-1.703125 4.234375 -3.890625 6.328125q-2.1875 2.078125 -4.515625 2.078125q-1.890625 0 -3.078125 -1.609375q-1.1875 -1.609375 -1.1875 -4.015625q0 -1.546875 0.671875 -4.265625q0.6875 -2.734375 2.046875 -5.5q1.375 -2.78125 3.421875 -4.640625q2.046875 -1.859375 4.015625 -1.859375zm0.9375 10.296875q1.015625 -3.1875 1.015625 -6.203125q0 -3.453125 -1.953125 -3.453125q-1.703125 0 -3.359375 2.578125q-1.640625 2.578125 -3.03125 7.078125l7.328125 0zm-7.609375 0.859375q-1.390625 4.34375 -1.390625 6.671875q0 1.515625 0.609375 2.484375q0.625 0.953125 1.859375 0.953125q1.015625 0 1.90625 -0.8125q0.890625 -0.8125 2.078125 -3.296875q1.203125 -2.484375 2.265625 -6.0l-7.328125 0z" fill-rule="nonzero"></path><path fill="#000000" fill-opacity="0.0" d="m170.16273 84.2021l239.2126 157.88976" fill-rule="nonzero"></path><path stroke="#000000" stroke-width="4.0" stroke-linejoin="round" stroke-linecap="butt" d="m170.16273 84.2021l219.18233 144.669" fill-rule="evenodd"></path><path fill="#000000" stroke="#000000" stroke-width="4.0" stroke-linecap="butt" d="m385.70554 234.38521l18.789398 4.4854126l-11.510345 -15.513626z" fill-rule="evenodd"></path><path fill="#000000" fill-opacity="0.0" d="m170.16273 399.98163l239.2126 -157.88977" fill-rule="nonzero"></path><path stroke="#000000" stroke-width="4.0" stroke-linejoin="round" stroke-linecap="butt" d="m170.16273 399.98163l219.18233 -144.669" fill-rule="evenodd"></path><path fill="#000000" stroke="#000000" stroke-width="4.0" stroke-linecap="butt" d="m392.9846 260.82672l11.510345 -15.513611l-18.789398 4.4854126z" fill-rule="evenodd"></path><path fill="#000000" fill-opacity="0.0" d="m574.06824 242.09186l204.81891 0.69291687" fill-rule="nonzero"></path><path stroke="#000000" stroke-width="4.0" stroke-linejoin="round" stroke-linecap="butt" d="m574.06824 242.09186l180.81909 0.61172485" fill-rule="evenodd"></path><path fill="#000000" stroke="#000000" stroke-width="4.0" stroke-linecap="butt" d="m754.8649 249.31047l18.174622 -6.545471l-18.129944 -6.6683044z" fill-rule="evenodd"></path><path fill="#000000" fill-opacity="0.0" d="m641.76904 150.22047l69.4173 0l0 115.68504l-69.4173 0z" fill-rule="nonzero"></path><path fill="#000000" d="m660.9878 192.37923q1.0625 1.8125 1.46875 3.390625q0.40625 1.578125 0.8125 6.203125l1.375 15.375q1.875 -2.25 5.4375 -7.125q1.71875 -2.375 4.25 -6.46875q1.53125 -2.5 1.875 -3.5q0.1875 -0.5 0.1875 -1.03125q0 -0.34375 -0.21875 -0.5625q-0.21875 -0.21875 -1.140625 -0.515625q-0.921875 -0.296875 -1.53125 -1.09375q-0.609375 -0.796875 -0.609375 -1.828125q0 -1.28125 0.75 -2.0625q0.75 -0.78125 1.875 -0.78125q1.375 0 2.34375 1.140625q0.96875 1.140625 0.96875 3.140625q0 2.46875 -1.6875 5.640625q-1.6875 3.171875 -6.5 9.734375q-4.8125 6.5625 -11.65625 14.3125q-4.71875 5.34375 -7.0 6.734375q-2.28125 1.390625 -3.90625 1.390625q-0.96875 0 -1.703125 -0.734375q-0.734375 -0.734375 -0.734375 -1.703125q0 -1.21875 1.015625 -2.21875q1.015625 -1.0 2.203125 -1.0q0.625 0 1.03125 0.28125q0.25 0.15625 0.546875 0.890625q0.296875 0.734375 0.546875 0.984375q0.15625 0.15625 0.375 0.15625q0.1875 0 0.65625 -0.3125q1.71875 -1.0625 4.0 -3.375q3.0 -3.0625 4.4375 -5.0l-1.75 -19.8125q-0.4375 -4.90625 -1.3125 -5.96875q-0.875 -1.0625 -2.9375 -1.0625q-0.65625 0 -2.34375 0.1875l-0.28125 -1.15625l9.15625 -2.25z" fill-rule="nonzero"></path><path fill="#000000" fill-opacity="0.0" d="m294.01575 98.50131l83.37009 0l0 61.88977l-83.37009 0z" fill-rule="nonzero"></path><path fill="#000000" d="m329.82825 124.10494l2.15625 23.437508q5.4375 -6.375 8.6875 -11.96875q1.90625 -3.28125 1.90625 -4.75q0 -0.6875 -0.3125 -1.21875q-0.125 -0.28125 -0.984375 -0.828125q-0.859375 -0.546875 -1.203125 -1.1250076q-0.34375 -0.578125 -0.34375 -1.234375q0 -0.96875 0.71875 -1.640625q0.71875 -0.671875 1.84375 -0.671875q1.28125 0 2.171875 0.953125q0.890625 0.953125 0.890625 2.546875q0 1.6250076 -0.46875 3.0312576q-0.9375 2.6875 -3.65625 6.9375q-3.3125 5.09375 -6.828125 9.453125q-3.515625 4.359375 -5.234375 6.109375l-1.15625 0l-2.03125 -21.625l-12.90625 21.625l-1.375 0q-0.21875 -13.34375 -1.34375 -21.0625q-0.46875 -3.21875 -1.5625 -4.2187576q-0.78125 -0.71875 -2.375 -0.71875q-0.90625 0 -2.3125 0.1875l0 -1.125l8.96875 -2.09375q1.875 5.2187576 2.4375 16.031258q0.1875 4.09375 0.3125 5.15625l12.84375 -21.187508l1.15625 0z" fill-rule="nonzero"></path><path fill="#000000" d="m349.45325 133.27682l5.15625 -2.515625l0.515625 0l0 17.890625q0 1.78125 0.140625 2.21875q0.15625 0.4375 0.625 0.671875q0.46875 0.234375 1.90625 0.265625l0 0.578125l-7.96875 0l0 -0.578125q1.5 -0.03125 1.9375 -0.25q0.4375 -0.234375 0.609375 -0.609375q0.171875 -0.390625 0.171875 -2.296875l0 -11.4375q0 -2.3125 -0.15625 -2.96875q-0.109375 -0.5 -0.40625 -0.734375q-0.28125 -0.234375 -0.6875 -0.234375q-0.578125 0 -1.609375 0.484375l-0.234375 -0.484375z" fill-rule="nonzero"></path><path fill="#000000" fill-opacity="0.0" d="m294.01575 321.03674l83.37009 0l0 61.88977l-83.37009 0z" fill-rule="nonzero"></path><path fill="#000000" d="m329.82825 346.64038l2.15625 23.4375q5.4375 -6.375 8.6875 -11.96875q1.90625 -3.28125 1.90625 -4.75q0 -0.6875 -0.3125 -1.21875q-0.125 -0.28125 -0.984375 -0.828125q-0.859375 -0.546875 -1.203125 -1.125q-0.34375 -0.578125 -0.34375 -1.234375q0 -0.96875 0.71875 -1.640625q0.71875 -0.671875 1.84375 -0.671875q1.28125 0 2.171875 0.953125q0.890625 0.953125 0.890625 2.546875q0 1.625 -0.46875 3.03125q-0.9375 2.6875 -3.65625 6.9375q-3.3125 5.09375 -6.828125 9.453125q-3.515625 4.359375 -5.234375 6.109375l-1.15625 0l-2.03125 -21.625l-12.90625 21.625l-1.375 0q-0.21875 -13.34375 -1.34375 -21.0625q-0.46875 -3.21875 -1.5625 -4.21875q-0.78125 -0.71875 -2.375 -0.71875q-0.90625 0 -2.3125 0.1875l0 -1.125l8.96875 -2.09375q1.875 5.21875 2.4375 16.03125q0.1875 4.09375 0.3125 5.15625l12.84375 -21.1875l1.15625 0z" fill-rule="nonzero"></path><path fill="#000000" d="m360.37512 370.8435l-1.484375 4.078125l-12.5 0l0 -0.578125q5.515625 -5.03125 7.765625 -8.21875q2.25 -3.1875 2.25 -5.828125q0 -2.015625 -1.234375 -3.3125q-1.234375 -1.296875 -2.953125 -1.296875q-1.5625 0 -2.8125 0.921875q-1.234375 0.90625 -1.828125 2.671875l-0.578125 0q0.390625 -2.890625 2.0 -4.4375q1.625 -1.546875 4.046875 -1.546875q2.578125 0 4.296875 1.65625q1.734375 1.65625 1.734375 3.90625q0 1.609375 -0.75 3.21875q-1.15625 2.53125 -3.75 5.359375q-3.890625 4.25 -4.859375 5.125l5.53125 0q1.6875 0 2.359375 -0.125q0.6875 -0.125 1.234375 -0.5q0.546875 -0.390625 0.953125 -1.09375l0.578125 0z" fill-rule="nonzero"></path></g></svg>

