<?xml version="1.0" standalone="yes"?>

<svg version="1.1" viewBox="0.0 0.0 951.8923884514436 723.0708661417323" fill="none" stroke="none" stroke-linecap="square" stroke-miterlimit="10" xmlns="http://www.w3.org/2000/svg" xmlns:xlink="http://www.w3.org/1999/xlink"><clipPath id="p.0"><path d="m0 0l951.8924 0l0 723.07086l-951.8924 0l0 -723.07086z" clip-rule="nonzero"></path></clipPath><g clip-path="url(#p.0)"><path fill="#000000" fill-opacity="0.0" d="m0 0l951.8924 0l0 723.07086l-951.8924 0z" fill-rule="nonzero"></path><path fill="#cfe2f3" d="m16.284777 221.49344l0 0c0 -43.60005 36.867767 -78.944885 82.34646 -78.944885l0 0c21.839638 0 42.784782 8.317383 58.227745 23.122421c15.442947 14.805038 24.118713 34.88498 24.118713 55.822464l0 0c0 43.600067 -36.867767 78.944885 -82.34646 78.944885l0 0c-45.47869 0 -82.34646 -35.34482 -82.34646 -78.944885z" fill-rule="nonzero"></path><path stroke="#000000" stroke-width="1.0" stroke-linejoin="round" stroke-linecap="butt" d="m16.284777 221.49344l0 0c0 -43.60005 36.867767 -78.944885 82.34646 -78.944885l0 0c21.839638 0 42.784782 8.317383 58.227745 23.122421c15.442947 14.805038 24.118713 34.88498 24.118713 55.822464l0 0c0 43.600067 -36.867767 78.944885 -82.34646 78.944885l0 0c-45.47869 0 -82.34646 -35.34482 -82.34646 -78.944885z" fill-rule="nonzero"></path><path fill="#000000" d="m85.96717 203.05402q2.296875 2.4375 3.46875 4.875q0.84375 1.6875 2.765625 8.859375l4.125 -6.1875q1.640625 -2.25 3.984375 -4.28125q2.34375 -2.046875 4.125 -2.796875q1.125 -0.46875 2.484375 -0.46875q2.015625 0 3.203125 1.078125q1.203125 1.078125 1.203125 2.625q0 1.78125 -0.703125 2.4375q-1.3125 1.171875 -3.0 1.171875q-0.984375 0 -2.109375 -0.421875q-2.203125 -0.75 -2.953125 -0.75q-1.125 0 -2.671875 1.3125q-2.90625 2.4375 -6.9375 9.421875l3.84375 16.125q0.890625 3.703125 1.5 4.4375q0.609375 0.71875 1.21875 0.71875q0.984375 0 2.296875 -1.078125q2.578125 -2.15625 4.40625 -5.625l1.640625 0.84375q-2.953125 5.53125 -7.5 9.1875q-2.578125 2.0625 -4.359375 2.0625q-2.625 0 -4.171875 -2.953125q-0.984375 -1.828125 -4.078125 -15.75q-7.3125 12.703125 -11.71875 16.359375q-2.859375 2.34375 -5.53125 2.34375q-1.875 0 -3.421875 -1.359375q-1.125 -1.03125 -1.125 -2.765625q0 -1.546875 1.03125 -2.578125q1.03125 -1.03125 2.53125 -1.03125q1.5 0 3.1875 1.5q1.21875 1.078125 1.875 1.078125q0.5625 0 1.453125 -0.75q2.203125 -1.78125 6.0 -7.6875q3.796875 -5.90625 4.96875 -8.53125q-2.90625 -11.390625 -3.140625 -12.046875q-1.078125 -3.046875 -2.8125 -4.3125q-1.734375 -1.265625 -5.109375 -1.265625q-1.078125 0 -2.484375 0.09375l0 -1.6875l12.515625 -2.203125z" fill-rule="nonzero"></path><path fill="#000000" d="m115.68592 226.36652l5.15625 -2.515625l0.515625 0l0 17.890625q0 1.78125 0.140625 2.21875q0.15625 0.4375 0.625 0.671875q0.46875 0.234375 1.90625 0.265625l0 0.578125l-7.96875 0l0 -0.578125q1.5 -0.03125 1.9375 -0.25q0.4375 -0.234375 0.609375 -0.609375q0.171875 -0.390625 0.171875 -2.296875l0 -11.4375q0 -2.3125 -0.15625 -2.96875q-0.109375 -0.5 -0.40625 -0.734375q-0.28125 -0.234375 -0.6875 -0.234375q-0.578125 0 -1.609375 0.484375l-0.234375 -0.484375z" fill-rule="nonzero"></path><path fill="#cfe2f3" d="m16.284777 537.27295l0 0c0 -43.600037 36.867767 -78.944855 82.34646 -78.944855l0 0c21.839638 0 42.784782 8.317383 58.227745 23.122406c15.442947 14.805054 24.118713 34.88501 24.118713 55.82245l0 0c0 43.600098 -36.867767 78.944885 -82.34646 78.944885l0 0c-45.47869 0 -82.34646 -35.344788 -82.34646 -78.944885z" fill-rule="nonzero"></path><path stroke="#000000" stroke-width="1.0" stroke-linejoin="round" stroke-linecap="butt" d="m16.284777 537.27295l0 0c0 -43.600037 36.867767 -78.944855 82.34646 -78.944855l0 0c21.839638 0 42.784782 8.317383 58.227745 23.122406c15.442947 14.805054 24.118713 34.88501 24.118713 55.82245l0 0c0 43.600098 -36.867767 78.944885 -82.34646 78.944885l0 0c-45.47869 0 -82.34646 -35.344788 -82.34646 -78.944885z" fill-rule="nonzero"></path><path fill="#000000" d="m85.96717 518.5111q2.296875 2.4375 3.46875 4.875q0.84375 1.6875 2.765625 8.859375l4.125 -6.1875q1.640625 -2.25 3.984375 -4.28125q2.34375 -2.046875 4.125 -2.796875q1.125 -0.46875 2.484375 -0.46875q2.015625 0 3.203125 1.078125q1.203125 1.078125 1.203125 2.625q0 1.78125 -0.703125 2.4375q-1.3125 1.171875 -3.0 1.171875q-0.984375 0 -2.109375 -0.421875q-2.203125 -0.75 -2.953125 -0.75q-1.125 0 -2.671875 1.3125q-2.90625 2.4375 -6.9375 9.421875l3.84375 16.125q0.890625 3.703125 1.5 4.4375q0.609375 0.71875 1.21875 0.71875q0.984375 0 2.296875 -1.078125q2.578125 -2.15625 4.40625 -5.625l1.640625 0.84375q-2.953125 5.53125 -7.5 9.1875q-2.578125 2.0625 -4.359375 2.0625q-2.625 0 -4.171875 -2.953125q-0.984375 -1.828125 -4.078125 -15.75q-7.3125 12.703125 -11.71875 16.359375q-2.859375 2.34375 -5.53125 2.34375q-1.875 0 -3.421875 -1.359375q-1.125 -1.03125 -1.125 -2.765625q0 -1.546875 1.03125 -2.578125q1.03125 -1.03125 2.53125 -1.03125q1.5 0 3.1875 1.5q1.21875 1.078125 1.875 1.078125q0.5625 0 1.453125 -0.75q2.203125 -1.78125 6.0 -7.6875q3.796875 -5.90625 4.96875 -8.53125q-2.90625 -11.390625 -3.140625 -12.046875q-1.078125 -3.046875 -2.8125 -4.3125q-1.734375 -1.265625 -5.109375 -1.265625q-1.078125 0 -2.484375 0.09375l0 -1.6875l12.515625 -2.203125z" fill-rule="nonzero"></path><path fill="#000000" d="m126.607796 556.85486l-1.484375 4.078125l-12.5 0l0 -0.578125q5.515625 -5.03125 7.765625 -8.21875q2.25 -3.1875 2.25 -5.828125q0 -2.015625 -1.234375 -3.3125q-1.234375 -1.296875 -2.953125 -1.296875q-1.5625 0 -2.8125 0.921875q-1.234375 0.90625 -1.828125 2.671875l-0.578125 0q0.390625 -2.890625 2.0 -4.4375q1.625 -1.546875 4.046875 -1.546875q2.578125 0 4.296875 1.65625q1.734375 1.65625 1.734375 3.90625q0 1.609375 -0.75 3.21875q-1.15625 2.53125 -3.75 5.359375q-3.890625 4.25 -4.859375 5.125l5.53125 0q1.6875 0 2.359375 -0.125q0.6875 -0.125 1.234375 -0.5q0.546875 -0.390625 0.953125 -1.09375l0.578125 0z" fill-rule="nonzero"></path><path fill="#cfe2f3" d="m770.9147 379.3832l0 0c0 -43.600067 36.867798 -78.944885 82.3465 -78.944885l0 0c21.8396 0 42.78479 8.317383 58.227722 23.122406c15.442932 14.805054 24.118713 34.88498 24.118713 55.82248l0 0c0 43.600037 -36.867737 78.944885 -82.346436 78.944885l0 0c-45.4787 0 -82.3465 -35.34485 -82.3465 -78.944885z" fill-rule="nonzero"></path><path stroke="#000000" stroke-width="1.0" stroke-linejoin="round" stroke-linecap="butt" d="m770.9147 379.3832l0 0c0 -43.600067 36.867798 -78.944885 82.3465 -78.944885l0 0c21.8396 0 42.78479 8.317383 58.227722 23.122406c15.442932 14.805054 24.118713 34.88498 24.118713 55.82248l0 0c0 43.600037 -36.867737 78.944885 -82.346436 78.944885l0 0c-45.4787 0 -82.3465 -35.34485 -82.3465 -78.944885z" fill-rule="nonzero"></path><path fill="#000000" d="m847.2846 360.9438q1.59375 2.71875 2.203125 5.09375q0.609375 2.359375 1.21875 9.296875l2.0625 23.0625q2.8125 -3.375 8.15625 -10.6875q2.578125 -3.5625 6.375 -9.703125q2.296875 -3.75 2.8125 -5.25q0.28125 -0.75 0.28125 -1.546875q0 -0.515625 -0.328125 -0.84375q-0.328125 -0.328125 -1.71875 -0.765625q-1.375 -0.453125 -2.296875 -1.640625q-0.90625 -1.203125 -0.90625 -2.75q0 -1.921875 1.125 -3.09375q1.125 -1.171875 2.8125 -1.171875q2.0625 0 3.515625 1.71875q1.453125 1.703125 1.453125 4.703125q0 3.703125 -2.53125 8.46875q-2.53125 4.75 -9.75 14.59375q-7.21875 9.84375 -17.484375 21.46875q-7.078125 8.015625 -10.5 10.09375q-3.421875 2.09375 -5.859375 2.09375q-1.453125 0 -2.546875 -1.109375q-1.109375 -1.09375 -1.109375 -2.546875q0 -1.828125 1.53125 -3.328125q1.515625 -1.5 3.296875 -1.5q0.9375 0 1.546875 0.421875q0.375 0.234375 0.828125 1.328125q0.4375 1.109375 0.8125 1.484375q0.234375 0.234375 0.5625 0.234375q0.28125 0 0.984375 -0.46875q2.578125 -1.59375 6.0 -5.0625q4.5 -4.59375 6.65625 -7.5l-2.625 -29.71875q-0.65625 -7.359375 -1.96875 -8.953125q-1.3125 -1.59375 -4.40625 -1.59375q-0.984375 0 -3.515625 0.28125l-0.421875 -1.734375l13.734375 -3.375z" fill-rule="nonzero"></path><path fill="#cfe2f3" d="m393.59973 221.49344l0 0c0 -43.60005 36.867767 -78.944885 82.346466 -78.944885l0 0c21.83963 0 42.78476 8.317383 58.227753 23.122421c15.442932 14.805038 24.118713 34.88498 24.118713 55.822464l0 0c0 43.600067 -36.867798 78.944885 -82.346466 78.944885l0 0c-45.4787 0 -82.346466 -35.34482 -82.346466 -78.944885z" fill-rule="nonzero"></path><path stroke="#000000" stroke-width="1.0" stroke-linejoin="round" stroke-linecap="butt" d="m393.59973 221.49344l0 0c0 -43.60005 36.867767 -78.944885 82.346466 -78.944885l0 0c21.83963 0 42.78476 8.317383 58.227753 23.122421c15.442932 14.805038 24.118713 34.88498 24.118713 55.822464l0 0c0 43.600067 -36.867798 78.944885 -82.346466 78.944885l0 0c-45.4787 0 -82.346466 -35.34482 -82.346466 -78.944885z" fill-rule="nonzero"></path><path fill="#000000" d="m444.60245 246.92902l5.25 -23.578125l1.59375 0q-0.328125 3.421875 -0.328125 5.671875q0 6.421875 4.09375 10.453125q4.109375 4.03125 10.71875 4.03125q6.140625 0 9.328125 -3.765625q3.1875 -3.78125 3.1875 -8.703125q0 -3.1875 -1.453125 -5.8125q-2.203125 -3.890625 -11.765625 -13.6875q-4.640625 -4.6875 -5.953125 -6.984375q-2.15625 -3.796875 -2.15625 -7.96875q0 -6.65625 4.96875 -11.390625q4.96875 -4.734375 12.75 -4.734375q2.625 0 4.96875 0.515625q1.453125 0.28125 5.296875 1.875q2.71875 1.078125 3.0 1.171875q0.65625 0.140625 1.453125 0.140625q1.359375 0 2.34375 -0.703125q0.984375 -0.703125 2.296875 -3.0l1.78125 0l-4.875 21.09375l-1.59375 0q0.1875 -2.8125 0.1875 -4.546875q0 -5.671875 -3.75 -9.28125q-3.75 -3.609375 -9.890625 -3.609375q-4.875 0 -7.921875 2.859375q-3.046875 2.859375 -3.046875 6.609375q0 3.28125 1.9375 6.265625q1.953125 2.96875 8.953125 9.703125q7.015625 6.71875 9.078125 10.5q2.0625 3.765625 2.0625 8.03125q0 4.828125 -2.5625 9.359375q-2.546875 4.515625 -7.328125 7.0q-4.78125 2.484375 -10.453125 2.484375q-2.8125 0 -5.25 -0.515625q-2.4375 -0.515625 -7.78125 -2.53125q-1.828125 -0.703125 -3.046875 -0.703125q-2.765625 0 -4.3125 3.75l-1.78125 0z" fill-rule="nonzero"></path><path fill="#000000" d="m495.6962 226.36652l5.15625 -2.515625l0.515625 0l0 17.890625q0 1.78125 0.140625 2.21875q0.15625 0.4375 0.625 0.671875q0.46875 0.234375 1.90625 0.265625l0 0.578125l-7.96875 0l0 -0.578125q1.5 -0.03125 1.9375 -0.25q0.4375 -0.234375 0.609375 -0.609375q0.171875 -0.390625 0.171875 -2.296875l0 -11.4375q0 -2.3125 -0.15625 -2.96875q-0.109375 -0.5 -0.40625 -0.734375q-0.28125 -0.234375 -0.6875 -0.234375q-0.578125 0 -1.609375 0.484375l-0.234375 -0.484375z" fill-rule="nonzero"></path><path fill="#cfe2f3" d="m405.7874 537.27295l0 0c0 -43.600037 36.867737 -78.944855 82.346436 -78.944855l0 0c21.83966 0 42.78479 8.317383 58.227722 23.122406c15.442993 14.805054 24.118713 34.88501 24.118713 55.82245l0 0c0 43.600098 -36.867737 78.944885 -82.346436 78.944885l0 0c-45.4787 0 -82.346436 -35.344788 -82.346436 -78.944885z" fill-rule="nonzero"></path><path stroke="#000000" stroke-width="1.0" stroke-linejoin="round" stroke-linecap="butt" d="m405.7874 537.27295l0 0c0 -43.600037 36.867737 -78.944855 82.346436 -78.944855l0 0c21.83966 0 42.78479 8.317383 58.227722 23.122406c15.442993 14.805054 24.118713 34.88501 24.118713 55.82245l0 0c0 43.600098 -36.867737 78.944885 -82.346436 78.944885l0 0c-45.4787 0 -82.346436 -35.344788 -82.346436 -78.944885z" fill-rule="nonzero"></path><path fill="#000000" d="m456.7901 562.70856l5.25 -23.578125l1.59375 0q-0.328125 3.421875 -0.328125 5.671875q0 6.421875 4.09375 10.453125q4.109375 4.03125 10.71875 4.03125q6.140625 0 9.328125 -3.765625q3.1875 -3.78125 3.1875 -8.703125q0 -3.1875 -1.453125 -5.8125q-2.203125 -3.890625 -11.765625 -13.6875q-4.640625 -4.6875 -5.953125 -6.984375q-2.15625 -3.796875 -2.15625 -7.96875q0 -6.65625 4.96875 -11.390625q4.96875 -4.734375 12.75 -4.734375q2.625 0 4.96875 0.515625q1.453125 0.28125 5.296875 1.875q2.71875 1.078125 3.0 1.171875q0.65625 0.140625 1.453125 0.140625q1.359375 0 2.34375 -0.703125q0.984375 -0.703125 2.296875 -3.0l1.78125 0l-4.875 21.09375l-1.59375 0q0.1875 -2.8125 0.1875 -4.546875q0 -5.671875 -3.75 -9.28125q-3.75 -3.609375 -9.890625 -3.609375q-4.875 0 -7.921875 2.859375q-3.046875 2.859375 -3.046875 6.609375q0 3.28125 1.9375 6.265625q1.953125 2.96875 8.953125 9.703125q7.015625 6.71875 9.078125 10.5q2.0625 3.765625 2.0625 8.03125q0 4.828125 -2.5625 9.359375q-2.546875 4.515625 -7.328125 7.0q-4.78125 2.484375 -10.453125 2.484375q-2.8125 0 -5.25 -0.515625q-2.4375 -0.515625 -7.78125 -2.53125q-1.828125 -0.703125 -3.046875 -0.703125q-2.765625 0 -4.3125 3.75l-1.78125 0z" fill-rule="nonzero"></path><path fill="#000000" d="m507.88385 542.14606l5.15625 -2.515625l0.515625 0l0 17.890625q0 1.78125 0.140625 2.21875q0.15625 0.4375 0.625 0.671875q0.46875 0.234375 1.90625 0.265625l0 0.578125l-7.96875 0l0 -0.578125q1.5 -0.03125 1.9375 -0.25q0.4375 -0.234375 0.609375 -0.609375q0.171875 -0.390625 0.171875 -2.296875l0 -11.4375q0 -2.3125 -0.15625 -2.96875q-0.109375 -0.5 -0.40625 -0.734375q-0.28125 -0.234375 -0.6875 -0.234375q-0.578125 0 -1.609375 0.484375l-0.234375 -0.484375z" fill-rule="nonzero"></path><path fill="#000000" fill-opacity="0.0" d="m180.97769 221.49344l212.62991 0" fill-rule="nonzero"></path><path stroke="#000000" stroke-width="3.0" stroke-linejoin="round" stroke-linecap="butt" d="m180.97769 221.49344l194.62991 0" fill-rule="evenodd"></path><path fill="#000000" stroke="#000000" stroke-width="3.0" stroke-linecap="butt" d="m375.6076 226.44864l13.614288 -4.9552l-13.614288 -4.9552z" fill-rule="evenodd"></path><path fill="#000000" fill-opacity="0.0" d="m180.97769 537.27295l224.81891 0" fill-rule="nonzero"></path><path stroke="#000000" stroke-width="3.0" stroke-linejoin="round" stroke-linecap="butt" d="m180.97769 537.27295l206.81891 0" fill-rule="evenodd"></path><path fill="#000000" stroke="#000000" stroke-width="3.0" stroke-linecap="butt" d="m387.7966 542.22815l13.614288 -4.9552l-13.614288 -4.9552z" fill-rule="evenodd"></path><path fill="#000000" fill-opacity="0.0" d="m180.97769 537.27295l212.62991 -315.7795" fill-rule="nonzero"></path><path stroke="#000000" stroke-width="3.0" stroke-linejoin="round" stroke-linecap="butt" d="m180.97769 537.27295l202.57635 -300.84882" fill-rule="evenodd"></path><path fill="#000000" stroke="#000000" stroke-width="3.0" stroke-linecap="butt" d="m387.66428 239.19177l3.4937744 -14.060471l-11.714264 8.525192z" fill-rule="evenodd"></path><path fill="#000000" fill-opacity="0.0" d="m180.97769 221.49344l224.81891 315.7795" fill-rule="nonzero"></path><path stroke="#000000" stroke-width="3.0" stroke-linejoin="round" stroke-linecap="butt" d="m180.97769 221.49344l214.3793 301.11612" fill-rule="evenodd"></path><path fill="#000000" stroke="#000000" stroke-width="3.0" stroke-linecap="butt" d="m391.32034 525.48346l11.932648 8.216736l-3.859314 -13.964539z" fill-rule="evenodd"></path><path fill="#000000" fill-opacity="0.0" d="m558.29266 221.49344l212.62988 157.88977" fill-rule="nonzero"></path><path stroke="#000000" stroke-width="3.0" stroke-linejoin="round" stroke-linecap="butt" d="m558.29266 221.49344l198.17847 147.15872" fill-rule="evenodd"></path><path fill="#000000" stroke="#000000" stroke-width="3.0" stroke-linecap="butt" d="m753.51697 372.6305l13.8845215 4.138092l-7.9762573 -12.094757z" fill-rule="evenodd"></path><path fill="#000000" fill-opacity="0.0" d="m570.4803 537.27295l200.44098 -157.88974" fill-rule="nonzero"></path><path stroke="#000000" stroke-width="3.0" stroke-linejoin="round" stroke-linecap="butt" d="m570.4803 537.27295l186.30096 -146.7515" fill-rule="evenodd"></path><path fill="#000000" stroke="#000000" stroke-width="3.0" stroke-linecap="butt" d="m759.8475 394.41403l7.628601 -12.316986l-13.761047 4.53183z" fill-rule="evenodd"></path><path fill="#000000" fill-opacity="0.0" d="m36.61155 34.779526l122.64567 0l0 71.40157l-122.64567 0z" fill-rule="nonzero"></path><path fill="#000000" d="m49.36155 82.17953q8.28125 -1.875 13.59375 -7.03125l-7.96875 0l-0.3125 1.09375l-3.125 -0.625q1.25 -4.375 1.09375 -8.59375l12.03125 0l0 -2.8125l-12.8125 0l0 -2.5000038l26.5625 0l0 7.812504l-10.625 0l0 3.125l13.90625 0l-1.09375 7.34375q-0.46875 3.28125 -3.28125 3.28125l-3.90625 0l-0.3125 -2.96875l3.125 0q1.09375 0 1.25 -1.09375l0.625 -4.0625l-10.3125 0l0 10.625l-3.125 0l0 -8.4375q-5.46875 5.9375 -13.90625 7.96875l-1.40625 -3.125zm14.53125 -23.125004q3.28125 -3.90625 4.53125 -9.375l3.125 0.9375q0.625 0.625 -0.46875 0.78125l-0.625 2.03125l12.1875 0l0 2.96875l-7.03125 0l1.71875 2.96875l-3.59375 0.9375l-1.40625 -3.90625l-2.96875 0q-1.09375 2.34375 -2.96875 4.375l-2.5 -1.71875zm-8.59375 -5.625l9.53125 0l0 2.96875l-4.84375 0l1.5625 3.125l-3.28125 0.78125l-1.25 -3.90625l-3.125 0q-1.875 3.125 -4.0625 5.0l-2.1875 -2.34375q3.90625 -3.59375 5.9375 -9.21875l2.96875 1.09375q0.625 0.625 -0.46875 0.78125l-0.78125 1.71875zm12.5 13.593754l7.5 0l0 -2.8125l-7.5 0l0 2.8125zm-12.03125 2.5q-0.15625 1.5625 -0.3125 3.125l9.21875 0l0 -3.125l-8.90625 0z" fill-rule="nonzero"></path><path fill="#000000" d="m87.2678 68.05453q0 -5.078129 1.046875 -8.171879q1.046875 -3.09375 3.109375 -4.765625q2.0625 -1.6875 5.1875 -1.6875q2.296875 0 4.03125 0.9375q1.75 0.921875 2.875 2.671875q1.140625 1.734375 1.78125 4.25q0.640625 2.515625 0.640625 6.765629q0 5.046875 -1.03125 8.140625q-1.03125 3.09375 -3.09375 4.78125q-2.0625 1.6875 -5.203125 1.6875q-4.140625 0 -6.5 -2.96875q-2.84375 -3.578125 -2.84375 -11.640625zm3.625 0q0 7.046875 1.640625 9.390625q1.65625 2.328125 4.078125 2.328125q2.421875 0 4.0625 -2.34375q1.65625 -2.34375 1.65625 -9.375q0 -7.062504 -1.65625 -9.390629q-1.640625 -2.328125 -4.109375 -2.328125q-2.421875 0 -3.859375 2.046875q-1.8125 2.625 -1.8125 9.671879z" fill-rule="nonzero"></path><path fill="#000000" d="m126.13889 58.429523l1.8749924 3.28125l6.25 0l1.25 -3.4375l-19.062492 0l0 14.218754q0 7.1875 -3.59375 13.125l-2.65625 -2.34375q3.125 -4.84375 3.125 -11.71875l0 -20.781254l29.687492 0l0 7.5l-6.40625 0l2.03125 0.9375q0.625 0.625 -0.46875 0.78125l-0.9375 1.71875l6.5625 0l0 10.156254l-24.999992 0l0 -10.156254l5.9375 0l-1.40625 -1.875l2.8125 -1.40625zm14.531242 11.562504l0 -2.34375l-7.8125 0l0 2.34375l7.8125 0zm-18.749992 0l7.8124924 0l0 -2.34375l-7.8124924 0l0 2.34375zm3.125 15.78125l-3.125 0l0 -12.03125l19.218742 0l0 11.5625l-3.125 0l0 -1.40625l-12.968742 0l0 1.875zm12.968742 -3.75l0 -2.34375l-12.968742 0l0 2.34375l12.968742 0zm-21.562492 -26.250004l23.437492 0l0 -2.5l-23.437492 0l0 2.5zm5.46875 10.000004l7.8124924 0l0 -2.1875038l-7.8124924 0l0 2.1875038zm10.937492 0l7.8125 0l0 -2.1875038l-7.8125 0l0 2.1875038zm-7.8124924 12.03125l12.968742 0l0 -2.1875l-12.968742 0l0 2.1875z" fill-rule="nonzero"></path><path fill="#000000" fill-opacity="0.0" d="m414.62466 -19.944881l122.64566 0l0 180.8504l-122.64566 0z" fill-rule="nonzero"></path><path fill="#000000" d="m427.37466 84.88031q8.28125 -1.875 13.59375 -7.03125l-7.96875 0l-0.3125 1.09375l-3.125 -0.625q1.25 -4.375 1.09375 -8.59375l12.03125 0l0 -2.8125l-12.8125 0l0 -2.5l26.5625 0l0 7.8125l-10.625 0l0 3.125l13.90625 0l-1.09375 7.34375q-0.46875 3.28125 -3.28125 3.28125l-3.90625 0l-0.3125 -2.96875l3.125 0q1.09375 0 1.25 -1.09375l0.625 -4.0625l-10.3125 0l0 10.625l-3.125 0l0 -8.4375q-5.46875 5.9375 -13.90625 7.96875l-1.40625 -3.125zm14.53125 -23.124996q3.28125 -3.90625 4.53125 -9.375l3.125 0.9375q0.625 0.625 -0.46875 0.78125l-0.625 2.03125l12.1875 0l0 2.96875l-7.03125 0l1.71875 2.96875l-3.59375 0.9375l-1.40625 -3.90625l-2.96875 0q-1.09375 2.34375 -2.96875 4.375l-2.5 -1.71875zm-8.59375 -5.625l9.53125 0l0 2.96875l-4.84375 0l1.5625 3.125l-3.28125 0.78125l-1.25 -3.90625l-3.125 0q-1.875 3.125 -4.0625 4.999996l-2.1875 -2.3437462q3.90625 -3.59375 5.9375 -9.21875l2.96875 1.09375q0.625 0.625 -0.46875 0.78125l-0.78125 1.71875zm12.5 13.593746l7.5 0l0 -2.8125l-7.5 0l0 2.8125zm-12.03125 2.5q-0.15625 1.5625 -0.3125 3.125l9.21875 0l0 -3.125l-8.90625 0z" fill-rule="nonzero"></path><path fill="#000000" d="m478.5309 84.88031l-3.515625 0l0 -22.406246q-1.265625 1.21875 -3.328125 2.4374962q-2.0625 1.203125 -3.703125 1.796875l0 -3.3906212q2.953125 -1.390625 5.15625 -3.359375q2.203125 -1.96875 3.125 -3.828125l2.265625 0l0 28.749996z" fill-rule="nonzero"></path><path fill="#000000" d="m504.152 61.130314l1.875 3.2812462l6.2500305 0l1.25 -3.4374962l-19.06253 0l0 14.218746q0 7.1875 -3.59375 13.125l-2.65625 -2.34375q3.125 -4.84375 3.125 -11.71875l0 -20.781246l29.68753 0l0 7.5l-6.40625 0l2.03125 0.9375q0.625 0.625 -0.46875 0.78125l-0.9375 1.7187462l6.5625 0l0 10.15625l-25.00003 0l0 -10.15625l5.9375 0l-1.40625 -1.8749962l2.8125 -1.40625zm14.5312805 11.562496l0 -2.34375l-7.8125305 0l0 2.34375l7.8125305 0zm-18.75003 0l7.8125 0l0 -2.34375l-7.8125 0l0 2.34375zm3.125 15.78125l-3.125 0l0 -12.03125l19.21878 0l0 11.5625l-3.125 0l0 -1.40625l-12.9687805 0l0 1.875zm12.9687805 -3.75l0 -2.34375l-12.9687805 0l0 2.34375l12.9687805 0zm-21.56253 -26.249996l23.43753 0l0 -2.5l-23.43753 0l0 2.5zm5.46875 9.999996l7.8125 0l0 -2.1875l-7.8125 0l0 2.1875zm10.9375 0l7.8125305 0l0 -2.1875l-7.8125305 0l0 2.1875zm-7.8125 12.03125l12.9687805 0l0 -2.1875l-12.9687805 0l0 2.1875z" fill-rule="nonzero"></path><path fill="#000000" fill-opacity="0.0" d="m792.6378 24.716536l122.64563 0l0 91.52756l-122.64563 0z" fill-rule="nonzero"></path><path fill="#000000" d="m805.3878 84.88031q8.28125 -1.875 13.59375 -7.03125l-7.96875 0l-0.3125 1.09375l-3.125 -0.625q1.25 -4.375 1.09375 -8.59375l12.03125 0l0 -2.8125l-12.8125 0l0 -2.5l26.5625 0l0 7.8125l-10.625 0l0 3.125l13.90625 0l-1.09375 7.34375q-0.46875 3.28125 -3.28125 3.28125l-3.90625 0l-0.3125 -2.96875l3.125 0q1.09375 0 1.25 -1.09375l0.625 -4.0625l-10.3125 0l0 10.625l-3.125 0l0 -8.4375q-5.46875 5.9375 -13.90625 7.96875l-1.40625 -3.125zm14.53125 -23.125q3.28125 -3.90625 4.53125 -9.375l3.125 0.9375q0.625 0.625 -0.46875 0.78125l-0.625 2.03125l12.1875 0l0 2.96875l-7.03125 0l1.71875 2.96875l-3.59375 0.9375l-1.40625 -3.90625l-2.96875 0q-1.09375 2.34375 -2.96875 4.375l-2.5 -1.71875zm-8.59375 -5.625l9.53125 0l0 2.96875l-4.84375 0l1.5625 3.125l-3.28125 0.78125l-1.25 -3.90625l-3.125 0q-1.875 3.125 -4.0625 5.0l-2.1875 -2.34375q3.90625 -3.59375 5.9375 -9.21875l2.96875 1.09375q0.625 0.625 -0.46875 0.78125l-0.78125 1.71875zm12.5 13.59375l7.5 0l0 -2.8125l-7.5 0l0 2.8125zm-12.03125 2.5q-0.15625 1.5625 -0.3125 3.125l9.21875 0l0 -3.125l-8.90625 0z" fill-rule="nonzero"></path><path fill="#000000" d="m861.77844 81.50531l0 3.375l-18.921875 0q-0.046875 -1.265625 0.40625 -2.4375q0.71875 -1.9375 2.3125 -3.8125q1.59375 -1.875 4.59375 -4.34375q4.671875 -3.828125 6.3125 -6.0625q1.640625 -2.234375 1.640625 -4.21875q0 -2.09375 -1.5 -3.53125q-1.484375 -1.4375 -3.890625 -1.4375q-2.53125 0 -4.0625 1.53125q-1.515625 1.515625 -1.546875 4.21875l-3.609375 -0.375q0.375 -4.046875 2.796875 -6.15625q2.421875 -2.125 6.5 -2.125q4.125 0 6.515625 2.28125q2.40625 2.28125 2.40625 5.671875q0 1.71875 -0.703125 3.375q-0.703125 1.65625 -2.328125 3.5q-1.625 1.828125 -5.421875 5.03125q-3.15625 2.65625 -4.0625 3.609375q-0.890625 0.9375 -1.484375 1.90625l14.046875 0z" fill-rule="nonzero"></path><path fill="#000000" d="m882.16516 61.13031l1.875 3.28125l6.25 0l1.25 -3.4375l-19.0625 0l0 14.21875q0 7.1875 -3.59375 13.125l-2.65625 -2.34375q3.125 -4.84375 3.125 -11.71875l0 -20.78125l29.6875 0l0 7.5l-6.40625 0l2.03125 0.9375q0.625 0.625 -0.46875 0.78125l-0.9375 1.71875l6.5625 0l0 10.15625l-25.0 0l0 -10.15625l5.9375 0l-1.40625 -1.875l2.8125 -1.40625zm14.53125 11.5625l0 -2.34375l-7.8125 0l0 2.34375l7.8125 0zm-18.75 0l7.8125 0l0 -2.34375l-7.8125 0l0 2.34375zm3.125 15.78125l-3.125 0l0 -12.03125l19.21875 0l0 11.5625l-3.125 0l0 -1.40625l-12.96875 0l0 1.875zm12.96875 -3.75l0 -2.34375l-12.96875 0l0 2.34375l12.96875 0zm-21.5625 -26.25l23.4375 0l0 -2.5l-23.4375 0l0 2.5zm5.46875 10.0l7.8125 0l0 -2.1875l-7.8125 0l0 2.1875zm10.9375 0l7.8125 0l0 -2.1875l-7.8125 0l0 2.1875zm-7.8125 12.03125l12.96875 0l0 -2.1875l-12.96875 0l0 2.1875z" fill-rule="nonzero"></path></g></svg>

