<?xml version="1.0" standalone="yes"?>

<svg version="1.1" viewBox="0.0 0.0 973.8215223097113 518.9527559055118" fill="none" stroke="none" stroke-linecap="square" stroke-miterlimit="10" xmlns="http://www.w3.org/2000/svg" xmlns:xlink="http://www.w3.org/1999/xlink"><clipPath id="p.0"><path d="m0 0l973.82153 0l0 518.95276l-973.82153 0l0 -518.95276z" clip-rule="nonzero"></path></clipPath><g clip-path="url(#p.0)"><path fill="#000000" fill-opacity="0.0" d="m0 0l973.82153 0l0 518.95276l-973.82153 0z" fill-rule="nonzero"></path><path fill="#cfe2f3" d="m358.74014 274.13647l0 0c0 -22.323318 18.09665 -40.419937 40.419952 -40.419937l161.67981 0l0 0c10.720032 0 21.000977 4.2585144 28.581238 11.83873c7.5802 7.5802 11.838684 17.861176 11.838684 28.581207l0 171.72705c0 22.323303 -18.096619 40.419952 -40.41992 40.419952l-161.67981 0c-22.323303 0 -40.419952 -18.09665 -40.419952 -40.419952z" fill-rule="nonzero"></path><path stroke="#000000" stroke-width="1.0" stroke-linejoin="round" stroke-linecap="butt" d="m358.74014 274.13647l0 0c0 -22.323318 18.09665 -40.419937 40.419952 -40.419937l161.67981 0l0 0c10.720032 0 21.000977 4.2585144 28.581238 11.83873c7.5802 7.5802 11.838684 17.861176 11.838684 28.581207l0 171.72705c0 22.323303 -18.096619 40.419952 -40.41992 40.419952l-161.67981 0c-22.323303 0 -40.419952 -18.09665 -40.419952 -40.419952z" fill-rule="nonzero"></path><path fill="#000000" d="m473.90625 383.3175q-0.0625 -2.25 -0.0625 -3.375q0 -6.625 1.875 -11.4375q1.375 -3.625 4.4375 -7.3125q2.25 -2.6875 8.09375 -7.84375q5.84375 -5.15625 7.59375 -8.21875q1.75 -3.0625 1.75 -6.6875q0 -6.5625 -5.125 -11.53125q-5.125 -4.96875 -12.5625 -4.96875q-7.1875 0 -12.0 4.5q-4.8125 4.5 -6.3125 14.0625l-11.5625 -1.375q1.5625 -12.8125 9.28125 -19.625q7.71875 -6.8125 20.40625 -6.8125q13.4375 0 21.4375 7.3125q8.0 7.3125 8.0 17.6875q0 6.0 -2.8125 11.0625q-2.8125 5.0625 -11.0 12.3125q-5.5 4.875 -7.1875 7.1875q-1.6875 2.3125 -2.5 5.3125q-0.8125 3.0 -0.9375 9.75l-10.8125 0zm-0.6875 22.5625l0 -12.8125l12.8125 0l0 12.8125l-12.8125 0z" fill-rule="nonzero"></path><path fill="#000000" fill-opacity="0.0" d="m52.7769 273.9239l263.87402 1.2598267" fill-rule="nonzero"></path><path stroke="#000000" stroke-width="8.0" stroke-linejoin="round" stroke-linecap="butt" d="m52.7769 273.9239l215.87456 1.0306702" fill-rule="evenodd"></path><path fill="#000000" stroke="#000000" stroke-width="8.0" stroke-linecap="butt" d="m268.58838 288.16827l36.367462 -13.040375l-36.241272 -13.387054z" fill-rule="evenodd"></path><path fill="#000000" fill-opacity="0.0" d="m52.7769 423.1181l263.87402 1.2598572" fill-rule="nonzero"></path><path stroke="#000000" stroke-width="8.0" stroke-linejoin="round" stroke-linecap="butt" d="m52.7769 423.1181l215.87456 1.0306702" fill-rule="evenodd"></path><path fill="#000000" stroke="#000000" stroke-width="8.0" stroke-linecap="butt" d="m268.58838 437.3625l36.367462 -13.040375l-36.241272 -13.387024z" fill-rule="evenodd"></path><path fill="#cfe2f3" d="m149.52756 308.48294l0 0c0 -3.8181458 3.09523 -6.913391 6.913391 -6.913391l0 0c1.8335419 0 3.59198 0.72836304 4.888504 2.0249023c1.2965088 1.2965088 2.0248718 3.0549316 2.0248718 4.888489l0 0c0 3.8181458 -3.0952148 6.913391 -6.913376 6.913391l0 0c-3.818161 0 -6.913391 -3.0952454 -6.913391 -6.913391z" fill-rule="nonzero"></path><path stroke="#000000" stroke-width="1.0" stroke-linejoin="round" stroke-linecap="butt" d="m149.52756 308.48294l0 0c0 -3.8181458 3.09523 -6.913391 6.913391 -6.913391l0 0c1.8335419 0 3.59198 0.72836304 4.888504 2.0249023c1.2965088 1.2965088 2.0248718 3.0549316 2.0248718 4.888489l0 0c0 3.8181458 -3.0952148 6.913391 -6.913376 6.913391l0 0c-3.818161 0 -6.913391 -3.0952454 -6.913391 -6.913391z" fill-rule="nonzero"></path><path fill="#cfe2f3" d="m149.52756 347.72833l0 0c0 -3.8181458 3.09523 -6.9133606 6.913391 -6.9133606l0 0c1.8335419 0 3.59198 0.72836304 4.888504 2.0248718c1.2965088 1.2965088 2.0248718 3.0549622 2.0248718 4.888489l0 0c0 3.8181763 -3.0952148 6.913391 -6.913376 6.913391l0 0c-3.818161 0 -6.913391 -3.0952148 -6.913391 -6.913391z" fill-rule="nonzero"></path><path stroke="#000000" stroke-width="1.0" stroke-linejoin="round" stroke-linecap="butt" d="m149.52756 347.72833l0 0c0 -3.8181458 3.09523 -6.9133606 6.913391 -6.9133606l0 0c1.8335419 0 3.59198 0.72836304 4.888504 2.0248718c1.2965088 1.2965088 2.0248718 3.0549622 2.0248718 4.888489l0 0c0 3.8181763 -3.0952148 6.913391 -6.913376 6.913391l0 0c-3.818161 0 -6.913391 -3.0952148 -6.913391 -6.913391z" fill-rule="nonzero"></path><path fill="#cfe2f3" d="m149.52756 386.97375l0 0c0 -3.8181458 3.09523 -6.913391 6.913391 -6.913391l0 0c1.8335419 0 3.59198 0.72836304 4.888504 2.0249023c1.2965088 1.2965088 2.0248718 3.0549316 2.0248718 4.888489l0 0c0 3.8181458 -3.0952148 6.913391 -6.913376 6.913391l0 0c-3.818161 0 -6.913391 -3.0952454 -6.913391 -6.913391z" fill-rule="nonzero"></path><path stroke="#000000" stroke-width="1.0" stroke-linejoin="round" stroke-linecap="butt" d="m149.52756 386.97375l0 0c0 -3.8181458 3.09523 -6.913391 6.913391 -6.913391l0 0c1.8335419 0 3.59198 0.72836304 4.888504 2.0249023c1.2965088 1.2965088 2.0248718 3.0549316 2.0248718 4.888489l0 0c0 3.8181458 -3.0952148 6.913391 -6.913376 6.913391l0 0c-3.818161 0 -6.913391 -3.0952454 -6.913391 -6.913391z" fill-rule="nonzero"></path><path fill="#000000" fill-opacity="0.0" d="m81.66929 153.29659l149.5433 0l0 100.8504l-149.5433 0z" fill-rule="nonzero"></path><path fill="#000000" d="m147.1693 226.98659q-19.250008 -10.0 -24.250008 -31.5q-5.25 24.25 -25.25 33.0l-3.0 -5.75q21.75 -9.0 23.5 -34.75l3.25 0.25l0 -8.0l-13.0 0l0 -4.75l18.75 0l0 9.0q0 24.0 23.500008 36.25l-3.5 6.25zm14.25 -5.0q19.75 -6.75 21.0 -30.25l-18.0 0l0 -5.5l18.25 0l0 -12.75l5.5 0q2.5 0.5 0.25 2.0l0 10.75l22.0 0q-0.5 20.0 -1.0 30.0q-0.5 10.0 -7.5 10.0l-10.0 0l-1.0 -5.5l8.5 0q4.0 0 4.25 -4.0q0.5 -7.25 1.0 -25.0l-16.5 0q0 27.0 -24.0 36.25l-2.75 -6.0z" fill-rule="nonzero"></path><path fill="#000000" fill-opacity="0.0" d="m656.8399 359.3701l263.87402 1.2598267" fill-rule="nonzero"></path><path stroke="#000000" stroke-width="8.0" stroke-linejoin="round" stroke-linecap="butt" d="m656.8399 359.3701l215.87457 1.0306702" fill-rule="evenodd"></path><path fill="#000000" stroke="#000000" stroke-width="8.0" stroke-linecap="butt" d="m872.65137 373.61447l36.36743 -13.040375l-36.241272 -13.387054z" fill-rule="evenodd"></path><path fill="#000000" fill-opacity="0.0" d="m701.1522 233.71654l149.54333 0l0 91.71654l-149.54333 0z" fill-rule="nonzero"></path><path fill="#000000" d="m724.4022 258.90652q2.0 0.25 0.25 1.5l0 13.5l14.75 0l0 -19.999985l4.75 0q2.0 0.25 0.25 1.5l0 18.499985l14.5 0l0 -14.75l4.75 0q2.0 0.25 0.25 1.5l0 20.25l-5.0 0l0 -2.25l-14.5 0l0 21.5l16.5 0l0 -15.25l4.75 0q2.0 0.25 0.25 1.5l0 21.25l-5.0 0l0 -2.75l-38.75 0l0 3.5l-5.0 0l0 -23.75l4.75 0q2.0 0.25 0.25 1.5l0 14.0l17.25 0l0 -21.5l-14.75 0l0 2.75l-5.0 0l0 -22.5l4.75 0zm56.5 43.5q19.75 -6.75 21.0 -30.25l-18.0 0l0 -5.5l18.25 0l0 -12.749985l5.5 0q2.5 0.5 0.25 2.0l0 10.749985l22.0 0q-0.5 20.0 -1.0 30.0q-0.5 10.0 -7.5 10.0l-10.0 0l-1.0 -5.5l8.5 0q4.0 0 4.25 -4.0q0.5 -7.25 1.0 -25.0l-16.5 0q0 27.0 -24.0 36.25l-2.75 -6.0z" fill-rule="nonzero"></path><path fill="#000000" fill-opacity="0.0" d="m188.48819 13.010499l583.0237 0l0 129.41733l-583.0237 0z" fill-rule="nonzero"></path><path fill="#000000" d="m263.7382 51.622993q-3.75 0 -6.25 -2.5q-2.5 -2.5 -2.5 -6.25q0 -3.75 2.5 -6.25q2.5 -2.5 6.25 -2.5q3.75 0 6.25 2.5q2.5 2.5 2.5 6.25q0 3.75 -2.5 6.25q-2.5 2.5 -6.25 2.5zm0 -3.125q2.5 0 4.0625 -1.5625q1.5625 -1.5625 1.5625 -4.0625q0 -2.5 -1.5625 -4.0625q-1.5625 -1.5625 -4.0625 -1.5625q-2.5 0 -4.0625 1.5625q-1.5625 1.5625 -1.5625 4.0625q0 2.5 1.5625 4.0625q1.5625 1.5625 4.0625 1.5625zm-12.5 1.5625q15.625 19.6875 22.1875 41.5625l-8.4375 2.8125q-7.8125 -24.6875 -20.3125 -39.375l6.5625 -5.0zm-23.75 7.1875q2.5 1.5625 -0.625 2.8125q-5.625 19.6875 -18.125 35.9375l-7.1875 -4.6875q13.75 -16.5625 18.4375 -37.5l7.5 3.4375zm53.75 15.9375l0 -6.875l69.6875 0l0 6.875l-69.6875 0zm140.3125 -12.8125q-9.375 13.75 -15.9375 22.5l-5.9375 -4.0625q6.875 -8.4375 12.8125 -17.5l-25.9375 4.6875l0 23.125q0 4.375 4.375 4.375l28.75 0l-0.9375 6.875l-29.6875 0q-9.6875 0 -9.6875 -10.0l0 -23.125l-18.75 3.75l-2.5 -7.1875l21.25 -3.75l0 -20.625l6.5625 0q2.8125 0.625 0.625 2.5l0 17.1875l28.125 -4.6875l2.5 -1.5625l5.625 5.625q1.25 1.5625 -1.25 1.875zm65.9375 -15.3125q2.5 0 4.0625 -1.5625q1.5625 -1.5625 1.5625 -4.0625q0 -2.5 -1.5625 -4.0625q-1.5625 -1.5625 -4.0625 -1.5625q-2.5 0 -4.0625 1.5625q-1.5625 1.5625 -1.5625 4.0625q0 2.5 1.5625 4.0625q1.5625 1.5625 4.0625 1.5625zm0 3.125q-3.75 0 -6.25 -2.5q-2.5 -2.5 -2.5 -6.25q0 -3.75 2.5 -6.25q2.5 -2.5 6.25 -2.5q3.75 0 6.25 2.5q2.5 2.5 2.5 6.25q0 3.75 -2.5 6.25q-2.5 2.5 -6.25 2.5zm-55.9375 4.0625l0 -6.875l46.25 0l8.125 5.9375q-1.5625 37.8125 -42.8125 49.375l-5.625 -6.875q39.0625 -9.0625 40.9375 -41.5625l-46.875 0zm83.74997 9.0625q15.3125 4.375 30.9375 11.875l-3.75 7.1875q-16.5625 -8.4375 -27.1875 -11.25l0 32.5l-7.1874695 0l0 -62.5l6.2499695 0q3.75 0.3125 0.9375 2.5l0 19.6875zm93.4375 32.1875l-7.1875 0l0 -3.4375l-34.6875 0l0 5.0l-7.1875 0l0 -48.75l49.0625 0l0 47.1875zm-41.875 -40.3125l0 30.0l34.6875 0l0 -30.0l-34.6875 0zm117.1875 9.375q-16.5625 34.375 -55.625 36.25q-1.5625 4.0625 -3.125 0.625l-2.5 -8.125q40.625 -0.9375 54.6875 -33.4375l6.5625 4.6875zm-44.0625 0q-8.4375 -7.8125 -15.9375 -12.8125l5.3125 -6.5625q6.5625 4.0625 16.5625 13.4375l-5.9375 5.9375z" fill-rule="nonzero"></path></g></svg>

