<?xml version="1.0" standalone="yes"?>

<svg version="1.1" viewBox="0.0 0.0 960.0 540.0" fill="none" stroke="none" stroke-linecap="square" stroke-miterlimit="10" xmlns="http://www.w3.org/2000/svg" xmlns:xlink="http://www.w3.org/1999/xlink"><clipPath id="g1bfb68cd06_0_5.0"><path d="m0 0l960.0 0l0 540.0l-960.0 0l0 -540.0z" clip-rule="nonzero"></path></clipPath><g clip-path="url(#g1bfb68cd06_0_5.0)"><path fill="#ffffff" d="m0 0l960.0 0l0 540.0l-960.0 0z" fill-rule="nonzero"></path><path fill="#eeeeee" d="m446.1273 379.5748l-76.59448 0c8.460388 0 15.318909 15.432068 15.318909 34.468506c0 19.036438 -6.8585205 34.468506 -15.318909 34.468506l76.59448 0l0 0c8.460388 0 15.318909 -15.432068 15.318909 -34.468506c0 -19.036438 -6.8585205 -34.468506 -15.318909 -34.468506z" fill-rule="nonzero"></path><path stroke="#595959" stroke-width="1.0" stroke-linejoin="round" stroke-linecap="butt" d="m446.1273 379.5748l-76.59448 0c8.460388 0 15.318909 15.432068 15.318909 34.468506c0 19.036438 -6.8585205 34.468506 -15.318909 34.468506l76.59448 0l0 0c8.460388 0 15.318909 -15.432068 15.318909 -34.468506c0 -19.036438 -6.8585205 -34.468506 -15.318909 -34.468506z" fill-rule="nonzero"></path><path fill="#eeeeee" d="m571.31757 253.18898l45.95276 0l0 0c25.379028 0 45.95276 15.433823 45.95276 34.472427c0 19.038605 -20.57373 34.472443 -45.95276 34.472443l-45.95276 0z" fill-rule="nonzero"></path><path stroke="#595959" stroke-width="1.0" stroke-linejoin="round" stroke-linecap="butt" d="m571.31757 253.18898l45.95276 0l0 0c25.379028 0 45.95276 15.433823 45.95276 34.472427c0 19.038605 -20.57373 34.472443 -45.95276 34.472443l-45.95276 0z" fill-rule="nonzero"></path><path fill="#eeeeee" d="m369.53674 137.69817l45.95276 0l0 0c25.378998 0 45.95276 15.433838 45.95276 34.472443c0 19.038605 -20.573761 34.472443 -45.95276 34.472443l-45.95276 0z" fill-rule="nonzero"></path><path stroke="#595959" stroke-width="1.0" stroke-linejoin="round" stroke-linecap="butt" d="m369.53674 137.69817l45.95276 0l0 0c25.378998 0 45.95276 15.433838 45.95276 34.472443c0 19.038605 -20.573761 34.472443 -45.95276 34.472443l-45.95276 0z" fill-rule="nonzero"></path><path fill="#eeeeee" d="m463.5748 172.55643l0 0c0 -3.1745453 2.5734863 -5.7480316 5.748047 -5.7480316l0 0c1.5244751 0 2.9865112 0.6055908 4.064453 1.6835632c1.0779724 1.0779724 1.6835632 2.5399933 1.6835632 4.0644684l0 0c0 3.1745605 -2.5734863 5.7480316 -5.7480164 5.7480316l0 0c-3.1745605 0 -5.748047 -2.573471 -5.748047 -5.7480316z" fill-rule="nonzero"></path><path stroke="#595959" stroke-width="1.0" stroke-linejoin="round" stroke-linecap="butt" d="m463.5748 172.55643l0 0c0 -3.1745453 2.5734863 -5.7480316 5.748047 -5.7480316l0 0c1.5244751 0 2.9865112 0.6055908 4.064453 1.6835632c1.0779724 1.0779724 1.6835632 2.5399933 1.6835632 4.0644684l0 0c0 3.1745605 -2.5734863 5.7480316 -5.7480164 5.7480316l0 0c-3.1745605 0 -5.748047 -2.573471 -5.748047 -5.7480316z" fill-rule="nonzero"></path><path fill="#000000" fill-opacity="0.0" d="m211.2336 158.72441l158.29921 -0.5984192" fill-rule="nonzero"></path><path stroke="#595959" stroke-width="1.0" stroke-linejoin="round" stroke-linecap="butt" d="m211.2336 158.72441l158.29921 -0.5984192" fill-rule="nonzero"></path><path fill="#000000" fill-opacity="0.0" d="m212.51181 426.5538l172.31497 0.56692505" fill-rule="nonzero"></path><path stroke="#595959" stroke-width="1.0" stroke-linejoin="round" stroke-linecap="butt" d="m212.51181 426.5538l172.31497 0.56692505" fill-rule="nonzero"></path><path fill="#000000" fill-opacity="0.0" d="m663.2231 287.6614l59.212585 -0.4409485" fill-rule="nonzero"></path><path stroke="#595959" stroke-width="1.0" stroke-linejoin="round" stroke-linecap="butt" d="m663.2231 287.6614l59.212585 -0.4409485" fill-rule="nonzero"></path><path fill="#000000" fill-opacity="0.0" d="m317.1916 426.8084l1.2598572 -229.79529" fill-rule="nonzero"></path><path stroke="#595959" stroke-width="1.0" stroke-linejoin="round" stroke-linecap="butt" d="m317.1916 426.8084l1.2598572 -229.79529" fill-rule="nonzero"></path><path fill="#000000" fill-opacity="0.0" d="m319.7454 195.7454l48.472443 1.2598419" fill-rule="nonzero"></path><path stroke="#595959" stroke-width="1.0" stroke-linejoin="round" stroke-linecap="butt" d="m319.7454 195.7454l48.472443 1.2598419" fill-rule="nonzero"></path><path fill="#000000" fill-opacity="0.0" d="m276.34122 158.72441l1.2598267 238.70866" fill-rule="nonzero"></path><path stroke="#595959" stroke-width="1.0" stroke-linejoin="round" stroke-linecap="butt" d="m276.34122 158.72441l1.2598267 238.70866" fill-rule="nonzero"></path><path fill="#000000" fill-opacity="0.0" d="m277.6168 396.1706l107.18112 1.2598572" fill-rule="nonzero"></path><path stroke="#595959" stroke-width="1.0" stroke-linejoin="round" stroke-linecap="butt" d="m277.6168 396.1706l107.18112 1.2598572" fill-rule="nonzero"></path><path fill="#000000" fill-opacity="0.0" d="m475.07086 172.55643l40.0 0.22047424" fill-rule="nonzero"></path><path stroke="#595959" stroke-width="1.0" stroke-linejoin="round" stroke-linecap="butt" d="m475.07086 172.55643l40.0 0.22047424" fill-rule="nonzero"></path><path fill="#000000" fill-opacity="0.0" d="m461.4462 414.0433l52.346466 1.2913513" fill-rule="nonzero"></path><path stroke="#595959" stroke-width="1.0" stroke-linejoin="round" stroke-linecap="butt" d="m461.4462 414.0433l52.346466 1.2913513" fill-rule="nonzero"></path><path fill="#000000" fill-opacity="0.0" d="m515.063 174.04199l0 94.456696" fill-rule="nonzero"></path><path stroke="#595959" stroke-width="1.0" stroke-linejoin="round" stroke-linecap="butt" d="m515.063 174.04199l0 94.456696" fill-rule="nonzero"></path><path fill="#000000" fill-opacity="0.0" d="m512.51184 416.5958l2.5511475 -109.79526" fill-rule="nonzero"></path><path stroke="#595959" stroke-width="1.0" stroke-linejoin="round" stroke-linecap="butt" d="m512.51184 416.5958l2.5511475 -109.79526" fill-rule="nonzero"></path><path fill="#000000" fill-opacity="0.0" d="m572.3412 267.23358l-59.84253 0" fill-rule="nonzero"></path><path stroke="#595959" stroke-width="1.0" stroke-linejoin="round" stroke-linecap="butt" d="m572.3412 267.23358l-59.84253 0" fill-rule="nonzero"></path><path fill="#000000" fill-opacity="0.0" d="m572.3412 307.23358l-59.84253 0" fill-rule="nonzero"></path><path stroke="#595959" stroke-width="1.0" stroke-linejoin="round" stroke-linecap="butt" d="m572.3412 307.23358l-59.84253 0" fill-rule="nonzero"></path><path fill="#000000" fill-opacity="0.0" d="m188.93964 100.72179l72.66141 0l0 36.97638l-72.66141 0z" fill-rule="nonzero"></path><path fill="#000000" d="m198.17401 140.44179l6.0625 -8.625l-5.609375 -7.96875l3.515625 0l2.546875 3.890625q0.71875 1.109375 1.15625 1.859375q0.6875 -1.03125 1.265625 -1.828125l2.796875 -3.921875l3.359375 0l-5.734375 7.8125l6.171875 8.78125l-3.453125 0l-3.40625 -5.15625l-0.90625 -1.390625l-4.359375 6.546875l-3.40625 0zm27.6875 0l-2.8125 0l0 -17.921875q-1.015625 0.96875 -2.671875 1.9375q-1.640625 0.96875 -2.953125 1.453125l0 -2.71875q2.359375 -1.109375 4.125 -2.6875q1.765625 -1.578125 2.5 -3.0625l1.8125 0l0 23.0z" fill-rule="nonzero"></path><path fill="#000000" fill-opacity="0.0" d="m188.93964 379.5748l72.66141 0l0 36.97638l-72.66141 0z" fill-rule="nonzero"></path><path fill="#000000" d="m198.17401 419.2948l6.0625 -8.625l-5.609375 -7.96875l3.515625 0l2.546875 3.890625q0.71875 1.109375 1.15625 1.859375q0.6875 -1.03125 1.265625 -1.828125l2.796875 -3.921875l3.359375 0l-5.734375 7.8125l6.171875 8.78125l-3.453125 0l-3.40625 -5.15625l-0.90625 -1.390625l-4.359375 6.546875l-3.40625 0zm31.875 -2.703125l0 2.703125l-15.140625 0q-0.03125 -1.015625 0.328125 -1.953125q0.578125 -1.546875 1.84375 -3.046875q1.28125 -1.5 3.6875 -3.46875q3.734375 -3.0625 5.046875 -4.84375q1.3125 -1.796875 1.3125 -3.390625q0 -1.671875 -1.203125 -2.8125q-1.1875 -1.15625 -3.109375 -1.15625q-2.03125 0 -3.25 1.21875q-1.21875 1.21875 -1.234375 3.375l-2.890625 -0.296875q0.296875 -3.234375 2.234375 -4.921875q1.9375 -1.703125 5.203125 -1.703125q3.296875 0 5.21875 1.828125q1.921875 1.828125 1.921875 4.53125q0 1.375 -0.5625 2.703125q-0.5625 1.328125 -1.875 2.796875q-1.296875 1.46875 -4.328125 4.03125q-2.53125 2.125 -3.25 2.890625q-0.71875 0.75 -1.1875 1.515625l11.234375 0z" fill-rule="nonzero"></path><path fill="#000000" fill-opacity="0.0" d="m731.92914 253.18898l72.66144 0l0 36.976364l-72.66144 0z" fill-rule="nonzero"></path><path fill="#000000" d="m742.9135 299.2996l-0.3125 -2.640625q0.921875 0.25 1.609375 0.25q0.9375 0 1.5 -0.3125q0.5625 -0.3125 0.921875 -0.875q0.265625 -0.421875 0.859375 -2.09375q0.078125 -0.234375 0.25 -0.6875l-6.296875 -16.625l3.03125 0l3.453125 9.609375q0.671875 1.828125 1.203125 3.84375q0.484375 -1.9375 1.15625 -3.78125l3.546875 -9.671875l2.8125 0l-6.3125 16.875q-1.015625 2.734375 -1.578125 3.765625q-0.75 1.390625 -1.71875 2.03125q-0.96875 0.65625 -2.3125 0.65625q-0.8125 0 -1.8125 -0.34375z" fill-rule="nonzero"></path><path fill="#000000" fill-opacity="0.0" d="m463.5748 113.55905l72.66141 0l0 36.97638l-72.66141 0z" fill-rule="nonzero"></path><path fill="#000000" d="m473.55917 148.32593l2.78125 -0.4375q0.234375 1.671875 1.296875 2.5625q1.078125 0.890625 3.0 0.890625q1.9375 0 2.875 -0.78125q0.9375 -0.796875 0.9375 -1.859375q0 -0.953125 -0.828125 -1.5q-0.578125 -0.375 -2.875 -0.953125q-3.09375 -0.78125 -4.296875 -1.34375q-1.1875 -0.578125 -1.8125 -1.578125q-0.609375 -1.015625 -0.609375 -2.234375q0 -1.109375 0.5 -2.046875q0.515625 -0.953125 1.390625 -1.578125q0.65625 -0.484375 1.78125 -0.8125q1.140625 -0.34375 2.4375 -0.34375q1.953125 0 3.421875 0.5625q1.484375 0.5625 2.1875 1.53125q0.703125 0.953125 0.96875 2.5625l-2.75 0.375q-0.1875 -1.28125 -1.09375 -2.0q-0.890625 -0.71875 -2.53125 -0.71875q-1.9375 0 -2.765625 0.640625q-0.828125 0.640625 -0.828125 1.5q0 0.546875 0.34375 0.984375q0.34375 0.453125 1.078125 0.75q0.421875 0.15625 2.484375 0.71875q2.984375 0.796875 4.15625 1.3125q1.1875 0.5 1.859375 1.46875q0.671875 0.96875 0.671875 2.40625q0 1.40625 -0.828125 2.65625q-0.8125 1.234375 -2.359375 1.921875q-1.546875 0.671875 -3.5 0.671875q-3.234375 0 -4.9375 -1.34375q-1.6875 -1.34375 -2.15625 -3.984375zm26.9375 4.953125l-2.8125 0l0 -17.921875q-1.015625 0.96875 -2.671875 1.9375q-1.640625 0.96875 -2.953125 1.453125l0 -2.71875q2.359375 -1.109375 4.125 -2.6875q1.765625 -1.578125 2.5 -3.0625l1.8125 0l0 23.0z" fill-rule="nonzero"></path><path fill="#000000" fill-opacity="0.0" d="m458.74014 416.5958l72.66141 0l0 36.97638l-72.66141 0z" fill-rule="nonzero"></path><path fill="#000000" d="m468.72452 451.36267l2.78125 -0.4375q0.234375 1.671875 1.296875 2.5625q1.078125 0.890625 3.0 0.890625q1.9375 0 2.875 -0.78125q0.9375 -0.796875 0.9375 -1.859375q0 -0.953125 -0.828125 -1.5q-0.578125 -0.375 -2.875 -0.953125q-3.09375 -0.78125 -4.296875 -1.34375q-1.1875 -0.578125 -1.8125 -1.578125q-0.609375 -1.015625 -0.609375 -2.234375q0 -1.109375 0.5 -2.046875q0.515625 -0.953125 1.390625 -1.578125q0.65625 -0.484375 1.78125 -0.8125q1.140625 -0.34375 2.4375 -0.34375q1.953125 0 3.421875 0.5625q1.484375 0.5625 2.1875 1.53125q0.703125 0.953125 0.96875 2.5625l-2.75 0.375q-0.1875 -1.28125 -1.09375 -2.0q-0.890625 -0.71875 -2.53125 -0.71875q-1.9375 0 -2.765625 0.640625q-0.828125 0.640625 -0.828125 1.5q0 0.546875 0.34375 0.984375q0.34375 0.453125 1.078125 0.75q0.421875 0.15625 2.484375 0.71875q2.984375 0.796875 4.15625 1.3125q1.1875 0.5 1.859375 1.46875q0.671875 0.96875 0.671875 2.40625q0 1.40625 -0.828125 2.65625q-0.8125 1.234375 -2.359375 1.921875q-1.546875 0.671875 -3.5 0.671875q-3.234375 0 -4.9375 -1.34375q-1.6875 -1.34375 -2.15625 -3.984375zm31.125 2.25l0 2.703125l-15.140625 0q-0.03125 -1.015625 0.328125 -1.953125q0.578125 -1.546875 1.84375 -3.046875q1.28125 -1.5 3.6875 -3.46875q3.734375 -3.0625 5.046875 -4.84375q1.3125 -1.796875 1.3125 -3.390625q0 -1.671875 -1.203125 -2.8125q-1.1875 -1.15625 -3.109375 -1.15625q-2.03125 0 -3.25 1.21875q-1.21875 1.21875 -1.234375 3.375l-2.890625 -0.296875q0.296875 -3.234375 2.234375 -4.921875q1.9375 -1.703125 5.203125 -1.703125q3.296875 0 5.21875 1.828125q1.921875 1.828125 1.921875 4.53125q0 1.375 -0.5625 2.703125q-0.5625 1.328125 -1.875 2.796875q-1.296875 1.46875 -4.328125 4.03125q-2.53125 2.125 -3.25 2.890625q-0.71875 0.75 -1.1875 1.515625l11.234375 0z" fill-rule="nonzero"></path><path fill="#000000" fill-opacity="0.0" d="m195.66405 63.745407l59.2126 0l0 36.97638l-59.2126 0z" fill-rule="nonzero"></path><path fill="#ff0000" d="m216.58592 103.46541l-2.8125 0l0 -17.921875q-1.015625 0.96875 -2.671875 1.9375q-1.640625 0.96875 -2.953125 1.453125l0 -2.71875q2.359375 -1.109375 4.125 -2.6875q1.765625 -1.578125 2.5 -3.0625l1.8125 0l0 23.0z" fill-rule="nonzero"></path><path fill="#000000" fill-opacity="0.0" d="m195.66405 432.15485l59.2126 0l0 36.97638l-59.2126 0z" fill-rule="nonzero"></path><path fill="#ff0000" d="m205.99217 460.57797q0 -4.0625 0.828125 -6.53125q0.84375 -2.484375 2.484375 -3.828125q1.65625 -1.34375 4.15625 -1.34375q1.84375 0 3.234375 0.75q1.390625 0.734375 2.296875 2.140625q0.90625 1.390625 1.421875 3.40625q0.515625 2.0 0.515625 5.40625q0 4.03125 -0.828125 6.515625q-0.828125 2.46875 -2.484375 3.828125q-1.640625 1.34375 -4.15625 1.34375q-3.3125 0 -5.203125 -2.375q-2.265625 -2.859375 -2.265625 -9.3125zm2.890625 0q0 5.640625 1.3125 7.515625q1.328125 1.859375 3.265625 1.859375q1.9375 0 3.25 -1.875q1.328125 -1.875 1.328125 -7.5q0 -5.65625 -1.328125 -7.515625q-1.3125 -1.859375 -3.28125 -1.859375q-1.9375 0 -3.09375 1.640625q-1.453125 2.09375 -1.453125 7.734375z" fill-rule="nonzero"></path><path fill="#000000" fill-opacity="0.0" d="m512.81366 129.83202l59.212585 0l0 36.97638l-59.212585 0z" fill-rule="nonzero"></path><path fill="#ff0000" d="m533.73553 169.55202l-2.8125 0l0 -17.921875q-1.015625 0.96875 -2.671875 1.9375q-1.640625 0.96875 -2.953125 1.453125l0 -2.71875q2.359375 -1.109375 4.125 -2.6875q1.765625 -1.578125 2.5 -3.0625l1.8125 0l0 23.0z" fill-rule="nonzero"></path><path fill="#000000" fill-opacity="0.0" d="m520.1391 408.51443l59.212585 0l0 36.97638l-59.212585 0z" fill-rule="nonzero"></path><path fill="#ff0000" d="m541.061 448.23444l-2.8125 0l0 -17.921875q-1.015625 0.96875 -2.671875 1.9375q-1.640625 0.96875 -2.953125 1.453125l0 -2.71875q2.359375 -1.109375 4.125 -2.6875q1.765625 -1.578125 2.5 -3.0625l1.8125 0l0 23.0z" fill-rule="nonzero"></path><path fill="#000000" fill-opacity="0.0" d="m667.9698 243.42258l59.212646 0l0 36.97638l-59.212646 0z" fill-rule="nonzero"></path><path fill="#ff0000" d="m688.89166 283.14258l-2.8125 0l0 -17.921875q-1.015625 0.96875 -2.671875 1.9375q-1.640625 0.96875 -2.953125 1.453125l0 -2.71875q2.359375 -1.109375 4.125 -2.6875q1.765625 -1.578125 2.5 -3.0625l1.8125 0l0 23.0z" fill-rule="nonzero"></path></g></svg>

