<?xml version="1.0" standalone="yes"?>

<svg version="1.1" viewBox="0.0 0.0 1736.0 1150.0" fill="none" stroke="none" stroke-linecap="square" stroke-miterlimit="10" xmlns="http://www.w3.org/2000/svg" xmlns:xlink="http://www.w3.org/1999/xlink"><clipPath id="p.0"><path d="m0 0l1736.0 0l0 1150.0l-1736.0 0l0 -1150.0z" clip-rule="nonzero"></path></clipPath><g clip-path="url(#p.0)"><path fill="#000000" fill-opacity="0.0" d="m0 0l1736.0 0l0 1150.0l-1736.0 0z" fill-rule="nonzero"></path><path fill="#cfe2f3" d="m98.54593 618.9055l0 0c0 -33.57196 25.107307 -60.787415 56.078735 -60.787415l0 0c14.873016 0 29.136856 6.404358 39.65367 17.8042c10.5168 11.399902 16.42508 26.86139 16.42508 42.983215l0 0c0 33.57196 -25.107315 60.787415 -56.07875 60.787415l0 0c-30.971428 0 -56.078735 -27.215454 -56.078735 -60.787415z" fill-rule="nonzero"></path><path stroke="#000000" stroke-width="1.0" stroke-linejoin="round" stroke-linecap="butt" d="m98.54593 618.9055l0 0c0 -33.57196 25.107307 -60.787415 56.078735 -60.787415l0 0c14.873016 0 29.136856 6.404358 39.65367 17.8042c10.5168 11.399902 16.42508 26.86139 16.42508 42.983215l0 0c0 33.57196 -25.107315 60.787415 -56.07875 60.787415l0 0c-30.971428 0 -56.078735 -27.215454 -56.078735 -60.787415z" fill-rule="nonzero"></path><path fill="#000000" d="m142.74577 598.32935q1.90625 2.03125 2.890625 4.0625q0.703125 1.40625 2.2968597 7.390625l3.4375 -5.15625q1.375 -1.875 3.328125 -3.578125q1.953125 -1.703125 3.4375 -2.328125q0.9375 -0.390625 2.0625 -0.390625q1.6875 0 2.671875 0.90625q1.0 0.890625 1.0 2.1875q0 1.484375 -0.578125 2.03125q-1.09375 0.96875 -2.5 0.96875q-0.828125 0 -1.765625 -0.34375q-1.828125 -0.625 -2.453125 -0.625q-0.9375 0 -2.234375 1.09375q-2.421875 2.03125 -5.78125 7.84375l3.203125 13.4375q0.75 3.09375 1.25 3.703125q0.515625 0.59375 1.015625 0.59375q0.828125 0 1.921875 -0.890625q2.140625 -1.796875 3.671875 -4.6875l1.359375 0.703125q-2.453125 4.609375 -6.25 7.65625q-2.140625 1.71875 -3.625 1.71875q-2.1875 0 -3.484375 -2.46875q-0.81248474 -1.515625 -3.3906097 -13.125q-6.09375 10.59375 -9.765625 13.640625q-2.390625 1.953125 -4.609375 1.953125q-1.578125 0 -2.8593826 -1.140625q-0.9375 -0.859375 -0.9375 -2.296875q0 -1.296875 0.859375 -2.15625q0.859375 -0.859375 2.1093826 -0.859375q1.25 0 2.65625 1.25q1.015625 0.90625 1.5625 0.90625q0.46875 0 1.21875 -0.625q1.828125 -1.484375 4.984375 -6.40625q3.171875 -4.921875 4.15625 -7.109375q-2.421875 -9.5 -2.625 -10.046875q-0.890625 -2.53125 -2.34375 -3.578125q-1.4375 -1.0625 -4.25 -1.0625q-0.90625 0 -2.078125 0.078125l0 -1.40625l10.4375 -1.84375z" fill-rule="nonzero"></path><path fill="#000000" d="m168.12857 614.57935l5.15625 -2.515625l0.515625 0l0 17.890625q0 1.78125 0.140625 2.21875q0.15625 0.4375 0.625 0.671875q0.46875 0.234375 1.90625 0.265625l0 0.578125l-7.96875 0l0 -0.578125q1.5 -0.03125 1.9375 -0.25q0.4375 -0.234375 0.609375 -0.609375q0.171875 -0.390625 0.171875 -2.296875l0 -11.4375q0 -2.3125 -0.15625 -2.96875q-0.109375 -0.5 -0.40625 -0.734375q-0.28125 -0.234375 -0.6875 -0.234375q-0.578125 0 -1.609375 0.484375l-0.234375 -0.484375z" fill-rule="nonzero"></path><path fill="#cfe2f3" d="m105.10236 886.4952l0 0c0 -33.57196 25.107307 -60.787415 56.078743 -60.787415l0 0c14.873001 0 29.136856 6.404419 39.653656 17.80426c10.5168 11.399841 16.42508 26.861328 16.42508 42.983154l0 0c0 33.57196 -25.1073 60.787415 -56.078735 60.787415l0 0c-30.971436 0 -56.078743 -27.215454 -56.078743 -60.787415z" fill-rule="nonzero"></path><path stroke="#000000" stroke-width="1.0" stroke-linejoin="round" stroke-linecap="butt" d="m105.10236 886.4952l0 0c0 -33.57196 25.107307 -60.787415 56.078743 -60.787415l0 0c14.873001 0 29.136856 6.404419 39.653656 17.80426c10.5168 11.399841 16.42508 26.861328 16.42508 42.983154l0 0c0 33.57196 -25.1073 60.787415 -56.078735 60.787415l0 0c-30.971436 0 -56.078743 -27.215454 -56.078743 -60.787415z" fill-rule="nonzero"></path><path fill="#000000" d="m149.3022 868.9358q1.90625 2.03125 2.890625 4.0625q0.703125 1.40625 2.296875 7.390625l3.4375 -5.15625q1.375 -1.875 3.328125 -3.578125q1.953125 -1.703125 3.4375 -2.328125q0.9375 -0.390625 2.0625 -0.390625q1.6875 0 2.671875 0.90625q1.0 0.890625 1.0 2.1875q0 1.484375 -0.578125 2.03125q-1.09375 0.96875 -2.5 0.96875q-0.828125 0 -1.765625 -0.34375q-1.828125 -0.625 -2.453125 -0.625q-0.9375 0 -2.234375 1.09375q-2.421875 2.03125 -5.78125 7.84375l3.203125 13.4375q0.75 3.09375 1.25 3.703125q0.515625 0.59375 1.015625 0.59375q0.828125 0 1.921875 -0.890625q2.140625 -1.796875 3.671875 -4.6875l1.359375 0.703125q-2.453125 4.609375 -6.25 7.65625q-2.140625 1.71875 -3.625 1.71875q-2.1875 0 -3.484375 -2.46875q-0.8125 -1.515625 -3.390625 -13.125q-6.09375 10.59375 -9.765625 13.640625q-2.390625 1.953125 -4.609375 1.953125q-1.578125 0 -2.859375 -1.140625q-0.9375 -0.859375 -0.9375 -2.296875q0 -1.296875 0.859375 -2.15625q0.859375 -0.859375 2.109375 -0.859375q1.25 0 2.65625 1.25q1.015625 0.90625 1.5625 0.90625q0.46875 0 1.21875 -0.625q1.828125 -1.484375 4.984375 -6.40625q3.171875 -4.921875 4.15625 -7.109375q-2.421875 -9.5 -2.625 -10.046875q-0.890625 -2.53125 -2.34375 -3.578125q-1.4375 -1.0625 -4.25 -1.0625q-0.90625 0 -2.078125 0.078125l0 -1.40625l10.4375 -1.84375z" fill-rule="nonzero"></path><path fill="#000000" d="m185.60689 900.21704l-1.484375 4.078125l-12.5 0l0 -0.578125q5.515625 -5.03125 7.765625 -8.21875q2.25 -3.1875 2.25 -5.828125q0 -2.015625 -1.234375 -3.3125q-1.234375 -1.296875 -2.953125 -1.296875q-1.5625 0 -2.8125 0.921875q-1.234375 0.90625 -1.828125 2.671875l-0.578125 0q0.390625 -2.890625 2.0 -4.4375q1.625 -1.546875 4.046875 -1.546875q2.578125 0 4.296875 1.65625q1.734375 1.65625 1.734375 3.90625q0 1.609375 -0.75 3.21875q-1.15625 2.53125 -3.75 5.359375q-3.890625 4.25 -4.859375 5.125l5.53125 0q1.6875 0 2.359375 -0.125q0.6875 -0.125 1.234375 -0.5q0.546875 -0.390625 0.953125 -1.09375l0.578125 0z" fill-rule="nonzero"></path><path fill="#cfe2f3" d="m393.1564 282.9371l0 0c0 -71.33606 62.842316 -129.16536 140.36221 -129.16536l0 0c77.5199 0 140.36218 57.8293 140.36218 129.16536l0 0c0 71.33603 -62.842285 129.16534 -140.36218 129.16534l0 0c-77.5199 0 -140.36221 -57.829315 -140.36221 -129.16534z" fill-rule="nonzero"></path><path stroke="#000000" stroke-width="1.0" stroke-linejoin="round" stroke-linecap="butt" d="m393.1564 282.9371l0 0c0 -71.33606 62.842316 -129.16536 140.36221 -129.16536l0 0c77.5199 0 140.36218 57.8293 140.36218 129.16536l0 0c0 71.33603 -62.842285 129.16534 -140.36218 129.16534l0 0c-77.5199 0 -140.36221 -57.829315 -140.36221 -129.16534z" fill-rule="nonzero"></path><path fill="#000000" fill-opacity="0.0" d="m257.25986 339.09448l134.42517 0l0 47.653534l-134.42517 0z" fill-rule="nonzero"></path><path fill="#000000" d="m293.07236 357.58002l2.15625 23.4375q5.4375 -6.375 8.6875 -11.96875q1.90625 -3.28125 1.90625 -4.75q0 -0.6875 -0.3125 -1.21875q-0.125 -0.28125 -0.984375 -0.828125q-0.859375 -0.546875 -1.203125 -1.125q-0.34375 -0.578125 -0.34375 -1.234375q0 -0.96875 0.71875 -1.640625q0.71875 -0.671875 1.84375 -0.671875q1.28125 0 2.171875 0.953125q0.890625 0.953125 0.890625 2.546875q0 1.625 -0.46875 3.03125q-0.9375 2.6875 -3.65625 6.9375q-3.3125 5.09375 -6.828125 9.453125q-3.515625 4.359375 -5.234375 6.109375l-1.15625 0l-2.03125 -21.625l-12.90625 21.625l-1.375 0q-0.21875 -13.34375 -1.34375 -21.0625q-0.46875 -3.21875 -1.5625 -4.21875q-0.78125 -0.71875 -2.375 -0.71875q-0.90625 0 -2.3125 0.1875l0 -1.125l8.96875 -2.09375q1.875 5.21875 2.4375 16.03125q0.1875 4.09375 0.3125 5.15625l12.84375 -21.1875l1.15625 0z" fill-rule="nonzero"></path><path fill="#000000" d="m312.69736 366.7519l5.15625 -2.515625l0.515625 0l0 17.890625q0 1.78125 0.140625 2.21875q0.15625 0.4375 0.625 0.671875q0.46875 0.234375 1.90625 0.265625l0 0.578125l-7.96875 0l0 -0.578125q1.5 -0.03125 1.9375 -0.25q0.4375 -0.234375 0.609375 -0.609375q0.171875 -0.390625 0.171875 -2.296875l0 -11.4375q0 -2.3125 -0.15625 -2.96875q-0.109375 -0.5 -0.40625 -0.734375q-0.28125 -0.234375 -0.6875 -0.234375q-0.578125 0 -1.609375 0.484375l-0.234375 -0.484375zm16.0 0l5.15625 -2.515625l0.515625 0l0 17.890625q0 1.78125 0.140625 2.21875q0.15625 0.4375 0.625 0.671875q0.46875 0.234375 1.90625 0.265625l0 0.578125l-7.96875 0l0 -0.578125q1.5 -0.03125 1.9375 -0.25q0.4375 -0.234375 0.609375 -0.609375q0.171875 -0.390625 0.171875 -2.296875l0 -11.4375q0 -2.3125 -0.15625 -2.96875q-0.109375 -0.5 -0.40625 -0.734375q-0.28125 -0.234375 -0.6875 -0.234375q-0.578125 0 -1.609375 0.484375l-0.234375 -0.484375z" fill-rule="nonzero"></path><path fill="#000000" fill-opacity="0.0" d="m210.70341 618.9055l182.45668 -335.9685" fill-rule="nonzero"></path><path stroke="#000000" stroke-width="4.0" stroke-linejoin="round" stroke-linecap="butt" d="m210.70341 618.9055l171.00291 -314.878" fill-rule="evenodd"></path><path fill="#000000" stroke="#000000" stroke-width="4.0" stroke-linecap="butt" d="m387.5123 307.18063l2.8570862 -19.10492l-14.469055 12.798737z" fill-rule="evenodd"></path><path fill="#000000" fill-opacity="0.0" d="m217.25984 881.94403l175.9055 -603.5591" fill-rule="nonzero"></path><path stroke="#000000" stroke-width="4.0" stroke-linejoin="round" stroke-linecap="butt" d="m217.25984 881.944l169.19017 -580.5177" fill-rule="evenodd"></path><path fill="#000000" stroke="#000000" stroke-width="4.0" stroke-linecap="butt" d="m392.79303 303.27496l-1.263855 -19.27597l-11.42218 15.578644z" fill-rule="evenodd"></path><path fill="#000000" fill-opacity="0.0" d="m151.58781 754.7953l112.157486 0l0 47.653503l-112.157486 0z" fill-rule="nonzero"></path><path fill="#000000" d="m187.40031 773.2808l2.15625 23.4375q5.4375 -6.375 8.6875 -11.96875q1.90625 -3.28125 1.90625 -4.75q0 -0.6875 -0.3125 -1.21875q-0.125 -0.28125 -0.984375 -0.828125q-0.859375 -0.546875 -1.203125 -1.125q-0.34375 -0.578125 -0.34375 -1.234375q0 -0.96875 0.71875 -1.640625q0.71875 -0.671875 1.84375 -0.671875q1.28125 0 2.171875 0.953125q0.890625 0.953125 0.890625 2.546875q0 1.625 -0.46875 3.03125q-0.9375 2.6875 -3.65625 6.9375q-3.3125 5.09375 -6.828125 9.453125q-3.515625 4.359375 -5.234375 6.109375l-1.15625 0l-2.03125 -21.625l-12.90625 21.625l-1.375 0q-0.21875 -13.34375 -1.34375 -21.0625q-0.46875 -3.21875 -1.5625 -4.21875q-0.78125 -0.71875 -2.375 -0.71875q-0.90625 0 -2.3125 0.1875l0 -1.125l8.96875 -2.09375q1.875 5.21875 2.4375 16.03125q0.1875 4.09375 0.3125 5.15625l12.84375 -21.1875l1.15625 0z" fill-rule="nonzero"></path><path fill="#000000" d="m206.08781 787.23395l3.875 -1.890625l0.375 0l0 13.421875q0 1.328125 0.109375 1.65625q0.125 0.328125 0.46875 0.515625q0.359375 0.171875 1.4375 0.1875l0 0.4375l-5.984375 0l0 -0.4375q1.125 -0.015625 1.453125 -0.1875q0.328125 -0.171875 0.453125 -0.453125q0.140625 -0.296875 0.140625 -1.71875l0 -8.578125q0 -1.734375 -0.125 -2.234375q-0.078125 -0.375 -0.296875 -0.546875q-0.21875 -0.171875 -0.515625 -0.171875q-0.4375 0 -1.21875 0.359375l-0.171875 -0.359375zm20.1875 11.265625l-1.109375 3.0625l-9.375 0l0 -0.4375q4.140625 -3.765625 5.828125 -6.15625q1.6875 -2.390625 1.6875 -4.375q0 -1.515625 -0.9375 -2.484375q-0.921875 -0.96875 -2.203125 -0.96875q-1.171875 0 -2.109375 0.6875q-0.921875 0.671875 -1.375 2.0l-0.4375 0q0.296875 -2.171875 1.5 -3.328125q1.21875 -1.15625 3.046875 -1.15625q1.921875 0 3.21875 1.25q1.296875 1.234375 1.296875 2.921875q0 1.203125 -0.5625 2.40625q-0.859375 1.90625 -2.8125 4.03125q-2.921875 3.1875 -3.640625 3.84375l4.140625 0q1.265625 0 1.78125 -0.09375q0.515625 -0.09375 0.921875 -0.375q0.40625 -0.296875 0.71875 -0.828125l0.421875 0z" fill-rule="nonzero"></path><path fill="#fff2cc" d="m98.54593 351.31497l0 0c0 -33.57196 25.107307 -60.787415 56.078735 -60.787415l0 0c14.873016 0 29.136856 6.404358 39.65367 17.80423c10.5168 11.399841 16.42508 26.861359 16.42508 42.983185l0 0c0 33.57193 -25.107315 60.787384 -56.07875 60.787384l0 0c-30.971428 0 -56.078735 -27.215454 -56.078735 -60.787384z" fill-rule="nonzero"></path><path stroke="#000000" stroke-width="1.0" stroke-linejoin="round" stroke-linecap="butt" d="m98.54593 351.31497l0 0c0 -33.57196 25.107307 -60.787415 56.078735 -60.787415l0 0c14.873016 0 29.136856 6.404358 39.65367 17.80423c10.5168 11.399841 16.42508 26.861359 16.42508 42.983185l0 0c0 33.57193 -25.107315 60.787384 -56.07875 60.787384l0 0c-30.971428 0 -56.078735 -27.215454 -56.078735 -60.787384z" fill-rule="nonzero"></path><path fill="#000000" d="m143.99968 332.3337l12.89061 -6.28125l1.296875 0l0 44.71875q0 4.453125 0.359375 5.546875q0.375 1.09375 1.546875 1.6875q1.171875 0.578125 4.765625 0.65625l0 1.453125l-19.92186 0l0 -1.453125q3.7499847 -0.078125 4.8437347 -0.640625q1.09375 -0.5625 1.515625 -1.515625q0.4375 -0.96875 0.4375 -5.734375l0 -28.59375q0 -5.78125 -0.390625 -7.421875q-0.265625 -1.25 -1.0 -1.828125q-0.71875 -0.59375 -1.734375 -0.59375q-1.4375 0 -4.0156097 1.21875l-0.59375 -1.21875z" fill-rule="nonzero"></path><path fill="#000000" fill-opacity="0.0" d="m511.8793 282.9379l43.8425 0" fill-rule="nonzero"></path><path stroke="#000000" stroke-width="4.0" stroke-linejoin="round" stroke-linecap="butt" d="m511.8793 282.9379l19.842499 0" fill-rule="evenodd"></path><path fill="#000000" stroke="#000000" stroke-width="4.0" stroke-linecap="butt" d="m531.7218 289.54483l18.152405 -6.6069336l-18.152405 -6.6069336z" fill-rule="evenodd"></path><path fill="#000000" fill-opacity="0.0" d="m247.58792 222.14961l248.22049 0l0 80.72441l-248.22049 0z" fill-rule="nonzero"></path><path fill="#000000" d="m275.05667 241.01431l-6.15625 21.59375q3.0 -3.125 5.234375 -4.28125q2.234375 -1.15625 4.671875 -1.15625q3.4375 0 5.625 2.28125q2.1875 2.28125 2.1875 6.1875q0 5.03125 -2.875 10.015625q-2.875 4.984375 -7.21875 7.765625q-4.34375 2.78125 -8.5625 2.78125q-4.71875 0 -9.6875 -3.53125l9.5 -32.71875q1.09375 -3.78125 1.09375 -4.4375q0 -0.8125 -0.5 -1.21875q-0.71875 -0.5625 -2.125 -0.5625q-0.65625 0 -2.0 0.21875l0 -1.1875l10.8125 -1.75zm-12.09375 42.0q3.125 1.71875 5.5 1.71875q2.75 0 5.703125 -2.015625q2.953125 -2.015625 5.125 -6.796875q2.171875 -4.78125 2.171875 -9.65625q0 -2.875 -1.421875 -4.5q-1.421875 -1.625 -3.359375 -1.625q-2.90625 0 -5.6875 2.328125q-2.78125 2.328125 -3.96875 6.484375l-4.0625 14.0625z" fill-rule="nonzero"></path><path fill="#000000" d="m292.33792 266.34244l5.15625 -2.515625l0.515625 0l0 17.890625q0 1.78125 0.140625 2.21875q0.15625 0.4375 0.625 0.671875q0.46875 0.234375 1.90625 0.265625l0 0.578125l-7.96875 0l0 -0.578125q1.5 -0.03125 1.9375 -0.25q0.4375 -0.234375 0.609375 -0.609375q0.171875 -0.390625 0.171875 -2.296875l0 -11.4375q0 -2.3125 -0.15625 -2.96875q-0.109375 -0.5 -0.40625 -0.734375q-0.28125 -0.234375 -0.6875 -0.234375q-0.578125 0 -1.609375 0.484375l-0.234375 -0.484375z" fill-rule="nonzero"></path><path fill="#d9ead3" d="m399.7218 282.9379l0 0c0 -33.571976 25.1073 -60.787415 56.078735 -60.787415l0 0c14.873016 0 29.136871 6.404373 39.653656 17.804214c10.516815 11.399857 16.42511 26.861374 16.42511 42.9832l0 0c0 33.57193 -25.10733 60.787384 -56.078766 60.787384l0 0c-30.971436 0 -56.078735 -27.215454 -56.078735 -60.787384z" fill-rule="nonzero"></path><path stroke="#000000" stroke-width="1.0" stroke-linejoin="round" stroke-linecap="butt" d="m399.7218 282.9379l0 0c0 -33.571976 25.1073 -60.787415 56.078735 -60.787415l0 0c14.873016 0 29.136871 6.404373 39.653656 17.804214c10.516815 11.399857 16.42511 26.861374 16.42511 42.9832l0 0c0 33.57193 -25.10733 60.787384 -56.078766 60.787384l0 0c-30.971436 0 -56.078735 -27.215454 -56.078735 -60.787384z" fill-rule="nonzero"></path><path fill="#000000" d="m465.3474 262.3617l-7.625 26.484375l-0.859375 3.5625q-0.109375 0.5 -0.109375 0.859375q0 0.625 0.390625 1.09375q0.3125 0.34375 0.78125 0.34375q0.5 0 1.328125 -0.625q1.515625 -1.125 4.0625 -4.6875l1.328125 0.9375q-2.703125 4.0625 -5.5625 6.203125q-2.84375 2.125 -5.265625 2.125q-1.671875 0 -2.515625 -0.84375q-0.84375 -0.84375 -0.84375 -2.4375q0 -1.921875 0.859375 -5.046875l0.828125 -2.921875q-5.125 6.671875 -9.421875 9.328125q-3.078125 1.921875 -6.046875 1.921875q-2.859375 0 -4.9375 -2.359375q-2.0625 -2.375 -2.0625 -6.515625q0 -6.203125 3.734375 -13.09375q3.734375 -6.90625 9.46875 -11.046875q4.5 -3.28125 8.484375 -3.28125q2.375 0 3.953125 1.25q1.59375 1.25 2.40625 4.140625l1.40625 -4.453125l6.21875 -0.9375zm-13.90625 2.03125q-2.5 0 -5.3125 2.34375q-3.984375 3.328125 -7.09375 9.859375q-3.109375 6.515625 -3.109375 11.78125q0 2.65625 1.328125 4.203125q1.328125 1.546875 3.046875 1.546875q4.265625 0 9.265625 -6.296875q6.671875 -8.359375 6.671875 -17.140625q0 -3.328125 -1.296875 -4.8125q-1.28125 -1.484375 -3.5 -1.484375z" fill-rule="nonzero"></path><path fill="#000000" d="m471.55054 278.6117l5.15625 -2.515625l0.515625 0l0 17.890625q0 1.78125 0.140625 2.21875q0.15625 0.4375 0.625 0.671875q0.46875 0.234375 1.90625 0.265625l0 0.578125l-7.96875 0l0 -0.578125q1.5 -0.03125 1.9375 -0.25q0.4375 -0.234375 0.609375 -0.609375q0.171875 -0.390625 0.171875 -2.296875l0 -11.4375q0 -2.3125 -0.15625 -2.96875q-0.109375 -0.5 -0.40625 -0.734375q-0.28125 -0.234375 -0.6875 -0.234375q-0.578125 0 -1.609375 0.484375l-0.234375 -0.484375z" fill-rule="nonzero"></path><path fill="#d9ead3" d="m555.7218 282.9379l0 0c0 -33.571976 25.1073 -60.787415 56.078735 -60.787415l0 0c14.873047 0 29.13684 6.404373 39.653687 17.804214c10.516785 11.399857 16.425049 26.861374 16.425049 42.9832l0 0c0 33.57193 -25.1073 60.787384 -56.078735 60.787384l0 0c-30.971436 0 -56.078735 -27.215454 -56.078735 -60.787384z" fill-rule="nonzero"></path><path stroke="#000000" stroke-width="1.0" stroke-linejoin="round" stroke-linecap="butt" d="m555.7218 282.9379l0 0c0 -33.571976 25.1073 -60.787415 56.078735 -60.787415l0 0c14.873047 0 29.13684 6.404373 39.653687 17.804214c10.516785 11.399857 16.425049 26.861374 16.425049 42.9832l0 0c0 33.57193 -25.1073 60.787384 -56.078735 60.787384l0 0c-30.971436 0 -56.078735 -27.215454 -56.078735 -60.787384z" fill-rule="nonzero"></path><path fill="#000000" d="m594.9529 263.2992l24.8125 0l0 0.984375l-27.03125 28.125l11.4375 0q4.0625 0 5.15625 -0.3125q1.09375 -0.3125 2.015625 -1.328125q0.921875 -1.015625 2.046875 -3.671875l1.453125 0l-3.40625 10.625l-25.4375 0l0 -1.140625l27.046875 -28.125l-11.25 0q-3.5625 0 -4.296875 0.203125q-1.09375 0.234375 -2.171875 1.234375q-1.078125 0.984375 -2.203125 3.296875l-1.484375 0l3.3125 -9.890625z" fill-rule="nonzero"></path><path fill="#000000" d="m623.11694 278.6117l5.15625 -2.515625l0.515625 0l0 17.890625q0 1.78125 0.140625 2.21875q0.15625 0.4375 0.625 0.671875q0.46875 0.234375 1.90625 0.265625l0 0.578125l-7.96875 0l0 -0.578125q1.5 -0.03125 1.9375 -0.25q0.4375 -0.234375 0.609375 -0.609375q0.171875 -0.390625 0.171875 -2.296875l0 -11.4375q0 -2.3125 -0.15625 -2.96875q-0.109375 -0.5 -0.40625 -0.734375q-0.28125 -0.234375 -0.6875 -0.234375q-0.578125 0 -1.609375 0.484375l-0.234375 -0.484375z" fill-rule="nonzero"></path><path fill="#000000" fill-opacity="0.0" d="m495.80185 203.83464l82.01572 0l0 80.72441l-82.01572 0z" fill-rule="nonzero"></path><path fill="#000000" d="m516.5362 223.4534l-5.4843445 18.96875q3.5624695 -5.34375 5.5468445 -7.09375q2.0 -1.765625 3.8125 -1.765625q0.9375 0 1.5625 0.640625q0.625 0.640625 0.625 1.71875q0 1.28125 -0.546875 3.125l-2.390625 8.1875q-0.4375 1.484375 -0.4375 1.640625q0 0.265625 0.15625 0.453125q0.171875 0.171875 0.390625 0.171875q0.25 0 0.578125 -0.265625q1.109375 -0.859375 2.203125 -2.375l0.609375 0.375q-0.65625 1.03125 -1.84375 2.28125q-1.1875 1.234375 -2.03125 1.71875q-0.84375 0.46875 -1.515625 0.46875q-0.71875 0 -1.1875 -0.46875q-0.453125 -0.453125 -0.453125 -1.171875q0 -0.859375 0.6875 -3.203125l2.25 -7.8125q0.421875 -1.46875 0.421875 -2.3125q0 -0.390625 -0.25 -0.625q-0.234375 -0.234375 -0.625 -0.234375q-0.5625 0 -1.296875 0.4375q-1.328125 0.8125 -3.0625 3.046875q-0.46875 0.609375 -3.1249695 4.875q-0.8125 1.375 -1.34375 3.0l-1.25 4.0l-2.9375 0l6.4374695 -22.34375l0.671875 -2.421875q0 -0.515625 -0.421875 -0.90625q-0.40621948 -0.390625 -1.0155945 -0.390625q-0.359375 0 -1.078125 0.125l-0.40625 0.0625l0 -0.765625l6.7499695 -1.140625z" fill-rule="nonzero"></path><path fill="#000000" d="m537.2237 259.06277l0 0.734375q-2.953125 -1.484375 -4.921875 -3.484375q-2.8125 -2.828125 -4.34375 -6.671875q-1.515625 -3.859375 -1.515625 -8.0q0 -6.046875 2.984375 -11.03125q3.0 -5.0 7.796875 -7.15625l0 0.828125q-2.40625 1.328125 -3.953125 3.640625q-1.53125 2.296875 -2.296875 5.828125q-0.765625 3.53125 -0.765625 7.390625q0 4.171875 0.65625 7.59375q0.5 2.703125 1.21875 4.328125q0.734375 1.625 1.953125 3.125q1.21875 1.515625 3.1875 2.875zm11.8046875 -34.78125l0 -0.828125q2.96875 1.46875 4.9375 3.46875q2.796875 2.84375 4.3125 6.6875q1.53125 3.828125 1.53125 8.0q0 6.046875 -2.984375 11.03125q-2.984375 5.0 -7.796875 7.15625l0 -0.734375q2.390625 -1.34375 3.9375 -3.640625q1.5625 -2.296875 2.3125 -5.84375q0.75 -3.546875 0.75 -7.390625q0 -4.15625 -0.640625 -7.59375q-0.484375 -2.703125 -1.21875 -4.3125q-0.734375 -1.625 -1.953125 -3.125q-1.203125 -1.515625 -3.1875 -2.875z" fill-rule="nonzero"></path><path fill="#000000" fill-opacity="0.0" d="m210.70341 351.31497l182.45668 -68.37796" fill-rule="nonzero"></path><path stroke="#000000" stroke-width="4.0" stroke-linejoin="round" stroke-linecap="butt" d="m210.70341 351.31497l159.98302 -59.95569" fill-rule="evenodd"></path><path fill="#000000" stroke="#000000" stroke-width="4.0" stroke-linecap="butt" d="m373.005 297.54605l14.679382 -12.556946l-19.316498 0.18344116z" fill-rule="evenodd"></path><path fill="#cfe2f3" d="m393.1564 618.9056l0 0c0 -71.33606 62.842316 -129.16534 140.36221 -129.16534l0 0c77.5199 0 140.36218 57.829285 140.36218 129.16534l0 0c0 71.33606 -62.842285 129.16534 -140.36218 129.16534l0 0c-77.5199 0 -140.36221 -57.829285 -140.36221 -129.16534z" fill-rule="nonzero"></path><path stroke="#000000" stroke-width="1.0" stroke-linejoin="round" stroke-linecap="butt" d="m393.1564 618.9056l0 0c0 -71.33606 62.842316 -129.16534 140.36221 -129.16534l0 0c77.5199 0 140.36218 57.829285 140.36218 129.16534l0 0c0 71.33606 -62.842285 129.16534 -140.36218 129.16534l0 0c-77.5199 0 -140.36221 -57.829285 -140.36221 -129.16534z" fill-rule="nonzero"></path><path fill="#000000" fill-opacity="0.0" d="m511.8793 618.9064l43.8425 0" fill-rule="nonzero"></path><path stroke="#000000" stroke-width="4.0" stroke-linejoin="round" stroke-linecap="butt" d="m511.8793 618.9064l19.842499 0" fill-rule="evenodd"></path><path fill="#000000" stroke="#000000" stroke-width="4.0" stroke-linecap="butt" d="m531.7218 625.5133l18.152405 -6.6069336l-18.152405 -6.6069336z" fill-rule="evenodd"></path><path fill="#d9ead3" d="m399.7218 618.9064l0 0c0 -33.57196 25.1073 -60.787415 56.078735 -60.787415l0 0c14.873016 0 29.136871 6.404419 39.653656 17.80426c10.516815 11.399841 16.42511 26.861328 16.42511 42.983154l0 0c0 33.57196 -25.10733 60.787415 -56.078766 60.787415l0 0c-30.971436 0 -56.078735 -27.215454 -56.078735 -60.787415z" fill-rule="nonzero"></path><path stroke="#000000" stroke-width="1.0" stroke-linejoin="round" stroke-linecap="butt" d="m399.7218 618.9064l0 0c0 -33.57196 25.1073 -60.787415 56.078735 -60.787415l0 0c14.873016 0 29.136871 6.404419 39.653656 17.80426c10.516815 11.399841 16.42511 26.861328 16.42511 42.983154l0 0c0 33.57196 -25.10733 60.787415 -56.078766 60.787415l0 0c-30.971436 0 -56.078735 -27.215454 -56.078735 -60.787415z" fill-rule="nonzero"></path><path fill="#000000" d="m465.3474 598.3302l-7.625 26.484375l-0.859375 3.5625q-0.109375 0.5 -0.109375 0.859375q0 0.625 0.390625 1.09375q0.3125 0.34375 0.78125 0.34375q0.5 0 1.328125 -0.625q1.515625 -1.125 4.0625 -4.6875l1.328125 0.9375q-2.703125 4.0625 -5.5625 6.203125q-2.84375 2.125 -5.265625 2.125q-1.671875 0 -2.515625 -0.84375q-0.84375 -0.84375 -0.84375 -2.4375q0 -1.921875 0.859375 -5.046875l0.828125 -2.921875q-5.125 6.671875 -9.421875 9.328125q-3.078125 1.921875 -6.046875 1.921875q-2.859375 0 -4.9375 -2.359375q-2.0625 -2.375 -2.0625 -6.515625q0 -6.203125 3.734375 -13.09375q3.734375 -6.90625 9.46875 -11.046875q4.5 -3.28125 8.484375 -3.28125q2.375 0 3.953125 1.25q1.59375 1.25 2.40625 4.140625l1.40625 -4.453125l6.21875 -0.9375zm-13.90625 2.03125q-2.5 0 -5.3125 2.34375q-3.984375 3.328125 -7.09375 9.859375q-3.109375 6.515625 -3.109375 11.78125q0 2.65625 1.328125 4.203125q1.328125 1.546875 3.046875 1.546875q4.265625 0 9.265625 -6.296875q6.671875 -8.359375 6.671875 -17.140625q0 -3.328125 -1.296875 -4.8125q-1.28125 -1.484375 -3.5 -1.484375z" fill-rule="nonzero"></path><path fill="#000000" d="m482.4724 629.61145l-1.484375 4.078125l-12.5 0l0 -0.578125q5.515625 -5.03125 7.765625 -8.21875q2.25 -3.1875 2.25 -5.828125q0 -2.015625 -1.234375 -3.3125q-1.234375 -1.296875 -2.953125 -1.296875q-1.5625 0 -2.8125 0.921875q-1.234375 0.90625 -1.828125 2.671875l-0.578125 0q0.390625 -2.890625 2.0 -4.4375q1.625 -1.546875 4.046875 -1.546875q2.578125 0 4.296875 1.65625q1.734375 1.65625 1.734375 3.90625q0 1.609375 -0.75 3.21875q-1.15625 2.53125 -3.75 5.359375q-3.890625 4.25 -4.859375 5.125l5.53125 0q1.6875 0 2.359375 -0.125q0.6875 -0.125 1.234375 -0.5q0.546875 -0.390625 0.953125 -1.09375l0.578125 0z" fill-rule="nonzero"></path><path fill="#d9ead3" d="m555.7218 618.9064l0 0c0 -33.57196 25.1073 -60.787415 56.078735 -60.787415l0 0c14.873047 0 29.13684 6.404419 39.653687 17.80426c10.516785 11.399841 16.425049 26.861328 16.425049 42.983154l0 0c0 33.57196 -25.1073 60.787415 -56.078735 60.787415l0 0c-30.971436 0 -56.078735 -27.215454 -56.078735 -60.787415z" fill-rule="nonzero"></path><path stroke="#000000" stroke-width="1.0" stroke-linejoin="round" stroke-linecap="butt" d="m555.7218 618.9064l0 0c0 -33.57196 25.1073 -60.787415 56.078735 -60.787415l0 0c14.873047 0 29.13684 6.404419 39.653687 17.80426c10.516785 11.399841 16.425049 26.861328 16.425049 42.983154l0 0c0 33.57196 -25.1073 60.787415 -56.078735 60.787415l0 0c-30.971436 0 -56.078735 -27.215454 -56.078735 -60.787415z" fill-rule="nonzero"></path><path fill="#000000" d="m594.9529 599.2677l24.8125 0l0 0.984375l-27.03125 28.125l11.4375 0q4.0625 0 5.15625 -0.3125q1.09375 -0.3125 2.015625 -1.328125q0.921875 -1.015625 2.046875 -3.671875l1.453125 0l-3.40625 10.625l-25.4375 0l0 -1.140625l27.046875 -28.125l-11.25 0q-3.5625 0 -4.296875 0.203125q-1.09375 0.234375 -2.171875 1.234375q-1.078125 0.984375 -2.203125 3.296875l-1.484375 0l3.3125 -9.890625z" fill-rule="nonzero"></path><path fill="#000000" d="m634.0388 629.61145l-1.484375 4.078125l-12.5 0l0 -0.578125q5.515625 -5.03125 7.765625 -8.21875q2.25 -3.1875 2.25 -5.828125q0 -2.015625 -1.234375 -3.3125q-1.234375 -1.296875 -2.953125 -1.296875q-1.5625 0 -2.8125 0.921875q-1.234375 0.90625 -1.828125 2.671875l-0.578125 0q0.390625 -2.890625 2.0 -4.4375q1.625 -1.546875 4.046875 -1.546875q2.578125 0 4.296875 1.65625q1.734375 1.65625 1.734375 3.90625q0 1.609375 -0.75 3.21875q-1.15625 2.53125 -3.75 5.359375q-3.890625 4.25 -4.859375 5.125l5.53125 0q1.6875 0 2.359375 -0.125q0.6875 -0.125 1.234375 -0.5q0.546875 -0.390625 0.953125 -1.09375l0.578125 0z" fill-rule="nonzero"></path><path fill="#000000" fill-opacity="0.0" d="m495.80185 539.80316l82.01572 0l0 80.72443l-82.01572 0z" fill-rule="nonzero"></path><path fill="#000000" d="m516.5362 559.4219l-5.4843445 18.96875q3.5624695 -5.34375 5.5468445 -7.09375q2.0 -1.765625 3.8125 -1.765625q0.9375 0 1.5625 0.640625q0.625 0.640625 0.625 1.71875q0 1.28125 -0.546875 3.125l-2.390625 8.1875q-0.4375 1.484375 -0.4375 1.640625q0 0.265625 0.15625 0.453125q0.171875 0.171875 0.390625 0.171875q0.25 0 0.578125 -0.265625q1.109375 -0.859375 2.203125 -2.375l0.609375 0.375q-0.65625 1.03125 -1.84375 2.28125q-1.1875 1.234375 -2.03125 1.71875q-0.84375 0.46875 -1.515625 0.46875q-0.71875 0 -1.1875 -0.46875q-0.453125 -0.453125 -0.453125 -1.171875q0 -0.859375 0.6875 -3.203125l2.25 -7.8125q0.421875 -1.46875 0.421875 -2.3125q0 -0.390625 -0.25 -0.625q-0.234375 -0.234375 -0.625 -0.234375q-0.5625 0 -1.296875 0.4375q-1.328125 0.8125 -3.0625 3.046875q-0.46875 0.609375 -3.1249695 4.875q-0.8125 1.375 -1.34375 3.0l-1.25 4.0l-2.9375 0l6.4374695 -22.34375l0.671875 -2.421875q0 -0.515625 -0.421875 -0.90625q-0.40621948 -0.390625 -1.0155945 -0.390625q-0.359375 0 -1.078125 0.125l-0.40625 0.0625l0 -0.765625l6.7499695 -1.140625z" fill-rule="nonzero"></path><path fill="#000000" d="m537.2237 595.03125l0 0.734375q-2.953125 -1.484375 -4.921875 -3.484375q-2.8125 -2.828125 -4.34375 -6.671875q-1.515625 -3.859375 -1.515625 -8.0q0 -6.046875 2.984375 -11.03125q3.0 -5.0 7.796875 -7.15625l0 0.828125q-2.40625 1.328125 -3.953125 3.640625q-1.53125 2.296875 -2.296875 5.828125q-0.765625 3.53125 -0.765625 7.390625q0 4.171875 0.65625 7.59375q0.5 2.703125 1.21875 4.328125q0.734375 1.625 1.953125 3.125q1.21875 1.515625 3.1875 2.875zm11.8046875 -34.78125l0 -0.828125q2.96875 1.46875 4.9375 3.46875q2.796875 2.84375 4.3125 6.6875q1.53125 3.828125 1.53125 8.0q0 6.046875 -2.984375 11.03125q-2.984375 5.0 -7.796875 7.15625l0 -0.734375q2.390625 -1.34375 3.9375 -3.640625q1.5625 -2.296875 2.3125 -5.84375q0.75 -3.546875 0.75 -7.390625q0 -4.15625 -0.640625 -7.59375q-0.484375 -2.703125 -1.21875 -4.3125q-0.734375 -1.625 -1.953125 -3.125q-1.203125 -1.515625 -3.1875 -2.875z" fill-rule="nonzero"></path><path fill="#cfe2f3" d="m398.32703 954.8741l0 0c0 -71.33606 62.842285 -129.16534 140.36218 -129.16534l0 0c77.5199 0 140.36224 57.829285 140.36224 129.16534l0 0c0 71.33612 -62.842346 129.16534 -140.36224 129.16534l0 0c-77.5199 0 -140.36218 -57.829224 -140.36218 -129.16534z" fill-rule="nonzero"></path><path stroke="#000000" stroke-width="1.0" stroke-linejoin="round" stroke-linecap="butt" d="m398.32703 954.8741l0 0c0 -71.33606 62.842285 -129.16534 140.36218 -129.16534l0 0c77.5199 0 140.36224 57.829285 140.36224 129.16534l0 0c0 71.33612 -62.842346 129.16534 -140.36224 129.16534l0 0c-77.5199 0 -140.36218 -57.829224 -140.36218 -129.16534z" fill-rule="nonzero"></path><path fill="#000000" fill-opacity="0.0" d="m517.04987 954.8749l43.84253 0" fill-rule="nonzero"></path><path stroke="#000000" stroke-width="4.0" stroke-linejoin="round" stroke-linecap="butt" d="m517.0499 954.87494l19.84253 0" fill-rule="evenodd"></path><path fill="#000000" stroke="#000000" stroke-width="4.0" stroke-linecap="butt" d="m536.89246 961.4819l18.152344 -6.6069336l-18.152344 -6.6069336z" fill-rule="evenodd"></path><path fill="#d9ead3" d="m404.89243 954.8749l0 0c0 -33.57196 25.1073 -60.787415 56.078735 -60.787415l0 0c14.872986 0 29.13684 6.404419 39.653656 17.80426c10.516785 11.399841 16.425049 26.861328 16.425049 42.983154l0 0c0 33.57196 -25.10727 60.787415 -56.078705 60.787415l0 0c-30.971436 0 -56.078735 -27.215454 -56.078735 -60.787415z" fill-rule="nonzero"></path><path stroke="#000000" stroke-width="1.0" stroke-linejoin="round" stroke-linecap="butt" d="m404.89243 954.8749l0 0c0 -33.57196 25.1073 -60.787415 56.078735 -60.787415l0 0c14.872986 0 29.13684 6.404419 39.653656 17.80426c10.516785 11.399841 16.425049 26.861328 16.425049 42.983154l0 0c0 33.57196 -25.10727 60.787415 -56.078705 60.787415l0 0c-30.971436 0 -56.078735 -27.215454 -56.078735 -60.787415z" fill-rule="nonzero"></path><path fill="#000000" d="m470.51804 934.2987l-7.625 26.484375l-0.859375 3.5625q-0.109375 0.5 -0.109375 0.859375q0 0.625 0.390625 1.09375q0.3125 0.34375 0.78125 0.34375q0.5 0 1.328125 -0.625q1.515625 -1.125 4.0625 -4.6875l1.328125 0.9375q-2.703125 4.0625 -5.5625 6.203125q-2.84375 2.125 -5.265625 2.125q-1.671875 0 -2.515625 -0.84375q-0.84375 -0.84375 -0.84375 -2.4375q0 -1.921875 0.859375 -5.046875l0.828125 -2.921875q-5.125 6.671875 -9.421875 9.328125q-3.078125 1.921875 -6.046875 1.921875q-2.859375 0 -4.9375 -2.359375q-2.0625 -2.375 -2.0625 -6.515625q0 -6.203125 3.734375 -13.09375q3.734375 -6.90625 9.46875 -11.046875q4.5 -3.28125 8.484375 -3.28125q2.375 0 3.953125 1.25q1.59375 1.25 2.40625 4.140625l1.40625 -4.453125l6.21875 -0.9375zm-13.90625 2.03125q-2.5 0 -5.3125 2.34375q-3.984375 3.328125 -7.09375 9.859375q-3.109375 6.515625 -3.109375 11.78125q0 2.65625 1.328125 4.203125q1.328125 1.546875 3.046875 1.546875q4.265625 0 9.265625 -6.296875q6.671875 -8.359375 6.671875 -17.140625q0 -3.328125 -1.296875 -4.8125q-1.28125 -1.484375 -3.5 -1.484375z" fill-rule="nonzero"></path><path fill="#000000" d="m474.59616 952.50183q0.90625 -2.140625 2.28125 -3.296875q1.390625 -1.171875 3.453125 -1.171875q2.546875 0 3.90625 1.65625q1.03125 1.234375 1.03125 2.640625q0 2.3125 -2.90625 4.78125q1.953125 0.765625 2.953125 2.1875q1.0 1.421875 1.0 3.34375q0 2.75 -1.75 4.765625q-2.28125 2.625 -6.609375 2.625q-2.140625 0 -2.921875 -0.53125q-0.765625 -0.53125 -0.765625 -1.140625q0 -0.453125 0.359375 -0.796875q0.375 -0.34375 0.890625 -0.34375q0.390625 0 0.796875 0.125q0.265625 0.078125 1.203125 0.578125q0.9375 0.484375 1.296875 0.578125q0.578125 0.171875 1.234375 0.171875q1.59375 0 2.765625 -1.234375q1.1875 -1.234375 1.1875 -2.921875q0 -1.234375 -0.546875 -2.40625q-0.40625 -0.875 -0.890625 -1.328125q-0.671875 -0.625 -1.84375 -1.125q-1.171875 -0.515625 -2.390625 -0.515625l-0.5 0l0 -0.46875q1.234375 -0.15625 2.46875 -0.890625q1.25 -0.734375 1.8125 -1.765625q0.5625 -1.03125 0.5625 -2.265625q0 -1.609375 -1.015625 -2.59375q-1.0 -1.0 -2.5 -1.0q-2.421875 0 -4.046875 2.59375l-0.515625 -0.25z" fill-rule="nonzero"></path><path fill="#d9ead3" d="m560.8924 954.8749l0 0c0 -33.57196 25.1073 -60.787415 56.078735 -60.787415l0 0c14.873047 0 29.136902 6.404419 39.653687 17.80426c10.516785 11.399841 16.425049 26.861328 16.425049 42.983154l0 0c0 33.57196 -25.1073 60.787415 -56.078735 60.787415l0 0c-30.971436 0 -56.078735 -27.215454 -56.078735 -60.787415z" fill-rule="nonzero"></path><path stroke="#000000" stroke-width="1.0" stroke-linejoin="round" stroke-linecap="butt" d="m560.8924 954.8749l0 0c0 -33.57196 25.1073 -60.787415 56.078735 -60.787415l0 0c14.873047 0 29.136902 6.404419 39.653687 17.80426c10.516785 11.399841 16.425049 26.861328 16.425049 42.983154l0 0c0 33.57196 -25.1073 60.787415 -56.078735 60.787415l0 0c-30.971436 0 -56.078735 -27.215454 -56.078735 -60.787415z" fill-rule="nonzero"></path><path fill="#000000" d="m600.1235 935.2362l24.8125 0l0 0.984375l-27.03125 28.125l11.4375 0q4.0625 0 5.15625 -0.3125q1.09375 -0.3125 2.015625 -1.328125q0.921875 -1.015625 2.046875 -3.671875l1.453125 0l-3.40625 10.625l-25.4375 0l0 -1.140625l27.046875 -28.125l-11.25 0q-3.5625 0 -4.296875 0.203125q-1.09375 0.234375 -2.171875 1.234375q-1.078125 0.984375 -2.203125 3.296875l-1.484375 0l3.3125 -9.890625z" fill-rule="nonzero"></path><path fill="#000000" d="m626.16254 952.50183q0.90625 -2.140625 2.28125 -3.296875q1.390625 -1.171875 3.453125 -1.171875q2.546875 0 3.90625 1.65625q1.03125 1.234375 1.03125 2.640625q0 2.3125 -2.90625 4.78125q1.953125 0.765625 2.953125 2.1875q1.0 1.421875 1.0 3.34375q0 2.75 -1.75 4.765625q-2.28125 2.625 -6.609375 2.625q-2.140625 0 -2.921875 -0.53125q-0.765625 -0.53125 -0.765625 -1.140625q0 -0.453125 0.359375 -0.796875q0.375 -0.34375 0.890625 -0.34375q0.390625 0 0.796875 0.125q0.265625 0.078125 1.203125 0.578125q0.9375 0.484375 1.296875 0.578125q0.578125 0.171875 1.234375 0.171875q1.59375 0 2.765625 -1.234375q1.1875 -1.234375 1.1875 -2.921875q0 -1.234375 -0.546875 -2.40625q-0.40625 -0.875 -0.890625 -1.328125q-0.671875 -0.625 -1.84375 -1.125q-1.171875 -0.515625 -2.390625 -0.515625l-0.5 0l0 -0.46875q1.234375 -0.15625 2.46875 -0.890625q1.25 -0.734375 1.8125 -1.765625q0.5625 -1.03125 0.5625 -2.265625q0 -1.609375 -1.015625 -2.59375q-1.0 -1.0 -2.5 -1.0q-2.421875 0 -4.046875 2.59375l-0.515625 -0.25z" fill-rule="nonzero"></path><path fill="#000000" fill-opacity="0.0" d="m500.97244 875.77167l82.01572 0l0 80.724365l-82.01572 0z" fill-rule="nonzero"></path><path fill="#000000" d="m521.7068 895.3904l-5.484375 18.96875q3.5625 -5.34375 5.546875 -7.09375q2.0 -1.765625 3.8125 -1.765625q0.9375 0 1.5625 0.640625q0.625 0.640625 0.625 1.71875q0 1.28125 -0.546875 3.125l-2.390625 8.1875q-0.4375 1.484375 -0.4375 1.640625q0 0.265625 0.15625 0.453125q0.171875 0.171875 0.390625 0.171875q0.25 0 0.578125 -0.265625q1.109375 -0.859375 2.203125 -2.375l0.609375 0.375q-0.65625 1.03125 -1.84375 2.28125q-1.1875 1.234375 -2.03125 1.71875q-0.84375 0.46875 -1.515625 0.46875q-0.71875 0 -1.1875 -0.46875q-0.453125 -0.453125 -0.453125 -1.171875q0 -0.859375 0.6875 -3.203125l2.25 -7.8125q0.421875 -1.46875 0.421875 -2.3125q0 -0.390625 -0.25 -0.625q-0.234375 -0.234375 -0.625 -0.234375q-0.5625 0 -1.296875 0.4375q-1.328125 0.8125 -3.0625 3.046875q-0.46875 0.609375 -3.125 4.875q-0.8125 1.375 -1.34375 3.0l-1.25 4.0l-2.9374695 0l6.4374695 -22.34375l0.671875 -2.421875q0 -0.515625 -0.421875 -0.90625q-0.40625 -0.390625 -1.015625 -0.390625q-0.359375 0 -1.078125 0.125l-0.40625 0.0625l0 -0.765625l6.75 -1.140625z" fill-rule="nonzero"></path><path fill="#000000" d="m542.3943 930.99976l0 0.734375q-2.953125 -1.484375 -4.921875 -3.484375q-2.8125 -2.828125 -4.34375 -6.671875q-1.515625 -3.859375 -1.515625 -8.0q0 -6.046875 2.984375 -11.03125q3.0 -5.0 7.796875 -7.15625l0 0.828125q-2.40625 1.328125 -3.953125 3.640625q-1.53125 2.296875 -2.296875 5.828125q-0.765625 3.53125 -0.765625 7.390625q0 4.171875 0.65625 7.59375q0.5 2.703125 1.21875 4.328125q0.734375 1.625 1.953125 3.125q1.21875 1.515625 3.1875 2.875zm11.8046875 -34.78125l0 -0.828125q2.96875 1.46875 4.9375 3.46875q2.796875 2.84375 4.3125 6.6875q1.53125 3.828125 1.53125 8.0q0 6.046875 -2.984375 11.03125q-2.984375 5.0 -7.796875 7.15625l0 -0.734375q2.390625 -1.34375 3.9375 -3.640625q1.5625 -2.296875 2.3125 -5.84375q0.75 -3.546875 0.75 -7.390625q0 -4.15625 -0.640625 -7.59375q-0.484375 -2.703125 -1.21875 -4.3125q-0.734375 -1.625 -1.953125 -3.125q-1.203125 -1.515625 -3.1875 -2.875z" fill-rule="nonzero"></path><path fill="#000000" fill-opacity="0.0" d="m210.70341 351.31497l182.45668 267.59055" fill-rule="nonzero"></path><path stroke="#999999" stroke-width="4.0" stroke-linejoin="round" stroke-linecap="butt" d="m210.70341 351.31497l168.93617 247.76138" fill-rule="evenodd"></path><path fill="#999999" stroke="#999999" stroke-width="4.0" stroke-linecap="butt" d="m374.18085 602.7984l15.684967 11.275757l-4.7674866 -18.719849z" fill-rule="evenodd"></path><path fill="#000000" fill-opacity="0.0" d="m210.70341 351.31497l187.62206 603.5591" fill-rule="nonzero"></path><path stroke="#999999" stroke-width="4.0" stroke-linejoin="round" stroke-linecap="butt" d="m210.70341 351.31497l180.4977 580.64087" fill-rule="evenodd"></path><path fill="#999999" stroke="#999999" stroke-width="4.0" stroke-linecap="butt" d="m384.892 933.91705l11.697601 15.372925l0.9206543 -19.29541z" fill-rule="evenodd"></path><path fill="#000000" fill-opacity="0.0" d="m210.70341 618.9055l182.45668 0" fill-rule="nonzero"></path><path stroke="#999999" stroke-width="4.0" stroke-linejoin="round" stroke-linecap="butt" d="m210.70341 618.9055l158.45668 0" fill-rule="evenodd"></path><path fill="#999999" stroke="#999999" stroke-width="4.0" stroke-linecap="butt" d="m369.1601 625.51245l18.152405 -6.6069336l-18.152405 -6.6069336z" fill-rule="evenodd"></path><path fill="#000000" fill-opacity="0.0" d="m210.70341 618.9055l187.62206 335.9685" fill-rule="nonzero"></path><path stroke="#999999" stroke-width="4.0" stroke-linejoin="round" stroke-linecap="butt" d="m210.70341 618.9055l175.92027 315.01453" fill-rule="evenodd"></path><path fill="#999999" stroke="#999999" stroke-width="4.0" stroke-linecap="butt" d="m380.85532 937.1414l14.618988 12.627136l-3.0822144 -19.069885z" fill-rule="evenodd"></path><path fill="#000000" fill-opacity="0.0" d="m217.25984 886.4952l175.9055 -267.5905" fill-rule="nonzero"></path><path stroke="#999999" stroke-width="4.0" stroke-linejoin="round" stroke-linecap="butt" d="m217.25984 886.4952l162.72206 -247.53564" fill-rule="evenodd"></path><path fill="#999999" stroke="#999999" stroke-width="4.0" stroke-linecap="butt" d="m385.5028 642.58875l4.450409 -18.79773l-15.492157 11.539246z" fill-rule="evenodd"></path><path fill="#000000" fill-opacity="0.0" d="m217.25984 886.4952l181.07088 68.37799" fill-rule="nonzero"></path><path stroke="#999999" stroke-width="4.0" stroke-linejoin="round" stroke-linecap="butt" d="m217.25984 886.4952l158.61845 59.89917" fill-rule="evenodd"></path><path fill="#999999" stroke="#999999" stroke-width="4.0" stroke-linecap="butt" d="m373.5442 952.57526l19.315979 0.23199463l-14.647766 -12.59375z" fill-rule="evenodd"></path><path fill="#000000" fill-opacity="0.0" d="m286.0 214.0l69.88977 0l0 68.37796l-69.88977 0z" fill-rule="nonzero"></path><path fill="#000000" d="m300.60938 251.08687q-1.734375 -2.203125 -2.953125 -5.15625q-1.203125 -2.953125 -1.203125 -6.109375q0 -2.796875 0.90625 -5.34375q1.046875 -2.9687347 3.25 -5.9062347l1.515625 0q-1.421875 2.4375 -1.875 3.4687347q-0.71875 1.625 -1.125 3.375q-0.5 2.203125 -0.5 4.40625q0 5.640625 3.5 11.265625l-1.515625 0zm11.3203125 -5.046875l-2.109375 0l0 -13.4375q-0.75 0.71875 -2.0 1.453125q-1.234375 0.71875 -2.21875 1.078125l0 -2.03125q1.78125 -0.828125 3.09375 -2.0156097q1.328125 -1.1875 1.875 -2.296875l1.359375 0l0 17.249985zm7.3789062 5.046875l-1.515625 0q3.5 -5.625 3.5 -11.265625q0 -2.203125 -0.5 -4.359375q-0.390625 -1.765625 -1.109375 -3.375q-0.453125 -1.0624847 -1.890625 -3.5156097l1.515625 0q2.203125 2.9375 3.25 5.9062347q0.90625 2.546875 0.90625 5.34375q0 3.15625 -1.21875 6.109375q-1.203125 2.953125 -2.9375 5.15625z" fill-rule="nonzero"></path><path fill="#000000" fill-opacity="0.0" d="m300.0 320.73227l69.88977 0l0 68.37796l-69.88977 0z" fill-rule="nonzero"></path><path fill="#000000" d="m314.60938 357.81915q-1.734375 -2.203125 -2.953125 -5.15625q-1.203125 -2.953125 -1.203125 -6.109375q0 -2.796875 0.90625 -5.34375q1.046875 -2.96875 3.25 -5.90625l1.515625 0q-1.421875 2.4375 -1.875 3.46875q-0.71875 1.625 -1.125 3.375q-0.5 2.203125 -0.5 4.40625q0 5.640625 3.5 11.265625l-1.515625 0zm11.3203125 -5.046875l-2.109375 0l0 -13.4375q-0.75 0.71875 -2.0 1.453125q-1.234375 0.71875 -2.21875 1.078125l0 -2.03125q1.78125 -0.828125 3.09375 -2.015625q1.328125 -1.1875 1.875 -2.296875l1.359375 0l0 17.25zm7.3789062 5.046875l-1.515625 0q3.5 -5.625 3.5 -11.265625q0 -2.203125 -0.5 -4.359375q-0.390625 -1.765625 -1.109375 -3.375q-0.453125 -1.0625 -1.890625 -3.515625l1.515625 0q2.203125 2.9375 3.25 5.90625q0.90625 2.546875 0.90625 5.34375q0 3.15625 -1.21875 6.109375q-1.203125 2.953125 -2.9375 5.15625z" fill-rule="nonzero"></path><path fill="#000000" fill-opacity="0.0" d="m193.85564 740.07086l69.889755 0l0 68.37793l-69.889755 0z" fill-rule="nonzero"></path><path fill="#000000" d="m208.46501 777.1577q-1.734375 -2.203125 -2.953125 -5.15625q-1.203125 -2.953125 -1.203125 -6.109375q0 -2.796875 0.90625 -5.34375q1.046875 -2.96875 3.25 -5.90625l1.515625 0q-1.421875 2.4375 -1.875 3.46875q-0.71875 1.625 -1.125 3.375q-0.5 2.203125 -0.5 4.40625q0 5.640625 3.5 11.265625l-1.515625 0zm11.3203125 -5.046875l-2.109375 0l0 -13.4375q-0.75 0.71875 -2.0 1.453125q-1.234375 0.71875 -2.21875 1.078125l0 -2.03125q1.78125 -0.828125 3.09375 -2.015625q1.328125 -1.1875 1.875 -2.296875l1.359375 0l0 17.25zm7.3789062 5.046875l-1.515625 0q3.5 -5.625 3.5 -11.265625q0 -2.203125 -0.5 -4.359375q-0.390625 -1.765625 -1.109375 -3.375q-0.453125 -1.0625 -1.890625 -3.515625l1.515625 0q2.203125 2.9375 3.25 5.90625q0.90625 2.546875 0.90625 5.34375q0 3.15625 -1.21875 6.109375q-1.203125 2.953125 -2.9375 5.15625z" fill-rule="nonzero"></path><path fill="#000000" fill-opacity="0.0" d="m460.0 228.32283l69.88977 0l0 68.377945l-69.88977 0z" fill-rule="nonzero"></path><path fill="#000000" d="m474.60938 265.4097q-1.734375 -2.203125 -2.953125 -5.15625q-1.203125 -2.953125 -1.203125 -6.1093597q0 -2.796875 0.90625 -5.34375q1.046875 -2.96875 3.25 -5.90625l1.515625 0q-1.421875 2.4375 -1.875 3.46875q-0.71875 1.625 -1.125 3.375q-0.5 2.203125 -0.5 4.40625q0 5.6406097 3.5 11.26561l-1.515625 0zm11.3203125 -5.046875l-2.109375 0l0 -13.437485q-0.75 0.71875 -2.0 1.453125q-1.234375 0.71875 -2.21875 1.078125l0 -2.03125q1.78125 -0.828125 3.09375 -2.015625q1.328125 -1.1875 1.875 -2.296875l1.359375 0l0 17.249985zm7.3789062 5.046875l-1.515625 0q3.5 -5.625 3.5 -11.26561q0 -2.203125 -0.5 -4.359375q-0.390625 -1.765625 -1.109375 -3.375q-0.453125 -1.0625 -1.890625 -3.515625l1.515625 0q2.203125 2.9375 3.25 5.90625q0.90625 2.546875 0.90625 5.34375q0 3.1562347 -1.21875 6.1093597q-1.203125 2.953125 -2.9375 5.15625z" fill-rule="nonzero"></path><path fill="#000000" fill-opacity="0.0" d="m458.07874 566.2913l69.88977 0l0 68.37799l-69.88977 0z" fill-rule="nonzero"></path><path fill="#000000" d="m472.6881 603.37823q-1.734375 -2.203125 -2.953125 -5.15625q-1.203125 -2.953125 -1.203125 -6.109375q0 -2.796875 0.90625 -5.34375q1.046875 -2.96875 3.25 -5.90625l1.515625 0q-1.421875 2.4375 -1.875 3.46875q-0.71875 1.625 -1.125 3.375q-0.5 2.203125 -0.5 4.40625q0 5.640625 3.5 11.265625l-1.515625 0zm11.3203125 -5.046875l-2.109375 0l0 -13.4375q-0.75 0.71875 -2.0 1.453125q-1.234375 0.71875 -2.21875 1.078125l0 -2.03125q1.78125 -0.828125 3.09375 -2.015625q1.328125 -1.1875 1.875 -2.296875l1.359375 0l0 17.25zm7.3789062 5.046875l-1.515625 0q3.5 -5.625 3.5 -11.265625q0 -2.203125 -0.5 -4.359375q-0.390625 -1.765625 -1.109375 -3.375q-0.453125 -1.0625 -1.890625 -3.515625l1.515625 0q2.203125 2.9375 3.25 5.90625q0.90625 2.546875 0.90625 5.34375q0 3.15625 -1.21875 6.109375q-1.203125 2.953125 -2.9375 5.15625z" fill-rule="nonzero"></path><path fill="#000000" fill-opacity="0.0" d="m460.0 900.0866l69.88977 0l0 68.37793l-69.88977 0z" fill-rule="nonzero"></path><path fill="#000000" d="m474.60938 937.17346q-1.734375 -2.203125 -2.953125 -5.15625q-1.203125 -2.953125 -1.203125 -6.109375q0 -2.796875 0.90625 -5.34375q1.046875 -2.96875 3.25 -5.90625l1.515625 0q-1.421875 2.4375 -1.875 3.46875q-0.71875 1.625 -1.125 3.375q-0.5 2.203125 -0.5 4.40625q0 5.640625 3.5 11.265625l-1.515625 0zm11.3203125 -5.046875l-2.109375 0l0 -13.4375q-0.75 0.71875 -2.0 1.453125q-1.234375 0.71875 -2.21875 1.078125l0 -2.03125q1.78125 -0.828125 3.09375 -2.015625q1.328125 -1.1875 1.875 -2.296875l1.359375 0l0 17.25zm7.3789062 5.046875l-1.515625 0q3.5 -5.625 3.5 -11.265625q0 -2.203125 -0.5 -4.359375q-0.390625 -1.765625 -1.109375 -3.375q-0.453125 -1.0625 -1.890625 -3.515625l1.515625 0q2.203125 2.9375 3.25 5.90625q0.90625 2.546875 0.90625 5.34375q0 3.15625 -1.21875 6.109375q-1.203125 2.953125 -2.9375 5.15625z" fill-rule="nonzero"></path><path fill="#000000" fill-opacity="0.0" d="m616.0 224.3622l104.0 0l0 47.65355l-104.0 0z" fill-rule="nonzero"></path><path fill="#000000" d="m630.6094 261.44907q-1.734375 -2.203125 -2.953125 -5.15625q-1.203125 -2.9531097 -1.203125 -6.1093597q0 -2.796875 0.90625 -5.34375q1.046875 -2.96875 3.25 -5.90625l1.515625 0q-1.421875 2.4375 -1.875 3.46875q-0.71875 1.625 -1.125 3.375q-0.5 2.203125 -0.5 4.40625q0 5.640625 3.5 11.26561l-1.515625 0zm11.3203125 -5.046875l-2.109375 0l0 -13.437485q-0.75 0.71875 -2.0 1.453125q-1.234375 0.71875 -2.21875 1.078125l0 -2.03125q1.78125 -0.828125 3.09375 -2.015625q1.328125 -1.1875 1.875 -2.296875l1.359375 0l0 17.249985zm7.3789062 5.046875l-1.515625 0q3.5 -5.6249847 3.5 -11.26561q0 -2.203125 -0.5 -4.359375q-0.390625 -1.765625 -1.109375 -3.375q-0.453125 -1.0625 -1.890625 -3.515625l1.515625 0q2.203125 2.9375 3.25 5.90625q0.90625 2.546875 0.90625 5.34375q0 3.15625 -1.21875 6.1093597q-1.203125 2.953125 -2.9375 5.15625z" fill-rule="nonzero"></path><path fill="#000000" fill-opacity="0.0" d="m616.0 562.71655l69.88977 0l0 47.653503l-69.88977 0z" fill-rule="nonzero"></path><path fill="#000000" d="m630.6094 599.8034q-1.734375 -2.203125 -2.953125 -5.15625q-1.203125 -2.953125 -1.203125 -6.109375q0 -2.796875 0.90625 -5.34375q1.046875 -2.96875 3.25 -5.90625l1.515625 0q-1.421875 2.4375 -1.875 3.46875q-0.71875 1.625 -1.125 3.375q-0.5 2.203125 -0.5 4.40625q0 5.640625 3.5 11.265625l-1.515625 0zm11.3203125 -5.046875l-2.109375 0l0 -13.4375q-0.75 0.71875 -2.0 1.453125q-1.234375 0.71875 -2.21875 1.078125l0 -2.03125q1.78125 -0.828125 3.09375 -2.015625q1.328125 -1.1875 1.875 -2.296875l1.359375 0l0 17.25zm7.3789062 5.046875l-1.515625 0q3.5 -5.625 3.5 -11.265625q0 -2.203125 -0.5 -4.359375q-0.390625 -1.765625 -1.109375 -3.375q-0.453125 -1.0625 -1.890625 -3.515625l1.515625 0q2.203125 2.9375 3.25 5.90625q0.90625 2.546875 0.90625 5.34375q0 3.15625 -1.21875 6.109375q-1.203125 2.953125 -2.9375 5.15625z" fill-rule="nonzero"></path><path fill="#000000" fill-opacity="0.0" d="m618.0 896.0866l69.88977 0l0 47.653564l-69.88977 0z" fill-rule="nonzero"></path><path fill="#000000" d="m632.6094 933.17346q-1.734375 -2.203125 -2.953125 -5.15625q-1.203125 -2.953125 -1.203125 -6.109375q0 -2.796875 0.90625 -5.34375q1.046875 -2.96875 3.25 -5.90625l1.515625 0q-1.421875 2.4375 -1.875 3.46875q-0.71875 1.625 -1.125 3.375q-0.5 2.203125 -0.5 4.40625q0 5.640625 3.5 11.265625l-1.515625 0zm11.3203125 -5.046875l-2.109375 0l0 -13.4375q-0.75 0.71875 -2.0 1.453125q-1.234375 0.71875 -2.21875 1.078125l0 -2.03125q1.78125 -0.828125 3.09375 -2.015625q1.328125 -1.1875 1.875 -2.296875l1.359375 0l0 17.25zm7.3789062 5.046875l-1.515625 0q3.5 -5.625 3.5 -11.265625q0 -2.203125 -0.5 -4.359375q-0.390625 -1.765625 -1.109375 -3.375q-0.453125 -1.0625 -1.890625 -3.515625l1.515625 0q2.203125 2.9375 3.25 5.90625q0.90625 2.546875 0.90625 5.34375q0 3.15625 -1.21875 6.109375q-1.203125 2.953125 -2.9375 5.15625z" fill-rule="nonzero"></path><path fill="#fff2cc" d="m477.44095 60.787403l0 0c0 -33.571957 25.1073 -60.787403 56.078766 -60.787403l0 0c14.872986 0 29.13684 6.4043684 39.653625 17.804218c10.516785 11.399849 16.42511 26.861362 16.42511 42.983185l0 0c0 33.571957 -25.10736 60.787403 -56.078735 60.787403l0 0c-30.971466 0 -56.078766 -27.215446 -56.078766 -60.787403z" fill-rule="nonzero"></path><path stroke="#000000" stroke-width="1.0" stroke-linejoin="round" stroke-linecap="butt" d="m477.44095 60.787403l0 0c0 -33.571957 25.1073 -60.787403 56.078766 -60.787403l0 0c14.872986 0 29.13684 6.4043684 39.653625 17.804218c10.516785 11.399849 16.42511 26.861362 16.42511 42.983185l0 0c0 33.571957 -25.10736 60.787403 -56.078735 60.787403l0 0c-30.971466 0 -56.078766 -27.215446 -56.078766 -60.787403z" fill-rule="nonzero"></path><path fill="#000000" d="m522.8947 41.80615l12.890564 -6.28125l1.296875 0l0 44.718746q0 4.453125 0.359375 5.546875q0.375 1.09375 1.546875 1.6875q1.171875 0.578125 4.765625 0.65625l0 1.453125l-19.921814 0l0 -1.453125q3.749939 -0.078125 4.843689 -0.640625q1.09375 -0.5625 1.515625 -1.515625q0.4375 -0.96875 0.4375 -5.734375l0 -28.593746q0 -5.78125 -0.390625 -7.421875q-0.265625 -1.25 -1.0 -1.828125q-0.71875 -0.59375 -1.734375 -0.59375q-1.4375 0 -4.015564 1.21875l-0.59375 -1.21875z" fill-rule="nonzero"></path><path fill="#fff2cc" d="m930.54596 351.31497l0 0c0 -33.57196 25.1073 -60.787415 56.078735 -60.787415l0 0c14.872986 0 29.13684 6.404358 39.653625 17.80423c10.516846 11.399841 16.425049 26.861359 16.425049 42.983185l0 0c0 33.57193 -25.107239 60.787384 -56.078674 60.787384l0 0c-30.971436 0 -56.078735 -27.215454 -56.078735 -60.787384z" fill-rule="nonzero"></path><path stroke="#000000" stroke-width="1.0" stroke-linejoin="round" stroke-linecap="butt" d="m930.54596 351.31497l0 0c0 -33.57196 25.1073 -60.787415 56.078735 -60.787415l0 0c14.872986 0 29.13684 6.404358 39.653625 17.80423c10.516846 11.399841 16.425049 26.861359 16.425049 42.983185l0 0c0 33.57193 -25.107239 60.787384 -56.078674 60.787384l0 0c-30.971436 0 -56.078735 -27.215454 -56.078735 -60.787384z" fill-rule="nonzero"></path><path fill="#000000" d="m975.9997 332.3337l12.890625 -6.28125l1.296875 0l0 44.71875q0 4.453125 0.359375 5.546875q0.375 1.09375 1.546875 1.6875q1.171875 0.578125 4.765625 0.65625l0 1.453125l-19.921875 0l0 -1.453125q3.75 -0.078125 4.84375 -0.640625q1.09375 -0.5625 1.515625 -1.515625q0.4375 -0.96875 0.4375 -5.734375l0 -28.59375q0 -5.78125 -0.390625 -7.421875q-0.265625 -1.25 -1.0 -1.828125q-0.71875 -0.59375 -1.734375 -0.59375q-1.4375 0 -4.015625 1.21875l-0.59375 -1.21875z" fill-rule="nonzero"></path><path fill="#cfe2f3" d="m930.54596 618.9055l0 0c0 -33.57196 25.1073 -60.787415 56.078735 -60.787415l0 0c14.872986 0 29.13684 6.404358 39.653625 17.8042c10.516846 11.399902 16.425049 26.86139 16.425049 42.983215l0 0c0 33.57196 -25.107239 60.787415 -56.078674 60.787415l0 0c-30.971436 0 -56.078735 -27.215454 -56.078735 -60.787415z" fill-rule="nonzero"></path><path stroke="#000000" stroke-width="1.0" stroke-linejoin="round" stroke-linecap="butt" d="m930.54596 618.9055l0 0c0 -33.57196 25.1073 -60.787415 56.078735 -60.787415l0 0c14.872986 0 29.13684 6.404358 39.653625 17.8042c10.516846 11.399902 16.425049 26.86139 16.425049 42.983215l0 0c0 33.57196 -25.107239 60.787415 -56.078674 60.787415l0 0c-30.971436 0 -56.078735 -27.215454 -56.078735 -60.787415z" fill-rule="nonzero"></path><path fill="#cfe2f3" d="m930.54596 886.49603l0 0c0 -33.5719 25.1073 -60.787354 56.078735 -60.787354l0 0c14.872986 0 29.13684 6.404358 39.653625 17.8042c10.516846 11.399841 16.425049 26.86139 16.425049 42.983154l0 0c0 33.57196 -25.107239 60.787415 -56.078674 60.787415l0 0c-30.971436 0 -56.078735 -27.215454 -56.078735 -60.787415z" fill-rule="nonzero"></path><path stroke="#000000" stroke-width="1.0" stroke-linejoin="round" stroke-linecap="butt" d="m930.54596 886.49603l0 0c0 -33.5719 25.1073 -60.787354 56.078735 -60.787354l0 0c14.872986 0 29.13684 6.404358 39.653625 17.8042c10.516846 11.399841 16.425049 26.86139 16.425049 42.983154l0 0c0 33.57196 -25.107239 60.787415 -56.078674 60.787415l0 0c-30.971436 0 -56.078735 -27.215454 -56.078735 -60.787415z" fill-rule="nonzero"></path><path fill="#000000" fill-opacity="0.0" d="m673.8808 282.9371l256.66144 603.5591" fill-rule="nonzero"></path><path stroke="#999999" stroke-width="4.0" stroke-linejoin="round" stroke-linecap="butt" d="m673.8808 282.9371l247.26947 581.47314" fill-rule="evenodd"></path><path fill="#999999" stroke="#999999" stroke-width="4.0" stroke-linecap="butt" d="m915.07025 866.99567l13.183655 14.119202l-1.0236206 -19.290222z" fill-rule="evenodd"></path><path fill="#000000" fill-opacity="0.0" d="m673.8808 618.9056l256.66144 267.59058" fill-rule="nonzero"></path><path stroke="#999999" stroke-width="4.0" stroke-linejoin="round" stroke-linecap="butt" d="m673.8808 618.9056l240.04828 250.26996" fill-rule="evenodd"></path><path fill="#999999" stroke="#999999" stroke-width="4.0" stroke-linecap="butt" d="m909.1609 873.74896l17.333557 8.527039l-7.79718 -17.67389z" fill-rule="evenodd"></path><path fill="#000000" fill-opacity="0.0" d="m679.05145 954.8741l251.49603 -68.37793" fill-rule="nonzero"></path><path stroke="#999999" stroke-width="4.0" stroke-linejoin="round" stroke-linecap="butt" d="m679.05145 954.8741l228.33673 -62.0813" fill-rule="evenodd"></path><path fill="#999999" stroke="#999999" stroke-width="4.0" stroke-linecap="butt" d="m909.1216 899.1683l15.783142 -11.137939l-19.249939 -1.6130371z" fill-rule="evenodd"></path><path fill="#000000" fill-opacity="0.0" d="m673.8808 282.9371l256.66144 335.96848" fill-rule="nonzero"></path><path stroke="#999999" stroke-width="4.0" stroke-linejoin="round" stroke-linecap="butt" d="m673.8808 282.9371l242.0918 316.89688" fill-rule="evenodd"></path><path fill="#999999" stroke="#999999" stroke-width="4.0" stroke-linecap="butt" d="m910.7224 603.84485l16.269958 10.41394l-5.7695923 -18.435669z" fill-rule="evenodd"></path><path fill="#000000" fill-opacity="0.0" d="m673.8808 618.9056l256.66144 0" fill-rule="nonzero"></path><path stroke="#999999" stroke-width="4.0" stroke-linejoin="round" stroke-linecap="butt" d="m673.8808 618.9056l232.66144 0" fill-rule="evenodd"></path><path fill="#999999" stroke="#999999" stroke-width="4.0" stroke-linecap="butt" d="m906.54224 625.5125l18.152405 -6.6069336l-18.152405 -6.6069336z" fill-rule="evenodd"></path><path fill="#000000" fill-opacity="0.0" d="m679.05145 954.8741l251.49603 -335.9685" fill-rule="nonzero"></path><path stroke="#999999" stroke-width="4.0" stroke-linejoin="round" stroke-linecap="butt" d="m679.05145 954.8741l237.11365 -316.7553" fill-rule="evenodd"></path><path fill="#999999" stroke="#999999" stroke-width="4.0" stroke-linecap="butt" d="m921.4542 642.07806l5.5889893 -18.49115l-16.167297 10.57251z" fill-rule="evenodd"></path><path fill="#000000" fill-opacity="0.0" d="m589.59845 60.787403l340.9449 558.1102" fill-rule="nonzero"></path><path stroke="#999999" stroke-width="4.0" stroke-linejoin="round" stroke-linecap="butt" d="m589.59845 60.787403l328.4333 537.62946" fill-rule="evenodd"></path><path fill="#999999" stroke="#999999" stroke-width="4.0" stroke-linecap="butt" d="m912.3937 601.86115l15.101196 12.046326l-3.8249512 -18.934875z" fill-rule="evenodd"></path><path fill="#000000" fill-opacity="0.0" d="m589.59845 60.787403l340.9449 825.70074" fill-rule="nonzero"></path><path stroke="#999999" stroke-width="4.0" stroke-linejoin="round" stroke-linecap="butt" d="m589.59845 60.787403l331.78497 803.5175" fill-rule="evenodd"></path><path fill="#999999" stroke="#999999" stroke-width="4.0" stroke-linecap="butt" d="m915.2767 866.82654l13.034851 14.256714l-0.821228 -19.299927z" fill-rule="evenodd"></path><path fill="#cfe2f3" d="m1457.2599 485.11023l0 0c0 -33.57196 25.1073 -60.787384 56.078735 -60.787384l0 0c14.872925 0 29.13684 6.404358 39.653564 17.8042c10.516846 11.399872 16.42517 26.861359 16.42517 42.983185l0 0c0 33.57196 -25.1073 60.787415 -56.078735 60.787415l0 0c-30.971436 0 -56.078735 -27.215454 -56.078735 -60.787415z" fill-rule="nonzero"></path><path stroke="#000000" stroke-width="1.0" stroke-linejoin="round" stroke-linecap="butt" d="m1457.2599 485.11023l0 0c0 -33.57196 25.1073 -60.787384 56.078735 -60.787384l0 0c14.872925 0 29.13684 6.404358 39.653564 17.8042c10.516846 11.399872 16.42517 26.861359 16.42517 42.983185l0 0c0 33.57196 -25.1073 60.787415 -56.078735 60.787415l0 0c-30.971436 0 -56.078735 -27.215454 -56.078735 -60.787415z" fill-rule="nonzero"></path><path fill="#000000" d="m1500.366 464.53406q1.328125 2.265625 1.828125 4.25q0.515625 1.96875 1.015625 7.75l1.71875 19.21875q2.34375 -2.8125 6.796875 -8.90625q2.15625 -2.96875 5.3125 -8.09375q1.921875 -3.125 2.34375 -4.375q0.234375 -0.625 0.234375 -1.28125q0 -0.4375 -0.28125 -0.703125q-0.265625 -0.28125 -1.421875 -0.640625q-1.140625 -0.375 -1.90625 -1.375q-0.765625 -1.0 -0.765625 -2.28125q0 -1.609375 0.9375 -2.578125q0.9375 -0.984375 2.34375 -0.984375q1.71875 0 2.921875 1.4375q1.21875 1.421875 1.21875 3.921875q0 3.078125 -2.109375 7.046875q-2.109375 3.96875 -8.125 12.171875q-6.015625 8.203125 -14.5625 17.890625q-5.90625 6.6875 -8.765625 8.421875q-2.84375 1.734375 -4.875 1.734375q-1.21875 0 -2.125 -0.921875q-0.921875 -0.90625 -0.921875 -2.125q0 -1.515625 1.265625 -2.765625q1.265625 -1.25 2.75 -1.25q0.78125 0 1.296875 0.34375q0.3125 0.203125 0.6875 1.109375q0.375 0.921875 0.6875 1.234375q0.1875 0.203125 0.46875 0.203125q0.234375 0 0.8125 -0.390625q2.15625 -1.328125 5.0 -4.21875q3.75 -3.828125 5.546875 -6.25l-2.1875 -24.78125q-0.546875 -6.125 -1.640625 -7.453125q-1.09375 -1.328125 -3.671875 -1.328125q-0.8125 0 -2.921875 0.234375l-0.359375 -1.453125l11.453125 -2.8125z" fill-rule="nonzero"></path><path fill="#000000" d="m1526.8425 480.78406l5.15625 -2.515625l0.515625 0l0 17.890625q0 1.78125 0.140625 2.21875q0.15625 0.4375 0.625 0.671875q0.46875 0.234375 1.90625 0.265625l0 0.578125l-7.96875 0l0 -0.578125q1.5 -0.03125 1.9375 -0.25q0.4375 -0.234375 0.609375 -0.609375q0.171875 -0.390625 0.171875 -2.296875l0 -11.4375q0 -2.3125 -0.15625 -2.96875q-0.109375 -0.5 -0.40625 -0.734375q-0.28125 -0.234375 -0.6875 -0.234375q-0.578125 0 -1.609375 0.484375l-0.234375 -0.484375z" fill-rule="nonzero"></path><path fill="#cfe2f3" d="m1457.2599 752.7008l0 0c0 -33.57196 25.1073 -60.787415 56.078735 -60.787415l0 0c14.872925 0 29.13684 6.404358 39.653564 17.8042c10.516846 11.399841 16.42517 26.86139 16.42517 42.983215l0 0c0 33.57196 -25.1073 60.787354 -56.078735 60.787354l0 0c-30.971436 0 -56.078735 -27.215393 -56.078735 -60.787354z" fill-rule="nonzero"></path><path stroke="#000000" stroke-width="1.0" stroke-linejoin="round" stroke-linecap="butt" d="m1457.2599 752.7008l0 0c0 -33.57196 25.1073 -60.787415 56.078735 -60.787415l0 0c14.872925 0 29.13684 6.404358 39.653564 17.8042c10.516846 11.399841 16.42517 26.86139 16.42517 42.983215l0 0c0 33.57196 -25.1073 60.787354 -56.078735 60.787354l0 0c-30.971436 0 -56.078735 -27.215393 -56.078735 -60.787354z" fill-rule="nonzero"></path><path fill="#000000" d="m1500.366 732.1246q1.328125 2.265625 1.828125 4.25q0.515625 1.96875 1.015625 7.75l1.71875 19.21875q2.34375 -2.8125 6.796875 -8.90625q2.15625 -2.96875 5.3125 -8.09375q1.921875 -3.125 2.34375 -4.375q0.234375 -0.625 0.234375 -1.28125q0 -0.4375 -0.28125 -0.703125q-0.265625 -0.28125 -1.421875 -0.640625q-1.140625 -0.375 -1.90625 -1.375q-0.765625 -1.0 -0.765625 -2.28125q0 -1.609375 0.9375 -2.578125q0.9375 -0.984375 2.34375 -0.984375q1.71875 0 2.921875 1.4375q1.21875 1.421875 1.21875 3.921875q0 3.078125 -2.109375 7.046875q-2.109375 3.96875 -8.125 12.171875q-6.015625 8.203125 -14.5625 17.890625q-5.90625 6.6875 -8.765625 8.421875q-2.84375 1.734375 -4.875 1.734375q-1.21875 0 -2.125 -0.921875q-0.921875 -0.90625 -0.921875 -2.125q0 -1.515625 1.265625 -2.765625q1.265625 -1.25 2.75 -1.25q0.78125 0 1.296875 0.34375q0.3125 0.203125 0.6875 1.109375q0.375 0.921875 0.6875 1.234375q0.1875 0.203125 0.46875 0.203125q0.234375 0 0.8125 -0.390625q2.15625 -1.328125 5.0 -4.21875q3.75 -3.828125 5.546875 -6.25l-2.1875 -24.78125q-0.546875 -6.125 -1.640625 -7.453125q-1.09375 -1.328125 -3.671875 -1.328125q-0.8125 0 -2.921875 0.234375l-0.359375 -1.453125l11.453125 -2.8125z" fill-rule="nonzero"></path><path fill="#000000" d="m1537.7644 763.4058l-1.484375 4.078125l-12.5 0l0 -0.578125q5.515625 -5.03125 7.765625 -8.21875q2.25 -3.1875 2.25 -5.828125q0 -2.015625 -1.234375 -3.3125q-1.234375 -1.296875 -2.953125 -1.296875q-1.5625 0 -2.8125 0.921875q-1.234375 0.90625 -1.828125 2.671875l-0.578125 0q0.390625 -2.890625 2.0 -4.4375q1.625 -1.546875 4.046875 -1.546875q2.578125 0 4.296875 1.65625q1.734375 1.65625 1.734375 3.90625q0 1.609375 -0.75 3.21875q-1.15625 2.53125 -3.75 5.359375q-3.890625 4.25 -4.859375 5.125l5.53125 0q1.6875 0 2.359375 -0.125q0.6875 -0.125 1.234375 -0.5q0.546875 -0.390625 0.953125 -1.09375l0.578125 0z" fill-rule="nonzero"></path><path fill="#000000" fill-opacity="0.0" d="m1042.7034 351.31497l414.55127 133.79526" fill-rule="nonzero"></path><path stroke="#999999" stroke-width="4.0" stroke-linejoin="round" stroke-linecap="butt" d="m1042.7034 351.31497l391.7113 126.42374" fill-rule="evenodd"></path><path fill="#999999" stroke="#999999" stroke-width="4.0" stroke-linecap="butt" d="m1432.3854 484.02628l19.304321 -0.71209717l-15.245728 -11.863037z" fill-rule="evenodd"></path><path fill="#000000" fill-opacity="0.0" d="m1042.7086 351.31497l414.55127 401.38583" fill-rule="nonzero"></path><path stroke="#999999" stroke-width="4.0" stroke-linejoin="round" stroke-linecap="butt" d="m1042.7086 351.31497l397.30908 384.69125" fill-rule="evenodd"></path><path fill="#999999" stroke="#999999" stroke-width="4.0" stroke-linecap="butt" d="m1435.4219 740.7528l17.636963 7.880371l-8.4453125 -17.373535z" fill-rule="evenodd"></path><path fill="#000000" fill-opacity="0.0" d="m1042.7034 618.9055l414.55127 -133.79529" fill-rule="nonzero"></path><path stroke="#999999" stroke-width="4.0" stroke-linejoin="round" stroke-linecap="butt" d="m1042.7034 618.9055l391.7113 -126.42377" fill-rule="evenodd"></path><path fill="#999999" stroke="#999999" stroke-width="4.0" stroke-linecap="butt" d="m1436.444 498.76932l15.245728 -11.863007l-19.304321 -0.7121277z" fill-rule="evenodd"></path><path fill="#000000" fill-opacity="0.0" d="m1042.7034 886.49603l414.55127 -401.3858" fill-rule="nonzero"></path><path stroke="#999999" stroke-width="4.0" stroke-linejoin="round" stroke-linecap="butt" d="m1042.7034 886.49603l397.30908 -384.69125" fill-rule="evenodd"></path><path fill="#999999" stroke="#999999" stroke-width="4.0" stroke-linecap="butt" d="m1444.6083 506.55136l8.4453125 -17.373474l-17.636963 7.8803406z" fill-rule="evenodd"></path><path fill="#000000" fill-opacity="0.0" d="m1042.7034 618.9055l414.55127 133.79529" fill-rule="nonzero"></path><path stroke="#999999" stroke-width="4.0" stroke-linejoin="round" stroke-linecap="butt" d="m1042.7034 618.9055l391.7113 126.42377" fill-rule="evenodd"></path><path fill="#999999" stroke="#999999" stroke-width="4.0" stroke-linecap="butt" d="m1432.3854 751.6168l19.304321 -0.71209717l-15.245728 -11.863037z" fill-rule="evenodd"></path><path fill="#000000" fill-opacity="0.0" d="m1042.7034 886.49603l414.55127 -133.79523" fill-rule="nonzero"></path><path stroke="#999999" stroke-width="4.0" stroke-linejoin="round" stroke-linecap="butt" d="m1042.7034 886.49603l391.7113 -126.42377" fill-rule="evenodd"></path><path fill="#999999" stroke="#999999" stroke-width="4.0" stroke-linecap="butt" d="m1436.444 766.35986l15.245728 -11.862976l-19.304321 -0.7121582z" fill-rule="evenodd"></path></g></svg>

