<?xml version="1.0" standalone="yes"?>

<svg version="1.1" viewBox="0.0 0.0 841.9658792650919 932.0603674540682" fill="none" stroke="none" stroke-linecap="square" stroke-miterlimit="10" xmlns="http://www.w3.org/2000/svg" xmlns:xlink="http://www.w3.org/1999/xlink"><clipPath id="p.0"><path d="m0 0l841.9659 0l0 932.06036l-841.9659 0l0 -932.06036z" clip-rule="nonzero"></path></clipPath><g clip-path="url(#p.0)"><path fill="#000000" fill-opacity="0.0" d="m0 0l841.9659 0l0 932.06036l-841.9659 0z" fill-rule="nonzero"></path><path fill="#cfe2f3" d="m156.30708 222.16011l0 0c0 -33.57196 25.107315 -60.787415 56.07875 -60.787415l0 0c14.873001 0 29.13684 6.404373 39.653656 17.80423c10.516785 11.399841 16.42508 26.861359 16.42508 42.983185l0 0c0 33.571945 -25.107315 60.7874 -56.078735 60.7874l0 0c-30.971436 0 -56.07875 -27.215454 -56.07875 -60.7874z" fill-rule="nonzero"></path><path stroke="#000000" stroke-width="1.0" stroke-linejoin="round" stroke-linecap="butt" d="m156.30708 222.16011l0 0c0 -33.57196 25.107315 -60.787415 56.07875 -60.787415l0 0c14.873001 0 29.13684 6.404373 39.653656 17.80423c10.516785 11.399841 16.42508 26.861359 16.42508 42.983185l0 0c0 33.571945 -25.107315 60.7874 -56.078735 60.7874l0 0c-30.971436 0 -56.07875 -27.215454 -56.07875 -60.7874z" fill-rule="nonzero"></path><path fill="#000000" d="m200.50693 201.58391q1.90625 2.03125 2.890625 4.0625q0.703125 1.40625 2.2968597 7.390625l3.4375 -5.15625q1.375 -1.875 3.328125 -3.578125q1.953125 -1.703125 3.4375 -2.328125q0.9375 -0.390625 2.0625 -0.390625q1.6875 0 2.671875 0.90625q1.0 0.890625 1.0 2.1875q0 1.484375 -0.578125 2.03125q-1.09375 0.96875 -2.5 0.96875q-0.828125 0 -1.765625 -0.34375q-1.828125 -0.625 -2.453125 -0.625q-0.9375 0 -2.234375 1.09375q-2.421875 2.03125 -5.78125 7.84375l3.203125 13.4375q0.75 3.09375 1.25 3.703125q0.515625 0.59375 1.015625 0.59375q0.828125 0 1.921875 -0.890625q2.140625 -1.796875 3.671875 -4.6875l1.359375 0.703125q-2.453125 4.609375 -6.25 7.65625q-2.140625 1.71875 -3.625 1.71875q-2.1875 0 -3.484375 -2.46875q-0.81248474 -1.515625 -3.3906097 -13.125q-6.09375 10.59375 -9.765625 13.640625q-2.390625 1.953125 -4.609375 1.953125q-1.578125 0 -2.859375 -1.140625q-0.9375 -0.859375 -0.9375 -2.296875q0 -1.296875 0.859375 -2.15625q0.859375 -0.859375 2.109375 -0.859375q1.25 0 2.65625 1.25q1.015625 0.90625 1.5625 0.90625q0.46875 0 1.21875 -0.625q1.828125 -1.484375 4.984375 -6.40625q3.171875 -4.921875 4.15625 -7.109375q-2.421875 -9.5 -2.625 -10.046875q-0.890625 -2.53125 -2.34375 -3.578125q-1.4375 -1.0625 -4.25 -1.0625q-0.90625 0 -2.078125 0.078125l0 -1.40625l10.4375 -1.84375z" fill-rule="nonzero"></path><path fill="#000000" d="m225.88972 217.83391l5.15625 -2.515625l0.515625 0l0 17.890625q0 1.78125 0.140625 2.21875q0.15625 0.4375 0.625 0.671875q0.46875 0.234375 1.90625 0.265625l0 0.578125l-7.96875 0l0 -0.578125q1.5 -0.03125 1.9375 -0.25q0.4375 -0.234375 0.609375 -0.609375q0.171875 -0.390625 0.171875 -2.296875l0 -11.4375q0 -2.3125 -0.15625 -2.96875q-0.109375 -0.5 -0.40625 -0.734375q-0.28125 -0.234375 -0.6875 -0.234375q-0.578125 0 -1.609375 0.484375l-0.234375 -0.484375z" fill-rule="nonzero"></path><path fill="#cfe2f3" d="m157.73491 363.33246l0 0c0 -33.57196 25.1073 -60.787415 56.078735 -60.787415l0 0c14.873016 0 29.136856 6.4043884 39.653656 17.80423c10.5168 11.399841 16.425095 26.861359 16.425095 42.983185l0 0c0 33.57196 -25.107315 60.787415 -56.07875 60.787415l0 0c-30.971436 0 -56.078735 -27.215454 -56.078735 -60.787415z" fill-rule="nonzero"></path><path stroke="#000000" stroke-width="1.0" stroke-linejoin="round" stroke-linecap="butt" d="m157.73491 363.33246l0 0c0 -33.57196 25.1073 -60.787415 56.078735 -60.787415l0 0c14.873016 0 29.136856 6.4043884 39.653656 17.80423c10.5168 11.399841 16.425095 26.861359 16.425095 42.983185l0 0c0 33.57196 -25.107315 60.787415 -56.07875 60.787415l0 0c-30.971436 0 -56.078735 -27.215454 -56.078735 -60.787415z" fill-rule="nonzero"></path><path fill="#000000" d="m201.93474 345.77307q1.90625 2.03125 2.890625 4.0625q0.703125 1.40625 2.296875 7.390625l3.4375 -5.15625q1.375 -1.875 3.328125 -3.578125q1.953125 -1.703125 3.4375 -2.328125q0.9375 -0.390625 2.0625 -0.390625q1.6875 0 2.671875 0.90625q1.0 0.890625 1.0 2.1875q0 1.484375 -0.578125 2.03125q-1.09375 0.96875 -2.5 0.96875q-0.828125 0 -1.765625 -0.34375q-1.828125 -0.625 -2.453125 -0.625q-0.9375 0 -2.234375 1.09375q-2.421875 2.03125 -5.78125 7.84375l3.203125 13.4375q0.75 3.09375 1.25 3.703125q0.515625 0.59375 1.015625 0.59375q0.828125 0 1.921875 -0.890625q2.140625 -1.796875 3.671875 -4.6875l1.359375 0.703125q-2.453125 4.609375 -6.25 7.65625q-2.140625 1.71875 -3.625 1.71875q-2.1875 0 -3.484375 -2.46875q-0.8125 -1.515625 -3.390625 -13.125q-6.09375 10.59375 -9.765625 13.640625q-2.390625 1.953125 -4.609375 1.953125q-1.578125 0 -2.859375 -1.140625q-0.9375 -0.859375 -0.9375 -2.296875q0 -1.296875 0.859375 -2.15625q0.859375 -0.859375 2.109375 -0.859375q1.25 0 2.65625 1.25q1.015625 0.90625 1.5625 0.90625q0.46875 0 1.21875 -0.625q1.828125 -1.484375 4.984375 -6.40625q3.171875 -4.921875 4.15625 -7.109375q-2.421875 -9.5 -2.625 -10.046875q-0.890625 -2.53125 -2.34375 -3.578125q-1.4375 -1.0625 -4.25 -1.0625q-0.90625 0 -2.078125 0.078125l0 -1.40625l10.4375 -1.84375z" fill-rule="nonzero"></path><path fill="#000000" d="m238.23943 377.05432l-1.484375 4.078125l-12.5 0l0 -0.578125q5.515625 -5.03125 7.765625 -8.21875q2.25 -3.1875 2.25 -5.828125q0 -2.015625 -1.234375 -3.3125q-1.234375 -1.296875 -2.953125 -1.296875q-1.5625 0 -2.8125 0.921875q-1.234375 0.90625 -1.828125 2.671875l-0.578125 0q0.390625 -2.890625 2.0 -4.4375q1.625 -1.546875 4.046875 -1.546875q2.578125 0 4.296875 1.65625q1.734375 1.65625 1.734375 3.90625q0 1.609375 -0.75 3.21875q-1.15625 2.53125 -3.75 5.359375q-3.890625 4.25 -4.859375 5.125l5.53125 0q1.6875 0 2.359375 -0.125q0.6875 -0.125 1.234375 -0.5q0.546875 -0.390625 0.953125 -1.09375l0.578125 0z" fill-rule="nonzero"></path><path fill="#cfe2f3" d="m432.80054 222.16098l0 0c0 -33.57196 25.10733 -60.7874 56.078766 -60.7874l0 0c14.872986 0 29.13681 6.404373 39.653656 17.804214c10.516785 11.399857 16.425049 26.861359 16.425049 42.983185l0 0c0 33.57196 -25.1073 60.787415 -56.078705 60.787415l0 0c-30.971436 0 -56.078766 -27.215454 -56.078766 -60.787415z" fill-rule="nonzero"></path><path stroke="#000000" stroke-width="1.0" stroke-linejoin="round" stroke-linecap="butt" d="m432.80054 222.16098l0 0c0 -33.57196 25.10733 -60.7874 56.078766 -60.7874l0 0c14.872986 0 29.13681 6.404373 39.653656 17.804214c10.516785 11.399857 16.425049 26.861359 16.425049 42.983185l0 0c0 33.57196 -25.1073 60.787415 -56.078705 60.787415l0 0c-30.971436 0 -56.078766 -27.215454 -56.078766 -60.787415z" fill-rule="nonzero"></path><path fill="#000000" d="m483.90662 201.5848q1.328125 2.265625 1.828125 4.25q0.515625 1.96875 1.015625 7.75l1.71875 19.21875q2.34375 -2.8125 6.796875 -8.90625q2.15625 -2.96875 5.3125 -8.09375q1.921875 -3.125 2.34375 -4.375q0.234375 -0.625 0.234375 -1.28125q0 -0.4375 -0.28125 -0.703125q-0.265625 -0.28125 -1.421875 -0.640625q-1.140625 -0.375 -1.90625 -1.375q-0.765625 -1.0 -0.765625 -2.28125q0 -1.609375 0.9375 -2.578125q0.9375 -0.984375 2.34375 -0.984375q1.71875 0 2.921875 1.4375q1.21875 1.421875 1.21875 3.921875q0 3.078125 -2.109375 7.046875q-2.109375 3.96875 -8.125 12.171875q-6.015625 8.203125 -14.5625 17.890625q-5.9062195 6.6875 -8.7655945 8.421875q-2.84375 1.734375 -4.875 1.734375q-1.21875 0 -2.125 -0.921875q-0.921875 -0.90625 -0.921875 -2.125q0 -1.515625 1.265625 -2.765625q1.265625 -1.25 2.75 -1.25q0.78125 0 1.296875 0.34375q0.3125 0.203125 0.6875 1.109375q0.375 0.921875 0.6875 1.234375q0.1875 0.203125 0.46875 0.203125q0.234375 0 0.8125 -0.390625q2.15625 -1.328125 5.0 -4.21875q3.7499695 -3.828125 5.5468445 -6.25l-2.1874695 -24.78125q-0.546875 -6.125 -1.640625 -7.453125q-1.09375 -1.328125 -3.671875 -1.328125q-0.8125 0 -2.921875 0.234375l-0.359375 -1.453125l11.4530945 -2.8125z" fill-rule="nonzero"></path><path fill="#000000" fill-opacity="0.0" d="m281.58792 141.77428l133.98425 0l0 71.46457l-133.98425 0z" fill-rule="nonzero"></path><path fill="#000000" d="m317.40042 172.16531l2.15625 23.4375q5.4375 -6.375 8.6875 -11.96875q1.90625 -3.28125 1.90625 -4.75q0 -0.6875 -0.3125 -1.21875q-0.125 -0.28125 -0.984375 -0.828125q-0.859375 -0.546875 -1.203125 -1.125q-0.34375 -0.578125 -0.34375 -1.234375q0 -0.96875 0.71875 -1.640625q0.71875 -0.671875 1.84375 -0.671875q1.28125 0 2.171875 0.953125q0.890625 0.953125 0.890625 2.546875q0 1.625 -0.46875 3.03125q-0.9375 2.6875 -3.65625 6.9375q-3.3125 5.09375 -6.828125 9.453125q-3.515625 4.359375 -5.234375 6.109375l-1.15625 0l-2.03125 -21.625l-12.90625 21.625l-1.375 0q-0.21875 -13.34375 -1.34375 -21.0625q-0.46875 -3.21875 -1.5625 -4.21875q-0.78125 -0.71875 -2.375 -0.71875q-0.90625 0 -2.3125 0.1875l0 -1.125l8.96875 -2.09375q1.875 5.21875 2.4375 16.03125q0.1875 4.09375 0.3125 5.15625l12.84375 -21.1875l1.15625 0z" fill-rule="nonzero"></path><path fill="#000000" d="m337.02542 181.33719l5.15625 -2.515625l0.515625 0l0 17.890625q0 1.78125 0.140625 2.21875q0.15625 0.4375 0.625 0.671875q0.46875 0.234375 1.90625 0.265625l0 0.578125l-7.96875 0l0 -0.578125q1.5 -0.03125 1.9375 -0.25q0.4375 -0.234375 0.609375 -0.609375q0.171875 -0.390625 0.171875 -2.296875l0 -11.4375q0 -2.3125 -0.15625 -2.96875q-0.109375 -0.5 -0.40625 -0.734375q-0.28125 -0.234375 -0.6875 -0.234375q-0.578125 0 -1.609375 0.484375l-0.234375 -0.484375z" fill-rule="nonzero"></path><path fill="#000000" fill-opacity="0.0" d="m268.46457 222.16011l164.34647 0" fill-rule="nonzero"></path><path stroke="#000000" stroke-width="4.0" stroke-linejoin="round" stroke-linecap="butt" d="m268.46457 222.16011l140.34647 0" fill-rule="evenodd"></path><path fill="#000000" stroke="#000000" stroke-width="4.0" stroke-linecap="butt" d="m408.81104 228.76703l18.152374 -6.6069183l-18.152374 -6.6069336z" fill-rule="evenodd"></path><path fill="#000000" fill-opacity="0.0" d="m269.8924 363.33246l162.89764 -141.16536" fill-rule="nonzero"></path><path stroke="#000000" stroke-width="4.0" stroke-linejoin="round" stroke-linecap="butt" d="m269.8924 363.33246l144.7604 -125.447815" fill-rule="evenodd"></path><path fill="#000000" stroke="#000000" stroke-width="4.0" stroke-linecap="butt" d="m418.97964 242.87761l9.391235 -16.880936l-18.044952 6.8949738z" fill-rule="evenodd"></path><path fill="#000000" fill-opacity="0.0" d="m324.23874 300.95538l112.15747 0l0 47.653534l-112.15747 0z" fill-rule="nonzero"></path><path fill="#000000" d="m360.05124 319.4409l2.15625 23.4375q5.4375 -6.375 8.6875 -11.96875q1.90625 -3.28125 1.90625 -4.75q0 -0.6875 -0.3125 -1.21875q-0.125 -0.28125 -0.984375 -0.828125q-0.859375 -0.546875 -1.203125 -1.125q-0.34375 -0.578125 -0.34375 -1.234375q0 -0.96875 0.71875 -1.640625q0.71875 -0.671875 1.84375 -0.671875q1.28125 0 2.171875 0.953125q0.890625 0.953125 0.890625 2.546875q0 1.625 -0.46875 3.03125q-0.9375 2.6875 -3.65625 6.9375q-3.3125 5.09375 -6.828125 9.453125q-3.515625 4.359375 -5.234375 6.109375l-1.15625 0l-2.03125 -21.625l-12.90625 21.625l-1.375 0q-0.21875 -13.34375 -1.34375 -21.0625q-0.46875 -3.21875 -1.5625 -4.21875q-0.78125 -0.71875 -2.375 -0.71875q-0.90625 0 -2.3125 0.1875l0 -1.125l8.96875 -2.09375q1.875 5.21875 2.4375 16.03125q0.1875 4.09375 0.3125 5.15625l12.84375 -21.1875l1.15625 0z" fill-rule="nonzero"></path><path fill="#000000" d="m390.5981 343.644l-1.484375 4.078125l-12.5 0l0 -0.578125q5.515625 -5.03125 7.765625 -8.21875q2.25 -3.1875 2.25 -5.828125q0 -2.015625 -1.234375 -3.3125q-1.234375 -1.296875 -2.953125 -1.296875q-1.5625 0 -2.8125 0.921875q-1.234375 0.90625 -1.828125 2.671875l-0.578125 0q0.390625 -2.890625 2.0 -4.4375q1.625 -1.546875 4.046875 -1.546875q2.578125 0 4.296875 1.65625q1.734375 1.65625 1.734375 3.90625q0 1.609375 -0.75 3.21875q-1.15625 2.53125 -3.75 5.359375q-3.890625 4.25 -4.859375 5.125l5.53125 0q1.6875 0 2.359375 -0.125q0.6875 -0.125 1.234375 -0.5q0.546875 -0.390625 0.953125 -1.09375l0.578125 0z" fill-rule="nonzero"></path><path fill="#cfe2f3" d="m156.30708 80.98688l0 0c0 -33.571957 25.107315 -60.787403 56.07875 -60.787403l0 0c14.873001 0 29.13684 6.4043694 39.653656 17.804218c10.516785 11.399849 16.42508 26.861366 16.42508 42.983185l0 0c0 33.571953 -25.107315 60.7874 -56.078735 60.7874l0 0c-30.971436 0 -56.07875 -27.215446 -56.07875 -60.7874z" fill-rule="nonzero"></path><path stroke="#000000" stroke-width="1.0" stroke-linejoin="round" stroke-linecap="butt" d="m156.30708 80.98688l0 0c0 -33.571957 25.107315 -60.787403 56.07875 -60.787403l0 0c14.873001 0 29.13684 6.4043694 39.653656 17.804218c10.516785 11.399849 16.42508 26.861366 16.42508 42.983185l0 0c0 33.571953 -25.107315 60.7874 -56.078735 60.7874l0 0c-30.971436 0 -56.07875 -27.215446 -56.07875 -60.7874z" fill-rule="nonzero"></path><path fill="#000000" d="m201.76083 62.005623l12.89061 -6.28125l1.296875 0l0 44.71875q0 4.453125 0.359375 5.546875q0.375 1.09375 1.546875 1.6875q1.171875 0.578125 4.765625 0.65625l0 1.453125l-19.92186 0l0 -1.453125q3.7499847 -0.078125 4.8437347 -0.640625q1.09375 -0.5625 1.515625 -1.515625q0.4375 -0.96875 0.4375 -5.734375l0 -28.59375q0 -5.78125 -0.390625 -7.421875q-0.265625 -1.25 -1.0 -1.828125q-0.71875 -0.59375 -1.734375 -0.59375q-1.4375 0 -4.0156097 1.21875l-0.59375 -1.21875z" fill-rule="nonzero"></path><path fill="#000000" fill-opacity="0.0" d="m268.46457 80.98688l164.34647 141.16536" fill-rule="nonzero"></path><path stroke="#000000" stroke-width="4.0" stroke-linejoin="round" stroke-linecap="butt" d="m268.46457 80.98688l146.1406 125.52742" fill-rule="evenodd"></path><path fill="#000000" stroke="#000000" stroke-width="4.0" stroke-linecap="butt" d="m410.30017 211.52615l18.074982 6.8158875l-9.465057 -16.83963z" fill-rule="evenodd"></path><path fill="#000000" fill-opacity="0.0" d="m334.44357 53.7979l56.787384 0l0 80.72441l-56.787384 0z" fill-rule="nonzero"></path><path fill="#000000" d="m361.91232 72.662605l-6.15625 21.59375q3.0 -3.125 5.234375 -4.28125q2.234375 -1.15625 4.671875 -1.15625q3.4375 0 5.625 2.28125q2.1875 2.28125 2.1875 6.1875q0 5.03125 -2.875 10.015625q-2.875 4.984375 -7.21875 7.765625q-4.34375 2.7812424 -8.5625 2.7812424q-4.71875 0 -9.6875 -3.5312424l9.5 -32.71875q1.09375 -3.78125 1.09375 -4.4375q0 -0.8125 -0.5 -1.21875q-0.71875 -0.5625 -2.125 -0.5625q-0.65625 0 -2.0 0.21875l0 -1.1875l10.8125 -1.75zm-12.09375 42.0q3.125 1.71875 5.5 1.71875q2.75 0 5.703125 -2.015625q2.953125 -2.015625 5.125 -6.796875q2.171875 -4.78125 2.171875 -9.65625q0 -2.875 -1.421875 -4.5q-1.421875 -1.625 -3.359375 -1.625q-2.90625 0 -5.6875 2.328125q-2.78125 2.328125 -3.96875 6.484375l-4.0625 14.0625z" fill-rule="nonzero"></path><path fill="#cfe2f3" d="m145.65617 706.46716l0 0c0 -33.5719 25.1073 -60.787354 56.078735 -60.787354l0 0c14.873001 0 29.136856 6.404358 39.653656 17.8042c10.5168 11.399841 16.425095 26.86139 16.425095 42.983154l0 0c0 33.57196 -25.107315 60.787415 -56.07875 60.787415l0 0c-30.971436 0 -56.078735 -27.215454 -56.078735 -60.787415z" fill-rule="nonzero"></path><path stroke="#000000" stroke-width="1.0" stroke-linejoin="round" stroke-linecap="butt" d="m145.65617 706.46716l0 0c0 -33.5719 25.1073 -60.787354 56.078735 -60.787354l0 0c14.873001 0 29.136856 6.404358 39.653656 17.8042c10.5168 11.399841 16.425095 26.86139 16.425095 42.983154l0 0c0 33.57196 -25.107315 60.787415 -56.07875 60.787415l0 0c-30.971436 0 -56.078735 -27.215454 -56.078735 -60.787415z" fill-rule="nonzero"></path><path fill="#000000" d="m189.856 685.891q1.90625 2.03125 2.890625 4.0625q0.703125 1.40625 2.296875 7.390625l3.4375 -5.15625q1.375 -1.875 3.328125 -3.578125q1.953125 -1.703125 3.4375 -2.328125q0.9375 -0.390625 2.0625 -0.390625q1.6875 0 2.671875 0.90625q1.0 0.890625 1.0 2.1875q0 1.484375 -0.578125 2.03125q-1.09375 0.96875 -2.5 0.96875q-0.828125 0 -1.765625 -0.34375q-1.828125 -0.625 -2.453125 -0.625q-0.9375 0 -2.234375 1.09375q-2.421875 2.03125 -5.78125 7.84375l3.203125 13.4375q0.75 3.09375 1.25 3.703125q0.515625 0.59375 1.015625 0.59375q0.828125 0 1.921875 -0.890625q2.140625 -1.796875 3.671875 -4.6875l1.359375 0.703125q-2.453125 4.609375 -6.25 7.65625q-2.140625 1.71875 -3.625 1.71875q-2.1875 0 -3.484375 -2.46875q-0.8125 -1.515625 -3.390625 -13.125q-6.09375 10.59375 -9.765625 13.640625q-2.390625 1.953125 -4.609375 1.953125q-1.578125 0 -2.859375 -1.140625q-0.9375 -0.859375 -0.9375 -2.296875q0 -1.296875 0.859375 -2.15625q0.859375 -0.859375 2.109375 -0.859375q1.25 0 2.65625 1.25q1.015625 0.90625 1.5625 0.90625q0.46875 0 1.21875 -0.625q1.828125 -1.484375 4.984375 -6.40625q3.171875 -4.921875 4.15625 -7.109375q-2.421875 -9.5 -2.625 -10.046875q-0.890625 -2.53125 -2.34375 -3.578125q-1.4375 -1.0625 -4.25 -1.0625q-0.90625 0 -2.078125 0.078125l0 -1.40625l10.4375 -1.84375z" fill-rule="nonzero"></path><path fill="#000000" d="m215.23882 702.141l5.15625 -2.515625l0.515625 0l0 17.890625q0 1.78125 0.140625 2.21875q0.15625 0.4375 0.625 0.671875q0.46875 0.234375 1.90625 0.265625l0 0.578125l-7.96875 0l0 -0.578125q1.5 -0.03125 1.9375 -0.25q0.4375 -0.234375 0.609375 -0.609375q0.171875 -0.390625 0.171875 -2.296875l0 -11.4375q0 -2.3125 -0.15625 -2.96875q-0.109375 -0.5 -0.40625 -0.734375q-0.28125 -0.234375 -0.6875 -0.234375q-0.578125 0 -1.609375 0.484375l-0.234375 -0.484375z" fill-rule="nonzero"></path><path fill="#cfe2f3" d="m147.08398 847.6395l0 0c0 -33.57196 25.107315 -60.787354 56.07875 -60.787354l0 0c14.873001 0 29.13684 6.404358 39.653656 17.8042c10.5168 11.399841 16.425064 26.861328 16.425064 42.983154l0 0c0 33.57196 -25.1073 60.787415 -56.07872 60.787415l0 0c-30.971436 0 -56.07875 -27.215454 -56.07875 -60.787415z" fill-rule="nonzero"></path><path stroke="#000000" stroke-width="1.0" stroke-linejoin="round" stroke-linecap="butt" d="m147.08398 847.6395l0 0c0 -33.57196 25.107315 -60.787354 56.07875 -60.787354l0 0c14.873001 0 29.13684 6.404358 39.653656 17.8042c10.5168 11.399841 16.425064 26.861328 16.425064 42.983154l0 0c0 33.57196 -25.1073 60.787415 -56.07872 60.787415l0 0c-30.971436 0 -56.07875 -27.215454 -56.07875 -60.787415z" fill-rule="nonzero"></path><path fill="#000000" d="m191.28383 830.08014q1.90625 2.03125 2.890625 4.0625q0.703125 1.40625 2.296875 7.390625l3.4375 -5.15625q1.375 -1.875 3.328125 -3.578125q1.953125 -1.703125 3.4375 -2.328125q0.9375 -0.390625 2.0625 -0.390625q1.6875 0 2.671875 0.90625q1.0 0.890625 1.0 2.1875q0 1.484375 -0.578125 2.03125q-1.09375 0.96875 -2.5 0.96875q-0.828125 0 -1.765625 -0.34375q-1.828125 -0.625 -2.453125 -0.625q-0.9375 0 -2.234375 1.09375q-2.421875 2.03125 -5.78125 7.84375l3.203125 13.4375q0.75 3.09375 1.25 3.703125q0.515625 0.59375 1.015625 0.59375q0.828125 0 1.921875 -0.890625q2.140625 -1.796875 3.671875 -4.6875l1.359375 0.703125q-2.453125 4.609375 -6.25 7.65625q-2.140625 1.71875 -3.625 1.71875q-2.1875 0 -3.484375 -2.46875q-0.8125 -1.515625 -3.390625 -13.125q-6.09375 10.59375 -9.765625 13.640625q-2.390625 1.953125 -4.609375 1.953125q-1.578125 0 -2.859375 -1.140625q-0.9375 -0.859375 -0.9375 -2.296875q0 -1.296875 0.859375 -2.15625q0.859375 -0.859375 2.109375 -0.859375q1.25 0 2.65625 1.25q1.015625 0.90625 1.5625 0.90625q0.46875 0 1.21875 -0.625q1.828125 -1.484375 4.984375 -6.40625q3.171875 -4.921875 4.15625 -7.109375q-2.421875 -9.5 -2.625 -10.046875q-0.890625 -2.53125 -2.34375 -3.578125q-1.4375 -1.0625 -4.25 -1.0625q-0.90625 0 -2.078125 0.078125l0 -1.40625l10.4375 -1.84375z" fill-rule="nonzero"></path><path fill="#000000" d="m227.58852 861.3614l-1.484375 4.078125l-12.5 0l0 -0.578125q5.515625 -5.03125 7.765625 -8.21875q2.25 -3.1875 2.25 -5.828125q0 -2.015625 -1.234375 -3.3125q-1.234375 -1.296875 -2.953125 -1.296875q-1.5625 0 -2.8125 0.921875q-1.234375 0.90625 -1.828125 2.671875l-0.578125 0q0.390625 -2.890625 2.0 -4.4375q1.625 -1.546875 4.046875 -1.546875q2.578125 0 4.296875 1.65625q1.734375 1.65625 1.734375 3.90625q0 1.609375 -0.75 3.21875q-1.15625 2.53125 -3.75 5.359375q-3.890625 4.25 -4.859375 5.125l5.53125 0q1.6875 0 2.359375 -0.125q0.6875 -0.125 1.234375 -0.5q0.546875 -0.390625 0.953125 -1.09375l0.578125 0z" fill-rule="nonzero"></path><path fill="#cfe2f3" d="m415.58423 712.4673l0 0c0 -71.33606 62.842316 -129.16534 140.36218 -129.16534l0 0c77.51996 0 140.36224 57.829285 140.36224 129.16534l0 0c0 71.33606 -62.842285 129.16534 -140.36224 129.16534l0 0c-77.51987 0 -140.36218 -57.829285 -140.36218 -129.16534z" fill-rule="nonzero"></path><path stroke="#000000" stroke-width="1.0" stroke-linejoin="round" stroke-linecap="butt" d="m415.58423 712.4673l0 0c0 -71.33606 62.842316 -129.16534 140.36218 -129.16534l0 0c77.51996 0 140.36224 57.829285 140.36224 129.16534l0 0c0 71.33606 -62.842285 129.16534 -140.36224 129.16534l0 0c-77.51987 0 -140.36218 -57.829285 -140.36218 -129.16534z" fill-rule="nonzero"></path><path fill="#000000" fill-opacity="0.0" d="m281.58792 649.90027l98.99213 0l0 47.653564l-98.99213 0z" fill-rule="nonzero"></path><path fill="#000000" d="m317.40042 668.3858l2.15625 23.4375q5.4375 -6.375 8.6875 -11.96875q1.90625 -3.28125 1.90625 -4.75q0 -0.6875 -0.3125 -1.21875q-0.125 -0.28125 -0.984375 -0.828125q-0.859375 -0.546875 -1.203125 -1.125q-0.34375 -0.578125 -0.34375 -1.234375q0 -0.96875 0.71875 -1.640625q0.71875 -0.671875 1.84375 -0.671875q1.28125 0 2.171875 0.953125q0.890625 0.953125 0.890625 2.546875q0 1.625 -0.46875 3.03125q-0.9375 2.6875 -3.65625 6.9375q-3.3125 5.09375 -6.828125 9.453125q-3.515625 4.359375 -5.234375 6.109375l-1.15625 0l-2.03125 -21.625l-12.90625 21.625l-1.375 0q-0.21875 -13.34375 -1.34375 -21.0625q-0.46875 -3.21875 -1.5625 -4.21875q-0.78125 -0.71875 -2.375 -0.71875q-0.90625 0 -2.3125 0.1875l0 -1.125l8.96875 -2.09375q1.875 5.21875 2.4375 16.03125q0.1875 4.09375 0.3125 5.15625l12.84375 -21.1875l1.15625 0z" fill-rule="nonzero"></path><path fill="#000000" d="m337.02542 677.5577l5.15625 -2.515625l0.515625 0l0 17.890625q0 1.78125 0.140625 2.21875q0.15625 0.4375 0.625 0.671875q0.46875 0.234375 1.90625 0.265625l0 0.578125l-7.96875 0l0 -0.578125q1.5 -0.03125 1.9375 -0.25q0.4375 -0.234375 0.609375 -0.609375q0.171875 -0.390625 0.171875 -2.296875l0 -11.4375q0 -2.3125 -0.15625 -2.96875q-0.109375 -0.5 -0.40625 -0.734375q-0.28125 -0.234375 -0.6875 -0.234375q-0.578125 0 -1.609375 0.484375l-0.234375 -0.484375z" fill-rule="nonzero"></path><path fill="#000000" fill-opacity="0.0" d="m257.81366 706.46716l157.76376 6.015747" fill-rule="nonzero"></path><path stroke="#000000" stroke-width="4.0" stroke-linejoin="round" stroke-linecap="butt" d="m257.81366 706.46716l133.78119 5.1013184" fill-rule="evenodd"></path><path fill="#000000" stroke="#000000" stroke-width="4.0" stroke-linecap="butt" d="m391.3431 718.1706l18.39096 -5.9104614l-17.887451 -7.2938232z" fill-rule="evenodd"></path><path fill="#000000" fill-opacity="0.0" d="m259.24146 847.6395l156.34647 -135.18109" fill-rule="nonzero"></path><path stroke="#000000" stroke-width="4.0" stroke-linejoin="round" stroke-linecap="butt" d="m259.24146 847.6395l138.19162 -119.48395" fill-rule="evenodd"></path><path fill="#000000" stroke="#000000" stroke-width="4.0" stroke-linecap="butt" d="m401.7543 733.1534l9.410187 -16.870361l-18.052673 6.874695z" fill-rule="evenodd"></path><path fill="#000000" fill-opacity="0.0" d="m313.58783 785.26245l112.15747 0l0 47.653564l-112.15747 0z" fill-rule="nonzero"></path><path fill="#000000" d="m349.40033 803.748l2.15625 23.4375q5.4375 -6.375 8.6875 -11.96875q1.90625 -3.28125 1.90625 -4.75q0 -0.6875 -0.3125 -1.21875q-0.125 -0.28125 -0.984375 -0.828125q-0.859375 -0.546875 -1.203125 -1.125q-0.34375 -0.578125 -0.34375 -1.234375q0 -0.96875 0.71875 -1.640625q0.71875 -0.671875 1.84375 -0.671875q1.28125 0 2.171875 0.953125q0.890625 0.953125 0.890625 2.546875q0 1.625 -0.46875 3.03125q-0.9375 2.6875 -3.65625 6.9375q-3.3125 5.09375 -6.828125 9.453125q-3.515625 4.359375 -5.234375 6.109375l-1.15625 0l-2.03125 -21.625l-12.90625 21.625l-1.375 0q-0.21875 -13.34375 -1.34375 -21.0625q-0.46875 -3.21875 -1.5625 -4.21875q-0.78125 -0.71875 -2.375 -0.71875q-0.90625 0 -2.3125 0.1875l0 -1.125l8.96875 -2.09375q1.875 5.21875 2.4375 16.03125q0.1875 4.09375 0.3125 5.15625l12.84375 -21.1875l1.15625 0z" fill-rule="nonzero"></path><path fill="#000000" d="m379.9472 827.9511l-1.484375 4.078125l-12.5 0l0 -0.578125q5.515625 -5.03125 7.765625 -8.21875q2.25 -3.1875 2.25 -5.828125q0 -2.015625 -1.234375 -3.3125q-1.234375 -1.296875 -2.953125 -1.296875q-1.5625 0 -2.8125 0.921875q-1.234375 0.90625 -1.828125 2.671875l-0.578125 0q0.390625 -2.890625 2.0 -4.4375q1.625 -1.546875 4.046875 -1.546875q2.578125 0 4.296875 1.65625q1.734375 1.65625 1.734375 3.90625q0 1.609375 -0.75 3.21875q-1.15625 2.53125 -3.75 5.359375q-3.890625 4.25 -4.859375 5.125l5.53125 0q1.6875 0 2.359375 -0.125q0.6875 -0.125 1.234375 -0.5q0.546875 -0.390625 0.953125 -1.09375l0.578125 0z" fill-rule="nonzero"></path><path fill="#cfe2f3" d="m145.65617 565.29395l0 0c0 -33.57196 25.1073 -60.787384 56.078735 -60.787384l0 0c14.873001 0 29.136856 6.404358 39.653656 17.80423c10.5168 11.399841 16.425095 26.861328 16.425095 42.983154l0 0c0 33.57196 -25.107315 60.787415 -56.07875 60.787415l0 0c-30.971436 0 -56.078735 -27.215454 -56.078735 -60.787415z" fill-rule="nonzero"></path><path stroke="#000000" stroke-width="1.0" stroke-linejoin="round" stroke-linecap="butt" d="m145.65617 565.29395l0 0c0 -33.57196 25.1073 -60.787384 56.078735 -60.787384l0 0c14.873001 0 29.136856 6.404358 39.653656 17.80423c10.5168 11.399841 16.425095 26.861328 16.425095 42.983154l0 0c0 33.57196 -25.107315 60.787415 -56.07875 60.787415l0 0c-30.971436 0 -56.078735 -27.215454 -56.078735 -60.787415z" fill-rule="nonzero"></path><path fill="#000000" d="m191.10991 532.2959l12.890625 -6.28125l1.296875 0l0 44.71875q0 4.453125 0.359375 5.546875q0.375 1.09375 1.546875 1.6875q1.171875 0.578125 4.765625 0.65625l0 1.453125l-19.921875 0l0 -1.453125q3.75 -0.078125 4.84375 -0.640625q1.09375 -0.5625 1.515625 -1.515625q0.4375 -0.96875 0.4375 -5.734375l0 -28.59375q0 -5.78125 -0.390625 -7.421875q-0.265625 -1.25 -1.0 -1.828125q-0.71875 -0.59375 -1.734375 -0.59375q-1.4375 0 -4.015625 1.21875l-0.59375 -1.21875z" fill-rule="nonzero"></path><path fill="#000000" fill-opacity="0.0" d="m534.3071 712.4681l43.84253 0" fill-rule="nonzero"></path><path stroke="#000000" stroke-width="4.0" stroke-linejoin="round" stroke-linecap="butt" d="m534.3071 712.4681l19.84253 0" fill-rule="evenodd"></path><path fill="#000000" stroke="#000000" stroke-width="4.0" stroke-linecap="butt" d="m554.14966 719.075l18.152405 -6.6069336l-18.152405 -6.6069336z" fill-rule="evenodd"></path><path fill="#000000" fill-opacity="0.0" d="m323.79266 538.105l56.787384 0l0 80.72443l-56.787384 0z" fill-rule="nonzero"></path><path fill="#000000" d="m351.2614 556.96967l-6.15625 21.59375q3.0 -3.125 5.234375 -4.28125q2.234375 -1.15625 4.671875 -1.15625q3.4375 0 5.625 2.28125q2.1875 2.28125 2.1875 6.1875q0 5.03125 -2.875 10.015625q-2.875 4.984375 -7.21875 7.765625q-4.34375 2.78125 -8.5625 2.78125q-4.71875 0 -9.6875 -3.53125l9.5 -32.71875q1.09375 -3.78125 1.09375 -4.4375q0 -0.8125 -0.5 -1.21875q-0.71875 -0.5625 -2.125 -0.5625q-0.65625 0 -2.0 0.21875l0 -1.1875l10.8125 -1.75zm-12.09375 42.0q3.125 1.71875 5.5 1.71875q2.75 0 5.703125 -2.015625q2.953125 -2.015625 5.125 -6.796875q2.171875 -4.78125 2.171875 -9.65625q0 -2.875 -1.421875 -4.5q-1.421875 -1.625 -3.359375 -1.625q-2.90625 0 -5.6875 2.328125q-2.78125 2.328125 -3.96875 6.484375l-4.0625 14.0625z" fill-rule="nonzero"></path><path fill="#d9ead3" d="m422.14963 712.4681l0 0c0 -33.57196 25.1073 -60.787415 56.078735 -60.787415l0 0c14.873016 0 29.136871 6.404358 39.653656 17.8042c10.516785 11.399841 16.42511 26.86139 16.42511 42.983215l0 0c0 33.57196 -25.10733 60.787415 -56.078766 60.787415l0 0c-30.971436 0 -56.078735 -27.215454 -56.078735 -60.787415z" fill-rule="nonzero"></path><path stroke="#000000" stroke-width="1.0" stroke-linejoin="round" stroke-linecap="butt" d="m422.14963 712.4681l0 0c0 -33.57196 25.1073 -60.787415 56.078735 -60.787415l0 0c14.873016 0 29.136871 6.404358 39.653656 17.8042c10.516785 11.399841 16.42511 26.86139 16.42511 42.983215l0 0c0 33.57196 -25.10733 60.787415 -56.078766 60.787415l0 0c-30.971436 0 -56.078735 -27.215454 -56.078735 -60.787415z" fill-rule="nonzero"></path><path fill="#000000" d="m495.77524 691.89185l-7.625 26.484375l-0.859375 3.5625q-0.109375 0.5 -0.109375 0.859375q0 0.625 0.390625 1.09375q0.3125 0.34375 0.78125 0.34375q0.5 0 1.328125 -0.625q1.515625 -1.125 4.0625 -4.6875l1.328125 0.9375q-2.703125 4.0625 -5.5625 6.203125q-2.84375 2.125 -5.265625 2.125q-1.671875 0 -2.515625 -0.84375q-0.84375 -0.84375 -0.84375 -2.4375q0 -1.921875 0.859375 -5.046875l0.828125 -2.921875q-5.125 6.671875 -9.421875 9.328125q-3.078125 1.921875 -6.046875 1.921875q-2.859375 0 -4.9375 -2.359375q-2.0625 -2.375 -2.0625 -6.515625q0 -6.203125 3.734375 -13.09375q3.734375 -6.90625 9.46875 -11.046875q4.5 -3.28125 8.484375 -3.28125q2.375 0 3.953125 1.25q1.59375 1.25 2.40625 4.140625l1.40625 -4.453125l6.21875 -0.9375zm-13.90625 2.03125q-2.5 0 -5.3125 2.34375q-3.984375 3.328125 -7.09375 9.859375q-3.109375 6.515625 -3.109375 11.78125q0 2.65625 1.328125 4.203125q1.328125 1.546875 3.046875 1.546875q4.265625 0 9.265625 -6.296875q6.671875 -8.359375 6.671875 -17.140625q0 -3.328125 -1.296875 -4.8125q-1.28125 -1.484375 -3.5 -1.484375z" fill-rule="nonzero"></path><path fill="#d9ead3" d="m578.14966 712.4681l0 0c0 -33.57196 25.1073 -60.787415 56.078735 -60.787415l0 0c14.872986 0 29.13684 6.404358 39.653625 17.8042c10.516785 11.399841 16.42511 26.86139 16.42511 42.983215l0 0c0 33.57196 -25.1073 60.787415 -56.078735 60.787415l0 0c-30.971436 0 -56.078735 -27.215454 -56.078735 -60.787415z" fill-rule="nonzero"></path><path stroke="#000000" stroke-width="1.0" stroke-linejoin="round" stroke-linecap="butt" d="m578.14966 712.4681l0 0c0 -33.57196 25.1073 -60.787415 56.078735 -60.787415l0 0c14.872986 0 29.13684 6.404358 39.653625 17.8042c10.516785 11.399841 16.42511 26.86139 16.42511 42.983215l0 0c0 33.57196 -25.1073 60.787415 -56.078735 60.787415l0 0c-30.971436 0 -56.078735 -27.215454 -56.078735 -60.787415z" fill-rule="nonzero"></path><path fill="#000000" d="m629.25574 691.89185q1.328125 2.265625 1.828125 4.25q0.515625 1.96875 1.015625 7.75l1.71875 19.21875q2.34375 -2.8125 6.796875 -8.90625q2.15625 -2.96875 5.3125 -8.09375q1.921875 -3.125 2.34375 -4.375q0.234375 -0.625 0.234375 -1.28125q0 -0.4375 -0.28125 -0.703125q-0.265625 -0.28125 -1.421875 -0.640625q-1.140625 -0.375 -1.90625 -1.375q-0.765625 -1.0 -0.765625 -2.28125q0 -1.609375 0.9375 -2.578125q0.9375 -0.984375 2.34375 -0.984375q1.71875 0 2.921875 1.4375q1.21875 1.421875 1.21875 3.921875q0 3.078125 -2.109375 7.046875q-2.109375 3.96875 -8.125 12.171875q-6.015625 8.203125 -14.5625 17.890625q-5.90625 6.6875 -8.765625 8.421875q-2.84375 1.734375 -4.875 1.734375q-1.21875 0 -2.125 -0.921875q-0.921875 -0.90625 -0.921875 -2.125q0 -1.515625 1.265625 -2.765625q1.265625 -1.25 2.75 -1.25q0.78125 0 1.296875 0.34375q0.3125 0.203125 0.6875 1.109375q0.375 0.921875 0.6875 1.234375q0.1875 0.203125 0.46875 0.203125q0.234375 0 0.8125 -0.390625q2.15625 -1.328125 5.0 -4.21875q3.75 -3.828125 5.546875 -6.25l-2.1875 -24.78125q-0.546875 -6.125 -1.640625 -7.453125q-1.09375 -1.328125 -3.671875 -1.328125q-0.8125 0 -2.921875 0.234375l-0.359375 -1.453125l11.453125 -2.8125z" fill-rule="nonzero"></path><path fill="#000000" fill-opacity="0.0" d="m518.2297 633.3648l82.01575 0l0 80.72443l-82.01575 0z" fill-rule="nonzero"></path><path fill="#000000" d="m538.96405 652.9836l-5.484375 18.96875q3.5625 -5.34375 5.546875 -7.09375q2.0 -1.765625 3.8125 -1.765625q0.9375 0 1.5625 0.640625q0.625 0.640625 0.625 1.71875q0 1.28125 -0.546875 3.125l-2.390625 8.1875q-0.4375 1.484375 -0.4375 1.640625q0 0.265625 0.15625 0.453125q0.171875 0.171875 0.390625 0.171875q0.25 0 0.578125 -0.265625q1.109375 -0.859375 2.203125 -2.375l0.609375 0.375q-0.65625 1.03125 -1.84375 2.28125q-1.1875 1.234375 -2.03125 1.71875q-0.84375 0.46875 -1.515625 0.46875q-0.71875 0 -1.1875 -0.46875q-0.453125 -0.453125 -0.453125 -1.171875q0 -0.859375 0.6875 -3.203125l2.25 -7.8125q0.421875 -1.46875 0.421875 -2.3125q0 -0.390625 -0.25 -0.625q-0.234375 -0.234375 -0.625 -0.234375q-0.5625 0 -1.296875 0.4375q-1.328125 0.8125 -3.0625 3.046875q-0.46875 0.609375 -3.125 4.875q-0.8125 1.375 -1.34375 3.0l-1.25 4.0l-2.9375 0l6.4375 -22.34375l0.671875 -2.421875q0 -0.515625 -0.421875 -0.90625q-0.40625 -0.390625 -1.015625 -0.390625q-0.359375 0 -1.078125 0.125l-0.40625 0.0625l0 -0.765625l6.75 -1.140625z" fill-rule="nonzero"></path><path fill="#000000" d="m559.65155 688.59296l0 0.734375q-2.953125 -1.484375 -4.921875 -3.484375q-2.8125 -2.828125 -4.34375 -6.671875q-1.515625 -3.859375 -1.515625 -8.0q0 -6.046875 2.984375 -11.03125q3.0 -5.0 7.796875 -7.15625l0 0.828125q-2.40625 1.328125 -3.953125 3.640625q-1.53125 2.296875 -2.296875 5.828125q-0.765625 3.53125 -0.765625 7.390625q0 4.171875 0.65625 7.59375q0.5 2.703125 1.21875 4.328125q0.734375 1.625 1.953125 3.125q1.21875 1.515625 3.1875 2.875zm11.8046875 -34.78125l0 -0.828125q2.96875 1.46875 4.9375 3.46875q2.796875 2.84375 4.3125 6.6875q1.53125 3.828125 1.53125 8.0q0 6.046875 -2.984375 11.03125q-2.984375 5.0 -7.796875 7.15625l0 -0.734375q2.390625 -1.34375 3.9375 -3.640625q1.5625 -2.296875 2.3125 -5.84375q0.75 -3.546875 0.75 -7.390625q0 -4.15625 -0.640625 -7.59375q-0.484375 -2.703125 -1.21875 -4.3125q-0.734375 -1.625 -1.953125 -3.125q-1.203125 -1.515625 -3.1875 -2.875z" fill-rule="nonzero"></path><path fill="#000000" fill-opacity="0.0" d="m257.81366 565.29395l157.76376 147.18109" fill-rule="nonzero"></path><path stroke="#000000" stroke-width="4.0" stroke-linejoin="round" stroke-linecap="butt" d="m257.81366 565.29395l140.21484 130.80933" fill-rule="evenodd"></path><path fill="#000000" stroke="#000000" stroke-width="4.0" stroke-linecap="butt" d="m393.5215 700.9343l17.78012 7.551758l-8.766174 -17.213806z" fill-rule="evenodd"></path><path fill="#000000" d="m349.02493 464.31366l43.35434 0l0 -29.858276l86.70865 0l0 29.858276l43.35434 0l-86.70868 29.858246z" fill-rule="nonzero"></path><path stroke="#000000" stroke-width="1.0" stroke-linejoin="round" stroke-linecap="butt" d="m349.02493 464.31366l43.35434 0l0 -29.858276l86.70865 0l0 29.858276l43.35434 0l-86.70868 29.858246z" fill-rule="nonzero"></path></g></svg>

