<?xml version="1.0" standalone="yes"?>

<svg version="1.1" viewBox="0.0 0.0 589.1181102362204 679.3307086614174" fill="none" stroke="none" stroke-linecap="square" stroke-miterlimit="10" xmlns="http://www.w3.org/2000/svg" xmlns:xlink="http://www.w3.org/1999/xlink"><clipPath id="p.0"><path d="m0 0l589.1181 0l0 679.3307l-589.1181 0l0 -679.3307z" clip-rule="nonzero"></path></clipPath><g clip-path="url(#p.0)"><path fill="#000000" fill-opacity="0.0" d="m0 0l589.1181 0l0 679.3307l-589.1181 0z" fill-rule="nonzero"></path><path fill="#cfe2f3" d="m16.284777 170.21785l0 0c0 -43.60006 36.867767 -78.944885 82.34646 -78.944885l0 0c21.839638 0 42.784782 8.317383 58.227745 23.122421c15.442947 14.805038 24.118713 34.88498 24.118713 55.822464l0 0c0 43.60005 -36.867767 78.944885 -82.34646 78.944885l0 0c-45.47869 0 -82.34646 -35.344833 -82.34646 -78.944885z" fill-rule="nonzero"></path><path stroke="#000000" stroke-width="1.0" stroke-linejoin="round" stroke-linecap="butt" d="m16.284777 170.21785l0 0c0 -43.60006 36.867767 -78.944885 82.34646 -78.944885l0 0c21.839638 0 42.784782 8.317383 58.227745 23.122421c15.442947 14.805038 24.118713 34.88498 24.118713 55.822464l0 0c0 43.60005 -36.867767 78.944885 -82.34646 78.944885l0 0c-45.47869 0 -82.34646 -35.344833 -82.34646 -78.944885z" fill-rule="nonzero"></path><path fill="#000000" d="m85.96717 151.77843q2.296875 2.4375 3.46875 4.875q0.84375 1.6875 2.765625 8.859375l4.125 -6.1875q1.640625 -2.25 3.984375 -4.28125q2.34375 -2.046875 4.125 -2.796875q1.125 -0.46875 2.484375 -0.46875q2.015625 0 3.203125 1.078125q1.203125 1.078125 1.203125 2.625q0 1.78125 -0.703125 2.4375q-1.3125 1.171875 -3.0 1.171875q-0.984375 0 -2.109375 -0.421875q-2.203125 -0.75 -2.953125 -0.75q-1.125 0 -2.671875 1.3125q-2.90625 2.4375 -6.9375 9.421875l3.84375 16.125q0.890625 3.703125 1.5 4.4375q0.609375 0.71875 1.21875 0.71875q0.984375 0 2.296875 -1.078125q2.578125 -2.15625 4.40625 -5.625l1.640625 0.84375q-2.953125 5.53125 -7.5 9.1875q-2.578125 2.0625 -4.359375 2.0625q-2.625 0 -4.171875 -2.953125q-0.984375 -1.828125 -4.078125 -15.75q-7.3125 12.703125 -11.71875 16.359375q-2.859375 2.34375 -5.53125 2.34375q-1.875 0 -3.421875 -1.359375q-1.125 -1.03125 -1.125 -2.765625q0 -1.546875 1.03125 -2.578125q1.03125 -1.03125 2.53125 -1.03125q1.5 0 3.1875 1.5q1.21875 1.078125 1.875 1.078125q0.5625 0 1.453125 -0.75q2.203125 -1.78125 6.0 -7.6875q3.796875 -5.90625 4.96875 -8.53125q-2.90625 -11.390625 -3.140625 -12.046875q-1.078125 -3.046875 -2.8125 -4.3125q-1.734375 -1.265625 -5.109375 -1.265625q-1.078125 0 -2.484375 0.09375l0 -1.6875l12.515625 -2.203125z" fill-rule="nonzero"></path><path fill="#000000" d="m115.68592 175.09093l5.15625 -2.515625l0.515625 0l0 17.890625q0 1.78125 0.140625 2.21875q0.15625 0.4375 0.625 0.671875q0.46875 0.234375 1.90625 0.265625l0 0.578125l-7.96875 0l0 -0.578125q1.5 -0.03125 1.9375 -0.25q0.4375 -0.234375 0.609375 -0.609375q0.171875 -0.390625 0.171875 -2.296875l0 -11.4375q0 -2.3125 -0.15625 -2.96875q-0.109375 -0.5 -0.40625 -0.734375q-0.28125 -0.234375 -0.6875 -0.234375q-0.578125 0 -1.609375 0.484375l-0.234375 -0.484375z" fill-rule="nonzero"></path><path fill="#cfe2f3" d="m16.284777 485.99738l0 0c0 -43.600067 36.867767 -78.944885 82.34646 -78.944885l0 0c21.839638 0 42.784782 8.317383 58.227745 23.122437c15.442947 14.805023 24.118713 34.88498 24.118713 55.82245l0 0c0 43.600037 -36.867767 78.944885 -82.34646 78.944885l0 0c-45.47869 0 -82.34646 -35.34485 -82.34646 -78.944885z" fill-rule="nonzero"></path><path stroke="#000000" stroke-width="1.0" stroke-linejoin="round" stroke-linecap="butt" d="m16.284777 485.99738l0 0c0 -43.600067 36.867767 -78.944885 82.34646 -78.944885l0 0c21.839638 0 42.784782 8.317383 58.227745 23.122437c15.442947 14.805023 24.118713 34.88498 24.118713 55.82245l0 0c0 43.600037 -36.867767 78.944885 -82.34646 78.944885l0 0c-45.47869 0 -82.34646 -35.34485 -82.34646 -78.944885z" fill-rule="nonzero"></path><path fill="#000000" d="m85.96717 467.2355q2.296875 2.4375 3.46875 4.875q0.84375 1.6875 2.765625 8.859375l4.125 -6.1875q1.640625 -2.25 3.984375 -4.28125q2.34375 -2.046875 4.125 -2.796875q1.125 -0.46875 2.484375 -0.46875q2.015625 0 3.203125 1.078125q1.203125 1.078125 1.203125 2.625q0 1.78125 -0.703125 2.4375q-1.3125 1.171875 -3.0 1.171875q-0.984375 0 -2.109375 -0.421875q-2.203125 -0.75 -2.953125 -0.75q-1.125 0 -2.671875 1.3125q-2.90625 2.4375 -6.9375 9.421875l3.84375 16.125q0.890625 3.703125 1.5 4.4375q0.609375 0.71875 1.21875 0.71875q0.984375 0 2.296875 -1.078125q2.578125 -2.15625 4.40625 -5.625l1.640625 0.84375q-2.953125 5.53125 -7.5 9.1875q-2.578125 2.0625 -4.359375 2.0625q-2.625 0 -4.171875 -2.953125q-0.984375 -1.828125 -4.078125 -15.75q-7.3125 12.703125 -11.71875 16.359375q-2.859375 2.34375 -5.53125 2.34375q-1.875 0 -3.421875 -1.359375q-1.125 -1.03125 -1.125 -2.765625q0 -1.546875 1.03125 -2.578125q1.03125 -1.03125 2.53125 -1.03125q1.5 0 3.1875 1.5q1.21875 1.078125 1.875 1.078125q0.5625 0 1.453125 -0.75q2.203125 -1.78125 6.0 -7.6875q3.796875 -5.90625 4.96875 -8.53125q-2.90625 -11.390625 -3.140625 -12.046875q-1.078125 -3.046875 -2.8125 -4.3125q-1.734375 -1.265625 -5.109375 -1.265625q-1.078125 0 -2.484375 0.09375l0 -1.6875l12.515625 -2.203125z" fill-rule="nonzero"></path><path fill="#000000" d="m126.607796 505.57925l-1.484375 4.078125l-12.5 0l0 -0.578125q5.515625 -5.03125 7.765625 -8.21875q2.25 -3.1875 2.25 -5.828125q0 -2.015625 -1.234375 -3.3125q-1.234375 -1.296875 -2.953125 -1.296875q-1.5625 0 -2.8125 0.921875q-1.234375 0.90625 -1.828125 2.671875l-0.578125 0q0.390625 -2.890625 2.0 -4.4375q1.625 -1.546875 4.046875 -1.546875q2.578125 0 4.296875 1.65625q1.734375 1.65625 1.734375 3.90625q0 1.609375 -0.75 3.21875q-1.15625 2.53125 -3.75 5.359375q-3.890625 4.25 -4.859375 5.125l5.53125 0q1.6875 0 2.359375 -0.125q0.6875 -0.125 1.234375 -0.5q0.546875 -0.390625 0.953125 -1.09375l0.578125 0z" fill-rule="nonzero"></path><path fill="#cfe2f3" d="m405.7861 328.1076l0 0c0 -43.600037 36.867737 -78.94487 82.346436 -78.94487l0 0c21.83966 0 42.78476 8.317368 58.227753 23.122421c15.442932 14.805023 24.118713 34.88498 24.118713 55.82245l0 0c0 43.600067 -36.867737 78.944885 -82.346466 78.944885l0 0c-45.4787 0 -82.346436 -35.34482 -82.346436 -78.944885z" fill-rule="nonzero"></path><path stroke="#000000" stroke-width="1.0" stroke-linejoin="round" stroke-linecap="butt" d="m405.7861 328.1076l0 0c0 -43.600037 36.867737 -78.94487 82.346436 -78.94487l0 0c21.83966 0 42.78476 8.317368 58.227753 23.122421c15.442932 14.805023 24.118713 34.88498 24.118713 55.82245l0 0c0 43.600067 -36.867737 78.944885 -82.346466 78.944885l0 0c-45.4787 0 -82.346436 -35.34482 -82.346436 -78.944885z" fill-rule="nonzero"></path><path fill="#000000" d="m474.15598 309.66818q1.59375 2.71875 2.203125 5.09375q0.609375 2.359375 1.21875 9.296875l2.0625 23.0625q2.8125 -3.375 8.15625 -10.6875q2.578125 -3.5625 6.375 -9.703125q2.296875 -3.75 2.8125 -5.25q0.28125 -0.75 0.28125 -1.546875q0 -0.515625 -0.328125 -0.84375q-0.328125 -0.328125 -1.71875 -0.765625q-1.375 -0.453125 -2.296875 -1.640625q-0.90625 -1.203125 -0.90625 -2.75q0 -1.921875 1.125 -3.09375q1.125 -1.171875 2.8125 -1.171875q2.0625 0 3.515625 1.71875q1.453125 1.703125 1.453125 4.703125q0 3.703125 -2.53125 8.46875q-2.53125 4.75 -9.75 14.59375q-7.21875 9.84375 -17.484375 21.46875q-7.078125 8.015625 -10.5 10.09375q-3.421875 2.09375 -5.859375 2.09375q-1.453125 0 -2.546875 -1.109375q-1.109375 -1.09375 -1.109375 -2.546875q0 -1.828125 1.53125 -3.328125q1.515625 -1.5 3.296875 -1.5q0.9375 0 1.546875 0.421875q0.375 0.234375 0.828125 1.328125q0.4375 1.109375 0.8125 1.484375q0.234375 0.234375 0.5625 0.234375q0.28125 0 0.984375 -0.46875q2.578125 -1.59375 6.0 -5.0625q4.5 -4.59375 6.65625 -7.5l-2.625 -29.71875q-0.65625 -7.359375 -1.96875 -8.953125q-1.3125 -1.59375 -4.40625 -1.59375q-0.984375 0 -3.515625 0.28125l-0.421875 -1.734375l13.734375 -3.375z" fill-rule="nonzero"></path><path fill="#000000" d="m516.10913 348.01193l-1.484375 4.078125l-12.5000305 0l0 -0.578125q5.515625 -5.03125 7.765625 -8.21875q2.2500305 -3.1875 2.2500305 -5.828125q0 -2.015625 -1.2344055 -3.3125q-1.234375 -1.296875 -2.953125 -1.296875q-1.5625 0 -2.8125 0.921875q-1.234375 0.90625 -1.828125 2.671875l-0.578125 0q0.390625 -2.890625 2.0 -4.4375q1.625 -1.546875 4.046875 -1.546875q2.578125 0 4.2969055 1.65625q1.734375 1.65625 1.734375 3.90625q0 1.609375 -0.75 3.21875q-1.15625 2.53125 -3.7500305 5.359375q-3.890625 4.25 -4.859375 5.125l5.53125 0q1.6875305 0 2.3594055 -0.125q0.6875 -0.125 1.234375 -0.5q0.546875 -0.390625 0.953125 -1.09375l0.578125 0z" fill-rule="nonzero"></path><path fill="#cfe2f3" d="m405.7874 577.2703l0 0c0 -43.600037 36.867737 -78.944855 82.346436 -78.944855l0 0c21.83966 0 42.78479 8.317383 58.227722 23.122406c15.442993 14.805054 24.118713 34.88501 24.118713 55.82245l0 0c0 43.600098 -36.867737 78.944885 -82.346436 78.944885l0 0c-45.4787 0 -82.346436 -35.344788 -82.346436 -78.944885z" fill-rule="nonzero"></path><path stroke="#000000" stroke-width="1.0" stroke-linejoin="round" stroke-linecap="butt" d="m405.7874 577.2703l0 0c0 -43.600037 36.867737 -78.944855 82.346436 -78.944855l0 0c21.83966 0 42.78479 8.317383 58.227722 23.122406c15.442993 14.805054 24.118713 34.88501 24.118713 55.82245l0 0c0 43.600098 -36.867737 78.944885 -82.346436 78.944885l0 0c-45.4787 0 -82.346436 -35.344788 -82.346436 -78.944885z" fill-rule="nonzero"></path><path fill="#000000" d="m474.1573 558.83093q1.59375 2.71875 2.203125 5.09375q0.609375 2.359375 1.21875 9.296875l2.0625 23.0625q2.8125 -3.375 8.15625 -10.6875q2.578125 -3.5625 6.375 -9.703125q2.296875 -3.75 2.8125 -5.25q0.28125 -0.75 0.28125 -1.546875q0 -0.515625 -0.328125 -0.84375q-0.328125 -0.328125 -1.71875 -0.765625q-1.375 -0.453125 -2.296875 -1.640625q-0.90625 -1.203125 -0.90625 -2.75q0 -1.921875 1.125 -3.09375q1.125 -1.171875 2.8125 -1.171875q2.0625 0 3.515625 1.71875q1.453125 1.703125 1.453125 4.703125q0 3.703125 -2.53125 8.46875q-2.53125 4.75 -9.75 14.59375q-7.21875 9.84375 -17.484375 21.46875q-7.078125 8.015625 -10.5 10.09375q-3.421875 2.09375 -5.859375 2.09375q-1.453125 0 -2.546875 -1.109375q-1.109375 -1.09375 -1.109375 -2.546875q0 -1.828125 1.53125 -3.328125q1.515625 -1.5 3.296875 -1.5q0.9375 0 1.546875 0.421875q0.375 0.234375 0.828125 1.328125q0.4375 1.109375 0.8125 1.484375q0.234375 0.234375 0.5625 0.234375q0.28125 0 0.984375 -0.46875q2.578125 -1.59375 6.0 -5.0625q4.5 -4.59375 6.65625 -7.5l-2.625 -29.71875q-0.65625 -7.359375 -1.96875 -8.953125q-1.3125 -1.59375 -4.40625 -1.59375q-0.984375 0 -3.515625 0.28125l-0.421875 -1.734375l13.734375 -3.375z" fill-rule="nonzero"></path><path fill="#000000" d="m503.06354 584.09656q0.90625 -2.140625 2.28125 -3.296875q1.390625 -1.171875 3.453125 -1.171875q2.546875 0 3.90625 1.65625q1.03125 1.234375 1.03125 2.640625q0 2.3125 -2.90625 4.78125q1.953125 0.765625 2.953125 2.1875q1.0 1.421875 1.0 3.34375q0 2.75 -1.75 4.765625q-2.28125 2.625 -6.609375 2.625q-2.140625 0 -2.921875 -0.53125q-0.765625 -0.53125 -0.765625 -1.140625q0 -0.453125 0.359375 -0.796875q0.375 -0.34375 0.890625 -0.34375q0.390625 0 0.796875 0.125q0.265625 0.078125 1.203125 0.578125q0.9375 0.484375 1.296875 0.578125q0.578125 0.171875 1.234375 0.171875q1.59375 0 2.765625 -1.234375q1.1875 -1.234375 1.1875 -2.921875q0 -1.234375 -0.546875 -2.40625q-0.40625 -0.875 -0.890625 -1.328125q-0.671875 -0.625 -1.84375 -1.125q-1.171875 -0.515625 -2.390625 -0.515625l-0.5 0l0 -0.46875q1.234375 -0.15625 2.46875 -0.890625q1.25 -0.734375 1.8125 -1.765625q0.5625 -1.03125 0.5625 -2.265625q0 -1.609375 -1.015625 -2.59375q-1.0 -1.0 -2.5 -1.0q-2.421875 0 -4.046875 2.59375l-0.515625 -0.25z" fill-rule="nonzero"></path><path fill="#000000" fill-opacity="0.0" d="m180.97769 170.21785l224.81891 157.88976" fill-rule="nonzero"></path><path stroke="#000000" stroke-width="3.0" stroke-linejoin="round" stroke-linecap="butt" d="m180.97769 170.21785l210.08862 147.54475" fill-rule="evenodd"></path><path fill="#000000" stroke="#000000" stroke-width="3.0" stroke-linecap="butt" d="m388.21848 321.81766l13.989075 3.7693787l-8.2933655 -11.879517z" fill-rule="evenodd"></path><path fill="#000000" fill-opacity="0.0" d="m180.97769 485.99738l224.81891 91.27557" fill-rule="nonzero"></path><path stroke="#000000" stroke-width="3.0" stroke-linejoin="round" stroke-linecap="butt" d="m180.97769 485.99738l208.14102 84.504456" fill-rule="evenodd"></path><path fill="#000000" stroke="#000000" stroke-width="3.0" stroke-linecap="butt" d="m387.2547 575.093l14.4783325 0.53015137l-10.750305 -9.712585z" fill-rule="evenodd"></path><path fill="#000000" fill-opacity="0.0" d="m180.97769 485.99738l224.81891 -157.88977" fill-rule="nonzero"></path><path stroke="#000000" stroke-width="3.0" stroke-linejoin="round" stroke-linecap="butt" d="m180.97769 485.99738l210.08862 -147.54474" fill-rule="evenodd"></path><path fill="#000000" stroke="#000000" stroke-width="3.0" stroke-linecap="butt" d="m393.91418 342.50772l8.2933655 -11.879547l-13.989075 3.7693787z" fill-rule="evenodd"></path><path fill="#000000" fill-opacity="0.0" d="m180.97769 170.21785l224.81891 407.0551" fill-rule="nonzero"></path><path stroke="#000000" stroke-width="3.0" stroke-linejoin="round" stroke-linecap="butt" d="m180.97769 170.21785l216.11646 391.29858" fill-rule="evenodd"></path><path fill="#000000" stroke="#000000" stroke-width="3.0" stroke-linecap="butt" d="m392.7566 563.9121l10.919647 9.52179l-2.2444763 -14.31311z" fill-rule="evenodd"></path><path fill="#cfe2f3" d="m413.69946 78.944885l0 0c0 -43.60006 36.867767 -78.944885 82.346466 -78.944885l0 0c21.83963 0 42.78476 8.317384 58.227753 23.122421c15.442932 14.805038 24.118713 34.884975 24.118713 55.822464l0 0c0 43.60005 -36.867798 78.944885 -82.346466 78.944885l0 0c-45.4787 0 -82.346466 -35.344833 -82.346466 -78.944885z" fill-rule="nonzero"></path><path stroke="#000000" stroke-width="1.0" stroke-linejoin="round" stroke-linecap="butt" d="m413.69946 78.944885l0 0c0 -43.60006 36.867767 -78.944885 82.346466 -78.944885l0 0c21.83963 0 42.78476 8.317384 58.227753 23.122421c15.442932 14.805038 24.118713 34.884975 24.118713 55.822464l0 0c0 43.60005 -36.867798 78.944885 -82.346466 78.944885l0 0c-45.4787 0 -82.346466 -35.344833 -82.346466 -78.944885z" fill-rule="nonzero"></path><path fill="#000000" d="m482.06937 60.505463q1.59375 2.71875 2.203125 5.09375q0.609375 2.359375 1.21875 9.296875l2.0625 23.0625q2.8125 -3.375 8.15625 -10.6875q2.578125 -3.5625 6.375 -9.703125q2.296875 -3.75 2.8125 -5.25q0.28125 -0.75 0.28125 -1.546875q0 -0.515625 -0.328125 -0.84375q-0.328125 -0.328125 -1.71875 -0.765625q-1.375 -0.453125 -2.296875 -1.640625q-0.90625 -1.203125 -0.90625 -2.75q0 -1.921875 1.125 -3.09375q1.125 -1.171875 2.8125 -1.171875q2.0625 0 3.515625 1.71875q1.453125 1.703125 1.453125 4.703125q0 3.703125 -2.53125 8.46875q-2.53125 4.75 -9.75 14.59375q-7.21875 9.84375 -17.484375 21.46875q-7.078125 8.015625 -10.5 10.09375q-3.421875 2.09375 -5.859375 2.09375q-1.453125 0 -2.546875 -1.109375q-1.109375 -1.09375 -1.109375 -2.546875q0 -1.828125 1.53125 -3.328125q1.515625 -1.5 3.296875 -1.5q0.9375 0 1.546875 0.421875q0.375 0.234375 0.828125 1.328125q0.4375 1.109375 0.8125 1.484375q0.234375 0.234375 0.5625 0.234375q0.28125 0 0.984375 -0.46875q2.578125 -1.59375 6.0 -5.0625q4.5 -4.59375 6.65625 -7.5l-2.625 -29.71875q-0.65625 -7.359375 -1.96875 -8.953125q-1.3125 -1.59375 -4.40625 -1.59375q-0.984375 0 -3.515625 0.28125l-0.421875 -1.734375l13.734375 -3.375z" fill-rule="nonzero"></path><path fill="#000000" d="m513.10065 83.81796l5.15625 -2.515625l0.515625 0l0 17.890625q0 1.78125 0.140625 2.21875q0.15625 0.4375 0.625 0.671875q0.46875 0.234375 1.90625 0.265625l0 0.578125l-7.96875 0l0 -0.578125q1.5 -0.03125 1.9375 -0.25q0.4375 -0.234375 0.609375 -0.609375q0.171875 -0.390625 0.171875 -2.296875l0 -11.4375q0 -2.3125 -0.15625 -2.96875q-0.109375 -0.5 -0.40625 -0.734375q-0.28125 -0.234375 -0.6875 -0.234375q-0.578125 0 -1.609375 0.484375l-0.234375 -0.484375z" fill-rule="nonzero"></path><path fill="#000000" fill-opacity="0.0" d="m180.97769 170.21785l232.7244 -91.27559" fill-rule="nonzero"></path><path stroke="#000000" stroke-width="3.0" stroke-linejoin="round" stroke-linecap="butt" d="m180.97769 170.21785l215.96716 -84.70332" fill-rule="evenodd"></path><path fill="#000000" stroke="#000000" stroke-width="3.0" stroke-linecap="butt" d="m398.75412 90.12761l10.865082 -9.584015l-14.483612 0.35784912z" fill-rule="evenodd"></path><path fill="#000000" fill-opacity="0.0" d="m180.97769 485.99738l232.7244 -407.0551" fill-rule="nonzero"></path><path stroke="#000000" stroke-width="3.0" stroke-linejoin="round" stroke-linecap="butt" d="m180.97769 485.99738l223.7904 -391.42877" fill-rule="evenodd"></path><path fill="#000000" stroke="#000000" stroke-width="3.0" stroke-linecap="butt" d="m409.06985 97.02806l2.4554749 -14.278435l-11.059021 9.359566z" fill-rule="evenodd"></path><path fill="#000000" fill-opacity="0.0" d="m340.3071 53.934383l102.74014 0l0 46.236217l-102.74014 0z" fill-rule="nonzero"></path><path fill="#000000" d="m361.22897 93.65438l-2.8125 0l0 -17.921875q-1.015625 0.96875 -2.671875 1.9375q-1.640625 0.96875 -2.953125 1.453125l0 -2.71875q2.359375 -1.109375 4.125 -2.6875q1.765625 -1.578125 2.5 -3.0625l1.8125 0l0 23.0z" fill-rule="nonzero"></path><path fill="#000000" fill-opacity="0.0" d="m361.44357 259.3517l102.74014 0l0 46.236206l-102.74014 0z" fill-rule="nonzero"></path><path fill="#000000" d="m386.55295 296.3686l0 2.703125l-15.140625 0q-0.03125 -1.015625 0.328125 -1.953125q0.578125 -1.546875 1.84375 -3.046875q1.28125 -1.5 3.6875 -3.46875q3.734375 -3.0625 5.046875 -4.84375q1.3125 -1.796875 1.3125 -3.390625q0 -1.671875 -1.203125 -2.8125q-1.1875 -1.15625 -3.109375 -1.15625q-2.03125 0 -3.25 1.21875q-1.21875 1.21875 -1.234375 3.375l-2.890625 -0.296875q0.296875 -3.234375 2.234375 -4.921875q1.9375 -1.703125 5.203125 -1.703125q3.296875 0 5.21875 1.828125q1.921875 1.828125 1.921875 4.53125q0 1.375 -0.5625 2.703125q-0.5625 1.328125 -1.875 2.796875q-1.296875 1.46875 -4.328125 4.03125q-2.53125 2.125 -3.25 2.890625q-0.71875 0.75 -1.1875 1.515625l11.234375 0z" fill-rule="nonzero"></path><path fill="#000000" fill-opacity="0.0" d="m374.87665 491.90552l102.74014 0l0 46.236206l-102.74014 0z" fill-rule="nonzero"></path><path fill="#000000" d="m385.2204 525.5786l2.8125 -0.375q0.484375 2.390625 1.640625 3.453125q1.171875 1.046875 2.84375 1.046875q1.984375 0 3.34375 -1.375q1.375 -1.375 1.375 -3.40625q0 -1.9375 -1.265625 -3.1875q-1.265625 -1.265625 -3.21875 -1.265625q-0.796875 0 -1.984375 0.3125l0.3125 -2.46875q0.28125 0.03125 0.453125 0.03125q1.796875 0 3.234375 -0.9375q1.4375 -0.9375 1.4375 -2.890625q0 -1.546875 -1.046875 -2.5624695q-1.046875 -1.015625 -2.703125 -1.015625q-1.640625 0 -2.734375 1.03125q-1.09375 1.0312195 -1.40625 3.0937195l-2.8125 -0.5q0.515625 -2.8280945 2.34375 -4.3749695q1.828125 -1.5625 4.546875 -1.5625q1.875 0 3.453125 0.8125q1.578125 0.796875 2.40625 2.1875q0.84375 1.3905945 0.84375 2.9530945q0 1.484375 -0.796875 2.703125q-0.796875 1.21875 -2.359375 1.9375q2.03125 0.46875 3.15625 1.953125q1.125 1.46875 1.125 3.6875q0 3.0 -2.1875 5.09375q-2.1875 2.078125 -5.53125 2.078125q-3.015625 0 -5.015625 -1.796875q-1.984375 -1.796875 -2.265625 -4.65625z" fill-rule="nonzero"></path><path fill="#000000" fill-opacity="0.0" d="m351.0656 101.461945l102.74017 0l0 46.23622l-102.74017 0z" fill-rule="nonzero"></path><path fill="#000000" d="m370.40936 141.18195l0 -5.484375l-9.9375 0l0 -2.578125l10.453125 -14.84375l2.296875 0l0 14.84375l3.09375 0l0 2.578125l-3.09375 0l0 5.484375l-2.8125 0zm0 -8.0625l0 -10.328125l-7.171875 10.328125l7.171875 0z" fill-rule="nonzero"></path><path fill="#000000" fill-opacity="0.0" d="m326.1811 316.54593l102.74017 0l0 46.236237l-102.74017 0z" fill-rule="nonzero"></path><path fill="#000000" d="m336.50922 350.26593l2.953125 -0.25q0.328125 2.15625 1.515625 3.25q1.203125 1.078125 2.890625 1.078125q2.03125 0 3.4375 -1.53125q1.40625 -1.53125 1.40625 -4.0625q0 -2.40625 -1.359375 -3.796875q-1.34375 -1.390625 -3.53125 -1.390625q-1.359375 0 -2.453125 0.625q-1.09375 0.609375 -1.71875 1.59375l-2.640625 -0.34375l2.21875 -11.765625l11.390625 0l0 2.6875l-9.140625 0l-1.234375 6.15625q2.0625 -1.4375 4.328125 -1.4375q3.0 0 5.0625 2.078125q2.0625 2.078125 2.0625 5.34375q0 3.109375 -1.8125 5.375q-2.203125 2.78125 -6.015625 2.78125q-3.125 0 -5.109375 -1.75q-1.96875 -1.75 -2.25 -4.640625z" fill-rule="nonzero"></path><path fill="#000000" fill-opacity="0.0" d="m317.38058 498.32547l102.74014 0l0 46.236237l-102.74014 0z" fill-rule="nonzero"></path><path fill="#000000" d="m342.30246 520.7486l-2.796875 0.21875q-0.375 -1.65625 -1.0625 -2.40625q-1.140625 -1.203125 -2.8125 -1.203125q-1.34375 0 -2.359375 0.75q-1.328125 0.96875 -2.09375 2.828125q-0.765625 1.859375 -0.796875 5.296875q1.015625 -1.546875 2.484375 -2.296875q1.46875 -0.75 3.078125 -0.75q2.8125 0 4.78125 2.078125q1.984375 2.0625 1.984375 5.34375q0 2.15625 -0.9375 4.015625q-0.921875 1.84375 -2.546875 2.828125q-1.625 0.984375 -3.6875 0.984375q-3.515625 0 -5.734375 -2.578125q-2.21875 -2.59375 -2.21875 -8.53125q0 -6.640625 2.453125 -9.65625q2.140625 -2.625 5.765625 -2.625q2.703125 0 4.421875 1.515625q1.734375 1.515625 2.078125 4.1875zm-11.484375 9.875q0 1.453125 0.609375 2.78125q0.625 1.328125 1.734375 2.03125q1.109375 0.6875 2.328125 0.6875q1.78125 0 3.0625 -1.4375q1.28125 -1.4375 1.28125 -3.90625q0 -2.375 -1.265625 -3.734375q-1.265625 -1.375 -3.1875 -1.375q-1.90625 0 -3.234375 1.375q-1.328125 1.359375 -1.328125 3.578125z" fill-rule="nonzero"></path></g></svg>

