<?xml version="1.0" standalone="yes"?>

<svg version="1.1" viewBox="0.0 0.0 960.0 720.0" fill="none" stroke="none" stroke-linecap="square" stroke-miterlimit="10" xmlns="http://www.w3.org/2000/svg" xmlns:xlink="http://www.w3.org/1999/xlink"><clipPath id="p.0"><path d="m0 0l960.0 0l0 720.0l-960.0 0l0 -720.0z" clip-rule="nonzero"></path></clipPath><g clip-path="url(#p.0)"><path fill="#000000" fill-opacity="0.0" d="m0 0l960.0 0l0 720.0l-960.0 0z" fill-rule="evenodd"></path><path fill="#dd7e6b" d="m137.5433 269.7034l0 0c0 -8.58432 6.9589844 -15.543289 15.543304 -15.543289l0 0c4.122345 0 8.075851 1.6375885 10.990784 4.552536c2.9149323 2.914917 4.552536 6.8684387 4.552536 10.990753l0 0c0 8.584351 -6.9589844 15.543304 -15.54332 15.543304l0 0c-8.58432 0 -15.543304 -6.958954 -15.543304 -15.543304z" fill-rule="evenodd"></path><path fill="#666666" d="m288.6929 139.49738l0 0c0 -8.584335 6.9589844 -15.543304 15.543304 -15.543304l0 0c4.122345 0 8.075867 1.6375885 10.990784 4.5525208c2.9149475 2.9149475 4.5525513 6.8684387 4.5525513 10.990784l0 0c0 8.584335 -6.9589844 15.543304 -15.543335 15.543304l0 0c-8.58432 0 -15.543304 -6.958969 -15.543304 -15.543304z" fill-rule="evenodd"></path><path fill="#dd7e6b" d="m137.5433 322.77692l0 0c0 -8.584351 6.9589844 -15.543335 15.543304 -15.543335l0 0c4.122345 0 8.075851 1.6376038 10.990784 4.5525513c2.9149323 2.914917 4.552536 6.8684387 4.552536 10.990784l0 0c0 8.58432 -6.9589844 15.543304 -15.54332 15.543304l0 0c-8.58432 0 -15.543304 -6.9589844 -15.543304 -15.543304z" fill-rule="evenodd"></path><path fill="#666666" d="m288.6929 534.99603l0 0c0 -8.58429 6.9589844 -15.543274 15.543304 -15.543274l0 0c4.122345 0 8.075867 1.6375732 10.990784 4.5525513c2.9149475 2.914917 4.5525513 6.868408 4.5525513 10.990723l0 0c0 8.584351 -6.9589844 15.543335 -15.543335 15.543335l0 0c-8.58432 0 -15.543304 -6.9589844 -15.543304 -15.543335z" fill-rule="evenodd"></path><path fill="#666666" d="m288.6929 195.20079l0 0c0 -8.584335 6.9589844 -15.543304 15.543304 -15.543304l0 0c4.122345 0 8.075867 1.6375885 10.990784 4.5525208c2.9149475 2.9149323 4.5525513 6.8684387 4.5525513 10.990784l0 0c0 8.584335 -6.9589844 15.543304 -15.543335 15.543304l0 0c-8.58432 0 -15.543304 -6.958969 -15.543304 -15.543304z" fill-rule="evenodd"></path><path fill="#666666" d="m288.6929 477.89896l0 0c0 -8.584351 6.9589844 -15.543304 15.543304 -15.543304l0 0c4.122345 0 8.075867 1.6375732 10.990784 4.5525208c2.9149475 2.9149475 4.5525513 6.8684387 4.5525513 10.990784l0 0c0 8.58432 -6.9589844 15.543304 -15.543335 15.543304l0 0c-8.58432 0 -15.543304 -6.9589844 -15.543304 -15.543304z" fill-rule="evenodd"></path><path fill="#666666" d="m288.6929 420.80185l0 0c0 -8.584351 6.9589844 -15.543304 15.543304 -15.543304l0 0c4.122345 0 8.075867 1.6375732 10.990784 4.5525208c2.9149475 2.914917 4.5525513 6.8684387 4.5525513 10.990784l0 0c0 8.58432 -6.9589844 15.543304 -15.543335 15.543304l0 0c-8.58432 0 -15.543304 -6.9589844 -15.543304 -15.543304z" fill-rule="evenodd"></path><path fill="#666666" d="m288.6929 250.9029l0 0c0 -8.584335 6.9589844 -15.54332 15.543304 -15.54332l0 0c4.122345 0 8.075867 1.6376038 10.990784 4.552536c2.9149475 2.9149323 4.5525513 6.8684387 4.5525513 10.990784l0 0c0 8.58432 -6.9589844 15.543304 -15.543335 15.543304l0 0c-8.58432 0 -15.543304 -6.9589844 -15.543304 -15.543304z" fill-rule="evenodd"></path><path fill="#666666" d="m288.6929 306.6076l0 0c0 -8.58432 6.9589844 -15.543304 15.543304 -15.543304l0 0c4.122345 0 8.075867 1.6376038 10.990784 4.5525208c2.9149475 2.9149475 4.5525513 6.8684387 4.5525513 10.990784l0 0c0 8.584351 -6.9589844 15.543304 -15.543335 15.543304l0 0c-8.58432 0 -15.543304 -6.958954 -15.543304 -15.543304z" fill-rule="evenodd"></path><path fill="#666666" d="m288.6929 363.7047l0 0c0 -8.58432 6.9589844 -15.543304 15.543304 -15.543304l0 0c4.122345 0 8.075867 1.6376038 10.990784 4.5525513c2.9149475 2.914917 4.5525513 6.8684387 4.5525513 10.990753l0 0c0 8.584351 -6.9589844 15.543304 -15.543335 15.543304l0 0c-8.58432 0 -15.543304 -6.958954 -15.543304 -15.543304z" fill-rule="evenodd"></path><path fill="#666666" d="m288.6929 592.0932l0 0c0 -8.584351 6.9589844 -15.543335 15.543304 -15.543335l0 0c4.122345 0 8.075867 1.6375732 10.990784 4.5525513c2.9149475 2.914917 4.5525513 6.868408 4.5525513 10.990784l0 0c0 8.58429 -6.9589844 15.543274 -15.543335 15.543274l0 0c-8.58432 0 -15.543304 -6.9589844 -15.543304 -15.543274z" fill-rule="evenodd"></path><path fill="#666666" d="m288.6929 657.8937l0 0c0 -8.58429 6.9589844 -15.543274 15.543304 -15.543274l0 0c4.122345 0 8.075867 1.6375732 10.990784 4.55249c2.9149475 2.914978 4.5525513 6.868469 4.5525513 10.990784l0 0c0 8.584351 -6.9589844 15.543335 -15.543335 15.543335l0 0c-8.58432 0 -15.543304 -6.9589844 -15.543304 -15.543335z" fill-rule="evenodd"></path><path fill="#666666" d="m448.6929 139.49738l0 0c0 -8.584335 6.9589844 -15.543304 15.543304 -15.543304l0 0c4.122345 0 8.075867 1.6375885 10.990784 4.5525208c2.9149475 2.9149475 4.5525513 6.8684387 4.5525513 10.990784l0 0c0 8.584335 -6.9589844 15.543304 -15.543335 15.543304l0 0c-8.58432 0 -15.543304 -6.958969 -15.543304 -15.543304z" fill-rule="evenodd"></path><path fill="#666666" d="m448.6929 534.99603l0 0c0 -8.58429 6.9589844 -15.543274 15.543304 -15.543274l0 0c4.122345 0 8.075867 1.6375732 10.990784 4.5525513c2.9149475 2.914917 4.5525513 6.868408 4.5525513 10.990723l0 0c0 8.584351 -6.9589844 15.543335 -15.543335 15.543335l0 0c-8.58432 0 -15.543304 -6.9589844 -15.543304 -15.543335z" fill-rule="evenodd"></path><path fill="#666666" d="m448.6929 195.20079l0 0c0 -8.584335 6.9589844 -15.543304 15.543304 -15.543304l0 0c4.122345 0 8.075867 1.6375885 10.990784 4.5525208c2.9149475 2.9149323 4.5525513 6.8684387 4.5525513 10.990784l0 0c0 8.584335 -6.9589844 15.543304 -15.543335 15.543304l0 0c-8.58432 0 -15.543304 -6.958969 -15.543304 -15.543304z" fill-rule="evenodd"></path><path fill="#666666" d="m448.6929 477.89896l0 0c0 -8.584351 6.9589844 -15.543304 15.543304 -15.543304l0 0c4.122345 0 8.075867 1.6375732 10.990784 4.5525208c2.9149475 2.9149475 4.5525513 6.8684387 4.5525513 10.990784l0 0c0 8.58432 -6.9589844 15.543304 -15.543335 15.543304l0 0c-8.58432 0 -15.543304 -6.9589844 -15.543304 -15.543304z" fill-rule="evenodd"></path><path fill="#666666" d="m448.6929 420.80185l0 0c0 -8.584351 6.9589844 -15.543304 15.543304 -15.543304l0 0c4.122345 0 8.075867 1.6375732 10.990784 4.5525208c2.9149475 2.914917 4.5525513 6.8684387 4.5525513 10.990784l0 0c0 8.58432 -6.9589844 15.543304 -15.543335 15.543304l0 0c-8.58432 0 -15.543304 -6.9589844 -15.543304 -15.543304z" fill-rule="evenodd"></path><path fill="#666666" d="m448.6929 250.9029l0 0c0 -8.584335 6.9589844 -15.54332 15.543304 -15.54332l0 0c4.122345 0 8.075867 1.6376038 10.990784 4.552536c2.9149475 2.9149323 4.5525513 6.8684387 4.5525513 10.990784l0 0c0 8.58432 -6.9589844 15.543304 -15.543335 15.543304l0 0c-8.58432 0 -15.543304 -6.9589844 -15.543304 -15.543304z" fill-rule="evenodd"></path><path fill="#666666" d="m448.6929 306.6076l0 0c0 -8.58432 6.9589844 -15.543304 15.543304 -15.543304l0 0c4.122345 0 8.075867 1.6376038 10.990784 4.5525208c2.9149475 2.9149475 4.5525513 6.8684387 4.5525513 10.990784l0 0c0 8.584351 -6.9589844 15.543304 -15.543335 15.543304l0 0c-8.58432 0 -15.543304 -6.958954 -15.543304 -15.543304z" fill-rule="evenodd"></path><path fill="#666666" d="m448.6929 363.7047l0 0c0 -8.58432 6.9589844 -15.543304 15.543304 -15.543304l0 0c4.122345 0 8.075867 1.6376038 10.990784 4.5525513c2.9149475 2.914917 4.5525513 6.8684387 4.5525513 10.990753l0 0c0 8.584351 -6.9589844 15.543304 -15.543335 15.543304l0 0c-8.58432 0 -15.543304 -6.958954 -15.543304 -15.543304z" fill-rule="evenodd"></path><path fill="#666666" d="m448.6929 592.0932l0 0c0 -8.584351 6.9589844 -15.543335 15.543304 -15.543335l0 0c4.122345 0 8.075867 1.6375732 10.990784 4.5525513c2.9149475 2.914917 4.5525513 6.868408 4.5525513 10.990784l0 0c0 8.58429 -6.9589844 15.543274 -15.543335 15.543274l0 0c-8.58432 0 -15.543304 -6.9589844 -15.543304 -15.543274z" fill-rule="evenodd"></path><path fill="#666666" d="m448.6929 657.8937l0 0c0 -8.58429 6.9589844 -15.543274 15.543304 -15.543274l0 0c4.122345 0 8.075867 1.6375732 10.990784 4.55249c2.9149475 2.914978 4.5525513 6.868469 4.5525513 10.990784l0 0c0 8.584351 -6.9589844 15.543335 -15.543335 15.543335l0 0c-8.58432 0 -15.543304 -6.9589844 -15.543304 -15.543335z" fill-rule="evenodd"></path><path fill="#666666" d="m608.69293 142.1063l0 0c0 -8.58432 6.9589844 -15.543297 15.543274 -15.543297l0 0c4.1223755 0 8.075867 1.6375961 10.990784 4.5525284c2.914917 2.9149323 4.5525513 6.8684387 4.5525513 10.990768l0 0c0 8.584335 -6.9589844 15.54332 -15.543335 15.54332l0 0c-8.58429 0 -15.543274 -6.9589844 -15.543274 -15.54332z" fill-rule="evenodd"></path><path fill="#666666" d="m608.69293 537.605l0 0c0 -8.584351 6.9589844 -15.543274 15.543274 -15.543274l0 0c4.1223755 0 8.075867 1.6375732 10.990784 4.55249c2.914917 2.914978 4.5525513 6.868469 4.5525513 10.990784l0 0c0 8.584351 -6.9589844 15.543335 -15.543335 15.543335l0 0c-8.58429 0 -15.543274 -6.9589844 -15.543274 -15.543335z" fill-rule="evenodd"></path><path fill="#666666" d="m608.69293 197.80971l0 0c0 -8.584335 6.9589844 -15.543304 15.543274 -15.543304l0 0c4.1223755 0 8.075867 1.6375885 10.990784 4.552536c2.914917 2.9149323 4.5525513 6.8684235 4.5525513 10.990768l0 0c0 8.584335 -6.9589844 15.543304 -15.543335 15.543304l0 0c-8.58429 0 -15.543274 -6.958969 -15.543274 -15.543304z" fill-rule="evenodd"></path><path fill="#666666" d="m608.69293 480.50787l0 0c0 -8.58432 6.9589844 -15.543304 15.543274 -15.543304l0 0c4.1223755 0 8.075867 1.6376038 10.990784 4.5525208c2.914917 2.9149475 4.5525513 6.8684387 4.5525513 10.990784l0 0c0 8.58432 -6.9589844 15.543304 -15.543335 15.543304l0 0c-8.58429 0 -15.543274 -6.9589844 -15.543274 -15.543304z" fill-rule="evenodd"></path><path fill="#666666" d="m608.69293 423.41077l0 0c0 -8.584351 6.9589844 -15.543304 15.543274 -15.543304l0 0c4.1223755 0 8.075867 1.6375732 10.990784 4.5525208c2.914917 2.9149475 4.5525513 6.8684387 4.5525513 10.990784l0 0c0 8.58432 -6.9589844 15.543304 -15.543335 15.543304l0 0c-8.58429 0 -15.543274 -6.9589844 -15.543274 -15.543304z" fill-rule="evenodd"></path><path fill="#666666" d="m608.69293 253.51181l0 0c0 -8.584335 6.9589844 -15.543304 15.543274 -15.543304l0 0c4.1223755 0 8.075867 1.6375885 10.990784 4.5525208c2.914917 2.9149475 4.5525513 6.8684387 4.5525513 10.990784l0 0c0 8.58432 -6.9589844 15.543304 -15.543335 15.543304l0 0c-8.58429 0 -15.543274 -6.9589844 -15.543274 -15.543304z" fill-rule="evenodd"></path><path fill="#666666" d="m608.69293 309.21652l0 0c0 -8.58432 6.9589844 -15.543304 15.543274 -15.543304l0 0c4.1223755 0 8.075867 1.6376038 10.990784 4.5525513c2.914917 2.914917 4.5525513 6.8684387 4.5525513 10.990753l0 0c0 8.584351 -6.9589844 15.543335 -15.543335 15.543335l0 0c-8.58429 0 -15.543274 -6.9589844 -15.543274 -15.543335z" fill-rule="evenodd"></path><path fill="#666666" d="m608.69293 366.31366l0 0c0 -8.584351 6.9589844 -15.543304 15.543274 -15.543304l0 0c4.1223755 0 8.075867 1.6375732 10.990784 4.5525208c2.914917 2.914917 4.5525513 6.8684387 4.5525513 10.990784l0 0c0 8.58432 -6.9589844 15.543304 -15.543335 15.543304l0 0c-8.58429 0 -15.543274 -6.9589844 -15.543274 -15.543304z" fill-rule="evenodd"></path><path fill="#666666" d="m608.69293 594.7021l0 0c0 -8.58429 6.9589844 -15.543274 15.543274 -15.543274l0 0c4.1223755 0 8.075867 1.6375732 10.990784 4.55249c2.914917 2.914978 4.5525513 6.868469 4.5525513 10.990784l0 0c0 8.584351 -6.9589844 15.543335 -15.543335 15.543335l0 0c-8.58429 0 -15.543274 -6.9589844 -15.543274 -15.543335z" fill-rule="evenodd"></path><path fill="#666666" d="m608.69293 660.5026l0 0c0 -8.584351 6.9589844 -15.543335 15.543274 -15.543335l0 0c4.1223755 0 8.075867 1.6376343 10.990784 4.5525513c2.914917 2.914917 4.5525513 6.868469 4.5525513 10.990784l0 0c0 8.584351 -6.9589844 15.543335 -15.543335 15.543335l0 0c-8.58429 0 -15.543274 -6.9589844 -15.543274 -15.543335z" fill-rule="evenodd"></path><path fill="#a2c4c9" d="m754.68506 337.69553l0 0c0 -8.58432 6.9589844 -15.543304 15.543274 -15.543304l0 0c4.1223755 0 8.075867 1.6376038 10.990784 4.5525513c2.914917 2.914917 4.5525513 6.8684387 4.5525513 10.990753l0 0c0 8.584351 -6.9589844 15.543304 -15.543335 15.543304l0 0c-8.58429 0 -15.543274 -6.958954 -15.543274 -15.543304z" fill-rule="evenodd"></path><path fill="#a2c4c9" d="m754.68506 478.07874l0 0c0 -8.58432 6.9589844 -15.543304 15.543274 -15.543304l0 0c4.1223755 0 8.075867 1.6376038 10.990784 4.5525208c2.914917 2.9149475 4.5525513 6.8684387 4.5525513 10.990784l0 0c0 8.584351 -6.9589844 15.543304 -15.543335 15.543304l0 0c-8.58429 0 -15.543274 -6.958954 -15.543274 -15.543304z" fill-rule="evenodd"></path><path fill="#dd7e6b" d="m137.5433 374.65747l0 0c0 -8.58432 6.9589844 -15.543304 15.543304 -15.543304l0 0c4.122345 0 8.075851 1.6376038 10.990784 4.5525513c2.9149323 2.914917 4.552536 6.868408 4.552536 10.990753l0 0c0 8.584351 -6.9589844 15.543304 -15.54332 15.543304l0 0c-8.58432 0 -15.543304 -6.958954 -15.543304 -15.543304z" fill-rule="evenodd"></path><path fill="#dd7e6b" d="m137.5433 426.53674l0 0c0 -8.58432 6.9589844 -15.543304 15.543304 -15.543304l0 0c4.122345 0 8.075851 1.6376038 10.990784 4.5525208c2.9149323 2.9149475 4.552536 6.8684387 4.552536 10.990784l0 0c0 8.58432 -6.9589844 15.543304 -15.54332 15.543304l0 0c-8.58432 0 -15.543304 -6.9589844 -15.543304 -15.543304z" fill-rule="evenodd"></path><path fill="#dd7e6b" d="m137.5433 479.59842l0 0c0 -8.58432 6.9589844 -15.543304 15.543304 -15.543304l0 0c4.122345 0 8.075851 1.6376038 10.990784 4.5525208c2.9149323 2.9149475 4.552536 6.8684387 4.552536 10.990784l0 0c0 8.584351 -6.9589844 15.543304 -15.54332 15.543304l0 0c-8.58432 0 -15.543304 -6.958954 -15.543304 -15.543304z" fill-rule="evenodd"></path><path fill="#dd7e6b" d="m137.5433 530.2966l0 0c0 -8.58429 6.9589844 -15.543274 15.543304 -15.543274l0 0c4.122345 0 8.075851 1.6375732 10.990784 4.55249c2.9149323 2.914978 4.552536 6.868469 4.552536 10.990784l0 0c0 8.584351 -6.9589844 15.543335 -15.54332 15.543335l0 0c-8.58432 0 -15.543304 -6.9589844 -15.543304 -15.543335z" fill-rule="evenodd"></path><path fill="#000000" fill-opacity="0.0" d="m426.56693 17.939632l75.33859 0l0 49.480312l-75.33859 0z" fill-rule="evenodd"></path><path fill="#000000" d="m436.91068 51.61276l2.8125 -0.375q0.484375 2.390625 1.640625 3.453125q1.171875 1.046875 2.84375 1.046875q1.984375 0 3.34375 -1.375q1.375 -1.375 1.375 -3.40625q0 -1.9375 -1.265625 -3.1875q-1.265625 -1.265625 -3.21875 -1.265625q-0.796875 0 -1.984375 0.3125l0.3125 -2.46875q0.28125 0.03125 0.453125 0.03125q1.796875 0 3.234375 -0.9375q1.4375 -0.9375 1.4375 -2.890625q0 -1.546875 -1.046875 -2.5625q-1.046875 -1.015625 -2.703125 -1.015625q-1.640625 0 -2.734375 1.03125q-1.09375 1.03125 -1.40625 3.09375l-2.8125 -0.5q0.515625 -2.828125 2.34375 -4.375q1.828125 -1.5625 4.546875 -1.5625q1.875 0 3.453125 0.8125q1.578125 0.796875 2.40625 2.1875q0.84375 1.390625 0.84375 2.953125q0 1.484375 -0.796875 2.703125q-0.796875 1.21875 -2.359375 1.9375q2.03125 0.46875 3.15625 1.953125q1.125 1.46875 1.125 3.6875q0 3.0 -2.1875 5.09375q-2.1875 2.078125 -5.53125 2.078125q-3.015625 0 -5.015625 -1.796875q-1.984375 -1.796875 -2.265625 -4.65625z" fill-rule="nonzero"></path><path fill="#000000" d="m467.9888 38.659634l1.5 2.625l5.0 0l1.0 -2.75l-15.25 0l0 11.375q0 5.75 -2.875 10.5l-2.125 -1.875q2.5 -3.875 2.5 -9.375l0 -16.625l23.75 0l0 6.0l-5.125 0l1.625 0.75q0.5 0.5 -0.375 0.625l-0.75 1.375l5.25 0l0 8.125l-20.0 0l0 -8.125l4.75 0l-1.125 -1.5l2.25 -1.125zm11.625 9.25l0 -1.875l-6.25 0l0 1.875l6.25 0zm-15.0 0l6.25 0l0 -1.875l-6.25 0l0 1.875zm2.5 12.625l-2.5 0l0 -9.625l15.375 0l0 9.25l-2.5 0l0 -1.125l-10.375 0l0 1.5zm10.375 -3.0l0 -1.875l-10.375 0l0 1.875l10.375 0zm-17.25 -21.0l18.75 0l0 -2.0l-18.75 0l0 2.0zm4.375 8.0l6.25 0l0 -1.75l-6.25 0l0 1.75zm8.75 0l6.25 0l0 -1.75l-6.25 0l0 1.75zm-6.25 9.625l10.375 0l0 -1.75l-10.375 0l0 1.75z" fill-rule="nonzero"></path><path fill="#000000" fill-opacity="0.0" d="m272.67715 77.94751l387.52756 0.97637177" fill-rule="evenodd"></path><path stroke="#000000" stroke-width="1.0" stroke-linejoin="round" stroke-linecap="butt" d="m272.67715 77.94751l387.52756 0.97637177" fill-rule="evenodd"></path><path fill="#000000" fill-opacity="0.0" d="m272.69028 102.85827l0 -25.133858" fill-rule="evenodd"></path><path stroke="#000000" stroke-width="1.0" stroke-linejoin="round" stroke-linecap="butt" d="m272.69028 102.85827l0 -25.133858" fill-rule="evenodd"></path><path fill="#000000" fill-opacity="0.0" d="m661.3963 104.05249l0 -25.102356" fill-rule="evenodd"></path><path stroke="#000000" stroke-width="1.0" stroke-linejoin="round" stroke-linecap="butt" d="m661.3963 104.05249l0 -25.102356" fill-rule="evenodd"></path><path fill="#000000" fill-opacity="0.0" d="m114.81628 182.69292l108.850395 0l0 49.480316l-108.850395 0z" fill-rule="evenodd"></path><path fill="#000000" d="m125.94128 202.74104l0 -3.234375l2.8124924 0l0 3.234375l-2.8124924 0zm0 19.671875l0 -16.59375l2.8124924 0l0 16.59375l-2.8124924 0zm7.0937424 0l0 -16.59375l2.53125 0l0 2.359375q1.828125 -2.734375 5.28125 -2.734375q1.5 0 2.75 0.546875q1.265625 0.53125 1.890625 1.40625q0.625 0.875 0.875 2.078125q0.15625 0.78125 0.15625 2.734375l0 10.203125l-2.8125 0l0 -10.09375q0 -1.71875 -0.328125 -2.5625q-0.328125 -0.859375 -1.171875 -1.359375q-0.828125 -0.515625 -1.953125 -0.515625q-1.796875 0 -3.109375 1.140625q-1.296875 1.140625 -1.296875 4.328125l0 9.0625l-2.8125 0zm17.796875 6.359375l0 -22.953125l2.5625 0l0 2.15625q0.90625 -1.265625 2.046875 -1.890625q1.140625 -0.640625 2.765625 -0.640625q2.125 0 3.75 1.09375q1.625 1.09375 2.453125 3.09375q0.828125 1.984375 0.828125 4.359375q0 2.546875 -0.921875 4.59375q-0.90625 2.03125 -2.65625 3.125q-1.734375 1.078125 -3.65625 1.078125q-1.40625 0 -2.53125 -0.59375q-1.109375 -0.59375 -1.828125 -1.5l0 8.078125l-2.8125 0zm2.546875 -14.5625q0 3.203125 1.296875 4.734375q1.296875 1.53125 3.140625 1.53125q1.875 0 3.203125 -1.578125q1.34375 -1.59375 1.34375 -4.921875q0 -3.171875 -1.3125 -4.75q-1.296875 -1.578125 -3.109375 -1.578125q-1.796875 0 -3.1875 1.6875q-1.375 1.671875 -1.375 4.875zm26.125 8.203125l0 -2.4375q-1.9375 2.8125 -5.265625 2.8125q-1.46875 0 -2.75 -0.5625q-1.265625 -0.5625 -1.890625 -1.40625q-0.609375 -0.859375 -0.859375 -2.09375q-0.171875 -0.828125 -0.171875 -2.625l0 -10.28125l2.8125 0l0 9.203125q0 2.203125 0.171875 2.96875q0.265625 1.109375 1.125 1.75q0.859375 0.625 2.125 0.625q1.265625 0 2.375 -0.640625q1.109375 -0.65625 1.5625 -1.765625q0.46875 -1.125 0.46875 -3.25l0 -8.890625l2.8125 0l0 16.59375l-2.515625 0zm13.0625 -2.515625l0.40625 2.484375q-1.1875 0.25 -2.125 0.25q-1.53125 0 -2.375 -0.484375q-0.84375 -0.484375 -1.1875 -1.265625q-0.34375 -0.796875 -0.34375 -3.328125l0 -9.546875l-2.0625 0l0 -2.1875l2.0625 0l0 -4.109375l2.796875 -1.6875l0 5.796875l2.828125 0l0 2.1875l-2.828125 0l0 9.703125q0 1.203125 0.140625 1.546875q0.15625 0.34375 0.484375 0.546875q0.34375 0.203125 0.96875 0.203125q0.46875 0 1.234375 -0.109375z" fill-rule="nonzero"></path><path fill="#000000" fill-opacity="0.0" d="m711.6273 182.69292l108.85034 0l0 49.480316l-108.85034 0z" fill-rule="evenodd"></path><path fill="#000000" d="m721.6898 214.11604q0 -4.609375 2.5625 -6.828125q2.140625 -1.84375 5.21875 -1.84375q3.421875 0 5.59375 2.25q2.171875 2.234375 2.171875 6.1875q0 3.203125 -0.96875 5.046875q-0.953125 1.828125 -2.796875 2.84375q-1.828125 1.015625 -4.0 1.015625q-3.484375 0 -5.640625 -2.234375q-2.140625 -2.234375 -2.140625 -6.4375zm2.890625 0q0 3.1875 1.390625 4.78125q1.390625 1.578125 3.5 1.578125q2.09375 0 3.484375 -1.59375q1.390625 -1.59375 1.390625 -4.859375q0 -3.078125 -1.40625 -4.65625q-1.390625 -1.59375 -3.46875 -1.59375q-2.109375 0 -3.5 1.578125q-1.390625 1.578125 -1.390625 4.765625zm26.828125 8.296875l0 -2.4375q-1.9375 2.8125 -5.265625 2.8125q-1.46875 0 -2.75 -0.5625q-1.265625 -0.5625 -1.890625 -1.40625q-0.609375 -0.859375 -0.859375 -2.09375q-0.171875 -0.828125 -0.171875 -2.625l0 -10.28125l2.8125 0l0 9.203125q0 2.203125 0.171875 2.96875q0.265625 1.109375 1.125 1.75q0.859375 0.625 2.125 0.625q1.265625 0 2.375 -0.640625q1.109375 -0.65625 1.5625 -1.765625q0.46875 -1.125 0.46875 -3.25l0 -8.890625l2.8125 0l0 16.59375l-2.515625 0zm13.0625 -2.515625l0.40625 2.484375q-1.1875 0.25 -2.125 0.25q-1.53125 0 -2.375 -0.484375q-0.84375 -0.484375 -1.1875 -1.265625q-0.34375 -0.796875 -0.34375 -3.328125l0 -9.546875l-2.0625 0l0 -2.1875l2.0625 0l0 -4.109375l2.796875 -1.6875l0 5.796875l2.828125 0l0 2.1875l-2.828125 0l0 9.703125q0 1.203125 0.140625 1.546875q0.15625 0.34375 0.484375 0.546875q0.34375 0.203125 0.96875 0.203125q0.46875 0 1.234375 -0.109375zm2.75 8.875l0 -22.953125l2.5625 0l0 2.15625q0.90625 -1.265625 2.046875 -1.890625q1.140625 -0.640625 2.765625 -0.640625q2.125 0 3.75 1.09375q1.625 1.09375 2.453125 3.09375q0.828125 1.984375 0.828125 4.359375q0 2.546875 -0.921875 4.59375q-0.90625 2.03125 -2.65625 3.125q-1.734375 1.078125 -3.65625 1.078125q-1.40625 0 -2.53125 -0.59375q-1.109375 -0.59375 -1.828125 -1.5l0 8.078125l-2.8125 0zm2.546875 -14.5625q0 3.203125 1.296875 4.734375q1.296875 1.53125 3.140625 1.53125q1.875 0 3.203125 -1.578125q1.34375 -1.59375 1.34375 -4.921875q0 -3.171875 -1.3125 -4.75q-1.296875 -1.578125 -3.109375 -1.578125q-1.796875 0 -3.1875 1.6875q-1.375 1.671875 -1.375 4.875zm26.125 8.203125l0 -2.4375q-1.9375 2.8125 -5.265625 2.8125q-1.46875 0 -2.75 -0.5625q-1.265625 -0.5625 -1.890625 -1.40625q-0.609375 -0.859375 -0.859375 -2.09375q-0.171875 -0.828125 -0.171875 -2.625l0 -10.28125l2.8125 0l0 9.203125q0 2.203125 0.171875 2.96875q0.265625 1.109375 1.125 1.75q0.859375 0.625 2.125 0.625q1.265625 0 2.375 -0.640625q1.109375 -0.65625 1.5625 -1.765625q0.46875 -1.125 0.46875 -3.25l0 -8.890625l2.8125 0l0 16.59375l-2.515625 0zm13.0625 -2.515625l0.40625 2.484375q-1.1875 0.25 -2.125 0.25q-1.53125 0 -2.375 -0.484375q-0.84375 -0.484375 -1.1875 -1.265625q-0.34375 -0.796875 -0.34375 -3.328125l0 -9.546875l-2.0625 0l0 -2.1875l2.0625 0l0 -4.109375l2.796875 -1.6875l0 5.796875l2.828125 0l0 2.1875l-2.828125 0l0 9.703125q0 1.203125 0.140625 1.546875q0.15625 0.34375 0.484375 0.546875q0.34375 0.203125 0.96875 0.203125q0.46875 0 1.234375 -0.109375z" fill-rule="nonzero"></path><path fill="#000000" fill-opacity="0.0" d="m820.47766 304.95538l49.007874 0l0 49.480316l-49.007874 0z" fill-rule="evenodd"></path><path fill="#000000" d="m830.8058 333.3785q0 -4.0625 0.828125 -6.53125q0.84375 -2.484375 2.484375 -3.828125q1.65625 -1.34375 4.15625 -1.34375q1.84375 0 3.234375 0.75q1.390625 0.734375 2.296875 2.140625q0.90625 1.390625 1.421875 3.40625q0.515625 2.0 0.515625 5.40625q0 4.03125 -0.828125 6.515625q-0.828125 2.46875 -2.484375 3.828125q-1.640625 1.34375 -4.15625 1.34375q-3.3125 0 -5.203125 -2.375q-2.265625 -2.859375 -2.265625 -9.3125zm2.890625 0q0 5.640625 1.3125 7.515625q1.328125 1.859375 3.265625 1.859375q1.9375 0 3.25 -1.875q1.328125 -1.875 1.328125 -7.5q0 -5.65625 -1.328125 -7.515625q-1.3125 -1.859375 -3.28125 -1.859375q-1.9375 0 -3.09375 1.640625q-1.453125 2.09375 -1.453125 7.734375z" fill-rule="nonzero"></path><path fill="#000000" fill-opacity="0.0" d="m820.47766 453.1601l49.007874 0l0 49.480316l-49.007874 0z" fill-rule="evenodd"></path><path fill="#000000" d="m841.39954 492.8801l-2.8125 0l0 -17.921875q-1.015625 0.96875 -2.671875 1.9375q-1.640625 0.96875 -2.953125 1.453125l0 -2.71875q2.359375 -1.109375 4.125 -2.6875q1.765625 -1.578125 2.5 -3.0625l1.8125 0l0 23.0z" fill-rule="nonzero"></path></g></svg>

