<?xml version="1.0" standalone="yes"?>

<svg version="1.1" viewBox="0.0 0.0 1961.241469816273 1144.6509186351707" fill="none" stroke="none" stroke-linecap="square" stroke-miterlimit="10" xmlns="http://www.w3.org/2000/svg" xmlns:xlink="http://www.w3.org/1999/xlink"><clipPath id="p.0"><path d="m0 0l1961.2415 0l0 1144.6509l-1961.2415 0l0 -1144.6509z" clip-rule="nonzero"></path></clipPath><g clip-path="url(#p.0)"><path fill="#000000" fill-opacity="0.0" d="m0 0l1961.2415 0l0 1144.6509l-1961.2415 0z" fill-rule="nonzero"></path><path fill="#cfe2f3" d="m98.54593 618.9055l0 0c0 -33.57196 25.107307 -60.787415 56.078735 -60.787415l0 0c14.873016 0 29.136856 6.404358 39.65367 17.8042c10.5168 11.399902 16.42508 26.86139 16.42508 42.983215l0 0c0 33.57196 -25.107315 60.787415 -56.07875 60.787415l0 0c-30.971428 0 -56.078735 -27.215454 -56.078735 -60.787415z" fill-rule="nonzero"></path><path stroke="#000000" stroke-width="1.0" stroke-linejoin="round" stroke-linecap="butt" d="m98.54593 618.9055l0 0c0 -33.57196 25.107307 -60.787415 56.078735 -60.787415l0 0c14.873016 0 29.136856 6.404358 39.65367 17.8042c10.5168 11.399902 16.42508 26.86139 16.42508 42.983215l0 0c0 33.57196 -25.107315 60.787415 -56.07875 60.787415l0 0c-30.971428 0 -56.078735 -27.215454 -56.078735 -60.787415z" fill-rule="nonzero"></path><path fill="#000000" d="m142.74577 598.32935q1.90625 2.03125 2.890625 4.0625q0.703125 1.40625 2.2968597 7.390625l3.4375 -5.15625q1.375 -1.875 3.328125 -3.578125q1.953125 -1.703125 3.4375 -2.328125q0.9375 -0.390625 2.0625 -0.390625q1.6875 0 2.671875 0.90625q1.0 0.890625 1.0 2.1875q0 1.484375 -0.578125 2.03125q-1.09375 0.96875 -2.5 0.96875q-0.828125 0 -1.765625 -0.34375q-1.828125 -0.625 -2.453125 -0.625q-0.9375 0 -2.234375 1.09375q-2.421875 2.03125 -5.78125 7.84375l3.203125 13.4375q0.75 3.09375 1.25 3.703125q0.515625 0.59375 1.015625 0.59375q0.828125 0 1.921875 -0.890625q2.140625 -1.796875 3.671875 -4.6875l1.359375 0.703125q-2.453125 4.609375 -6.25 7.65625q-2.140625 1.71875 -3.625 1.71875q-2.1875 0 -3.484375 -2.46875q-0.81248474 -1.515625 -3.3906097 -13.125q-6.09375 10.59375 -9.765625 13.640625q-2.390625 1.953125 -4.609375 1.953125q-1.578125 0 -2.8593826 -1.140625q-0.9375 -0.859375 -0.9375 -2.296875q0 -1.296875 0.859375 -2.15625q0.859375 -0.859375 2.1093826 -0.859375q1.25 0 2.65625 1.25q1.015625 0.90625 1.5625 0.90625q0.46875 0 1.21875 -0.625q1.828125 -1.484375 4.984375 -6.40625q3.171875 -4.921875 4.15625 -7.109375q-2.421875 -9.5 -2.625 -10.046875q-0.890625 -2.53125 -2.34375 -3.578125q-1.4375 -1.0625 -4.25 -1.0625q-0.90625 0 -2.078125 0.078125l0 -1.40625l10.4375 -1.84375z" fill-rule="nonzero"></path><path fill="#000000" d="m168.12857 614.57935l5.15625 -2.515625l0.515625 0l0 17.890625q0 1.78125 0.140625 2.21875q0.15625 0.4375 0.625 0.671875q0.46875 0.234375 1.90625 0.265625l0 0.578125l-7.96875 0l0 -0.578125q1.5 -0.03125 1.9375 -0.25q0.4375 -0.234375 0.609375 -0.609375q0.171875 -0.390625 0.171875 -2.296875l0 -11.4375q0 -2.3125 -0.15625 -2.96875q-0.109375 -0.5 -0.40625 -0.734375q-0.28125 -0.234375 -0.6875 -0.234375q-0.578125 0 -1.609375 0.484375l-0.234375 -0.484375z" fill-rule="nonzero"></path><path fill="#cfe2f3" d="m105.10236 886.4952l0 0c0 -33.57196 25.107307 -60.787415 56.078743 -60.787415l0 0c14.873001 0 29.136856 6.404419 39.653656 17.80426c10.5168 11.399841 16.42508 26.861328 16.42508 42.983154l0 0c0 33.57196 -25.1073 60.787415 -56.078735 60.787415l0 0c-30.971436 0 -56.078743 -27.215454 -56.078743 -60.787415z" fill-rule="nonzero"></path><path stroke="#000000" stroke-width="1.0" stroke-linejoin="round" stroke-linecap="butt" d="m105.10236 886.4952l0 0c0 -33.57196 25.107307 -60.787415 56.078743 -60.787415l0 0c14.873001 0 29.136856 6.404419 39.653656 17.80426c10.5168 11.399841 16.42508 26.861328 16.42508 42.983154l0 0c0 33.57196 -25.1073 60.787415 -56.078735 60.787415l0 0c-30.971436 0 -56.078743 -27.215454 -56.078743 -60.787415z" fill-rule="nonzero"></path><path fill="#000000" d="m149.3022 868.9358q1.90625 2.03125 2.890625 4.0625q0.703125 1.40625 2.296875 7.390625l3.4375 -5.15625q1.375 -1.875 3.328125 -3.578125q1.953125 -1.703125 3.4375 -2.328125q0.9375 -0.390625 2.0625 -0.390625q1.6875 0 2.671875 0.90625q1.0 0.890625 1.0 2.1875q0 1.484375 -0.578125 2.03125q-1.09375 0.96875 -2.5 0.96875q-0.828125 0 -1.765625 -0.34375q-1.828125 -0.625 -2.453125 -0.625q-0.9375 0 -2.234375 1.09375q-2.421875 2.03125 -5.78125 7.84375l3.203125 13.4375q0.75 3.09375 1.25 3.703125q0.515625 0.59375 1.015625 0.59375q0.828125 0 1.921875 -0.890625q2.140625 -1.796875 3.671875 -4.6875l1.359375 0.703125q-2.453125 4.609375 -6.25 7.65625q-2.140625 1.71875 -3.625 1.71875q-2.1875 0 -3.484375 -2.46875q-0.8125 -1.515625 -3.390625 -13.125q-6.09375 10.59375 -9.765625 13.640625q-2.390625 1.953125 -4.609375 1.953125q-1.578125 0 -2.859375 -1.140625q-0.9375 -0.859375 -0.9375 -2.296875q0 -1.296875 0.859375 -2.15625q0.859375 -0.859375 2.109375 -0.859375q1.25 0 2.65625 1.25q1.015625 0.90625 1.5625 0.90625q0.46875 0 1.21875 -0.625q1.828125 -1.484375 4.984375 -6.40625q3.171875 -4.921875 4.15625 -7.109375q-2.421875 -9.5 -2.625 -10.046875q-0.890625 -2.53125 -2.34375 -3.578125q-1.4375 -1.0625 -4.25 -1.0625q-0.90625 0 -2.078125 0.078125l0 -1.40625l10.4375 -1.84375z" fill-rule="nonzero"></path><path fill="#000000" d="m185.60689 900.21704l-1.484375 4.078125l-12.5 0l0 -0.578125q5.515625 -5.03125 7.765625 -8.21875q2.25 -3.1875 2.25 -5.828125q0 -2.015625 -1.234375 -3.3125q-1.234375 -1.296875 -2.953125 -1.296875q-1.5625 0 -2.8125 0.921875q-1.234375 0.90625 -1.828125 2.671875l-0.578125 0q0.390625 -2.890625 2.0 -4.4375q1.625 -1.546875 4.046875 -1.546875q2.578125 0 4.296875 1.65625q1.734375 1.65625 1.734375 3.90625q0 1.609375 -0.75 3.21875q-1.15625 2.53125 -3.75 5.359375q-3.890625 4.25 -4.859375 5.125l5.53125 0q1.6875 0 2.359375 -0.125q0.6875 -0.125 1.234375 -0.5q0.546875 -0.390625 0.953125 -1.09375l0.578125 0z" fill-rule="nonzero"></path><path fill="#cfe2f3" d="m393.1564 282.9371l0 0c0 -71.33606 62.842316 -129.16536 140.36221 -129.16536l0 0c77.5199 0 140.36218 57.8293 140.36218 129.16536l0 0c0 71.33603 -62.842285 129.16534 -140.36218 129.16534l0 0c-77.5199 0 -140.36221 -57.829315 -140.36221 -129.16534z" fill-rule="nonzero"></path><path stroke="#000000" stroke-width="1.0" stroke-linejoin="round" stroke-linecap="butt" d="m393.1564 282.9371l0 0c0 -71.33606 62.842316 -129.16536 140.36221 -129.16536l0 0c77.5199 0 140.36218 57.8293 140.36218 129.16536l0 0c0 71.33603 -62.842285 129.16534 -140.36218 129.16534l0 0c-77.5199 0 -140.36221 -57.829315 -140.36221 -129.16534z" fill-rule="nonzero"></path><path fill="#000000" fill-opacity="0.0" d="m257.25986 339.09448l134.42517 0l0 47.653534l-134.42517 0z" fill-rule="nonzero"></path><path fill="#000000" d="m293.07236 357.58002l2.15625 23.4375q5.4375 -6.375 8.6875 -11.96875q1.90625 -3.28125 1.90625 -4.75q0 -0.6875 -0.3125 -1.21875q-0.125 -0.28125 -0.984375 -0.828125q-0.859375 -0.546875 -1.203125 -1.125q-0.34375 -0.578125 -0.34375 -1.234375q0 -0.96875 0.71875 -1.640625q0.71875 -0.671875 1.84375 -0.671875q1.28125 0 2.171875 0.953125q0.890625 0.953125 0.890625 2.546875q0 1.625 -0.46875 3.03125q-0.9375 2.6875 -3.65625 6.9375q-3.3125 5.09375 -6.828125 9.453125q-3.515625 4.359375 -5.234375 6.109375l-1.15625 0l-2.03125 -21.625l-12.90625 21.625l-1.375 0q-0.21875 -13.34375 -1.34375 -21.0625q-0.46875 -3.21875 -1.5625 -4.21875q-0.78125 -0.71875 -2.375 -0.71875q-0.90625 0 -2.3125 0.1875l0 -1.125l8.96875 -2.09375q1.875 5.21875 2.4375 16.03125q0.1875 4.09375 0.3125 5.15625l12.84375 -21.1875l1.15625 0z" fill-rule="nonzero"></path><path fill="#000000" d="m312.69736 366.7519l5.15625 -2.515625l0.515625 0l0 17.890625q0 1.78125 0.140625 2.21875q0.15625 0.4375 0.625 0.671875q0.46875 0.234375 1.90625 0.265625l0 0.578125l-7.96875 0l0 -0.578125q1.5 -0.03125 1.9375 -0.25q0.4375 -0.234375 0.609375 -0.609375q0.171875 -0.390625 0.171875 -2.296875l0 -11.4375q0 -2.3125 -0.15625 -2.96875q-0.109375 -0.5 -0.40625 -0.734375q-0.28125 -0.234375 -0.6875 -0.234375q-0.578125 0 -1.609375 0.484375l-0.234375 -0.484375zm16.0 0l5.15625 -2.515625l0.515625 0l0 17.890625q0 1.78125 0.140625 2.21875q0.15625 0.4375 0.625 0.671875q0.46875 0.234375 1.90625 0.265625l0 0.578125l-7.96875 0l0 -0.578125q1.5 -0.03125 1.9375 -0.25q0.4375 -0.234375 0.609375 -0.609375q0.171875 -0.390625 0.171875 -2.296875l0 -11.4375q0 -2.3125 -0.15625 -2.96875q-0.109375 -0.5 -0.40625 -0.734375q-0.28125 -0.234375 -0.6875 -0.234375q-0.578125 0 -1.609375 0.484375l-0.234375 -0.484375z" fill-rule="nonzero"></path><path fill="#000000" fill-opacity="0.0" d="m210.70341 618.9055l182.45668 -335.9685" fill-rule="nonzero"></path><path stroke="#999999" stroke-width="4.0" stroke-linejoin="round" stroke-linecap="butt" d="m210.70341 618.9055l171.00291 -314.878" fill-rule="evenodd"></path><path fill="#999999" stroke="#999999" stroke-width="4.0" stroke-linecap="butt" d="m387.5123 307.18063l2.8570862 -19.10492l-14.469055 12.798737z" fill-rule="evenodd"></path><path fill="#000000" fill-opacity="0.0" d="m217.25984 881.94403l175.9055 -603.5591" fill-rule="nonzero"></path><path stroke="#999999" stroke-width="4.0" stroke-linejoin="round" stroke-linecap="butt" d="m217.25984 881.944l169.19017 -580.5177" fill-rule="evenodd"></path><path fill="#999999" stroke="#999999" stroke-width="4.0" stroke-linecap="butt" d="m392.79303 303.27496l-1.263855 -19.27597l-11.42218 15.578644z" fill-rule="evenodd"></path><path fill="#000000" fill-opacity="0.0" d="m151.58781 754.7953l112.157486 0l0 47.653503l-112.157486 0z" fill-rule="nonzero"></path><path fill="#000000" d="m187.40031 773.2808l2.15625 23.4375q5.4375 -6.375 8.6875 -11.96875q1.90625 -3.28125 1.90625 -4.75q0 -0.6875 -0.3125 -1.21875q-0.125 -0.28125 -0.984375 -0.828125q-0.859375 -0.546875 -1.203125 -1.125q-0.34375 -0.578125 -0.34375 -1.234375q0 -0.96875 0.71875 -1.640625q0.71875 -0.671875 1.84375 -0.671875q1.28125 0 2.171875 0.953125q0.890625 0.953125 0.890625 2.546875q0 1.625 -0.46875 3.03125q-0.9375 2.6875 -3.65625 6.9375q-3.3125 5.09375 -6.828125 9.453125q-3.515625 4.359375 -5.234375 6.109375l-1.15625 0l-2.03125 -21.625l-12.90625 21.625l-1.375 0q-0.21875 -13.34375 -1.34375 -21.0625q-0.46875 -3.21875 -1.5625 -4.21875q-0.78125 -0.71875 -2.375 -0.71875q-0.90625 0 -2.3125 0.1875l0 -1.125l8.96875 -2.09375q1.875 5.21875 2.4375 16.03125q0.1875 4.09375 0.3125 5.15625l12.84375 -21.1875l1.15625 0z" fill-rule="nonzero"></path><path fill="#000000" d="m206.08781 787.23395l3.875 -1.890625l0.375 0l0 13.421875q0 1.328125 0.109375 1.65625q0.125 0.328125 0.46875 0.515625q0.359375 0.171875 1.4375 0.1875l0 0.4375l-5.984375 0l0 -0.4375q1.125 -0.015625 1.453125 -0.1875q0.328125 -0.171875 0.453125 -0.453125q0.140625 -0.296875 0.140625 -1.71875l0 -8.578125q0 -1.734375 -0.125 -2.234375q-0.078125 -0.375 -0.296875 -0.546875q-0.21875 -0.171875 -0.515625 -0.171875q-0.4375 0 -1.21875 0.359375l-0.171875 -0.359375zm20.1875 11.265625l-1.109375 3.0625l-9.375 0l0 -0.4375q4.140625 -3.765625 5.828125 -6.15625q1.6875 -2.390625 1.6875 -4.375q0 -1.515625 -0.9375 -2.484375q-0.921875 -0.96875 -2.203125 -0.96875q-1.171875 0 -2.109375 0.6875q-0.921875 0.671875 -1.375 2.0l-0.4375 0q0.296875 -2.171875 1.5 -3.328125q1.21875 -1.15625 3.046875 -1.15625q1.921875 0 3.21875 1.25q1.296875 1.234375 1.296875 2.921875q0 1.203125 -0.5625 2.40625q-0.859375 1.90625 -2.8125 4.03125q-2.921875 3.1875 -3.640625 3.84375l4.140625 0q1.265625 0 1.78125 -0.09375q0.515625 -0.09375 0.921875 -0.375q0.40625 -0.296875 0.71875 -0.828125l0.421875 0z" fill-rule="nonzero"></path><path fill="#fff2cc" d="m98.54593 351.31497l0 0c0 -33.57196 25.107307 -60.787415 56.078735 -60.787415l0 0c14.873016 0 29.136856 6.404358 39.65367 17.80423c10.5168 11.399841 16.42508 26.861359 16.42508 42.983185l0 0c0 33.57193 -25.107315 60.787384 -56.07875 60.787384l0 0c-30.971428 0 -56.078735 -27.215454 -56.078735 -60.787384z" fill-rule="nonzero"></path><path stroke="#000000" stroke-width="1.0" stroke-linejoin="round" stroke-linecap="butt" d="m98.54593 351.31497l0 0c0 -33.57196 25.107307 -60.787415 56.078735 -60.787415l0 0c14.873016 0 29.136856 6.404358 39.65367 17.80423c10.5168 11.399841 16.42508 26.861359 16.42508 42.983185l0 0c0 33.57193 -25.107315 60.787384 -56.07875 60.787384l0 0c-30.971428 0 -56.078735 -27.215454 -56.078735 -60.787384z" fill-rule="nonzero"></path><path fill="#000000" d="m143.99968 332.3337l12.89061 -6.28125l1.296875 0l0 44.71875q0 4.453125 0.359375 5.546875q0.375 1.09375 1.546875 1.6875q1.171875 0.578125 4.765625 0.65625l0 1.453125l-19.92186 0l0 -1.453125q3.7499847 -0.078125 4.8437347 -0.640625q1.09375 -0.5625 1.515625 -1.515625q0.4375 -0.96875 0.4375 -5.734375l0 -28.59375q0 -5.78125 -0.390625 -7.421875q-0.265625 -1.25 -1.0 -1.828125q-0.71875 -0.59375 -1.734375 -0.59375q-1.4375 0 -4.0156097 1.21875l-0.59375 -1.21875z" fill-rule="nonzero"></path><path fill="#000000" fill-opacity="0.0" d="m1412.0 243.02756l248.22046 0l0 80.72443l-248.22046 0z" fill-rule="nonzero"></path><path fill="#000000" d="m1439.4688 261.89227l-6.15625 21.59375q3.0 -3.125 5.234375 -4.28125q2.234375 -1.15625 4.671875 -1.15625q3.4375 0 5.625 2.28125q2.1875 2.28125 2.1875 6.1875q0 5.03125 -2.875 10.015625q-2.875 4.984375 -7.21875 7.765625q-4.34375 2.78125 -8.5625 2.78125q-4.71875 0 -9.6875 -3.53125l9.5 -32.71875q1.09375 -3.78125 1.09375 -4.4375q0 -0.8125 -0.5 -1.21875q-0.71875 -0.5625 -2.125 -0.5625q-0.65625 0 -2.0 0.21875l0 -1.1875l10.8125 -1.75zm-12.09375 42.0q3.125 1.71875 5.5 1.71875q2.75 0 5.703125 -2.015625q2.953125 -2.015625 5.125 -6.796875q2.171875 -4.78125 2.171875 -9.65625q0 -2.875 -1.421875 -4.5q-1.421875 -1.625 -3.359375 -1.625q-2.90625 0 -5.6875 2.328125q-2.78125 2.328125 -3.96875 6.484375l-4.0625 14.0625z" fill-rule="nonzero"></path><path fill="#000000" d="m1456.75 287.2204l5.15625 -2.515625l0.515625 0l0 17.890625q0 1.78125 0.140625 2.21875q0.15625 0.4375 0.625 0.671875q0.46875 0.234375 1.90625 0.265625l0 0.578125l-7.96875 0l0 -0.578125q1.5 -0.03125 1.9375 -0.25q0.4375 -0.234375 0.609375 -0.609375q0.171875 -0.390625 0.171875 -2.296875l0 -11.4375q0 -2.3125 -0.15625 -2.96875q-0.109375 -0.5 -0.40625 -0.734375q-0.28125 -0.234375 -0.6875 -0.234375q-0.578125 0 -1.609375 0.484375l-0.234375 -0.484375z" fill-rule="nonzero"></path><path fill="#000000" fill-opacity="0.0" d="m210.70341 351.31497l182.45668 -68.37796" fill-rule="nonzero"></path><path stroke="#999999" stroke-width="4.0" stroke-linejoin="round" stroke-linecap="butt" d="m210.70341 351.31497l159.98302 -59.95569" fill-rule="evenodd"></path><path fill="#999999" stroke="#999999" stroke-width="4.0" stroke-linecap="butt" d="m373.005 297.54605l14.679382 -12.556946l-19.316498 0.18344116z" fill-rule="evenodd"></path><path fill="#cfe2f3" d="m393.1564 618.9056l0 0c0 -71.33606 62.842316 -129.16534 140.36221 -129.16534l0 0c77.5199 0 140.36218 57.829285 140.36218 129.16534l0 0c0 71.33606 -62.842285 129.16534 -140.36218 129.16534l0 0c-77.5199 0 -140.36221 -57.829285 -140.36221 -129.16534z" fill-rule="nonzero"></path><path stroke="#000000" stroke-width="1.0" stroke-linejoin="round" stroke-linecap="butt" d="m393.1564 618.9056l0 0c0 -71.33606 62.842316 -129.16534 140.36221 -129.16534l0 0c77.5199 0 140.36218 57.829285 140.36218 129.16534l0 0c0 71.33606 -62.842285 129.16534 -140.36218 129.16534l0 0c-77.5199 0 -140.36221 -57.829285 -140.36221 -129.16534z" fill-rule="nonzero"></path><path fill="#000000" fill-opacity="0.0" d="m210.70341 351.31497l182.45668 267.59055" fill-rule="nonzero"></path><path stroke="#999999" stroke-width="4.0" stroke-linejoin="round" stroke-linecap="butt" d="m210.70341 351.31497l168.93617 247.76138" fill-rule="evenodd"></path><path fill="#999999" stroke="#999999" stroke-width="4.0" stroke-linecap="butt" d="m374.18085 602.7984l15.684967 11.275757l-4.7674866 -18.719849z" fill-rule="evenodd"></path><path fill="#000000" fill-opacity="0.0" d="m210.70341 351.31497l187.62206 603.5591" fill-rule="nonzero"></path><path stroke="#999999" stroke-width="4.0" stroke-linejoin="round" stroke-linecap="butt" d="m210.70341 351.31497l180.4977 580.64087" fill-rule="evenodd"></path><path fill="#999999" stroke="#999999" stroke-width="4.0" stroke-linecap="butt" d="m384.892 933.91705l11.697601 15.372925l0.9206543 -19.29541z" fill-rule="evenodd"></path><path fill="#000000" fill-opacity="0.0" d="m210.70341 618.9055l182.45668 0" fill-rule="nonzero"></path><path stroke="#999999" stroke-width="4.0" stroke-linejoin="round" stroke-linecap="butt" d="m210.70341 618.9055l158.45668 0" fill-rule="evenodd"></path><path fill="#999999" stroke="#999999" stroke-width="4.0" stroke-linecap="butt" d="m369.1601 625.51245l18.152405 -6.6069336l-18.152405 -6.6069336z" fill-rule="evenodd"></path><path fill="#000000" fill-opacity="0.0" d="m210.70341 618.9055l187.62206 335.9685" fill-rule="nonzero"></path><path stroke="#999999" stroke-width="4.0" stroke-linejoin="round" stroke-linecap="butt" d="m210.70341 618.9055l175.92027 315.01453" fill-rule="evenodd"></path><path fill="#999999" stroke="#999999" stroke-width="4.0" stroke-linecap="butt" d="m380.85532 937.1414l14.618988 12.627136l-3.0822144 -19.069885z" fill-rule="evenodd"></path><path fill="#000000" fill-opacity="0.0" d="m217.25984 886.4952l175.9055 -267.5905" fill-rule="nonzero"></path><path stroke="#999999" stroke-width="4.0" stroke-linejoin="round" stroke-linecap="butt" d="m217.25984 886.4952l162.72206 -247.53564" fill-rule="evenodd"></path><path fill="#999999" stroke="#999999" stroke-width="4.0" stroke-linecap="butt" d="m385.5028 642.58875l4.450409 -18.79773l-15.492157 11.539246z" fill-rule="evenodd"></path><path fill="#000000" fill-opacity="0.0" d="m217.25984 886.4952l181.07088 68.37799" fill-rule="nonzero"></path><path stroke="#999999" stroke-width="4.0" stroke-linejoin="round" stroke-linecap="butt" d="m217.25984 886.4952l158.61845 59.89917" fill-rule="evenodd"></path><path fill="#999999" stroke="#999999" stroke-width="4.0" stroke-linecap="butt" d="m373.5442 952.57526l19.315979 0.23199463l-14.647766 -12.59375z" fill-rule="evenodd"></path><path fill="#000000" fill-opacity="0.0" d="m1434.4121 226.87796l69.88977 0l0 68.37796l-69.88977 0z" fill-rule="nonzero"></path><path fill="#000000" d="m1449.0215 263.96484q-1.734375 -2.203125 -2.953125 -5.15625q-1.203125 -2.9531403 -1.203125 -6.1093903q0 -2.796875 0.90625 -5.34375q1.046875 -2.96875 3.25 -5.90625l1.515625 0q-1.421875 2.4375 -1.875 3.46875q-0.71875 1.625 -1.125 3.375q-0.5 2.203125 -0.5 4.40625q0 5.6406403 3.5 11.26564l-1.515625 0zm3.3984375 -9.57814l2.109375 -0.28125q0.359375 1.78125 1.234375 2.5781403q0.875 0.796875 2.125 0.796875q1.484375 0 2.5 -1.03125q1.03125 -1.0312653 1.03125 -2.5625153q0 -1.453125 -0.953125 -2.390625q-0.9375 -0.953125 -2.40625 -0.953125q-0.59375 0 -1.484375 0.234375l0.234375 -1.84375q0.203125 0.015625 0.34375 0.015625q1.34375 0 2.421875 -0.703125q1.078125 -0.703125 1.078125 -2.15625q0 -1.171875 -0.796875 -1.921875q-0.78125 -0.765625 -2.015625 -0.765625q-1.234375 0 -2.0625 0.78125q-0.8125 0.765625 -1.046875 2.3125l-2.109375 -0.375q0.390625 -2.125 1.75 -3.28125q1.375 -1.171875 3.421875 -1.171875q1.40625 0 2.578125 0.609375q1.1875 0.59375 1.8125 1.640625q0.640625 1.046875 0.640625 2.21875q0 1.109375 -0.609375 2.03125q-0.59375 0.90625 -1.765625 1.4375q1.53125 0.359375 2.375 1.46875q0.84375 1.109375 0.84375 2.765625q0 2.2500153 -1.640625 3.8281403q-1.640625 1.5625 -4.15625 1.5625q-2.265625 0 -3.765625 -1.34375q-1.484375 -1.359375 -1.6875 -3.5000153zm15.300781 9.57814l-1.515625 0q3.5 -5.625 3.5 -11.26564q0 -2.203125 -0.5 -4.359375q-0.390625 -1.765625 -1.109375 -3.375q-0.453125 -1.0625 -1.890625 -3.515625l1.515625 0q2.203125 2.9375 3.25 5.90625q0.90625 2.546875 0.90625 5.34375q0 3.15625 -1.21875 6.1093903q-1.203125 2.953125 -2.9375 5.15625z" fill-rule="nonzero"></path><path fill="#000000" fill-opacity="0.0" d="m300.0 320.73227l69.88977 0l0 68.37796l-69.88977 0z" fill-rule="nonzero"></path><path fill="#000000" d="m314.60938 357.81915q-1.734375 -2.203125 -2.953125 -5.15625q-1.203125 -2.953125 -1.203125 -6.109375q0 -2.796875 0.90625 -5.34375q1.046875 -2.96875 3.25 -5.90625l1.515625 0q-1.421875 2.4375 -1.875 3.46875q-0.71875 1.625 -1.125 3.375q-0.5 2.203125 -0.5 4.40625q0 5.640625 3.5 11.265625l-1.515625 0zm11.3203125 -5.046875l-2.109375 0l0 -13.4375q-0.75 0.71875 -2.0 1.453125q-1.234375 0.71875 -2.21875 1.078125l0 -2.03125q1.78125 -0.828125 3.09375 -2.015625q1.328125 -1.1875 1.875 -2.296875l1.359375 0l0 17.25zm7.3789062 5.046875l-1.515625 0q3.5 -5.625 3.5 -11.265625q0 -2.203125 -0.5 -4.359375q-0.390625 -1.765625 -1.109375 -3.375q-0.453125 -1.0625 -1.890625 -3.515625l1.515625 0q2.203125 2.9375 3.25 5.90625q0.90625 2.546875 0.90625 5.34375q0 3.15625 -1.21875 6.109375q-1.203125 2.953125 -2.9375 5.15625z" fill-rule="nonzero"></path><path fill="#000000" fill-opacity="0.0" d="m193.85564 740.07086l69.889755 0l0 68.37793l-69.889755 0z" fill-rule="nonzero"></path><path fill="#000000" d="m208.46501 777.1577q-1.734375 -2.203125 -2.953125 -5.15625q-1.203125 -2.953125 -1.203125 -6.109375q0 -2.796875 0.90625 -5.34375q1.046875 -2.96875 3.25 -5.90625l1.515625 0q-1.421875 2.4375 -1.875 3.46875q-0.71875 1.625 -1.125 3.375q-0.5 2.203125 -0.5 4.40625q0 5.640625 3.5 11.265625l-1.515625 0zm11.3203125 -5.046875l-2.109375 0l0 -13.4375q-0.75 0.71875 -2.0 1.453125q-1.234375 0.71875 -2.21875 1.078125l0 -2.03125q1.78125 -0.828125 3.09375 -2.015625q1.328125 -1.1875 1.875 -2.296875l1.359375 0l0 17.25zm7.3789062 5.046875l-1.515625 0q3.5 -5.625 3.5 -11.265625q0 -2.203125 -0.5 -4.359375q-0.390625 -1.765625 -1.109375 -3.375q-0.453125 -1.0625 -1.890625 -3.515625l1.515625 0q2.203125 2.9375 3.25 5.90625q0.90625 2.546875 0.90625 5.34375q0 3.15625 -1.21875 6.109375q-1.203125 2.953125 -2.9375 5.15625z" fill-rule="nonzero"></path><path fill="#fff2cc" d="m477.44095 60.787403l0 0c0 -33.571957 25.1073 -60.787403 56.078766 -60.787403l0 0c14.872986 0 29.13684 6.4043684 39.653625 17.804218c10.516785 11.399849 16.42511 26.861362 16.42511 42.983185l0 0c0 33.571957 -25.10736 60.787403 -56.078735 60.787403l0 0c-30.971466 0 -56.078766 -27.215446 -56.078766 -60.787403z" fill-rule="nonzero"></path><path stroke="#000000" stroke-width="1.0" stroke-linejoin="round" stroke-linecap="butt" d="m477.44095 60.787403l0 0c0 -33.571957 25.1073 -60.787403 56.078766 -60.787403l0 0c14.872986 0 29.13684 6.4043684 39.653625 17.804218c10.516785 11.399849 16.42511 26.861362 16.42511 42.983185l0 0c0 33.571957 -25.10736 60.787403 -56.078735 60.787403l0 0c-30.971466 0 -56.078766 -27.215446 -56.078766 -60.787403z" fill-rule="nonzero"></path><path fill="#000000" d="m522.8947 41.80615l12.890564 -6.28125l1.296875 0l0 44.718746q0 4.453125 0.359375 5.546875q0.375 1.09375 1.546875 1.6875q1.171875 0.578125 4.765625 0.65625l0 1.453125l-19.921814 0l0 -1.453125q3.749939 -0.078125 4.843689 -0.640625q1.09375 -0.5625 1.515625 -1.515625q0.4375 -0.96875 0.4375 -5.734375l0 -28.593746q0 -5.78125 -0.390625 -7.421875q-0.265625 -1.25 -1.0 -1.828125q-0.71875 -0.59375 -1.734375 -0.59375q-1.4375 0 -4.015564 1.21875l-0.59375 -1.21875z" fill-rule="nonzero"></path><path fill="#fff2cc" d="m1067.8058 170.30183l0 0c0 -33.571945 25.1073 -60.7874 56.078735 -60.7874l0 0c14.873047 0 29.13684 6.404373 39.653687 17.804222c10.516724 11.399849 16.425049 26.861366 16.425049 42.983177l0 0c0 33.57196 -25.1073 60.7874 -56.078735 60.7874l0 0c-30.971436 0 -56.078735 -27.215439 -56.078735 -60.7874z" fill-rule="nonzero"></path><path stroke="#000000" stroke-width="1.0" stroke-linejoin="round" stroke-linecap="butt" d="m1067.8058 170.30183l0 0c0 -33.571945 25.1073 -60.7874 56.078735 -60.7874l0 0c14.873047 0 29.13684 6.404373 39.653687 17.804222c10.516724 11.399849 16.425049 26.861366 16.425049 42.983177l0 0c0 33.57196 -25.1073 60.7874 -56.078735 60.7874l0 0c-30.971436 0 -56.078735 -27.215439 -56.078735 -60.7874z" fill-rule="nonzero"></path><path fill="#000000" d="m1113.2595 151.32059l12.890625 -6.28125l1.296875 0l0 44.71875q0 4.453125 0.359375 5.546875q0.375 1.09375 1.546875 1.6875q1.171875 0.578125 4.765625 0.65625l0 1.453125l-19.921875 0l0 -1.453125q3.75 -0.078125 4.84375 -0.640625q1.09375 -0.5625 1.515625 -1.515625q0.4375 -0.96875 0.4375 -5.734375l0 -28.59375q0 -5.78125 -0.390625 -7.421875q-0.265625 -1.25 -1.0 -1.828125q-0.71875 -0.59375 -1.734375 -0.59375q-1.4375 0 -4.015625 1.21875l-0.59375 -1.21875z" fill-rule="nonzero"></path><path fill="#000000" fill-opacity="0.0" d="m673.8808 282.9371l331.21265 491.3071" fill-rule="nonzero"></path><path stroke="#999999" stroke-width="4.0" stroke-linejoin="round" stroke-linecap="butt" d="m673.8808 282.9371l317.79694 471.40683" fill-rule="evenodd"></path><path fill="#999999" stroke="#999999" stroke-width="4.0" stroke-linecap="butt" d="m986.19946 758.0371l15.625244 11.358337l-4.66864 -18.74469z" fill-rule="evenodd"></path><path fill="#000000" fill-opacity="0.0" d="m673.8808 618.9056l331.21265 155.33862" fill-rule="nonzero"></path><path stroke="#999999" stroke-width="4.0" stroke-linejoin="round" stroke-linecap="butt" d="m673.8808 618.9056l309.4837 145.1477" fill-rule="evenodd"></path><path fill="#999999" stroke="#999999" stroke-width="4.0" stroke-linecap="butt" d="m980.5591 770.03503l19.240051 1.7261353l-13.629211 -13.689575z" fill-rule="evenodd"></path><path fill="#000000" fill-opacity="0.0" d="m679.05145 954.8741l332.31494 -180.62988" fill-rule="nonzero"></path><path stroke="#999999" stroke-width="4.0" stroke-linejoin="round" stroke-linecap="butt" d="m679.05145 954.8741l311.22858 -169.1684" fill-rule="evenodd"></path><path fill="#999999" stroke="#999999" stroke-width="4.0" stroke-linecap="butt" d="m993.43524 791.5105l12.793457 -14.473694l-19.103882 2.8640137z" fill-rule="evenodd"></path><path fill="#000000" fill-opacity="0.0" d="m673.8808 282.9371l321.7008 190.70865" fill-rule="nonzero"></path><path stroke="#999999" stroke-width="4.0" stroke-linejoin="round" stroke-linecap="butt" d="m673.8808 282.9371l301.0558 178.47" fill-rule="evenodd"></path><path fill="#999999" stroke="#999999" stroke-width="4.0" stroke-linecap="butt" d="m971.56744 467.09045l18.984009 3.5733337l-12.2456665 -14.940002z" fill-rule="evenodd"></path><path fill="#000000" fill-opacity="0.0" d="m673.8808 618.9056l321.7008 -145.25983" fill-rule="nonzero"></path><path stroke="#999999" stroke-width="4.0" stroke-linejoin="round" stroke-linecap="butt" d="m673.8808 618.9056l299.82727 -135.38312" fill-rule="evenodd"></path><path fill="#999999" stroke="#999999" stroke-width="4.0" stroke-linecap="butt" d="m976.42706 489.54398l13.825073 -13.49176l-19.263 1.4487z" fill-rule="evenodd"></path><path fill="#000000" fill-opacity="0.0" d="m679.05145 954.8741l316.5354 -481.22833" fill-rule="nonzero"></path><path stroke="#999999" stroke-width="4.0" stroke-linejoin="round" stroke-linecap="butt" d="m679.05145 954.8741l303.34644 -461.17715" fill-rule="evenodd"></path><path fill="#999999" stroke="#999999" stroke-width="4.0" stroke-linecap="butt" d="m987.9177 497.32773l4.4556274 -18.796509l-15.495361 11.534943z" fill-rule="evenodd"></path><path fill="#000000" fill-opacity="0.0" d="m589.59845 60.787403l405.98425 412.85037" fill-rule="nonzero"></path><path stroke="#999999" stroke-width="4.0" stroke-linejoin="round" stroke-linecap="butt" d="m589.59845 60.787403l389.15656 395.73813" fill-rule="evenodd"></path><path fill="#999999" stroke="#999999" stroke-width="4.0" stroke-linecap="butt" d="m974.0442 461.158l17.438416 8.310394l-8.016785 -17.575317z" fill-rule="evenodd"></path><path fill="#000000" fill-opacity="0.0" d="m1179.9633 170.30183l480.25195 303.33856" fill-rule="nonzero"></path><path stroke="#000000" stroke-width="4.0" stroke-linejoin="round" stroke-linecap="butt" d="m1179.9633 170.30183l459.96057 290.5221" fill-rule="evenodd"></path><path fill="#000000" stroke="#000000" stroke-width="4.0" stroke-linecap="butt" d="m1636.3956 466.4099l18.87561 4.1077576l-11.819092 -15.279694z" fill-rule="evenodd"></path><path fill="#000000" fill-opacity="0.0" d="m1179.9633 170.30183l478.99207 603.9685" fill-rule="nonzero"></path><path stroke="#999999" stroke-width="4.0" stroke-linejoin="round" stroke-linecap="butt" d="m1179.9633 170.30183l464.07886 585.1643" fill-rule="evenodd"></path><path fill="#999999" stroke="#999999" stroke-width="4.0" stroke-linecap="butt" d="m1638.8656 759.57153l16.456177 10.117126l-6.1029053 -18.327942z" fill-rule="evenodd"></path><path fill="#000000" fill-opacity="0.0" d="m1276.3074 473.63657l383.90552 0" fill-rule="nonzero"></path><path stroke="#000000" stroke-width="4.0" stroke-linejoin="round" stroke-linecap="butt" d="m1276.3074 473.63657l359.9054 0" fill-rule="evenodd"></path><path fill="#000000" stroke="#000000" stroke-width="4.0" stroke-linecap="butt" d="m1636.2128 480.2435l18.152344 -6.6069336l-18.152344 -6.6069336z" fill-rule="evenodd"></path><path fill="#000000" fill-opacity="0.0" d="m1285.8047 774.2586l374.42517 -300.6299" fill-rule="nonzero"></path><path stroke="#000000" stroke-width="4.0" stroke-linejoin="round" stroke-linecap="butt" d="m1285.8047 774.2586l355.71094 -285.60403" fill-rule="evenodd"></path><path fill="#000000" stroke="#000000" stroke-width="4.0" stroke-linecap="butt" d="m1645.652 493.8064l10.018066 -16.516632l-18.290894 6.212982z" fill-rule="evenodd"></path><path fill="#000000" fill-opacity="0.0" d="m1276.3074 473.63657l382.64563 300.6299" fill-rule="nonzero"></path><path stroke="#999999" stroke-width="4.0" stroke-linejoin="round" stroke-linecap="butt" d="m1276.3074 473.63657l363.77356 285.80283" fill-rule="evenodd"></path><path fill="#999999" stroke="#999999" stroke-width="4.0" stroke-linecap="butt" d="m1635.999 764.63464l18.355713 6.019226l-10.192261 -16.40979z" fill-rule="evenodd"></path><path fill="#000000" fill-opacity="0.0" d="m1285.8047 774.2586l373.1339 0" fill-rule="nonzero"></path><path stroke="#999999" stroke-width="4.0" stroke-linejoin="round" stroke-linecap="butt" d="m1285.8047 774.2586l349.1338 0" fill-rule="evenodd"></path><path fill="#999999" stroke="#999999" stroke-width="4.0" stroke-linecap="butt" d="m1634.9385 780.86554l18.152344 -6.6069336l-18.152344 -6.6069336z" fill-rule="evenodd"></path><path fill="#cfe2f3" d="m398.32703 954.8741l0 0c0 -71.33606 62.842285 -129.16534 140.36218 -129.16534l0 0c77.5199 0 140.36224 57.829285 140.36224 129.16534l0 0c0 71.33612 -62.842346 129.16534 -140.36224 129.16534l0 0c-77.5199 0 -140.36218 -57.829224 -140.36218 -129.16534z" fill-rule="nonzero"></path><path stroke="#000000" stroke-width="1.0" stroke-linejoin="round" stroke-linecap="butt" d="m398.32703 954.8741l0 0c0 -71.33606 62.842285 -129.16534 140.36218 -129.16534l0 0c77.5199 0 140.36224 57.829285 140.36224 129.16534l0 0c0 71.33612 -62.842346 129.16534 -140.36224 129.16534l0 0c-77.5199 0 -140.36218 -57.829224 -140.36218 -129.16534z" fill-rule="nonzero"></path><path fill="#000000" fill-opacity="0.0" d="m589.5842 60.7783l415.4961 713.4803" fill-rule="nonzero"></path><path stroke="#999999" stroke-width="4.0" stroke-linejoin="round" stroke-linecap="butt" d="m589.5842 60.778297l403.4184 692.7407" fill-rule="evenodd"></path><path fill="#999999" stroke="#999999" stroke-width="4.0" stroke-linecap="butt" d="m987.2932 756.84393l14.84436 12.36145l-3.4255981 -19.01117z" fill-rule="evenodd"></path><path fill="#cfe2f3" d="m1660.2194 473.63657l0 0c0 -71.33606 62.842285 -129.16534 140.3623 -129.16534l0 0c77.5199 0 140.36218 57.829285 140.36218 129.16534l0 0c0 71.33603 -62.842285 129.16537 -140.36218 129.16537l0 0c-77.52002 0 -140.3623 -57.829346 -140.3623 -129.16537z" fill-rule="nonzero"></path><path stroke="#000000" stroke-width="1.0" stroke-linejoin="round" stroke-linecap="butt" d="m1660.2194 473.63657l0 0c0 -71.33606 62.842285 -129.16534 140.3623 -129.16534l0 0c77.5199 0 140.36218 57.829285 140.36218 129.16534l0 0c0 71.33603 -62.842285 129.16537 -140.36218 129.16537l0 0c-77.52002 0 -140.3623 -57.829346 -140.3623 -129.16537z" fill-rule="nonzero"></path><path fill="#000000" fill-opacity="0.0" d="m1778.6615 473.63736l43.842407 0" fill-rule="nonzero"></path><path stroke="#000000" stroke-width="4.0" stroke-linejoin="round" stroke-linecap="butt" d="m1778.6614 473.63733l19.84253 0" fill-rule="evenodd"></path><path fill="#000000" stroke="#000000" stroke-width="4.0" stroke-linecap="butt" d="m1798.5039 480.24426l18.152466 -6.6069336l-18.152466 -6.606903z" fill-rule="evenodd"></path><path fill="#d9ead3" d="m1666.5039 473.63736l0 0c0 -33.57196 25.107422 -60.787415 56.078735 -60.787415l0 0c14.873047 0 29.136963 6.4043884 39.653687 17.80423c10.516846 11.399841 16.42517 26.861359 16.42517 42.983185l0 0c0 33.57196 -25.107422 60.787384 -56.078857 60.787384l0 0c-30.971313 0 -56.078735 -27.215424 -56.078735 -60.787384z" fill-rule="nonzero"></path><path stroke="#000000" stroke-width="1.0" stroke-linejoin="round" stroke-linecap="butt" d="m1666.5039 473.63736l0 0c0 -33.57196 25.107422 -60.787415 56.078735 -60.787415l0 0c14.873047 0 29.136963 6.4043884 39.653687 17.80423c10.516846 11.399841 16.42517 26.861359 16.42517 42.983185l0 0c0 33.57196 -25.107422 60.787384 -56.078857 60.787384l0 0c-30.971313 0 -56.078735 -27.215424 -56.078735 -60.787384z" fill-rule="nonzero"></path><path fill="#000000" d="m1732.1295 453.06116l-7.625 26.484375l-0.859375 3.5625q-0.109375 0.5 -0.109375 0.859375q0 0.625 0.390625 1.09375q0.3125 0.34375 0.78125 0.34375q0.5 0 1.328125 -0.625q1.515625 -1.125 4.0625 -4.6875l1.328125 0.9375q-2.703125 4.0625 -5.5625 6.203125q-2.84375 2.125 -5.265625 2.125q-1.671875 0 -2.515625 -0.84375q-0.84375 -0.84375 -0.84375 -2.4375q0 -1.921875 0.859375 -5.046875l0.828125 -2.921875q-5.125 6.671875 -9.421875 9.328125q-3.078125 1.921875 -6.046875 1.921875q-2.859375 0 -4.9375 -2.359375q-2.0625 -2.375 -2.0625 -6.515625q0 -6.203125 3.734375 -13.09375q3.734375 -6.90625 9.46875 -11.046875q4.5 -3.28125 8.484375 -3.28125q2.375 0 3.953125 1.25q1.59375 1.25 2.40625 4.140625l1.40625 -4.453125l6.21875 -0.9375zm-13.90625 2.03125q-2.5 0 -5.3125 2.34375q-3.984375 3.328125 -7.09375 9.859375q-3.109375 6.515625 -3.109375 11.78125q0 2.65625 1.328125 4.203125q1.328125 1.546875 3.046875 1.546875q4.265625 0 9.265625 -6.296875q6.671875 -8.359375 6.671875 -17.140625q0 -3.328125 -1.296875 -4.8125q-1.28125 -1.484375 -3.5 -1.484375z" fill-rule="nonzero"></path><path fill="#000000" d="m1738.3326 469.31116l5.15625 -2.515625l0.515625 0l0 17.890625q0 1.78125 0.140625 2.21875q0.15625 0.4375 0.625 0.671875q0.46875 0.234375 1.90625 0.265625l0 0.578125l-7.96875 0l0 -0.578125q1.5 -0.03125 1.9375 -0.25q0.4375 -0.234375 0.609375 -0.609375q0.171875 -0.390625 0.171875 -2.296875l0 -11.4375q0 -2.3125 -0.15625 -2.96875q-0.109375 -0.5 -0.40625 -0.734375q-0.28125 -0.234375 -0.6875 -0.234375q-0.578125 0 -1.609375 0.484375l-0.234375 -0.484375z" fill-rule="nonzero"></path><path fill="#d9ead3" d="m1822.5039 473.63736l0 0c0 -33.57196 25.107422 -60.787415 56.078735 -60.787415l0 0c14.873047 0 29.136963 6.4043884 39.653687 17.80423c10.516846 11.399841 16.42517 26.861359 16.42517 42.983185l0 0c0 33.57196 -25.107422 60.787384 -56.078857 60.787384l0 0c-30.971313 0 -56.078735 -27.215424 -56.078735 -60.787384z" fill-rule="nonzero"></path><path stroke="#000000" stroke-width="1.0" stroke-linejoin="round" stroke-linecap="butt" d="m1822.5039 473.63736l0 0c0 -33.57196 25.107422 -60.787415 56.078735 -60.787415l0 0c14.873047 0 29.136963 6.4043884 39.653687 17.80423c10.516846 11.399841 16.42517 26.861359 16.42517 42.983185l0 0c0 33.57196 -25.107422 60.787384 -56.078857 60.787384l0 0c-30.971313 0 -56.078735 -27.215424 -56.078735 -60.787384z" fill-rule="nonzero"></path><path fill="#000000" d="m1865.61 453.06116q1.328125 2.265625 1.828125 4.25q0.515625 1.96875 1.015625 7.75l1.71875 19.21875q2.34375 -2.8125 6.796875 -8.90625q2.15625 -2.96875 5.3125 -8.09375q1.921875 -3.125 2.34375 -4.375q0.234375 -0.625 0.234375 -1.28125q0 -0.4375 -0.28125 -0.703125q-0.265625 -0.28125 -1.421875 -0.640625q-1.140625 -0.375 -1.90625 -1.375q-0.765625 -1.0 -0.765625 -2.28125q0 -1.609375 0.9375 -2.578125q0.9375 -0.984375 2.34375 -0.984375q1.71875 0 2.921875 1.4375q1.21875 1.421875 1.21875 3.921875q0 3.078125 -2.109375 7.046875q-2.109375 3.96875 -8.125 12.171875q-6.015625 8.203125 -14.5625 17.890625q-5.90625 6.6875 -8.765625 8.421875q-2.84375 1.734375 -4.875 1.734375q-1.21875 0 -2.125 -0.921875q-0.921875 -0.90625 -0.921875 -2.125q0 -1.515625 1.265625 -2.765625q1.265625 -1.25 2.75 -1.25q0.78125 0 1.296875 0.34375q0.3125 0.203125 0.6875 1.109375q0.375 0.921875 0.6875 1.234375q0.1875 0.203125 0.46875 0.203125q0.234375 0 0.8125 -0.390625q2.15625 -1.328125 5.0 -4.21875q3.75 -3.828125 5.546875 -6.25l-2.1875 -24.78125q-0.546875 -6.125 -1.640625 -7.453125q-1.09375 -1.328125 -3.671875 -1.328125q-0.8125 0 -2.921875 0.234375l-0.359375 -1.453125l11.453125 -2.8125z" fill-rule="nonzero"></path><path fill="#000000" d="m1892.0865 469.31116l5.15625 -2.515625l0.515625 0l0 17.890625q0 1.78125 0.140625 2.21875q0.15625 0.4375 0.625 0.671875q0.46875 0.234375 1.90625 0.265625l0 0.578125l-7.96875 0l0 -0.578125q1.5 -0.03125 1.9375 -0.25q0.4375 -0.234375 0.609375 -0.609375q0.171875 -0.390625 0.171875 -2.296875l0 -11.4375q0 -2.3125 -0.15625 -2.96875q-0.109375 -0.5 -0.40625 -0.734375q-0.28125 -0.234375 -0.6875 -0.234375q-0.578125 0 -1.609375 0.484375l-0.234375 -0.484375z" fill-rule="nonzero"></path><path fill="#000000" fill-opacity="0.0" d="m1762.584 394.53412l82.01575 0l0 80.72443l-82.01575 0z" fill-rule="nonzero"></path><path fill="#000000" d="m1792.6777 424.731l-0.78125 2.75l-6.34375 0q2.75 2.28125 2.75 5.109375q0 3.71875 -2.890625 6.765625q-2.875 3.046875 -6.890625 3.046875q-2.8125 0 -4.34375 -1.546875q-1.53125 -1.5625 -1.53125 -4.203125q0 -2.5 1.171875 -5.203125q1.171875 -2.71875 3.203125 -4.265625q2.03125 -1.5625 4.234375 -2.0q2.203125 -0.453125 6.859375 -0.453125l4.5625 0zm-8.078125 2.75q-4.921875 0.03125 -6.953125 3.53125q-2.015625 3.5 -2.015625 7.046875q0 3.4375 2.96875 3.4375q2.84375 0 4.8125 -3.78125q1.96875 -3.796875 1.96875 -7.109375q0 -2.0 -0.78125 -3.125z" fill-rule="nonzero"></path><path fill="#000000" d="m1803.7324 449.76224l0 0.734375q-2.953125 -1.484375 -4.921875 -3.484375q-2.8125 -2.828125 -4.34375 -6.671875q-1.515625 -3.859375 -1.515625 -8.0q0 -6.046875 2.984375 -11.03125q3.0 -5.0 7.796875 -7.15625l0 0.828125q-2.40625 1.328125 -3.953125 3.640625q-1.53125 2.296875 -2.296875 5.828125q-0.765625 3.53125 -0.765625 7.390625q0 4.171875 0.65625 7.59375q0.5 2.703125 1.21875 4.328125q0.734375 1.625 1.953125 3.125q1.21875 1.515625 3.1875 2.875zm11.8046875 -34.78125l0 -0.828125q2.96875 1.46875 4.9375 3.46875q2.796875 2.84375 4.3125 6.6875q1.53125 3.828125 1.53125 8.0q0 6.046875 -2.984375 11.03125q-2.984375 5.0 -7.796875 7.15625l0 -0.734375q2.390625 -1.34375 3.9375 -3.640625q1.5625 -2.296875 2.3125 -5.84375q0.75 -3.546875 0.75 -7.390625q0 -4.15625 -0.640625 -7.59375q-0.484375 -2.703125 -1.21875 -4.3125q-0.734375 -1.625 -1.953125 -3.125q-1.203125 -1.515625 -3.1875 -2.875z" fill-rule="nonzero"></path><path fill="#000000" fill-opacity="0.0" d="m1721.6116 418.8491l69.88977 0l0 68.37793l-69.88977 0z" fill-rule="nonzero"></path><path fill="#000000" d="m1736.221 455.93594q-1.734375 -2.203125 -2.953125 -5.15625q-1.203125 -2.953125 -1.203125 -6.109375q0 -2.796875 0.90625 -5.34375q1.046875 -2.96875 3.25 -5.90625l1.515625 0q-1.421875 2.4375 -1.875 3.46875q-0.71875 1.625 -1.125 3.375q-0.5 2.203125 -0.5 4.40625q0 5.640625 3.5 11.265625l-1.515625 0zm3.3984375 -9.578125l2.109375 -0.28125q0.359375 1.78125 1.234375 2.578125q0.875 0.796875 2.125 0.796875q1.484375 0 2.5 -1.03125q1.03125 -1.03125 1.03125 -2.5625q0 -1.453125 -0.953125 -2.390625q-0.9375 -0.953125 -2.40625 -0.953125q-0.59375 0 -1.484375 0.234375l0.234375 -1.84375q0.203125 0.015625 0.34375 0.015625q1.34375 0 2.421875 -0.703125q1.078125 -0.703125 1.078125 -2.15625q0 -1.171875 -0.796875 -1.921875q-0.78125 -0.765625 -2.015625 -0.765625q-1.234375 0 -2.0625 0.78125q-0.8125 0.765625 -1.046875 2.3125l-2.109375 -0.375q0.390625 -2.125 1.75 -3.28125q1.375 -1.171875 3.421875 -1.171875q1.40625 0 2.578125 0.609375q1.1875 0.59375 1.8125 1.640625q0.640625 1.046875 0.640625 2.21875q0 1.109375 -0.609375 2.03125q-0.59375 0.90625 -1.765625 1.4375q1.53125 0.359375 2.375 1.46875q0.84375 1.109375 0.84375 2.765625q0 2.25 -1.640625 3.828125q-1.640625 1.5625 -4.15625 1.5625q-2.265625 0 -3.765625 -1.34375q-1.484375 -1.359375 -1.6875 -3.5zm15.300781 9.578125l-1.515625 0q3.5 -5.625 3.5 -11.265625q0 -2.203125 -0.5 -4.359375q-0.390625 -1.765625 -1.109375 -3.375q-0.453125 -1.0625 -1.890625 -3.515625l1.515625 0q2.203125 2.9375 3.25 5.90625q0.90625 2.546875 0.90625 5.34375q0 3.15625 -1.21875 6.109375q-1.203125 2.953125 -2.9375 5.15625z" fill-rule="nonzero"></path><path fill="#000000" fill-opacity="0.0" d="m1274.37 402.89764l112.15747 0l0 47.653534l-112.15747 0z" fill-rule="nonzero"></path><path fill="#000000" d="m1310.1825 421.38315l2.15625 23.4375q5.4375 -6.375 8.6875 -11.96875q1.90625 -3.28125 1.90625 -4.75q0 -0.6875 -0.3125 -1.21875q-0.125 -0.28125 -0.984375 -0.828125q-0.859375 -0.546875 -1.203125 -1.125q-0.34375 -0.578125 -0.34375 -1.234375q0 -0.96875 0.71875 -1.640625q0.71875 -0.671875 1.84375 -0.671875q1.28125 0 2.171875 0.953125q0.890625 0.953125 0.890625 2.546875q0 1.625 -0.46875 3.03125q-0.9375 2.6875 -3.65625 6.9375q-3.3125 5.09375 -6.828125 9.453125q-3.515625 4.359375 -5.234375 6.109375l-1.15625 0l-2.03125 -21.625l-12.90625 21.625l-1.375 0q-0.21875 -13.34375 -1.34375 -21.0625q-0.46875 -3.21875 -1.5625 -4.21875q-0.78125 -0.71875 -2.375 -0.71875q-0.90625 0 -2.3125 0.1875l0 -1.125l8.96875 -2.09375q1.875 5.21875 2.4375 16.03125q0.1875 4.09375 0.3125 5.15625l12.84375 -21.1875l1.15625 0z" fill-rule="nonzero"></path><path fill="#000000" d="m1328.87 435.33627l3.875 -1.890625l0.375 0l0 13.421875q0 1.328125 0.109375 1.65625q0.125 0.328125 0.46875 0.515625q0.359375 0.171875 1.4375 0.1875l0 0.4375l-5.984375 0l0 -0.4375q1.125 -0.015625 1.453125 -0.1875q0.328125 -0.171875 0.453125 -0.453125q0.140625 -0.296875 0.140625 -1.71875l0 -8.578125q0 -1.734375 -0.125 -2.234375q-0.078125 -0.375 -0.296875 -0.546875q-0.21875 -0.171875 -0.515625 -0.171875q-0.4375 0 -1.21875 0.359375l-0.171875 -0.359375zm12.0 0l3.875 -1.890625l0.375 0l0 13.421875q0 1.328125 0.109375 1.65625q0.125 0.328125 0.46875 0.515625q0.359375 0.171875 1.4375 0.1875l0 0.4375l-5.984375 0l0 -0.4375q1.125 -0.015625 1.453125 -0.1875q0.328125 -0.171875 0.453125 -0.453125q0.140625 -0.296875 0.140625 -1.71875l0 -8.578125q0 -1.734375 -0.125 -2.234375q-0.078125 -0.375 -0.296875 -0.546875q-0.21875 -0.171875 -0.515625 -0.171875q-0.4375 0 -1.21875 0.359375l-0.171875 -0.359375z" fill-rule="nonzero"></path><path fill="#000000" fill-opacity="0.0" d="m1316.6378 380.17322l69.88977 0l0 68.37796l-69.88977 0z" fill-rule="nonzero"></path><path fill="#000000" d="m1331.2472 417.2601q-1.734375 -2.203125 -2.953125 -5.15625q-1.203125 -2.953125 -1.203125 -6.109375q0 -2.796875 0.90625 -5.34375q1.046875 -2.96875 3.25 -5.90625l1.515625 0q-1.421875 2.4375 -1.875 3.46875q-0.71875 1.625 -1.125 3.375q-0.5 2.203125 -0.5 4.40625q0 5.640625 3.5 11.265625l-1.515625 0zm3.3984375 -9.578125l2.109375 -0.28125q0.359375 1.78125 1.234375 2.578125q0.875 0.796875 2.125 0.796875q1.484375 0 2.5 -1.03125q1.03125 -1.03125 1.03125 -2.5625q0 -1.453125 -0.953125 -2.390625q-0.9375 -0.953125 -2.40625 -0.953125q-0.59375 0 -1.484375 0.234375l0.234375 -1.84375q0.203125 0.015625 0.34375 0.015625q1.34375 0 2.421875 -0.703125q1.078125 -0.703125 1.078125 -2.15625q0 -1.171875 -0.796875 -1.921875q-0.78125 -0.765625 -2.015625 -0.765625q-1.234375 0 -2.0625 0.78125q-0.8125 0.765625 -1.046875 2.3125l-2.109375 -0.375q0.390625 -2.125 1.75 -3.28125q1.375 -1.171875 3.421875 -1.171875q1.40625 0 2.578125 0.609375q1.1875 0.59375 1.8125 1.640625q0.640625 1.046875 0.640625 2.21875q0 1.109375 -0.609375 2.03125q-0.59375 0.90625 -1.765625 1.4375q1.53125 0.359375 2.375 1.46875q0.84375 1.109375 0.84375 2.765625q0 2.25 -1.640625 3.828125q-1.640625 1.5625 -4.15625 1.5625q-2.265625 0 -3.765625 -1.34375q-1.484375 -1.359375 -1.6875 -3.5zm15.300781 9.578125l-1.515625 0q3.5 -5.625 3.5 -11.265625q0 -2.203125 -0.5 -4.359375q-0.390625 -1.765625 -1.109375 -3.375q-0.453125 -1.0625 -1.890625 -3.515625l1.515625 0q2.203125 2.9375 3.25 5.90625q0.90625 2.546875 0.90625 5.34375q0 3.15625 -1.21875 6.109375q-1.203125 2.953125 -2.9375 5.15625z" fill-rule="nonzero"></path><path fill="#000000" fill-opacity="0.0" d="m1275.2874 641.1181l112.15747 0l0 47.653564l-112.15747 0z" fill-rule="nonzero"></path><path fill="#000000" d="m1311.0999 659.60364l2.15625 23.4375q5.4375 -6.375 8.6875 -11.96875q1.90625 -3.28125 1.90625 -4.75q0 -0.6875 -0.3125 -1.21875q-0.125 -0.28125 -0.984375 -0.828125q-0.859375 -0.546875 -1.203125 -1.125q-0.34375 -0.578125 -0.34375 -1.234375q0 -0.96875 0.71875 -1.640625q0.71875 -0.671875 1.84375 -0.671875q1.28125 0 2.171875 0.953125q0.890625 0.953125 0.890625 2.546875q0 1.625 -0.46875 3.03125q-0.9375 2.6875 -3.65625 6.9375q-3.3125 5.09375 -6.828125 9.453125q-3.515625 4.359375 -5.234375 6.109375l-1.15625 0l-2.03125 -21.625l-12.90625 21.625l-1.375 0q-0.21875 -13.34375 -1.34375 -21.0625q-0.46875 -3.21875 -1.5625 -4.21875q-0.78125 -0.71875 -2.375 -0.71875q-0.90625 0 -2.3125 0.1875l0 -1.125l8.96875 -2.09375q1.875 5.21875 2.4375 16.03125q0.1875 4.09375 0.3125 5.15625l12.84375 -21.1875l1.15625 0z" fill-rule="nonzero"></path><path fill="#000000" d="m1329.7874 673.55676l3.875 -1.890625l0.375 0l0 13.421875q0 1.328125 0.109375 1.65625q0.125 0.328125 0.46875 0.515625q0.359375 0.171875 1.4375 0.1875l0 0.4375l-5.984375 0l0 -0.4375q1.125 -0.015625 1.453125 -0.1875q0.328125 -0.171875 0.453125 -0.453125q0.140625 -0.296875 0.140625 -1.71875l0 -8.578125q0 -1.734375 -0.125 -2.234375q-0.078125 -0.375 -0.296875 -0.546875q-0.21875 -0.171875 -0.515625 -0.171875q-0.4375 0 -1.21875 0.359375l-0.171875 -0.359375zm20.1875 11.265625l-1.109375 3.0625l-9.375 0l0 -0.4375q4.140625 -3.765625 5.828125 -6.15625q1.6875 -2.390625 1.6875 -4.375q0 -1.515625 -0.9375 -2.484375q-0.921875 -0.96875 -2.203125 -0.96875q-1.171875 0 -2.109375 0.6875q-0.921875 0.671875 -1.375 2.0l-0.4375 0q0.296875 -2.171875 1.5 -3.328125q1.21875 -1.15625 3.046875 -1.15625q1.921875 0 3.21875 1.25q1.296875 1.234375 1.296875 2.921875q0 1.203125 -0.5625 2.40625q-0.859375 1.90625 -2.8125 4.03125q-2.921875 3.1875 -3.640625 3.84375l4.140625 0q1.265625 0 1.78125 -0.09375q0.515625 -0.09375 0.921875 -0.375q0.40625 -0.296875 0.71875 -0.828125l0.421875 0z" fill-rule="nonzero"></path><path fill="#000000" fill-opacity="0.0" d="m1317.5552 618.3937l69.88965 0l0 68.37799l-69.88965 0z" fill-rule="nonzero"></path><path fill="#000000" d="m1332.1646 655.4806q-1.734375 -2.203125 -2.953125 -5.15625q-1.203125 -2.953125 -1.203125 -6.109375q0 -2.796875 0.90625 -5.34375q1.046875 -2.96875 3.25 -5.90625l1.515625 0q-1.421875 2.4375 -1.875 3.46875q-0.71875 1.625 -1.125 3.375q-0.5 2.203125 -0.5 4.40625q0 5.640625 3.5 11.265625l-1.515625 0zm3.3984375 -9.578125l2.109375 -0.28125q0.359375 1.78125 1.234375 2.578125q0.875 0.796875 2.125 0.796875q1.484375 0 2.5 -1.03125q1.03125 -1.03125 1.03125 -2.5625q0 -1.453125 -0.953125 -2.390625q-0.9375 -0.953125 -2.40625 -0.953125q-0.59375 0 -1.484375 0.234375l0.234375 -1.84375q0.203125 0.015625 0.34375 0.015625q1.34375 0 2.421875 -0.703125q1.078125 -0.703125 1.078125 -2.15625q0 -1.171875 -0.796875 -1.921875q-0.78125 -0.765625 -2.015625 -0.765625q-1.234375 0 -2.0625 0.78125q-0.8125 0.765625 -1.046875 2.3125l-2.109375 -0.375q0.390625 -2.125 1.75 -3.28125q1.375 -1.171875 3.421875 -1.171875q1.40625 0 2.578125 0.609375q1.1875 0.59375 1.8125 1.640625q0.640625 1.046875 0.640625 2.21875q0 1.109375 -0.609375 2.03125q-0.59375 0.90625 -1.765625 1.4375q1.53125 0.359375 2.375 1.46875q0.84375 1.109375 0.84375 2.765625q0 2.25 -1.640625 3.828125q-1.640625 1.5625 -4.15625 1.5625q-2.265625 0 -3.765625 -1.34375q-1.484375 -1.359375 -1.6875 -3.5zm15.300781 9.578125l-1.515625 0q3.5 -5.625 3.5 -11.265625q0 -2.203125 -0.5 -4.359375q-0.390625 -1.765625 -1.109375 -3.375q-0.453125 -1.0625 -1.890625 -3.515625l1.515625 0q2.203125 2.9375 3.25 5.90625q0.90625 2.546875 0.90625 5.34375q0 3.15625 -1.21875 6.109375q-1.203125 2.953125 -2.9375 5.15625z" fill-rule="nonzero"></path><path fill="#cfe2f3" d="m1658.9517 774.2586l0 0c0 -71.33606 62.842285 -129.16534 140.36218 -129.16534l0 0c77.5199 0 140.3623 57.829285 140.3623 129.16534l0 0c0 71.33606 -62.842407 129.16534 -140.3623 129.16534l0 0c-77.5199 0 -140.36218 -57.829285 -140.36218 -129.16534z" fill-rule="nonzero"></path><path stroke="#000000" stroke-width="1.0" stroke-linejoin="round" stroke-linecap="butt" d="m1658.9517 774.2586l0 0c0 -71.33606 62.842285 -129.16534 140.36218 -129.16534l0 0c77.5199 0 140.3623 57.829285 140.3623 129.16534l0 0c0 71.33606 -62.842407 129.16534 -140.3623 129.16534l0 0c-77.5199 0 -140.36218 -57.829285 -140.36218 -129.16534z" fill-rule="nonzero"></path><path fill="#000000" fill-opacity="0.0" d="m1777.3937 774.2594l43.84253 0" fill-rule="nonzero"></path><path stroke="#000000" stroke-width="4.0" stroke-linejoin="round" stroke-linecap="butt" d="m1777.3937 774.25946l19.84253 0" fill-rule="evenodd"></path><path fill="#000000" stroke="#000000" stroke-width="4.0" stroke-linecap="butt" d="m1797.2362 780.86633l18.152466 -6.6068726l-18.152466 -6.6069336z" fill-rule="evenodd"></path><path fill="#d9ead3" d="m1665.2362 774.2594l0 0c0 -33.57196 25.1073 -60.787415 56.078735 -60.787415l0 0c14.873047 0 29.13684 6.404358 39.653687 17.80426c10.516846 11.399841 16.425049 26.861328 16.425049 42.983154l0 0c0 33.57196 -25.1073 60.787415 -56.078735 60.787415l0 0c-30.971436 0 -56.078735 -27.215454 -56.078735 -60.787415z" fill-rule="nonzero"></path><path stroke="#000000" stroke-width="1.0" stroke-linejoin="round" stroke-linecap="butt" d="m1665.2362 774.2594l0 0c0 -33.57196 25.1073 -60.787415 56.078735 -60.787415l0 0c14.873047 0 29.13684 6.404358 39.653687 17.80426c10.516846 11.399841 16.425049 26.861328 16.425049 42.983154l0 0c0 33.57196 -25.1073 60.787415 -56.078735 60.787415l0 0c-30.971436 0 -56.078735 -27.215454 -56.078735 -60.787415z" fill-rule="nonzero"></path><path fill="#000000" d="m1730.8618 753.6832l-7.625 26.484375l-0.859375 3.5625q-0.109375 0.5 -0.109375 0.859375q0 0.625 0.390625 1.09375q0.3125 0.34375 0.78125 0.34375q0.5 0 1.328125 -0.625q1.515625 -1.125 4.0625 -4.6875l1.328125 0.9375q-2.703125 4.0625 -5.5625 6.203125q-2.84375 2.125 -5.265625 2.125q-1.671875 0 -2.515625 -0.84375q-0.84375 -0.84375 -0.84375 -2.4375q0 -1.921875 0.859375 -5.046875l0.828125 -2.921875q-5.125 6.671875 -9.421875 9.328125q-3.078125 1.921875 -6.046875 1.921875q-2.859375 0 -4.9375 -2.359375q-2.0625 -2.375 -2.0625 -6.515625q0 -6.203125 3.734375 -13.09375q3.734375 -6.90625 9.46875 -11.046875q4.5 -3.28125 8.484375 -3.28125q2.375 0 3.953125 1.25q1.59375 1.25 2.40625 4.140625l1.40625 -4.453125l6.21875 -0.9375zm-13.90625 2.03125q-2.5 0 -5.3125 2.34375q-3.984375 3.328125 -7.09375 9.859375q-3.109375 6.515625 -3.109375 11.78125q0 2.65625 1.328125 4.203125q1.328125 1.546875 3.046875 1.546875q4.265625 0 9.265625 -6.296875q6.671875 -8.359375 6.671875 -17.140625q0 -3.328125 -1.296875 -4.8125q-1.28125 -1.484375 -3.5 -1.484375z" fill-rule="nonzero"></path><path fill="#000000" d="m1747.9868 784.9645l-1.484375 4.078125l-12.5 0l0 -0.578125q5.515625 -5.03125 7.765625 -8.21875q2.25 -3.1875 2.25 -5.828125q0 -2.015625 -1.234375 -3.3125q-1.234375 -1.296875 -2.953125 -1.296875q-1.5625 0 -2.8125 0.921875q-1.234375 0.90625 -1.828125 2.671875l-0.578125 0q0.390625 -2.890625 2.0 -4.4375q1.625 -1.546875 4.046875 -1.546875q2.578125 0 4.296875 1.65625q1.734375 1.65625 1.734375 3.90625q0 1.609375 -0.75 3.21875q-1.15625 2.53125 -3.75 5.359375q-3.890625 4.25 -4.859375 5.125l5.53125 0q1.6875 0 2.359375 -0.125q0.6875 -0.125 1.234375 -0.5q0.546875 -0.390625 0.953125 -1.09375l0.578125 0z" fill-rule="nonzero"></path><path fill="#d9ead3" d="m1821.2362 774.2594l0 0c0 -33.57196 25.1073 -60.787415 56.078735 -60.787415l0 0c14.873047 0 29.13684 6.404358 39.653687 17.80426c10.516846 11.399841 16.425049 26.861328 16.425049 42.983154l0 0c0 33.57196 -25.1073 60.787415 -56.078735 60.787415l0 0c-30.971436 0 -56.078735 -27.215454 -56.078735 -60.787415z" fill-rule="nonzero"></path><path stroke="#000000" stroke-width="1.0" stroke-linejoin="round" stroke-linecap="butt" d="m1821.2362 774.2594l0 0c0 -33.57196 25.1073 -60.787415 56.078735 -60.787415l0 0c14.873047 0 29.13684 6.404358 39.653687 17.80426c10.516846 11.399841 16.425049 26.861328 16.425049 42.983154l0 0c0 33.57196 -25.1073 60.787415 -56.078735 60.787415l0 0c-30.971436 0 -56.078735 -27.215454 -56.078735 -60.787415z" fill-rule="nonzero"></path><path fill="#000000" d="m1864.3423 753.6832q1.328125 2.265625 1.828125 4.25q0.515625 1.96875 1.015625 7.75l1.71875 19.21875q2.34375 -2.8125 6.796875 -8.90625q2.15625 -2.96875 5.3125 -8.09375q1.921875 -3.125 2.34375 -4.375q0.234375 -0.625 0.234375 -1.28125q0 -0.4375 -0.28125 -0.703125q-0.265625 -0.28125 -1.421875 -0.640625q-1.140625 -0.375 -1.90625 -1.375q-0.765625 -1.0 -0.765625 -2.28125q0 -1.609375 0.9375 -2.578125q0.9375 -0.984375 2.34375 -0.984375q1.71875 0 2.921875 1.4375q1.21875 1.421875 1.21875 3.921875q0 3.078125 -2.109375 7.046875q-2.109375 3.96875 -8.125 12.171875q-6.015625 8.203125 -14.5625 17.890625q-5.90625 6.6875 -8.765625 8.421875q-2.84375 1.734375 -4.875 1.734375q-1.21875 0 -2.125 -0.921875q-0.921875 -0.90625 -0.921875 -2.125q0 -1.515625 1.265625 -2.765625q1.265625 -1.25 2.75 -1.25q0.78125 0 1.296875 0.34375q0.3125 0.203125 0.6875 1.109375q0.375 0.921875 0.6875 1.234375q0.1875 0.203125 0.46875 0.203125q0.234375 0 0.8125 -0.390625q2.15625 -1.328125 5.0 -4.21875q3.75 -3.828125 5.546875 -6.25l-2.1875 -24.78125q-0.546875 -6.125 -1.640625 -7.453125q-1.09375 -1.328125 -3.671875 -1.328125q-0.8125 0 -2.921875 0.234375l-0.359375 -1.453125l11.453125 -2.8125z" fill-rule="nonzero"></path><path fill="#000000" d="m1901.7407 784.9645l-1.484375 4.078125l-12.5 0l0 -0.578125q5.515625 -5.03125 7.765625 -8.21875q2.25 -3.1875 2.25 -5.828125q0 -2.015625 -1.234375 -3.3125q-1.234375 -1.296875 -2.953125 -1.296875q-1.5625 0 -2.8125 0.921875q-1.234375 0.90625 -1.828125 2.671875l-0.578125 0q0.390625 -2.890625 2.0 -4.4375q1.625 -1.546875 4.046875 -1.546875q2.578125 0 4.296875 1.65625q1.734375 1.65625 1.734375 3.90625q0 1.609375 -0.75 3.21875q-1.15625 2.53125 -3.75 5.359375q-3.890625 4.25 -4.859375 5.125l5.53125 0q1.6875 0 2.359375 -0.125q0.6875 -0.125 1.234375 -0.5q0.546875 -0.390625 0.953125 -1.09375l0.578125 0z" fill-rule="nonzero"></path><path fill="#000000" fill-opacity="0.0" d="m1761.3163 695.1562l82.01575 0l0 80.724365l-82.01575 0z" fill-rule="nonzero"></path><path fill="#000000" d="m1791.41 725.353l-0.78125 2.75l-6.34375 0q2.75 2.28125 2.75 5.109375q0 3.71875 -2.890625 6.765625q-2.875 3.046875 -6.890625 3.046875q-2.8125 0 -4.34375 -1.546875q-1.53125 -1.5625 -1.53125 -4.203125q0 -2.5 1.171875 -5.203125q1.171875 -2.71875 3.203125 -4.265625q2.03125 -1.5625 4.234375 -2.0q2.203125 -0.453125 6.859375 -0.453125l4.5625 0zm-8.078125 2.75q-4.921875 0.03125 -6.953125 3.53125q-2.015625 3.5 -2.015625 7.046875q0 3.4375 2.96875 3.4375q2.84375 0 4.8125 -3.78125q1.96875 -3.796875 1.96875 -7.109375q0 -2.0 -0.78125 -3.125z" fill-rule="nonzero"></path><path fill="#000000" d="m1802.4647 750.3843l0 0.734375q-2.953125 -1.484375 -4.921875 -3.484375q-2.8125 -2.828125 -4.34375 -6.671875q-1.515625 -3.859375 -1.515625 -8.0q0 -6.046875 2.984375 -11.03125q3.0 -5.0 7.796875 -7.15625l0 0.828125q-2.40625 1.328125 -3.953125 3.640625q-1.53125 2.296875 -2.296875 5.828125q-0.765625 3.53125 -0.765625 7.390625q0 4.171875 0.65625 7.59375q0.5 2.703125 1.21875 4.328125q0.734375 1.625 1.953125 3.125q1.21875 1.515625 3.1875 2.875zm11.8046875 -34.78125l0 -0.828125q2.96875 1.46875 4.9375 3.46875q2.796875 2.84375 4.3125 6.6875q1.53125 3.828125 1.53125 8.0q0 6.046875 -2.984375 11.03125q-2.984375 5.0 -7.796875 7.15625l0 -0.734375q2.390625 -1.34375 3.9375 -3.640625q1.5625 -2.296875 2.3125 -5.84375q0.75 -3.546875 0.75 -7.390625q0 -4.15625 -0.640625 -7.59375q-0.484375 -2.703125 -1.21875 -4.3125q-0.734375 -1.625 -1.953125 -3.125q-1.203125 -1.515625 -3.1875 -2.875z" fill-rule="nonzero"></path><path fill="#000000" fill-opacity="0.0" d="m1720.3439 719.4711l69.88977 0l0 68.37793l-69.88977 0z" fill-rule="nonzero"></path><path fill="#000000" d="m1734.9532 756.558q-1.734375 -2.203125 -2.953125 -5.15625q-1.203125 -2.953125 -1.203125 -6.109375q0 -2.796875 0.90625 -5.34375q1.046875 -2.96875 3.25 -5.90625l1.515625 0q-1.421875 2.4375 -1.875 3.46875q-0.71875 1.625 -1.125 3.375q-0.5 2.203125 -0.5 4.40625q0 5.640625 3.5 11.265625l-1.515625 0zm3.3984375 -9.578125l2.109375 -0.28125q0.359375 1.78125 1.234375 2.578125q0.875 0.796875 2.125 0.796875q1.484375 0 2.5 -1.03125q1.03125 -1.03125 1.03125 -2.5625q0 -1.453125 -0.953125 -2.390625q-0.9375 -0.953125 -2.40625 -0.953125q-0.59375 0 -1.484375 0.234375l0.234375 -1.84375q0.203125 0.015625 0.34375 0.015625q1.34375 0 2.421875 -0.703125q1.078125 -0.703125 1.078125 -2.15625q0 -1.171875 -0.796875 -1.921875q-0.78125 -0.765625 -2.015625 -0.765625q-1.234375 0 -2.0625 0.78125q-0.8125 0.765625 -1.046875 2.3125l-2.109375 -0.375q0.390625 -2.125 1.75 -3.28125q1.375 -1.171875 3.421875 -1.171875q1.40625 0 2.578125 0.609375q1.1875 0.59375 1.8125 1.640625q0.640625 1.046875 0.640625 2.21875q0 1.109375 -0.609375 2.03125q-0.59375 0.90625 -1.765625 1.4375q1.53125 0.359375 2.375 1.46875q0.84375 1.109375 0.84375 2.765625q0 2.25 -1.640625 3.828125q-1.640625 1.5625 -4.15625 1.5625q-2.265625 0 -3.765625 -1.34375q-1.484375 -1.359375 -1.6875 -3.5zm15.300781 9.578125l-1.515625 0q3.5 -5.625 3.5 -11.265625q0 -2.203125 -0.5 -4.359375q-0.390625 -1.765625 -1.109375 -3.375q-0.453125 -1.0625 -1.890625 -3.515625l1.515625 0q2.203125 2.9375 3.25 5.90625q0.90625 2.546875 0.90625 5.34375q0 3.15625 -1.21875 6.109375q-1.203125 2.953125 -2.9375 5.15625z" fill-rule="nonzero"></path><path fill="#cfe2f3" d="m995.58295 473.63657l0 0c0 -71.33606 62.842224 -129.16534 140.36212 -129.16534l0 0c77.52002 0 140.3623 57.829285 140.3623 129.16534l0 0c0 71.33603 -62.842285 129.16537 -140.3623 129.16537l0 0c-77.5199 0 -140.36212 -57.829346 -140.36212 -129.16537z" fill-rule="nonzero"></path><path stroke="#000000" stroke-width="1.0" stroke-linejoin="round" stroke-linecap="butt" d="m995.58295 473.63657l0 0c0 -71.33606 62.842224 -129.16534 140.36212 -129.16534l0 0c77.52002 0 140.3623 57.829285 140.3623 129.16534l0 0c0 71.33603 -62.842285 129.16537 -140.3623 129.16537l0 0c-77.5199 0 -140.36212 -57.829346 -140.36212 -129.16537z" fill-rule="nonzero"></path><path fill="#000000" fill-opacity="0.0" d="m1114.0249 473.63736l43.84253 0" fill-rule="nonzero"></path><path stroke="#000000" stroke-width="4.0" stroke-linejoin="round" stroke-linecap="butt" d="m1114.0249 473.63733l19.84253 0" fill-rule="evenodd"></path><path fill="#000000" stroke="#000000" stroke-width="4.0" stroke-linecap="butt" d="m1133.8674 480.24426l18.152466 -6.6069336l-18.152466 -6.606903z" fill-rule="evenodd"></path><path fill="#d9ead3" d="m1001.8675 473.63736l0 0c0 -33.57196 25.107239 -60.787415 56.078674 -60.787415l0 0c14.873047 0 29.136963 6.4043884 39.653687 17.80423c10.516846 11.399841 16.425049 26.861359 16.425049 42.983185l0 0c0 33.57196 -25.1073 60.787384 -56.078735 60.787384l0 0c-30.971436 0 -56.078674 -27.215424 -56.078674 -60.787384z" fill-rule="nonzero"></path><path stroke="#000000" stroke-width="1.0" stroke-linejoin="round" stroke-linecap="butt" d="m1001.8675 473.63736l0 0c0 -33.57196 25.107239 -60.787415 56.078674 -60.787415l0 0c14.873047 0 29.136963 6.4043884 39.653687 17.80423c10.516846 11.399841 16.425049 26.861359 16.425049 42.983185l0 0c0 33.57196 -25.1073 60.787384 -56.078735 60.787384l0 0c-30.971436 0 -56.078674 -27.215424 -56.078674 -60.787384z" fill-rule="nonzero"></path><path fill="#d9ead3" d="m1157.8674 473.63736l0 0c0 -33.57196 25.1073 -60.787415 56.078735 -60.787415l0 0c14.873047 0 29.136963 6.4043884 39.653687 17.80423c10.516846 11.399841 16.425049 26.861359 16.425049 42.983185l0 0c0 33.57196 -25.1073 60.787384 -56.078735 60.787384l0 0c-30.971436 0 -56.078735 -27.215424 -56.078735 -60.787384z" fill-rule="nonzero"></path><path stroke="#000000" stroke-width="1.0" stroke-linejoin="round" stroke-linecap="butt" d="m1157.8674 473.63736l0 0c0 -33.57196 25.1073 -60.787415 56.078735 -60.787415l0 0c14.873047 0 29.136963 6.4043884 39.653687 17.80423c10.516846 11.399841 16.425049 26.861359 16.425049 42.983185l0 0c0 33.57196 -25.1073 60.787384 -56.078735 60.787384l0 0c-30.971436 0 -56.078735 -27.215424 -56.078735 -60.787384z" fill-rule="nonzero"></path><path fill="#000000" d="m1197.0985 453.99866l24.8125 0l0 0.984375l-27.03125 28.125l11.4375 0q4.0625 0 5.15625 -0.3125q1.09375 -0.3125 2.015625 -1.328125q0.921875 -1.015625 2.046875 -3.671875l1.453125 0l-3.40625 10.625l-25.4375 0l0 -1.140625l27.046875 -28.125l-11.25 0q-3.5625 0 -4.296875 0.203125q-1.09375 0.234375 -2.171875 1.234375q-1.078125 0.984375 -2.203125 3.296875l-1.484375 0l3.3125 -9.890625z" fill-rule="nonzero"></path><path fill="#000000" d="m1225.2626 469.31116l5.15625 -2.515625l0.515625 0l0 17.890625q0 1.78125 0.140625 2.21875q0.15625 0.4375 0.625 0.671875q0.46875 0.234375 1.90625 0.265625l0 0.578125l-7.96875 0l0 -0.578125q1.5 -0.03125 1.9375 -0.25q0.4375 -0.234375 0.609375 -0.609375q0.171875 -0.390625 0.171875 -2.296875l0 -11.4375q0 -2.3125 -0.15625 -2.96875q-0.109375 -0.5 -0.40625 -0.734375q-0.28125 -0.234375 -0.6875 -0.234375q-0.578125 0 -1.609375 0.484375l-0.234375 -0.484375z" fill-rule="nonzero"></path><path fill="#cfe2f3" d="m1005.0803 774.2586l0 0c0 -71.33606 62.842285 -129.16534 140.36218 -129.16534l0 0c77.5199 0 140.36218 57.829285 140.36218 129.16534l0 0c0 71.33606 -62.842285 129.16534 -140.36218 129.16534l0 0c-77.5199 0 -140.36218 -57.829285 -140.36218 -129.16534z" fill-rule="nonzero"></path><path stroke="#000000" stroke-width="1.0" stroke-linejoin="round" stroke-linecap="butt" d="m1005.0803 774.2586l0 0c0 -71.33606 62.842285 -129.16534 140.36218 -129.16534l0 0c77.5199 0 140.36218 57.829285 140.36218 129.16534l0 0c0 71.33606 -62.842285 129.16534 -140.36218 129.16534l0 0c-77.5199 0 -140.36218 -57.829285 -140.36218 -129.16534z" fill-rule="nonzero"></path><path fill="#000000" fill-opacity="0.0" d="m1123.5223 774.2594l43.84253 0" fill-rule="nonzero"></path><path stroke="#000000" stroke-width="4.0" stroke-linejoin="round" stroke-linecap="butt" d="m1123.5223 774.25946l19.84253 0" fill-rule="evenodd"></path><path fill="#000000" stroke="#000000" stroke-width="4.0" stroke-linecap="butt" d="m1143.3649 780.86633l18.152344 -6.6068726l-18.152344 -6.6069336z" fill-rule="evenodd"></path><path fill="#d9ead3" d="m1011.36487 774.2594l0 0c0 -33.57196 25.1073 -60.787415 56.078735 -60.787415l0 0c14.873047 0 29.13684 6.404358 39.653687 17.80426c10.516724 11.399841 16.425049 26.861328 16.425049 42.983154l0 0c0 33.57196 -25.1073 60.787415 -56.078735 60.787415l0 0c-30.971436 0 -56.078735 -27.215454 -56.078735 -60.787415z" fill-rule="nonzero"></path><path stroke="#000000" stroke-width="1.0" stroke-linejoin="round" stroke-linecap="butt" d="m1011.36487 774.2594l0 0c0 -33.57196 25.1073 -60.787415 56.078735 -60.787415l0 0c14.873047 0 29.13684 6.404358 39.653687 17.80426c10.516724 11.399841 16.425049 26.861328 16.425049 42.983154l0 0c0 33.57196 -25.1073 60.787415 -56.078735 60.787415l0 0c-30.971436 0 -56.078735 -27.215454 -56.078735 -60.787415z" fill-rule="nonzero"></path><path fill="#d9ead3" d="m1167.3649 774.2594l0 0c0 -33.57196 25.1073 -60.787415 56.078735 -60.787415l0 0c14.873047 0 29.13684 6.404358 39.653687 17.80426c10.516724 11.399841 16.425049 26.861328 16.425049 42.983154l0 0c0 33.57196 -25.1073 60.787415 -56.078735 60.787415l0 0c-30.971436 0 -56.078735 -27.215454 -56.078735 -60.787415z" fill-rule="nonzero"></path><path stroke="#000000" stroke-width="1.0" stroke-linejoin="round" stroke-linecap="butt" d="m1167.3649 774.2594l0 0c0 -33.57196 25.1073 -60.787415 56.078735 -60.787415l0 0c14.873047 0 29.13684 6.404358 39.653687 17.80426c10.516724 11.399841 16.425049 26.861328 16.425049 42.983154l0 0c0 33.57196 -25.1073 60.787415 -56.078735 60.787415l0 0c-30.971436 0 -56.078735 -27.215454 -56.078735 -60.787415z" fill-rule="nonzero"></path><path fill="#000000" d="m1206.596 754.6207l24.8125 0l0 0.984375l-27.03125 28.125l11.4375 0q4.0625 0 5.15625 -0.3125q1.09375 -0.3125 2.015625 -1.328125q0.921875 -1.015625 2.046875 -3.671875l1.453125 0l-3.40625 10.625l-25.4375 0l0 -1.140625l27.046875 -28.125l-11.25 0q-3.5625 0 -4.296875 0.203125q-1.09375 0.234375 -2.171875 1.234375q-1.078125 0.984375 -2.203125 3.296875l-1.484375 0l3.3125 -9.890625z" fill-rule="nonzero"></path><path fill="#000000" d="m1245.6819 784.9645l-1.484375 4.078125l-12.5 0l0 -0.578125q5.515625 -5.03125 7.765625 -8.21875q2.25 -3.1875 2.25 -5.828125q0 -2.015625 -1.234375 -3.3125q-1.234375 -1.296875 -2.953125 -1.296875q-1.5625 0 -2.8125 0.921875q-1.234375 0.90625 -1.828125 2.671875l-0.578125 0q0.390625 -2.890625 2.0 -4.4375q1.625 -1.546875 4.046875 -1.546875q2.578125 0 4.296875 1.65625q1.734375 1.65625 1.734375 3.90625q0 1.609375 -0.75 3.21875q-1.15625 2.53125 -3.75 5.359375q-3.890625 4.25 -4.859375 5.125l5.53125 0q1.6875 0 2.359375 -0.125q0.6875 -0.125 1.234375 -0.5q0.546875 -0.390625 0.953125 -1.09375l0.578125 0z" fill-rule="nonzero"></path><path fill="#000000" fill-opacity="0.0" d="m1217.6116 418.8491l69.88977 0l0 68.37793l-69.88977 0z" fill-rule="nonzero"></path><path fill="#000000" d="m1232.221 455.93594q-1.734375 -2.203125 -2.953125 -5.15625q-1.203125 -2.953125 -1.203125 -6.109375q0 -2.796875 0.90625 -5.34375q1.046875 -2.96875 3.25 -5.90625l1.515625 0q-1.421875 2.4375 -1.875 3.46875q-0.71875 1.625 -1.125 3.375q-0.5 2.203125 -0.5 4.40625q0 5.640625 3.5 11.265625l-1.515625 0zm14.4609375 -7.078125l0 2.03125l-11.34375 0q-0.03125 -0.765625 0.234375 -1.46875q0.4375 -1.15625 1.390625 -2.28125q0.953125 -1.125 2.765625 -2.609375q2.796875 -2.296875 3.78125 -3.625q0.984375 -1.34375 0.984375 -2.546875q0 -1.25 -0.90625 -2.109375q-0.890625 -0.859375 -2.328125 -0.859375q-1.515625 0 -2.4375 0.921875q-0.90625 0.90625 -0.921875 2.515625l-2.171875 -0.21875q0.21875 -2.421875 1.671875 -3.6875q1.453125 -1.28125 3.90625 -1.28125q2.46875 0 3.90625 1.375q1.453125 1.359375 1.453125 3.390625q0 1.03125 -0.421875 2.03125q-0.421875 1.0 -1.40625 2.109375q-0.96875 1.09375 -3.25 3.015625q-1.890625 1.59375 -2.4375 2.15625q-0.53125 0.5625 -0.890625 1.140625l8.421875 0zm4.2382812 7.078125l-1.515625 0q3.5 -5.625 3.5 -11.265625q0 -2.203125 -0.5 -4.359375q-0.390625 -1.765625 -1.109375 -3.375q-0.453125 -1.0625 -1.890625 -3.515625l1.515625 0q2.203125 2.9375 3.25 5.90625q0.90625 2.546875 0.90625 5.34375q0 3.15625 -1.21875 6.109375q-1.203125 2.953125 -2.9375 5.15625z" fill-rule="nonzero"></path><path fill="#000000" fill-opacity="0.0" d="m1225.6116 722.84906l69.88977 0l0 68.37799l-69.88977 0z" fill-rule="nonzero"></path><path fill="#000000" d="m1240.221 759.936q-1.734375 -2.203125 -2.953125 -5.15625q-1.203125 -2.953125 -1.203125 -6.109375q0 -2.796875 0.90625 -5.34375q1.046875 -2.96875 3.25 -5.90625l1.515625 0q-1.421875 2.4375 -1.875 3.46875q-0.71875 1.625 -1.125 3.375q-0.5 2.203125 -0.5 4.40625q0 5.640625 3.5 11.265625l-1.515625 0zm14.4609375 -7.078125l0 2.03125l-11.34375 0q-0.03125 -0.765625 0.234375 -1.46875q0.4375 -1.15625 1.390625 -2.28125q0.953125 -1.125 2.765625 -2.609375q2.796875 -2.296875 3.78125 -3.625q0.984375 -1.34375 0.984375 -2.546875q0 -1.25 -0.90625 -2.109375q-0.890625 -0.859375 -2.328125 -0.859375q-1.515625 0 -2.4375 0.921875q-0.90625 0.90625 -0.921875 2.515625l-2.171875 -0.21875q0.21875 -2.421875 1.671875 -3.6875q1.453125 -1.28125 3.90625 -1.28125q2.46875 0 3.90625 1.375q1.453125 1.359375 1.453125 3.390625q0 1.03125 -0.421875 2.03125q-0.421875 1.0 -1.40625 2.109375q-0.96875 1.09375 -3.25 3.015625q-1.890625 1.59375 -2.4375 2.15625q-0.53125 0.5625 -0.890625 1.140625l8.421875 0zm4.2382812 7.078125l-1.515625 0q3.5 -5.625 3.5 -11.265625q0 -2.203125 -0.5 -4.359375q-0.390625 -1.765625 -1.109375 -3.375q-0.453125 -1.0625 -1.890625 -3.515625l1.515625 0q2.203125 2.9375 3.25 5.90625q0.90625 2.546875 0.90625 5.34375q0 3.15625 -1.21875 6.109375q-1.203125 2.953125 -2.9375 5.15625z" fill-rule="nonzero"></path></g></svg>

