<?xml version="1.0" standalone="yes"?>

<svg version="1.1" viewBox="0.0 0.0 1166.3438320209973 656.4776902887139" fill="none" stroke="none" stroke-linecap="square" stroke-miterlimit="10" xmlns="http://www.w3.org/2000/svg" xmlns:xlink="http://www.w3.org/1999/xlink"><clipPath id="p.0"><path d="m0 0l1166.3439 0l0 656.47766l-1166.3439 0l0 -656.47766z" clip-rule="nonzero"></path></clipPath><g clip-path="url(#p.0)"><path fill="#000000" fill-opacity="0.0" d="m0 0l1166.3439 0l0 656.47766l-1166.3439 0z" fill-rule="nonzero"></path><path fill="#cfe2f3" d="m16.284777 157.88715l0 0c0 -43.60006 36.867767 -78.944885 82.34646 -78.944885l0 0c21.839638 0 42.784782 8.317383 58.227745 23.122414c15.442947 14.805038 24.118713 34.884987 24.118713 55.82247l0 0c0 43.60005 -36.867767 78.94487 -82.34646 78.94487l0 0c-45.47869 0 -82.34646 -35.34482 -82.34646 -78.94487z" fill-rule="nonzero"></path><path stroke="#000000" stroke-width="1.0" stroke-linejoin="round" stroke-linecap="butt" d="m16.284777 157.88715l0 0c0 -43.60006 36.867767 -78.944885 82.34646 -78.944885l0 0c21.839638 0 42.784782 8.317383 58.227745 23.122414c15.442947 14.805038 24.118713 34.884987 24.118713 55.82247l0 0c0 43.60005 -36.867767 78.94487 -82.34646 78.94487l0 0c-45.47869 0 -82.34646 -35.34482 -82.34646 -78.94487z" fill-rule="nonzero"></path><path fill="#000000" d="m111.67811 139.44772l-9.140625 31.78125l-1.03125 4.265625q-0.140625 0.609375 -0.140625 1.03125q0 0.75 0.46875 1.3125q0.375 0.421875 0.9375 0.421875q0.609375 0 1.59375 -0.75q1.828125 -1.359375 4.875 -5.625l1.59375 1.125q-3.234375 4.875 -6.65625 7.4375q-3.421875 2.546875 -6.328125 2.546875q-2.015625 0 -3.03125 -1.015625q-1.0 -1.0 -1.0 -2.921875q0 -2.296875 1.03125 -6.046875l0.984375 -3.515625q-6.140625 8.015625 -11.296875 11.203125q-3.703125 2.296875 -7.265625 2.296875q-3.421875 0 -5.90625 -2.828125q-2.484375 -2.84375 -2.484375 -7.8125q0 -7.453125 4.46875 -15.71875q4.484375 -8.28125 11.375 -13.25q5.390625 -3.9375 10.171875 -3.9375q2.859375 0 4.75 1.5q1.90625 1.5 2.890625 4.96875l1.6875 -5.34375l7.453125 -1.125zm-16.6875 2.4375q-3.0 0 -6.375 2.8125q-4.78125 3.984375 -8.515625 11.8125q-3.71875 7.828125 -3.71875 14.15625q0 3.1875 1.59375 5.046875q1.59375 1.84375 3.65625 1.84375q5.109375 0 11.109375 -7.546875q8.015625 -10.03125 8.015625 -20.578125q0 -3.984375 -1.546875 -5.765625q-1.546875 -1.78125 -4.21875 -1.78125z" fill-rule="nonzero"></path><path fill="#000000" d="m118.38123 162.76022l5.15625 -2.515625l0.515625 0l0 17.890625q0 1.78125 0.140625 2.21875q0.15625 0.4375 0.625 0.671875q0.46875 0.234375 1.90625 0.265625l0 0.578125l-7.96875 0l0 -0.578125q1.5 -0.03125 1.9375 -0.25q0.4375 -0.234375 0.609375 -0.609375q0.171875 -0.390625 0.171875 -2.296875l0 -11.4375q0 -2.3125 -0.15625 -2.96875q-0.109375 -0.5 -0.40625 -0.734375q-0.28125 -0.234375 -0.6875 -0.234375q-0.578125 0 -1.609375 0.484375l-0.234375 -0.484375z" fill-rule="nonzero"></path><path fill="#cfe2f3" d="m16.284777 328.1076l0 0c0 -43.600037 36.867767 -78.94487 82.34646 -78.94487l0 0c21.839638 0 42.784782 8.317368 58.227745 23.122421c15.442947 14.805023 24.118713 34.88498 24.118713 55.82245l0 0c0 43.600067 -36.867767 78.944885 -82.34646 78.944885l0 0c-45.47869 0 -82.34646 -35.34482 -82.34646 -78.944885z" fill-rule="nonzero"></path><path stroke="#000000" stroke-width="1.0" stroke-linejoin="round" stroke-linecap="butt" d="m16.284777 328.1076l0 0c0 -43.600037 36.867767 -78.94487 82.34646 -78.94487l0 0c21.839638 0 42.784782 8.317368 58.227745 23.122421c15.442947 14.805023 24.118713 34.88498 24.118713 55.82245l0 0c0 43.600067 -36.867767 78.944885 -82.34646 78.944885l0 0c-45.47869 0 -82.34646 -35.34482 -82.34646 -78.944885z" fill-rule="nonzero"></path><path fill="#000000" d="m111.67811 309.34573l-9.140625 31.78125l-1.03125 4.265625q-0.140625 0.609375 -0.140625 1.03125q0 0.75 0.46875 1.3125q0.375 0.421875 0.9375 0.421875q0.609375 0 1.59375 -0.75q1.828125 -1.359375 4.875 -5.625l1.59375 1.125q-3.234375 4.875 -6.65625 7.4375q-3.421875 2.546875 -6.328125 2.546875q-2.015625 0 -3.03125 -1.015625q-1.0 -1.0 -1.0 -2.921875q0 -2.296875 1.03125 -6.046875l0.984375 -3.515625q-6.140625 8.015625 -11.296875 11.203125q-3.703125 2.296875 -7.265625 2.296875q-3.421875 0 -5.90625 -2.828125q-2.484375 -2.84375 -2.484375 -7.8125q0 -7.453125 4.46875 -15.71875q4.484375 -8.28125 11.375 -13.25q5.390625 -3.9375 10.171875 -3.9375q2.859375 0 4.75 1.5q1.90625 1.5 2.890625 4.96875l1.6875 -5.34375l7.453125 -1.125zm-16.6875 2.4375q-3.0 0 -6.375 2.8125q-4.78125 3.984375 -8.515625 11.8125q-3.71875 7.828125 -3.71875 14.15625q0 3.1875 1.59375 5.046875q1.59375 1.84375 3.65625 1.84375q5.109375 0 11.109375 -7.546875q8.015625 -10.03125 8.015625 -20.578125q0 -3.984375 -1.546875 -5.765625q-1.546875 -1.78125 -4.21875 -1.78125z" fill-rule="nonzero"></path><path fill="#000000" d="m129.3031 347.68948l-1.4843674 4.078125l-12.5 0l0 -0.578125q5.515625 -5.03125 7.765625 -8.21875q2.25 -3.1875 2.25 -5.828125q0 -2.015625 -1.234375 -3.3125q-1.234375 -1.296875 -2.953125 -1.296875q-1.5625 0 -2.8125 0.921875q-1.234375 0.90625 -1.828125 2.671875l-0.578125 0q0.390625 -2.890625 2.0 -4.4375q1.625 -1.546875 4.046875 -1.546875q2.578125 0 4.296875 1.65625q1.7343674 1.65625 1.7343674 3.90625q0 1.609375 -0.7499924 3.21875q-1.15625 2.53125 -3.75 5.359375q-3.890625 4.25 -4.859375 5.125l5.53125 0q1.6875 0 2.359375 -0.125q0.6875 -0.125 1.234375 -0.5q0.5468674 -0.390625 0.9531174 -1.09375l0.578125 0z" fill-rule="nonzero"></path><path fill="#cfe2f3" d="m405.7861 328.1076l0 0c0 -43.600037 36.867737 -78.94487 82.346436 -78.94487l0 0c21.83966 0 42.78476 8.317368 58.227753 23.122421c15.442932 14.805023 24.118713 34.88498 24.118713 55.82245l0 0c0 43.600067 -36.867737 78.944885 -82.346466 78.944885l0 0c-45.4787 0 -82.346436 -35.34482 -82.346436 -78.944885z" fill-rule="nonzero"></path><path stroke="#000000" stroke-width="1.0" stroke-linejoin="round" stroke-linecap="butt" d="m405.7861 328.1076l0 0c0 -43.600037 36.867737 -78.94487 82.346436 -78.94487l0 0c21.83966 0 42.78476 8.317368 58.227753 23.122421c15.442932 14.805023 24.118713 34.88498 24.118713 55.82245l0 0c0 43.600067 -36.867737 78.944885 -82.346466 78.944885l0 0c-45.4787 0 -82.346436 -35.34482 -82.346436 -78.944885z" fill-rule="nonzero"></path><path fill="#000000" d="m474.15598 309.66818q1.59375 2.71875 2.203125 5.09375q0.609375 2.359375 1.21875 9.296875l2.0625 23.0625q2.8125 -3.375 8.15625 -10.6875q2.578125 -3.5625 6.375 -9.703125q2.296875 -3.75 2.8125 -5.25q0.28125 -0.75 0.28125 -1.546875q0 -0.515625 -0.328125 -0.84375q-0.328125 -0.328125 -1.71875 -0.765625q-1.375 -0.453125 -2.296875 -1.640625q-0.90625 -1.203125 -0.90625 -2.75q0 -1.921875 1.125 -3.09375q1.125 -1.171875 2.8125 -1.171875q2.0625 0 3.515625 1.71875q1.453125 1.703125 1.453125 4.703125q0 3.703125 -2.53125 8.46875q-2.53125 4.75 -9.75 14.59375q-7.21875 9.84375 -17.484375 21.46875q-7.078125 8.015625 -10.5 10.09375q-3.421875 2.09375 -5.859375 2.09375q-1.453125 0 -2.546875 -1.109375q-1.109375 -1.09375 -1.109375 -2.546875q0 -1.828125 1.53125 -3.328125q1.515625 -1.5 3.296875 -1.5q0.9375 0 1.546875 0.421875q0.375 0.234375 0.828125 1.328125q0.4375 1.109375 0.8125 1.484375q0.234375 0.234375 0.5625 0.234375q0.28125 0 0.984375 -0.46875q2.578125 -1.59375 6.0 -5.0625q4.5 -4.59375 6.65625 -7.5l-2.625 -29.71875q-0.65625 -7.359375 -1.96875 -8.953125q-1.3125 -1.59375 -4.40625 -1.59375q-0.984375 0 -3.515625 0.28125l-0.421875 -1.734375l13.734375 -3.375z" fill-rule="nonzero"></path><path fill="#000000" d="m516.10913 348.01193l-1.484375 4.078125l-12.5000305 0l0 -0.578125q5.515625 -5.03125 7.765625 -8.21875q2.2500305 -3.1875 2.2500305 -5.828125q0 -2.015625 -1.2344055 -3.3125q-1.234375 -1.296875 -2.953125 -1.296875q-1.5625 0 -2.8125 0.921875q-1.234375 0.90625 -1.828125 2.671875l-0.578125 0q0.390625 -2.890625 2.0 -4.4375q1.625 -1.546875 4.046875 -1.546875q2.578125 0 4.2969055 1.65625q1.734375 1.65625 1.734375 3.90625q0 1.609375 -0.75 3.21875q-1.15625 2.53125 -3.7500305 5.359375q-3.890625 4.25 -4.859375 5.125l5.53125 0q1.6875305 0 2.3594055 -0.125q0.6875 -0.125 1.234375 -0.5q0.546875 -0.390625 0.953125 -1.09375l0.578125 0z" fill-rule="nonzero"></path><path fill="#cfe2f3" d="m405.7874 498.3281l0 0c0 -43.600067 36.867737 -78.944885 82.346436 -78.944885l0 0c21.83966 0 42.78479 8.317383 58.227722 23.122406c15.442993 14.805054 24.118713 34.88498 24.118713 55.82248l0 0c0 43.600067 -36.867737 78.944855 -82.346436 78.944855l0 0c-45.4787 0 -82.346436 -35.344788 -82.346436 -78.944855z" fill-rule="nonzero"></path><path stroke="#000000" stroke-width="1.0" stroke-linejoin="round" stroke-linecap="butt" d="m405.7874 498.3281l0 0c0 -43.600067 36.867737 -78.944885 82.346436 -78.944885l0 0c21.83966 0 42.78479 8.317383 58.227722 23.122406c15.442993 14.805054 24.118713 34.88498 24.118713 55.82248l0 0c0 43.600067 -36.867737 78.944855 -82.346436 78.944855l0 0c-45.4787 0 -82.346436 -35.344788 -82.346436 -78.944855z" fill-rule="nonzero"></path><path fill="#000000" d="m474.1573 479.88867q1.59375 2.71875 2.203125 5.09375q0.609375 2.359375 1.21875 9.296875l2.0625 23.0625q2.8125 -3.375 8.15625 -10.6875q2.578125 -3.5625 6.375 -9.703125q2.296875 -3.75 2.8125 -5.25q0.28125 -0.75 0.28125 -1.546875q0 -0.515625 -0.328125 -0.84375q-0.328125 -0.328125 -1.71875 -0.765625q-1.375 -0.453125 -2.296875 -1.640625q-0.90625 -1.203125 -0.90625 -2.75q0 -1.921875 1.125 -3.09375q1.125 -1.171875 2.8125 -1.171875q2.0625 0 3.515625 1.71875q1.453125 1.703125 1.453125 4.703125q0 3.703125 -2.53125 8.46875q-2.53125 4.75 -9.75 14.59375q-7.21875 9.84375 -17.484375 21.46875q-7.078125 8.015625 -10.5 10.09375q-3.421875 2.09375 -5.859375 2.09375q-1.453125 0 -2.546875 -1.109375q-1.109375 -1.09375 -1.109375 -2.546875q0 -1.828125 1.53125 -3.328125q1.515625 -1.5 3.296875 -1.5q0.9375 0 1.546875 0.421875q0.375 0.234375 0.828125 1.328125q0.4375 1.109375 0.8125 1.484375q0.234375 0.234375 0.5625 0.234375q0.28125 0 0.984375 -0.46875q2.578125 -1.59375 6.0 -5.0625q4.5 -4.59375 6.65625 -7.5l-2.625 -29.71875q-0.65625 -7.359375 -1.96875 -8.953125q-1.3125 -1.59375 -4.40625 -1.59375q-0.984375 0 -3.515625 0.28125l-0.421875 -1.734375l13.734375 -3.375z" fill-rule="nonzero"></path><path fill="#000000" d="m503.06354 505.1543q0.90625 -2.140625 2.28125 -3.296875q1.390625 -1.171875 3.453125 -1.171875q2.546875 0 3.90625 1.65625q1.03125 1.234375 1.03125 2.640625q0 2.3125 -2.90625 4.78125q1.953125 0.765625 2.953125 2.1875q1.0 1.421875 1.0 3.34375q0 2.75 -1.75 4.765625q-2.28125 2.625 -6.609375 2.625q-2.140625 0 -2.921875 -0.53125q-0.765625 -0.53125 -0.765625 -1.140625q0 -0.453125 0.359375 -0.796875q0.375 -0.34375 0.890625 -0.34375q0.390625 0 0.796875 0.125q0.265625 0.078125 1.203125 0.578125q0.9375 0.484375 1.296875 0.578125q0.578125 0.171875 1.234375 0.171875q1.59375 0 2.765625 -1.234375q1.1875 -1.234375 1.1875 -2.921875q0 -1.234375 -0.546875 -2.40625q-0.40625 -0.875 -0.890625 -1.328125q-0.671875 -0.625 -1.84375 -1.125q-1.171875 -0.515625 -2.390625 -0.515625l-0.5 0l0 -0.46875q1.234375 -0.15625 2.46875 -0.890625q1.25 -0.734375 1.8125 -1.765625q0.5625 -1.03125 0.5625 -2.265625q0 -1.609375 -1.015625 -2.59375q-1.0 -1.0 -2.5 -1.0q-2.421875 0 -4.046875 2.59375l-0.515625 -0.25z" fill-rule="nonzero"></path><path fill="#000000" fill-opacity="0.0" d="m180.97769 328.1076l224.81891 0" fill-rule="nonzero"></path><path stroke="#000000" stroke-width="3.0" stroke-linejoin="round" stroke-linecap="butt" d="m180.97769 328.1076l206.81891 0" fill-rule="evenodd"></path><path fill="#000000" stroke="#000000" stroke-width="3.0" stroke-linecap="butt" d="m387.7966 333.0628l13.614288 -4.9552l-13.614288 -4.9552z" fill-rule="evenodd"></path><path fill="#cfe2f3" d="m405.7861 157.88715l0 0c0 -43.60006 36.867737 -78.944885 82.346436 -78.944885l0 0c21.83966 0 42.78476 8.317383 58.227753 23.122414c15.442932 14.805038 24.118713 34.884987 24.118713 55.82247l0 0c0 43.60005 -36.867737 78.94487 -82.346466 78.94487l0 0c-45.4787 0 -82.346436 -35.34482 -82.346436 -78.94487z" fill-rule="nonzero"></path><path stroke="#000000" stroke-width="1.0" stroke-linejoin="round" stroke-linecap="butt" d="m405.7861 157.88715l0 0c0 -43.60006 36.867737 -78.944885 82.346436 -78.944885l0 0c21.83966 0 42.78476 8.317383 58.227753 23.122414c15.442932 14.805038 24.118713 34.884987 24.118713 55.82247l0 0c0 43.60005 -36.867737 78.94487 -82.346466 78.94487l0 0c-45.4787 0 -82.346436 -35.34482 -82.346436 -78.94487z" fill-rule="nonzero"></path><path fill="#000000" d="m474.15598 139.44772q1.59375 2.71875 2.203125 5.09375q0.609375 2.359375 1.21875 9.296875l2.0625 23.0625q2.8125 -3.375 8.15625 -10.6875q2.578125 -3.5625 6.375 -9.703125q2.296875 -3.75 2.8125 -5.25q0.28125 -0.75 0.28125 -1.546875q0 -0.515625 -0.328125 -0.84375q-0.328125 -0.328125 -1.71875 -0.765625q-1.375 -0.453125 -2.296875 -1.640625q-0.90625 -1.203125 -0.90625 -2.75q0 -1.921875 1.125 -3.09375q1.125 -1.171875 2.8125 -1.171875q2.0625 0 3.515625 1.71875q1.453125 1.703125 1.453125 4.703125q0 3.703125 -2.53125 8.46875q-2.53125 4.75 -9.75 14.59375q-7.21875 9.84375 -17.484375 21.46875q-7.078125 8.015625 -10.5 10.09375q-3.421875 2.09375 -5.859375 2.09375q-1.453125 0 -2.546875 -1.109375q-1.109375 -1.09375 -1.109375 -2.546875q0 -1.828125 1.53125 -3.328125q1.515625 -1.5 3.296875 -1.5q0.9375 0 1.546875 0.421875q0.375 0.234375 0.828125 1.328125q0.4375 1.109375 0.8125 1.484375q0.234375 0.234375 0.5625 0.234375q0.28125 0 0.984375 -0.46875q2.578125 -1.59375 6.0 -5.0625q4.5 -4.59375 6.65625 -7.5l-2.625 -29.71875q-0.65625 -7.359375 -1.96875 -8.953125q-1.3125 -1.59375 -4.40625 -1.59375q-0.984375 0 -3.515625 0.28125l-0.421875 -1.734375l13.734375 -3.375z" fill-rule="nonzero"></path><path fill="#000000" d="m505.18723 162.76022l5.15625 -2.515625l0.515625 0l0 17.890625q0 1.78125 0.140625 2.21875q0.15625 0.4375 0.625 0.671875q0.46878052 0.234375 1.9062805 0.265625l0 0.578125l-7.9687805 0l0 -0.578125q1.5 -0.03125 1.9375 -0.25q0.4375 -0.234375 0.609375 -0.609375q0.171875 -0.390625 0.171875 -2.296875l0 -11.4375q0 -2.3125 -0.15625 -2.96875q-0.109375 -0.5 -0.40625 -0.734375q-0.28125 -0.234375 -0.6875 -0.234375q-0.578125 0 -1.609375 0.484375l-0.234375 -0.484375z" fill-rule="nonzero"></path><path fill="#000000" fill-opacity="0.0" d="m180.97769 157.88715l224.81891 0" fill-rule="nonzero"></path><path stroke="#000000" stroke-width="3.0" stroke-linejoin="round" stroke-linecap="butt" d="m180.97769 157.88715l206.81891 0" fill-rule="evenodd"></path><path fill="#000000" stroke="#000000" stroke-width="3.0" stroke-linecap="butt" d="m387.7966 162.84233l13.614288 -4.955185l-13.614288 -4.9552z" fill-rule="evenodd"></path><path fill="#cfe2f3" d="m16.284777 498.3281l0 0c0 -43.600067 36.867767 -78.944885 82.34646 -78.944885l0 0c21.839638 0 42.784782 8.317383 58.227745 23.122406c15.442947 14.805054 24.118713 34.88498 24.118713 55.82248l0 0c0 43.600067 -36.867767 78.944855 -82.34646 78.944855l0 0c-45.47869 0 -82.34646 -35.344788 -82.34646 -78.944855z" fill-rule="nonzero"></path><path stroke="#000000" stroke-width="1.0" stroke-linejoin="round" stroke-linecap="butt" d="m16.284777 498.3281l0 0c0 -43.600067 36.867767 -78.944885 82.34646 -78.944885l0 0c21.839638 0 42.784782 8.317383 58.227745 23.122406c15.442947 14.805054 24.118713 34.88498 24.118713 55.82248l0 0c0 43.600067 -36.867767 78.944855 -82.34646 78.944855l0 0c-45.47869 0 -82.34646 -35.344788 -82.34646 -78.944855z" fill-rule="nonzero"></path><path fill="#000000" d="m111.67811 479.5662l-9.140625 31.78125l-1.03125 4.2656555q-0.140625 0.609375 -0.140625 1.03125q0 0.75 0.46875 1.3125q0.375 0.421875 0.9375 0.421875q0.609375 0 1.59375 -0.75q1.828125 -1.359375 4.875 -5.625l1.59375 1.125q-3.234375 4.875 -6.65625 7.4375q-3.421875 2.546875 -6.328125 2.546875q-2.015625 0 -3.03125 -1.015625q-1.0 -1.0 -1.0 -2.921875q0 -2.296875 1.03125 -6.046875l0.984375 -3.5156555q-6.140625 8.0156555 -11.296875 11.2031555q-3.703125 2.296875 -7.265625 2.296875q-3.421875 0 -5.90625 -2.828125q-2.484375 -2.84375 -2.484375 -7.8125q0 -7.4531555 4.46875 -15.7187805q4.484375 -8.28125 11.375 -13.25q5.390625 -3.9375 10.171875 -3.9375q2.859375 0 4.75 1.5q1.90625 1.5 2.890625 4.96875l1.6875 -5.34375l7.453125 -1.125zm-16.6875 2.4375q-3.0 0 -6.375 2.8125q-4.78125 3.984375 -8.515625 11.8125q-3.71875 7.828125 -3.71875 14.15625q0 3.1875305 1.59375 5.0469055q1.59375 1.84375 3.65625 1.84375q5.109375 0 11.109375 -7.5469055q8.015625 -10.03125 8.015625 -20.578125q0 -3.984375 -1.546875 -5.765625q-1.546875 -1.78125 -4.21875 -1.78125z" fill-rule="nonzero"></path><path fill="#000000" d="m116.25623 504.83182q0.90625 -2.140625 2.28125 -3.296875q1.390625 -1.171875 3.453125 -1.171875q2.546875 0 3.90625 1.65625q1.03125 1.234375 1.03125 2.640625q0 2.3125 -2.90625 4.78125q1.953125 0.765625 2.953125 2.1875q1.0 1.4219055 1.0 3.3437805q0 2.75 -1.75 4.765625q-2.28125 2.625 -6.609375 2.625q-2.140625 0 -2.921875 -0.53125q-0.765625 -0.53125 -0.765625 -1.140625q0 -0.453125 0.359375 -0.796875q0.375 -0.34375 0.890625 -0.34375q0.390625 0 0.796875 0.125q0.265625 0.078125 1.203125 0.578125q0.9375 0.484375 1.296875 0.578125q0.578125 0.171875 1.234375 0.171875q1.59375 0 2.765625 -1.234375q1.1875 -1.234375 1.1875 -2.921875q0 -1.234375 -0.546875 -2.40625q-0.40625 -0.875 -0.890625 -1.328125q-0.671875 -0.625 -1.84375 -1.1250305q-1.171875 -0.515625 -2.390625 -0.515625l-0.5 0l0 -0.46875q1.234375 -0.15625 2.46875 -0.890625q1.25 -0.734375 1.8125 -1.765625q0.5625 -1.03125 0.5625 -2.265625q0 -1.609375 -1.015625 -2.59375q-1.0 -1.0 -2.5 -1.0q-2.421875 0 -4.046875 2.59375l-0.515625 -0.25z" fill-rule="nonzero"></path><path fill="#cfe2f3" d="m602.4711 157.88715l0 0c0 -43.60006 36.867737 -78.944885 82.346436 -78.944885l0 0c21.83966 0 42.78479 8.317383 58.227783 23.122414c15.442932 14.805038 24.118713 34.884987 24.118713 55.82247l0 0c0 43.60005 -36.867798 78.94487 -82.3465 78.94487l0 0c-45.4787 0 -82.346436 -35.34482 -82.346436 -78.94487z" fill-rule="nonzero"></path><path stroke="#000000" stroke-width="1.0" stroke-linejoin="round" stroke-linecap="butt" d="m602.4711 157.88715l0 0c0 -43.60006 36.867737 -78.944885 82.346436 -78.944885l0 0c21.83966 0 42.78479 8.317383 58.227783 23.122414c15.442932 14.805038 24.118713 34.884987 24.118713 55.82247l0 0c0 43.60005 -36.867798 78.94487 -82.3465 78.94487l0 0c-45.4787 0 -82.346436 -35.34482 -82.346436 -78.94487z" fill-rule="nonzero"></path><path fill="#000000" d="m697.86444 139.44772l-9.140625 31.78125l-1.03125 4.265625q-0.140625 0.609375 -0.140625 1.03125q0 0.75 0.46875 1.3125q0.375 0.421875 0.9375 0.421875q0.609375 0 1.59375 -0.75q1.828125 -1.359375 4.875 -5.625l1.59375 1.125q-3.234375 4.875 -6.65625 7.4375q-3.421875 2.546875 -6.328125 2.546875q-2.015625 0 -3.03125 -1.015625q-1.0 -1.0 -1.0 -2.921875q0 -2.296875 1.03125 -6.046875l0.984375 -3.515625q-6.140625 8.015625 -11.296875 11.203125q-3.703125 2.296875 -7.265625 2.296875q-3.421875 0 -5.90625 -2.828125q-2.484375 -2.84375 -2.484375 -7.8125q0 -7.453125 4.46875 -15.71875q4.484375 -8.28125 11.375 -13.25q5.390625 -3.9375 10.171875 -3.9375q2.859375 0 4.75 1.5q1.90625 1.5 2.890625 4.96875l1.6875 -5.34375l7.453125 -1.125zm-16.6875 2.4375q-3.0 0 -6.375 2.8125q-4.78125 3.984375 -8.515625 11.8125q-3.71875 7.828125 -3.71875 14.15625q0 3.1875 1.59375 5.046875q1.59375 1.84375 3.65625 1.84375q5.109375 0 11.109375 -7.546875q8.015625 -10.03125 8.015625 -20.578125q0 -3.984375 -1.546875 -5.765625q-1.546875 -1.78125 -4.21875 -1.78125z" fill-rule="nonzero"></path><path fill="#000000" d="m704.56757 162.76022l5.15625 -2.515625l0.515625 0l0 17.890625q0 1.78125 0.140625 2.21875q0.15625 0.4375 0.625 0.671875q0.46875 0.234375 1.90625 0.265625l0 0.578125l-7.96875 0l0 -0.578125q1.5 -0.03125 1.9375 -0.25q0.4375 -0.234375 0.609375 -0.609375q0.171875 -0.390625 0.171875 -2.296875l0 -11.4375q0 -2.3125 -0.15625 -2.96875q-0.109375 -0.5 -0.40625 -0.734375q-0.28125 -0.234375 -0.6875 -0.234375q-0.578125 0 -1.609375 0.484375l-0.234375 -0.484375z" fill-rule="nonzero"></path><path fill="#cfe2f3" d="m602.4711 328.1076l0 0c0 -43.600037 36.867737 -78.94487 82.346436 -78.94487l0 0c21.83966 0 42.78479 8.317368 58.227783 23.122421c15.442932 14.805023 24.118713 34.88498 24.118713 55.82245l0 0c0 43.600067 -36.867798 78.944885 -82.3465 78.944885l0 0c-45.4787 0 -82.346436 -35.34482 -82.346436 -78.944885z" fill-rule="nonzero"></path><path stroke="#000000" stroke-width="1.0" stroke-linejoin="round" stroke-linecap="butt" d="m602.4711 328.1076l0 0c0 -43.600037 36.867737 -78.94487 82.346436 -78.94487l0 0c21.83966 0 42.78479 8.317368 58.227783 23.122421c15.442932 14.805023 24.118713 34.88498 24.118713 55.82245l0 0c0 43.600067 -36.867798 78.944885 -82.3465 78.944885l0 0c-45.4787 0 -82.346436 -35.34482 -82.346436 -78.944885z" fill-rule="nonzero"></path><path fill="#000000" d="m697.86444 309.34573l-9.140625 31.78125l-1.03125 4.265625q-0.140625 0.609375 -0.140625 1.03125q0 0.75 0.46875 1.3125q0.375 0.421875 0.9375 0.421875q0.609375 0 1.59375 -0.75q1.828125 -1.359375 4.875 -5.625l1.59375 1.125q-3.234375 4.875 -6.65625 7.4375q-3.421875 2.546875 -6.328125 2.546875q-2.015625 0 -3.03125 -1.015625q-1.0 -1.0 -1.0 -2.921875q0 -2.296875 1.03125 -6.046875l0.984375 -3.515625q-6.140625 8.015625 -11.296875 11.203125q-3.703125 2.296875 -7.265625 2.296875q-3.421875 0 -5.90625 -2.828125q-2.484375 -2.84375 -2.484375 -7.8125q0 -7.453125 4.46875 -15.71875q4.484375 -8.28125 11.375 -13.25q5.390625 -3.9375 10.171875 -3.9375q2.859375 0 4.75 1.5q1.90625 1.5 2.890625 4.96875l1.6875 -5.34375l7.453125 -1.125zm-16.6875 2.4375q-3.0 0 -6.375 2.8125q-4.78125 3.984375 -8.515625 11.8125q-3.71875 7.828125 -3.71875 14.15625q0 3.1875 1.59375 5.046875q1.59375 1.84375 3.65625 1.84375q5.109375 0 11.109375 -7.546875q8.015625 -10.03125 8.015625 -20.578125q0 -3.984375 -1.546875 -5.765625q-1.546875 -1.78125 -4.21875 -1.78125z" fill-rule="nonzero"></path><path fill="#000000" d="m715.48944 347.68948l-1.484375 4.078125l-12.5 0l0 -0.578125q5.515625 -5.03125 7.765625 -8.21875q2.25 -3.1875 2.25 -5.828125q0 -2.015625 -1.234375 -3.3125q-1.234375 -1.296875 -2.953125 -1.296875q-1.5625 0 -2.8125 0.921875q-1.234375 0.90625 -1.828125 2.671875l-0.578125 0q0.390625 -2.890625 2.0 -4.4375q1.625 -1.546875 4.046875 -1.546875q2.578125 0 4.296875 1.65625q1.734375 1.65625 1.734375 3.90625q0 1.609375 -0.75 3.21875q-1.15625 2.53125 -3.75 5.359375q-3.890625 4.25 -4.859375 5.125l5.53125 0q1.6875 0 2.359375 -0.125q0.6875 -0.125 1.234375 -0.5q0.546875 -0.390625 0.953125 -1.09375l0.578125 0z" fill-rule="nonzero"></path><path fill="#cfe2f3" d="m991.9724 328.1076l0 0c0 -43.600037 36.867798 -78.94487 82.346436 -78.94487l0 0c21.839722 0 42.78479 8.317368 58.227783 23.122421c15.442993 14.805023 24.118774 34.88498 24.118774 55.82245l0 0c0 43.600067 -36.867798 78.944885 -82.34656 78.944885l0 0c-45.478638 0 -82.346436 -35.34482 -82.346436 -78.944885z" fill-rule="nonzero"></path><path stroke="#000000" stroke-width="1.0" stroke-linejoin="round" stroke-linecap="butt" d="m991.9724 328.1076l0 0c0 -43.600037 36.867798 -78.94487 82.346436 -78.94487l0 0c21.839722 0 42.78479 8.317368 58.227783 23.122421c15.442993 14.805023 24.118774 34.88498 24.118774 55.82245l0 0c0 43.600067 -36.867798 78.944885 -82.34656 78.944885l0 0c-45.478638 0 -82.346436 -35.34482 -82.346436 -78.944885z" fill-rule="nonzero"></path><path fill="#000000" d="m1060.3423 309.66818q1.59375 2.71875 2.203125 5.09375q0.609375 2.359375 1.21875 9.296875l2.0625 23.0625q2.8125 -3.375 8.15625 -10.6875q2.578125 -3.5625 6.375 -9.703125q2.296875 -3.75 2.8125 -5.25q0.28125 -0.75 0.28125 -1.546875q0 -0.515625 -0.328125 -0.84375q-0.328125 -0.328125 -1.71875 -0.765625q-1.375 -0.453125 -2.296875 -1.640625q-0.90625 -1.203125 -0.90625 -2.75q0 -1.921875 1.125 -3.09375q1.125 -1.171875 2.8125 -1.171875q2.0625 0 3.515625 1.71875q1.453125 1.703125 1.453125 4.703125q0 3.703125 -2.53125 8.46875q-2.53125 4.75 -9.75 14.59375q-7.21875 9.84375 -17.484375 21.46875q-7.078125 8.015625 -10.5 10.09375q-3.421875 2.09375 -5.859375 2.09375q-1.453125 0 -2.546875 -1.109375q-1.109375 -1.09375 -1.109375 -2.546875q0 -1.828125 1.53125 -3.328125q1.515625 -1.5 3.296875 -1.5q0.9375 0 1.546875 0.421875q0.375 0.234375 0.828125 1.328125q0.4375 1.109375 0.8125 1.484375q0.234375 0.234375 0.5625 0.234375q0.28125 0 0.984375 -0.46875q2.578125 -1.59375 6.0 -5.0625q4.5 -4.59375 6.65625 -7.5l-2.625 -29.71875q-0.65625 -7.359375 -1.96875 -8.953125q-1.3125 -1.59375 -4.40625 -1.59375q-0.984375 0 -3.515625 0.28125l-0.421875 -1.734375l13.734375 -3.375z" fill-rule="nonzero"></path><path fill="#000000" d="m1102.2954 348.01193l-1.484375 4.078125l-12.5 0l0 -0.578125q5.515625 -5.03125 7.765625 -8.21875q2.25 -3.1875 2.25 -5.828125q0 -2.015625 -1.234375 -3.3125q-1.234375 -1.296875 -2.953125 -1.296875q-1.5625 0 -2.8125 0.921875q-1.234375 0.90625 -1.828125 2.671875l-0.578125 0q0.390625 -2.890625 2.0 -4.4375q1.625 -1.546875 4.046875 -1.546875q2.578125 0 4.296875 1.65625q1.734375 1.65625 1.734375 3.90625q0 1.609375 -0.75 3.21875q-1.15625 2.53125 -3.75 5.359375q-3.890625 4.25 -4.859375 5.125l5.53125 0q1.6875 0 2.359375 -0.125q0.6875 -0.125 1.234375 -0.5q0.546875 -0.390625 0.953125 -1.09375l0.578125 0z" fill-rule="nonzero"></path><path fill="#cfe2f3" d="m991.97375 498.3281l0 0c0 -43.600067 36.867798 -78.944885 82.346436 -78.944885l0 0c21.8396 0 42.78479 8.317383 58.227783 23.122406c15.442871 14.805054 24.118652 34.88498 24.118652 55.82248l0 0c0 43.600067 -36.867676 78.944855 -82.346436 78.944855l0 0c-45.478638 0 -82.346436 -35.344788 -82.346436 -78.944855z" fill-rule="nonzero"></path><path stroke="#000000" stroke-width="1.0" stroke-linejoin="round" stroke-linecap="butt" d="m991.97375 498.3281l0 0c0 -43.600067 36.867798 -78.944885 82.346436 -78.944885l0 0c21.8396 0 42.78479 8.317383 58.227783 23.122406c15.442871 14.805054 24.118652 34.88498 24.118652 55.82248l0 0c0 43.600067 -36.867676 78.944855 -82.346436 78.944855l0 0c-45.478638 0 -82.346436 -35.344788 -82.346436 -78.944855z" fill-rule="nonzero"></path><path fill="#000000" d="m1060.3436 479.88867q1.59375 2.71875 2.203125 5.09375q0.609375 2.359375 1.21875 9.296875l2.0625 23.0625q2.8125 -3.375 8.15625 -10.6875q2.578125 -3.5625 6.375 -9.703125q2.296875 -3.75 2.8125 -5.25q0.28125 -0.75 0.28125 -1.546875q0 -0.515625 -0.328125 -0.84375q-0.328125 -0.328125 -1.71875 -0.765625q-1.375 -0.453125 -2.296875 -1.640625q-0.90625 -1.203125 -0.90625 -2.75q0 -1.921875 1.125 -3.09375q1.125 -1.171875 2.8125 -1.171875q2.0625 0 3.515625 1.71875q1.453125 1.703125 1.453125 4.703125q0 3.703125 -2.53125 8.46875q-2.53125 4.75 -9.75 14.59375q-7.21875 9.84375 -17.484375 21.46875q-7.078125 8.015625 -10.5 10.09375q-3.421875 2.09375 -5.859375 2.09375q-1.453125 0 -2.546875 -1.109375q-1.109375 -1.09375 -1.109375 -2.546875q0 -1.828125 1.53125 -3.328125q1.515625 -1.5 3.296875 -1.5q0.9375 0 1.546875 0.421875q0.375 0.234375 0.828125 1.328125q0.4375 1.109375 0.8125 1.484375q0.234375 0.234375 0.5625 0.234375q0.28125 0 0.984375 -0.46875q2.578125 -1.59375 6.0 -5.0625q4.5 -4.59375 6.65625 -7.5l-2.625 -29.71875q-0.65625 -7.359375 -1.96875 -8.953125q-1.3125 -1.59375 -4.40625 -1.59375q-0.984375 0 -3.515625 0.28125l-0.421875 -1.734375l13.734375 -3.375z" fill-rule="nonzero"></path><path fill="#000000" d="m1089.2499 505.1543q0.90625 -2.140625 2.28125 -3.296875q1.390625 -1.171875 3.453125 -1.171875q2.546875 0 3.90625 1.65625q1.03125 1.234375 1.03125 2.640625q0 2.3125 -2.90625 4.78125q1.953125 0.765625 2.953125 2.1875q1.0 1.421875 1.0 3.34375q0 2.75 -1.75 4.765625q-2.28125 2.625 -6.609375 2.625q-2.140625 0 -2.921875 -0.53125q-0.765625 -0.53125 -0.765625 -1.140625q0 -0.453125 0.359375 -0.796875q0.375 -0.34375 0.890625 -0.34375q0.390625 0 0.796875 0.125q0.265625 0.078125 1.203125 0.578125q0.9375 0.484375 1.296875 0.578125q0.578125 0.171875 1.234375 0.171875q1.59375 0 2.765625 -1.234375q1.1875 -1.234375 1.1875 -2.921875q0 -1.234375 -0.546875 -2.40625q-0.40625 -0.875 -0.890625 -1.328125q-0.671875 -0.625 -1.84375 -1.125q-1.171875 -0.515625 -2.390625 -0.515625l-0.5 0l0 -0.46875q1.234375 -0.15625 2.46875 -0.890625q1.25 -0.734375 1.8125 -1.765625q0.5625 -1.03125 0.5625 -2.265625q0 -1.609375 -1.015625 -2.59375q-1.0 -1.0 -2.5 -1.0q-2.421875 0 -4.046875 2.59375l-0.515625 -0.25z" fill-rule="nonzero"></path><path fill="#000000" fill-opacity="0.0" d="m767.16406 157.88715l224.81885 170.2362" fill-rule="nonzero"></path><path stroke="#000000" stroke-width="3.0" stroke-linejoin="round" stroke-linecap="butt" d="m767.16406 157.88715l210.46875 159.37009" fill-rule="evenodd"></path><path fill="#000000" stroke="#000000" stroke-width="3.0" stroke-linecap="butt" d="m974.6415 321.20764l13.845032 4.2681885l-7.8623657 -12.169067z" fill-rule="evenodd"></path><path fill="#000000" fill-opacity="0.0" d="m767.16406 328.1076l224.81885 170.23624" fill-rule="nonzero"></path><path stroke="#000000" stroke-width="3.0" stroke-linejoin="round" stroke-linecap="butt" d="m767.16406 328.1076l210.46875 159.37009" fill-rule="evenodd"></path><path fill="#000000" stroke="#000000" stroke-width="3.0" stroke-linecap="butt" d="m974.6415 491.42813l13.845032 4.268158l-7.8623657 -12.169037z" fill-rule="evenodd"></path><path fill="#000000" fill-opacity="0.0" d="m767.16406 328.1076l224.81885 0" fill-rule="nonzero"></path><path stroke="#000000" stroke-width="3.0" stroke-linejoin="round" stroke-linecap="butt" d="m767.16406 328.1076l206.81885 0" fill-rule="evenodd"></path><path fill="#000000" stroke="#000000" stroke-width="3.0" stroke-linecap="butt" d="m973.9829 333.0628l13.614319 -4.9552l-13.614319 -4.9552z" fill-rule="evenodd"></path><path fill="#000000" fill-opacity="0.0" d="m767.16406 157.88715l224.81885 340.44095" fill-rule="nonzero"></path><path stroke="#000000" stroke-width="3.0" stroke-linejoin="round" stroke-linecap="butt" d="m767.16406 157.88715l214.89978 325.42056" fill-rule="evenodd"></path><path fill="#000000" stroke="#000000" stroke-width="3.0" stroke-linecap="butt" d="m977.9289 486.03833l11.637268 8.630035l-3.3673706 -14.091278z" fill-rule="evenodd"></path><path fill="#cfe2f3" d="m991.9724 157.88715l0 0c0 -43.60006 36.867798 -78.944885 82.346436 -78.944885l0 0c21.839722 0 42.78479 8.317383 58.227783 23.122414c15.442993 14.805038 24.118774 34.884987 24.118774 55.82247l0 0c0 43.60005 -36.867798 78.94487 -82.34656 78.94487l0 0c-45.478638 0 -82.346436 -35.34482 -82.346436 -78.94487z" fill-rule="nonzero"></path><path stroke="#000000" stroke-width="1.0" stroke-linejoin="round" stroke-linecap="butt" d="m991.9724 157.88715l0 0c0 -43.60006 36.867798 -78.944885 82.346436 -78.944885l0 0c21.839722 0 42.78479 8.317383 58.227783 23.122414c15.442993 14.805038 24.118774 34.884987 24.118774 55.82247l0 0c0 43.60005 -36.867798 78.94487 -82.34656 78.94487l0 0c-45.478638 0 -82.346436 -35.34482 -82.346436 -78.94487z" fill-rule="nonzero"></path><path fill="#000000" d="m1060.3423 139.44772q1.59375 2.71875 2.203125 5.09375q0.609375 2.359375 1.21875 9.296875l2.0625 23.0625q2.8125 -3.375 8.15625 -10.6875q2.578125 -3.5625 6.375 -9.703125q2.296875 -3.75 2.8125 -5.25q0.28125 -0.75 0.28125 -1.546875q0 -0.515625 -0.328125 -0.84375q-0.328125 -0.328125 -1.71875 -0.765625q-1.375 -0.453125 -2.296875 -1.640625q-0.90625 -1.203125 -0.90625 -2.75q0 -1.921875 1.125 -3.09375q1.125 -1.171875 2.8125 -1.171875q2.0625 0 3.515625 1.71875q1.453125 1.703125 1.453125 4.703125q0 3.703125 -2.53125 8.46875q-2.53125 4.75 -9.75 14.59375q-7.21875 9.84375 -17.484375 21.46875q-7.078125 8.015625 -10.5 10.09375q-3.421875 2.09375 -5.859375 2.09375q-1.453125 0 -2.546875 -1.109375q-1.109375 -1.09375 -1.109375 -2.546875q0 -1.828125 1.53125 -3.328125q1.515625 -1.5 3.296875 -1.5q0.9375 0 1.546875 0.421875q0.375 0.234375 0.828125 1.328125q0.4375 1.109375 0.8125 1.484375q0.234375 0.234375 0.5625 0.234375q0.28125 0 0.984375 -0.46875q2.578125 -1.59375 6.0 -5.0625q4.5 -4.59375 6.65625 -7.5l-2.625 -29.71875q-0.65625 -7.359375 -1.96875 -8.953125q-1.3125 -1.59375 -4.40625 -1.59375q-0.984375 0 -3.515625 0.28125l-0.421875 -1.734375l13.734375 -3.375z" fill-rule="nonzero"></path><path fill="#000000" d="m1091.3735 162.76022l5.15625 -2.515625l0.515625 0l0 17.890625q0 1.78125 0.140625 2.21875q0.15625 0.4375 0.625 0.671875q0.46875 0.234375 1.90625 0.265625l0 0.578125l-7.96875 0l0 -0.578125q1.5 -0.03125 1.9375 -0.25q0.4375 -0.234375 0.609375 -0.609375q0.171875 -0.390625 0.171875 -2.296875l0 -11.4375q0 -2.3125 -0.15625 -2.96875q-0.109375 -0.5 -0.40625 -0.734375q-0.28125 -0.234375 -0.6875 -0.234375q-0.578125 0 -1.609375 0.484375l-0.234375 -0.484375z" fill-rule="nonzero"></path><path fill="#000000" fill-opacity="0.0" d="m767.16406 157.88715l224.81885 0" fill-rule="nonzero"></path><path stroke="#000000" stroke-width="3.0" stroke-linejoin="round" stroke-linecap="butt" d="m767.16406 157.88715l206.81885 0" fill-rule="evenodd"></path><path fill="#000000" stroke="#000000" stroke-width="3.0" stroke-linecap="butt" d="m973.9829 162.84233l13.614319 -4.955185l-13.614319 -4.9552z" fill-rule="evenodd"></path><path fill="#000000" fill-opacity="0.0" d="m767.16406 328.1076l224.81885 -170.20471" fill-rule="nonzero"></path><path stroke="#000000" stroke-width="3.0" stroke-linejoin="round" stroke-linecap="butt" d="m767.16406 328.1076l210.46777 -159.33984" fill-rule="evenodd"></path><path fill="#000000" stroke="#000000" stroke-width="3.0" stroke-linecap="butt" d="m980.6228 172.71846l7.8634644 -12.16835l-13.845398 4.2669525z" fill-rule="evenodd"></path><path fill="#cfe2f3" d="m602.4711 498.3281l0 0c0 -43.600067 36.867737 -78.944885 82.346436 -78.944885l0 0c21.83966 0 42.78479 8.317383 58.227783 23.122406c15.442932 14.805054 24.118713 34.88498 24.118713 55.82248l0 0c0 43.600067 -36.867798 78.944855 -82.3465 78.944855l0 0c-45.4787 0 -82.346436 -35.344788 -82.346436 -78.944855z" fill-rule="nonzero"></path><path stroke="#000000" stroke-width="1.0" stroke-linejoin="round" stroke-linecap="butt" d="m602.4711 498.3281l0 0c0 -43.600067 36.867737 -78.944885 82.346436 -78.944885l0 0c21.83966 0 42.78479 8.317383 58.227783 23.122406c15.442932 14.805054 24.118713 34.88498 24.118713 55.82248l0 0c0 43.600067 -36.867798 78.944855 -82.3465 78.944855l0 0c-45.4787 0 -82.346436 -35.344788 -82.346436 -78.944855z" fill-rule="nonzero"></path><path fill="#000000" d="m697.86444 479.5662l-9.140625 31.78125l-1.03125 4.2656555q-0.140625 0.609375 -0.140625 1.03125q0 0.75 0.46875 1.3125q0.375 0.421875 0.9375 0.421875q0.609375 0 1.59375 -0.75q1.828125 -1.359375 4.875 -5.625l1.59375 1.125q-3.234375 4.875 -6.65625 7.4375q-3.421875 2.546875 -6.328125 2.546875q-2.015625 0 -3.03125 -1.015625q-1.0 -1.0 -1.0 -2.921875q0 -2.296875 1.03125 -6.046875l0.984375 -3.5156555q-6.140625 8.0156555 -11.296875 11.2031555q-3.703125 2.296875 -7.265625 2.296875q-3.421875 0 -5.90625 -2.828125q-2.484375 -2.84375 -2.484375 -7.8125q0 -7.4531555 4.46875 -15.7187805q4.484375 -8.28125 11.375 -13.25q5.390625 -3.9375 10.171875 -3.9375q2.859375 0 4.75 1.5q1.90625 1.5 2.890625 4.96875l1.6875 -5.34375l7.453125 -1.125zm-16.6875 2.4375q-3.0 0 -6.375 2.8125q-4.78125 3.984375 -8.515625 11.8125q-3.71875 7.828125 -3.71875 14.15625q0 3.1875305 1.59375 5.0469055q1.59375 1.84375 3.65625 1.84375q5.109375 0 11.109375 -7.5469055q8.015625 -10.03125 8.015625 -20.578125q0 -3.984375 -1.546875 -5.765625q-1.546875 -1.78125 -4.21875 -1.78125z" fill-rule="nonzero"></path><path fill="#000000" d="m702.44257 504.83182q0.90625 -2.140625 2.28125 -3.296875q1.390625 -1.171875 3.453125 -1.171875q2.546875 0 3.90625 1.65625q1.03125 1.234375 1.03125 2.640625q0 2.3125 -2.90625 4.78125q1.953125 0.765625 2.953125 2.1875q1.0 1.4219055 1.0 3.3437805q0 2.75 -1.75 4.765625q-2.28125 2.625 -6.609375 2.625q-2.140625 0 -2.921875 -0.53125q-0.765625 -0.53125 -0.765625 -1.140625q0 -0.453125 0.359375 -0.796875q0.375 -0.34375 0.890625 -0.34375q0.390625 0 0.796875 0.125q0.265625 0.078125 1.203125 0.578125q0.9375 0.484375 1.296875 0.578125q0.578125 0.171875 1.234375 0.171875q1.59375 0 2.765625 -1.234375q1.1875 -1.234375 1.1875 -2.921875q0 -1.234375 -0.546875 -2.40625q-0.40625 -0.875 -0.890625 -1.328125q-0.671875 -0.625 -1.84375 -1.1250305q-1.171875 -0.515625 -2.390625 -0.515625l-0.5 0l0 -0.46875q1.234375 -0.15625 2.46875 -0.890625q1.25 -0.734375 1.8125 -1.765625q0.5625 -1.03125 0.5625 -2.265625q0 -1.609375 -1.015625 -2.59375q-1.0 -1.0 -2.5 -1.0q-2.421875 0 -4.046875 2.59375l-0.515625 -0.25z" fill-rule="nonzero"></path><path fill="#000000" fill-opacity="0.0" d="m180.97769 498.3281l224.81891 0" fill-rule="nonzero"></path><path stroke="#000000" stroke-width="3.0" stroke-linejoin="round" stroke-linecap="butt" d="m180.97769 498.3281l206.81891 0" fill-rule="evenodd"></path><path fill="#000000" stroke="#000000" stroke-width="3.0" stroke-linecap="butt" d="m387.7966 503.2833l13.614288 -4.9552l-13.614288 -4.9552z" fill-rule="evenodd"></path><path fill="#000000" fill-opacity="0.0" d="m767.16406 498.3281l224.81885 -340.44095" fill-rule="nonzero"></path><path stroke="#000000" stroke-width="3.0" stroke-linejoin="round" stroke-linecap="butt" d="m767.16406 498.3281l214.89978 -325.4206" fill-rule="evenodd"></path><path fill="#000000" stroke="#000000" stroke-width="3.0" stroke-linecap="butt" d="m986.1988 175.63812l3.3673706 -14.091263l-11.637268 8.630035z" fill-rule="evenodd"></path><path fill="#000000" fill-opacity="0.0" d="m767.16406 498.3281l224.81885 -170.20474" fill-rule="nonzero"></path><path stroke="#000000" stroke-width="3.0" stroke-linejoin="round" stroke-linecap="butt" d="m767.16406 498.3281l210.46777 -159.33987" fill-rule="evenodd"></path><path fill="#000000" stroke="#000000" stroke-width="3.0" stroke-linecap="butt" d="m980.6228 342.93893l7.8634644 -12.168335l-13.845398 4.2669373z" fill-rule="evenodd"></path><path fill="#000000" fill-opacity="0.0" d="m767.16406 498.3281l224.81885 0" fill-rule="nonzero"></path><path stroke="#000000" stroke-width="3.0" stroke-linejoin="round" stroke-linecap="butt" d="m767.16406 498.3281l206.81885 0" fill-rule="evenodd"></path><path fill="#000000" stroke="#000000" stroke-width="3.0" stroke-linecap="butt" d="m973.9829 503.2833l13.614319 -4.9552l-13.614319 -4.9552z" fill-rule="evenodd"></path><path fill="#000000" fill-opacity="0.0" d="m262.15222 67.72441l59.08661 0l0 69.921265l-59.08661 0z" fill-rule="nonzero"></path><path fill="#000000" d="m287.7616 100.09254l0 2.28125l-6.09375 0q2.0 1.140625 3.265625 2.890625q1.265625 1.734375 1.265625 3.6875q0 2.546875 -2.015625 4.21875q-2.0 1.671875 -4.546875 1.671875q-3.015625 0 -5.203125 -2.359375q-2.1875 -2.375 -2.1875 -5.515625q0 -2.21875 1.140625 -3.921875q1.15625 -1.703125 2.671875 -2.328125q1.53125 -0.625 4.125 -0.625l7.578125 0zm-7.140625 2.28125l-0.546875 0q-2.34375 0 -3.75 1.171875q-1.390625 1.15625 -1.390625 3.640625q0 2.640625 1.46875 4.671875q1.46875 2.015625 3.4375 2.015625q1.578125 0 2.609375 -1.515625q1.03125 -1.53125 1.03125 -3.6875q0 -3.421875 -2.859375 -6.296875zm17.71875 18.296875l0 0.578125q-2.359375 -1.1875 -3.9375 -2.78125q-2.25 -2.265625 -3.46875 -5.34375q-1.21875 -3.078125 -1.21875 -6.390625q0 -4.84375 2.390625 -8.828125q2.390625 -4.0 6.234375 -5.71875l0 0.65625q-1.921875 1.0625 -3.15625 2.90625q-1.234375 1.84375 -1.84375 4.671875q-0.609375 2.828125 -0.609375 5.90625q0 3.34375 0.515625 6.078125q0.40625 2.15625 0.984375 3.453125q0.578125 1.3125 1.546875 2.515625q0.984375 1.203125 2.5625 2.296875zm1.4375 -27.828125l0 -0.65625q2.375 1.171875 3.953125 2.765625q2.234375 2.28125 3.453125 5.359375q1.21875 3.0625 1.21875 6.390625q0 4.84375 -2.390625 8.828125q-2.375 4.0 -6.234375 5.71875l0 -0.578125q1.921875 -1.078125 3.15625 -2.921875q1.25 -1.828125 1.84375 -4.65625q0.609375 -2.84375 0.609375 -5.921875q0 -3.328125 -0.515625 -6.078125q-0.390625 -2.15625 -0.984375 -3.453125q-0.578125 -1.296875 -1.546875 -2.5q-0.96875 -1.203125 -2.5625 -2.296875z" fill-rule="nonzero"></path><path fill="#000000" fill-opacity="0.0" d="m263.8399 236.83202l59.08661 0l0 69.92128l-59.08661 0z" fill-rule="nonzero"></path><path fill="#000000" d="m289.44928 269.20016l0 2.28125l-6.09375 0q2.0 1.140625 3.265625 2.890625q1.265625 1.734375 1.265625 3.6875q0 2.546875 -2.015625 4.21875q-2.0 1.671875 -4.546875 1.671875q-3.015625 0 -5.203125 -2.359375q-2.1875 -2.375 -2.1875 -5.515625q0 -2.21875 1.140625 -3.921875q1.15625 -1.703125 2.671875 -2.328125q1.53125 -0.625 4.125 -0.625l7.578125 0zm-7.140625 2.28125l-0.546875 0q-2.34375 0 -3.75 1.171875q-1.390625 1.15625 -1.390625 3.640625q0 2.640625 1.46875 4.671875q1.46875 2.015625 3.4375 2.015625q1.578125 0 2.609375 -1.515625q1.03125 -1.53125 1.03125 -3.6875q0 -3.421875 -2.859375 -6.296875zm17.71875 18.296875l0 0.578125q-2.359375 -1.1875 -3.9375 -2.78125q-2.25 -2.265625 -3.46875 -5.34375q-1.21875 -3.078125 -1.21875 -6.390625q0 -4.84375 2.390625 -8.828125q2.390625 -4.0 6.234375 -5.71875l0 0.65625q-1.921875 1.0625 -3.15625 2.90625q-1.234375 1.84375 -1.84375 4.671875q-0.609375 2.828125 -0.609375 5.90625q0 3.34375 0.515625 6.078125q0.40625 2.15625 0.984375 3.453125q0.578125 1.3125 1.546875 2.515625q0.984375 1.203125 2.5625 2.296875zm1.4375 -27.828125l0 -0.65625q2.375 1.171875 3.953125 2.765625q2.234375 2.28125 3.453125 5.359375q1.21875 3.0625 1.21875 6.390625q0 4.84375 -2.390625 8.828125q-2.375 4.0 -6.234375 5.71875l0 -0.578125q1.921875 -1.078125 3.15625 -2.921875q1.25 -1.828125 1.84375 -4.65625q0.609375 -2.84375 0.609375 -5.921875q0 -3.328125 -0.515625 -6.078125q-0.390625 -2.15625 -0.984375 -3.453125q-0.578125 -1.296875 -1.546875 -2.5q-0.96875 -1.203125 -2.5625 -2.296875z" fill-rule="nonzero"></path><path fill="#000000" fill-opacity="0.0" d="m263.8399 419.3832l59.08661 0l0 69.921265l-59.08661 0z" fill-rule="nonzero"></path><path fill="#000000" d="m289.44928 451.75134l0 2.28125l-6.09375 0q2.0 1.140625 3.265625 2.890625q1.265625 1.734375 1.265625 3.6875q0 2.546875 -2.015625 4.21875q-2.0 1.671875 -4.546875 1.671875q-3.015625 0 -5.203125 -2.359375q-2.1875 -2.375 -2.1875 -5.515625q0 -2.21875 1.140625 -3.921875q1.15625 -1.703125 2.671875 -2.328125q1.53125 -0.625 4.125 -0.625l7.578125 0zm-7.140625 2.28125l-0.546875 0q-2.34375 0 -3.75 1.171875q-1.390625 1.15625 -1.390625 3.640625q0 2.640625 1.46875 4.671875q1.46875 2.015625 3.4375 2.015625q1.578125 0 2.609375 -1.515625q1.03125 -1.53125 1.03125 -3.6875q0 -3.421875 -2.859375 -6.296875zm17.71875 18.296875l0 0.578125q-2.359375 -1.1875 -3.9375 -2.78125q-2.25 -2.265625 -3.46875 -5.34375q-1.21875 -3.078125 -1.21875 -6.390625q0 -4.84375 2.390625 -8.828125q2.390625 -4.0 6.234375 -5.71875l0 0.65625q-1.921875 1.0625 -3.15625 2.90625q-1.234375 1.84375 -1.84375 4.671875q-0.609375 2.828125 -0.609375 5.90625q0 3.34375 0.515625 6.078125q0.40625 2.15625 0.984375 3.453125q0.578125 1.3125 1.546875 2.515625q0.984375 1.203125 2.5625 2.296875zm1.4375 -27.828125l0 -0.65625q2.375 1.171875 3.953125 2.765625q2.234375 2.28125 3.453125 5.359375q1.21875 3.0625 1.21875 6.390625q0 4.84375 -2.390625 8.828125q-2.375 4.0 -6.234375 5.71875l0 -0.578125q1.921875 -1.078125 3.15625 -2.921875q1.25 -1.828125 1.84375 -4.65625q0.609375 -2.84375 0.609375 -5.921875q0 -3.328125 -0.515625 -6.078125q-0.390625 -2.15625 -0.984375 -3.453125q-0.578125 -1.296875 -1.546875 -2.5q-0.96875 -1.203125 -2.5625 -2.296875z" fill-rule="nonzero"></path><path fill="#000000" fill-opacity="0.0" d="m850.02625 73.480316l59.08661 0l0 69.921265l-59.08661 0z" fill-rule="nonzero"></path><path fill="#000000" d="m875.6356 105.84844l0 2.28125l-6.09375 0q2.0 1.140625 3.265625 2.890625q1.265625 1.734375 1.265625 3.6875q0 2.546875 -2.015625 4.21875q-2.0 1.671875 -4.546875 1.671875q-3.015625 0 -5.203125 -2.359375q-2.1875 -2.375 -2.1875 -5.515625q0 -2.21875 1.140625 -3.921875q1.15625 -1.703125 2.671875 -2.328125q1.53125 -0.625 4.125 -0.625l7.578125 0zm-7.140625 2.28125l-0.546875 0q-2.34375 0 -3.75 1.171875q-1.390625 1.15625 -1.390625 3.640625q0 2.640625 1.46875 4.671875q1.46875 2.015625 3.4375 2.015625q1.578125 0 2.609375 -1.515625q1.03125 -1.53125 1.03125 -3.6875q0 -3.421875 -2.859375 -6.296875zm17.71875 18.296875l0 0.578125q-2.359375 -1.1875 -3.9375 -2.78125q-2.25 -2.265625 -3.46875 -5.34375q-1.21875 -3.078125 -1.21875 -6.390625q0 -4.84375 2.390625 -8.828125q2.390625 -4.0 6.234375 -5.71875l0 0.65625q-1.921875 1.0625 -3.15625 2.90625q-1.234375 1.84375 -1.84375 4.671875q-0.609375 2.828125 -0.609375 5.90625q0 3.34375 0.515625 6.078125q0.40625 2.15625 0.984375 3.453125q0.578125 1.3125 1.546875 2.515625q0.984375 1.203125 2.5625 2.296875zm1.4375 -27.828125l0 -0.65625q2.375 1.171875 3.953125 2.765625q2.234375 2.28125 3.453125 5.359375q1.21875 3.0625 1.21875 6.390625q0 4.84375 -2.390625 8.828125q-2.375 4.0 -6.234375 5.71875l0 -0.578125q1.921875 -1.078125 3.15625 -2.921875q1.25 -1.828125 1.84375 -4.65625q0.609375 -2.84375 0.609375 -5.921875q0 -3.328125 -0.515625 -6.078125q-0.390625 -2.15625 -0.984375 -3.453125q-0.578125 -1.296875 -1.546875 -2.5q-0.96875 -1.203125 -2.5625 -2.296875z" fill-rule="nonzero"></path><path fill="#000000" fill-opacity="0.0" d="m199.87138 0l187.02364 0l0 69.92126l-187.02364 0z" fill-rule="nonzero"></path><path fill="#000000" d="m214.49638 23.181248q0.9375 0.15625 0 1.09375q0.3125 5.78125 -0.78125 11.25l-2.96875 -0.625q0.9375 -4.84375 0.78125 -11.875l2.96875 0.15625zm13.90625 18.90625l0 2.03125l-3.125 0l0 -20.3125l18.125 0l0 19.53125l-3.125 0l0 -1.25l-11.875 0zm0 -15.3125l0 4.6875l11.875 0l0 -4.6875l-11.875 0zm0 7.65625l0 4.6875l11.875 0l0 -4.6875l-11.875 0zm-5.15625 -17.34375l22.1875 0l0 2.96875l-22.1875 0l0 -2.96875zm-1.71875 29.0625l25.46875 0l0 2.96875l-25.46875 0l0 -2.96875zm-2.5 -30.9375q1.25 0.15625 0.15625 0.9375l0 7.03125l2.1875 -1.09375q1.40625 1.25 2.96875 5.46875l-2.8125 1.40625q-1.71875 -4.0625 -2.34375 -5.0l0 27.1875l-3.125 0l0 -35.9375l2.96875 0zm32.03125 8.59375q3.59375 -3.28125 5.6250153 -8.75l3.28125 0.9375q0.625 0.625 -0.46875 0.78125l-0.9375 2.03125l10.0 0l0 2.5l-5.46875 0l1.71875 2.96875l-3.4375 0.625l-1.5625 -3.59375l-2.34375 0q-1.5625153 2.5 -4.0625153 4.84375l-2.34375 -2.34375zm17.031265 -1.40625q2.1875 -3.28125 3.28125 -7.5l3.28125 0.625q0.625 0.625 -0.46875 0.78125l-0.9375 2.5l12.65625 0l0 2.5l-7.34375 0l2.03125 2.65625l-3.4375 0.9375l-2.03125 -3.59375l-2.8125 0q-0.625 1.40625 -1.5625 2.65625l-2.65625 -1.5625zm-3.28125 25.15625q-1.40625 -2.03125 -4.0625 -4.375l2.03125 -1.875l-8.906265 0l0 -2.96875l20.625015 0l0 -2.65625l-22.812515 0l0 -2.96875l15.625015 0l0 -3.125l-11.09375 0l0 -2.96875l11.09375 0l0 -2.5l2.96875 0q1.25 0.15625 0.15625 0.9375l0 1.5625l11.5625 0l0 2.96875l-11.5625 0l0 3.125l15.78125 0l0 2.96875l-8.59375 0l0 2.65625l6.71875 0l0 2.96875l-6.71875 0l0 6.875q0 2.5 -2.5 2.5l-3.75 0l-0.625 -2.96875l3.125 0q0.625 0 0.625 -0.625l0 -5.78125l-10.78125 0q2.34375 1.5625 3.90625 3.90625l-2.8125 2.34375zm42.5 -11.875l-8.125 0l0 -2.5l3.90625 0q-0.46875 -1.09375 -1.5625 -2.34375l2.8125 -0.9375q1.09375 1.25 2.03125 3.28125l4.84375 0l1.25 -3.4375l2.65625 0.78125q0.9375 0.625 -0.15625 1.09375l-0.78125 1.5625l4.53125 0l0 2.5l-8.75 0l0 3.28125l9.84375 0l0 2.5l-10.0 0l-0.15625 0.9375q4.21875 1.09375 8.90625 3.59375l-2.03125 2.96875q-4.53125 -2.8125 -7.5 -4.21875q-1.875 3.59375 -9.0625 5.78125l-1.40625 -3.125q7.96875 -1.875 8.4375 -5.9375l-8.75 0l0 -2.5l9.0625 0l0 -3.28125zm17.8125 12.5q0 2.5 -2.5 2.5l-2.65625 0l-0.3125 -2.96875l1.71875 0q0.625 0 0.625 -0.625l0 -17.8125l-5.46875 0l-5.46875 0l0 -13.28125l14.0625 0l0 32.1875zm-21.40625 -21.40625l0 -2.8125l-7.96875 0l0 2.8125l7.96875 0zm-7.96875 -8.28125l0 2.96875l7.96875 0l0 -2.96875l-7.96875 0zm0 32.5l-3.125 0l0 -35.0l14.21875 0l0 13.28125l-11.09375 0l0 21.71875zm26.25 -24.21875l0 -2.8125l-7.8125 0l0 2.8125l7.8125 0zm0 -5.3125l0 -2.96875l-7.8125 0l0 2.96875l7.8125 0zm35.9375 17.34375q2.1875 -4.21875 2.65625 -12.8125l-5.3125 0q0.46875 8.59375 2.65625 12.8125zm5.78125 -12.8125q-0.3125 9.6875 -3.75 15.625q2.5 3.125 7.03125 5.46875l-2.03125 3.4375q-5.0 -3.28125 -7.03125 -6.25q-3.59375 4.0625 -11.09375 7.03125l-1.5625 -3.125q8.125 -3.28125 10.78125 -6.71875q-2.65625 -5.15625 -2.96875 -10.3125q-0.9375 2.34375 -1.875 3.59375l-2.65625 -2.03125q4.6875 -6.875 5.625 -17.03125l3.28125 0.78125q0.9375 0.625 -0.46875 0.9375q-0.46875 2.8125 -1.25 5.625l10.625 0l0 2.96875l-2.65625 0zm-14.53125 -7.5q-0.9375 2.34375 -2.1875 3.90625l-2.5 -1.40625q1.25 -2.03125 2.34375 -4.6875l2.8125 1.40625q0.625 0.625 -0.46875 0.78125zm-10.0 22.03125q2.1875 0.625 3.90625 1.40625q1.25 -1.40625 2.03125 -4.21875l-4.53125 0q-0.625 1.40625 -1.40625 2.8125zm-2.1875 3.90625l-2.5 -1.40625q1.5625 -2.34375 3.125 -5.3125l-5.9375 0l0 -2.5l6.875 0q0.9375 -2.03125 1.40625 -3.4375l2.96875 0.78125q0.625 0.625 -0.46875 0.78125l-0.9375 1.875l8.90625 0l0 2.5l-2.34375 0q-0.78125 3.125 -2.34375 5.3125q1.40625 0.625 2.96875 1.5625l-1.40625 2.5q-1.71875 -1.09375 -3.125 -1.71875q-4.0625 4.0625 -10.9375 5.0l-1.09375 -2.8125q6.09375 -0.625 9.375 -3.4375q-1.71875 -0.78125 -3.4375 -1.40625l-1.09375 1.71875zm3.125 -29.375l2.5 0q1.25 0.15625 0.15625 0.9375l0 6.71875l7.96875 0l0 2.5l-6.5625 0q1.71875 2.03125 5.3125 3.90625l-1.71875 2.65625q-2.65625 -1.5625 -5.0 -4.375l0 3.75l-2.65625 0l0 -2.96875q-2.5 3.125 -6.875 5.625l-2.03125 -2.5q4.84375 -2.5 7.96875 -6.09375l-7.1875 0l0 -2.5l8.125 0l0 -7.65625zm-4.375 7.1875q-1.09375 -2.34375 -2.8125 -4.0625l2.5 -1.5625q1.875 1.875 2.8125 3.90625l-2.5 1.71875z" fill-rule="nonzero"></path><path fill="#000000" fill-opacity="0.0" d="m680.22046 0l398.70862 0l0 69.92126l-398.70862 0z" fill-rule="nonzero"></path><path fill="#000000" d="m709.6892 36.774998q3.59375 -4.84375 4.84375 -16.25l3.90625 0.625q1.40625 0.3125 -0.15625 1.40625q-0.9375 10.0 -5.78125 16.875q-3.59375 5.15625 -13.4375 10.3125l-2.8125 -2.8125q8.90625 -4.0625 13.4375 -10.15625zm-12.8125 -5.15625q-2.8125 -6.09375 -5.46875 -9.21875l3.4375 -1.875q2.65625 3.28125 5.625 9.0625l-3.59375 2.03125zm29.53125 13.28125q19.53125 -4.53125 20.46875 -20.78125l-23.4375 0l0 -3.4375l23.75 0l2.1875 -0.46875l1.71875 1.5625q-0.625 20.78125 -21.875 26.5625l-2.8125 -3.4375zm35.78125 -16.25q7.65625 2.1875 15.46875 5.9375l-1.875 3.59375q-8.28125 -4.21875 -13.59375 -5.625l0 16.25l-3.59375 0l0 -31.25l3.125 0q1.875 0.15625 0.46875 1.25l0 9.84375zm38.28125 10.3125q3.28125 3.125 5.3125 5.46875l-3.125 2.8125q-5.9375 -7.03125 -13.59375 -12.65625l2.1875 -2.8125q2.8125 1.71875 6.25 4.84375q4.6875 -4.6875 9.53125 -11.5625l-24.53125 1.09375l-0.625 -3.90625l27.34375 -0.625l1.5625 -0.46875l2.34375 2.5q0.78125 1.25 -0.625 1.09375q-3.90625 5.15625 -12.03125 14.21875zm42.03125 -10.625q-1.09375 10.15625 -5.625 14.6875q-4.53125 4.53125 -11.875 7.1875l-2.03125 -2.96875q7.1875 -2.34375 11.25 -6.40625q4.375 -4.375 5.0 -14.84375l3.28125 1.09375q1.40625 0.46875 0 1.25zm-13.28125 5.625q-1.875 -4.21875 -3.75 -7.03125l2.96875 -1.5625q2.34375 2.96875 4.0625 7.03125l-3.28125 1.5625zm-7.96875 2.34375q-1.875 -4.375 -3.90625 -7.34375l3.125 -1.5625q2.1875 2.96875 3.90625 7.1875l-3.125 1.71875zm52.8125 -10.3125q-2.96875 17.03125 -19.53125 24.375l-2.8125 -2.96875q15.3125 -6.25 18.4375 -21.5625l-12.5 0q-3.59375 5.9375 -7.5 9.53125l-3.125 -2.03125q8.125 -7.34375 10.46875 -17.1875l3.59375 1.25q0.9375 0.46875 -0.3125 0.9375q-0.625 2.03125 -1.71875 4.0625l11.25 0l1.40625 -0.78125l2.8125 2.8125q1.09375 1.09375 -0.46875 1.5625zm24.0625 7.1875q6.71875 5.15625 13.28125 11.875l-3.125 2.65625q-6.5625 -6.875 -12.65625 -11.5625q-6.09375 6.5625 -13.90625 11.71875l-2.96875 -2.65625q16.5625 -10.78125 21.25 -21.5625l-17.03125 1.09375l-0.46875 -3.75l18.125 -0.78125l1.875 -0.46875l2.5 2.5q1.09375 1.09375 -0.625 1.40625q-2.96875 5.15625 -6.25 9.53125zm33.59375 2.5l-8.125 0l0 -2.5l3.90625 0q-0.46875 -1.09375 -1.5625 -2.34375l2.8125 -0.9375q1.09375 1.25 2.03125 3.28125l4.84375 0l1.25 -3.4375l2.65625 0.78125q0.9375 0.625 -0.15625 1.09375l-0.78125 1.5625l4.53125 0l0 2.5l-8.75 0l0 3.28125l9.84375 0l0 2.5l-10.0 0l-0.15625 0.9375q4.21875 1.09375 8.90625 3.59375l-2.03125 2.96875q-4.53125 -2.8125 -7.5 -4.21875q-1.875 3.59375 -9.0625 5.78125l-1.40625 -3.125q7.96875 -1.875 8.4375 -5.9375l-8.75 0l0 -2.5l9.0625 0l0 -3.28125zm17.8125 12.5q0 2.5 -2.5 2.5l-2.65625 0l-0.3125 -2.96875l1.71875 0q0.625 0 0.625 -0.625l0 -17.8125l-5.46875 0l-5.46875 0l0 -13.28125l14.0625 0l0 32.1875zm-21.40625 -21.40625l0 -2.8125l-7.96875 0l0 2.8125l7.96875 0zm-7.96875 -8.28125l0 2.96875l7.96875 0l0 -2.96875l-7.96875 0zm0 32.5l-3.125 0l0 -35.0l14.21875 0l0 13.28125l-11.09375 0l0 21.71875zm26.25 -24.21875l0 -2.8125l-7.8125 0l0 2.8125l7.8125 0zm0 -5.3125l0 -2.96875l-7.8125 0l0 2.96875l7.8125 0zm35.9375 17.34375q2.1875 -4.21875 2.65625 -12.8125l-5.3125 0q0.46875 8.59375 2.65625 12.8125zm5.78125 -12.8125q-0.3125 9.6875 -3.75 15.625q2.5 3.125 7.03125 5.46875l-2.03125 3.4375q-5.0 -3.28125 -7.03125 -6.25q-3.59375 4.0625 -11.09375 7.03125l-1.5625 -3.125q8.125 -3.28125 10.78125 -6.71875q-2.65625 -5.15625 -2.96875 -10.3125q-0.9375 2.34375 -1.875 3.59375l-2.65625 -2.03125q4.6875 -6.875 5.625 -17.03125l3.28125 0.78125q0.9375 0.625 -0.46875 0.9375q-0.46875 2.8125 -1.25 5.625l10.625 0l0 2.96875l-2.65625 0zm-14.53125 -7.5q-0.9375 2.34375 -2.1875 3.90625l-2.5 -1.40625q1.25 -2.03125 2.34375 -4.6875l2.8125 1.40625q0.625 0.625 -0.46875 0.78125zm-10.0 22.03125q2.1875 0.625 3.90625 1.40625q1.25 -1.40625 2.03125 -4.21875l-4.53125 0q-0.625 1.40625 -1.40625 2.8125zm-2.1875 3.90625l-2.5 -1.40625q1.5625 -2.34375 3.125 -5.3125l-5.9375 0l0 -2.5l6.875 0q0.9375 -2.03125 1.40625 -3.4375l2.96875 0.78125q0.625 0.625 -0.46875 0.78125l-0.9375 1.875l8.90625 0l0 2.5l-2.34375 0q-0.78125 3.125 -2.34375 5.3125q1.40625 0.625 2.96875 1.5625l-1.40625 2.5q-1.71875 -1.09375 -3.125 -1.71875q-4.0625 4.0625 -10.9375 5.0l-1.09375 -2.8125q6.09375 -0.625 9.375 -3.4375q-1.71875 -0.78125 -3.4375 -1.40625l-1.09375 1.71875zm3.125 -29.375l2.5 0q1.25 0.15625 0.15625 0.9375l0 6.71875l7.96875 0l0 2.5l-6.5625 0q1.71875 2.03125 5.3125 3.90625l-1.71875 2.65625q-2.65625 -1.5625 -5.0 -4.375l0 3.75l-2.65625 0l0 -2.96875q-2.5 3.125 -6.875 5.625l-2.03125 -2.5q4.84375 -2.5 7.96875 -6.09375l-7.1875 0l0 -2.5l8.125 0l0 -7.65625zm-4.375 7.1875q-1.09375 -2.34375 -2.8125 -4.0625l2.5 -1.5625q1.875 1.875 2.8125 3.90625l-2.5 1.71875z" fill-rule="nonzero"></path></g></svg>

