<?xml version="1.0" standalone="yes"?>

<svg version="1.1" viewBox="0.0 0.0 561.5800524934383 406.32020997375326" fill="none" stroke="none" stroke-linecap="square" stroke-miterlimit="10" xmlns="http://www.w3.org/2000/svg" xmlns:xlink="http://www.w3.org/1999/xlink"><clipPath id="p.0"><path d="m0 0l561.5801 0l0 406.32022l-561.5801 0l0 -406.32022z" clip-rule="nonzero"></path></clipPath><g clip-path="url(#p.0)"><path fill="#000000" fill-opacity="0.0" d="m0 0l561.5801 0l0 406.32022l-561.5801 0z" fill-rule="evenodd"></path><path fill="#d9ead3" d="m6.9973755 60.897972l0 0c0 -9.274509 7.5184765 -16.792984 16.792986 -16.792984l67.16994 0l0 0c4.4537735 0 8.725136 1.7692566 11.874435 4.9185524c3.149292 3.1492958 4.9185486 7.4206543 4.9185486 11.874432l0 313.0597c0 9.274506 -7.5184784 16.793 -16.792984 16.793l-67.16994 0c-9.274509 0 -16.792986 -7.5184937 -16.792986 -16.793z" fill-rule="evenodd"></path><path stroke="#000000" stroke-width="1.0" stroke-linejoin="round" stroke-linecap="butt" d="m6.9973755 60.897972l0 0c0 -9.274509 7.5184765 -16.792984 16.792986 -16.792984l67.16994 0l0 0c4.4537735 0 8.725136 1.7692566 11.874435 4.9185524c3.149292 3.1492958 4.9185486 7.4206543 4.9185486 11.874432l0 313.0597c0 9.274506 -7.5184784 16.793 -16.792984 16.793l-67.16994 0c-9.274509 0 -16.792986 -7.5184937 -16.792986 -16.793z" fill-rule="evenodd"></path><path fill="#cfe2f3" d="m20.989502 94.83202l0 0c0 -19.325623 15.976734 -34.99213 35.68504 -34.99213l0 0c9.46426 0 18.54089 3.6866608 25.233135 10.248959c6.692238 6.562294 10.451904 15.462677 10.451904 24.743172l0 0c0 19.325615 -15.976738 34.99212 -35.68504 34.99212l0 0c-19.708305 0 -35.68504 -15.666504 -35.68504 -34.99212z" fill-rule="evenodd"></path><path stroke="#000000" stroke-width="1.0" stroke-linejoin="round" stroke-linecap="butt" d="m20.989502 94.83202l0 0c0 -19.325623 15.976734 -34.99213 35.68504 -34.99213l0 0c9.46426 0 18.54089 3.6866608 25.233135 10.248959c6.692238 6.562294 10.451904 15.462677 10.451904 24.743172l0 0c0 19.325615 -15.976738 34.99212 -35.68504 34.99212l0 0c-19.708305 0 -35.68504 -15.666504 -35.68504 -34.99212z" fill-rule="evenodd"></path><path fill="#cfe2f3" d="m21.690289 181.25984l0 0c0 -19.325623 15.976738 -34.992126 35.68504 -34.992126l0 0c9.464264 0 18.540894 3.6866608 25.233131 10.248962c6.6922455 6.5622864 10.451904 15.462677 10.451904 24.743164l0 0c0 19.325623 -15.97673 34.992126 -35.685036 34.992126l0 0c-19.708302 0 -35.68504 -15.666504 -35.68504 -34.992126z" fill-rule="evenodd"></path><path stroke="#000000" stroke-width="1.0" stroke-linejoin="round" stroke-linecap="butt" d="m21.690289 181.25984l0 0c0 -19.325623 15.976738 -34.992126 35.68504 -34.992126l0 0c9.464264 0 18.540894 3.6866608 25.233131 10.248962c6.6922455 6.5622864 10.451904 15.462677 10.451904 24.743164l0 0c0 19.325623 -15.97673 34.992126 -35.685036 34.992126l0 0c-19.708302 0 -35.68504 -15.666504 -35.68504 -34.992126z" fill-rule="evenodd"></path><path fill="#cfe2f3" d="m20.989502 339.1181l0 0c0 -19.325623 15.976734 -34.992126 35.68504 -34.992126l0 0c9.46426 0 18.54089 3.686676 25.233135 10.248962c6.692238 6.5622864 10.451904 15.462677 10.451904 24.743164l0 0c0 19.325623 -15.976738 34.992126 -35.68504 34.992126l0 0c-19.708305 0 -35.68504 -15.666504 -35.68504 -34.992126z" fill-rule="evenodd"></path><path stroke="#000000" stroke-width="1.0" stroke-linejoin="round" stroke-linecap="butt" d="m20.989502 339.1181l0 0c0 -19.325623 15.976734 -34.992126 35.68504 -34.992126l0 0c9.46426 0 18.54089 3.686676 25.233135 10.248962c6.692238 6.5622864 10.451904 15.462677 10.451904 24.743164l0 0c0 19.325623 -15.976738 34.992126 -35.68504 34.992126l0 0c-19.708305 0 -35.68504 -15.666504 -35.68504 -34.992126z" fill-rule="evenodd"></path><path fill="#cfe2f3" d="m236.92126 146.28084l0 0c0 -19.325615 15.97673 -34.992126 35.685028 -34.992126l0 0c9.464264 0 18.540894 3.6866608 25.233154 10.248962c6.69223 6.5622864 10.451904 15.462677 10.451904 24.743164l0 0c0 19.325623 -15.976746 34.992126 -35.68506 34.992126l0 0c-19.708298 0 -35.685028 -15.666504 -35.685028 -34.992126z" fill-rule="evenodd"></path><path stroke="#000000" stroke-width="1.0" stroke-linejoin="round" stroke-linecap="butt" d="m236.92126 146.28084l0 0c0 -19.325615 15.97673 -34.992126 35.685028 -34.992126l0 0c9.464264 0 18.540894 3.6866608 25.233154 10.248962c6.69223 6.5622864 10.451904 15.462677 10.451904 24.743164l0 0c0 19.325623 -15.976746 34.992126 -35.68506 34.992126l0 0c-19.708298 0 -35.685028 -15.666504 -35.685028 -34.992126z" fill-rule="evenodd"></path><path fill="#000000" fill-opacity="0.0" d="m92.35958 94.83202l144.56693 51.46456" fill-rule="evenodd"></path><path stroke="#000000" stroke-width="3.0" stroke-linejoin="round" stroke-linecap="butt" d="m92.35958 94.83202l127.6094 45.427834" fill-rule="evenodd"></path><path fill="#000000" stroke="#000000" stroke-width="3.0" stroke-linecap="butt" d="m218.30713 144.92807l14.487671 -0.1023407l-11.163971 -9.234085z" fill-rule="evenodd"></path><path fill="#000000" fill-opacity="0.0" d="m93.06036 181.25984l143.87402 -34.992126" fill-rule="evenodd"></path><path stroke="#000000" stroke-width="3.0" stroke-linejoin="round" stroke-linecap="butt" d="m93.06036 181.25984l126.38388 -30.738281" fill-rule="evenodd"></path><path fill="#000000" stroke="#000000" stroke-width="3.0" stroke-linecap="butt" d="m220.61528 155.3364l12.057632 -8.032227l-14.399704 -1.5974426z" fill-rule="evenodd"></path><path fill="#000000" fill-opacity="0.0" d="m92.35958 339.1181l144.56693 -192.85039" fill-rule="evenodd"></path><path stroke="#000000" stroke-width="3.0" stroke-linejoin="round" stroke-linecap="butt" d="m92.35958 339.1181l133.77032 -178.44785" fill-rule="evenodd"></path><path fill="#000000" stroke="#000000" stroke-width="3.0" stroke-linecap="butt" d="m230.09476 163.64244l4.2011566 -13.86554l-12.130875 7.921173z" fill-rule="evenodd"></path><path fill="#000000" fill-opacity="0.0" d="m38.485565 225.19685l36.377953 0l0 69.98424l-36.377953 0z" fill-rule="evenodd"></path><path fill="#000000" d="m53.798065 243.6481l0 3.203125l-3.1875 0l0 -3.203125l3.1875 0z" fill-rule="nonzero"></path><path fill="#000000" d="m53.798065 265.6481l0 3.203125l-3.1875 0l0 -3.203125l3.1875 0z" fill-rule="nonzero"></path><path fill="#000000" d="m53.798065 287.6481l0 3.203125l-3.1875 0l0 -3.203125l3.1875 0z" fill-rule="nonzero"></path><path fill="#000000" fill-opacity="0.0" d="m74.86352 260.18896l162.04724 -113.92125" fill-rule="evenodd"></path><path stroke="#000000" stroke-width="3.0" stroke-linejoin="round" stroke-linecap="butt" d="m74.86352 260.18896l147.32193 -103.56917" fill-rule="evenodd"></path><path fill="#000000" stroke="#000000" stroke-width="3.0" stroke-linecap="butt" d="m225.03526 160.67351l8.287674 -11.883499l-13.987289 3.7760773z" fill-rule="evenodd"></path><path fill="#000000" fill-opacity="0.0" d="m162.3307 70.69292l87.18111 0l0 50.3937l-87.18111 0z" fill-rule="evenodd"></path><path fill="#000000" d="m183.6432 80.82667l0.859375 0l-3.65625 22.828125l-5.8125 -11.96875l-2.3125 1.0625l-0.40625 -0.75l3.53125 -1.765625l4.75 9.640625l3.046875 -19.046875z" fill-rule="nonzero"></path><path fill="#000000" d="m196.46742 92.12354l-1.5625 5.328125q2.203125 -3.265625 3.359375 -4.296875q1.171875 -1.03125 2.25 -1.03125q0.578125 0 0.953125 0.390625q0.390625 0.390625 0.390625 1.0q0 0.703125 -0.34375 1.875l-1.421875 4.9375q-0.25 0.859375 -0.25 1.046875q0 0.15625 0.09375 0.28125q0.09375 0.109375 0.203125 0.109375q0.140625 0 0.34375 -0.15625q0.609375 -0.5 1.359375 -1.5l0.359375 0.21875q-1.09375 1.5625 -2.0625 2.234375q-0.6875 0.453125 -1.21875 0.453125q-0.4375 0 -0.703125 -0.265625q-0.25 -0.265625 -0.25 -0.703125q0 -0.5625 0.40625 -1.9375l1.359375 -4.71875q0.25 -0.875 0.25 -1.359375q0 -0.234375 -0.15625 -0.375q-0.140625 -0.15625 -0.375 -0.15625q-0.328125 0 -0.78125 0.28125q-0.859375 0.53125 -1.796875 1.75q-0.9375 1.203125 -1.984375 3.09375q-0.546875 0.984375 -0.921875 2.171875l-0.578125 1.9375l-1.765625 0l2.140625 -7.34375q0.375 -1.3125 0.375 -1.59375q0 -0.25 -0.203125 -0.4375q-0.203125 -0.203125 -0.515625 -0.203125q-0.140625 0 -0.484375 0.046875l-0.453125 0.078125l-0.0625 -0.421875l4.046875 -0.734375z" fill-rule="nonzero"></path><path fill="#000000" fill-opacity="0.0" d="m184.72179 82.585304l29.385818 0" fill-rule="evenodd"></path><path stroke="#000000" stroke-width="1.0" stroke-linejoin="round" stroke-linecap="butt" d="m184.72179 82.585304l29.385818 0" fill-rule="evenodd"></path><path fill="#000000" fill-opacity="0.0" d="m173.52493 72.07874l51.779526 -1.3858261" fill-rule="evenodd"></path><path stroke="#000000" stroke-width="1.0" stroke-linejoin="round" stroke-linecap="butt" d="m173.52493 72.07874l51.779526 -1.3858261" fill-rule="evenodd"></path><path fill="#000000" fill-opacity="0.0" d="m184.72179 36.3937l51.779526 0l0 69.98425l-51.779526 0z" fill-rule="evenodd"></path><path fill="#000000" d="m200.79991 63.313698l-1.671875 0l0 -10.640625q-0.59375 0.578125 -1.578125 1.15625q-0.984375 0.5625 -1.765625 0.859375l0 -1.625q1.40625 -0.65625 2.453125 -1.59375q1.046875 -0.9375 1.484375 -1.8125l1.078125 0l0 13.65625z" fill-rule="nonzero"></path><path fill="#000000" fill-opacity="0.0" d="m230.9029 50.3937l379.24408 0l0 41.984253l-379.24408 0z" fill-rule="evenodd"></path><path fill="#000000" d="m250.1529 66.84495q-1.265625 7.421875 -3.046875 9.203125q-0.96875 0.96875 -2.0 0.96875q-1.1875 0 -1.859375 -0.671875q-1.78125 -1.78125 -1.78125 -4.453125q0 -3.265625 2.296875 -5.5625q2.53125 -2.53125 6.15625 -2.53125q3.265625 0 5.125 1.859375q2.078125 2.078125 2.078125 4.90625q0 3.03125 -1.921875 4.96875q-1.265625 1.265625 -3.859375 2.453125l-1.5625 -1.5625q2.59375 -0.8125 4.078125 -2.296875q1.40625 -1.421875 1.40625 -3.421875q0 -2.375 -1.546875 -3.9375q-1.5625 -1.546875 -4.90625 -1.40625l1.34375 0.671875q0.890625 0.375 0 0.8125zm-1.71875 -1.40625q-1.921875 0.4375 -3.328125 1.859375q-1.9375 1.921875 -1.9375 4.75q0 1.703125 1.109375 2.8125q0.234375 0.21875 0.671875 0.21875q0.453125 0 0.96875 -0.515625q1.703125 -1.703125 2.515625 -9.125zm20.9375 10.3125q0.296875 0.296875 -0.296875 0.296875q-1.484375 1.484375 -3.046875 2.453125l-0.96875 -1.34375q1.9375 -1.03125 3.125 -2.4375l1.1875 1.03125zm2.8125 1.859375q0 1.1875 -1.1875 1.1875l-0.953125 0l-0.375 -1.40625l0.734375 0q0.296875 0 0.296875 -0.296875l0 -2.828125l-5.046875 0l0 -1.40625l11.21875 0l0 1.40625l-4.6875 0l0 3.34375zm1.484375 -2.828125q1.640625 1.34375 3.125 2.078125l-0.8125 1.34375q-1.484375 -0.671875 -3.265625 -2.453125l0.953125 -0.96875zm-14.25 -1.328125q2.671875 -3.125 3.046875 -6.09375l-2.453125 0l0 -1.40625l2.453125 0l0 -3.859375l1.40625 0q0.59375 0.078125 0.078125 0.453125l0 3.40625l2.0 0l0 1.40625l-2.0 0l0 1.859375q1.109375 0.59375 2.15625 1.703125l-0.8125 1.421875q-0.671875 -0.75 -1.34375 -1.265625l0 8.015625l-1.484375 0l0 -7.421875q-0.671875 1.625 -2.078125 3.046875l-0.96875 -1.265625zm16.03125 -1.5625l-8.375 0l0 -1.40625l8.375 0l0 1.40625zm-6.15625 -3.640625l0 -1.921875l-1.484375 0l0 1.921875l1.484375 0zm2.75 0l0 -1.921875l-1.484375 0l0 1.921875l1.484375 0zm1.265625 0l1.484375 0l0 -1.921875l-1.484375 0l0 1.921875zm2.734375 -3.109375l0 4.296875l-9.5 0l0 -4.296875l2.75 0l0 -1.046875l-3.1875 0l0 -1.40625l10.390625 0l0 1.40625l-3.1875 0l0 1.046875l2.734375 0zm-5.484375 0l1.484375 0l0 -1.046875l-1.484375 0l0 1.046875zm20.859375 -2.234375q-0.234375 0.375 -0.75 1.125l4.15625 0l0 1.1875l-4.296875 0l0 1.25l3.625 0l0 1.1875l-3.625 0l0 1.1875l3.625 0l0 1.1875l-3.625 0l0 1.34375l4.671875 0l0 1.1875l-7.046875 0l0 1.625l7.78125 0l0 1.421875l-7.78125 0l0 3.40625l-1.484375 0l0 -3.40625l-7.71875 0l0 -1.421875l7.71875 0l0 -1.625l-0.828125 0l-0.734375 0l0 -5.796875q-0.453125 0.59375 -1.1875 1.265625l-0.8125 -1.328125q2.21875 -1.71875 3.265625 -4.609375l1.328125 0.453125q0.296875 0.296875 -0.21875 0.359375q-0.21875 0.671875 -0.59375 1.125l2.453125 0q0.59375 -1.046875 0.953125 -1.9375l1.34375 0.453125q0.296875 0.296875 -0.21875 0.359375zm-10.984375 2.53125q1.03125 0.296875 2.140625 1.328125l-1.03125 1.421875q-1.046875 -1.046875 -2.078125 -1.484375l0.96875 -1.265625zm0.890625 -3.046875q1.328125 0.453125 2.21875 1.265625l-1.03125 1.328125q-0.828125 -0.890625 -2.15625 -1.40625l0.96875 -1.1875zm7.9375 8.984375l0 -1.34375l-2.890625 0l0 1.34375l2.890625 0zm-2.890625 -2.53125l2.890625 0l0 -1.1875l-2.890625 0l0 1.1875zm2.890625 -2.375l0 -1.25l-2.890625 0l0 1.25l2.890625 0zm-10.171875 5.125q1.9375 -1.03125 3.859375 -3.109375l1.046875 1.03125q-1.859375 2.234375 -3.5625 3.34375q0.140625 0.4375 -0.234375 0.375l-1.109375 -1.640625zm23.3125 -8.828125q-0.375 2.515625 -1.046875 4.375q0.671875 0.296875 -0.078125 0.671875l0 11.203125l-1.484375 0l0 -8.90625q-0.4375 0.8125 -1.109375 1.640625l-1.03125 -1.5625q2.734375 -3.265625 3.1875 -8.234375l1.625 0.4375q0.53125 0.15625 -0.0625 0.375zm2.4375 9.046875q-0.59375 3.265625 -2.140625 5.34375l-1.1875 -1.1875q1.84375 -2.59375 1.84375 -5.109375l0 -5.34375l10.25 0l0 3.921875l-8.765625 0l0 1.265625l9.140625 0l0 7.125q0 1.046875 -0.828125 1.046875l-0.953125 0l-0.296875 -1.1875l0.59375 0q0.21875 0 0.21875 -0.21875l0 -2.390625l-1.5625 0l0 3.5l-1.265625 0l0 -3.5l-1.25 0l0 3.5l-1.265625 0l0 -3.5l-1.265625 0l0 3.9375l-1.265625 0l0 -7.203125zm1.265625 0.078125l0 2.0l1.265625 0l0 -2.0l-1.265625 0zm2.53125 2.0l1.25 0l0 -2.0l-1.25 0l0 2.0zm2.515625 -2.0l0 2.0l1.5625 0l0 -2.0l-1.5625 0zm0.96875 -3.640625l0 -1.546875l-7.28125 0l0 1.546875l7.28125 0zm-8.90625 -5.5625l11.28125 0l0 1.40625l-11.28125 0l0 -1.40625zm13.796875 14.328125q3.265625 -2.296875 4.3125 -5.5625l-4.234375 0l0 -1.421875l7.5 0l0 -1.625l-5.34375 0l0 -1.40625l5.34375 0l0 -1.34375l-6.53125 0l0 -1.40625l3.9375 0q-0.375 -0.59375 -1.421875 -1.34375l1.265625 -0.734375q1.34375 0.96875 2.078125 2.078125l2.96875 0l1.34375 -2.375l1.40625 0.515625q0.4375 0.21875 -0.15625 0.375l-1.03125 1.484375l4.15625 0l0 1.40625l-6.53125 0l0 1.34375l5.421875 0l0 1.40625l-5.421875 0l0 1.625l7.5625 0l0 1.421875l-10.609375 0q-0.21875 0.890625 -0.515625 1.40625l8.984375 0l0 1.40625l-4.15625 0l0 2.671875l6.0 0l0 1.421875l-13.0625 0l0 -1.421875l5.578125 0l0 -2.671875l-3.9375 0q-1.34375 2.296875 -3.71875 4.09375l-1.1875 -1.34375zm23.75 -8.3125q0.890625 -0.296875 1.71875 -0.296875q0.953125 0 1.546875 0.59375q0.453125 0.4375 0.53125 1.625q2.21875 -0.8125 5.046875 -1.703125l0.515625 1.78125q-2.890625 0.453125 -5.421875 1.40625l0 3.265625l-1.484375 0l0 -2.671875q-2.21875 1.046875 -2.890625 1.71875q-0.8125 0.8125 -0.8125 1.625q0 0.453125 0.4375 0.890625q0.515625 0.53125 2.0 0.53125l6.234375 0l0 1.40625l-6.296875 0q-2.375 0 -3.34375 -0.96875q-0.75 -0.75 -0.75 -1.859375q0 -1.1875 0.96875 -2.15625q1.484375 -1.484375 4.375 -2.671875q-0.0625 -0.890625 -0.359375 -1.1875q-0.296875 -0.296875 -1.265625 -0.296875q-1.484375 0 -4.53125 2.671875l-1.265625 -1.25q3.5 -2.15625 4.75 -4.75q-2.078125 0.140625 -4.15625 0.296875l-0.296875 -1.484375q2.671875 -0.078125 5.046875 -0.234375q0.375 -0.890625 0.890625 -2.96875l1.421875 0.375q0.734375 0.296875 0 0.59375q-0.296875 0.96875 -0.671875 1.9375q2.671875 -0.234375 5.125 -0.59375l0.21875 1.546875q-2.890625 0.234375 -5.796875 0.453125q-0.734375 1.484375 -1.484375 2.375zm22.425781 8.765625l1.1875 0q0.296875 0 0.296875 -0.3125l0 -4.21875l-6.09375 0l0 -1.421875l6.09375 0l0 -2.0l-6.46875 0l0 -1.40625l4.3125 0l0 -2.15625l-3.421875 0l0 -1.40625l3.421875 0l0 -2.53125l1.40625 0q0.59375 0.078125 0.078125 0.453125l0 2.078125l3.703125 0l0 1.40625l-3.703125 0l0 2.15625l5.125 0l0 1.40625l-2.96875 0l0 2.0l2.59375 0l0 1.421875l-2.59375 0l0 4.75q0 1.1875 -1.1875 1.1875l-1.484375 0l-0.296875 -1.40625zm-9.796875 0l1.03125 0q0.296875 0 0.296875 -0.3125l0 -4.59375l-1.5625 0.515625q-0.296875 0.75 -0.515625 0.078125l-0.515625 -1.40625l2.59375 -0.671875l0 -4.375l-2.296875 0l0 -1.421875l2.296875 0l0 -3.328125l1.40625 0q0.59375 0.0625 0.078125 0.4375l0 2.890625l2.15625 0l0 1.421875l-2.15625 0l0 3.921875l1.859375 -0.65625l0.375 1.25l-2.234375 0.890625l0 5.578125q0 1.1875 -1.1875 1.1875l-1.328125 0l-0.296875 -1.40625zm7.265625 -3.71875q0.890625 0.59375 1.859375 1.859375l-1.1875 1.109375q-0.75 -0.96875 -1.78125 -1.9375l1.109375 -1.03125zm15.8125 1.328125q5.5625 -0.0625 7.34375 -1.84375q1.109375 -1.125 1.109375 -2.75q0 -1.703125 -1.1875 -2.890625q-0.890625 -0.890625 -3.109375 -0.890625q-1.859375 0 -4.375 0.890625q-1.9375 0.65625 -4.234375 1.703125l-0.8125 -1.9375l4.15625 -1.1875q3.625 -1.03125 5.484375 -1.03125q2.96875 0 4.375 1.40625q1.421875 1.40625 1.421875 3.78125q0 2.53125 -1.34375 3.859375q-2.515625 2.53125 -8.390625 2.609375l-0.4375 -1.71875zm19.890625 -8.453125l5.859375 -0.21875l0 4.59375q0 3.640625 -0.671875 5.125q-0.65625 1.484375 -2.8125 1.484375l-1.78125 0l-0.21875 -1.859375q1.109375 0.15625 1.921875 0.15625q1.109375 0 1.40625 -0.75q0.453125 -1.1875 0.453125 -4.15625l0 -3.046875l-4.234375 0.15625q-0.4375 6.3125 -5.859375 9.953125l-1.265625 -1.265625q5.125 -3.421875 5.421875 -8.6875l-5.265625 0.140625l-0.15625 -1.484375l5.5 -0.140625l0 -4.15625l1.546875 0q0.828125 0.140625 0.15625 0.59375l0 3.5625zm5.9375 -1.265625q-1.265625 -1.484375 -2.296875 -2.453125l0.890625 -0.890625q1.03125 0.96875 2.296875 2.453125l-0.890625 0.890625zm2.078125 -0.734375q-1.34375 -1.5625 -2.296875 -2.453125l0.890625 -0.890625q1.03125 0.96875 2.296875 2.453125l-0.890625 0.890625zm17.296875 2.21875q0 8.09375 -7.796875 11.953125l-1.40625 -1.40625q7.1875 -3.265625 7.265625 -9.796875l-10.3125 0l0.140625 4.375l-1.703125 0l-0.21875 -6.015625l5.859375 0l0 -3.703125l1.484375 0q0.890625 0.0625 0.21875 0.59375l0 3.109375l5.578125 0l0.890625 0.890625zm11.949219 3.71875q3.1875 2.4375 6.296875 5.640625l-1.484375 1.265625q-3.109375 -3.28125 -6.0 -5.5q-2.90625 3.109375 -6.609375 5.5625l-1.40625 -1.265625q7.859375 -5.109375 10.09375 -10.234375l-8.09375 0.515625l-0.21875 -1.78125l8.609375 -0.375l0.890625 -0.21875l1.1875 1.1875q0.515625 0.515625 -0.296875 0.671875q-1.421875 2.453125 -2.96875 4.53125zm21.738281 -1.125l-0.296875 6.015625q-0.140625 3.125 -2.15625 3.125l-2.21875 0l-0.21875 -1.640625l1.84375 0q0.96875 0 1.046875 -1.265625l0.296875 -4.8125l-4.078125 0l-0.078125 0.59375q-0.515625 4.078125 -5.859375 7.5l-1.125 -1.421875q4.828125 -2.75 5.34375 -5.78125l0.15625 -0.890625l-2.828125 0l0 -1.421875l10.171875 0zm-6.671875 -5.859375q-1.78125 3.859375 -5.71875 7.046875l-1.1875 -1.40625q3.859375 -2.671875 5.640625 -6.90625l1.40625 0.890625q0.453125 0.296875 -0.140625 0.375zm9.203125 7.046875q-4.09375 -2.375 -6.015625 -7.78125l1.40625 -0.59375q1.78125 4.75 5.71875 6.828125l-1.109375 1.546875zm9.125 -6.0q0.515625 -1.34375 0.96875 -2.90625l1.625 0.453125q0.296875 0.296875 -0.21875 0.375q-0.453125 1.109375 -0.8125 2.078125l9.265625 0l0 1.40625l-9.859375 0q-1.1875 2.296875 -1.859375 3.046875l3.34375 0l0 -2.375l1.40625 0q0.59375 0.0625 0.078125 0.4375l0 1.9375l4.96875 0l0 7.1875q0 1.203125 -1.1875 1.203125l-1.40625 0l-0.234375 -1.421875l1.046875 0q0.296875 0 0.296875 -0.296875l0 -5.265625l-3.484375 0l0 8.46875l-1.484375 0l0 -8.46875l-3.34375 0l0 6.90625l-1.484375 0l0 -6.390625q-1.34375 1.40625 -2.828125 2.375l-1.03125 -1.40625q3.484375 -2.15625 5.5625 -5.9375l-4.890625 0l0 -1.40625l5.5625 0zm27.828125 1.03125q-2.59375 0 -4.078125 0.515625q-1.640625 0.59375 -3.046875 2.015625q-1.40625 1.40625 -1.40625 3.625q0 1.78125 1.109375 2.90625q1.484375 1.484375 5.71875 1.625l-0.59375 1.640625q-4.375 -0.21875 -6.09375 -1.9375q-1.703125 -1.703125 -1.703125 -4.15625q0 -3.484375 2.75 -5.484375q-3.484375 0.515625 -7.125 1.03125l-0.453125 -1.703125q7.28125 -0.515625 14.625 -1.78125l0.296875 1.703125zm-1.625 5.796875q-1.640625 -1.1875 -2.828125 -1.859375l0.75 -0.890625q1.109375 0.671875 2.8125 1.859375l-0.734375 0.890625zm1.484375 -1.78125q-1.78125 -1.265625 -2.828125 -1.859375l0.75 -0.890625q1.03125 0.59375 2.8125 1.859375l-0.734375 0.890625zm10.457031 0.65625q-0.671875 0.59375 -1.40625 1.1875q0.734375 0.53125 1.484375 1.1875l-1.046875 1.421875q-1.109375 -1.265625 -2.515625 -2.53125l0 7.421875l-1.484375 0l0 -7.421875q-1.109375 1.109375 -2.453125 2.15625l-0.734375 -1.5625q3.265625 -2.453125 5.265625 -5.5625l-4.671875 0l0 -1.40625l2.59375 0l0 -3.5l1.40625 0q0.59375 0.078125 0.078125 0.453125l0 3.046875l1.40625 0l0.453125 -0.453125l0.953125 0.96875q0.296875 0.515625 -0.296875 0.515625q-0.953125 2.0 -2.59375 3.859375l1.109375 0.671875q0.890625 -0.890625 1.484375 -1.703125l1.34375 1.03125q0.078125 0.375 -0.375 0.21875zm6.609375 -4.890625l-2.96875 0l0 4.375q0 5.859375 -5.125 8.84375l-0.96875 -1.421875q4.609375 -2.296875 4.609375 -7.203125l0 -4.59375l-2.296875 0l0 -1.40625l8.234375 0l0 9.203125q0 5.421875 -2.671875 5.421875l-2.15625 0l-0.21875 -1.421875l2.0 0q1.5625 0 1.5625 -4.0l0 -7.796875zm4.453125 12.09375q1.703125 -1.40625 2.96875 -3.484375l1.265625 0.8125q0.515625 0.375 -0.234375 0.453125q-1.1875 1.921875 -2.734375 3.484375l-1.265625 -1.265625zm14.390625 -4.75l-2.59375 0q-0.140625 3.9375 -3.703125 6.3125l-1.046875 -1.265625q3.265625 -2.0 3.265625 -5.34375l0 -9.640625l5.5625 0l0 14.84375q0 1.1875 -1.1875 1.1875l-1.546875 0l-0.15625 -1.640625l1.109375 0q0.296875 0 0.296875 -0.296875l0 -4.15625zm-7.046875 4.3125q-0.890625 -1.046875 -2.078125 -2.015625l1.109375 -1.03125q1.34375 0.96875 2.15625 1.859375l-1.1875 1.1875zm7.046875 -8.546875l-2.59375 0l0 2.828125l2.59375 0l0 -2.828125zm0 -4.296875l-2.59375 0l0 2.890625l2.59375 0l0 -2.890625zm-8.015625 6.671875l-2.96875 0l0 1.5625l2.96875 0l0 -1.5625zm0 -2.59375l-2.96875 0l0 1.40625l2.96875 0l0 -1.40625zm0 -2.515625l-2.96875 0l0 1.328125l2.96875 0l0 -1.328125zm3.125 -1.1875l0 1.1875l-1.859375 0l0 6.671875l2.078125 0l0 1.1875l-9.9375 0l0 -1.1875l2.375 0l0 -6.671875l-1.9375 0l0 -1.1875l1.9375 0l0 -2.53125l1.1875 0q0.734375 0.078125 0.0625 0.453125l0 2.078125l2.96875 0l0 -2.53125l1.1875 0q0.75 0.078125 0.078125 0.453125l0 2.078125l1.859375 0zm9.421875 5.859375q3.1875 -2.890625 4.015625 -7.9375l1.625 0.4375q0.515625 0.15625 -0.21875 0.59375q-0.15625 1.109375 -1.046875 3.265625l0.453125 0.15625q0.296875 0.21875 -0.21875 0.515625l0 10.984375l-1.484375 0l0 -9.28125q-0.890625 1.40625 -2.15625 2.59375l-0.96875 -1.328125zm16.484375 3.640625l-0.234375 1.703125q-0.296875 2.15625 -2.140625 2.15625l-4.984375 0q-1.328125 0 -1.328125 -1.265625l0 -13.953125l1.40625 0q0.75 0.078125 0.078125 0.4375l0 5.5q2.8125 -1.109375 5.1875 -2.890625l1.125 1.328125q0.515625 0.453125 -0.375 0.453125q-3.1875 1.625 -5.9375 2.734375l0 5.421875q0 0.59375 0.515625 0.59375l3.9375 0q0.8125 0 0.890625 -0.734375l0.140625 -1.78125l1.71875 0.296875z" fill-rule="nonzero"></path><path fill="#000000" fill-opacity="0.0" d="m0 0l144.56693 0l0 50.3937l-144.56693 0z" fill-rule="evenodd"></path><path fill="#000000" d="m14.296875 21.430626l-1.5625 5.328125q2.203125 -3.265625 3.359375 -4.296875q1.171875 -1.03125 2.25 -1.03125q0.578125 0 0.953125 0.390625q0.390625 0.390625 0.390625 1.0q0 0.703125 -0.34375 1.875l-1.421875 4.9375q-0.25 0.859375 -0.25 1.046875q0 0.15625 0.09375 0.28125q0.09375 0.109375 0.203125 0.109375q0.140625 0 0.34375 -0.15625q0.609375 -0.5 1.359375 -1.5l0.359375 0.21875q-1.09375 1.5625 -2.0625 2.234375q-0.6875 0.453125 -1.21875 0.453125q-0.4375 0 -0.703125 -0.265625q-0.25 -0.265625 -0.25 -0.703125q0 -0.5625 0.40625 -1.9375l1.359375 -4.71875q0.25 -0.875 0.25 -1.359375q0 -0.234375 -0.15625 -0.375q-0.140625 -0.15625 -0.375 -0.15625q-0.328125 0 -0.78125 0.28125q-0.859375 0.53125 -1.796875 1.75q-0.9375 1.203125 -1.984375 3.09375q-0.546875 0.984375 -0.921875 2.171875l-0.578125 1.9375l-1.765625 0l2.140625 -7.34375q0.375 -1.3125 0.375 -1.59375q0 -0.25 -0.203125 -0.4375q-0.203125 -0.203125 -0.515625 -0.203125q-0.140625 0 -0.484375 0.046875l-0.453125 0.078125l-0.0625 -0.421875l4.046875 -0.734375z" fill-rule="nonzero"></path><path fill="#000000" d="m36.8125 33.149376l0 -0.515625l-8.53125 0l0 0.8125l-1.265625 0l0 -15.875l11.0625 0l0 15.578125l-1.265625 0zm-11.28125 0.375l-1.484375 0l0 -9.125q-0.59375 1.03125 -1.40625 1.921875l-0.96875 -1.265625q2.515625 -2.96875 3.40625 -8.453125l1.5625 0.59375q0.296875 0.296875 -0.21875 0.375q-0.296875 1.703125 -1.109375 4.15625q0.890625 0.0625 0.21875 0.515625l0 11.28125zm5.421875 -7.875l0 2.375l3.328125 0l0 -2.375l-3.328125 0zm-2.671875 -6.671875l0 12.25l8.53125 0l0 -12.25l-8.53125 0zm4.96875 2.453125l2.8125 0l0 1.40625l-2.8125 0l0 1.625l2.296875 0l0 5.34375l-1.265625 0l0 -0.59375l-3.328125 0l0 0.890625l-1.265625 0l0 -5.640625l2.078125 0l0 -1.625l-2.75 0l0 -1.40625l2.75 0l0 -1.9375l1.40625 0q0.59375 0.078125 0.078125 0.453125l0 1.484375zm17.0 0.140625q-1.265625 7.421875 -3.046875 9.203125q-0.96875 0.96875 -2.0 0.96875q-1.1875 0 -1.859375 -0.671875q-1.78125 -1.78125 -1.78125 -4.453125q0 -3.265625 2.296875 -5.5625q2.53125 -2.53125 6.15625 -2.53125q3.265625 0 5.125 1.859375q2.078125 2.078125 2.078125 4.90625q0 3.03125 -1.921875 4.96875q-1.265625 1.265625 -3.859375 2.453125l-1.5625 -1.5625q2.59375 -0.8125 4.078125 -2.296875q1.40625 -1.421875 1.40625 -3.421875q0 -2.375 -1.546875 -3.9375q-1.5625 -1.546875 -4.90625 -1.40625l1.34375 0.671875q0.890625 0.375 0 0.8125zm-1.71875 -1.40625q-1.921875 0.4375 -3.328125 1.859375q-1.9375 1.921875 -1.9375 4.75q0 1.703125 1.109375 2.8125q0.234375 0.21875 0.671875 0.21875q0.453125 0 0.96875 -0.515625q1.703125 -1.703125 2.515625 -9.125zm22.5 -0.296875q-1.5625 4.296875 -3.5 6.828125q-2.4375 3.1875 -5.859375 5.34375l-1.78125 -1.40625q3.34375 -1.71875 5.640625 -4.453125q2.375 -2.828125 3.71875 -7.796875l2.0 0.890625q0.515625 0.296875 -0.21875 0.59375zm2.2929688 6.078125l0 -1.625l16.546875 0l0 1.625l-16.546875 0zm27.757812 1.71875q-3.9375 -2.015625 -6.453125 -2.671875l0 7.71875l-1.703125 0l0 -14.84375l1.484375 0q0.890625 0.0625 0.21875 0.59375l0 4.671875q3.640625 1.03125 7.34375 2.8125l-0.890625 1.71875zm-0.140625 -6.53125q-1.265625 -1.5625 -2.53125 -2.53125l0.96875 -0.734375q1.265625 0.953125 2.515625 2.515625l-0.953125 0.75zm1.78125 -1.421875q-0.96875 -1.25 -2.453125 -2.4375l0.96875 -0.75q1.25 0.890625 2.4375 2.453125l-0.953125 0.734375z" fill-rule="nonzero"></path></g></svg>

