<?xml version="1.0" standalone="yes"?>

<svg version="1.1" viewBox="0.0 0.0 960.0 720.0" fill="none" stroke="none" stroke-linecap="square" stroke-miterlimit="10" xmlns="http://www.w3.org/2000/svg" xmlns:xlink="http://www.w3.org/1999/xlink"><clipPath id="p.0"><path d="m0 0l960.0 0l0 720.0l-960.0 0l0 -720.0z" clip-rule="nonzero"></path></clipPath><g clip-path="url(#p.0)"><path fill="#000000" fill-opacity="0.0" d="m0 0l960.0 0l0 720.0l-960.0 0z" fill-rule="evenodd"></path><path fill="#d9ead3" d="m138.04987 305.24933l0 0c0 -75.91087 131.07129 -137.4488 292.75592 -137.4488l0 0c161.68463 0 292.75592 61.537933 292.75592 137.4488l0 0c0 75.91089 -131.07129 137.44882 -292.75592 137.44882l0 0c-161.68463 0 -292.75592 -61.537933 -292.75592 -137.44882z" fill-rule="evenodd"></path><path fill="#93c47d" d="m566.47766 360.0l0 0c0 -6.8970337 5.5911865 -12.48819 12.48822 -12.48819l0 0c3.3120728 0 6.4884644 1.3157043 8.830505 3.6577148c2.34198 2.34198 3.6576538 5.518402 3.6576538 8.830475l0 0c0 6.8970337 -5.5911255 12.48819 -12.488159 12.48819l0 0c-6.8970337 0 -12.48822 -5.591156 -12.48822 -12.48819z" fill-rule="evenodd"></path><path fill="#000000" fill-opacity="0.0" d="m148.75853 460.56168l247.52757 0l0 117.82675l-247.52757 0z" fill-rule="evenodd"></path><path fill="#000000" d="m161.83665 487.5598q7.203125 -1.859375 8.09375 -7.796875l-11.28125 0l0 -1.640625l11.359375 0l0.671875 -0.21875l1.328125 0.8125q0.453125 0.375 -0.140625 0.671875q-1.1875 7.421875 -8.6875 9.65625l-1.34375 -1.484375zm8.390625 -12.03125l-10.234375 0l0 -1.625l10.234375 0l0 1.625zm18.332031 3.34375q-3.9375 8.15625 -13.203125 8.609375q-0.375 0.96875 -0.75 0.15625l-0.59375 -1.9375q9.65625 -0.21875 12.984375 -7.9375l1.5625 1.109375zm-10.46875 0q-2.0 -1.859375 -3.78125 -3.046875l1.265625 -1.5625q1.5625 0.96875 3.9375 3.203125l-1.421875 1.40625zm24.714844 -2.828125q0.296875 0.375 -0.296875 0.59375q-0.59375 2.96875 -1.78125 5.421875l1.78125 1.1875l-1.109375 1.640625l-1.625 -1.1875q-2.15625 3.109375 -6.171875 5.125l-1.703125 -1.265625q4.453125 -1.859375 6.390625 -4.90625q-1.859375 -1.1875 -3.640625 -2.15625l0.890625 -1.328125q2.296875 1.03125 3.78125 1.921875q1.109375 -2.296875 1.34375 -4.078125l-5.421875 0q-1.40625 2.53125 -3.484375 4.609375l-1.421875 -0.96875q3.796875 -3.9375 4.984375 -8.3125l1.78125 0.734375q0.59375 0.296875 -0.296875 0.59375q-0.296875 0.890625 -0.75 1.71875l4.96875 0l0.828125 -0.296875l0.953125 0.953125zm-0.515625 -3.40625q1.265625 0.96875 2.59375 2.453125l-0.953125 0.734375q-1.34375 -1.40625 -2.609375 -2.453125l0.96875 -0.734375zm1.703125 -1.109375q1.1875 0.8125 2.453125 2.296875l-0.96875 0.8125q-1.328125 -1.484375 -2.4375 -2.375l0.953125 -0.734375zm4.015625 13.28125l3.109375 -0.078125q2.671875 -5.78125 4.09375 -11.796875l1.703125 0.59375q0.671875 0.4375 -0.15625 0.671875q-1.40625 5.265625 -3.78125 10.390625l7.71875 -0.375q-1.5625 -2.078125 -2.453125 -3.046875l1.484375 -1.03125q2.53125 2.734375 4.828125 6.453125l-1.625 1.109375l-1.1875 -1.921875l-12.46875 0.953125q-0.453125 0.75 -0.671875 0l-0.59375 -1.921875zm30.273438 1.78125q-3.484375 0 -5.78125 -2.234375l0.96875 -1.25q2.0 1.921875 4.8125 1.84375l4.09375 0l0 1.640625l-4.09375 0zm-10.609375 1.40625q-0.21875 -3.859375 -0.21875 -6.609375q0 -3.328125 0.8125 -7.9375l1.484375 0.375q0.8125 0.140625 0.078125 0.671875q-0.75 4.296875 -0.75 6.890625q0 2.90625 0.296875 6.46875l-1.703125 0.140625zm13.734375 -10.984375q-3.1875 -0.078125 -8.3125 0.453125l0 -1.5625q5.34375 -0.515625 8.3125 -0.453125l0 1.5625zm11.277344 -2.96875q-2.15625 3.046875 -4.234375 4.453125l9.35939 0q-2.4531403 -1.328125 -5.1250153 -4.453125zm-4.890625 4.90625q-1.046875 0.59375 -2.453125 1.328125l-0.75 -1.5625q5.046875 -2.140625 7.421875 -6.75l1.640625 0.21875q0.59375 0.234375 -0.078125 0.375l-0.140625 0.21875q3.3281403 4.09375 7.9375153 5.5l-0.75 1.625q-0.890625 -0.296875 -2.515625 -1.25l0 1.25l-4.3750153 0l0 2.53125l4.8125153 0l0 1.40625l-4.8125153 0l0 2.890625l6.8281403 0l0 1.421875l-15.14064 0l0 -1.421875l6.828125 0l0 -2.890625l-4.828125 0l0 -1.40625l4.828125 0l0 -2.53125l-4.453125 0l0 -0.953125zm19.812515 5.703125q3.640625 -3.328125 5.34375 -7.421875l-4.671875 0l0 -1.40625l5.046875 0l0 -3.703125l1.40625 0q0.59375 0.0625 0.078125 0.4375l0 3.265625l5.34375 0l0 1.40625l-4.90625 0q1.1875 3.5625 5.34375 7.421875l-1.03125 1.484375q-3.203125 -3.1875 -4.75 -6.453125l0 4.3125l2.140625 0l0 1.40625l-2.140625 0l0 3.640625l-1.484375 0l0 -3.640625l-1.9375 0l0 -1.40625l1.9375 0l0 -4.3125q-1.78125 3.9375 -4.609375 6.390625l-1.109375 -1.421875zm0.59375 -11.640625q-0.375 1.921875 -1.046875 3.625q0.59375 0.234375 0 0.53125l0 12.015625l-1.484375 0l0 -9.28125q-0.515625 1.125 -1.328125 1.9375l-1.046875 -1.34375q2.53125 -3.40625 3.5 -8.453125l1.625 0.59375q0.375 0.296875 -0.21875 0.375zm14.546875 14.46875q2.15625 -3.34375 3.78125 -8.6875q-1.625 0.21875 -3.1875 0.375l-0.15625 -1.640625q1.34375 0 3.71875 -0.21875q0.671875 -2.296875 1.109375 -4.671875l1.5625 0.515625q0.890625 0.375 -0.078125 0.671875q-0.4375 1.5625 -0.890625 3.34375q0.890625 -0.15625 1.859375 -0.15625q1.03125 0 1.5625 0.515625q0.890625 0.890625 0.890625 4.015625q0 4.296875 -1.265625 5.5625q-0.75 0.75 -1.703125 0.75q-1.421875 0 -2.828125 -1.640625l0.96875 -1.328125q1.1875 1.1875 1.78125 1.1875q0.375 0 0.671875 -0.296875q0.8125 -0.828125 0.8125 -4.53125q0 -2.078125 -0.453125 -2.53125q-0.21875 -0.21875 -0.890625 -0.21875q-0.65625 0 -1.84375 0.15625q-1.5625 5.484375 -3.71875 9.421875l-1.703125 -0.59375zm14.921875 -3.71875q-1.34375 -4.8125 -3.859375 -7.1875l1.328125 -0.96875q3.046875 3.109375 4.15625 7.5l-1.625 0.65625zm7.71875 3.046875l1.78125 0q3.703125 0 4.671875 -0.96875q0.8125 -0.8125 0.8125 -1.84375q0 -0.890625 -0.734375 -1.640625q-0.671875 -0.671875 -2.234375 -0.671875q-3.265625 0 -5.9375 3.203125l-1.484375 -0.15625l0.8125 -7.9375l1.5625 0.296875q0.75 0.296875 0 0.59375l-0.515625 4.828125q2.59375 -2.234375 5.9375 -2.234375q2.0 0 3.1875 1.1875q0.96875 0.96875 0.96875 2.53125q0 1.703125 -1.265625 2.96875q-1.484375 1.484375 -5.640625 1.484375l-1.328125 0l-0.59375 -1.640625zm-0.890625 -14.171875q2.078125 0.515625 5.640625 1.78125l-0.75 1.484375q-2.671875 -1.109375 -5.5625 -1.9375l0.671875 -1.328125zm18.023438 6.078125l-0.515625 -1.109375l1.046875 -0.4375q0.8125 1.109375 1.546875 2.671875l-1.25 0.65625l-0.296875 -0.8125l-5.046875 0.515625q-0.375 0.59375 -0.671875 0.078125l-0.21875 -1.40625l1.25 0l1.34375 -1.40625q-0.96875 -0.890625 -2.296875 -1.78125l0.8125 -1.125q0.375 0.234375 0.734375 0.453125l1.859375 -2.53125l1.1875 0.75q0.078125 0.296875 -0.375 0.375l-1.84375 2.078125q0.4375 0.359375 0.890625 0.65625l2.0 -2.4375l1.109375 0.890625q0.078125 0.296875 -0.375 0.359375l-3.40625 3.71875l2.515625 -0.15625zm-0.890625 8.984375q3.125 -0.59375 5.28125 -1.78125q-1.046875 -1.265625 -1.640625 -3.34375l-4.078125 0l0 0.890625q0 4.6875 -3.484375 5.953125l-0.890625 -1.421875q2.890625 -0.8125 2.890625 -4.828125l0 -0.59375l-2.59375 0l0 -1.40625l7.78125 0q-0.59375 -4.75 -0.59375 -9.203125l1.125 0.078125q1.1875 0.078125 0.359375 0.515625q-0.0625 4.234375 0.59375 8.609375l3.421875 0q-0.453125 -0.375 -1.109375 -0.890625l1.03125 -0.671875q0.75 0.53125 1.40625 1.125l-0.65625 0.4375l2.671875 0l0 1.40625l-6.46875 0q0.375 1.34375 1.421875 2.609375q1.328125 -1.046875 2.515625 -2.375l0.96875 0.953125q0.375 0.453125 -0.296875 0.453125q-1.109375 1.109375 -2.296875 1.921875q1.40625 1.265625 2.515625 1.046875q0.375 -0.078125 0.59375 -1.640625l1.484375 0.75q-0.375 2.296875 -1.5625 2.453125q-1.921875 0.296875 -4.296875 -1.78125q-2.59375 1.484375 -5.5625 2.078125l-0.53125 -1.34375zm10.625 -7.640625l-0.375 -0.8125l-4.375 0.515625q-0.296875 0.515625 -0.59375 0.140625l-0.375 -1.328125l0.8125 0l1.046875 -1.109375q-0.96875 -0.96875 -2.015625 -1.78125l0.828125 -1.046875l0.515625 0.375l1.921875 -2.75l1.1875 0.75q0.078125 0.296875 -0.359375 0.359375l-1.9375 2.3125l0.8125 0.734375l2.078125 -2.453125l1.1875 0.890625q0.078125 0.296875 -0.4375 0.375l-3.1875 3.265625l2.375 -0.140625l-0.59375 -1.046875l1.109375 -0.515625q0.96875 1.1875 1.703125 2.671875l-1.328125 0.59375zm-8.546875 6.375q-0.953125 -0.8125 -2.4375 -1.625l0.8125 -1.34375q1.5625 0.828125 2.59375 1.5625l-0.96875 1.40625zm17.375 -1.1875q5.5625 -0.0625 7.34375 -1.84375q1.109375 -1.125 1.109375 -2.75q0 -1.703125 -1.1875 -2.890625q-0.890625 -0.890625 -3.109375 -0.890625q-1.859375 0 -4.375 0.890625q-1.9375 0.65625 -4.234375 1.703125l-0.8125 -1.9375l4.15625 -1.1875q3.625 -1.03125 5.484375 -1.03125q2.96875 0 4.375 1.40625q1.421875 1.40625 1.421875 3.78125q0 2.53125 -1.34375 3.859375q-2.515625 2.53125 -8.390625 2.609375l-0.4375 -1.71875zm13.0625 2.234375q2.15625 -3.34375 3.78125 -8.6875q-1.625 0.21875 -3.1875 0.375l-0.15625 -1.640625q1.34375 0 3.71875 -0.21875q0.671875 -2.296875 1.109375 -4.671875l1.5625 0.515625q0.890625 0.375 -0.078125 0.671875q-0.4375 1.5625 -0.890625 3.34375q0.890625 -0.15625 1.859375 -0.15625q1.03125 0 1.5625 0.515625q0.890625 0.890625 0.890625 4.015625q0 4.296875 -1.265625 5.5625q-0.75 0.75 -1.703125 0.75q-1.421875 0 -2.828125 -1.640625l0.96875 -1.328125q1.1875 1.1875 1.78125 1.1875q0.375 0 0.671875 -0.296875q0.8125 -0.828125 0.8125 -4.53125q0 -2.078125 -0.453125 -2.53125q-0.21875 -0.21875 -0.890625 -0.21875q-0.65625 0 -1.84375 0.15625q-1.5625 5.484375 -3.71875 9.421875l-1.703125 -0.59375zm14.921875 -3.71875q-1.34375 -4.8125 -3.859375 -7.1875l1.328125 -0.96875q3.046875 3.109375 4.15625 7.5l-1.625 0.65625z" fill-rule="nonzero"></path><path fill="#000000" d="m168.00853 499.01294q-1.265625 7.421875 -3.046875 9.203125q-0.96875 0.96875 -2.0 0.96875q-1.1875 0 -1.859375 -0.671875q-1.78125 -1.78125 -1.78125 -4.453125q0 -3.265625 2.296875 -5.5625q2.53125 -2.53125 6.15625 -2.53125q3.265625 0 5.125 1.859375q2.078125 2.078125 2.078125 4.90625q0 3.03125 -1.921875 4.96875q-1.265625 1.265625 -3.859375 2.453125l-1.5625 -1.5625q2.59375 -0.8125 4.078125 -2.296875q1.40625 -1.421875 1.40625 -3.421875q0 -2.375 -1.546875 -3.9375q-1.5625 -1.546875 -4.90625 -1.40625l1.34375 0.671875q0.890625 0.375 0 0.8125zm-1.71875 -1.40625q-1.921875 0.4375 -3.328125 1.859375q-1.9375 1.921875 -1.9375 4.75q0 1.703125 1.109375 2.8125q0.234375 0.21875 0.671875 0.21875q0.453125 0 0.96875 -0.515625q1.703125 -1.703125 2.515625 -9.125zm19.0 4.453125l-7.421875 0l0 -1.640625l15.21875 0l0 1.640625l-6.078125 0l0 0.96875q0 4.671875 -3.34375 7.71875l-1.484375 -1.109375q3.109375 -2.453125 3.109375 -6.609375l0 -0.96875zm-4.75 -4.53125l0 -1.625l9.140625 0l0 1.625l-9.140625 0zm10.09375 -3.046875q0.96875 0.96875 2.078125 2.609375l-1.03125 0.734375q-1.046875 -1.484375 -2.078125 -2.671875l1.03125 -0.671875zm1.78125 -0.953125q0.96875 1.03125 2.078125 2.515625l-1.03125 0.75q-1.1875 -1.640625 -2.078125 -2.53125l1.03125 -0.734375zm3.4921875 9.859375l0 -1.625l16.546875 0l0 1.625l-16.546875 0zm24.648438 -7.71875q-0.296875 0.890625 -0.75 1.71875l4.96875 0l0.828125 -0.296875l0.953125 0.953125q0.296875 0.375 -0.296875 0.59375q-0.59375 2.96875 -1.78125 5.421875l1.78125 1.1875l-1.109375 1.640625l-1.625 -1.1875q-2.15625 3.109375 -6.171875 5.125l-1.703125 -1.265625q4.453125 -1.859375 6.390625 -4.90625q-1.859375 -1.1875 -3.640625 -2.15625l0.890625 -1.328125q2.296875 1.03125 3.78125 1.921875q1.109375 -2.296875 1.34375 -4.078125l-5.421875 0q-1.40625 2.53125 -3.484375 4.609375l-1.421875 -0.96875q3.796875 -3.9375 4.984375 -8.3125l1.78125 0.734375q0.59375 0.296875 -0.296875 0.59375zm13.125 5.203125q0.890625 -0.296875 1.71875 -0.296875q0.953125 0 1.546875 0.59375q0.453125 0.4375 0.53125 1.625q2.21875 -0.8125 5.046875 -1.703125l0.515625 1.78125q-2.890625 0.453125 -5.421875 1.40625l0 3.265625l-1.484375 0l0 -2.671875q-2.21875 1.046875 -2.890625 1.71875q-0.8125 0.8125 -0.8125 1.625q0 0.453125 0.4375 0.890625q0.515625 0.53125 2.0 0.53125l6.234375 0l0 1.40625l-6.296875 0q-2.375 0 -3.34375 -0.96875q-0.75 -0.75 -0.75 -1.859375q0 -1.1875 0.96875 -2.15625q1.484375 -1.484375 4.375 -2.671875q-0.0625 -0.890625 -0.359375 -1.1875q-0.296875 -0.296875 -1.265625 -0.296875q-1.484375 0 -4.53125 2.671875l-1.265625 -1.25q3.5 -2.15625 4.75 -4.75q-2.078125 0.140625 -4.15625 0.296875l-0.296875 -1.484375q2.671875 -0.078125 5.046875 -0.234375q0.375 -0.890625 0.890625 -2.96875l1.421875 0.375q0.734375 0.296875 0 0.59375q-0.296875 0.96875 -0.671875 1.9375q2.671875 -0.234375 5.125 -0.59375l0.21875 1.546875q-2.890625 0.234375 -5.796875 0.453125q-0.734375 1.484375 -1.484375 2.375zm13.285156 -4.375l-1.484375 0l0 -1.421875l9.578125 0l0 1.421875l-2.21875 0l0 14.390625l-1.484375 0l0 -3.78125q-3.125 1.109375 -5.28125 1.625q-0.359375 0.53125 -0.4375 0.234375l-0.453125 -1.859375q0.890625 -0.15625 1.78125 -0.296875l0 -10.3125zm6.390625 12.90625q2.296875 -1.5625 3.5625153 -3.265625q-1.8593903 -2.75 -2.3750153 -7.34375l-0.890625 0l0 -1.40625l6.3750153 0l0.296875 -0.375l1.265625 1.1875l-0.375 0.21875q-0.515625 4.53125 -2.375 7.796875q1.1875 1.5625 3.125 2.75l-0.890625 1.5625q-1.9375 -1.5 -3.1875 -3.046875q-1.484375 1.703125 -3.5000153 3.34375l-1.03125 -1.421875zm4.4531403 -4.53125q1.1875 -1.78125 1.78125 -6.078125l-3.6406403 0q0.37501526 3.484375 1.8593903 6.078125zm-9.35939 -8.375l0 2.515625l2.90625 0l0 -2.515625l-2.90625 0zm0 3.703125l0 2.453125l2.90625 0l0 -2.453125l-2.90625 0zm0 3.640625l0 2.671875q1.421875 -0.296875 2.90625 -0.8125l0 -1.859375l-2.90625 0zm24.875015 -1.265625q0 -5.046875 -0.296875 -7.796875l1.484375 0q0.8125 0.078125 0.140625 0.59375q0.21875 2.375 0.21875 7.28125q0 5.5625 -5.265625 8.390625l-1.265625 -1.265625q4.984375 -2.375 4.984375 -7.203125zm-5.046875 2.453125q-0.671875 0.515625 -1.484375 0.515625q-0.53125 0 -0.96875 -0.4375q-0.515625 -0.53125 -0.515625 -4.453125q0 -2.96875 0.296875 -5.421875l1.625 0q0.59375 0.21875 0 0.515625q-0.375 1.78125 -0.375 4.90625q0 3.1875 0.296875 3.1875q0.234375 0 0.59375 -0.296875q0.53125 -0.453125 1.71875 -2.0l1.109375 1.109375q-1.265625 1.5625 -2.296875 2.375zm13.207031 -8.984375q0.59375 0.078125 0.078125 0.453125l0 4.0l4.375 0l0 -5.9375l1.40625 0q0.59375 0.078125 0.078125 0.453125l0 5.484375l4.296875 0l0 -4.375l1.421875 0q0.59375 0.078125 0.0625 0.4375l0 6.015625l-1.484375 0l0 -0.671875l-4.296875 0l0 6.390625l4.890625 0l0 -4.53125l1.421875 0q0.59375 0.078125 0.0625 0.453125l0 6.3125l-1.484375 0l0 -0.828125l-11.5 0l0 1.046875l-1.484375 0l0 -7.0625l1.40625 0q0.59375 0.078125 0.078125 0.453125l0 4.15625l5.125 0l0 -6.390625l-4.375 0l0 0.828125l-1.484375 0l0 -6.6875l1.40625 0zm28.578125 10.765625q-3.203125 3.484375 -6.90625 3.484375q-2.671875 0 -3.9375 -1.265625q-0.96875 -0.953125 -0.96875 -3.703125l0 -9.953125l1.5625 0q0.671875 0.15625 0.15625 0.59375l0 9.359375q0 1.859375 0.65625 2.515625q0.828125 0.828125 2.453125 0.828125q2.890625 0 5.859375 -3.265625l1.125 1.40625zm6.296875 4.453125q-1.78125 -2.0 -3.703125 -3.265625l1.109375 -1.484375q2.375 1.40625 3.9375 3.1875l-1.34375 1.5625zm18.492188 -16.25q0.8125 0.0625 0.0625 0.59375l0.234375 4.15625l5.484375 -0.59375l0.21875 1.40625l-5.484375 0.59375q0.515625 5.125 2.890625 6.96875q1.109375 0.890625 1.265625 -0.4375l0.140625 -1.34375l1.5625 0.828125l-0.21875 1.109375q-0.671875 3.34375 -3.34375 1.484375q-3.34375 -2.296875 -3.859375 -8.46875l-4.15625 0.375l-0.078125 -1.40625l4.015625 -0.375l-0.21875 -5.046875l1.484375 0.15625zm-10.390625 7.421875q2.671875 -2.15625 3.921875 -7.71875l1.640625 0.515625q0.4375 0.296875 -0.21875 0.375q-0.234375 1.40625 -1.34375 4.0q0.890625 0.15625 0.21875 0.515625l0 10.625l-1.484375 0l0 -8.84375q-0.953125 1.421875 -1.625 1.9375l-1.109375 -1.40625zm12.6875 -6.90625q1.40625 1.03125 2.15625 1.921875l-1.34375 1.265625q-0.671875 -0.96875 -2.0 -2.0l1.1875 -1.1875zm18.546875 11.203125q1.1875 1.484375 4.453125 2.671875l-0.734375 1.640625q-5.796875 -1.9375 -7.34375 -8.171875l-0.453125 0q-0.734375 1.046875 -1.5625 1.859375l0 4.15625l4.234375 -0.8125l0.21875 1.25q-4.0 0.96875 -7.859375 1.71875q-0.21875 0.671875 -0.453125 0.21875l-0.515625 -1.78125l2.890625 -0.375l0 -3.1875q-1.921875 1.328125 -4.296875 2.15625l-0.75 -1.484375q3.71875 -1.046875 6.3125 -3.71875l-5.9375 0l0 -1.40625l7.203125 0l0 -1.34375l-5.34375 0l0 -1.40625l5.34375 0l0 -1.328125l-6.3125 0l0 -1.421875l6.3125 0l0 -1.78125l1.40625 0q0.59375 0.078125 0.078125 0.453125l0 1.328125l6.3125 0l0 1.421875l-6.3125 0l0 1.328125l5.34375 0l0 1.40625l-5.34375 0l0 1.34375l7.203125 0l0 1.40625l-6.3125 0q0.4375 1.40625 1.484375 2.96875q1.40625 -1.1875 2.671875 -2.59375l1.109375 1.109375q0.078125 0.375 -0.375 0.21875q-1.25 1.1875 -2.671875 2.15625zm10.984375 -11.953125q-0.296875 1.9375 -1.03125 4.234375q0.671875 0.078125 0.21875 0.515625l0 11.515625l-1.484375 0l0 -9.203125q-0.515625 0.8125 -0.96875 1.328125l-1.1875 -0.890625q2.53125 -3.046875 2.96875 -8.234375l1.71875 0.375q0.296875 0.296875 -0.234375 0.359375zm7.28125 2.75l0 1.40625l3.640625 0l0 8.765625l-6.90625 0l0 -8.765625l1.78125 0l0 -1.40625l-5.34375 0l0 -1.40625l5.34375 0l0 -2.078125l1.40625 0q0.59375 0.078125 0.078125 0.4375l0 1.640625l4.828125 0l0 1.40625l-4.828125 0zm-2.0 2.59375l0 1.34375l4.375 0l0 -1.34375l-4.375 0zm0 2.53125l0 1.265625l4.375 0l0 -1.265625l-4.375 0zm0 2.453125l0 1.40625l4.375 0l0 -1.40625l-4.375 0zm-4.3125 5.9375l0 -11.875l1.40625 0q0.59375 0.0625 0.078125 0.4375l0 9.359375l10.25 0l0 1.40625l-10.25 0l0 0.671875l-1.484375 0z" fill-rule="nonzero"></path><path fill="#000000" d="m162.66478 516.63794l1.546875 0q0.828125 0.140625 0.15625 0.59375l0.140625 3.5625q0.078125 1.5625 0.53125 2.515625q2.078125 -0.890625 5.5625 -1.84375l0.734375 1.921875q-7.046875 1.265625 -9.421875 3.640625q-0.8125 0.8125 -0.8125 1.703125q0 0.671875 0.515625 1.1875q0.515625 0.515625 2.15625 0.515625l7.125 0l0 1.640625l-7.203125 0q-2.453125 0 -3.40625 -0.96875q-0.96875 -0.96875 -0.96875 -2.21875q0 -1.640625 1.1875 -2.828125q0.890625 -0.890625 2.96875 -2.078125q-0.453125 -1.109375 -0.515625 -2.453125l-0.296875 -4.890625zm18.765625 10.984375q-0.890625 0.515625 -1.84375 0.515625q-1.265625 0 -1.9375 -0.671875q-0.890625 -0.890625 -0.890625 -2.0q0 -1.1875 0.890625 -2.078125q0.890625 -0.890625 2.234375 -0.890625q0.890625 0 1.703125 0.21875l0 -1.625l-8.171875 0.515625l-0.296875 -1.5625l8.46875 -0.359375l0 -3.5l1.328125 0q0.828125 0.15625 0.15625 0.59375l0 2.828125l6.3125 -0.453125l0 1.5625l-6.3125 0.296875l0 2.828125q0.296875 1.328125 0.296875 2.96875q-0.078125 3.78125 -4.234375 6.375l-1.40625 -1.03125q3.703125 -2.15625 3.703125 -4.53125zm-1.40625 -3.859375q-0.8125 0 -1.328125 0.515625q-0.453125 0.453125 -0.453125 1.1875q0 0.671875 0.375 1.046875q0.375 0.359375 1.1875 0.359375q0.8125 0 1.328125 -0.515625q0.453125 -0.4375 0.453125 -1.109375q0 -0.671875 -0.453125 -1.109375q-0.359375 -0.375 -1.109375 -0.375zm21.007812 7.34375q1.1875 -0.140625 2.0 -0.96875q0.890625 -0.890625 0.890625 -2.375q0 -1.625 -0.96875 -2.59375q-0.953125 -0.96875 -3.03125 -0.96875q-2.453125 0 -3.796875 0.96875q-1.25 0.890625 -3.265625 3.1875l-1.25 -1.109375q5.34375 -5.34375 8.078125 -8.90625q-2.4375 0.296875 -4.890625 0.515625l-0.515625 -1.703125q3.625 0 6.453125 -0.375l0.671875 -0.296875l0.8125 0.828125q0.8125 0.734375 -0.375 0.953125q-2.21875 2.53125 -4.453125 4.984375q1.5625 -0.375 2.59375 -0.375q2.828125 0 4.15625 1.328125q1.34375 1.34375 1.34375 3.421875q0 2.15625 -1.1875 3.34375q-1.78125 1.78125 -4.53125 1.78125q-2.59375 0 -3.78125 -1.1875q-0.96875 -0.96875 -0.96875 -2.3125q0 -0.890625 0.671875 -1.546875q0.734375 -0.75 1.703125 -0.75q1.34375 0 2.234375 0.890625q1.03125 1.046875 1.40625 3.265625zm-1.484375 0.21875q-0.21875 -1.921875 -0.890625 -2.59375q-0.515625 -0.515625 -1.046875 -0.515625q-0.59375 0 -0.890625 0.296875q-0.359375 0.375 -0.359375 0.8125q0 0.671875 0.59375 1.265625q0.734375 0.734375 1.921875 0.734375q0.296875 0 0.671875 0z" fill-rule="nonzero"></path><path fill="#93c47d" d="m561.0551 229.21523l0 0c0 -6.8970337 5.5911865 -12.48819 12.48822 -12.48819l0 0c3.3120728 0 6.4884644 1.3157196 8.830444 3.6576996c2.34198 2.3419952 3.6577148 5.5184174 3.6577148 8.83049l0 0c0 6.8970337 -5.5911255 12.48819 -12.488159 12.48819l0 0c-6.8970337 0 -12.48822 -5.591156 -12.48822 -12.48819z" fill-rule="evenodd"></path><path fill="#93c47d" d="m278.75854 351.13254l0 0c0 -6.8970337 5.5911255 -12.48819 12.488159 -12.48819l0 0c3.3121033 0 6.488495 1.3157349 8.830505 3.6577148c2.34198 2.34198 3.6576843 5.518402 3.6576843 8.830475l0 0c0 6.8970337 -5.5911255 12.48819 -12.48819 12.48819l0 0c-6.8970337 0 -12.488159 -5.591156 -12.488159 -12.48819z" fill-rule="evenodd"></path><path fill="#93c47d" d="m198.75853 338.9685l0 0c0 -6.8970337 5.591156 -12.48819 12.48819 -12.48819l0 0c3.3120728 0 6.488495 1.3157043 8.83049 3.6577148c2.34198 2.34198 3.6576996 5.518402 3.6576996 8.830475l0 0c0 6.8970337 -5.591156 12.48819 -12.48819 12.48819l0 0c-6.8970337 0 -12.48819 -5.591156 -12.48819 -12.48819z" fill-rule="evenodd"></path><path fill="#93c47d" d="m378.1811 315.9449l0 0c0 -6.8970337 5.591156 -12.48819 12.48819 -12.48819l0 0c3.3120728 0 6.488495 1.3157043 8.830505 3.6577148c2.34198 2.34198 3.6576843 5.518402 3.6576843 8.830475l0 0c0 6.8970337 -5.591156 12.48819 -12.48819 12.48819l0 0c-6.8970337 0 -12.48819 -5.591156 -12.48819 -12.48819z" fill-rule="evenodd"></path><path fill="#93c47d" d="m438.2126 265.99213l0 0c0 -6.8970337 5.591156 -12.48819 12.48819 -12.48819l0 0c3.3120728 0 6.488495 1.3157196 8.830505 3.6577148c2.34198 2.34198 3.6576843 5.518402 3.6576843 8.830475l0 0c0 6.8970337 -5.591156 12.48819 -12.48819 12.48819l0 0c-6.8970337 0 -12.48819 -5.591156 -12.48819 -12.48819z" fill-rule="evenodd"></path><path fill="#93c47d" d="m388.75854 403.6299l0 0c0 -6.8970337 5.5911255 -12.48819 12.488159 -12.48819l0 0c3.3121033 0 6.488495 1.3157349 8.830505 3.6577148c2.34198 2.34198 3.6576843 5.518402 3.6576843 8.830475l0 0c0 6.8970337 -5.5911255 12.48819 -12.48819 12.48819l0 0c-6.8970337 0 -12.488159 -5.591156 -12.488159 -12.48819z" fill-rule="evenodd"></path><path fill="#93c47d" d="m303.7349 229.21523l0 0c0 -6.8970337 5.591156 -12.48819 12.48819 -12.48819l0 0c3.3120728 0 6.488495 1.3157196 8.830505 3.6576996c2.34198 2.3419952 3.6576843 5.5184174 3.6576843 8.83049l0 0c0 6.8970337 -5.5911255 12.48819 -12.48819 12.48819l0 0c-6.8970337 0 -12.48819 -5.591156 -12.48819 -12.48819z" fill-rule="evenodd"></path><path fill="#93c47d" d="m476.69553 354.9685l0 0c0 -6.8970337 5.591156 -12.48819 12.48819 -12.48819l0 0c3.3120728 0 6.488495 1.3157043 8.830505 3.6577148c2.34198 2.34198 3.6576843 5.518402 3.6576843 8.830475l0 0c0 6.8970337 -5.591156 12.48819 -12.48819 12.48819l0 0c-6.8970337 0 -12.48819 -5.591156 -12.48819 -12.48819z" fill-rule="evenodd"></path><path fill="#93c47d" d="m605.7507 297.99213l0 0c0 -6.8970337 5.5911255 -12.48819 12.488159 -12.48819l0 0c3.3120728 0 6.4885254 1.3157043 8.830505 3.6577148c2.34198 2.34198 3.6577148 5.518402 3.6577148 8.830475l0 0c0 6.8970337 -5.5911865 12.48819 -12.48822 12.48819l0 0c-6.8970337 0 -12.488159 -5.591156 -12.488159 -12.48819z" fill-rule="evenodd"></path></g></svg>

