<?xml version="1.0" standalone="yes"?>

<svg version="1.1" viewBox="0.0 0.0 578.5748031496063 267.5223097112861" fill="none" stroke="none" stroke-linecap="square" stroke-miterlimit="10" xmlns="http://www.w3.org/2000/svg" xmlns:xlink="http://www.w3.org/1999/xlink"><clipPath id="p.0"><path d="m0 0l578.5748 0l0 267.5223l-578.5748 0l0 -267.5223z" clip-rule="nonzero"></path></clipPath><g clip-path="url(#p.0)"><path fill="#000000" fill-opacity="0.0" d="m0 0l578.5748 0l0 267.5223l-578.5748 0z" fill-rule="evenodd"></path><path fill="#cfe2f3" d="m183.05511 120.00787l0 0c0 -57.028835 46.731598 -103.25984 104.37796 -103.25984l0 0c27.68274 0 54.23169 10.879131 73.806366 30.244106c19.574646 19.364979 30.571594 45.62952 30.571594 73.01573l0 0c0 57.02884 -46.731598 103.25984 -104.37796 103.25984l0 0c-57.646362 0 -104.37796 -46.231003 -104.37796 -103.25984z" fill-rule="evenodd"></path><path stroke="#000000" stroke-width="1.0" stroke-linejoin="round" stroke-linecap="butt" d="m183.05511 120.00787l0 0c0 -57.028835 46.731598 -103.25984 104.37796 -103.25984l0 0c27.68274 0 54.23169 10.879131 73.806366 30.244106c19.574646 19.364979 30.571594 45.62952 30.571594 73.01573l0 0c0 57.02884 -46.731598 103.25984 -104.37796 103.25984l0 0c-57.646362 0 -104.37796 -46.231003 -104.37796 -103.25984z" fill-rule="evenodd"></path><path fill="#000000" d="m302.55026 106.85526l-0.84375 3.09375l-6.84375 0l-5.15625 20.484367q-3.421875 13.546875 -6.890625 20.953125q-4.921875 10.453125 -10.59375 14.4375q-4.3125 3.046875 -8.625 3.046875q-2.8125 0 -4.78125 -1.6875q-1.453125 -1.171875 -1.453125 -3.046875q0 -1.5 1.203125 -2.609375q1.1875 -1.09375 2.921875 -1.09375q1.265625 0 2.140625 0.796875q0.859375 0.796875 0.859375 1.828125q0 1.03125 -0.984375 1.921875q-0.75 0.65625 -0.75 0.984375q0 0.421875 0.328125 0.65625q0.421875 0.328125 1.3125 0.328125q2.015625 0 4.25 -1.265625q2.21875 -1.265625 3.953125 -3.78125q1.734375 -2.5 3.28125 -7.234375q0.65625 -1.96875 3.515625 -12.984375l8.15625 -31.734367l-8.15625 0l0.65625 -3.09375q3.890625 0 5.4375 -0.53125q1.546875 -0.546875 2.828125 -2.0625q1.296875 -1.53125 3.359375 -5.703125q2.765625 -5.625 5.296875 -8.71875q3.46875 -4.171875 7.28125 -6.25q3.828125 -2.09375 7.203125 -2.09375q3.5625 0 5.71875 1.8125q2.15625 1.796875 2.15625 3.90625q0 1.640625 -1.078125 2.765625q-1.078125 1.125 -2.765625 1.125q-1.453125 0 -2.375 -0.84375q-0.90625 -0.84375 -0.90625 -2.015625q0 -0.75 0.609375 -1.84375q0.609375 -1.109375 0.609375 -1.484375q0 -0.65625 -0.421875 -0.984375q-0.609375 -0.46875 -1.78125 -0.46875q-2.953125 0 -5.296875 1.875q-3.140625 2.484375 -5.625 7.78125q-1.265625 2.765625 -4.640625 13.734375l6.890625 0z" fill-rule="nonzero"></path><path fill="#000000" fill-opacity="0.0" d="m8.362205 78.14173l183.05513 0" fill-rule="evenodd"></path><path stroke="#000000" stroke-width="4.0" stroke-linejoin="round" stroke-linecap="butt" d="m8.362205 78.14173l159.05513 0" fill-rule="evenodd"></path><path fill="#000000" stroke="#000000" stroke-width="4.0" stroke-linecap="butt" d="m167.41733 84.748665l18.15239 -6.6069336l-18.15239 -6.606926z" fill-rule="evenodd"></path><path fill="#000000" fill-opacity="0.0" d="m381.57217 71.81628l183.05515 0" fill-rule="evenodd"></path><path stroke="#000000" stroke-width="4.0" stroke-linejoin="round" stroke-linecap="butt" d="m381.57217 71.81628l159.05515 0" fill-rule="evenodd"></path><path fill="#000000" stroke="#000000" stroke-width="4.0" stroke-linecap="butt" d="m540.6273 78.4232l18.152344 -6.606926l-18.152344 -6.6069336z" fill-rule="evenodd"></path><path fill="#000000" fill-opacity="0.0" d="m183.05511 160.0l-183.05511 0" fill-rule="evenodd"></path><path stroke="#ff0000" stroke-width="4.0" stroke-linejoin="round" stroke-linecap="butt" d="m183.05511 160.0l-159.05511 0" fill-rule="evenodd"></path><path fill="#ff0000" stroke="#ff0000" stroke-width="4.0" stroke-linecap="butt" d="m24.0 153.39307l-18.152391 6.6069336l18.152391 6.6069336z" fill-rule="evenodd"></path><path fill="#000000" fill-opacity="0.0" d="m574.86615 160.0l-183.05511 0" fill-rule="evenodd"></path><path stroke="#ff0000" stroke-width="4.0" stroke-linejoin="round" stroke-linecap="butt" d="m574.86615 160.0l-159.05511 0" fill-rule="evenodd"></path><path fill="#ff0000" stroke="#ff0000" stroke-width="4.0" stroke-linecap="butt" d="m415.81104 153.39307l-18.152405 6.6069336l18.152405 6.6069336z" fill-rule="evenodd"></path><path fill="#000000" fill-opacity="0.0" d="m71.9895 0l66.99213 0l0 78.14173l-66.99213 0z" fill-rule="evenodd"></path><path fill="#000000" d="m89.31763 33.861248q1.140625 1.21875 1.734375 2.4375q0.421875 0.84375 1.375 4.4375l2.0625 -3.09375q0.828125 -1.125 2.0 -2.140625q1.171875 -1.03125 2.0625 -1.40625q0.5625 -0.234375 1.234375 -0.234375q1.015625 0 1.609375 0.546875q0.59375 0.53125 0.59375 1.3125q0 0.890625 -0.34375 1.21875q-0.65625 0.578125 -1.5 0.578125q-0.5 0 -1.0625 -0.203125q-1.09375 -0.375 -1.46875 -0.375q-0.5625 0 -1.34375 0.65625q-1.453125 1.21875 -3.46875 4.703125l1.921875 8.0625q0.453125 1.859375 0.75 2.21875q0.3125 0.359375 0.609375 0.359375q0.5 0 1.15625 -0.53125q1.28125 -1.078125 2.203125 -2.8125l0.8125 0.421875q-1.46875 2.765625 -3.75 4.59375q-1.28125 1.03125 -2.171875 1.03125q-1.3125 0 -2.09375 -1.484375q-0.484375 -0.90625 -2.03125 -7.875q-3.65625 6.359375 -5.859375 8.1875q-1.4375 1.171875 -2.765625 1.171875q-0.953125 0 -1.71875 -0.6875q-0.5625 -0.515625 -0.5625 -1.375q0 -0.78125 0.515625 -1.296875q0.515625 -0.515625 1.265625 -0.515625q0.75 0 1.59375 0.75q0.609375 0.546875 0.9375 0.546875q0.28125 0 0.734375 -0.375q1.09375 -0.890625 2.984375 -3.84375q1.90625 -2.953125 2.5 -4.265625q-1.453125 -5.703125 -1.578125 -6.03125q-0.53125 -1.515625 -1.40625 -2.140625q-0.859375 -0.640625 -2.546875 -0.640625q-0.546875 0 -1.25 0.046875l0 -0.84375l6.265625 -1.109375z" fill-rule="nonzero"></path><path fill="#000000" fill-opacity="0.0" d="m449.84253 0l66.99213 0l0 78.14173l-66.99213 0z" fill-rule="evenodd"></path><path fill="#000000" d="m466.5144 33.861248q0.796875 1.359375 1.09375 2.546875q0.3125 1.1875 0.609375 4.65625l1.03125 11.53125q1.40625 -1.6875 4.078125 -5.34375q1.296875 -1.78125 3.1875 -4.859375q1.15625 -1.875 1.40625 -2.625q0.140625 -0.375 0.140625 -0.765625q0 -0.265625 -0.171875 -0.421875q-0.15625 -0.171875 -0.84375 -0.390625q-0.6875 -0.21875 -1.15625 -0.8125q-0.453125 -0.609375 -0.453125 -1.375q0 -0.96875 0.5625 -1.546875q0.5625 -0.59375 1.40625 -0.59375q1.03125 0 1.75 0.859375q0.734375 0.859375 0.734375 2.359375q0 1.84375 -1.265625 4.234375q-1.265625 2.375 -4.875 7.296875q-3.609375 4.921875 -8.734375 10.734375q-3.546875 4.015625 -5.265625 5.046879q-1.703125 1.046875 -2.921875 1.046875q-0.734375 0 -1.28125 -0.546875q-0.546875 -0.546875 -0.546875 -1.2812538q0 -0.90625 0.765625 -1.65625q0.75 -0.75 1.640625 -0.75q0.46875 0 0.78125 0.203125q0.1875 0.125 0.421875 0.671875q0.21875 0.546875 0.40625 0.734375q0.109375 0.125 0.28125 0.125q0.140625 0 0.484375 -0.234375q1.296875 -0.796875 3.0 -2.53125q2.25 -2.296875 3.328125 -3.75l-1.3125 -14.875q-0.328125 -3.671875 -0.984375 -4.46875q-0.65625 -0.796875 -2.203125 -0.796875q-0.484375 0 -1.75 0.140625l-0.21875 -0.875l6.875 -1.6875z" fill-rule="nonzero"></path><path fill="#000000" fill-opacity="0.0" d="m456.9134 145.12599l66.99213 0l0 78.14172l-66.99213 0z" fill-rule="evenodd"></path><path fill="#ff0000" d="m481.46027 170.12785l-3.640625 12.5625l2.984375 0q3.1875 0 4.609375 -0.96875q1.4375 -0.96875 2.46875 -3.59375l0.859375 0l-3.25 11.53125l-0.9375 0q0.421875 -1.453125 0.421875 -2.484375q0 -1.015625 -0.421875 -1.625q-0.40625 -0.609375 -1.125 -0.890625q-0.703125 -0.296875 -3.0 -0.296875l-3.03125 0l-3.0625 10.515625q-0.453125 1.53125 -0.453125 2.328125q0 0.609375 0.59375 1.078125q0.390625 0.328125 1.984375 0.328125l2.8125 0q4.578125 0 7.328125 -1.609375q2.75 -1.625 4.9375 -5.640625l0.859375 0l-3.0 8.84375l-24.5625 0l0.296875 -0.875q1.84375 -0.046875 2.46875 -0.328125q0.9375 -0.421875 1.359375 -1.078125q0.640625 -0.953125 1.5 -4.03125l5.578125 -19.171875q0.65625 -2.3125 0.65625 -3.53125q0 -0.890625 -0.625 -1.390625q-0.609375 -0.515625 -2.421875 -0.515625l-0.484375 0l0.28125 -0.859375l22.828125 0l-1.96875 7.65625l-0.875 0q0.171875 -1.078125 0.171875 -1.796875q0 -1.25 -0.609375 -2.09375q-0.796875 -1.078125 -2.328125 -1.640625q-1.125 -0.421875 -5.171875 -0.421875l-4.03125 0z" fill-rule="nonzero"></path><path fill="#000000" fill-opacity="0.0" d="m46.503937 180.10236l57.85827 0l0 78.14172l-57.85827 0z" fill-rule="evenodd"></path><path fill="#ff0000" d="m71.05081 205.10423l-3.640625 12.5625l2.984375 0q3.1875 0 4.609375 -0.96875q1.4375 -0.96875 2.46875 -3.59375l0.859375 0l-3.25 11.53125l-0.9375 0q0.421875 -1.453125 0.421875 -2.484375q0 -1.015625 -0.421875 -1.625q-0.40625 -0.609375 -1.125 -0.890625q-0.703125 -0.296875 -3.0 -0.296875l-3.03125 0l-3.0625 10.515625q-0.453125 1.53125 -0.453125 2.328125q0 0.609375 0.59375 1.078125q0.390625 0.328125 1.984375 0.328125l2.8125 0q4.578125 0 7.328125 -1.609375q2.75 -1.625 4.9375 -5.640625l0.859375 0l-3.0 8.84375l-24.5625 0l0.296875 -0.875q1.84375 -0.046875 2.46875 -0.328125q0.9375 -0.421875 1.359375 -1.078125q0.640625 -0.953125 1.5 -4.03125l5.578125 -19.171875q0.65625 -2.3125 0.65625 -3.53125q0 -0.890625 -0.625 -1.390625q-0.609375 -0.515625 -2.421875 -0.515625l-0.484375 0l0.28125 -0.859375l22.828125 0l-1.96875 7.65625l-0.875 0q0.171875 -1.078125 0.171875 -1.796875q0 -1.25 -0.609375 -2.09375q-0.796875 -1.078125 -2.328125 -1.640625q-1.125 -0.421875 -5.171875 -0.421875l-4.03125 0z" fill-rule="nonzero"></path><path fill="#000000" fill-opacity="0.0" d="m102.68241 150.33595l80.37795 0l0 78.14174l-80.37795 0z" fill-rule="evenodd"></path><path fill="#ff0000" d="m133.46367 188.60345q0.28125 -2.640625 0.28125 -4.359375q0 -4.21875 -2.21875 -6.515625q-2.21875 -2.3125 -5.8906326 -2.3125q-2.484375 0 -4.125 0.9375q-1.640625 0.9375 -2.9375 2.78125l-1.078125 0q1.8125 -3.703125 3.890625 -5.375q2.09375 -1.671875 5.046875 -1.671875q2.1093826 0 4.1093826 1.15625q2.0 1.140625 3.234375 3.703125q1.234375 2.546875 1.234375 6.90625q0 8.296875 -3.609375 14.90625q-4.0625076 7.390625 -10.265633 7.390625q-3.65625 0 -5.8125 -2.109375q-2.140625 -2.125 -2.140625 -5.75q0 -2.75 1.09375 -5.375q1.09375 -2.640625 2.75 -4.46875q1.671875 -1.828125 3.703125 -2.90625q2.65625 -1.40625 5.390625 -1.40625q1.9218826 0 3.4843826 0.734375q1.5625 0.734375 2.5625 1.796875q0.640625 0.65625 1.296875 1.9375zm-0.40625 2.09375q-0.90625 -2.609375 -2.734375 -3.9375q-1.8125 -1.34375 -3.9843826 -1.34375q-2.109375 0 -4.15625 1.453125q-2.03125 1.453125 -3.53125 5.109375q-1.5 3.640625 -1.5 7.265625q0 2.671875 1.28125 4.125q1.296875 1.4375 3.28125 1.4375q2.890625 0 5.890625 -3.046875q3.8125076 -3.890625 5.4531326 -11.0625zm10.015625 -6.5q0.796875 1.359375 1.09375 2.546875q0.3125 1.1875 0.609375 4.65625l1.03125 11.53125q1.40625 -1.6875 4.078125 -5.34375q1.296875 -1.78125 3.1875 -4.859375q1.15625 -1.875 1.40625 -2.625q0.140625 -0.375 0.140625 -0.765625q0 -0.265625 -0.171875 -0.421875q-0.15625 -0.171875 -0.84375 -0.390625q-0.6875 -0.21875 -1.15625 -0.8125q-0.453125 -0.609375 -0.453125 -1.375q0 -0.96875 0.5625 -1.546875q0.5625 -0.59375 1.40625 -0.59375q1.03125 0 1.75 0.859375q0.734375 0.859375 0.734375 2.359375q0 1.84375 -1.265625 4.234375q-1.265625 2.375 -4.875 7.296875q-3.609375 4.921875 -8.734375 10.734375q-3.546875 4.015625 -5.265625 5.046875q-1.703125 1.046875 -2.921875 1.046875q-0.734375 0 -1.28125 -0.546875q-0.546875 -0.546875 -0.546875 -1.28125q0 -0.90625 0.765625 -1.65625q0.75 -0.75 1.640625 -0.75q0.46875 0 0.78125 0.203125q0.1875 0.125 0.421875 0.671875q0.21875 0.546875 0.40625 0.734375q0.109375 0.125 0.28125 0.125q0.140625 0 0.484375 -0.234375q1.296875 -0.796875 3.0 -2.53125q2.25 -2.296875 3.328125 -3.75l-1.3125 -14.875q-0.328125 -3.671875 -0.984375 -4.46875q-0.65625 -0.796875 -2.203125 -0.796875q-0.484375 0 -1.75 0.140625l-0.21875 -0.875l6.875 -1.6875z" fill-rule="nonzero"></path><path fill="#000000" fill-opacity="0.0" d="m99.608925 208.75328l80.37795 0l0 78.14174l-80.37795 0z" fill-rule="evenodd"></path><path fill="#ff0000" d="m130.39017 247.02078q0.28125 -2.640625 0.28125 -4.359375q0 -4.21875 -2.21875 -6.515625q-2.2187424 -2.3125 -5.8906174 -2.3125q-2.484375 0 -4.125 0.9375q-1.640625 0.9375 -2.9375 2.78125l-1.078125 0q1.8125 -3.703125 3.890625 -5.375q2.09375 -1.671875 5.046875 -1.671875q2.109375 0 4.109375 1.15625q1.9999924 1.140625 3.2343674 3.703125q1.234375 2.546875 1.234375 6.90625q0 8.296875 -3.609375 14.90625q-4.0624924 7.390625 -10.265617 7.390625q-3.65625 0 -5.8125 -2.109375q-2.140625 -2.125 -2.140625 -5.75q0 -2.75 1.09375 -5.375q1.09375 -2.640625 2.75 -4.46875q1.671875 -1.828125 3.703125 -2.90625q2.65625 -1.40625 5.390625 -1.40625q1.921875 0 3.484375 0.734375q1.5624924 0.734375 2.5624924 1.796875q0.640625 0.65625 1.296875 1.9375zm-0.40625 2.09375q-0.90625 -2.609375 -2.7343674 -3.9375q-1.8125 -1.34375 -3.984375 -1.34375q-2.109375 0 -4.15625 1.453125q-2.03125 1.453125 -3.53125 5.109375q-1.5 3.640625 -1.5 7.265625q0 2.671875 1.28125 4.125q1.296875 1.4375 3.28125 1.4375q2.890625 0 5.890625 -3.046875q3.8124924 -3.890625 5.4531174 -11.0625zm10.671875 -6.5q1.140625 1.21875 1.734375 2.4375q0.421875 0.84375 1.375 4.4375l2.0625 -3.09375q0.828125 -1.125 2.0 -2.140625q1.171875 -1.03125 2.0625 -1.40625q0.5625 -0.234375 1.234375 -0.234375q1.015625 0 1.609375 0.546875q0.59375 0.53125 0.59375 1.3125q0 0.890625 -0.34375 1.21875q-0.65625 0.578125 -1.5 0.578125q-0.5 0 -1.0625 -0.203125q-1.09375 -0.375 -1.46875 -0.375q-0.5625 0 -1.34375 0.65625q-1.453125 1.21875 -3.46875 4.703125l1.921875 8.0625q0.453125 1.859375 0.75 2.21875q0.3125 0.359375 0.609375 0.359375q0.5 0 1.15625 -0.53125q1.28125 -1.078125 2.203125 -2.8125l0.8125 0.421875q-1.46875 2.765625 -3.75 4.59375q-1.28125 1.03125 -2.171875 1.03125q-1.3125 0 -2.09375 -1.484375q-0.484375 -0.90625 -2.03125 -7.875q-3.65625 6.359375 -5.859375 8.1875q-1.4375 1.171875 -2.765625 1.171875q-0.953125 0 -1.71875 -0.6875q-0.5625 -0.515625 -0.5625 -1.375q0 -0.78125 0.515625 -1.296875q0.515625 -0.515625 1.265625 -0.515625q0.75 0 1.59375 0.75q0.609375 0.546875 0.9375 0.546875q0.28125 0 0.734375 -0.375q1.09375 -0.890625 2.984375 -3.84375q1.90625 -2.953125 2.5 -4.265625q-1.453125 -5.703125 -1.578125 -6.03125q-0.53125 -1.515625 -1.40625 -2.140625q-0.859375 -0.640625 -2.546875 -0.640625q-0.546875 0 -1.25 0.046875l0 -0.84375l6.265625 -1.109375z" fill-rule="nonzero"></path><path fill="#000000" fill-opacity="0.0" d="m104.362206 224.3727l59.149605 0" fill-rule="evenodd"></path><path stroke="#ff0000" stroke-width="2.0" stroke-linejoin="round" stroke-linecap="butt" d="m104.362206 224.3727l59.149605 0" fill-rule="evenodd"></path></g></svg>

