<?xml version="1.0" standalone="yes"?>

<svg version="1.1" viewBox="0.0 0.0 940.5931758530184 201.753280839895" fill="none" stroke="none" stroke-linecap="square" stroke-miterlimit="10" xmlns="http://www.w3.org/2000/svg" xmlns:xlink="http://www.w3.org/1999/xlink"><clipPath id="p.0"><path d="m0 0l940.5932 0l0 201.75328l-940.5932 0l0 -201.75328z" clip-rule="nonzero"></path></clipPath><g clip-path="url(#p.0)"><path fill="#000000" fill-opacity="0.0" d="m0 0l940.5932 0l0 201.75328l-940.5932 0z" fill-rule="evenodd"></path><path fill="#000000" fill-opacity="0.0" d="m25.96063 57.059055l141.76378 0" fill-rule="evenodd"></path><path stroke="#000000" stroke-width="3.0" stroke-linejoin="round" stroke-linecap="butt" d="m25.96063 57.059055l123.76378 0" fill-rule="evenodd"></path><path fill="#000000" stroke="#000000" stroke-width="3.0" stroke-linecap="butt" d="m149.72441 62.01425l13.614288 -4.9551964l-13.614288 -4.9551964z" fill-rule="evenodd"></path><path fill="#cfe2f3" d="m167.72441 57.059055l0 0c0 -17.97752 14.8697815 -32.55118 33.2126 -32.55118l0 0c8.808517 0 17.256287 3.4294891 23.484848 9.534019c6.2285767 6.1045303 9.727753 14.384052 9.727753 23.017162l0 0c0 17.97752 -14.869797 32.55118 -33.2126 32.55118l0 0c-18.34282 0 -33.2126 -14.573662 -33.2126 -32.55118z" fill-rule="evenodd"></path><path stroke="#000000" stroke-width="1.0" stroke-linejoin="round" stroke-linecap="butt" d="m167.72441 57.059055l0 0c0 -17.97752 14.8697815 -32.55118 33.2126 -32.55118l0 0c8.808517 0 17.256287 3.4294891 23.484848 9.534019c6.2285767 6.1045303 9.727753 14.384052 9.727753 23.017162l0 0c0 17.97752 -14.869797 32.55118 -33.2126 32.55118l0 0c-18.34282 0 -33.2126 -14.573662 -33.2126 -32.55118z" fill-rule="evenodd"></path><path fill="#000000" d="m194.79335 63.979053l5.265625 -7.09375l-4.640625 -6.5l2.140625 0l2.46875 3.484375q0.78125 1.078125 1.09375 1.671875q0.453125 -0.75 1.078125 -1.546875l2.734375 -3.609375l1.96875 0l-4.78125 6.40625l5.140625 7.1875l-2.21875 0l-3.421875 -4.859375q-0.296875 -0.40625 -0.59375 -0.90625q-0.453125 0.75 -0.65625 1.03125l-3.40625 4.734375l-2.171875 0z" fill-rule="nonzero"></path><path fill="#000000" fill-opacity="0.0" d="m75.86614 8.3359585l41.95276 0l0 48.72441l-41.95276 0z" fill-rule="evenodd"></path><path fill="#000000" d="m90.41302 33.915333q0.765625 0.8125 1.15625 1.625q0.28125 0.5625 0.921875 2.953125l1.375 -2.0625q0.546875 -0.75 1.328125 -1.421875q0.78125 -0.6875 1.375 -0.9375q0.375 -0.15625 0.828125 -0.15625q0.671875 0 1.0625 0.359375q0.40625 0.359375 0.40625 0.875q0 0.59375 -0.234375 0.8125q-0.4375 0.390625 -1.0 0.390625q-0.328125 0 -0.703125 -0.140625q-0.734375 -0.25 -0.984375 -0.25q-0.375 0 -0.890625 0.4375q-0.96875 0.8125 -2.3125 3.140625l1.28125 5.375q0.296875 1.234375 0.5 1.484375q0.203125 0.234375 0.40625 0.234375q0.328125 0 0.765625 -0.359375q0.859375 -0.71875 1.46875 -1.875l0.546875 0.28125q-0.984375 1.84375 -2.5 3.0625q-0.859375 0.6875 -1.453125 0.6875q-0.875 0 -1.390625 -0.984375q-0.328125 -0.609375 -1.359375 -5.25q-2.4375 4.234375 -3.90625 5.453125q-0.953125 0.78125 -1.84375 0.78125q-0.625 0 -1.140625 -0.453125q-0.375 -0.34375 -0.375 -0.921875q0 -0.515625 0.34375 -0.859375q0.34375 -0.34375 0.84375 -0.34375q0.5 0 1.0625 0.5q0.40625 0.359375 0.625 0.359375q0.1875 0 0.484375 -0.25q0.734375 -0.59375 2.0 -2.5625q1.265625 -1.96875 1.65625 -2.84375q-0.96875 -3.796875 -1.046875 -4.015625q-0.359375 -1.015625 -0.9375 -1.4375q-0.578125 -0.421875 -1.703125 -0.421875q-0.359375 0 -0.828125 0.03125l0 -0.5625l4.171875 -0.734375z" fill-rule="nonzero"></path><path fill="#000000" fill-opacity="0.0" d="m58.986877 137.66536l76.91339 0l0 48.72441l-76.91339 0z" fill-rule="evenodd"></path><path fill="#000000" d="m69.0025 170.51036l0 -2.828125l8.640625 0l0 2.828125l-8.640625 0zm21.5625 6.875l-2.8125 0l0 -17.921875q-1.015625 0.96875 -2.671875 1.9375q-1.640625 0.96875 -2.953125 1.453125l0 -2.71875q2.359375 -1.109375 4.125 -2.6875q1.765625 -1.578125 2.5 -3.0625l1.8125 0l0 23.0z" fill-rule="nonzero"></path><path fill="#cfe2f3" d="m337.63254 57.059055l0 0c0 -17.97752 14.8697815 -32.55118 33.212616 -32.55118l0 0c8.808533 0 17.256287 3.4294891 23.484833 9.534019c6.2285767 6.1045303 9.727753 14.384052 9.727753 23.017162l0 0c0 17.97752 -14.8697815 32.55118 -33.212585 32.55118l0 0c-18.342834 0 -33.212616 -14.573662 -33.212616 -32.55118z" fill-rule="evenodd"></path><path stroke="#000000" stroke-width="1.0" stroke-linejoin="round" stroke-linecap="butt" d="m337.63254 57.059055l0 0c0 -17.97752 14.8697815 -32.55118 33.212616 -32.55118l0 0c8.808533 0 17.256287 3.4294891 23.484833 9.534019c6.2285767 6.1045303 9.727753 14.384052 9.727753 23.017162l0 0c0 17.97752 -14.8697815 32.55118 -33.212585 32.55118l0 0c-18.342834 0 -33.212616 -14.573662 -33.212616 -32.55118z" fill-rule="evenodd"></path><path fill="#000000" d="m364.6811 60.24718l1.453125 0.171875q-0.34375 1.28125 -1.28125 1.984375q-0.921875 0.703125 -2.359375 0.703125q-1.828125 0 -2.890625 -1.125q-1.0625 -1.125 -1.0625 -3.140625q0 -2.09375 1.078125 -3.25q1.078125 -1.15625 2.796875 -1.15625q1.65625 0 2.703125 1.140625q1.0625 1.125 1.0625 3.171875q0 0.125 0 0.375l-6.1875 0q0.078125 1.375 0.765625 2.109375q0.703125 0.71875 1.734375 0.71875q0.78125 0 1.328125 -0.40625q0.546875 -0.40625 0.859375 -1.296875zm-4.609375 -2.28125l4.625 0q-0.09375 -1.046875 -0.53125 -1.5625q-0.671875 -0.8125 -1.734375 -0.8125q-0.96875 0 -1.640625 0.65625q-0.65625 0.640625 -0.71875 1.71875zm6.8984375 4.953125l3.03125 -4.3125l-2.8125 -3.984375l1.765625 0l1.265625 1.9375q0.359375 0.5625 0.578125 0.9375q0.34375 -0.515625 0.640625 -0.921875l1.390625 -1.953125l1.6875 0l-2.875 3.90625l3.09375 4.390625l-1.734375 0l-1.703125 -2.578125l-0.453125 -0.703125l-2.171875 3.28125l-1.703125 0zm8.9375 3.1874962l0 -11.484371l1.28125 0l0 1.078125q0.453125 -0.640625 1.015625 -0.953125q0.578125 -0.3125 1.390625 -0.3125q1.0625 0 1.875 0.546875q0.8125 0.546875 1.21875 1.546875q0.421875 0.984375 0.421875 2.171875q0 1.28125 -0.46875 2.296875q-0.453125 1.015625 -1.328125 1.5625q-0.859375 0.546875 -1.828125 0.546875q-0.703125 0 -1.265625 -0.296875q-0.546875 -0.296875 -0.90625 -0.75l0 4.046871l-1.40625 0zm1.265625 -7.296871q0 1.609375 0.640625 2.375q0.65625 0.765625 1.578125 0.765625q0.9375 0 1.609375 -0.796875q0.671875 -0.796875 0.671875 -2.453125q0 -1.59375 -0.65625 -2.375q-0.65625 -0.796875 -1.5625 -0.796875q-0.890625 0 -1.59375 0.84375q-0.6875 0.84375 -0.6875 2.4375z" fill-rule="nonzero"></path><path fill="#000000" fill-opacity="0.0" d="m234.14961 57.059055l103.49605 0" fill-rule="evenodd"></path><path stroke="#000000" stroke-width="3.0" stroke-linejoin="round" stroke-linecap="butt" d="m234.14961 57.059055l85.49605 0" fill-rule="evenodd"></path><path fill="#000000" stroke="#000000" stroke-width="3.0" stroke-linecap="butt" d="m319.64566 62.01425l13.614288 -4.9551964l-13.614288 -4.9551964z" fill-rule="evenodd"></path><path fill="#000000" fill-opacity="0.0" d="m404.05774 57.059055l146.86615 -0.22047424" fill-rule="evenodd"></path><path stroke="#000000" stroke-width="3.0" stroke-linejoin="round" stroke-linecap="butt" d="m404.05774 57.059055l128.86621 -0.19345093" fill-rule="evenodd"></path><path fill="#000000" stroke="#000000" stroke-width="3.0" stroke-linecap="butt" d="m532.93134 61.820797l13.606873 -4.9756317l-13.621765 -4.9347534z" fill-rule="evenodd"></path><path fill="#000000" fill-opacity="0.0" d="m145.6693 186.83595l55.27559 -97.22834" fill-rule="evenodd"></path><path stroke="#000000" stroke-width="3.0" stroke-linejoin="round" stroke-linecap="butt" d="m145.6693 186.83595l46.3795 -81.58035" fill-rule="evenodd"></path><path fill="#000000" stroke="#000000" stroke-width="3.0" stroke-linecap="butt" d="m196.3565 107.7046l2.4208374 -14.284348l-11.03627 9.38636z" fill-rule="evenodd"></path><path fill="#000000" fill-opacity="0.0" d="m30.17323 186.45801l110.74016 0.37794495" fill-rule="evenodd"></path><path stroke="#000000" stroke-width="3.0" stroke-linejoin="round" stroke-linecap="butt" d="m30.17323 186.45801l110.74016 0.37794495" fill-rule="evenodd"></path><path fill="#000000" d="m140.91339 186.83595l0 0c0 -1.6437988 1.0646362 -2.9763794 2.377945 -2.9763794l0 0c0.63067627 0 1.2355194 0.31358337 1.6814728 0.87176514c0.44595337 0.55818176 0.6964874 1.3152313 0.6964874 2.1046143l0 0c0 1.6438141 -1.0646515 2.9763794 -2.3779602 2.9763794l0 0c-1.3133087 0 -2.377945 -1.3325653 -2.377945 -2.9763794z" fill-rule="evenodd"></path><path stroke="#000000" stroke-width="1.0" stroke-linejoin="round" stroke-linecap="butt" d="m140.91339 186.83595l0 0c0 -1.6437988 1.0646362 -2.9763794 2.377945 -2.9763794l0 0c0.63067627 0 1.2355194 0.31358337 1.6814728 0.87176514c0.44595337 0.55818176 0.6964874 1.3152313 0.6964874 2.1046143l0 0c0 1.6438141 -1.0646515 2.9763794 -2.3779602 2.9763794l0 0c-1.3133087 0 -2.377945 -1.3325653 -2.377945 -2.9763794z" fill-rule="evenodd"></path><path fill="#000000" fill-opacity="0.0" d="m415.13647 0l125.543335 0l0 48.72441l-125.543335 0z" fill-rule="evenodd"></path><path fill="#000000" d="m427.54272 30.798126q-0.015625 3.1875 1.546875 5.0q1.5625 1.8125 3.671875 1.8125q1.40625 0 2.4375 -0.765625q1.046875 -0.78125 1.75 -2.65625l0.484375 0.3125q-0.328125 2.140625 -1.90625 3.90625q-1.578125 1.75 -3.953125 1.75q-2.578125 0 -4.421875 -2.0q-1.828125 -2.015625 -1.828125 -5.40625q0 -3.671875 1.875 -5.71875q1.890625 -2.0625 4.734375 -2.0625q2.40625 0 3.953125 1.59375q1.546875 1.578125 1.546875 4.234375l-9.890625 0zm0 -0.90625l6.625 0q-0.078125 -1.375 -0.328125 -1.9375q-0.390625 -0.875 -1.171875 -1.375q-0.765625 -0.5 -1.609375 -0.5q-1.296875 0 -2.328125 1.015625q-1.015625 1.0 -1.1875 2.796875zm11.21875 -4.484375l6.734375 0l0 0.578125q-0.640625 0 -0.90625 0.21875q-0.25 0.21875 -0.25 0.578125q0 0.375 0.546875 1.15625q0.171875 0.25 0.515625 0.78125l1.015625 1.625l1.171875 -1.625q1.125 -1.546875 1.125 -1.953125q0 -0.328125 -0.265625 -0.546875q-0.265625 -0.234375 -0.859375 -0.234375l0 -0.578125l4.84375 0l0 0.578125q-0.765625 0.046875 -1.328125 0.421875q-0.765625 0.53125 -2.09375 2.3125l-1.953125 2.609375l3.5625 5.125q1.3125 1.890625 1.875 2.28125q0.5625 0.375 1.453125 0.421875l0 0.5625l-6.75 0l0 -0.5625q0.703125 0 1.09375 -0.3125q0.296875 -0.21875 0.296875 -0.578125q0 -0.359375 -1.0 -1.8125l-2.09375 -3.0625l-2.296875 3.0625q-1.0625 1.421875 -1.0625 1.6875q0 0.375 0.34375 0.6875q0.359375 0.296875 1.0625 0.328125l0 0.5625l-4.671875 0l0 -0.5625q0.5625 -0.078125 0.984375 -0.390625q0.59375 -0.453125 2.0 -2.3125l3.0 -3.984375l-2.71875 -3.9375q-1.15625 -1.6875 -1.796875 -2.109375q-0.625 -0.4375 -1.578125 -0.4375l0 -0.578125zm15.546875 1.421875l4.40625 -1.78125l0.59375 0l0 3.34375q1.109375 -1.890625 2.21875 -2.640625q1.125 -0.765625 2.359375 -0.765625q2.15625 0 3.59375 1.6875q1.765625 2.0625 1.765625 5.375q0 3.703125 -2.125 6.125q-1.75 1.984375 -4.40625 1.984375q-1.15625 0 -2.0 -0.328125q-0.625 -0.234375 -1.40625 -0.9375l0 4.359375q0 1.46875 0.171875 1.859375q0.1875 0.40625 0.625 0.640625q0.453125 0.234375 1.625 0.234375l0 0.578125l-7.5 0l0 -0.578125l0.390625 0q0.859375 0.015625 1.46875 -0.328125q0.296875 -0.171875 0.453125 -0.5625q0.171875 -0.375 0.171875 -1.9375l0 -13.53125q0 -1.390625 -0.125 -1.765625q-0.125 -0.375 -0.40625 -0.5625q-0.265625 -0.1875 -0.734375 -0.1875q-0.375 0 -0.953125 0.21875l-0.1875 -0.5zm5.0 2.484375l0 5.34375q0 1.734375 0.140625 2.28125q0.21875 0.90625 1.0625 1.59375q0.859375 0.6875 2.15625 0.6875q1.5625 0 2.53125 -1.21875q1.265625 -1.59375 1.265625 -4.484375q0 -3.28125 -1.4375 -5.046875q-1.0 -1.21875 -2.375 -1.21875q-0.75 0 -1.484375 0.375q-0.5625 0.28125 -1.859375 1.6875zm20.96875 16.671875l0 0.578125q-2.359375 -1.1875 -3.9375 -2.78125q-2.25 -2.265625 -3.46875 -5.34375q-1.21875 -3.078125 -1.21875 -6.390625q0 -4.84375 2.390625 -8.828125q2.390625 -4.0 6.234375 -5.71875l0 0.65625q-1.921875 1.0625 -3.15625 2.90625q-1.234375 1.84375 -1.84375 4.671875q-0.609375 2.828125 -0.609375 5.90625q0 3.34375 0.515625 6.078125q0.40625 2.15625 0.984375 3.453125q0.578125 1.3125 1.546875 2.515625q0.984375 1.203125 2.5625 2.296875zm2.015625 -14.625l8.078125 0l0 2.359375l-8.078125 0l0 -2.359375z" fill-rule="nonzero"></path><path fill="#000000" d="m497.19897 25.579376q0.765625 0.8125 1.15625 1.625q0.28125 0.5625 0.921875 2.953125l1.375 -2.0625q0.546875 -0.75 1.328125 -1.421875q0.78125 -0.6875 1.375 -0.9375q0.375 -0.15625 0.828125 -0.15625q0.671875 0 1.0625 0.359375q0.40625 0.359375 0.40625 0.875q0 0.59375 -0.234375 0.8125q-0.4375 0.390625 -1.0 0.390625q-0.328125 0 -0.703125 -0.140625q-0.734375 -0.25 -0.984375 -0.25q-0.375 0 -0.890625 0.4375q-0.96875 0.8125 -2.3125 3.140625l1.28125 5.375q0.296875 1.234375 0.5 1.484375q0.203125 0.234375 0.40625 0.234375q0.328125 0 0.765625 -0.359375q0.859375 -0.71875 1.46875 -1.875l0.546875 0.28125q-0.984375 1.84375 -2.5 3.0625q-0.859375 0.6875 -1.453125 0.6875q-0.875 0 -1.390625 -0.984375q-0.328125 -0.609375 -1.359375 -5.25q-2.4375 4.234375 -3.90625 5.453125q-0.953125 0.78125 -1.84375 0.78125q-0.625 0 -1.140625 -0.453125q-0.375 -0.34375 -0.375 -0.921875q0 -0.515625 0.34375 -0.859375q0.34375 -0.34375 0.84375 -0.34375q0.5 0 1.0625 0.5q0.40625 0.359375 0.625 0.359375q0.1875 0 0.484375 -0.25q0.734375 -0.59375 2.0 -2.5625q1.265625 -1.96875 1.65625 -2.84375q-0.96875 -3.796875 -1.046875 -4.015625q-0.359375 -1.015625 -0.9375 -1.4375q-0.578125 -0.421875 -1.703125 -0.421875q-0.359375 0 -0.828125 0.03125l0 -0.5625l4.171875 -0.734375z" fill-rule="nonzero"></path><path fill="#000000" d="m506.57397 18.157501l0 -0.65625q2.375 1.171875 3.953125 2.765625q2.234375 2.28125 3.453125 5.359375q1.21875 3.0625 1.21875 6.390625q0 4.84375 -2.390625 8.828125q-2.375 4.0 -6.234375 5.71875l0 -0.578125q1.921875 -1.078125 3.15625 -2.921875q1.25 -1.828125 1.84375 -4.65625q0.609375 -2.84375 0.609375 -5.921875q0 -3.328125 -0.515625 -6.078125q-0.390625 -2.15625 -0.984375 -3.453125q-0.578125 -1.296875 -1.546875 -2.5q-0.96875 -1.203125 -2.5625 -2.296875z" fill-rule="nonzero"></path><path fill="#000000" fill-opacity="0.0" d="m532.96454 73.10105l-110.9606 -1.1968536" fill-rule="evenodd"></path><path stroke="#ff0000" stroke-width="3.0" stroke-linejoin="round" stroke-linecap="butt" d="m532.96454 73.10105l-92.96167 -1.0027084" fill-rule="evenodd"></path><path fill="#ff0000" stroke="#ff0000" stroke-width="3.0" stroke-linecap="butt" d="m440.05634 67.14343l-13.666962 4.8080673l13.560059 5.101753z" fill-rule="evenodd"></path><path fill="#000000" fill-opacity="0.0" d="m331.61417 67.15092l-99.43306 0" fill-rule="evenodd"></path><path stroke="#ff0000" stroke-width="3.0" stroke-linejoin="round" stroke-linecap="butt" d="m331.61417 67.15092l-81.43306 0" fill-rule="evenodd"></path><path fill="#ff0000" stroke="#ff0000" stroke-width="3.0" stroke-linecap="butt" d="m250.1811 62.19572l-13.614304 4.9551964l13.614304 4.9552z" fill-rule="evenodd"></path><path fill="#000000" fill-opacity="0.0" d="m166.16798 67.27821l-137.44882 0.75590515" fill-rule="evenodd"></path><path stroke="#ff0000" stroke-width="3.0" stroke-linejoin="round" stroke-linecap="butt" d="m166.16798 67.27821l-119.4491 0.6569214" fill-rule="evenodd"></path><path fill="#ff0000" stroke="#ff0000" stroke-width="3.0" stroke-linecap="butt" d="m46.691635 62.980007l-13.586834 5.029995l13.641338 4.880249z" fill-rule="evenodd"></path><path fill="#cfe2f3" d="m550.91077 56.822834l0 0c0 -17.97752 14.869751 -32.551178 33.212585 -32.551178l0 0c8.808533 0 17.256287 3.4294891 23.484863 9.534021c6.2285767 6.1045303 9.727722 14.384048 9.727722 23.017159l0 0c0 17.97752 -14.869751 32.55118 -33.212585 32.55118l0 0c-18.342834 0 -33.212585 -14.573662 -33.212585 -32.55118z" fill-rule="evenodd"></path><path stroke="#000000" stroke-width="1.0" stroke-linejoin="round" stroke-linecap="butt" d="m550.91077 56.822834l0 0c0 -17.97752 14.869751 -32.551178 33.212585 -32.551178l0 0c8.808533 0 17.256287 3.4294891 23.484863 9.534021c6.2285767 6.1045303 9.727722 14.384048 9.727722 23.017159l0 0c0 17.97752 -14.869751 32.55118 -33.212585 32.55118l0 0c-18.342834 0 -33.212585 -14.573662 -33.212585 -32.55118z" fill-rule="evenodd"></path><path fill="#000000" d="m583.13116 62.581585l0 -4.703125l-4.671875 0l0 -1.96875l4.671875 0l0 -4.6875l1.984375 0l0 4.6875l4.6875 0l0 1.96875l-4.6875 0l0 4.703125l-1.984375 0z" fill-rule="nonzero"></path><path fill="#cfe2f3" d="m764.18896 56.822834l0 0c0 -17.97752 14.869812 -32.551178 33.212585 -32.551178l0 0c8.808533 0 17.256287 3.4294891 23.484863 9.534021c6.2285767 6.1045303 9.727783 14.384048 9.727783 23.017159l0 0c0 17.97752 -14.869812 32.55118 -33.212646 32.55118l0 0c-18.342773 0 -33.212585 -14.573662 -33.212585 -32.55118z" fill-rule="evenodd"></path><path stroke="#000000" stroke-width="1.0" stroke-linejoin="round" stroke-linecap="butt" d="m764.18896 56.822834l0 0c0 -17.97752 14.869812 -32.551178 33.212585 -32.551178l0 0c8.808533 0 17.256287 3.4294891 23.484863 9.534021c6.2285767 6.1045303 9.727783 14.384048 9.727783 23.017159l0 0c0 17.97752 -14.869812 32.55118 -33.212646 32.55118l0 0c-18.342773 0 -33.212585 -14.573662 -33.212585 -32.55118z" fill-rule="evenodd"></path><path fill="#000000" d="m794.06757 65.659706l4.984375 -17.765621l1.6875 0l-4.96875 17.765621l-1.703125 0z" fill-rule="nonzero"></path><path fill="#000000" fill-opacity="0.0" d="m260.71783 8.334645l76.91339 0l0 48.72441l-76.91339 0z" fill-rule="evenodd"></path><path fill="#000000" d="m279.29596 40.07027l-0.640625 2.078125l-8.09375 0l0.640625 -2.078125l8.09375 0zm6.625 -6.15625q0.765625 0.8125 1.15625 1.625q0.28125 0.5625 0.921875 2.953125l1.375 -2.0625q0.546875 -0.75 1.328125 -1.421875q0.78125 -0.6875 1.375 -0.9375q0.375 -0.15625 0.828125 -0.15625q0.671875 0 1.0625 0.359375q0.40625 0.359375 0.40625 0.875q0 0.59375 -0.234375 0.8125q-0.4375 0.390625 -1.0 0.390625q-0.328125 0 -0.703125 -0.140625q-0.734375 -0.25 -0.984375 -0.25q-0.375 0 -0.890625 0.4375q-0.96875 0.8125 -2.3125 3.140625l1.28125 5.375q0.296875 1.234375 0.5 1.484375q0.203125 0.234375 0.40625 0.234375q0.328125 0 0.765625 -0.359375q0.859375 -0.71875 1.46875 -1.875l0.546875 0.28125q-0.984375 1.84375 -2.5 3.0625q-0.859375 0.6875 -1.453125 0.6875q-0.875 0 -1.390625 -0.984375q-0.328125 -0.609375 -1.359375 -5.25q-2.4375 4.234375 -3.90625 5.453125q-0.953125 0.78125 -1.84375 0.78125q-0.625 0 -1.140625 -0.453125q-0.375 -0.34375 -0.375 -0.921875q0 -0.515625 0.34375 -0.859375q0.34375 -0.34375 0.84375 -0.34375q0.5 0 1.0625 0.5q0.40625 0.359375 0.625 0.359375q0.1875 0 0.484375 -0.25q0.734375 -0.59375 2.0 -2.5625q1.265625 -1.96875 1.65625 -2.84375q-0.96875 -3.796875 -1.046875 -4.015625q-0.359375 -1.015625 -0.9375 -1.4375q-0.578125 -0.421875 -1.703125 -0.421875q-0.359375 0 -0.828125 0.03125l0 -0.5625l4.171875 -0.734375z" fill-rule="nonzero"></path><path fill="#000000" fill-opacity="0.0" d="m617.33594 60.440945l146.86615 -0.25196838" fill-rule="evenodd"></path><path stroke="#000000" stroke-width="3.0" stroke-linejoin="round" stroke-linecap="butt" d="m617.33594 60.440945l128.86615 -0.22108841" fill-rule="evenodd"></path><path fill="#000000" stroke="#000000" stroke-width="3.0" stroke-linecap="butt" d="m746.21063 65.17505l13.605774 -4.97855l-13.622803 -4.9318314z" fill-rule="evenodd"></path><path fill="#000000" fill-opacity="0.0" d="m618.1837 0l160.18896 0l0 48.72441l-160.18896 0z" fill-rule="evenodd"></path><path fill="#000000" d="m630.9337 20.610626l5.15625 -2.515625l0.515625 0l0 17.890625q0 1.78125 0.140625 2.21875q0.15625 0.4375 0.625 0.671875q0.46875 0.234375 1.90625 0.265625l0 0.578125l-7.96875 0l0 -0.578125q1.5 -0.03125 1.9375 -0.25q0.4375 -0.234375 0.609375 -0.609375q0.171875 -0.390625 0.171875 -2.296875l0 -11.4375q0 -2.3125 -0.15625 -2.96875q-0.109375 -0.5 -0.40625 -0.734375q-0.28125 -0.234375 -0.6875 -0.234375q-0.578125 0 -1.609375 0.484375l-0.234375 -0.484375zm20.609375 16.90625l0 -7.796875l-7.78125 0l0 -1.28125l7.78125 0l0 -7.765625l1.25 0l0 7.765625l7.8125 0l0 1.28125l-7.8125 0l0 7.796875l-1.25 0zm13.09375 -6.71875q-0.015625 3.1875 1.546875 5.0q1.5625 1.8125 3.671875 1.8125q1.40625 0 2.4375 -0.765625q1.046875 -0.78125 1.75 -2.65625l0.484375 0.3125q-0.328125 2.140625 -1.90625 3.90625q-1.578125 1.75 -3.953125 1.75q-2.578125 0 -4.421875 -2.0q-1.828125 -2.015625 -1.828125 -5.40625q0 -3.671875 1.875 -5.71875q1.890625 -2.0625 4.734375 -2.0625q2.40625 0 3.953125 1.59375q1.546875 1.578125 1.546875 4.234375l-9.890625 0zm0 -0.90625l6.625 0q-0.078125 -1.375 -0.328125 -1.9375q-0.390625 -0.875 -1.171875 -1.375q-0.765625 -0.5 -1.609375 -0.5q-1.296875 0 -2.328125 1.015625q-1.015625 1.0 -1.1875 2.796875zm11.21875 -4.484375l6.734375 0l0 0.578125q-0.640625 0 -0.90625 0.21875q-0.25 0.21875 -0.25 0.578125q0 0.375 0.546875 1.15625q0.171875 0.25 0.515625 0.78125l1.015625 1.625l1.171875 -1.625q1.125 -1.546875 1.125 -1.953125q0 -0.328125 -0.265625 -0.546875q-0.265625 -0.234375 -0.859375 -0.234375l0 -0.578125l4.84375 0l0 0.578125q-0.765625 0.046875 -1.328125 0.421875q-0.765625 0.53125 -2.09375 2.3125l-1.953125 2.609375l3.5625 5.125q1.3125 1.890625 1.875 2.28125q0.5625 0.375 1.453125 0.421875l0 0.5625l-6.75 0l0 -0.5625q0.703125 0 1.09375 -0.3125q0.296875 -0.21875 0.296875 -0.578125q0 -0.359375 -1.0 -1.8125l-2.09375 -3.0625l-2.296875 3.0625q-1.0625 1.421875 -1.0625 1.6875q0 0.375 0.34375 0.6875q0.359375 0.296875 1.0625 0.328125l0 0.5625l-4.671875 0l0 -0.5625q0.5625 -0.078125 0.984375 -0.390625q0.59375 -0.453125 2.0 -2.3125l3.0 -3.984375l-2.71875 -3.9375q-1.15625 -1.6875 -1.796875 -2.109375q-0.625 -0.4375 -1.578125 -0.4375l0 -0.578125zm15.546875 1.421875l4.40625 -1.78125l0.59375 0l0 3.34375q1.109375 -1.890625 2.21875 -2.640625q1.125 -0.765625 2.359375 -0.765625q2.15625 0 3.59375 1.6875q1.765625 2.0625 1.765625 5.375q0 3.703125 -2.125 6.125q-1.75 1.984375 -4.40625 1.984375q-1.15625 0 -2.0 -0.328125q-0.625 -0.234375 -1.40625 -0.9375l0 4.359375q0 1.46875 0.171875 1.859375q0.1875 0.40625 0.625 0.640625q0.453125 0.234375 1.625 0.234375l0 0.578125l-7.5 0l0 -0.578125l0.390625 0q0.859375 0.015625 1.46875 -0.328125q0.296875 -0.171875 0.453125 -0.5625q0.171875 -0.375 0.171875 -1.9375l0 -13.53125q0 -1.390625 -0.125 -1.765625q-0.125 -0.375 -0.40625 -0.5625q-0.265625 -0.1875 -0.734375 -0.1875q-0.375 0 -0.953125 0.21875l-0.1875 -0.5zm5.0 2.484375l0 5.34375q0 1.734375 0.140625 2.28125q0.21875 0.90625 1.0625 1.59375q0.859375 0.6875 2.15625 0.6875q1.5625 0 2.53125 -1.21875q1.265625 -1.59375 1.265625 -4.484375q0 -3.28125 -1.4375 -5.046875q-1.0 -1.21875 -2.375 -1.21875q-0.75 0 -1.484375 0.375q-0.5625 0.28125 -1.859375 1.6875zm20.96875 16.671875l0 0.578125q-2.359375 -1.1875 -3.9375 -2.78125q-2.25 -2.265625 -3.46875 -5.34375q-1.21875 -3.078125 -1.21875 -6.390625q0 -4.84375 2.390625 -8.828125q2.390625 -4.0 6.234375 -5.71875l0 0.65625q-1.921875 1.0625 -3.15625 2.90625q-1.234375 1.84375 -1.84375 4.671875q-0.609375 2.828125 -0.609375 5.90625q0 3.34375 0.515625 6.078125q0.40625 2.15625 0.984375 3.453125q0.578125 1.3125 1.546875 2.515625q0.984375 1.203125 2.5625 2.296875zm2.015625 -14.625l8.078125 0l0 2.359375l-8.078125 0l0 -2.359375z" fill-rule="nonzero"></path><path fill="#000000" d="m734.2931 25.579376q0.765625 0.8125 1.15625 1.625q0.28125 0.5625 0.921875 2.953125l1.375 -2.0625q0.546875 -0.75 1.328125 -1.421875q0.78125 -0.6875 1.375 -0.9375q0.375 -0.15625 0.828125 -0.15625q0.671875 0 1.0625 0.359375q0.40625 0.359375 0.40625 0.875q0 0.59375 -0.234375 0.8125q-0.4375 0.390625 -1.0 0.390625q-0.328125 0 -0.703125 -0.140625q-0.734375 -0.25 -0.984375 -0.25q-0.375 0 -0.890625 0.4375q-0.96875 0.8125 -2.3125 3.140625l1.28125 5.375q0.296875 1.234375 0.5 1.484375q0.203125 0.234375 0.40625 0.234375q0.328125 0 0.765625 -0.359375q0.859375 -0.71875 1.46875 -1.875l0.546875 0.28125q-0.984375 1.84375 -2.5 3.0625q-0.859375 0.6875 -1.453125 0.6875q-0.875 0 -1.390625 -0.984375q-0.328125 -0.609375 -1.359375 -5.25q-2.4375 4.234375 -3.90625 5.453125q-0.953125 0.78125 -1.84375 0.78125q-0.625 0 -1.140625 -0.453125q-0.375 -0.34375 -0.375 -0.921875q0 -0.515625 0.34375 -0.859375q0.34375 -0.34375 0.84375 -0.34375q0.5 0 1.0625 0.5q0.40625 0.359375 0.625 0.359375q0.1875 0 0.484375 -0.25q0.734375 -0.59375 2.0 -2.5625q1.265625 -1.96875 1.65625 -2.84375q-0.96875 -3.796875 -1.046875 -4.015625q-0.359375 -1.015625 -0.9375 -1.4375q-0.578125 -0.421875 -1.703125 -0.421875q-0.359375 0 -0.828125 0.03125l0 -0.5625l4.171875 -0.734375z" fill-rule="nonzero"></path><path fill="#000000" d="m743.6681 18.157501l0 -0.65625q2.375 1.171875 3.953125 2.765625q2.234375 2.28125 3.453125 5.359375q1.21875 3.0625 1.21875 6.390625q0 4.84375 -2.390625 8.828125q-2.375 4.0 -6.234375 5.71875l0 -0.578125q1.921875 -1.078125 3.15625 -2.921875q1.25 -1.828125 1.84375 -4.65625q0.609375 -2.84375 0.609375 -5.921875q0 -3.328125 -0.515625 -6.078125q-0.390625 -2.15625 -0.984375 -3.453125q-0.578125 -1.296875 -1.546875 -2.5q-0.96875 -1.203125 -2.5625 -2.296875z" fill-rule="nonzero"></path><path fill="#000000" fill-opacity="0.0" d="m746.2428 73.10236l-110.96063 -1.1968536" fill-rule="evenodd"></path><path stroke="#ff0000" stroke-width="3.0" stroke-linejoin="round" stroke-linecap="butt" d="m746.2428 73.10236l-92.96173 -1.0027084" fill-rule="evenodd"></path><path fill="#ff0000" stroke="#ff0000" stroke-width="3.0" stroke-linecap="butt" d="m653.33453 67.144745l-13.666931 4.8080673l13.560059 5.101753z" fill-rule="evenodd"></path><path fill="#000000" fill-opacity="0.0" d="m674.9711 71.90551l46.614197 0l0 72.56693l-46.614197 0z" fill-rule="evenodd"></path><path fill="#ff0000" d="m694.86176 95.53926q0.140625 -1.328125 0.140625 -2.171875q0 -2.109375 -1.109375 -3.265625q-1.109375 -1.15625 -2.953125 -1.15625q-1.234375 0 -2.0625 0.46875q-0.8125 0.46875 -1.453125 1.390625l-0.546875 0q0.90625 -1.84375 1.9375 -2.6875q1.046875 -0.84375 2.53125 -0.84375q1.046875 0 2.046875 0.578125q1.015625 0.578125 1.625 1.859375q0.609375 1.265625 0.609375 3.453125q0 4.140625 -1.796875 7.453125q-2.03125 3.6875 -5.140625 3.6875q-1.828125 0 -2.90625 -1.046875q-1.0625 -1.0625 -1.0625 -2.875q0 -1.375 0.546875 -2.6875q0.546875 -1.328125 1.375 -2.234375q0.828125 -0.921875 1.859375 -1.453125q1.3125 -0.703125 2.6875 -0.703125q0.96875 0 1.734375 0.375q0.78125 0.359375 1.296875 0.890625q0.3125 0.328125 0.640625 0.96875zm-0.203125 1.046875q-0.453125 -1.296875 -1.359375 -1.96875q-0.90625 -0.671875 -2.0 -0.671875q-1.0625 0 -2.078125 0.734375q-1.015625 0.71875 -1.765625 2.546875q-0.75 1.8125 -0.75 3.640625q0 1.328125 0.640625 2.046875q0.640625 0.71875 1.640625 0.71875q1.4375 0 2.9375 -1.515625q1.921875 -1.953125 2.734375 -5.53125z" fill-rule="nonzero"></path><path fill="#ff0000" d="m706.8305 103.94551l-11.78125 0l0.171875 -0.4375q0.9375 -0.015625 1.25 -0.15625q0.5 -0.203125 0.734375 -0.546875q0.359375 -0.53125 0.765625 -1.9375l2.8125 -9.671875q0.34375 -1.203125 0.34375 -1.765625q0 -0.4375 -0.328125 -0.6875q-0.3125 -0.25 -1.203125 -0.25q-0.203125 0 -0.3125 0l0.140625 -0.4375l6.46875 0l-0.09375 0.4375q-1.078125 0 -1.546875 0.21875q-0.453125 0.203125 -0.75 0.671875q-0.21875 0.328125 -0.703125 1.96875l-2.75 9.515625q-0.3125 1.078125 -0.3125 1.5q0 0.28125 0.3125 0.53125q0.203125 0.171875 0.90625 0.171875l1.53125 0q1.671875 0 2.65625 -0.421875q0.734375 -0.3125 1.34375 -0.9375q0.328125 -0.359375 1.15625 -1.75l0.3125 -0.53125l0.421875 0l-1.546875 4.515625z" fill-rule="nonzero"></path><path fill="#ff0000" d="m694.86176 124.53926q0.140625 -1.328125 0.140625 -2.171875q0 -2.109375 -1.109375 -3.265625q-1.109375 -1.15625 -2.953125 -1.15625q-1.234375 0 -2.0625 0.46875q-0.8125 0.46875 -1.453125 1.390625l-0.546875 0q0.90625 -1.84375 1.9375 -2.6875q1.046875 -0.84375 2.53125 -0.84375q1.046875 0 2.046875 0.578125q1.015625 0.578125 1.625 1.859375q0.609375 1.265625 0.609375 3.453125q0 4.140625 -1.796875 7.453125q-2.03125 3.6875 -5.140625 3.6875q-1.828125 0 -2.90625 -1.046875q-1.0625 -1.0625 -1.0625 -2.875q0 -1.375 0.546875 -2.6875q0.546875 -1.328125 1.375 -2.234375q0.828125 -0.921875 1.859375 -1.453125q1.3125 -0.703125 2.6875 -0.703125q0.96875 0 1.734375 0.375q0.78125 0.359375 1.296875 0.890625q0.3125 0.328125 0.640625 0.96875zm-0.203125 1.046875q-0.453125 -1.296875 -1.359375 -1.96875q-0.90625 -0.671875 -2.0 -0.671875q-1.0625 0 -2.078125 0.734375q-1.015625 0.71875 -1.765625 2.546875q-0.75 1.8125 -0.75 3.640625q0 1.328125 0.640625 2.046875q0.640625 0.71875 1.640625 0.71875q1.4375 0 2.9375 -1.515625q1.921875 -1.953125 2.734375 -5.53125z" fill-rule="nonzero"></path><path fill="#ff0000" d="m699.6586 122.336136q0.40625 0.6875 0.546875 1.28125q0.15625 0.578125 0.3125 2.3125l0.515625 5.765625q0.703125 -0.84375 2.046875 -2.671875q0.640625 -0.890625 1.59375 -2.421875q0.5625 -0.9375 0.703125 -1.3125q0.0625 -0.1875 0.0625 -0.390625q0 -0.125 -0.078125 -0.203125q-0.078125 -0.078125 -0.4375 -0.1875q-0.34375 -0.125 -0.578125 -0.421875q-0.21875 -0.296875 -0.21875 -0.6875q0 -0.46875 0.28125 -0.765625q0.28125 -0.296875 0.703125 -0.296875q0.515625 0 0.875 0.4375q0.375 0.421875 0.375 1.171875q0 0.921875 -0.640625 2.109375q-0.625 1.1875 -2.4375 3.65625q-1.796875 2.453125 -4.375 5.375q-1.765625 2.0 -2.625 2.515625q-0.859375 0.53125 -1.46875 0.53125q-0.359375 0 -0.625 -0.28125q-0.28125 -0.28125 -0.28125 -0.640625q0 -0.453125 0.390625 -0.828125q0.375 -0.375 0.8125 -0.375q0.234375 0 0.390625 0.109375q0.09375 0.046875 0.203125 0.328125q0.109375 0.28125 0.203125 0.375q0.0625 0.046875 0.140625 0.046875q0.078125 0 0.25 -0.109375q0.640625 -0.40625 1.5 -1.265625q1.125 -1.15625 1.671875 -1.875l-0.65625 -7.4375q-0.171875 -1.84375 -0.5 -2.234375q-0.328125 -0.40625 -1.09375 -0.40625q-0.25 0 -0.890625 0.078125l-0.09375 -0.4375l3.421875 -0.84375z" fill-rule="nonzero"></path><path fill="#000000" fill-opacity="0.0" d="m674.9711 108.18898l46.614197 0" fill-rule="evenodd"></path><path stroke="#ff0000" stroke-width="1.0" stroke-linejoin="round" stroke-linecap="butt" d="m674.9711 108.18898l46.614197 0" fill-rule="evenodd"></path><path fill="#000000" fill-opacity="0.0" d="m447.5118 80.06562l46.614166 0l0 72.56693l-46.614166 0z" fill-rule="evenodd"></path><path fill="#ff0000" d="m467.40244 103.69937q0.140625 -1.328125 0.140625 -2.171875q0 -2.109375 -1.109375 -3.265625q-1.109375 -1.15625 -2.953125 -1.15625q-1.234375 0 -2.0625 0.46875q-0.8125 0.46875 -1.453125 1.390625l-0.546875 0q0.90625 -1.84375 1.9375 -2.6875q1.046875 -0.84375 2.53125 -0.84375q1.046875 0 2.046875 0.578125q1.015625 0.578125 1.625 1.859375q0.609375 1.265625 0.609375 3.453125q0 4.140625 -1.796875 7.453125q-2.03125 3.6875 -5.140625 3.6875q-1.828125 0 -2.90625 -1.046875q-1.0625 -1.0625 -1.0625 -2.875q0 -1.375 0.546875 -2.6875q0.546875 -1.328125 1.375 -2.234375q0.828125 -0.921875 1.859375 -1.453125q1.3125 -0.703125 2.6875 -0.703125q0.96875 0 1.734375 0.375q0.78125 0.359375 1.296875 0.890625q0.3125 0.328125 0.640625 0.96875zm-0.203125 1.046875q-0.453125 -1.296875 -1.359375 -1.96875q-0.90625 -0.671875 -2.0 -0.671875q-1.0625 0 -2.078125 0.734375q-1.015625 0.71875 -1.765625 2.546875q-0.75 1.8125 -0.75 3.640625q0 1.328125 0.640625 2.046875q0.640625 0.71875 1.640625 0.71875q1.4375 0 2.9375 -1.515625q1.921875 -1.953125 2.734375 -5.53125z" fill-rule="nonzero"></path><path fill="#ff0000" d="m479.3712 112.10562l-11.78125 0l0.171875 -0.4375q0.9375 -0.015625 1.25 -0.15625q0.5 -0.203125 0.734375 -0.546875q0.359375 -0.53125 0.765625 -1.9375l2.8125 -9.671875q0.34375 -1.203125 0.34375 -1.765625q0 -0.4375 -0.328125 -0.6875q-0.3125 -0.25 -1.203125 -0.25q-0.203125 0 -0.3125 0l0.140625 -0.4375l6.46875 0l-0.09375 0.4375q-1.078125 0 -1.546875 0.21875q-0.453125 0.203125 -0.75 0.671875q-0.21875 0.328125 -0.703125 1.96875l-2.75 9.515625q-0.3125 1.078125 -0.3125 1.5q0 0.28125 0.3125 0.53125q0.203125 0.171875 0.90625 0.171875l1.53125 0q1.671875 0 2.65625 -0.421875q0.734375 -0.3125 1.34375 -0.9375q0.328125 -0.359375 1.15625 -1.75l0.3125 -0.53125l0.421875 0l-1.546875 4.515625z" fill-rule="nonzero"></path><path fill="#ff0000" d="m467.40244 132.69937q0.140625 -1.328125 0.140625 -2.171875q0 -2.109375 -1.109375 -3.265625q-1.109375 -1.15625 -2.953125 -1.15625q-1.234375 0 -2.0625 0.46875q-0.8125 0.46875 -1.453125 1.390625l-0.546875 0q0.90625 -1.84375 1.9375 -2.6875q1.046875 -0.84375 2.53125 -0.84375q1.046875 0 2.046875 0.578125q1.015625 0.578125 1.625 1.859375q0.609375 1.265625 0.609375 3.453125q0 4.140625 -1.796875 7.453125q-2.03125 3.6875 -5.140625 3.6875q-1.828125 0 -2.90625 -1.046875q-1.0625 -1.0625 -1.0625 -2.875q0 -1.375 0.546875 -2.6875q0.546875 -1.328125 1.375 -2.234375q0.828125 -0.921875 1.859375 -1.453125q1.3125 -0.703125 2.6875 -0.703125q0.96875 0 1.734375 0.375q0.78125 0.359375 1.296875 0.890625q0.3125 0.328125 0.640625 0.96875zm-0.203125 1.046875q-0.453125 -1.296875 -1.359375 -1.96875q-0.90625 -0.671875 -2.0 -0.671875q-1.0625 0 -2.078125 0.734375q-1.015625 0.71875 -1.765625 2.546875q-0.75 1.8125 -0.75 3.640625q0 1.328125 0.640625 2.046875q0.640625 0.71875 1.640625 0.71875q1.4375 0 2.9375 -1.515625q1.921875 -1.953125 2.734375 -5.53125z" fill-rule="nonzero"></path><path fill="#ff0000" d="m472.1993 130.49625q0.40625 0.6875 0.546875 1.28125q0.15625 0.578125 0.3125 2.3125l0.515625 5.765625q0.703125 -0.84375 2.046875 -2.671875q0.640625 -0.890625 1.59375 -2.421875q0.5625 -0.9375 0.703125 -1.3125q0.0625 -0.1875 0.0625 -0.390625q0 -0.125 -0.078125 -0.203125q-0.078125 -0.078125 -0.4375 -0.1875q-0.34375 -0.125 -0.578125 -0.421875q-0.21875 -0.296875 -0.21875 -0.6875q0 -0.46875 0.28125 -0.765625q0.28125 -0.296875 0.703125 -0.296875q0.515625 0 0.875 0.4375q0.375 0.421875 0.375 1.171875q0 0.921875 -0.640625 2.109375q-0.625 1.1875 -2.4375 3.65625q-1.796875 2.453125 -4.375 5.375q-1.765625 2.0 -2.625 2.515625q-0.859375 0.53125 -1.46875 0.53125q-0.359375 0 -0.625 -0.28125q-0.28125 -0.28125 -0.28125 -0.640625q0 -0.453125 0.390625 -0.828125q0.375 -0.375 0.8125 -0.375q0.234375 0 0.390625 0.109375q0.09375 0.046875 0.203125 0.328125q0.109375 0.28125 0.203125 0.375q0.0625 0.046875 0.140625 0.046875q0.078125 0 0.25 -0.109375q0.640625 -0.40625 1.5 -1.265625q1.125 -1.15625 1.671875 -1.875l-0.65625 -7.4375q-0.171875 -1.84375 -0.5 -2.234375q-0.328125 -0.40625 -1.09375 -0.40625q-0.25 0 -0.890625 0.078125l-0.09375 -0.4375l3.421875 -0.84375z" fill-rule="nonzero"></path><path fill="#000000" fill-opacity="0.0" d="m447.5118 116.34908l46.614166 0" fill-rule="evenodd"></path><path stroke="#ff0000" stroke-width="1.0" stroke-linejoin="round" stroke-linecap="butt" d="m447.5118 116.34908l46.614166 0" fill-rule="evenodd"></path><path fill="#000000" fill-opacity="0.0" d="m491.99213 96.28346l46.614197 0l0 38.708664l-46.614197 0z" fill-rule="evenodd"></path><path fill="#ff0000" d="m504.82025 113.56842q0.40625 0.6875 0.546875 1.28125q0.15625 0.578125 0.3125 2.3125l0.515625 5.765625q0.703125 -0.84375 2.046875 -2.671875q0.640625 -0.890625 1.59375 -2.421875q0.5625 -0.9375 0.703125 -1.3125q0.0625 -0.1875 0.0625 -0.390625q0 -0.125 -0.078125 -0.203125q-0.078125 -0.078125 -0.4375 -0.1875q-0.34375 -0.125 -0.578125 -0.421875q-0.21875 -0.296875 -0.21875 -0.6875q0 -0.46875 0.28125 -0.765625q0.28125 -0.296875 0.703125 -0.296875q0.515625 0 0.875 0.4375q0.375 0.421875 0.375 1.171875q0 0.921875 -0.640625 2.109375q-0.625 1.1875 -2.4375 3.65625q-1.796875 2.453125 -4.375 5.375q-1.765625 2.0 -2.625 2.515625q-0.859375 0.53125 -1.46875 0.53125q-0.359375 0 -0.625 -0.28125q-0.28125 -0.28125 -0.28125 -0.640625q0 -0.453125 0.390625 -0.828125q0.375 -0.375 0.8125 -0.375q0.234375 0 0.390625 0.109375q0.09375 0.046875 0.203125 0.328125q0.109375 0.28125 0.203125 0.375q0.0625 0.046875 0.140625 0.046875q0.078125 0 0.25 -0.109375q0.640625 -0.40625 1.5 -1.265625q1.125 -1.15625 1.671875 -1.875l-0.65625 -7.4375q-0.171875 -1.84375 -0.5 -2.234375q-0.328125 -0.40625 -1.09375 -0.40625q-0.25 0 -0.890625 0.078125l-0.09375 -0.4375l3.421875 -0.84375z" fill-rule="nonzero"></path><path fill="#000000" fill-opacity="0.0" d="m830.6011 61.998688l89.35431 1.9212608" fill-rule="evenodd"></path><path stroke="#000000" stroke-width="3.0" stroke-linejoin="round" stroke-linecap="butt" d="m830.6011 61.998688l71.35846 1.5343208" fill-rule="evenodd"></path><path fill="#000000" stroke="#000000" stroke-width="3.0" stroke-linecap="butt" d="m901.853 68.48706l13.717651 -4.661392l-13.504639 -5.2467117z" fill-rule="evenodd"></path><path fill="#000000" fill-opacity="0.0" d="m850.26245 1.2427821l76.91339 0l0 48.724407l-76.91339 0z" fill-rule="evenodd"></path><path fill="#000000" d="m864.3718 26.822159q0.53125 0.90625 0.734375 1.703125q0.203125 0.78125 0.40625 3.09375l0.6875 7.6875q0.9375 -1.125 2.71875 -3.5625q0.859375 -1.1875 2.125 -3.234375q0.765625 -1.25 0.9375 -1.75q0.09375 -0.25 0.09375 -0.515625q0 -0.171875 -0.109375 -0.28125q-0.109375 -0.109375 -0.578125 -0.25q-0.453125 -0.15625 -0.765625 -0.546875q-0.296875 -0.40625 -0.296875 -0.921875q0 -0.640625 0.375 -1.03125q0.375 -0.390625 0.9375 -0.390625q0.6875 0 1.171875 0.578125q0.484375 0.5625 0.484375 1.5625q0 1.234375 -0.84375 2.828125q-0.84375 1.578125 -3.25 4.859375q-2.40625 3.28125 -5.828125 7.15625q-2.359375 2.671875 -3.5 3.359375q-1.140625 0.703125 -1.953125 0.703125q-0.484375 0 -0.84375 -0.375q-0.375 -0.359375 -0.375 -0.84375q0 -0.609375 0.515625 -1.109375q0.5 -0.5 1.09375 -0.5q0.3125 0 0.515625 0.140625q0.125 0.078125 0.28125 0.4375q0.140625 0.375 0.265625 0.5q0.078125 0.078125 0.1875 0.078125q0.09375 0 0.328125 -0.15625q0.859375 -0.53125 2.0 -1.6875q1.5 -1.53125 2.21875 -2.5l-0.875 -9.90625q-0.21875 -2.453125 -0.65625 -2.984375q-0.4375 -0.53125 -1.46875 -0.53125q-0.328125 0 -1.171875 0.09375l-0.140625 -0.578125l4.578125 -1.125z" fill-rule="nonzero"></path><path fill="#000000" fill-opacity="0.0" d="m906.2336 76.25197l-72.91339 -0.28346252" fill-rule="evenodd"></path><path stroke="#ff0000" stroke-width="3.0" stroke-linejoin="round" stroke-linecap="butt" d="m906.2336 76.25197l-54.913513 -0.21348572" fill-rule="evenodd"></path><path fill="#ff0000" stroke="#ff0000" stroke-width="3.0" stroke-linecap="butt" d="m851.33936 71.08332l-13.633484 4.902237l13.59491 5.008087z" fill-rule="evenodd"></path><path fill="#000000" fill-opacity="0.0" d="m854.105 75.95276l46.614197 0l0 72.566925l-46.614197 0z" fill-rule="evenodd"></path><path fill="#ff0000" d="m873.9956 99.58651q0.140625 -1.328125 0.140625 -2.171875q0 -2.109375 -1.109375 -3.265625q-1.109375 -1.15625 -2.953125 -1.15625q-1.234375 0 -2.0625 0.46875q-0.8125 0.46875 -1.453125 1.390625l-0.546875 0q0.90625 -1.84375 1.9375 -2.6875q1.046875 -0.84375 2.53125 -0.84375q1.046875 0 2.046875 0.578125q1.015625 0.578125 1.625 1.859375q0.609375 1.265625 0.609375 3.453125q0 4.140625 -1.796875 7.453125q-2.03125 3.6875 -5.140625 3.6875q-1.828125 0 -2.90625 -1.046875q-1.0625 -1.0625 -1.0625 -2.875q0 -1.375 0.546875 -2.6875q0.546875 -1.328125 1.375 -2.234375q0.828125 -0.921875 1.859375 -1.453125q1.3125 -0.703125 2.6875 -0.703125q0.96875 0 1.734375 0.375q0.78125 0.359375 1.296875 0.890625q0.3125 0.328125 0.640625 0.96875zm-0.203125 1.046875q-0.453125 -1.296875 -1.359375 -1.96875q-0.90625 -0.671875 -2.0 -0.671875q-1.0625 0 -2.078125 0.734375q-1.015625 0.71875 -1.765625 2.546875q-0.75 1.8125 -0.75 3.640625q0 1.328125 0.640625 2.046875q0.640625 0.71875 1.640625 0.71875q1.4375 0 2.9375 -1.515625q1.921875 -1.953125 2.734375 -5.53125z" fill-rule="nonzero"></path><path fill="#ff0000" d="m885.96436 107.99276l-11.78125 0l0.171875 -0.4375q0.9375 -0.015625 1.25 -0.15625q0.5 -0.203125 0.734375 -0.546875q0.359375 -0.53125 0.765625 -1.9375l2.8125 -9.671875q0.34375 -1.203125 0.34375 -1.765625q0 -0.4375 -0.328125 -0.6875q-0.3125 -0.25 -1.203125 -0.25q-0.203125 0 -0.3125 0l0.140625 -0.4375l6.46875 0l-0.09375 0.4375q-1.078125 0 -1.546875 0.21875q-0.453125 0.203125 -0.75 0.671875q-0.21875 0.328125 -0.703125 1.96875l-2.75 9.515625q-0.3125 1.078125 -0.3125 1.5q0 0.28125 0.3125 0.53125q0.203125 0.171875 0.90625 0.171875l1.53125 0q1.671875 0 2.65625 -0.421875q0.734375 -0.3125 1.34375 -0.9375q0.328125 -0.359375 1.15625 -1.75l0.3125 -0.53125l0.421875 0l-1.546875 4.515625z" fill-rule="nonzero"></path><path fill="#ff0000" d="m873.9956 128.5865q0.140625 -1.3281174 0.140625 -2.1718674q0 -2.109375 -1.109375 -3.265625q-1.109375 -1.15625 -2.953125 -1.15625q-1.234375 0 -2.0625 0.46875q-0.8125 0.46875 -1.453125 1.390625l-0.546875 0q0.90625 -1.84375 1.9375 -2.6875q1.046875 -0.84375 2.53125 -0.84375q1.046875 0 2.046875 0.578125q1.015625 0.578125 1.625 1.859375q0.609375 1.265625 0.609375 3.453125q0 4.1406174 -1.796875 7.4531174q-2.03125 3.6875 -5.140625 3.6875q-1.828125 0 -2.90625 -1.046875q-1.0625 -1.0625 -1.0625 -2.875q0 -1.375 0.546875 -2.6875q0.546875 -1.328125 1.375 -2.234375q0.828125 -0.9218674 1.859375 -1.4531174q1.3125 -0.703125 2.6875 -0.703125q0.96875 0 1.734375 0.375q0.78125 0.359375 1.296875 0.890625q0.3125 0.328125 0.640625 0.9687424zm-0.203125 1.046875q-0.453125 -1.296875 -1.359375 -1.9687424q-0.90625 -0.671875 -2.0 -0.671875q-1.0625 0 -2.078125 0.734375q-1.015625 0.7187424 -1.765625 2.5468674q-0.75 1.8125 -0.75 3.640625q0 1.328125 0.640625 2.046875q0.640625 0.71875 1.640625 0.71875q1.4375 0 2.9375 -1.515625q1.921875 -1.953125 2.734375 -5.53125z" fill-rule="nonzero"></path><path fill="#ff0000" d="m878.7925 126.383385q0.40625 0.6875 0.546875 1.28125q0.15625 0.5781174 0.3125 2.3124924l0.515625 5.765625q0.703125 -0.84375 2.046875 -2.671875q0.640625 -0.890625 1.59375 -2.421875q0.5625 -0.9375 0.703125 -1.3125q0.0625 -0.1875 0.0625 -0.390625q0 -0.125 -0.078125 -0.203125q-0.078125 -0.078125 -0.4375 -0.1875q-0.34375 -0.125 -0.578125 -0.421875q-0.21875 -0.29686737 -0.21875 -0.6874924q0 -0.46875 0.28125 -0.765625q0.28125 -0.296875 0.703125 -0.296875q0.515625 0 0.875 0.4375q0.375 0.421875 0.375 1.171875q0 0.9218674 -0.640625 2.1093674q-0.625 1.1875 -2.4375 3.65625q-1.796875 2.453125 -4.375 5.375q-1.765625 2.0 -2.625 2.515625q-0.859375 0.53125 -1.46875 0.53125q-0.359375 0 -0.625 -0.28125q-0.28125 -0.28125 -0.28125 -0.640625q0 -0.453125 0.390625 -0.828125q0.375 -0.375 0.8125 -0.375q0.234375 0 0.390625 0.109375q0.09375 0.046875 0.203125 0.328125q0.109375 0.28125 0.203125 0.375q0.0625 0.046875 0.140625 0.046875q0.078125 0 0.25 -0.109375q0.640625 -0.40625 1.5 -1.265625q1.125 -1.15625 1.671875 -1.875l-0.65625 -7.4375q-0.171875 -1.84375 -0.5 -2.2343674q-0.328125 -0.40625 -1.09375 -0.40625q-0.25 0 -0.890625 0.078125l-0.09375 -0.4375l3.421875 -0.84375z" fill-rule="nonzero"></path><path fill="#000000" fill-opacity="0.0" d="m854.105 112.23622l46.614197 0" fill-rule="evenodd"></path><path stroke="#ff0000" stroke-width="1.0" stroke-linejoin="round" stroke-linecap="butt" d="m854.105 112.23622l46.614197 0" fill-rule="evenodd"></path><path fill="#000000" fill-opacity="0.0" d="m510.6719 96.28346l31.77951 0l0 28.314964l-31.77951 0z" fill-rule="evenodd"></path><path fill="#ff0000" d="m525.2032 114.60159l0 0.921875l-5.203125 0q0 -0.34375 0.125 -0.671875q0.1875 -0.53125 0.625 -1.046875q0.4375 -0.515625 1.265625 -1.1875q1.28125 -1.0625 1.734375 -1.671875q0.453125 -0.609375 0.453125 -1.15625q0 -0.578125 -0.40625 -0.96875q-0.40625 -0.40625 -1.078125 -0.40625q-0.6875 0 -1.109375 0.421875q-0.421875 0.421875 -0.421875 1.15625l-1.0 -0.09375q0.109375 -1.109375 0.765625 -1.6875q0.671875 -0.59375 1.796875 -0.59375q1.125 0 1.78125 0.625q0.671875 0.625 0.671875 1.5625q0 0.46875 -0.203125 0.9375q-0.1875 0.453125 -0.640625 0.953125q-0.4375 0.5 -1.484375 1.390625q-0.875 0.71875 -1.125 0.984375q-0.234375 0.265625 -0.40625 0.53125l3.859375 0z" fill-rule="nonzero"></path><path fill="#000000" fill-opacity="0.0" d="m721.5853 84.56693l46.614136 0l0 38.708656l-46.614136 0z" fill-rule="evenodd"></path><path fill="#ff0000" d="m734.41345 101.85188q0.40625 0.6875 0.546875 1.28125q0.15625 0.578125 0.3125 2.3125l0.515625 5.765625q0.703125 -0.84375 2.046875 -2.671875q0.640625 -0.890625 1.59375 -2.421875q0.5625 -0.9375 0.703125 -1.3125q0.0625 -0.1875 0.0625 -0.390625q0 -0.125 -0.078125 -0.203125q-0.078125 -0.078125 -0.4375 -0.1875q-0.34375 -0.125 -0.578125 -0.421875q-0.21875 -0.296875 -0.21875 -0.6875q0 -0.46875 0.28125 -0.765625q0.28125 -0.296875 0.703125 -0.296875q0.515625 0 0.875 0.4375q0.375 0.421875 0.375 1.171875q0 0.921875 -0.640625 2.109375q-0.625 1.1875 -2.4375 3.65625q-1.796875 2.453125 -4.375 5.375q-1.765625 2.0 -2.625 2.515625q-0.859375 0.53125 -1.46875 0.53125q-0.359375 0 -0.625 -0.28125q-0.28125 -0.28125 -0.28125 -0.640625q0 -0.453125 0.390625 -0.828125q0.375 -0.375 0.8125 -0.375q0.234375 0 0.390625 0.109375q0.09375 0.046875 0.203125 0.328125q0.109375 0.28125 0.203125 0.375q0.0625 0.046875 0.140625 0.046875q0.078125 0 0.25 -0.109375q0.640625 -0.40625 1.5 -1.265625q1.125 -1.15625 1.671875 -1.875l-0.65625 -7.4375q-0.171875 -1.84375 -0.5 -2.234375q-0.328125 -0.40625 -1.09375 -0.40625q-0.25 0 -0.890625 0.078125l-0.09375 -0.4375l3.421875 -0.84375z" fill-rule="nonzero"></path><path fill="#000000" fill-opacity="0.0" d="m740.2651 84.56693l31.779541 0l0 28.314957l-31.779541 0z" fill-rule="evenodd"></path><path fill="#ff0000" d="m754.7963 102.885056l0 0.921875l-5.203125 0q0 -0.34375 0.125 -0.671875q0.1875 -0.53125 0.625 -1.046875q0.4375 -0.515625 1.265625 -1.1875q1.28125 -1.0625 1.734375 -1.671875q0.453125 -0.609375 0.453125 -1.15625q0 -0.578125 -0.40625 -0.96875q-0.40625 -0.40625 -1.078125 -0.40625q-0.6875 0 -1.109375 0.421875q-0.421875 0.421875 -0.421875 1.15625l-1.0 -0.09375q0.109375 -1.109375 0.765625 -1.6875q0.671875 -0.59375 1.796875 -0.59375q1.125 0 1.78125 0.625q0.671875 0.625 0.671875 1.5625q0 0.46875 -0.203125 0.9375q-0.1875 0.453125 -0.640625 0.953125q-0.4375 0.5 -1.484375 1.390625q-0.875 0.71875 -1.125 0.984375q-0.234375 0.265625 -0.40625 0.53125l3.859375 0z" fill-rule="nonzero"></path><path fill="#000000" fill-opacity="0.0" d="m651.2021 107.7874l17.35437 0.03150177" fill-rule="evenodd"></path><path stroke="#ff0000" stroke-width="1.0" stroke-linejoin="round" stroke-linecap="butt" d="m651.2021 107.7874l17.35437 0.03150177" fill-rule="evenodd"></path><path fill="#000000" fill-opacity="0.0" d="m233.52625 88.29921l46.614166 0l0 72.566925l-46.614166 0z" fill-rule="evenodd"></path><path fill="#ff0000" d="m253.41687 111.93296q0.140625 -1.328125 0.140625 -2.171875q0 -2.109375 -1.109375 -3.265625q-1.109375 -1.15625 -2.953125 -1.15625q-1.234375 0 -2.0625 0.46875q-0.8125 0.46875 -1.453125 1.390625l-0.546875 0q0.90625 -1.84375 1.9375 -2.6875q1.046875 -0.84375 2.53125 -0.84375q1.046875 0 2.046875 0.578125q1.015625 0.578125 1.625 1.859375q0.609375 1.265625 0.609375 3.453125q0 4.140625 -1.796875 7.453125q-2.03125 3.6875 -5.140625 3.6875q-1.828125 0 -2.90625 -1.046875q-1.0625 -1.0625 -1.0625 -2.875q0 -1.375 0.546875 -2.6875q0.546875 -1.328125 1.375 -2.234375q0.828125 -0.921875 1.859375 -1.453125q1.3125 -0.703125 2.6875 -0.703125q0.96875 0 1.734375 0.375q0.78125 0.359375 1.296875 0.890625q0.3125 0.328125 0.640625 0.96875zm-0.203125 1.046875q-0.453125 -1.296875 -1.359375 -1.96875q-0.90625 -0.671875 -2.0 -0.671875q-1.0625 0 -2.078125 0.734375q-1.015625 0.71875 -1.765625 2.546875q-0.75 1.8125 -0.75 3.640625q0 1.328125 0.640625 2.046875q0.640625 0.71875 1.640625 0.71875q1.4375 0 2.9375 -1.515625q1.921875 -1.953125 2.734375 -5.53125z" fill-rule="nonzero"></path><path fill="#ff0000" d="m265.38562 120.33921l-11.78125 0l0.171875 -0.4375q0.9375 -0.015625 1.25 -0.15625q0.5 -0.203125 0.734375 -0.546875q0.359375 -0.53125 0.765625 -1.9375l2.8125 -9.671875q0.34375 -1.203125 0.34375 -1.765625q0 -0.4375 -0.328125 -0.6875q-0.3125 -0.25 -1.203125 -0.25q-0.203125 0 -0.3125 0l0.140625 -0.4375l6.46875 0l-0.09375 0.4375q-1.078125 0 -1.546875 0.21875q-0.453125 0.203125 -0.75 0.671875q-0.21875 0.328125 -0.703125 1.96875l-2.75 9.515625q-0.3125 1.078125 -0.3125 1.5q0 0.28125 0.3125 0.53125q0.203125 0.171875 0.90625 0.171875l1.53125 0q1.671875 0 2.65625 -0.421875q0.734375 -0.3125 1.34375 -0.9375q0.328125 -0.359375 1.15625 -1.75l0.3125 -0.53125l0.421875 0l-1.546875 4.515625z" fill-rule="nonzero"></path><path fill="#ff0000" d="m253.41687 140.93297q0.140625 -1.328125 0.140625 -2.171875q0 -2.109375 -1.109375 -3.265625q-1.109375 -1.15625 -2.953125 -1.15625q-1.234375 0 -2.0625 0.46875q-0.8125 0.46875 -1.453125 1.390625l-0.546875 0q0.90625 -1.84375 1.9375 -2.6875q1.046875 -0.84375 2.53125 -0.84375q1.046875 0 2.046875 0.578125q1.015625 0.578125 1.625 1.859375q0.609375 1.265625 0.609375 3.453125q0 4.140625 -1.796875 7.453125q-2.03125 3.6875 -5.140625 3.6875q-1.828125 0 -2.90625 -1.046875q-1.0625 -1.0625 -1.0625 -2.875q0 -1.375 0.546875 -2.6875q0.546875 -1.328125 1.375 -2.234375q0.828125 -0.921875 1.859375 -1.453125q1.3125 -0.703125 2.6875 -0.703125q0.96875 0 1.734375 0.375q0.78125 0.359375 1.296875 0.890625q0.3125 0.328125 0.640625 0.96875zm-0.203125 1.046875q-0.453125 -1.296875 -1.359375 -1.96875q-0.90625 -0.671875 -2.0 -0.671875q-1.0625 0 -2.078125 0.734375q-1.015625 0.71875 -1.765625 2.546875q-0.75 1.8125 -0.75 3.640625q0 1.328125 0.640625 2.046875q0.640625 0.71875 1.640625 0.71875q1.4375 0 2.9375 -1.515625q1.921875 -1.953125 2.734375 -5.53125z" fill-rule="nonzero"></path><path fill="#ff0000" d="m258.21375 138.72984q0.40625 0.6875 0.546875 1.28125q0.15625 0.578125 0.3125 2.3125l0.515625 5.765625q0.703125 -0.84375 2.046875 -2.671875q0.640625 -0.890625 1.59375 -2.421875q0.5625 -0.9375 0.703125 -1.3125q0.0625 -0.1875 0.0625 -0.390625q0 -0.125 -0.078125 -0.203125q-0.078125 -0.078125 -0.4375 -0.1875q-0.34375 -0.125 -0.578125 -0.421875q-0.21875 -0.296875 -0.21875 -0.6875q0 -0.46875 0.28125 -0.765625q0.28125 -0.296875 0.703125 -0.296875q0.515625 0 0.875 0.4375q0.375 0.421875 0.375 1.171875q0 0.921875 -0.640625 2.109375q-0.625 1.1875 -2.4375 3.65625q-1.796875 2.453125 -4.375 5.375q-1.765625 2.0 -2.625 2.515625q-0.859375 0.53125 -1.46875 0.53125q-0.359375 0 -0.625 -0.28125q-0.28125 -0.28125 -0.28125 -0.640625q0 -0.453125 0.390625 -0.828125q0.375 -0.375 0.8125 -0.375q0.234375 0 0.390625 0.109375q0.09375 0.046875 0.203125 0.328125q0.109375 0.28125 0.203125 0.375q0.0625 0.046875 0.140625 0.046875q0.078125 0 0.25 -0.109375q0.640625 -0.40625 1.5 -1.265625q1.125 -1.15625 1.671875 -1.875l-0.65625 -7.4375q-0.171875 -1.84375 -0.5 -2.234375q-0.328125 -0.40625 -1.09375 -0.40625q-0.25 0 -0.890625 0.078125l-0.09375 -0.4375l3.421875 -0.84375z" fill-rule="nonzero"></path><path fill="#000000" fill-opacity="0.0" d="m233.52625 124.58268l46.614166 0" fill-rule="evenodd"></path><path stroke="#ff0000" stroke-width="1.0" stroke-linejoin="round" stroke-linecap="butt" d="m233.52625 124.58268l46.614166 0" fill-rule="evenodd"></path><path fill="#000000" fill-opacity="0.0" d="m278.00778 104.51706l125.543304 0l0 38.708664l-125.543304 0z" fill-rule="evenodd"></path><path fill="#ff0000" d="m290.8359 121.80202q0.40625 0.6875 0.546875 1.28125q0.15625 0.578125 0.3125 2.3125l0.515625 5.765625q0.703125 -0.84375 2.046875 -2.671875q0.640625 -0.890625 1.59375 -2.421875q0.5625 -0.9375 0.703125 -1.3125q0.0625 -0.1875 0.0625 -0.390625q0 -0.125 -0.078125 -0.203125q-0.078125 -0.078125 -0.4375 -0.1875q-0.34375 -0.125 -0.578125 -0.421875q-0.21875 -0.296875 -0.21875 -0.6875q0 -0.46875 0.28125 -0.765625q0.28125 -0.296875 0.703125 -0.296875q0.515625 0 0.875 0.4375q0.375 0.421875 0.375 1.171875q0 0.921875 -0.640625 2.109375q-0.625 1.1875 -2.4375 3.65625q-1.796875 2.453125 -4.375 5.375q-1.765625 2.0 -2.625 2.515625q-0.859375 0.53125 -1.46875 0.53125q-0.359375 0 -0.625 -0.28125q-0.28125 -0.28125 -0.28125 -0.640625q0 -0.453125 0.390625 -0.828125q0.375 -0.375 0.8125 -0.375q0.234375 0 0.390625 0.109375q0.09375 0.046875 0.203125 0.328125q0.109375 0.28125 0.203125 0.375q0.0625 0.046875 0.140625 0.046875q0.078125 0 0.25 -0.109375q0.640625 -0.40625 1.5 -1.265625q1.125 -1.15625 1.671875 -1.875l-0.65625 -7.4375q-0.171875 -1.84375 -0.5 -2.234375q-0.328125 -0.40625 -1.09375 -0.40625q-0.25 0 -0.890625 0.078125l-0.09375 -0.4375l3.421875 -0.84375z" fill-rule="nonzero"></path><path fill="#ff0000" d="m318.22263 125.72389q-0.015625 2.390625 1.15625 3.75q1.171875 1.359375 2.75 1.359375q1.0625 0 1.828125 -0.578125q0.78125 -0.59375 1.3125 -2.0l0.359375 0.234375q-0.234375 1.609375 -1.421875 2.9375q-1.1875 1.3125 -2.96875 1.3125q-1.9375 0 -3.3125 -1.5q-1.375 -1.515625 -1.375 -4.0625q0 -2.75 1.40625 -4.28125q1.421875 -1.546875 3.546875 -1.546875q1.8125 0 2.96875 1.1875q1.15625 1.1875 1.15625 3.1875l-7.40625 0zm0 -0.6875l4.96875 0q-0.0625 -1.03125 -0.25 -1.453125q-0.296875 -0.65625 -0.875 -1.03125q-0.578125 -0.375 -1.21875 -0.375q-0.96875 0 -1.734375 0.765625q-0.765625 0.75 -0.890625 2.09375zm8.402344 -3.359375l5.0625 0l0 0.4375q-0.484375 0 -0.6875 0.171875q-0.1875 0.15625 -0.1875 0.421875q0 0.28125 0.40625 0.859375q0.140625 0.1875 0.390625 0.59375l0.765625 1.21875l0.875 -1.21875q0.84375 -1.15625 0.84375 -1.46875q0 -0.25 -0.203125 -0.40625q-0.1875 -0.171875 -0.640625 -0.171875l0 -0.4375l3.640625 0l0 0.4375q-0.578125 0.03125 -1.0 0.3125q-0.578125 0.390625 -1.578125 1.734375l-1.453125 1.953125l2.671875 3.84375q0.984375 1.421875 1.40625 1.71875q0.421875 0.28125 1.078125 0.3125l0 0.421875l-5.0625 0l0 -0.421875q0.53125 0 0.828125 -0.234375q0.21875 -0.171875 0.21875 -0.4375q0 -0.265625 -0.75 -1.359375l-1.5625 -2.296875l-1.734375 2.296875q-0.796875 1.0625 -0.796875 1.265625q0 0.28125 0.265625 0.515625q0.265625 0.21875 0.796875 0.25l0 0.421875l-3.5 0l0 -0.421875q0.421875 -0.0625 0.734375 -0.296875q0.4375 -0.34375 1.5 -1.734375l2.25 -2.984375l-2.046875 -2.953125q-0.859375 -1.265625 -1.34375 -1.578125q-0.46875 -0.328125 -1.1875 -0.328125l0 -0.4375zm11.65625 1.0625l3.3125 -1.328125l0.453125 0l0 2.5q0.828125 -1.421875 1.65625 -1.984375q0.84375 -0.5625 1.765625 -0.5625q1.625 0 2.703125 1.265625q1.328125 1.546875 1.328125 4.03125q0 2.765625 -1.59375 4.59375q-1.3125 1.484375 -3.3125 1.484375q-0.859375 0 -1.5 -0.25q-0.46875 -0.171875 -1.046875 -0.703125l0 3.28125q0 1.09375 0.125 1.390625q0.140625 0.296875 0.46875 0.46875q0.34375 0.1875 1.21875 0.1875l0 0.4375l-5.625 0l0 -0.4375l0.296875 0q0.640625 0.015625 1.09375 -0.25q0.21875 -0.125 0.34375 -0.421875q0.125 -0.28125 0.125 -1.453125l0 -10.15625q0 -1.03125 -0.09375 -1.3125q-0.09375 -0.28125 -0.296875 -0.421875q-0.203125 -0.140625 -0.5625 -0.140625q-0.28125 0 -0.703125 0.15625l-0.15625 -0.375zm3.765625 1.859375l0 4.015625q0 1.296875 0.09375 1.703125q0.171875 0.6875 0.8125 1.203125q0.640625 0.515625 1.609375 0.515625q1.171875 0 1.890625 -0.921875q0.953125 -1.1875 0.953125 -3.359375q0 -2.453125 -1.078125 -3.78125q-0.75 -0.921875 -1.78125 -0.921875q-0.5625 0 -1.109375 0.28125q-0.421875 0.21875 -1.390625 1.265625zm15.71875 12.515625l0 0.4375q-1.765625 -0.890625 -2.953125 -2.09375q-1.6875 -1.703125 -2.609375 -4.0q-0.90625 -2.3125 -0.90625 -4.796875q0 -3.640625 1.796875 -6.625q1.796875 -3.0 4.671875 -4.296875l0 0.5q-1.4375 0.796875 -2.375 2.1875q-0.921875 1.375 -1.375 3.5q-0.453125 2.109375 -0.453125 4.421875q0 2.515625 0.390625 4.5625q0.296875 1.625 0.734375 2.59375q0.4375 0.984375 1.15625 1.875q0.734375 0.90625 1.921875 1.734375zm1.5078125 -10.96875l6.0625 0l0 1.765625l-6.0625 0l0 -1.765625zm7.3359375 -4.46875l5.0625 0l0 0.4375q-0.484375 0 -0.6875 0.171875q-0.1875 0.15625 -0.1875 0.421875q0 0.28125 0.40625 0.859375q0.140625 0.1875 0.390625 0.59375l0.765625 1.21875l0.875 -1.21875q0.84375 -1.15625 0.84375 -1.46875q0 -0.25 -0.203125 -0.40625q-0.1875 -0.171875 -0.640625 -0.171875l0 -0.4375l3.640625 0l0 0.4375q-0.578125 0.03125 -1.0 0.3125q-0.578125 0.390625 -1.578125 1.734375l-1.453125 1.953125l2.671875 3.84375q0.984375 1.421875 1.40625 1.71875q0.421875 0.28125 1.078125 0.3125l0 0.421875l-5.0625 0l0 -0.421875q0.53125 0 0.828125 -0.234375q0.21875 -0.171875 0.21875 -0.4375q0 -0.265625 -0.75 -1.359375l-1.5625 -2.296875l-1.734375 2.296875q-0.796875 1.0625 -0.796875 1.265625q0 0.28125 0.265625 0.515625q0.265625 0.21875 0.796875 0.25l0 0.421875l-3.5 0l0 -0.421875q0.421875 -0.0625 0.734375 -0.296875q0.4375 -0.34375 1.5 -1.734375l2.25 -2.984375l-2.046875 -2.953125q-0.859375 -1.265625 -1.34375 -1.578125q-0.46875 -0.328125 -1.1875 -0.328125l0 -0.4375zm12.234375 -5.4375l0 -0.5q1.78125 0.890625 2.953125 2.078125q1.6875 1.71875 2.59375 4.015625q0.921875 2.296875 0.921875 4.796875q0 3.640625 -1.796875 6.625q-1.78125 3.0 -4.671875 4.296875l0 -0.4375q1.4375 -0.8125 2.359375 -2.1875q0.9375 -1.375 1.390625 -3.5q0.453125 -2.140625 0.453125 -4.4375q0 -2.5 -0.390625 -4.5625q-0.296875 -1.625 -0.734375 -2.59375q-0.4375 -0.96875 -1.171875 -1.875q-0.71875 -0.90625 -1.90625 -1.71875z" fill-rule="nonzero"></path><path fill="#000000" fill-opacity="0.0" d="m296.68634 104.51706l31.779541 0l0 28.314957l-31.779541 0z" fill-rule="evenodd"></path><path fill="#ff0000" d="m311.2176 122.83518l0 0.921875l-5.203125 0q0 -0.34375 0.125 -0.671875q0.1875 -0.53125 0.625 -1.046875q0.4375 -0.515625 1.265625 -1.1875q1.28125 -1.0625 1.734375 -1.671875q0.453125 -0.609375 0.453125 -1.15625q0 -0.578125 -0.40625 -0.96875q-0.40625 -0.40625 -1.078125 -0.40625q-0.6875 0 -1.109375 0.421875q-0.421875 0.421875 -0.421875 1.15625l-1.0 -0.09375q0.109375 -1.109375 0.765625 -1.6875q0.671875 -0.59375 1.796875 -0.59375q1.125 0 1.78125 0.625q0.671875 0.625 0.671875 1.5625q0 0.46875 -0.203125 0.9375q-0.1875 0.453125 -0.640625 0.953125q-0.4375 0.5 -1.484375 1.390625q-0.875 0.71875 -1.125 0.984375q-0.234375 0.265625 -0.40625 0.53125l3.859375 0z" fill-rule="nonzero"></path><path fill="#000000" fill-opacity="0.0" d="m0.86220473 67.27821l46.614174 0l0 72.566925l-46.614174 0z" fill-rule="evenodd"></path><path fill="#ff0000" d="m20.75283 90.911964q0.140625 -1.328125 0.140625 -2.171875q0 -2.109375 -1.109375 -3.265625q-1.109375 -1.15625 -2.953125 -1.15625q-1.234376 0 -2.062501 0.46875q-0.8125 0.46875 -1.453125 1.390625l-0.546875 0q0.90625 -1.84375 1.9375 -2.6875q1.046875 -0.84375 2.531251 -0.84375q1.046875 0 2.046875 0.578125q1.015625 0.578125 1.625 1.859375q0.609375 1.265625 0.609375 3.453125q0 4.140625 -1.796875 7.453125q-2.03125 3.6875 -5.140626 3.6875q-1.828125 0 -2.90625 -1.046875q-1.0625 -1.0625 -1.0625 -2.875q0 -1.375 0.546875 -2.6875q0.546875 -1.328125 1.375 -2.234375q0.828125 -0.921875 1.859375 -1.453125q1.3125 -0.703125 2.687501 -0.703125q0.96875 0 1.734375 0.375q0.78125 0.359375 1.296875 0.890625q0.3125 0.328125 0.640625 0.96875zm-0.203125 1.046875q-0.453125 -1.296875 -1.359375 -1.96875q-0.90625 -0.671875 -2.0 -0.671875q-1.0625 0 -2.078126 0.734375q-1.015625 0.71875 -1.765625 2.546875q-0.75 1.8125 -0.75 3.640625q0 1.328125 0.640625 2.046875q0.640625 0.71875 1.640625 0.71875q1.437501 0 2.937501 -1.515625q1.921875 -1.953125 2.734375 -5.53125z" fill-rule="nonzero"></path><path fill="#ff0000" d="m32.72158 99.318214l-11.78125 0l0.171875 -0.4375q0.9375 -0.015625 1.25 -0.15625q0.5 -0.203125 0.734375 -0.546875q0.359375 -0.53125 0.765625 -1.9375l2.8125 -9.671875q0.34375 -1.203125 0.34375 -1.765625q0 -0.4375 -0.328125 -0.6875q-0.3125 -0.25 -1.203125 -0.25q-0.203125 0 -0.3125 0l0.140625 -0.4375l6.46875 0l-0.09375 0.4375q-1.078125 0 -1.546875 0.21875q-0.453125 0.203125 -0.75 0.671875q-0.21875 0.328125 -0.703125 1.96875l-2.75 9.515625q-0.3125 1.078125 -0.3125 1.5q0 0.28125 0.3125 0.53125q0.203125 0.171875 0.90625 0.171875l1.53125 0q1.671875 0 2.65625 -0.421875q0.734375 -0.3125 1.34375 -0.9375q0.328125 -0.359375 1.15625 -1.75l0.3125 -0.53125l0.421875 0l-1.546875 4.515625z" fill-rule="nonzero"></path><path fill="#ff0000" d="m20.75283 119.911964q0.140625 -1.328125 0.140625 -2.171875q0 -2.109375 -1.109375 -3.265625q-1.109375 -1.15625 -2.953125 -1.15625q-1.234376 0 -2.062501 0.46875q-0.8125 0.46875 -1.453125 1.390625l-0.546875 0q0.90625 -1.84375 1.9375 -2.6875q1.046875 -0.84375 2.531251 -0.84375q1.046875 0 2.046875 0.578125q1.015625 0.578125 1.625 1.859375q0.609375 1.265625 0.609375 3.453125q0 4.140625 -1.796875 7.453125q-2.03125 3.6875076 -5.140626 3.6875076q-1.828125 0 -2.90625 -1.0468826q-1.0625 -1.0625 -1.0625 -2.875q0 -1.375 0.546875 -2.6875q0.546875 -1.328125 1.375 -2.234375q0.828125 -0.921875 1.859375 -1.453125q1.3125 -0.703125 2.687501 -0.703125q0.96875 0 1.734375 0.375q0.78125 0.359375 1.296875 0.890625q0.3125 0.328125 0.640625 0.96875zm-0.203125 1.046875q-0.453125 -1.296875 -1.359375 -1.96875q-0.90625 -0.671875 -2.0 -0.671875q-1.0625 0 -2.078126 0.734375q-1.015625 0.71875 -1.765625 2.546875q-0.75 1.8125 -0.75 3.640625q0 1.328125 0.640625 2.046875q0.640625 0.7187576 1.640625 0.7187576q1.437501 0 2.937501 -1.5156326q1.921875 -1.953125 2.734375 -5.53125z" fill-rule="nonzero"></path><path fill="#ff0000" d="m25.549706 117.70884q0.40625 0.6875 0.546875 1.28125q0.15625 0.578125 0.3125 2.3125l0.515625 5.765625q0.703125 -0.84375 2.046875 -2.671875q0.640625 -0.890625 1.59375 -2.421875q0.5625 -0.9375 0.703125 -1.3125q0.0625 -0.1875 0.0625 -0.390625q0 -0.125 -0.078125 -0.203125q-0.078125 -0.078125 -0.4375 -0.1875q-0.34375 -0.125 -0.578125 -0.421875q-0.21875 -0.296875 -0.21875 -0.6875q0 -0.46875 0.28125 -0.765625q0.28125 -0.296875 0.703125 -0.296875q0.515625 0 0.875 0.4375q0.375 0.421875 0.375 1.171875q0 0.921875 -0.640625 2.109375q-0.625 1.1875 -2.4375 3.65625q-1.796875 2.453125 -4.375 5.3750076q-1.765625 2.0 -2.625 2.515625q-0.859375 0.53125 -1.46875 0.53125q-0.359375 0 -0.625 -0.28125q-0.28125 -0.28125 -0.28125 -0.640625q0 -0.453125 0.390625 -0.828125q0.375 -0.375 0.8125 -0.375q0.234375 0 0.390625 0.109375q0.09375 0.046875 0.203125 0.328125q0.109375 0.28125 0.203125 0.375q0.0625 0.046875 0.140625 0.046875q0.078125 0 0.25 -0.109375q0.640625 -0.40625 1.5 -1.265625q1.125 -1.15625 1.671875 -1.875l-0.65625 -7.4375076q-0.171875 -1.84375 -0.5 -2.234375q-0.328125 -0.40625 -1.09375 -0.40625q-0.25 0 -0.890625 0.078125l-0.09375 -0.4375l3.421875 -0.84375z" fill-rule="nonzero"></path><path fill="#000000" fill-opacity="0.0" d="m0.86220473 103.561676l46.614174 0" fill-rule="evenodd"></path><path stroke="#ff0000" stroke-width="1.0" stroke-linejoin="round" stroke-linecap="butt" d="m0.86220473 103.561676l46.614174 0" fill-rule="evenodd"></path><path fill="#000000" fill-opacity="0.0" d="m45.343136 83.49606l141.76378 0l0 38.708664l-141.76378 0z" fill-rule="evenodd"></path><path fill="#ff0000" d="m58.17126 100.78101q0.40625 0.6875 0.546875 1.28125q0.15625 0.578125 0.3125 2.3125l0.515625 5.765625q0.703125 -0.84375 2.046875 -2.671875q0.640625 -0.890625 1.59375 -2.421875q0.5625 -0.9375 0.703125 -1.3125q0.0625 -0.1875 0.0625 -0.390625q0 -0.125 -0.078125 -0.203125q-0.078125 -0.078125 -0.4375 -0.1875q-0.34375 -0.125 -0.578125 -0.421875q-0.21875 -0.296875 -0.21875 -0.6875q0 -0.46875 0.28125 -0.765625q0.28125 -0.296875 0.703125 -0.296875q0.5156212 0 0.8749962 0.4375q0.375 0.421875 0.375 1.171875q0 0.921875 -0.640625 2.109375q-0.6249962 1.1875 -2.4374962 3.65625q-1.796875 2.453125 -4.375 5.375q-1.765625 2.0 -2.625 2.515625q-0.859375 0.53125 -1.46875 0.53125q-0.359375 0 -0.625 -0.28125q-0.28125 -0.28125 -0.28125 -0.640625q0 -0.453125 0.390625 -0.828125q0.375 -0.375 0.8125 -0.375q0.234375 0 0.390625 0.109375q0.09375 0.046875 0.203125 0.328125q0.109375 0.28125 0.203125 0.375q0.0625 0.046875 0.140625 0.046875q0.078125 0 0.25 -0.109375q0.640625 -0.40625 1.5 -1.265625q1.125 -1.15625 1.671875 -1.875l-0.65625 -7.4375q-0.171875 -1.84375 -0.5 -2.234375q-0.328125 -0.40625 -1.09375 -0.40625q-0.25 0 -0.890625 0.078125l-0.09375 -0.4375l3.421875 -0.84375z" fill-rule="nonzero"></path><path fill="#ff0000" d="m85.557976 104.70289q-0.015625 2.390625 1.15625 3.75q1.171875 1.359375 2.75 1.359375q1.0625 0 1.828125 -0.578125q0.78125 -0.59375 1.3125 -2.0l0.359375 0.234375q-0.234375 1.609375 -1.421875 2.9375q-1.1875 1.3125 -2.96875 1.3125q-1.9375 0 -3.3125 -1.5q-1.375 -1.515625 -1.375 -4.0625q0 -2.75 1.40625 -4.28125q1.421875 -1.546875 3.546875 -1.546875q1.8125 0 2.96875 1.1875q1.15625 1.1875 1.15625 3.1875l-7.40625 0zm0 -0.6875l4.96875 0q-0.0625 -1.03125 -0.25 -1.453125q-0.296875 -0.65625 -0.875 -1.03125q-0.578125 -0.375 -1.21875 -0.375q-0.96875 0 -1.734375 0.765625q-0.765625 0.75 -0.890625 2.09375zm8.402344 -3.359375l5.0625 0l0 0.4375q-0.484375 0 -0.6875 0.171875q-0.1875 0.15625 -0.1875 0.421875q0 0.28125 0.40625 0.859375q0.140625 0.1875 0.390625 0.59375l0.765625 1.21875l0.875 -1.21875q0.84375 -1.15625 0.84375 -1.46875q0 -0.25 -0.203125 -0.40625q-0.1875 -0.171875 -0.640625 -0.171875l0 -0.4375l3.640625 0l0 0.4375q-0.578125 0.03125 -1.0 0.3125q-0.578125 0.390625 -1.578125 1.734375l-1.453125 1.953125l2.671875 3.84375q0.984375 1.421875 1.40625 1.71875q0.421875 0.28125 1.078125 0.3125l0 0.421875l-5.0625 0l0 -0.421875q0.53125 0 0.828125 -0.234375q0.21875 -0.171875 0.21875 -0.4375q0 -0.265625 -0.75 -1.359375l-1.5625 -2.296875l-1.734375 2.296875q-0.796875 1.0625 -0.796875 1.265625q0 0.28125 0.265625 0.515625q0.265625 0.21875 0.796875 0.25l0 0.421875l-3.5 0l0 -0.421875q0.421875 -0.0625 0.734375 -0.296875q0.4375 -0.34375 1.5 -1.734375l2.25 -2.984375l-2.046875 -2.953125q-0.859375 -1.265625 -1.34375 -1.578125q-0.46875 -0.328125 -1.1875 -0.328125l0 -0.4375zm11.65625 1.0625l3.3125 -1.328125l0.453125 0l0 2.5q0.828125 -1.421875 1.65625 -1.984375q0.84375 -0.5625 1.765625 -0.5625q1.625 0 2.703125 1.265625q1.328125 1.546875 1.328125 4.03125q0 2.765625 -1.59375 4.59375q-1.3125 1.484375 -3.3125 1.484375q-0.859375 0 -1.5 -0.25q-0.46875 -0.171875 -1.046875 -0.703125l0 3.28125q0 1.09375 0.125 1.390625q0.140625 0.296875 0.46875 0.46875q0.34375 0.1875 1.21875 0.1875l0 0.4375l-5.625 0l0 -0.4375l0.296875 0q0.640625 0.015625 1.09375 -0.25q0.21875 -0.125 0.34375 -0.421875q0.125 -0.28125 0.125 -1.453125l0 -10.15625q0 -1.03125 -0.09375 -1.3125q-0.09375 -0.28125 -0.296875 -0.421875q-0.203125 -0.140625 -0.5625 -0.140625q-0.28125 0 -0.703125 0.15625l-0.15625 -0.375zm3.765625 1.859375l0 4.015625q0 1.296875 0.09375 1.703125q0.171875 0.6875 0.8125 1.203125q0.640625 0.515625 1.609375 0.515625q1.171875 0 1.890625 -0.921875q0.953125 -1.1875 0.953125 -3.359375q0 -2.453125 -1.078125 -3.78125q-0.75 -0.921875 -1.78125 -0.921875q-0.5625 0 -1.109375 0.28125q-0.421875 0.21875 -1.390625 1.265625zm15.71875 12.515625l0 0.4375q-1.765625 -0.890625 -2.953125 -2.09375q-1.6875 -1.703125 -2.609375 -4.0q-0.90625 -2.3125 -0.90625 -4.796875q0 -3.640625 1.796875 -6.625q1.796875 -3.0 4.671875 -4.296875l0 0.5q-1.4375 0.796875 -2.375 2.1875q-0.921875 1.375 -1.375 3.5q-0.453125 2.109375 -0.453125 4.421875q0 2.515625 0.390625 4.5625q0.296875 1.625 0.734375 2.59375q0.4375 0.984375 1.15625 1.875q0.734375 0.90625 1.921875 1.734375zm1.5078125 -10.96875l6.0625076 0l0 1.765625l-6.0625076 0l0 -1.765625zm7.335945 -4.46875l5.0625 0l0 0.4375q-0.484375 0 -0.6875 0.171875q-0.1875 0.15625 -0.1875 0.421875q0 0.28125 0.40625 0.859375q0.140625 0.1875 0.390625 0.59375l0.765625 1.21875l0.875 -1.21875q0.84375 -1.15625 0.84375 -1.46875q0 -0.25 -0.203125 -0.40625q-0.1875 -0.171875 -0.640625 -0.171875l0 -0.4375l3.640625 0l0 0.4375q-0.578125 0.03125 -1.0 0.3125q-0.578125 0.390625 -1.578125 1.734375l-1.453125 1.953125l2.671875 3.84375q0.984375 1.421875 1.40625 1.71875q0.421875 0.28125 1.078125 0.3125l0 0.421875l-5.0625 0l0 -0.421875q0.53125 0 0.828125 -0.234375q0.21875 -0.171875 0.21875 -0.4375q0 -0.265625 -0.75 -1.359375l-1.5625 -2.296875l-1.734375 2.296875q-0.796875 1.0625 -0.796875 1.265625q0 0.28125 0.265625 0.515625q0.265625 0.21875 0.796875 0.25l0 0.421875l-3.5 0l0 -0.421875q0.421875 -0.0625 0.734375 -0.296875q0.4375 -0.34375 1.5 -1.734375l2.25 -2.984375l-2.046875 -2.953125q-0.859375 -1.265625 -1.34375 -1.578125q-0.46875 -0.328125 -1.1875 -0.328125l0 -0.4375zm12.234375 -5.4375l0 -0.5q1.78125 0.890625 2.953125 2.078125q1.6875 1.71875 2.59375 4.015625q0.921875 2.296875 0.921875 4.796875q0 3.640625 -1.796875 6.625q-1.78125 3.0 -4.671875 4.296875l0 -0.4375q1.4375 -0.8125 2.359375 -2.1875q0.9375 -1.375 1.390625 -3.5q0.453125 -2.140625 0.453125 -4.4375q0 -2.5 -0.390625 -4.5625q-0.296875 -1.625 -0.734375 -2.59375q-0.4375 -0.96875 -1.171875 -1.875q-0.71875 -0.90625 -1.90625 -1.71875z" fill-rule="nonzero"></path><path fill="#000000" fill-opacity="0.0" d="m64.02231 83.49606l31.779526 0l0 28.314957l-31.779526 0z" fill-rule="evenodd"></path><path fill="#ff0000" d="m78.55356 101.814186l0 0.921875l-5.203125 0q0 -0.34375 0.125 -0.671875q0.1875 -0.53125 0.625 -1.046875q0.4375 -0.515625 1.265625 -1.1875q1.28125 -1.0625 1.734375 -1.671875q0.453125 -0.609375 0.453125 -1.15625q0 -0.578125 -0.40625 -0.96875q-0.40625 -0.40625 -1.078125 -0.40625q-0.6875 0 -1.109375 0.421875q-0.421875 0.421875 -0.421875 1.15625l-1.0 -0.09375q0.109375 -1.109375 0.765625 -1.6875q0.671875 -0.59375 1.796875 -0.59375q1.125 0 1.78125 0.625q0.671875 0.625 0.671875 1.5625q0 0.46875 -0.203125 0.9375q-0.1875 0.453125 -0.640625 0.953125q-0.4375 0.5 -1.484375 1.390625q-0.875 0.71875 -1.125 0.984375q-0.234375 0.265625 -0.40625 0.53125l3.859375 0z" fill-rule="nonzero"></path><path fill="#000000" fill-opacity="0.0" d="m450.56168 143.01706l76.91336 0l0 48.72441l-76.91336 0z" fill-rule="evenodd"></path><path fill="#000000" d="m460.5773 175.86206l0 -2.828125l8.640625 0l0 2.828125l-8.640625 0zm21.5625 6.875l-2.8125 0l0 -17.921875q-1.015625 0.96875 -2.671875 1.9375q-1.640625 0.96875 -2.953125 1.453125l0 -2.71875q2.359375 -1.109375 4.125 -2.6875q1.765625 -1.578125 2.5 -3.0625l1.8125 0l0 23.0z" fill-rule="nonzero"></path><path fill="#000000" fill-opacity="0.0" d="m555.6667 186.66011l28.472412 -97.29134" fill-rule="evenodd"></path><path stroke="#000000" stroke-width="3.0" stroke-linejoin="round" stroke-linecap="butt" d="m555.6667 186.66011l23.416748 -80.01593" fill-rule="evenodd"></path><path fill="#000000" stroke="#000000" stroke-width="3.0" stroke-linecap="butt" d="m583.8392 108.03596l-0.93188477 -14.458031l-8.57959 11.674492z" fill-rule="evenodd"></path><path fill="#000000" fill-opacity="0.0" d="m409.99738 186.66011l140.91339 0" fill-rule="evenodd"></path><path stroke="#000000" stroke-width="3.0" stroke-linejoin="round" stroke-linecap="butt" d="m409.99738 186.66011l140.91339 0" fill-rule="evenodd"></path><path fill="#000000" d="m550.91077 186.66011l0 0c0 -1.6438141 1.0646362 -2.9763794 2.3779297 -2.9763794l0 0c0.63067627 0 1.2355347 0.31358337 1.6814575 0.8717499c0.4459839 0.55818176 0.6965332 1.3152466 0.6965332 2.1046295l0 0c0 1.6437988 -1.0646362 2.9763794 -2.3779907 2.9763794l0 0c-1.3132935 0 -2.3779297 -1.3325806 -2.3779297 -2.9763794z" fill-rule="evenodd"></path><path stroke="#000000" stroke-width="1.0" stroke-linejoin="round" stroke-linecap="butt" d="m550.91077 186.66011l0 0c0 -1.6438141 1.0646362 -2.9763794 2.3779297 -2.9763794l0 0c0.63067627 0 1.2355347 0.31358337 1.6814575 0.8717499c0.4459839 0.55818176 0.6965332 1.3152466 0.6965332 2.1046295l0 0c0 1.6437988 -1.0646362 2.9763794 -2.3779907 2.9763794l0 0c-1.3132935 0 -2.3779297 -1.3325806 -2.3779297 -2.9763794z" fill-rule="evenodd"></path><path fill="#000000" fill-opacity="0.0" d="m422.3609 115.62205l17.35431 0.03149414" fill-rule="evenodd"></path><path stroke="#ff0000" stroke-width="1.0" stroke-linejoin="round" stroke-linecap="butt" d="m422.3609 115.62205l17.35431 0.03149414" fill-rule="evenodd"></path><path fill="#000000" fill-opacity="0.0" d="m206.04987 124.56693l17.35434 0.03149414" fill-rule="evenodd"></path><path stroke="#ff0000" stroke-width="1.0" stroke-linejoin="round" stroke-linecap="butt" d="m206.04987 124.56693l17.35434 0.03149414" fill-rule="evenodd"></path></g></svg>

