<?xml version="1.0" standalone="yes"?>

<svg version="1.1" viewBox="0.0 0.0 604.9711286089239 166.08398950131235" fill="none" stroke="none" stroke-linecap="square" stroke-miterlimit="10" xmlns="http://www.w3.org/2000/svg" xmlns:xlink="http://www.w3.org/1999/xlink"><clipPath id="p.0"><path d="m0 0l604.9711 0l0 166.08398l-604.9711 0l0 -166.08398z" clip-rule="nonzero"></path></clipPath><g clip-path="url(#p.0)"><path fill="#000000" fill-opacity="0.0" d="m0 0l604.9711 0l0 166.08398l-604.9711 0z" fill-rule="evenodd"></path><path fill="#000000" fill-opacity="0.0" d="m-0.005249344 50.45538l94.99213 -1.7322807" fill-rule="evenodd"></path><path stroke="#000000" stroke-width="3.0" stroke-linejoin="round" stroke-linecap="butt" d="m-0.005249344 50.45538l76.99512 -1.4040871" fill-rule="evenodd"></path><path fill="#000000" stroke="#000000" stroke-width="3.0" stroke-linecap="butt" d="m77.080215 54.005665l13.521683 -5.2026024l-13.702377 -4.7061424z" fill-rule="evenodd"></path><path fill="#cfe2f3" d="m94.98688 48.7231l0 0c0 -17.977522 14.869789 -32.55118 33.2126 -32.55118l0 0c8.808533 0 17.256287 3.4294891 23.484848 9.534019c6.2285767 6.1045303 9.727753 14.384052 9.727753 23.017162l0 0c0 17.977516 -14.869797 32.551178 -33.2126 32.551178l0 0c-18.342812 0 -33.2126 -14.573662 -33.2126 -32.551178z" fill-rule="evenodd"></path><path stroke="#000000" stroke-width="1.0" stroke-linejoin="round" stroke-linecap="butt" d="m94.98688 48.7231l0 0c0 -17.977522 14.869789 -32.55118 33.2126 -32.55118l0 0c8.808533 0 17.256287 3.4294891 23.484848 9.534019c6.2285767 6.1045303 9.727753 14.384052 9.727753 23.017162l0 0c0 17.977516 -14.869797 32.551178 -33.2126 32.551178l0 0c-18.342812 0 -33.2126 -14.573662 -33.2126 -32.551178z" fill-rule="evenodd"></path><path fill="#000000" d="m115.90651 54.583096l0 -8.296875l1.265625 0l0 1.25q0.484375 -0.875 0.890625 -1.15625q0.40625 -0.28125 0.90625 -0.28125q0.703125 0 1.4375 0.453125l-0.484375 1.296875q-0.515625 -0.296875 -1.03125 -0.296875q-0.453125 0 -0.828125 0.28125q-0.359375 0.265625 -0.515625 0.765625q-0.234375 0.75 -0.234375 1.640625l0 4.34375l-1.40625 0zm11.015625 -2.671875l1.453125 0.171875q-0.34375 1.28125 -1.28125 1.984375q-0.921875 0.703125 -2.359375 0.703125q-1.828125 0 -2.890625 -1.125q-1.0625 -1.125 -1.0625 -3.140625q0 -2.09375 1.078125 -3.25q1.078125 -1.15625 2.796875 -1.15625q1.65625 0 2.703125 1.140625q1.0625 1.125 1.0625 3.171875q0 0.125 0 0.375l-6.1875 0q0.078125 1.375 0.765625 2.109375q0.703125 0.71875 1.734375 0.71875q0.78125 0 1.328125 -0.40625q0.546875 -0.40625 0.859375 -1.296875zm-4.609375 -2.28125l4.625 0q-0.09375 -1.046875 -0.53125 -1.5625q-0.671875 -0.8125 -1.734375 -0.8125q-0.96875 0 -1.640625 0.65625q-0.65625 0.640625 -0.71875 1.71875zm7.8046875 4.953125l0 -11.453125l1.40625 0l0 11.453125l-1.40625 0zm9.0234375 0l0 -1.21875q-0.96875 1.40625 -2.640625 1.40625q-0.734375 0 -1.375 -0.28125q-0.625 -0.28125 -0.9375 -0.703125q-0.3125 -0.4375 -0.4375 -1.046875q-0.078125 -0.421875 -0.078125 -1.3125l0 -5.140625l1.40625 0l0 4.59375q0 1.109375 0.078125 1.484375q0.140625 0.5625 0.5625 0.875q0.4375 0.3125 1.0625 0.3125q0.640625 0 1.1875 -0.3125q0.5625 -0.328125 0.78125 -0.890625q0.234375 -0.5625 0.234375 -1.625l0 -4.4375l1.40625 0l0 8.296875l-1.25 0z" fill-rule="nonzero"></path><path fill="#000000" fill-opacity="0.0" d="m25.259842 0l41.95276 0l0 48.72441l-41.95276 0z" fill-rule="evenodd"></path><path fill="#000000" d="m39.806717 25.579376q0.765625 0.8125 1.15625 1.625q0.28125 0.5625 0.921875 2.953125l1.375 -2.0625q0.546875 -0.75 1.328125 -1.421875q0.78125 -0.6875 1.375 -0.9375q0.375 -0.15625 0.828125 -0.15625q0.671875 0 1.0625 0.359375q0.40625 0.359375 0.40625 0.875q0 0.59375 -0.234375 0.8125q-0.4375 0.390625 -1.0 0.390625q-0.328125 0 -0.703125 -0.140625q-0.734375 -0.25 -0.984375 -0.25q-0.375 0 -0.890625 0.4375q-0.96875 0.8125 -2.3125 3.140625l1.28125 5.375q0.296875 1.234375 0.5 1.484375q0.203125 0.234375 0.40625 0.234375q0.328125 0 0.765625 -0.359375q0.859375 -0.71875 1.46875 -1.875l0.546875 0.28125q-0.984375 1.84375 -2.5 3.0625q-0.859375 0.6875 -1.453125 0.6875q-0.875 0 -1.390625 -0.984375q-0.328125 -0.609375 -1.359375 -5.25q-2.4375 4.234375 -3.90625 5.453125q-0.953125 0.78125 -1.84375 0.78125q-0.625 0 -1.140625 -0.453125q-0.375 -0.34375 -0.375 -0.921875q0 -0.515625 0.34375 -0.859375q0.34375 -0.34375 0.84375 -0.34375q0.5 0 1.0625 0.5q0.40625 0.359375 0.625 0.359375q0.1875 0 0.484375 -0.25q0.734375 -0.59375 2.0 -2.5625q1.265625 -1.96875 1.65625 -2.84375q-0.96875 -3.796875 -1.046875 -4.015625q-0.359375 -1.015625 -0.9375 -1.4375q-0.578125 -0.421875 -1.703125 -0.421875q-0.359375 0 -0.828125 0.03125l0 -0.5625l4.171875 -0.734375z" fill-rule="nonzero"></path><path fill="#000000" fill-opacity="0.0" d="m161.41208 48.7231l103.49606 0" fill-rule="evenodd"></path><path stroke="#000000" stroke-width="3.0" stroke-linejoin="round" stroke-linecap="butt" d="m161.41208 48.7231l85.49606 0" fill-rule="evenodd"></path><path fill="#000000" stroke="#000000" stroke-width="3.0" stroke-linecap="butt" d="m246.90814 53.678295l13.614288 -4.9551964l-13.614288 -4.9552z" fill-rule="evenodd"></path><path fill="#000000" fill-opacity="0.0" d="m258.87665 58.81496l-99.433075 0" fill-rule="evenodd"></path><path stroke="#ff0000" stroke-width="3.0" stroke-linejoin="round" stroke-linecap="butt" d="m258.87665 58.81496l-81.433075 0" fill-rule="evenodd"></path><path fill="#ff0000" stroke="#ff0000" stroke-width="3.0" stroke-linecap="butt" d="m177.44357 53.859764l-13.614304 4.9551964l13.614304 4.9551964z" fill-rule="evenodd"></path><path fill="#000000" fill-opacity="0.0" d="m92.47244 58.67454l-92.47244 0.28346252" fill-rule="evenodd"></path><path stroke="#ff0000" stroke-width="3.0" stroke-linejoin="round" stroke-linecap="butt" d="m92.47244 58.67454l-74.47253 0.22829056" fill-rule="evenodd"></path><path fill="#ff0000" stroke="#ff0000" stroke-width="3.0" stroke-linecap="butt" d="m17.984726 53.947655l-13.599039 4.9969063l13.629417 4.9134407z" fill-rule="evenodd"></path><path fill="#000000" fill-opacity="0.0" d="m187.98032 -0.001312336l76.91339 0l0 48.72441l-76.91339 0z" fill-rule="evenodd"></path><path fill="#000000" d="m202.08969 25.578064q0.53125 0.90625 0.734375 1.703125q0.203125 0.78125 0.40625 3.09375l0.6875 7.6875q0.9375 -1.125 2.71875 -3.5625q0.859375 -1.1875 2.125 -3.234375q0.765625 -1.25 0.9375 -1.75q0.09375 -0.25 0.09375 -0.515625q0 -0.171875 -0.109375 -0.28125q-0.109375 -0.109375 -0.578125 -0.25q-0.453125 -0.15625 -0.765625 -0.546875q-0.296875 -0.40625 -0.296875 -0.921875q0 -0.640625 0.375 -1.03125q0.375 -0.390625 0.9375 -0.390625q0.6875 0 1.171875 0.578125q0.484375 0.5625 0.484375 1.5625q0 1.234375 -0.84375 2.828125q-0.84375 1.578125 -3.25 4.859375q-2.40625 3.28125 -5.828125 7.15625q-2.359375 2.671875 -3.5 3.359375q-1.140625 0.703125 -1.953125 0.703125q-0.484375 0 -0.84375 -0.375q-0.375 -0.359375 -0.375 -0.84375q0 -0.609375 0.515625 -1.109375q0.5 -0.5 1.09375 -0.5q0.3125 0 0.515625 0.140625q0.125 0.078125 0.28125 0.4375q0.140625 0.375 0.265625 0.5q0.078125 0.078125 0.1875 0.078125q0.09375 0 0.328125 -0.15625q0.859375 -0.53125 2.0 -1.6875q1.5 -1.53125 2.21875 -2.5l-0.875 -9.90625q-0.21875 -2.453125 -0.65625 -2.984375q-0.4375 -0.53125 -1.46875 -0.53125q-0.328125 0 -1.171875 0.09375l-0.140625 -0.578125l4.578125 -1.125z" fill-rule="nonzero"></path><path fill="#000000" fill-opacity="0.0" d="m187.52362 58.816273l46.61418 0l0 72.56694l-46.61418 0z" fill-rule="evenodd"></path><path fill="#ff0000" d="m207.41425 82.45003q0.140625 -1.328125 0.140625 -2.171875q0 -2.109375 -1.109375 -3.265625q-1.109375 -1.15625 -2.953125 -1.15625q-1.234375 0 -2.0625 0.46875q-0.8125 0.46875 -1.453125 1.390625l-0.546875 0q0.90625 -1.84375 1.9375 -2.6875q1.046875 -0.84375 2.53125 -0.84375q1.046875 0 2.046875 0.578125q1.015625 0.578125 1.625 1.859375q0.609375 1.265625 0.609375 3.453125q0 4.140625 -1.796875 7.453125q-2.03125 3.6875 -5.140625 3.6875q-1.828125 0 -2.90625 -1.046875q-1.0625 -1.0625 -1.0625 -2.875q0 -1.375 0.546875 -2.6875q0.546875 -1.328125 1.375 -2.234375q0.828125 -0.921875 1.859375 -1.453125q1.3125 -0.703125 2.6875 -0.703125q0.96875 0 1.734375 0.375q0.78125 0.359375 1.296875 0.890625q0.3125 0.328125 0.640625 0.96875zm-0.203125 1.046875q-0.453125 -1.296875 -1.359375 -1.96875q-0.90625 -0.671875 -2.0 -0.671875q-1.0625 0 -2.078125 0.734375q-1.015625 0.71875 -1.765625 2.546875q-0.75 1.8125 -0.75 3.640625q0 1.328125 0.640625 2.046875q0.640625 0.71875 1.640625 0.71875q1.4375 0 2.9375 -1.515625q1.921875 -1.953125 2.734375 -5.53125z" fill-rule="nonzero"></path><path fill="#ff0000" d="m219.383 90.85628l-11.78125 0l0.171875 -0.4375q0.9375 -0.015625 1.25 -0.15625q0.5 -0.203125 0.734375 -0.546875q0.359375 -0.53125 0.765625 -1.9375l2.8125 -9.671875q0.34375 -1.203125 0.34375 -1.765625q0 -0.4375 -0.328125 -0.6875q-0.3125 -0.25 -1.203125 -0.25q-0.203125 0 -0.3125 0l0.140625 -0.4375l6.46875 0l-0.09375 0.4375q-1.078125 0 -1.546875 0.21875q-0.453125 0.203125 -0.75 0.671875q-0.21875 0.328125 -0.703125 1.96875l-2.75 9.515625q-0.3125 1.078125 -0.3125 1.5q0 0.28125 0.3125 0.53125q0.203125 0.171875 0.90625 0.171875l1.53125 0q1.671875 0 2.65625 -0.421875q0.734375 -0.3125 1.34375 -0.9375q0.328125 -0.359375 1.15625 -1.75l0.3125 -0.53125l0.421875 0l-1.546875 4.515625z" fill-rule="nonzero"></path><path fill="#ff0000" d="m207.41425 111.45003q0.140625 -1.328125 0.140625 -2.171875q0 -2.109375 -1.109375 -3.265625q-1.109375 -1.15625 -2.953125 -1.15625q-1.234375 0 -2.0625 0.46875q-0.8125 0.46875 -1.453125 1.390625l-0.546875 0q0.90625 -1.84375 1.9375 -2.6875q1.046875 -0.84375 2.53125 -0.84375q1.046875 0 2.046875 0.578125q1.015625 0.578125 1.625 1.859375q0.609375 1.265625 0.609375 3.453125q0 4.140625 -1.796875 7.453125q-2.03125 3.6875 -5.140625 3.6875q-1.828125 0 -2.90625 -1.046875q-1.0625 -1.0625 -1.0625 -2.875q0 -1.375 0.546875 -2.6875q0.546875 -1.328125 1.375 -2.234375q0.828125 -0.921875 1.859375 -1.453125q1.3125 -0.703125 2.6875 -0.703125q0.96875 0 1.734375 0.375q0.78125 0.359375 1.296875 0.890625q0.3125 0.328125 0.640625 0.96875zm-0.203125 1.046875q-0.453125 -1.296875 -1.359375 -1.96875q-0.90625 -0.671875 -2.0 -0.671875q-1.0625 0 -2.078125 0.734375q-1.015625 0.71875 -1.765625 2.546875q-0.75 1.8125 -0.75 3.640625q0 1.328125 0.640625 2.046875q0.640625 0.71875 1.640625 0.71875q1.4375 0 2.9375 -1.515625q1.921875 -1.953125 2.734375 -5.53125z" fill-rule="nonzero"></path><path fill="#ff0000" d="m212.21112 109.2469q0.40625 0.6875 0.546875 1.28125q0.15625 0.578125 0.3125 2.3125l0.515625 5.765625q0.703125 -0.84375 2.046875 -2.671875q0.640625 -0.890625 1.59375 -2.421875q0.5625 -0.9375 0.703125 -1.3125q0.0625 -0.1875 0.0625 -0.390625q0 -0.125 -0.078125 -0.203125q-0.078125 -0.078125 -0.4375 -0.1875q-0.34375 -0.125 -0.578125 -0.421875q-0.21875 -0.296875 -0.21875 -0.6875q0 -0.46875 0.28125 -0.765625q0.28125 -0.296875 0.703125 -0.296875q0.515625 0 0.875 0.4375q0.375 0.421875 0.375 1.171875q0 0.921875 -0.640625 2.109375q-0.625 1.1875 -2.4375 3.65625q-1.796875 2.453125 -4.375 5.375q-1.765625 2.0 -2.625 2.515625q-0.859375 0.53125 -1.46875 0.53125q-0.359375 0 -0.625 -0.28125q-0.28125 -0.28125 -0.28125 -0.640625q0 -0.453125 0.390625 -0.828125q0.375 -0.375 0.8125 -0.375q0.234375 0 0.390625 0.109375q0.09375 0.046875 0.203125 0.328125q0.109375 0.28125 0.203125 0.375q0.0625 0.046875 0.140625 0.046875q0.078125 0 0.25 -0.109375q0.640625 -0.40625 1.5 -1.265625q1.125 -1.15625 1.671875 -1.875l-0.65625 -7.4375q-0.171875 -1.84375 -0.5 -2.234375q-0.328125 -0.40625 -1.09375 -0.40625q-0.25 0 -0.890625 0.078125l-0.09375 -0.4375l3.421875 -0.84375z" fill-rule="nonzero"></path><path fill="#000000" fill-opacity="0.0" d="m187.52362 95.09974l46.61418 0" fill-rule="evenodd"></path><path stroke="#ff0000" stroke-width="1.0" stroke-linejoin="round" stroke-linecap="butt" d="m187.52362 95.09974l46.61418 0" fill-rule="evenodd"></path><path fill="#000000" fill-opacity="0.0" d="m25.421259 58.67454l46.614174 0l0 72.566925l-46.614174 0z" fill-rule="evenodd"></path><path fill="#ff0000" d="m45.311886 82.30829q0.140625 -1.328125 0.140625 -2.171875q0 -2.109375 -1.109375 -3.265625q-1.109375 -1.15625 -2.953125 -1.15625q-1.234375 0 -2.0625 0.46875q-0.8125 0.46875 -1.453125 1.390625l-0.546875 0q0.90625 -1.84375 1.9375 -2.6875q1.046875 -0.84375 2.53125 -0.84375q1.046875 0 2.046875 0.578125q1.015625 0.578125 1.625 1.859375q0.609375 1.265625 0.609375 3.453125q0 4.140625 -1.796875 7.453125q-2.03125 3.6875 -5.140625 3.6875q-1.828125 0 -2.90625 -1.046875q-1.0625 -1.0625 -1.0625 -2.875q0 -1.375 0.546875 -2.6875q0.546875 -1.328125 1.375 -2.234375q0.828125 -0.921875 1.859375 -1.453125q1.3125 -0.703125 2.6875 -0.703125q0.96875 0 1.734375 0.375q0.78125 0.359375 1.296875 0.890625q0.3125 0.328125 0.640625 0.96875zm-0.203125 1.046875q-0.453125 -1.296875 -1.359375 -1.96875q-0.90625 -0.671875 -2.0 -0.671875q-1.0625 0 -2.078125 0.734375q-1.015625 0.71875 -1.765625 2.546875q-0.75 1.8125 -0.75 3.640625q0 1.328125 0.640625 2.046875q0.640625 0.71875 1.640625 0.71875q1.4375 0 2.9375 -1.515625q1.921875 -1.953125 2.734375 -5.53125z" fill-rule="nonzero"></path><path fill="#ff0000" d="m57.280636 90.71454l-11.78125 0l0.171875 -0.4375q0.9375 -0.015625 1.25 -0.15625q0.5 -0.203125 0.734375 -0.546875q0.359375 -0.53125 0.765625 -1.9375l2.8125 -9.671875q0.34375 -1.203125 0.34375 -1.765625q0 -0.4375 -0.328125 -0.6875q-0.3125 -0.25 -1.203125 -0.25q-0.203125 0 -0.3125 0l0.140625 -0.4375l6.46875 0l-0.09375 0.4375q-1.078125 0 -1.546875 0.21875q-0.453125 0.203125 -0.75 0.671875q-0.21875 0.328125 -0.703125 1.96875l-2.75 9.515625q-0.3125 1.078125 -0.3125 1.5q0 0.28125 0.3125 0.53125q0.203125 0.171875 0.90625 0.171875l1.53125 0q1.671875 0 2.65625 -0.421875q0.734375 -0.3125 1.34375 -0.9375q0.328125 -0.359375 1.15625 -1.75l0.3125 -0.53125l0.421875 0l-1.546875 4.515625z" fill-rule="nonzero"></path><path fill="#ff0000" d="m45.311886 111.30829q0.140625 -1.328125 0.140625 -2.171875q0 -2.109375 -1.109375 -3.265625q-1.109375 -1.15625 -2.953125 -1.15625q-1.234375 0 -2.0625 0.46875q-0.8125 0.46875 -1.453125 1.390625l-0.546875 0q0.90625 -1.84375 1.9375 -2.6875q1.046875 -0.84375 2.53125 -0.84375q1.046875 0 2.046875 0.578125q1.015625 0.578125 1.625 1.859375q0.609375 1.265625 0.609375 3.453125q0 4.140625 -1.796875 7.453125q-2.03125 3.6875 -5.140625 3.6875q-1.828125 0 -2.90625 -1.046875q-1.0625 -1.0625 -1.0625 -2.875q0 -1.375 0.546875 -2.6875q0.546875 -1.328125 1.375 -2.234375q0.828125 -0.921875 1.859375 -1.453125q1.3125 -0.703125 2.6875 -0.703125q0.96875 0 1.734375 0.375q0.78125 0.359375 1.296875 0.890625q0.3125 0.328125 0.640625 0.96875zm-0.203125 1.046875q-0.453125 -1.296875 -1.359375 -1.96875q-0.90625 -0.671875 -2.0 -0.671875q-1.0625 0 -2.078125 0.734375q-1.015625 0.71875 -1.765625 2.546875q-0.75 1.8125 -0.75 3.640625q0 1.328125 0.640625 2.046875q0.640625 0.71875 1.640625 0.71875q1.4375 0 2.9375 -1.515625q1.921875 -1.953125 2.734375 -5.53125z" fill-rule="nonzero"></path><path fill="#ff0000" d="m50.10876 109.10516q0.40625 0.6875 0.546875 1.28125q0.15625 0.578125 0.3125 2.3125l0.515625 5.765625q0.703125 -0.84375 2.046875 -2.671875q0.640625 -0.890625 1.59375 -2.421875q0.5625 -0.9375 0.703125 -1.3125q0.0625 -0.1875 0.0625 -0.390625q0 -0.125 -0.078125 -0.203125q-0.078125 -0.078125 -0.4375 -0.1875q-0.34375 -0.125 -0.578125 -0.421875q-0.21875 -0.296875 -0.21875 -0.6875q0 -0.46875 0.28125 -0.765625q0.28125 -0.296875 0.703125 -0.296875q0.515625 0 0.875 0.4375q0.375 0.421875 0.375 1.171875q0 0.921875 -0.640625 2.109375q-0.625 1.1875 -2.4375 3.65625q-1.796875 2.453125 -4.375 5.375q-1.765625 2.0 -2.625 2.515625q-0.859375 0.53125 -1.46875 0.53125q-0.359375 0 -0.625 -0.28125q-0.28125 -0.28125 -0.28125 -0.640625q0 -0.453125 0.390625 -0.828125q0.375 -0.375 0.8125 -0.375q0.234375 0 0.390625 0.109375q0.09375 0.046875 0.203125 0.328125q0.109375 0.28125 0.203125 0.375q0.0625 0.046875 0.140625 0.046875q0.078125 0 0.25 -0.109375q0.640625 -0.40625 1.5 -1.265625q1.125 -1.15625 1.671875 -1.875l-0.65625 -7.4375q-0.171875 -1.84375 -0.5 -2.234375q-0.328125 -0.40625 -1.09375 -0.40625q-0.25 0 -0.890625 0.078125l-0.09375 -0.4375l3.421875 -0.84375z" fill-rule="nonzero"></path><path fill="#000000" fill-opacity="0.0" d="m25.421259 94.95801l46.614174 0" fill-rule="evenodd"></path><path stroke="#ff0000" stroke-width="1.0" stroke-linejoin="round" stroke-linecap="butt" d="m25.421259 94.95801l46.614174 0" fill-rule="evenodd"></path><path fill="#000000" fill-opacity="0.0" d="m331.3281 50.45538l94.99213 -1.7322807" fill-rule="evenodd"></path><path stroke="#000000" stroke-width="3.0" stroke-linejoin="round" stroke-linecap="butt" d="m331.3281 50.45538l76.99512 -1.4040871" fill-rule="evenodd"></path><path fill="#000000" stroke="#000000" stroke-width="3.0" stroke-linecap="butt" d="m408.41354 54.005665l13.521698 -5.2026024l-13.702393 -4.7061424z" fill-rule="evenodd"></path><path fill="#cfe2f3" d="m426.32022 48.7231l0 0c0 -17.977522 14.8697815 -32.55118 33.212585 -32.55118l0 0c8.808533 0 17.256287 3.4294891 23.484863 9.534019c6.2285767 6.1045303 9.727722 14.384052 9.727722 23.017162l0 0c0 17.977516 -14.8697815 32.551178 -33.212585 32.551178l0 0c-18.342804 0 -33.212585 -14.573662 -33.212585 -32.551178z" fill-rule="evenodd"></path><path stroke="#000000" stroke-width="1.0" stroke-linejoin="round" stroke-linecap="butt" d="m426.32022 48.7231l0 0c0 -17.977522 14.8697815 -32.55118 33.212585 -32.55118l0 0c8.808533 0 17.256287 3.4294891 23.484863 9.534019c6.2285767 6.1045303 9.727722 14.384052 9.727722 23.017162l0 0c0 17.977516 -14.8697815 32.551178 -33.212585 32.551178l0 0c-18.342804 0 -33.212585 -14.573662 -33.212585 -32.551178z" fill-rule="evenodd"></path><path fill="#000000" d="m447.23984 54.583096l0 -8.296875l1.265625 0l0 1.25q0.484375 -0.875 0.890625 -1.15625q0.40625 -0.28125 0.90625 -0.28125q0.703125 0 1.4375 0.453125l-0.484375 1.296875q-0.515625 -0.296875 -1.03125 -0.296875q-0.453125 0 -0.828125 0.28125q-0.359375 0.265625 -0.515625 0.765625q-0.234375 0.75 -0.234375 1.640625l0 4.34375l-1.40625 0zm11.015625 -2.671875l1.453125 0.171875q-0.34375 1.28125 -1.28125 1.984375q-0.921875 0.703125 -2.359375 0.703125q-1.828125 0 -2.890625 -1.125q-1.0625 -1.125 -1.0625 -3.140625q0 -2.09375 1.078125 -3.25q1.078125 -1.15625 2.796875 -1.15625q1.65625 0 2.703125 1.140625q1.0625 1.125 1.0625 3.171875q0 0.125 0 0.375l-6.1875 0q0.078125 1.375 0.765625 2.109375q0.703125 0.71875 1.734375 0.71875q0.78125 0 1.328125 -0.40625q0.546875 -0.40625 0.859375 -1.296875zm-4.609375 -2.28125l4.625 0q-0.09375 -1.046875 -0.53125 -1.5625q-0.671875 -0.8125 -1.734375 -0.8125q-0.96875 0 -1.640625 0.65625q-0.65625 0.640625 -0.71875 1.71875zm7.8046875 4.953125l0 -11.453125l1.40625 0l0 11.453125l-1.40625 0zm9.0234375 0l0 -1.21875q-0.96875 1.40625 -2.640625 1.40625q-0.734375 0 -1.375 -0.28125q-0.625 -0.28125 -0.9375 -0.703125q-0.3125 -0.4375 -0.4375 -1.046875q-0.078125 -0.421875 -0.078125 -1.3125l0 -5.140625l1.40625 0l0 4.59375q0 1.109375 0.078125 1.484375q0.140625 0.5625 0.5625 0.875q0.4375 0.3125 1.0625 0.3125q0.640625 0 1.1875 -0.3125q0.5625 -0.328125 0.78125 -0.890625q0.234375 -0.5625 0.234375 -1.625l0 -4.4375l1.40625 0l0 8.296875l-1.25 0z" fill-rule="nonzero"></path><path fill="#000000" fill-opacity="0.0" d="m356.59317 0l41.95276 0l0 48.72441l-41.95276 0z" fill-rule="evenodd"></path><path fill="#000000" d="m371.14005 25.579376q0.765625 0.8125 1.15625 1.625q0.28125 0.5625 0.921875 2.953125l1.375 -2.0625q0.546875 -0.75 1.328125 -1.421875q0.78125 -0.6875 1.375 -0.9375q0.375 -0.15625 0.828125 -0.15625q0.671875 0 1.0625 0.359375q0.40625 0.359375 0.40625 0.875q0 0.59375 -0.234375 0.8125q-0.4375 0.390625 -1.0 0.390625q-0.328125 0 -0.703125 -0.140625q-0.734375 -0.25 -0.984375 -0.25q-0.375 0 -0.890625 0.4375q-0.96875 0.8125 -2.3125 3.140625l1.28125 5.375q0.296875 1.234375 0.5 1.484375q0.203125 0.234375 0.40625 0.234375q0.328125 0 0.765625 -0.359375q0.859375 -0.71875 1.46875 -1.875l0.546875 0.28125q-0.984375 1.84375 -2.5 3.0625q-0.859375 0.6875 -1.453125 0.6875q-0.875 0 -1.390625 -0.984375q-0.328125 -0.609375 -1.359375 -5.25q-2.4375 4.234375 -3.90625 5.453125q-0.953125 0.78125 -1.84375 0.78125q-0.625 0 -1.140625 -0.453125q-0.375 -0.34375 -0.375 -0.921875q0 -0.515625 0.34375 -0.859375q0.34375 -0.34375 0.84375 -0.34375q0.5 0 1.0625 0.5q0.40625 0.359375 0.625 0.359375q0.1875 0 0.484375 -0.25q0.734375 -0.59375 2.0 -2.5625q1.265625 -1.96875 1.65625 -2.84375q-0.96875 -3.796875 -1.046875 -4.015625q-0.359375 -1.015625 -0.9375 -1.4375q-0.578125 -0.421875 -1.703125 -0.421875q-0.359375 0 -0.828125 0.03125l0 -0.5625l4.171875 -0.734375z" fill-rule="nonzero"></path><path fill="#000000" fill-opacity="0.0" d="m492.7454 48.7231l103.49606 0" fill-rule="evenodd"></path><path stroke="#000000" stroke-width="3.0" stroke-linejoin="round" stroke-linecap="butt" d="m492.7454 48.7231l85.49606 0" fill-rule="evenodd"></path><path fill="#000000" stroke="#000000" stroke-width="3.0" stroke-linecap="butt" d="m578.24146 53.678295l13.614319 -4.9551964l-13.614319 -4.9552z" fill-rule="evenodd"></path><path fill="#000000" fill-opacity="0.0" d="m590.20996 58.81496l-99.433044 0" fill-rule="evenodd"></path><path stroke="#ff0000" stroke-width="3.0" stroke-linejoin="round" stroke-linecap="butt" d="m590.20996 58.81496l-81.433044 0" fill-rule="evenodd"></path><path fill="#ff0000" stroke="#ff0000" stroke-width="3.0" stroke-linecap="butt" d="m508.77692 53.859764l-13.614319 4.9551964l13.614319 4.9551964z" fill-rule="evenodd"></path><path fill="#000000" fill-opacity="0.0" d="m423.8058 58.67454l-92.47244 0.28346252" fill-rule="evenodd"></path><path stroke="#ff0000" stroke-width="3.0" stroke-linejoin="round" stroke-linecap="butt" d="m423.8058 58.67454l-74.472534 0.22829056" fill-rule="evenodd"></path><path fill="#ff0000" stroke="#ff0000" stroke-width="3.0" stroke-linecap="butt" d="m349.31805 53.947655l-13.59903 4.9969063l13.629425 4.9134407z" fill-rule="evenodd"></path><path fill="#000000" fill-opacity="0.0" d="m519.31366 -0.001312336l76.91339 0l0 48.72441l-76.91339 0z" fill-rule="evenodd"></path><path fill="#000000" d="m533.42303 25.578064q0.53125 0.90625 0.734375 1.703125q0.203125 0.78125 0.40625 3.09375l0.6875 7.6875q0.9375 -1.125 2.71875 -3.5625q0.859375 -1.1875 2.125 -3.234375q0.765625 -1.25 0.9375 -1.75q0.09375 -0.25 0.09375 -0.515625q0 -0.171875 -0.109375 -0.28125q-0.109375 -0.109375 -0.578125 -0.25q-0.453125 -0.15625 -0.765625 -0.546875q-0.296875 -0.40625 -0.296875 -0.921875q0 -0.640625 0.375 -1.03125q0.375 -0.390625 0.9375 -0.390625q0.6875 0 1.171875 0.578125q0.484375 0.5625 0.484375 1.5625q0 1.234375 -0.84375 2.828125q-0.84375 1.578125 -3.25 4.859375q-2.40625 3.28125 -5.828125 7.15625q-2.359375 2.671875 -3.5 3.359375q-1.140625 0.703125 -1.953125 0.703125q-0.484375 0 -0.84375 -0.375q-0.375 -0.359375 -0.375 -0.84375q0 -0.609375 0.515625 -1.109375q0.5 -0.5 1.09375 -0.5q0.3125 0 0.515625 0.140625q0.125 0.078125 0.28125 0.4375q0.140625 0.375 0.265625 0.5q0.078125 0.078125 0.1875 0.078125q0.09375 0 0.328125 -0.15625q0.859375 -0.53125 2.0 -1.6875q1.5 -1.53125 2.21875 -2.5l-0.875 -9.90625q-0.21875 -2.453125 -0.65625 -2.984375q-0.4375 -0.53125 -1.46875 -0.53125q-0.328125 0 -1.171875 0.09375l-0.140625 -0.578125l4.578125 -1.125z" fill-rule="nonzero"></path><path fill="#000000" fill-opacity="0.0" d="m518.85693 58.816273l46.614197 0l0 72.56694l-46.614197 0z" fill-rule="evenodd"></path><path fill="#ff0000" d="m538.74756 82.45003q0.140625 -1.328125 0.140625 -2.171875q0 -2.109375 -1.109375 -3.265625q-1.109375 -1.15625 -2.953125 -1.15625q-1.234375 0 -2.0625 0.46875q-0.8125 0.46875 -1.453125 1.390625l-0.546875 0q0.90625 -1.84375 1.9375 -2.6875q1.046875 -0.84375 2.53125 -0.84375q1.046875 0 2.046875 0.578125q1.015625 0.578125 1.625 1.859375q0.609375 1.265625 0.609375 3.453125q0 4.140625 -1.796875 7.453125q-2.03125 3.6875 -5.140625 3.6875q-1.828125 0 -2.90625 -1.046875q-1.0625 -1.0625 -1.0625 -2.875q0 -1.375 0.546875 -2.6875q0.546875 -1.328125 1.375 -2.234375q0.828125 -0.921875 1.859375 -1.453125q1.3125 -0.703125 2.6875 -0.703125q0.96875 0 1.734375 0.375q0.78125 0.359375 1.296875 0.890625q0.3125 0.328125 0.640625 0.96875zm-0.203125 1.046875q-0.453125 -1.296875 -1.359375 -1.96875q-0.90625 -0.671875 -2.0 -0.671875q-1.0625 0 -2.078125 0.734375q-1.015625 0.71875 -1.765625 2.546875q-0.75 1.8125 -0.75 3.640625q0 1.328125 0.640625 2.046875q0.640625 0.71875 1.640625 0.71875q1.4375 0 2.9375 -1.515625q1.921875 -1.953125 2.734375 -5.53125z" fill-rule="nonzero"></path><path fill="#ff0000" d="m550.7163 90.85628l-11.78125 0l0.171875 -0.4375q0.9375 -0.015625 1.25 -0.15625q0.5 -0.203125 0.734375 -0.546875q0.359375 -0.53125 0.765625 -1.9375l2.8125 -9.671875q0.34375 -1.203125 0.34375 -1.765625q0 -0.4375 -0.328125 -0.6875q-0.3125 -0.25 -1.203125 -0.25q-0.203125 0 -0.3125 0l0.140625 -0.4375l6.46875 0l-0.09375 0.4375q-1.078125 0 -1.546875 0.21875q-0.453125 0.203125 -0.75 0.671875q-0.21875 0.328125 -0.703125 1.96875l-2.75 9.515625q-0.3125 1.078125 -0.3125 1.5q0 0.28125 0.3125 0.53125q0.203125 0.171875 0.90625 0.171875l1.53125 0q1.671875 0 2.65625 -0.421875q0.734375 -0.3125 1.34375 -0.9375q0.328125 -0.359375 1.15625 -1.75l0.3125 -0.53125l0.421875 0l-1.546875 4.515625z" fill-rule="nonzero"></path><path fill="#ff0000" d="m538.74756 111.45003q0.140625 -1.328125 0.140625 -2.171875q0 -2.109375 -1.109375 -3.265625q-1.109375 -1.15625 -2.953125 -1.15625q-1.234375 0 -2.0625 0.46875q-0.8125 0.46875 -1.453125 1.390625l-0.546875 0q0.90625 -1.84375 1.9375 -2.6875q1.046875 -0.84375 2.53125 -0.84375q1.046875 0 2.046875 0.578125q1.015625 0.578125 1.625 1.859375q0.609375 1.265625 0.609375 3.453125q0 4.140625 -1.796875 7.453125q-2.03125 3.6875 -5.140625 3.6875q-1.828125 0 -2.90625 -1.046875q-1.0625 -1.0625 -1.0625 -2.875q0 -1.375 0.546875 -2.6875q0.546875 -1.328125 1.375 -2.234375q0.828125 -0.921875 1.859375 -1.453125q1.3125 -0.703125 2.6875 -0.703125q0.96875 0 1.734375 0.375q0.78125 0.359375 1.296875 0.890625q0.3125 0.328125 0.640625 0.96875zm-0.203125 1.046875q-0.453125 -1.296875 -1.359375 -1.96875q-0.90625 -0.671875 -2.0 -0.671875q-1.0625 0 -2.078125 0.734375q-1.015625 0.71875 -1.765625 2.546875q-0.75 1.8125 -0.75 3.640625q0 1.328125 0.640625 2.046875q0.640625 0.71875 1.640625 0.71875q1.4375 0 2.9375 -1.515625q1.921875 -1.953125 2.734375 -5.53125z" fill-rule="nonzero"></path><path fill="#ff0000" d="m543.54443 109.2469q0.40625 0.6875 0.546875 1.28125q0.15625 0.578125 0.3125 2.3125l0.515625 5.765625q0.703125 -0.84375 2.046875 -2.671875q0.640625 -0.890625 1.59375 -2.421875q0.5625 -0.9375 0.703125 -1.3125q0.0625 -0.1875 0.0625 -0.390625q0 -0.125 -0.078125 -0.203125q-0.078125 -0.078125 -0.4375 -0.1875q-0.34375 -0.125 -0.578125 -0.421875q-0.21875 -0.296875 -0.21875 -0.6875q0 -0.46875 0.28125 -0.765625q0.28125 -0.296875 0.703125 -0.296875q0.515625 0 0.875 0.4375q0.375 0.421875 0.375 1.171875q0 0.921875 -0.640625 2.109375q-0.625 1.1875 -2.4375 3.65625q-1.796875 2.453125 -4.375 5.375q-1.765625 2.0 -2.625 2.515625q-0.859375 0.53125 -1.46875 0.53125q-0.359375 0 -0.625 -0.28125q-0.28125 -0.28125 -0.28125 -0.640625q0 -0.453125 0.390625 -0.828125q0.375 -0.375 0.8125 -0.375q0.234375 0 0.390625 0.109375q0.09375 0.046875 0.203125 0.328125q0.109375 0.28125 0.203125 0.375q0.0625 0.046875 0.140625 0.046875q0.078125 0 0.25 -0.109375q0.640625 -0.40625 1.5 -1.265625q1.125 -1.15625 1.671875 -1.875l-0.65625 -7.4375q-0.171875 -1.84375 -0.5 -2.234375q-0.328125 -0.40625 -1.09375 -0.40625q-0.25 0 -0.890625 0.078125l-0.09375 -0.4375l3.421875 -0.84375z" fill-rule="nonzero"></path><path fill="#000000" fill-opacity="0.0" d="m518.85693 95.09974l46.614197 0" fill-rule="evenodd"></path><path stroke="#ff0000" stroke-width="1.0" stroke-linejoin="round" stroke-linecap="butt" d="m518.85693 95.09974l46.614197 0" fill-rule="evenodd"></path><path fill="#000000" fill-opacity="0.0" d="m369.458 58.67454l46.614166 0l0 72.566925l-46.614166 0z" fill-rule="evenodd"></path><path fill="#ff0000" d="m379.333 82.85516q0 -2.71875 0.8125 -4.671875q0.828125 -1.96875 2.1875 -2.921875q1.046875 -0.765625 2.171875 -0.765625q1.828125 0 3.28125 1.859375q1.8125 2.3125 1.8125 6.265625q0 2.765625 -0.796875 4.703125q-0.796875 1.921875 -2.03125 2.796875q-1.234375 0.875 -2.375 0.875q-2.28125 0 -3.796875 -2.6875q-1.265625 -2.265625 -1.265625 -5.453125zm2.296875 0.296875q0 3.28125 0.796875 5.359375q0.671875 1.75 2.0 1.75q0.625 0 1.296875 -0.5625q0.6875 -0.578125 1.046875 -1.921875q0.53125 -2.015625 0.53125 -5.671875q0 -2.71875 -0.5625 -4.546875q-0.421875 -1.34375 -1.078125 -1.90625q-0.484375 -0.390625 -1.171875 -0.390625q-0.796875 0 -1.40625 0.71875q-0.84375 0.96875 -1.15625 3.0625q-0.296875 2.078125 -0.296875 4.109375z" fill-rule="nonzero"></path><path fill="#000000" fill-opacity="0.0" d="m69.884514 123.02887l116.62992 0l0 43.055115l-116.62992 0z" fill-rule="evenodd"></path><path fill="#000000" d="m79.02514 149.94887l3.59375 -5.125l-3.328125 -4.734375l2.09375 0l1.515625 2.3125q0.421875 0.65625 0.671875 1.109375q0.421875 -0.609375 0.765625 -1.09375l1.65625 -2.328125l1.984375 0l-3.390625 4.640625l3.65625 5.21875l-2.046875 0l-2.03125 -3.0625l-0.53125 -0.828125l-2.59375 3.890625l-2.015625 0zm24.417679 -5.953125l-9.0 3.859375l0 -1.65625l7.125 -2.96875l-7.125 -2.9375l0 -1.65625l9.0 3.8125l0 1.546875zm6.8126373 -0.75q0 -2.421875 0.5 -3.890625q0.5 -1.46875 1.46875 -2.265625q0.984375 -0.796875 2.46875 -0.796875q1.09375 0 1.921875 0.4375q0.828125 0.4375 1.359375 1.28125q0.546875 0.828125 0.84375 2.015625q0.3125 1.1875 0.3125 3.21875q0 2.390625 -0.5 3.859375q-0.484375 1.46875 -1.46875 2.28125q-0.96875 0.796875 -2.46875 0.796875q-1.96875 0 -3.078125 -1.40625q-1.359375 -1.703125 -1.359375 -5.53125zm1.71875 0q0 3.34375 0.78125 4.453125q0.796875 1.109375 1.9375 1.109375q1.15625 0 1.9375 -1.109375q0.78125 -1.125 0.78125 -4.453125q0 -3.359375 -0.78125 -4.46875q-0.78125 -1.109375 -1.953125 -1.109375q-1.15625 0 -1.828125 0.984375q-0.875 1.234375 -0.875 4.59375z" fill-rule="nonzero"></path><path fill="#000000" d="m130.09993 139.48012q-1.265625 7.421875 -3.0468826 9.203125q-0.96875 0.96875 -2.0 0.96875q-1.1875 0 -1.859375 -0.671875q-1.78125 -1.78125 -1.78125 -4.453125q0 -3.265625 2.296875 -5.5625q2.53125 -2.53125 6.1562576 -2.53125q3.265625 0 5.125 1.859375q2.078125 2.078125 2.078125 4.90625q0 3.03125 -1.921875 4.96875q-1.265625 1.265625 -3.859375 2.453125l-1.5625 -1.5625q2.59375 -0.8125 4.078125 -2.296875q1.40625 -1.421875 1.40625 -3.421875q0 -2.375 -1.546875 -3.9375q-1.5625 -1.546875 -4.90625 -1.40625l1.34375 0.671875q0.890625 0.375 0 0.8125zm-1.71875 -1.40625q-1.9218826 0.4375 -3.3281326 1.859375q-1.9375 1.921875 -1.9375 4.75q0 1.703125 1.109375 2.8125q0.234375 0.21875 0.671875 0.21875q0.453125 0 0.96875 -0.515625q1.703125 -1.703125 2.5156326 -9.125zm15.375 -2.96875l1.546875 0q0.828125 0.140625 0.15625 0.59375l0.140625 3.5625q0.078125 1.5625 0.53125 2.515625q2.078125 -0.890625 5.5625 -1.84375l0.734375 1.921875q-7.046875 1.265625 -9.421875 3.640625q-0.8125 0.8125 -0.8125 1.703125q0 0.671875 0.515625 1.1875q0.515625 0.515625 2.15625 0.515625l7.125 0l0 1.640625l-7.203125 0q-2.453125 0 -3.40625 -0.96875q-0.96875 -0.96875 -0.96875 -2.21875q0 -1.640625 1.1875 -2.828125q0.890625 -0.890625 2.96875 -2.078125q-0.453125 -1.109375 -0.515625 -2.453125l-0.296875 -4.890625zm18.46875 3.859375q0.296875 0.890625 0.890625 1.859375q2.375 -0.375 4.6875 -1.046875l0.65625 1.5625q-1.921875 0.4375 -4.515625 0.8125q1.109375 1.484375 2.890625 2.828125l-1.265625 1.25q-2.671875 -0.59375 -4.234375 -0.59375q-2.96875 0 -3.859375 0.890625q-0.515625 0.53125 -0.515625 1.125q0 0.734375 0.453125 1.1875q0.59375 0.59375 3.328125 0.59375l4.53125 0l-0.296875 1.625l-4.53125 0q-2.96875 0 -4.15625 -1.1875q-0.890625 -0.890625 -0.890625 -2.296875q0 -1.109375 0.828125 -1.9375q1.25 -1.25 5.1875 -1.25q1.34375 0 2.671875 0.21875q-1.03125 -1.109375 -1.859375 -2.15625q-3.484375 0.453125 -7.640625 0.453125l-0.21875 -1.5625q3.78125 0.078125 7.125 -0.296875q-0.515625 -0.96875 -0.8125 -1.859375q-2.75 0.21875 -5.71875 0.21875l-0.15625 -1.484375q3.046875 0.078125 5.5 -0.140625q-0.375 -1.34375 -0.59375 -3.046875l1.625 0q0.75 0.15625 0.078125 0.59375q0.15625 1.109375 0.375 2.234375q1.921875 -0.234375 3.9375 -0.75l0.515625 1.484375q-2.53125 0.453125 -4.015625 0.671875z" fill-rule="nonzero"></path><path fill="#000000" fill-opacity="0.0" d="m416.0735 123.02887l124.91339 0l0 43.055115l-124.91339 0z" fill-rule="evenodd"></path><path fill="#000000" d="m425.2141 149.94887l3.59375 -5.125l-3.328125 -4.734375l2.09375 0l1.515625 2.3125q0.421875 0.65625 0.671875 1.109375q0.421875 -0.609375 0.765625 -1.09375l1.65625 -2.328125l1.984375 0l-3.390625 4.640625l3.65625 5.21875l-2.046875 0l-2.03125 -3.0625l-0.53125 -0.828125l-2.59375 3.890625l-2.015625 0z" fill-rule="nonzero"></path><path fill="#ffffff" d="m439.58493 136.68095l8.043762 0l0 16.853256l-8.043762 0l0 -16.853256z" fill-rule="nonzero"></path><path fill="#545454" d="m440.14743 144.37074l0 -1.234375l7.109375 -3.0l0 1.3125l-5.640625 2.3125l5.640625 2.328125l0 1.3125l-7.109375 -3.03125zm7.09375 4.796875l-7.078125 0l0 -1.21875l7.078125 0l0 1.21875z" fill-rule="nonzero"></path><path fill="#000000" d="m453.59323 143.24574q0 -2.421875 0.5 -3.890625q0.5 -1.46875 1.46875 -2.265625q0.984375 -0.796875 2.46875 -0.796875q1.09375 0 1.921875 0.4375q0.828125 0.4375 1.359375 1.28125q0.546875 0.828125 0.84375 2.015625q0.3125 1.1875 0.3125 3.21875q0 2.390625 -0.5 3.859375q-0.484375 1.46875 -1.46875 2.28125q-0.96875 0.796875 -2.46875 0.796875q-1.96875 0 -3.078125 -1.40625q-1.359375 -1.703125 -1.359375 -5.53125zm1.71875 0q0 3.34375 0.78125 4.453125q0.796875 1.109375 1.9375 1.109375q1.15625 0 1.9375 -1.109375q0.78125 -1.125 0.78125 -4.453125q0 -3.359375 -0.78125 -4.46875q-0.78125 -1.109375 -1.953125 -1.109375q-1.15625 0 -1.828125 0.984375q-0.875 1.234375 -0.875 4.59375z" fill-rule="nonzero"></path><path fill="#000000" d="m473.4377 139.48012q-1.265625 7.421875 -3.046875 9.203125q-0.96875 0.96875 -2.0 0.96875q-1.1875 0 -1.859375 -0.671875q-1.78125 -1.78125 -1.78125 -4.453125q0 -3.265625 2.296875 -5.5625q2.53125 -2.53125 6.15625 -2.53125q3.265625 0 5.125 1.859375q2.078125 2.078125 2.078125 4.90625q0 3.03125 -1.921875 4.96875q-1.265625 1.265625 -3.859375 2.453125l-1.5625 -1.5625q2.59375 -0.8125 4.078125 -2.296875q1.40625 -1.421875 1.40625 -3.421875q0 -2.375 -1.546875 -3.9375q-1.5625 -1.546875 -4.90625 -1.40625l1.34375 0.671875q0.890625 0.375 0 0.8125zm-1.71875 -1.40625q-1.921875 0.4375 -3.328125 1.859375q-1.9375 1.921875 -1.9375 4.75q0 1.703125 1.109375 2.8125q0.234375 0.21875 0.671875 0.21875q0.453125 0 0.96875 -0.515625q1.703125 -1.703125 2.515625 -9.125zm15.375 -2.96875l1.546875 0q0.828125 0.140625 0.15625 0.59375l0.140625 3.5625q0.078125 1.5625 0.53125 2.515625q2.078125 -0.890625 5.5625 -1.84375l0.734375 1.921875q-7.046875 1.265625 -9.421875 3.640625q-0.8125 0.8125 -0.8125 1.703125q0 0.671875 0.515625 1.1875q0.515625 0.515625 2.15625 0.515625l7.125 0l0 1.640625l-7.203125 0q-2.453125 0 -3.40625 -0.96875q-0.96875 -0.96875 -0.96875 -2.21875q0 -1.640625 1.1875 -2.828125q0.890625 -0.890625 2.96875 -2.078125q-0.453125 -1.109375 -0.515625 -2.453125l-0.296875 -4.890625zm18.46875 3.859375q0.296875 0.890625 0.890625 1.859375q2.375 -0.375 4.6875 -1.046875l0.65625 1.5625q-1.921875 0.4375 -4.515625 0.8125q1.109375 1.484375 2.890625 2.828125l-1.265625 1.25q-2.671875 -0.59375 -4.234375 -0.59375q-2.96875 0 -3.859375 0.890625q-0.515625 0.53125 -0.515625 1.125q0 0.734375 0.453125 1.1875q0.59375 0.59375 3.328125 0.59375l4.53125 0l-0.296875 1.625l-4.53125 0q-2.96875 0 -4.15625 -1.1875q-0.890625 -0.890625 -0.890625 -2.296875q0 -1.109375 0.828125 -1.9375q1.25 -1.25 5.1875 -1.25q1.34375 0 2.671875 0.21875q-1.03125 -1.109375 -1.859375 -2.15625q-3.484375 0.453125 -7.640625 0.453125l-0.21875 -1.5625q3.78125 0.078125 7.125 -0.296875q-0.515625 -0.96875 -0.8125 -1.859375q-2.75 0.21875 -5.71875 0.21875l-0.15625 -1.484375q3.046875 0.078125 5.5 -0.140625q-0.375 -1.34375 -0.59375 -3.046875l1.625 0q0.75 0.15625 0.078125 0.59375q0.15625 1.109375 0.375 2.234375q1.921875 -0.234375 3.9375 -0.75l0.515625 1.484375q-2.53125 0.453125 -4.015625 0.671875z" fill-rule="nonzero"></path></g></svg>

