<?xml version="1.0" standalone="yes"?>

<svg version="1.1" viewBox="0.0 0.0 371.73753280839895 163.98162729658793" fill="none" stroke="none" stroke-linecap="square" stroke-miterlimit="10" xmlns="http://www.w3.org/2000/svg" xmlns:xlink="http://www.w3.org/1999/xlink"><clipPath id="p.0"><path d="m0 0l371.73752 0l0 163.98163l-371.73752 0l0 -163.98163z" clip-rule="nonzero"></path></clipPath><g clip-path="url(#p.0)"><path fill="#000000" fill-opacity="0.0" d="m0 0l371.73752 0l0 163.98163l-371.73752 0z" fill-rule="evenodd"></path><path fill="#000000" fill-opacity="0.0" d="m54.429134 73.98857l129.79527 -0.88188934" fill-rule="evenodd"></path><path stroke="#000000" stroke-width="3.0" stroke-linejoin="round" stroke-linecap="butt" d="m54.429134 73.98857l111.795685 -0.7595978" fill-rule="evenodd"></path><path fill="#000000" stroke="#000000" stroke-width="3.0" stroke-linecap="butt" d="m166.2585 78.18406l13.580307 -5.0475845l-13.647644 -4.8625793z" fill-rule="evenodd"></path><path fill="#cfe2f3" d="m184.22441 73.10668l0 0c0 -23.204659 20.066101 -42.015747 44.818893 -42.015747l0 0c24.752792 0 44.81891 18.81109 44.81891 42.015747l0 0c0 23.204659 -20.066116 42.015747 -44.81891 42.015747l0 0c-24.752792 0 -44.818893 -18.811089 -44.818893 -42.015747z" fill-rule="evenodd"></path><path stroke="#000000" stroke-width="1.0" stroke-linejoin="round" stroke-linecap="butt" d="m184.22441 73.10668l0 0c0 -23.204659 20.066101 -42.015747 44.818893 -42.015747l0 0c24.752792 0 44.81891 18.81109 44.81891 42.015747l0 0c0 23.204659 -20.066116 42.015747 -44.81891 42.015747l0 0c-24.752792 0 -44.818893 -18.811089 -44.818893 -42.015747z" fill-rule="evenodd"></path><path fill="#000000" d="m206.72656 75.7673l1.03125 -0.15625q0.09375 0.625 0.484375 0.953125q0.40625 0.328125 1.140625 0.328125q0.71875 0 1.0625 -0.28125q0.359375 -0.296875 0.359375 -0.703125q0 -0.359375 -0.3125 -0.5625q-0.21875 -0.140625 -1.078125 -0.359375q-1.15625 -0.296875 -1.609375 -0.5q-0.4375 -0.21875 -0.671875 -0.59375q-0.234375 -0.375 -0.234375 -0.84375q0 -0.40625 0.1875 -0.765625q0.1875 -0.359375 0.515625 -0.59375q0.25 -0.171875 0.671875 -0.296875q0.421875 -0.125 0.921875 -0.125q0.71875 0 1.265625 0.21875q0.5625 0.203125 0.828125 0.5625q0.265625 0.359375 0.359375 0.953125l-1.03125 0.140625q-0.0625 -0.46875 -0.40625 -0.734375q-0.328125 -0.28125 -0.953125 -0.28125q-0.71875 0 -1.03125 0.25q-0.3125 0.234375 -0.3125 0.5625q0 0.203125 0.125 0.359375q0.140625 0.171875 0.40625 0.28125q0.15625 0.0625 0.9375 0.265625q1.125 0.3125 1.5625 0.5q0.4375 0.1875 0.6875 0.546875q0.25 0.359375 0.25 0.90625q0 0.53125 -0.3125 1.0q-0.296875 0.453125 -0.875 0.71875q-0.578125 0.25 -1.3125 0.25q-1.21875 0 -1.859375 -0.5q-0.625 -0.515625 -0.796875 -1.5zm6.421875 -5.515625l0 -1.21875l1.0625 0l0 1.21875l-1.0625 0zm0 7.375l0 -6.21875l1.0625 0l0 6.21875l-1.0625 0zm2.4628906 0.515625l1.03125 0.15625q0.0625 0.46875 0.359375 0.6875q0.390625 0.296875 1.0625 0.296875q0.734375 0 1.125 -0.296875q0.40625 -0.296875 0.546875 -0.8125q0.09375 -0.328125 0.078125 -1.359375q-0.6875 0.8125 -1.71875 0.8125q-1.28125 0 -1.984375 -0.921875q-0.703125 -0.9375 -0.703125 -2.21875q0 -0.890625 0.3125 -1.640625q0.328125 -0.765625 0.9375 -1.171875q0.609375 -0.40625 1.4375 -0.40625q1.109375 0 1.828125 0.890625l0 -0.75l0.96875 0l0 5.375q0 1.453125 -0.296875 2.0625q-0.296875 0.609375 -0.9375 0.953125q-0.640625 0.359375 -1.578125 0.359375q-1.109375 0 -1.796875 -0.5q-0.6875 -0.5 -0.671875 -1.515625zm0.875 -3.734375q0 1.21875 0.484375 1.78125q0.484375 0.5625 1.21875 0.5625q0.734375 0 1.21875 -0.5625q0.5 -0.5625 0.5 -1.75q0 -1.140625 -0.515625 -1.71875q-0.5 -0.578125 -1.21875 -0.578125q-0.703125 0 -1.203125 0.578125q-0.484375 0.5625 -0.484375 1.6875zm6.001953 3.21875l0 -6.21875l0.9375 0l0 0.875q0.296875 -0.46875 0.78125 -0.734375q0.484375 -0.28125 1.109375 -0.28125q0.6875 0 1.125 0.28125q0.453125 0.28125 0.625 0.796875q0.75 -1.078125 1.921875 -1.078125q0.9375 0 1.421875 0.515625q0.5 0.5 0.5 1.578125l0 4.265625l-1.046875 0l0 -3.921875q0 -0.625 -0.109375 -0.90625q-0.09375 -0.28125 -0.359375 -0.453125q-0.265625 -0.171875 -0.640625 -0.171875q-0.65625 0 -1.09375 0.4375q-0.421875 0.4375 -0.421875 1.40625l0 3.609375l-1.0625 0l0 -4.046875q0 -0.703125 -0.265625 -1.046875q-0.25 -0.359375 -0.828125 -0.359375q-0.453125 0 -0.828125 0.234375q-0.375 0.234375 -0.546875 0.6875q-0.171875 0.453125 -0.171875 1.296875l0 3.234375l-1.046875 0zm9.605469 -3.109375q0 -1.734375 0.953125 -2.5625q0.796875 -0.6875 1.953125 -0.6875q1.28125 0 2.09375 0.84375q0.828125 0.828125 0.828125 2.3125q0 1.203125 -0.359375 1.890625q-0.359375 0.6875 -1.0625 1.078125q-0.6875 0.375 -1.5 0.375q-1.296875 0 -2.109375 -0.828125q-0.796875 -0.84375 -0.796875 -2.421875zm1.078125 0q0 1.1875 0.515625 1.78125q0.53125 0.59375 1.3125 0.59375q0.796875 0 1.3125 -0.59375q0.515625 -0.59375 0.515625 -1.8125q0 -1.15625 -0.53125 -1.75q-0.515625 -0.59375 -1.296875 -0.59375q-0.78125 0 -1.3125 0.59375q-0.515625 0.578125 -0.515625 1.78125zm5.986328 -4.265625l0 -1.21875l1.0625 0l0 1.21875l-1.0625 0zm0 7.375l0 -6.21875l1.0625 0l0 6.21875l-1.0625 0zm6.6972656 0l0 -0.78125q-0.59375 0.921875 -1.734375 0.921875q-0.75 0 -1.375 -0.40625q-0.625 -0.421875 -0.96875 -1.15625q-0.34375 -0.734375 -0.34375 -1.6875q0 -0.921875 0.3125 -1.6875q0.3125 -0.765625 0.9375 -1.15625q0.625 -0.40625 1.390625 -0.40625q0.5625 0 1.0 0.234375q0.4375 0.234375 0.71875 0.609375l0 -3.078125l1.046875 0l0 8.59375l-0.984375 0zm-3.328125 -3.109375q0 1.203125 0.5 1.796875q0.5 0.578125 1.1875 0.578125q0.6875 0 1.171875 -0.5625q0.484375 -0.5625 0.484375 -1.71875q0 -1.28125 -0.5 -1.875q-0.484375 -0.59375 -1.203125 -0.59375q-0.703125 0 -1.171875 0.578125q-0.46875 0.5625 -0.46875 1.796875z" fill-rule="nonzero"></path><path fill="#000000" fill-opacity="0.0" d="m114.30446 1.1981627l41.95276 0l0 48.72441l-41.95276 0z" fill-rule="evenodd"></path><path fill="#000000" d="m128.85133 26.777538q0.765625 0.8125 1.15625 1.625q0.28125 0.5625 0.921875 2.953125l1.375 -2.0625q0.546875 -0.75 1.328125 -1.421875q0.78125 -0.6875 1.375 -0.9375q0.375 -0.15625 0.828125 -0.15625q0.671875 0 1.0625 0.359375q0.40625 0.359375 0.40625 0.875q0 0.59375 -0.234375 0.8125q-0.4375 0.390625 -1.0 0.390625q-0.328125 0 -0.703125 -0.140625q-0.734375 -0.25 -0.984375 -0.25q-0.375 0 -0.890625 0.4375q-0.96875 0.8125 -2.3125 3.140625l1.28125 5.375q0.296875 1.234375 0.5 1.484375q0.203125 0.234375 0.40625 0.234375q0.328125 0 0.765625 -0.359375q0.859375 -0.71875 1.46875 -1.875l0.546875 0.28125q-0.984375 1.84375 -2.5 3.0625q-0.859375 0.6875 -1.453125 0.6875q-0.875 0 -1.390625 -0.984375q-0.328125 -0.609375 -1.359375 -5.25q-2.4375 4.234375 -3.90625 5.453125q-0.953125 0.78125 -1.84375 0.78125q-0.625 0 -1.140625 -0.453125q-0.375 -0.34375 -0.375 -0.921875q0 -0.515625 0.34375 -0.859375q0.34375 -0.34375 0.84375 -0.34375q0.5 0 1.0625 0.5q0.40625 0.359375 0.625 0.359375q0.1875 0 0.484375 -0.25q0.734375 -0.59375 2.0 -2.5625q1.265625 -1.96875 1.65625 -2.84375q-0.96875 -3.796875 -1.046875 -4.015625q-0.359375 -1.015625 -0.9375 -1.4375q-0.578125 -0.421875 -1.703125 -0.421875q-0.359375 0 -0.828125 0.03125l0 -0.5625l4.171875 -0.734375z" fill-rule="nonzero"></path><path fill="#000000" fill-opacity="0.0" d="m273.8622 73.10668l91.52756 0.22047424" fill-rule="evenodd"></path><path stroke="#000000" stroke-width="3.0" stroke-linejoin="round" stroke-linecap="butt" d="m273.8622 73.10668l73.52759 0.17710876" fill-rule="evenodd"></path><path fill="#000000" stroke="#000000" stroke-width="3.0" stroke-linecap="butt" d="m347.37787 78.238976l13.62619 -4.922386l-13.602295 -4.987976z" fill-rule="evenodd"></path><path fill="#000000" fill-opacity="0.0" d="m368.0105 81.814964l-94.14172 -0.03150177" fill-rule="evenodd"></path><path stroke="#ff0000" stroke-width="3.0" stroke-linejoin="round" stroke-linecap="butt" d="m368.0105 81.814964l-76.14172 -0.025474548" fill-rule="evenodd"></path><path fill="#ff0000" stroke="#ff0000" stroke-width="3.0" stroke-linecap="butt" d="m291.87042 76.83429l-13.615936 4.9506454l13.61261 4.9597473z" fill-rule="evenodd"></path><path fill="#000000" fill-opacity="0.0" d="m181.51706 82.085304l-134.92914 0.37795258" fill-rule="evenodd"></path><path stroke="#ff0000" stroke-width="3.0" stroke-linejoin="round" stroke-linecap="butt" d="m181.51706 82.085304l-116.92921 0.3275299" fill-rule="evenodd"></path><path fill="#ff0000" stroke="#ff0000" stroke-width="3.0" stroke-linecap="butt" d="m64.573975 77.45766l-13.600357 4.9933167l13.62812 4.917038z" fill-rule="evenodd"></path><path fill="#000000" fill-opacity="0.0" d="m305.77298 6.422572l76.91336 0l0 48.724407l-76.91336 0z" fill-rule="evenodd"></path><path fill="#000000" d="m319.88235 32.00195q0.53125 0.90625 0.734375 1.703125q0.203125 0.78125 0.40625 3.09375l0.6875 7.6875q0.9375 -1.125 2.71875 -3.5625q0.859375 -1.1875 2.125 -3.234375q0.765625 -1.25 0.9375 -1.75q0.09375 -0.25 0.09375 -0.515625q0 -0.171875 -0.109375 -0.28125q-0.109375 -0.109375 -0.578125 -0.25q-0.453125 -0.15625 -0.765625 -0.546875q-0.296875 -0.40625 -0.296875 -0.921875q0 -0.640625 0.375 -1.03125q0.375 -0.390625 0.9375 -0.390625q0.6875 0 1.171875 0.578125q0.484375 0.5625 0.484375 1.5625q0 1.234375 -0.84375 2.828125q-0.84375 1.578125 -3.25 4.859375q-2.40625 3.28125 -5.828125 7.15625q-2.359375 2.671875 -3.5 3.359375q-1.140625 0.703125 -1.953125 0.703125q-0.484375 0 -0.84375 -0.375q-0.375 -0.359375 -0.375 -0.84375q0 -0.609375 0.515625 -1.109375q0.5 -0.5 1.09375 -0.5q0.3125 0 0.515625 0.140625q0.125 0.078125 0.28125 0.4375q0.140625 0.375 0.265625 0.5q0.078125 0.078125 0.1875 0.078125q0.09375 0 0.328125 -0.15625q0.859375 -0.53125 2.0 -1.6875q1.5 -1.53125 2.21875 -2.5l-0.875 -9.90625q-0.21875 -2.453125 -0.65625 -2.984375q-0.4375 -0.53125 -1.46875 -0.53125q-0.328125 0 -1.171875 0.09375l-0.140625 -0.578125l4.578125 -1.125z" fill-rule="nonzero"></path><path fill="#000000" fill-opacity="0.0" d="m302.75198 90.27165l46.614166 0l0 72.566925l-46.614166 0z" fill-rule="evenodd"></path><path fill="#ff0000" d="m322.6426 113.9054q0.140625 -1.328125 0.140625 -2.171875q0 -2.109375 -1.109375 -3.265625q-1.109375 -1.15625 -2.953125 -1.15625q-1.234375 0 -2.0625 0.46875q-0.8125 0.46875 -1.453125 1.390625l-0.546875 0q0.90625 -1.84375 1.9375 -2.6875q1.046875 -0.84375 2.53125 -0.84375q1.046875 0 2.046875 0.578125q1.015625 0.578125 1.625 1.859375q0.609375 1.265625 0.609375 3.453125q0 4.140625 -1.796875 7.453125q-2.03125 3.6875 -5.140625 3.6875q-1.828125 0 -2.90625 -1.046875q-1.0625 -1.0625 -1.0625 -2.875q0 -1.375 0.546875 -2.6875q0.546875 -1.328125 1.375 -2.234375q0.828125 -0.921875 1.859375 -1.453125q1.3125 -0.703125 2.6875 -0.703125q0.96875 0 1.734375 0.375q0.78125 0.359375 1.296875 0.890625q0.3125 0.328125 0.640625 0.96875zm-0.203125 1.046875q-0.453125 -1.296875 -1.359375 -1.96875q-0.90625 -0.671875 -2.0 -0.671875q-1.0625 0 -2.078125 0.734375q-1.015625 0.71875 -1.765625 2.546875q-0.75 1.8125 -0.75 3.640625q0 1.328125 0.640625 2.046875q0.640625 0.71875 1.640625 0.71875q1.4375 0 2.9375 -1.515625q1.921875 -1.953125 2.734375 -5.53125z" fill-rule="nonzero"></path><path fill="#ff0000" d="m334.61136 122.31165l-11.78125 0l0.171875 -0.4375q0.9375 -0.015625 1.25 -0.15625q0.5 -0.203125 0.734375 -0.546875q0.359375 -0.53125 0.765625 -1.9375l2.8125 -9.671875q0.34375 -1.203125 0.34375 -1.765625q0 -0.4375 -0.328125 -0.6875q-0.3125 -0.25 -1.203125 -0.25q-0.203125 0 -0.3125 0l0.140625 -0.4375l6.46875 0l-0.09375 0.4375q-1.078125 0 -1.546875 0.21875q-0.453125 0.203125 -0.75 0.671875q-0.21875 0.328125 -0.703125 1.96875l-2.75 9.515625q-0.3125 1.078125 -0.3125 1.5q0 0.28125 0.3125 0.53125q0.203125 0.171875 0.90625 0.171875l1.53125 0q1.671875 0 2.65625 -0.421875q0.734375 -0.3125 1.34375 -0.9375q0.328125 -0.359375 1.15625 -1.75l0.3125 -0.53125l0.421875 0l-1.546875 4.515625z" fill-rule="nonzero"></path><path fill="#ff0000" d="m322.6426 142.90541q0.140625 -1.328125 0.140625 -2.171875q0 -2.109375 -1.109375 -3.265625q-1.109375 -1.15625 -2.953125 -1.15625q-1.234375 0 -2.0625 0.46875q-0.8125 0.46875 -1.453125 1.390625l-0.546875 0q0.90625 -1.84375 1.9375 -2.6875q1.046875 -0.84375 2.53125 -0.84375q1.046875 0 2.046875 0.578125q1.015625 0.578125 1.625 1.859375q0.609375 1.265625 0.609375 3.453125q0 4.140625 -1.796875 7.453125q-2.03125 3.6875 -5.140625 3.6875q-1.828125 0 -2.90625 -1.046875q-1.0625 -1.0625 -1.0625 -2.875q0 -1.375 0.546875 -2.6875q0.546875 -1.328125 1.375 -2.234375q0.828125 -0.921875 1.859375 -1.453125q1.3125 -0.703125 2.6875 -0.703125q0.96875 0 1.734375 0.375q0.78125 0.359375 1.296875 0.890625q0.3125 0.328125 0.640625 0.96875zm-0.203125 1.046875q-0.453125 -1.296875 -1.359375 -1.96875q-0.90625 -0.671875 -2.0 -0.671875q-1.0625 0 -2.078125 0.734375q-1.015625 0.71875 -1.765625 2.546875q-0.75 1.8125 -0.75 3.640625q0 1.328125 0.640625 2.046875q0.640625 0.71875 1.640625 0.71875q1.4375 0 2.9375 -1.515625q1.921875 -1.953125 2.734375 -5.53125z" fill-rule="nonzero"></path><path fill="#ff0000" d="m327.43948 140.70229q0.40625 0.6875 0.546875 1.28125q0.15625 0.578125 0.3125 2.3125l0.515625 5.765625q0.703125 -0.84375 2.046875 -2.671875q0.640625 -0.890625 1.59375 -2.421875q0.5625 -0.9375 0.703125 -1.3125q0.0625 -0.1875 0.0625 -0.390625q0 -0.125 -0.078125 -0.203125q-0.078125 -0.078125 -0.4375 -0.1875q-0.34375 -0.125 -0.578125 -0.421875q-0.21875 -0.296875 -0.21875 -0.6875q0 -0.46875 0.28125 -0.765625q0.28125 -0.296875 0.703125 -0.296875q0.515625 0 0.875 0.4375q0.375 0.421875 0.375 1.171875q0 0.921875 -0.640625 2.109375q-0.625 1.1875 -2.4375 3.65625q-1.796875 2.453125 -4.375 5.375q-1.765625 2.0 -2.625 2.515625q-0.859375 0.53125 -1.46875 0.53125q-0.359375 0 -0.625 -0.28125q-0.28125 -0.28125 -0.28125 -0.640625q0 -0.453125 0.390625 -0.828125q0.375 -0.375 0.8125 -0.375q0.234375 0 0.390625 0.109375q0.09375 0.046875 0.203125 0.328125q0.109375 0.28125 0.203125 0.375q0.0625 0.046875 0.140625 0.046875q0.078125 0 0.25 -0.109375q0.640625 -0.40625 1.5 -1.265625q1.125 -1.15625 1.671875 -1.875l-0.65625 -7.4375q-0.171875 -1.84375 -0.5 -2.234375q-0.328125 -0.40625 -1.09375 -0.40625q-0.25 0 -0.890625 0.078125l-0.09375 -0.4375l3.421875 -0.84375z" fill-rule="nonzero"></path><path fill="#000000" fill-opacity="0.0" d="m302.75198 126.555115l46.614166 0" fill-rule="evenodd"></path><path stroke="#ff0000" stroke-width="1.0" stroke-linejoin="round" stroke-linecap="butt" d="m302.75198 126.555115l46.614166 0" fill-rule="evenodd"></path><path fill="#000000" fill-opacity="0.0" d="m-0.001312336 92.3189l46.614174 0l0 72.56693l-46.614174 0z" fill-rule="evenodd"></path><path fill="#ff0000" d="m19.889313 115.95265q0.140625 -1.328125 0.140625 -2.171875q0 -2.109375 -1.109375 -3.265625q-1.109375 -1.15625 -2.953125 -1.15625q-1.234375 0 -2.0625 0.46875q-0.8125 0.46875 -1.453125 1.390625l-0.546875 0q0.90625 -1.84375 1.9375 -2.6875q1.046875 -0.84375 2.53125 -0.84375q1.046875 0 2.046875 0.578125q1.015625 0.578125 1.625 1.859375q0.609375 1.265625 0.609375 3.453125q0 4.140625 -1.796875 7.453125q-2.03125 3.6875 -5.140625 3.6875q-1.828125 0 -2.90625 -1.046875q-1.0625 -1.0625 -1.0625 -2.875q0 -1.375 0.546875 -2.6875q0.546875 -1.328125 1.375 -2.234375q0.828125 -0.921875 1.859375 -1.453125q1.3125 -0.703125 2.6875 -0.703125q0.96875 0 1.734375 0.375q0.78125 0.359375 1.296875 0.890625q0.3125 0.328125 0.640625 0.96875zm-0.203125 1.046875q-0.453125 -1.296875 -1.359375 -1.96875q-0.90625 -0.671875 -2.0 -0.671875q-1.0625 0 -2.078125 0.734375q-1.015625 0.71875 -1.765625 2.546875q-0.75 1.8125 -0.75 3.640625q0 1.328125 0.640625 2.046875q0.640625 0.71875 1.640625 0.71875q1.4375 0 2.9375 -1.515625q1.921875 -1.953125 2.734375 -5.53125z" fill-rule="nonzero"></path><path fill="#ff0000" d="m31.858063 124.3589l-11.78125 0l0.171875 -0.4375q0.9375 -0.015625 1.25 -0.15625q0.5 -0.203125 0.734375 -0.546875q0.359375 -0.53125 0.765625 -1.9375l2.8125 -9.671875q0.34375 -1.203125 0.34375 -1.765625q0 -0.4375 -0.328125 -0.6875q-0.3125 -0.25 -1.203125 -0.25q-0.203125 0 -0.3125 0l0.140625 -0.4375l6.46875 0l-0.09375 0.4375q-1.078125 0 -1.546875 0.21875q-0.453125 0.203125 -0.75 0.671875q-0.21875 0.328125 -0.703125 1.96875l-2.75 9.515625q-0.3125 1.078125 -0.3125 1.5q0 0.28125 0.3125 0.53125q0.203125 0.171875 0.90625 0.171875l1.53125 0q1.671875 0 2.65625 -0.421875q0.734375 -0.3125 1.34375 -0.9375q0.328125 -0.359375 1.15625 -1.75l0.3125 -0.53125l0.421875 0l-1.546875 4.515625z" fill-rule="nonzero"></path><path fill="#ff0000" d="m19.889313 144.95265q0.140625 -1.328125 0.140625 -2.171875q0 -2.109375 -1.109375 -3.265625q-1.109375 -1.15625 -2.953125 -1.15625q-1.234375 0 -2.0625 0.46875q-0.8125 0.46875 -1.453125 1.390625l-0.546875 0q0.90625 -1.84375 1.9375 -2.6875q1.046875 -0.84375 2.53125 -0.84375q1.046875 0 2.046875 0.578125q1.015625 0.578125 1.625 1.859375q0.609375 1.265625 0.609375 3.453125q0 4.140625 -1.796875 7.453125q-2.03125 3.6875 -5.140625 3.6875q-1.828125 0 -2.90625 -1.046875q-1.0625 -1.0625 -1.0625 -2.875q0 -1.375 0.546875 -2.6875q0.546875 -1.328125 1.375 -2.234375q0.828125 -0.921875 1.859375 -1.453125q1.3125 -0.703125 2.6875 -0.703125q0.96875 0 1.734375 0.375q0.78125 0.359375 1.296875 0.890625q0.3125 0.328125 0.640625 0.96875zm-0.203125 1.046875q-0.453125 -1.296875 -1.359375 -1.96875q-0.90625 -0.671875 -2.0 -0.671875q-1.0625 0 -2.078125 0.734375q-1.015625 0.71875 -1.765625 2.546875q-0.75 1.8125 -0.75 3.640625q0 1.328125 0.640625 2.046875q0.640625 0.71875 1.640625 0.71875q1.4375 0 2.9375 -1.515625q1.921875 -1.953125 2.734375 -5.53125z" fill-rule="nonzero"></path><path fill="#ff0000" d="m24.686188 142.74953q0.40625 0.6875 0.546875 1.28125q0.15625 0.578125 0.3125 2.3125l0.515625 5.765625q0.703125 -0.84375 2.046875 -2.671875q0.640625 -0.890625 1.59375 -2.421875q0.5625 -0.9375 0.703125 -1.3125q0.0625 -0.1875 0.0625 -0.390625q0 -0.125 -0.078125 -0.203125q-0.078125 -0.078125 -0.4375 -0.1875q-0.34375 -0.125 -0.578125 -0.421875q-0.21875 -0.296875 -0.21875 -0.6875q0 -0.46875 0.28125 -0.765625q0.28125 -0.296875 0.703125 -0.296875q0.515625 0 0.875 0.4375q0.375 0.421875 0.375 1.171875q0 0.921875 -0.640625 2.109375q-0.625 1.1875 -2.4375 3.65625q-1.796875 2.453125 -4.375 5.375q-1.765625 2.0 -2.625 2.515625q-0.859375 0.53125 -1.46875 0.53125q-0.359375 0 -0.625 -0.28125q-0.28125 -0.28125 -0.28125 -0.640625q0 -0.453125 0.390625 -0.828125q0.375 -0.375 0.8125 -0.375q0.234375 0 0.390625 0.109375q0.09375 0.046875 0.203125 0.328125q0.109375 0.28125 0.203125 0.375q0.0625 0.046875 0.140625 0.046875q0.078125 0 0.25 -0.109375q0.640625 -0.40625 1.5 -1.265625q1.125 -1.15625 1.671875 -1.875l-0.65625 -7.4375q-0.171875 -1.84375 -0.5 -2.234375q-0.328125 -0.40625 -1.09375 -0.40625q-0.25 0 -0.890625 0.078125l-0.09375 -0.4375l3.421875 -0.84375z" fill-rule="nonzero"></path><path fill="#000000" fill-opacity="0.0" d="m-0.001312336 128.60236l46.614174 0" fill-rule="evenodd"></path><path stroke="#ff0000" stroke-width="1.0" stroke-linejoin="round" stroke-linecap="butt" d="m-0.001312336 128.60236l46.614174 0" fill-rule="evenodd"></path><path fill="#000000" fill-opacity="0.0" d="m39.752583 102.68635l141.76378 0l0 38.70867l-141.76378 0z" fill-rule="evenodd"></path><path fill="#ff0000" d="m52.580708 119.971306q0.40625 0.6875 0.546875 1.28125q0.15625 0.578125 0.3125 2.3125l0.515625 5.7656174q0.703125 -0.84375 2.046875 -2.6718674q0.640625 -0.890625 1.59375 -2.421875q0.5625 -0.9375 0.703125 -1.3125q0.0625 -0.1875 0.0625 -0.390625q0 -0.125 -0.078125 -0.203125q-0.078125 -0.078125 -0.4375 -0.1875q-0.34375 -0.125 -0.578125 -0.421875q-0.21875 -0.296875 -0.21875 -0.6875q0 -0.46875 0.28125 -0.765625q0.28125 -0.296875 0.703125 -0.296875q0.515625 0 0.875 0.4375q0.375 0.421875 0.375 1.171875q0 0.921875 -0.640625 2.109375q-0.625 1.1875 -2.4375 3.65625q-1.796875 2.4531174 -4.375 5.3749924q-1.765625 2.0 -2.625 2.515625q-0.859375 0.53125 -1.46875 0.53125q-0.359375 0 -0.625 -0.28125q-0.28125 -0.28125 -0.28125 -0.640625q0 -0.453125 0.390625 -0.828125q0.375 -0.375 0.8125 -0.375q0.234375 0 0.390625 0.109375q0.09375 0.046875 0.203125 0.328125q0.109375 0.28125 0.203125 0.375q0.0625 0.046875 0.140625 0.046875q0.078125 0 0.25 -0.109375q0.640625 -0.40625 1.5 -1.265625q1.125 -1.15625 1.671875 -1.875l-0.65625 -7.4374924q-0.171875 -1.84375 -0.5 -2.234375q-0.328125 -0.40625 -1.09375 -0.40625q-0.25 0 -0.890625 0.078125l-0.09375 -0.4375l3.421875 -0.84375z" fill-rule="nonzero"></path><path fill="#ff0000" d="m79.96743 123.89318q-0.015625 2.390625 1.15625 3.75q1.171875 1.3593674 2.75 1.3593674q1.0625 0 1.828125 -0.578125q0.78125 -0.5937424 1.3125 -1.9999924l0.359375 0.234375q-0.234375 1.6093674 -1.421875 2.9374924q-1.1875 1.3125 -2.96875 1.3125q-1.9375 0 -3.3125 -1.5q-1.375 -1.5156174 -1.375 -4.0624924q0 -2.75 1.40625 -4.28125q1.421875 -1.546875 3.546875 -1.546875q1.8125 0 2.96875 1.1875q1.15625 1.1875 1.15625 3.1875l-7.40625 0zm0 -0.6875l4.96875 0q-0.0625 -1.03125 -0.25 -1.453125q-0.296875 -0.65625 -0.875 -1.03125q-0.578125 -0.375 -1.21875 -0.375q-0.96875 0 -1.734375 0.765625q-0.765625 0.75 -0.890625 2.09375zm8.402344 -3.359375l5.0625 0l0 0.4375q-0.484375 0 -0.6875 0.171875q-0.1875 0.15625 -0.1875 0.421875q0 0.28125 0.40625 0.859375q0.140625 0.1875 0.390625 0.59375l0.765625 1.21875l0.875 -1.21875q0.84375 -1.15625 0.84375 -1.46875q0 -0.25 -0.203125 -0.40625q-0.1875 -0.171875 -0.640625 -0.171875l0 -0.4375l3.640625 0l0 0.4375q-0.578125 0.03125 -1.0 0.3125q-0.578125 0.390625 -1.578125 1.734375l-1.453125 1.953125l2.671875 3.8437424q0.984375 1.421875 1.40625 1.71875q0.421875 0.28125 1.078125 0.3125l0 0.421875l-5.0625 0l0 -0.421875q0.53125 0 0.828125 -0.234375q0.21875 -0.171875 0.21875 -0.4375q0 -0.265625 -0.75 -1.359375l-1.5625 -2.2968674l-1.734375 2.2968674q-0.796875 1.0625 -0.796875 1.265625q0 0.28125 0.265625 0.515625q0.265625 0.21875 0.796875 0.25l0 0.421875l-3.5 0l0 -0.421875q0.421875 -0.0625 0.734375 -0.296875q0.4375 -0.34375 1.5 -1.734375l2.25 -2.9843674l-2.046875 -2.953125q-0.859375 -1.265625 -1.34375 -1.578125q-0.46875 -0.328125 -1.1875 -0.328125l0 -0.4375zm11.65625 1.0625l3.3125 -1.328125l0.453125 0l0 2.5q0.828125 -1.421875 1.65625 -1.984375q0.84375 -0.5625 1.765625 -0.5625q1.625 0 2.703125 1.265625q1.328125 1.546875 1.328125 4.03125q0 2.765625 -1.59375 4.5937424q-1.3125 1.484375 -3.3125 1.484375q-0.859375 0 -1.5 -0.25q-0.46875 -0.171875 -1.046875 -0.703125l0 3.28125q0 1.09375 0.125 1.390625q0.140625 0.296875 0.46875 0.46875q0.34375 0.1875 1.21875 0.1875l0 0.4375l-5.625 0l0 -0.4375l0.296875 0q0.640625 0.015625 1.09375 -0.25q0.21875 -0.125 0.34375 -0.421875q0.125 -0.28125 0.125 -1.453125l0 -10.156242q0 -1.03125 -0.09375 -1.3125q-0.09375 -0.28125 -0.296875 -0.421875q-0.203125 -0.140625 -0.5625 -0.140625q-0.28125 0 -0.703125 0.15625l-0.15625 -0.375zm3.765625 1.859375l0 4.015625q0 1.2968674 0.09375 1.7031174q0.171875 0.6875 0.8125 1.203125q0.640625 0.515625 1.609375 0.515625q1.171875 0 1.890625 -0.921875q0.953125 -1.1875 0.953125 -3.3593674q0 -2.453125 -1.078125 -3.78125q-0.75 -0.921875 -1.78125 -0.921875q-0.5625 0 -1.109375 0.28125q-0.421875 0.21875 -1.390625 1.265625zm15.71875 12.515617l0 0.4375q-1.765625 -0.890625 -2.953125 -2.09375q-1.6875 -1.703125 -2.609375 -4.0q-0.90625 -2.3124924 -0.90625 -4.7968674q0 -3.640625 1.796875 -6.625q1.796875 -3.0 4.671875 -4.296875l0 0.5q-1.4375 0.796875 -2.375 2.1875q-0.921875 1.375 -1.375 3.5q-0.453125 2.109375 -0.453125 4.421875q0 2.515625 0.390625 4.5624924q0.296875 1.625 0.734375 2.59375q0.4375 0.984375 1.15625 1.875q0.734375 0.90625 1.921875 1.734375zm1.5078125 -10.968742l6.0625 0l0 1.765625l-6.0625 0l0 -1.765625zm7.33593 -4.46875l5.0625 0l0 0.4375q-0.484375 0 -0.6875 0.171875q-0.1875 0.15625 -0.1875 0.421875q0 0.28125 0.40625 0.859375q0.140625 0.1875 0.390625 0.59375l0.765625 1.21875l0.875 -1.21875q0.84375 -1.15625 0.84375 -1.46875q0 -0.25 -0.203125 -0.40625q-0.1875 -0.171875 -0.640625 -0.171875l0 -0.4375l3.640625 0l0 0.4375q-0.578125 0.03125 -1.0 0.3125q-0.578125 0.390625 -1.578125 1.734375l-1.453125 1.953125l2.671875 3.8437424q0.984375 1.421875 1.40625 1.71875q0.421875 0.28125 1.078125 0.3125l0 0.421875l-5.0625 0l0 -0.421875q0.53125 0 0.828125 -0.234375q0.21875 -0.171875 0.21875 -0.4375q0 -0.265625 -0.75 -1.359375l-1.5625 -2.2968674l-1.734375 2.2968674q-0.796875 1.0625 -0.796875 1.265625q0 0.28125 0.265625 0.515625q0.265625 0.21875 0.796875 0.25l0 0.421875l-3.5 0l0 -0.421875q0.421875 -0.0625 0.734375 -0.296875q0.4375 -0.34375 1.5 -1.734375l2.25 -2.9843674l-2.046875 -2.953125q-0.859375 -1.265625 -1.34375 -1.578125q-0.46875 -0.328125 -1.1875 -0.328125l0 -0.4375zm12.234375 -5.4375l0 -0.5q1.78125 0.890625 2.953125 2.078125q1.6875 1.71875 2.59375 4.015625q0.921875 2.296875 0.921875 4.796875q0 3.6406174 -1.796875 6.6249924q-1.78125 3.0 -4.671875 4.296875l0 -0.4375q1.4375 -0.8125 2.359375 -2.1875q0.9375 -1.375 1.390625 -3.5q0.453125 -2.1406174 0.453125 -4.4374924q0 -2.5 -0.390625 -4.5625q-0.296875 -1.625 -0.734375 -2.59375q-0.4375 -0.96875 -1.171875 -1.875q-0.71875 -0.90625 -1.90625 -1.71875z" fill-rule="nonzero"></path><path fill="#000000" fill-opacity="0.0" d="m58.43176 102.68635l31.77953 0l0 28.314964l-31.77953 0z" fill-rule="evenodd"></path><path fill="#ff0000" d="m72.963005 121.00448l0 0.921875l-5.203125 0q0 -0.34375 0.125 -0.671875q0.1875 -0.53125 0.625 -1.046875q0.4375 -0.515625 1.265625 -1.1875q1.28125 -1.0625 1.734375 -1.671875q0.453125 -0.609375 0.453125 -1.15625q0 -0.578125 -0.40625 -0.96875q-0.40625 -0.40625 -1.078125 -0.40625q-0.6875 0 -1.109375 0.421875q-0.421875 0.421875 -0.421875 1.15625l-1.0 -0.09375q0.109375 -1.109375 0.765625 -1.6875q0.671875 -0.59375 1.796875 -0.59375q1.125 0 1.78125 0.625q0.671875 0.625 0.671875 1.5625q0 0.46875 -0.203125 0.9375q-0.1875 0.453125 -0.640625 0.953125q-0.4375 0.5 -1.484375 1.390625q-0.875 0.71875 -1.125 0.984375q-0.234375 0.265625 -0.40625 0.53125l3.859375 0z" fill-rule="nonzero"></path></g></svg>

